G04 start of page 13 for group 13 layer_idx 14 *
G04 Title: liplight-art, bottom_paste *
G04 Creator: pcb-rnd 2.0.0 *
G04 CreationDate: 2018-08-04 21:30:55 UTC *
G04 For:  *
G04 Format: Gerber/RS-274X *
G04 PCB-Dimensions: 506299 506299 *
G04 PCB-Coordinate-Origin: lower left *
%MOIN*%
%FSLAX25Y25*%
%LNBOTTOMPASTE*%
%ADD45C,0.0001*%
G54D45*G36*
X108268Y428544D02*X103150D01*
Y434448D01*
X108268D01*
Y428544D01*
G37*
G36*
X115354D02*X110236D01*
Y434448D01*
X115354D01*
Y428544D01*
G37*
G36*
X382316Y398047D02*X377198D01*
Y403951D01*
X382316D01*
Y398047D01*
G37*
G36*
X151456Y428544D02*X146338D01*
Y434448D01*
X151456D01*
Y428544D01*
G37*
G36*
X144370D02*X139252D01*
Y434448D01*
X144370D01*
Y428544D01*
G37*
G36*
X382316Y428547D02*X377198D01*
Y434451D01*
X382316D01*
Y428547D01*
G37*
G36*
X180709Y428544D02*X175591D01*
Y434448D01*
X180709D01*
Y428544D01*
G37*
G36*
X187795D02*X182677D01*
Y434448D01*
X187795D01*
Y428544D01*
G37*
G36*
X116142Y66339D02*X111024D01*
Y72243D01*
X116142D01*
Y66339D01*
G37*
G36*
X123228D02*X118110D01*
Y72243D01*
X123228D01*
Y66339D01*
G37*
G36*
X86614D02*X81496D01*
Y72243D01*
X86614D01*
Y66339D01*
G37*
G36*
X93700D02*X88582D01*
Y72243D01*
X93700D01*
Y66339D01*
G37*
G36*
X180016Y100347D02*X174898D01*
Y106251D01*
X180016D01*
Y100347D01*
G37*
G36*
X187102D02*X181984D01*
Y106251D01*
X187102D01*
Y100347D01*
G37*
G36*
X143516Y99847D02*X138398D01*
Y105751D01*
X143516D01*
Y99847D01*
G37*
G36*
X150602D02*X145484D01*
Y105751D01*
X150602D01*
Y99847D01*
G37*
G36*
X146654Y66339D02*X141536D01*
Y72243D01*
X146654D01*
Y66339D01*
G37*
G36*
X153740D02*X148622D01*
Y72243D01*
X153740D01*
Y66339D01*
G37*
G36*
X382316Y99847D02*X377198D01*
Y105751D01*
X382316D01*
Y99847D01*
G37*
G36*
Y129347D02*X377198D01*
Y135251D01*
X382316D01*
Y129347D01*
G37*
G36*
Y158747D02*X377198D01*
Y164651D01*
X382316D01*
Y158747D01*
G37*
G36*
Y189347D02*X377198D01*
Y195251D01*
X382316D01*
Y189347D01*
G37*
G36*
X382416Y218847D02*X377298D01*
Y224751D01*
X382416D01*
Y218847D01*
G37*
G36*
X382316Y249347D02*X377198D01*
Y255251D01*
X382316D01*
Y249347D01*
G37*
G36*
Y278847D02*X377198D01*
Y284751D01*
X382316D01*
Y278847D01*
G37*
G36*
Y308447D02*X377198D01*
Y314351D01*
X382316D01*
Y308447D01*
G37*
G36*
Y338847D02*X377198D01*
Y344751D01*
X382316D01*
Y338847D01*
G37*
G36*
Y368347D02*X377198D01*
Y374251D01*
X382316D01*
Y368347D01*
G37*
G36*
X236221Y66339D02*X231103D01*
Y72243D01*
X236221D01*
Y66339D01*
G37*
G36*
X243307D02*X238189D01*
Y72243D01*
X243307D01*
Y66339D01*
G37*
G36*
X206693D02*X201575D01*
Y72243D01*
X206693D01*
Y66339D01*
G37*
G36*
X213779D02*X208661D01*
Y72243D01*
X213779D01*
Y66339D01*
G37*
G36*
X266733D02*X261615D01*
Y72243D01*
X266733D01*
Y66339D01*
G37*
G36*
X273819D02*X268701D01*
Y72243D01*
X273819D01*
Y66339D01*
G37*
G36*
X176181D02*X171063D01*
Y72243D01*
X176181D01*
Y66339D01*
G37*
G36*
X183267D02*X178149D01*
Y72243D01*
X183267D01*
Y66339D01*
G37*
G36*
X144370Y189371D02*X139252D01*
Y195275D01*
X144370D01*
Y189371D01*
G37*
G36*
X151456D02*X146338D01*
Y195275D01*
X151456D01*
Y189371D01*
G37*
G36*
X144370Y159843D02*X139252D01*
Y165747D01*
X144370D01*
Y159843D01*
G37*
G36*
X151456D02*X146338D01*
Y165747D01*
X151456D01*
Y159843D01*
G37*
G36*
Y218898D02*X146338D01*
Y224802D01*
X151456D01*
Y218898D01*
G37*
G36*
X144370D02*X139252D01*
Y224802D01*
X144370D01*
Y218898D01*
G37*
G36*
X151456Y399017D02*X146338D01*
Y404921D01*
X151456D01*
Y399017D01*
G37*
G36*
Y368505D02*X146338D01*
Y374409D01*
X151456D01*
Y368505D01*
G37*
G36*
Y338977D02*X146338D01*
Y344881D01*
X151456D01*
Y338977D01*
G37*
G36*
Y309450D02*X146338D01*
Y315354D01*
X151456D01*
Y309450D01*
G37*
G36*
Y278938D02*X146338D01*
Y284842D01*
X151456D01*
Y278938D01*
G37*
G36*
Y249410D02*X146338D01*
Y255314D01*
X151456D01*
Y249410D01*
G37*
G36*
X144370Y399017D02*X139252D01*
Y404921D01*
X144370D01*
Y399017D01*
G37*
G36*
Y368505D02*X139252D01*
Y374409D01*
X144370D01*
Y368505D01*
G37*
G36*
Y309450D02*X139252D01*
Y315354D01*
X144370D01*
Y309450D01*
G37*
G36*
Y278938D02*X139252D01*
Y284842D01*
X144370D01*
Y278938D01*
G37*
G36*
Y338977D02*X139252D01*
Y344881D01*
X144370D01*
Y338977D01*
G37*
G36*
Y249410D02*X139252D01*
Y255314D01*
X144370D01*
Y249410D01*
G37*
G36*
X108268Y189371D02*X103150D01*
Y195275D01*
X108268D01*
Y189371D01*
G37*
G36*
X115354D02*X110236D01*
Y195275D01*
X115354D01*
Y189371D01*
G37*
G36*
X181307Y190883D02*X176189D01*
Y196787D01*
X181307D01*
Y190883D01*
G37*
G36*
X188393D02*X183275D01*
Y196787D01*
X188393D01*
Y190883D01*
G37*
G36*
X180016Y159839D02*X174898D01*
Y165743D01*
X180016D01*
Y159839D01*
G37*
G36*
X187102D02*X181984D01*
Y165743D01*
X187102D01*
Y159839D01*
G37*
G36*
X180016Y129347D02*X174898D01*
Y135251D01*
X180016D01*
Y129347D01*
G37*
G36*
X187102D02*X181984D01*
Y135251D01*
X187102D01*
Y129347D01*
G37*
G36*
X144016D02*X138898D01*
Y135251D01*
X144016D01*
Y129347D01*
G37*
G36*
X151102D02*X145984D01*
Y135251D01*
X151102D01*
Y129347D01*
G37*
G36*
X187502Y218950D02*X182384D01*
Y224854D01*
X187502D01*
Y218950D01*
G37*
G36*
X108268Y218898D02*X103150D01*
Y224802D01*
X108268D01*
Y218898D01*
G37*
G36*
X115354D02*X110236D01*
Y224802D01*
X115354D01*
Y218898D01*
G37*
G36*
X180416Y218950D02*X175298D01*
Y224854D01*
X180416D01*
Y218950D01*
G37*
G36*
X187204Y399017D02*X182086D01*
Y404921D01*
X187204D01*
Y399017D01*
G37*
G36*
Y368505D02*X182086D01*
Y374409D01*
X187204D01*
Y368505D01*
G37*
G36*
Y338977D02*X182086D01*
Y344881D01*
X187204D01*
Y338977D01*
G37*
G36*
Y309450D02*X182086D01*
Y315354D01*
X187204D01*
Y309450D01*
G37*
G36*
Y278938D02*X182086D01*
Y284842D01*
X187204D01*
Y278938D01*
G37*
G36*
Y249410D02*X182086D01*
Y255314D01*
X187204D01*
Y249410D01*
G37*
G36*
X180118Y399017D02*X175000D01*
Y404921D01*
X180118D01*
Y399017D01*
G37*
G36*
X108268Y368505D02*X103150D01*
Y374409D01*
X108268D01*
Y368505D01*
G37*
G36*
X115354D02*X110236D01*
Y374409D01*
X115354D01*
Y368505D01*
G37*
G36*
X180118D02*X175000D01*
Y374409D01*
X180118D01*
Y368505D01*
G37*
G36*
Y309450D02*X175000D01*
Y315354D01*
X180118D01*
Y309450D01*
G37*
G36*
Y278938D02*X175000D01*
Y284842D01*
X180118D01*
Y278938D01*
G37*
G36*
Y249410D02*X175000D01*
Y255314D01*
X180118D01*
Y249410D01*
G37*
G36*
X108268Y338977D02*X103150D01*
Y344881D01*
X108268D01*
Y338977D01*
G37*
G36*
Y278938D02*X103150D01*
Y284842D01*
X108268D01*
Y278938D01*
G37*
G36*
X108016Y249473D02*X102898D01*
Y255377D01*
X108016D01*
Y249473D01*
G37*
G36*
X115354Y338977D02*X110236D01*
Y344881D01*
X115354D01*
Y338977D01*
G37*
G36*
Y278938D02*X110236D01*
Y284842D01*
X115354D01*
Y278938D01*
G37*
G36*
X115102Y249473D02*X109984D01*
Y255377D01*
X115102D01*
Y249473D01*
G37*
G36*
X180118Y338977D02*X175000D01*
Y344881D01*
X180118D01*
Y338977D01*
G37*
G36*
X108268Y309450D02*X103150D01*
Y315354D01*
X108268D01*
Y309450D01*
G37*
G36*
X115354D02*X110236D01*
Y315354D01*
X115354D01*
Y309450D01*
G37*
G36*
Y399017D02*X110236D01*
Y404921D01*
X115354D01*
Y399017D01*
G37*
G36*
X108268D02*X103150D01*
Y404921D01*
X108268D01*
Y399017D01*
G37*
G36*
X389402Y428547D02*X384284D01*
Y434451D01*
X389402D01*
Y428547D01*
G37*
G36*
X418316D02*X413198D01*
Y434451D01*
X418316D01*
Y428547D01*
G37*
G36*
X425402D02*X420284D01*
Y434451D01*
X425402D01*
Y428547D01*
G37*
G36*
X454316D02*X449198D01*
Y434451D01*
X454316D01*
Y428547D01*
G37*
G36*
X461402D02*X456284D01*
Y434451D01*
X461402D01*
Y428547D01*
G37*
G36*
X418316Y338847D02*X413198D01*
Y344751D01*
X418316D01*
Y338847D01*
G37*
G36*
X425402D02*X420284D01*
Y344751D01*
X425402D01*
Y338847D01*
G37*
G36*
X454273Y338747D02*X449155D01*
Y344651D01*
X454273D01*
Y338747D01*
G37*
G36*
X461359D02*X456241D01*
Y344651D01*
X461359D01*
Y338747D01*
G37*
G36*
X418316Y308447D02*X413198D01*
Y314351D01*
X418316D01*
Y308447D01*
G37*
G36*
X425402D02*X420284D01*
Y314351D01*
X425402D01*
Y308447D01*
G37*
G36*
X454016Y308347D02*X448898D01*
Y314251D01*
X454016D01*
Y308347D01*
G37*
G36*
X461102D02*X455984D01*
Y314251D01*
X461102D01*
Y308347D01*
G37*
G36*
X454216Y397047D02*X449098D01*
Y402951D01*
X454216D01*
Y397047D01*
G37*
G36*
X461302D02*X456184D01*
Y402951D01*
X461302D01*
Y397047D01*
G37*
G36*
X454316Y368147D02*X449198D01*
Y374051D01*
X454316D01*
Y368147D01*
G37*
G36*
X461402D02*X456284D01*
Y374051D01*
X461402D01*
Y368147D01*
G37*
G36*
X425402Y398047D02*X420284D01*
Y403951D01*
X425402D01*
Y398047D01*
G37*
G36*
X418316D02*X413198D01*
Y403951D01*
X418316D01*
Y398047D01*
G37*
G36*
X425402Y368347D02*X420284D01*
Y374251D01*
X425402D01*
Y368347D01*
G37*
G36*
X418316D02*X413198D01*
Y374251D01*
X418316D01*
Y368347D01*
G37*
G36*
X389402Y398047D02*X384284D01*
Y403951D01*
X389402D01*
Y398047D01*
G37*
G36*
Y368347D02*X384284D01*
Y374251D01*
X389402D01*
Y368347D01*
G37*
G36*
Y338847D02*X384284D01*
Y344751D01*
X389402D01*
Y338847D01*
G37*
G36*
Y308447D02*X384284D01*
Y314351D01*
X389402D01*
Y308447D01*
G37*
G36*
Y99847D02*X384284D01*
Y105751D01*
X389402D01*
Y99847D01*
G37*
G36*
X454173Y99891D02*X449055D01*
Y105795D01*
X454173D01*
Y99891D01*
G37*
G36*
X461259D02*X456141D01*
Y105795D01*
X461259D01*
Y99891D01*
G37*
G36*
X418316Y99847D02*X413198D01*
Y105751D01*
X418316D01*
Y99847D01*
G37*
G36*
X425402D02*X420284D01*
Y105751D01*
X425402D01*
Y99847D01*
G37*
G36*
X418316Y158647D02*X413198D01*
Y164551D01*
X418316D01*
Y158647D01*
G37*
G36*
Y129347D02*X413198D01*
Y135251D01*
X418316D01*
Y129347D01*
G37*
G36*
X425402D02*X420284D01*
Y135251D01*
X425402D01*
Y129347D01*
G37*
G36*
Y158647D02*X420284D01*
Y164551D01*
X425402D01*
Y158647D01*
G37*
G36*
X453996Y189409D02*X448878D01*
Y195313D01*
X453996D01*
Y189409D01*
G37*
G36*
X461082D02*X455964D01*
Y195313D01*
X461082D01*
Y189409D01*
G37*
G36*
X454173Y159843D02*X449055D01*
Y165747D01*
X454173D01*
Y159843D01*
G37*
G36*
X461259D02*X456141D01*
Y165747D01*
X461259D01*
Y159843D01*
G37*
G36*
X454173Y129363D02*X449055D01*
Y135267D01*
X454173D01*
Y129363D01*
G37*
G36*
X461259D02*X456141D01*
Y135267D01*
X461259D01*
Y129363D01*
G37*
G36*
X461402Y218847D02*X456284D01*
Y224751D01*
X461402D01*
Y218847D01*
G37*
G36*
X389502D02*X384384D01*
Y224751D01*
X389502D01*
Y218847D01*
G37*
G36*
X418316Y249347D02*X413198D01*
Y255251D01*
X418316D01*
Y249347D01*
G37*
G36*
X425402D02*X420284D01*
Y255251D01*
X425402D01*
Y249347D01*
G37*
G36*
X418316Y218847D02*X413198D01*
Y224751D01*
X418316D01*
Y218847D01*
G37*
G36*
X425402D02*X420284D01*
Y224751D01*
X425402D01*
Y218847D01*
G37*
G36*
X454316D02*X449198D01*
Y224751D01*
X454316D01*
Y218847D01*
G37*
G36*
Y249447D02*X449198D01*
Y255351D01*
X454316D01*
Y249447D01*
G37*
G36*
Y278847D02*X449198D01*
Y284751D01*
X454316D01*
Y278847D01*
G37*
G36*
X425402D02*X420284D01*
Y284751D01*
X425402D01*
Y278847D01*
G37*
G36*
X418316D02*X413198D01*
Y284751D01*
X418316D01*
Y278847D01*
G37*
G36*
Y189347D02*X413198D01*
Y195251D01*
X418316D01*
Y189347D01*
G37*
G36*
X425402D02*X420284D01*
Y195251D01*
X425402D01*
Y189347D01*
G37*
G36*
X461402Y249447D02*X456284D01*
Y255351D01*
X461402D01*
Y249447D01*
G37*
G36*
Y278847D02*X456284D01*
Y284751D01*
X461402D01*
Y278847D01*
G37*
G36*
X389402Y249347D02*X384284D01*
Y255251D01*
X389402D01*
Y249347D01*
G37*
G36*
Y278847D02*X384284D01*
Y284751D01*
X389402D01*
Y278847D01*
G37*
G36*
Y158747D02*X384284D01*
Y164651D01*
X389402D01*
Y158747D01*
G37*
G36*
Y189347D02*X384284D01*
Y195251D01*
X389402D01*
Y189347D01*
G37*
G36*
Y129347D02*X384284D01*
Y135251D01*
X389402D01*
Y129347D01*
G37*
M02*
