G04 start of page 10 for group 12 layer_idx 9 *
G04 Title: liplight-art, bottom_silk *
G04 Creator: pcb-rnd 2.0.0 *
G04 CreationDate: 2018-08-21 02:54:24 UTC *
G04 For:  *
G04 Format: Gerber/RS-274X *
G04 PCB-Dimensions: 636000 660500 *
G04 PCB-Coordinate-Origin: lower left *
%MOIN*%
%FSLAX25Y25*%
%LNBOTTOMSILK*%
%ADD54C,0.0070*%
%ADD53C,0.0080*%
%ADD52C,0.0100*%
G54D52*X46700Y228900D02*X60600D01*
Y216100D01*
X46700D01*
Y228900D01*
X120700Y242900D02*X134600D01*
Y230100D01*
X120700D01*
Y242900D01*
X46700Y198900D02*X60600D01*
Y186100D01*
Y168900D02*Y156100D01*
Y138900D02*Y126100D01*
Y108900D02*Y96100D01*
Y186100D02*X46700D01*
Y168900D02*X60600D01*
X46700Y156100D02*Y168900D01*
X60600Y156100D02*X46700D01*
Y138900D02*X60600D01*
Y126100D02*X46700D01*
Y138900D01*
Y108900D02*X60600D01*
Y96100D02*X46700D01*
Y108900D01*
Y186100D02*Y198900D01*
X434200D02*X448100D01*
Y186100D01*
X434200D01*
Y198900D01*
X254200Y63400D02*X268100D01*
Y50600D01*
X254200D01*
Y63400D01*
X284200D02*X298100D01*
Y50600D01*
X284200D01*
Y63400D01*
X314200D02*X328100D01*
X344200D02*X358100D01*
X374200D02*X388100D01*
X404200D02*X418100D01*
X433812Y63314D02*X447712D01*
X328100Y63400D02*Y50600D01*
X358100Y63400D02*Y50600D01*
X344200D01*
Y63400D01*
X388100D02*Y50600D01*
X374200D01*
Y63400D01*
X418100D02*Y50600D01*
X404200D01*
X447712Y50514D02*X433812D01*
X404200Y50600D02*Y63400D01*
X447712Y63314D02*Y50514D01*
X433812D02*Y63314D01*
X328100Y50600D02*X314200D01*
Y63400D01*
X434200Y288900D02*X448100D01*
Y276100D01*
X434200D01*
Y288900D01*
Y228900D02*X448100D01*
X434200Y258900D02*X448100D01*
Y246100D01*
X434200D01*
Y258900D01*
X448100Y228900D02*Y216100D01*
X434200D01*
G54D53*X417755Y207107D02*Y207893D01*
X412245Y207107D02*Y207893D01*
G54D52*X360500Y273800D02*X374400D01*
Y261000D01*
X360500D01*
Y273800D01*
Y243800D02*X374400D01*
Y231000D01*
X360500D01*
Y243800D01*
X374400Y303300D02*Y290500D01*
X360500D01*
Y303300D01*
X434200Y216100D02*Y228900D01*
X120700Y422400D02*X134600D01*
Y409600D01*
X120700D01*
Y422400D01*
X433700Y407900D02*X447600D01*
Y395100D01*
X433700D01*
Y407900D01*
X360500Y393800D02*X374400D01*
X433780Y438106D02*X447680D01*
Y425306D01*
X433780D01*
X360700Y422400D02*X374600D01*
Y409600D01*
X360700D01*
Y422400D01*
X433780Y425306D02*Y438106D01*
X120700Y392400D02*X134600D01*
Y379600D01*
X120700D01*
Y392400D01*
X433700Y378400D02*X447600D01*
Y365600D01*
X433700D01*
Y378400D01*
X374400Y393800D02*Y381000D01*
X360500D01*
Y393800D01*
X120700Y361900D02*X134600D01*
X360500Y363300D02*X374400D01*
Y350500D01*
X360500D01*
Y363300D01*
X134600Y361900D02*Y349100D01*
X120700D01*
X433754Y347160D02*X447654D01*
Y334360D01*
X433754D01*
Y347160D01*
X360500Y333800D02*X374400D01*
X120700Y349100D02*Y361900D01*
Y332900D02*X134600D01*
X374400Y333800D02*Y321000D01*
X360500D01*
Y333800D01*
X433700Y318400D02*X447600D01*
Y305600D01*
X433700D01*
Y318400D01*
X360500Y303300D02*X374400D01*
X134600Y332900D02*Y320100D01*
Y302900D02*Y290100D01*
Y272400D02*Y259600D01*
Y320100D02*X120700D01*
Y302900D02*X134600D01*
Y290100D02*X120700D01*
Y302900D01*
Y272400D02*X134600D01*
Y259600D02*X120700D01*
Y272400D01*
X46700Y378400D02*X60600D01*
Y365600D01*
X46700D01*
Y378400D01*
Y348400D02*X60600D01*
Y335600D01*
X46700D01*
Y348400D01*
Y408400D02*X60600D01*
X46700Y430900D02*X60600D01*
Y418100D01*
X46700D01*
Y430900D01*
X60600Y408400D02*Y395600D01*
X46700D01*
Y408400D01*
Y318400D02*X60600D01*
Y305600D01*
X46700D01*
Y318400D01*
Y288400D02*X60600D01*
Y275600D01*
Y258900D02*Y246100D01*
Y275600D02*X46700D01*
Y258900D02*X60600D01*
Y246100D02*X46700D01*
Y258900D01*
Y275600D02*Y288400D01*
X120700Y320100D02*Y332900D01*
G54D54*X138615Y50938D02*X140615D01*
X141115Y51438D01*
Y52438D01*
X140615Y52938D02*X141115Y52438D01*
X139115Y52938D02*X140615D01*
X139115Y50938D02*Y54938D01*
X139915Y52938D02*X141115Y54938D01*
X142315Y53438D02*X144315Y50938D01*
X142315Y53438D02*X144815D01*
X144315Y50938D02*Y54938D01*
X108921Y50771D02*X110921D01*
X111421Y51271D01*
Y52271D01*
X110921Y52771D02*X111421Y52271D01*
X109421Y52771D02*X110921D01*
X109421Y50771D02*Y54771D01*
X110221Y52771D02*X111421Y54771D01*
X112621Y50771D02*X114621D01*
X112621D02*Y52771D01*
X113121Y52271D01*
X114121D01*
X114621Y52771D01*
Y54271D01*
X114121Y54771D02*X114621Y54271D01*
X113121Y54771D02*X114121D01*
X112621Y54271D02*X113121Y54771D01*
X78556Y50595D02*X80556D01*
X81056Y51095D01*
Y52095D01*
X80556Y52595D02*X81056Y52095D01*
X79056Y52595D02*X80556D01*
X79056Y50595D02*Y54595D01*
X79856Y52595D02*X81056Y54595D01*
X83756Y50595D02*X84256Y51095D01*
X82756Y50595D02*X83756D01*
X82256Y51095D02*X82756Y50595D01*
X82256Y51095D02*Y54095D01*
X82756Y54595D01*
X83756Y52395D02*X84256Y52895D01*
X82256Y52395D02*X83756D01*
X82756Y54595D02*X83756D01*
X84256Y54095D01*
Y52895D02*Y54095D01*
X48893Y50540D02*X50893D01*
X51393Y51040D01*
Y52040D01*
X50893Y52540D02*X51393Y52040D01*
X49393Y52540D02*X50893D01*
X49393Y50540D02*Y54540D01*
X50193Y52540D02*X51393Y54540D01*
X53093D02*X55093Y50540D01*
X52593D02*X55093D01*
X229011D02*X231011D01*
X231511Y51040D01*
Y52040D01*
X231011Y52540D02*X231511Y52040D01*
X229511Y52540D02*X231011D01*
X229511Y50540D02*Y54540D01*
X230311Y52540D02*X231511Y54540D01*
X232711Y51340D02*X233511Y50540D01*
Y54540D01*
X232711D02*X234211D01*
X198499Y50540D02*X200499D01*
X200999Y51040D01*
Y52040D01*
X200499Y52540D02*X200999Y52040D01*
X198999Y52540D02*X200499D01*
X198999Y50540D02*Y54540D01*
X199799Y52540D02*X200999Y54540D01*
X202199Y51040D02*X202699Y50540D01*
X204199D01*
X204699Y51040D01*
Y52040D01*
X202199Y54540D02*X204699Y52040D01*
X202199Y54540D02*X204699D01*
X168972Y50540D02*X170972D01*
X171472Y51040D01*
Y52040D01*
X170972Y52540D02*X171472Y52040D01*
X169472Y52540D02*X170972D01*
X169472Y50540D02*Y54540D01*
X170272Y52540D02*X171472Y54540D01*
X172672Y51040D02*X173172Y50540D01*
X174172D01*
X174672Y51040D01*
X174172Y54540D02*X174672Y54040D01*
X173172Y54540D02*X174172D01*
X172672Y54040D02*X173172Y54540D01*
Y52340D02*X174172D01*
X174672Y51040D02*Y51840D01*
Y52840D02*Y54040D01*
Y52840D02*X174172Y52340D01*
X174672Y51840D02*X174172Y52340D01*
X406700Y45100D02*Y48100D01*
Y45100D02*X407200Y44600D01*
X408200D01*
X408700Y45100D01*
Y47600D01*
X407700Y48600D02*X408700Y47600D01*
X407200Y48600D02*X407700D01*
X406700Y48100D02*X407200Y48600D01*
X407700Y47100D02*X408700Y48600D01*
X409900Y45100D02*X410400Y44600D01*
X411900D01*
X412400Y45100D01*
Y46100D01*
X409900Y48600D02*X412400Y46100D01*
X409900Y48600D02*X412400D01*
X413600Y48100D02*X414100Y48600D01*
X413600Y47300D02*Y48100D01*
Y47300D02*X414300Y46600D01*
X414900D01*
X415600Y47300D01*
Y48100D01*
X415100Y48600D02*X415600Y48100D01*
X414100Y48600D02*X415100D01*
X413600Y45900D02*X414300Y46600D01*
X413600Y45100D02*Y45900D01*
Y45100D02*X414100Y44600D01*
X415100D01*
X415600Y45100D01*
Y45900D01*
X414900Y46600D02*X415600Y45900D01*
X436312Y45014D02*Y48014D01*
Y45014D02*X436812Y44514D01*
X437812D01*
X438312Y45014D01*
Y47514D01*
X437312Y48514D02*X438312Y47514D01*
X436812Y48514D02*X437312D01*
X436312Y48014D02*X436812Y48514D01*
X437312Y47014D02*X438312Y48514D01*
X439512Y45014D02*X440012Y44514D01*
X441012D01*
X441512Y45014D01*
X441012Y48514D02*X441512Y48014D01*
X440012Y48514D02*X441012D01*
X439512Y48014D02*X440012Y48514D01*
Y46314D02*X441012D01*
X441512Y45014D02*Y45814D01*
Y46814D02*Y48014D01*
Y46814D02*X441012Y46314D01*
X441512Y45814D02*X441012Y46314D01*
X442712Y45314D02*X443512Y44514D01*
Y48514D01*
X442712D02*X444212D01*
X123350Y431150D02*X125350D01*
X125850Y431650D01*
Y432650D01*
X125350Y433150D02*X125850Y432650D01*
X123850Y433150D02*X125350D01*
X123850Y431150D02*Y435150D01*
X124650Y433150D02*X125850Y435150D01*
X127550D02*X129550Y431150D01*
X127050D02*X129550D01*
X130750Y433650D02*X132750Y431150D01*
X130750Y433650D02*X133250D01*
X132750Y431150D02*Y435150D01*
X87676Y430872D02*X89676D01*
X90176Y431372D01*
Y432372D01*
X89676Y432872D02*X90176Y432372D01*
X88176Y432872D02*X89676D01*
X88176Y430872D02*Y434872D01*
X88976Y432872D02*X90176Y434872D01*
X92876Y430872D02*X93376Y431372D01*
X91876Y430872D02*X92876D01*
X91376Y431372D02*X91876Y430872D01*
X91376Y431372D02*Y434372D01*
X91876Y434872D01*
X92876Y432672D02*X93376Y433172D01*
X91376Y432672D02*X92876D01*
X91876Y434872D02*X92876D01*
X93376Y434372D01*
Y433172D02*Y434372D01*
X94576Y433372D02*X96576Y430872D01*
X94576Y433372D02*X97076D01*
X96576Y430872D02*Y434872D01*
X119350Y412350D02*Y414350D01*
X118850Y414850D01*
X117850D02*X118850D01*
X117350Y414350D02*X117850Y414850D01*
X117350Y412850D02*Y414350D01*
X115350Y412850D02*X119350D01*
X117350Y413650D02*X115350Y414850D01*
X119350Y417550D02*X118850Y418050D01*
X119350Y416550D02*Y417550D01*
X118850Y416050D02*X119350Y416550D01*
X115850Y416050D02*X118850D01*
X115850D02*X115350Y416550D01*
X117550Y417550D02*X117050Y418050D01*
X117550Y416050D02*Y417550D01*
X115350Y416550D02*Y417550D01*
X115850Y418050D01*
X117050D01*
X115850Y419250D02*X115350Y419750D01*
X115850Y419250D02*X118850D01*
X119350Y419750D01*
Y420750D01*
X118850Y421250D01*
X115850D02*X118850D01*
X115350Y420750D02*X115850Y421250D01*
X115350Y419750D02*Y420750D01*
X116350Y419250D02*X118350Y421250D01*
X157322Y412174D02*Y414174D01*
X156822Y414674D01*
X155822D02*X156822D01*
X155322Y414174D02*X155822Y414674D01*
X155322Y412674D02*Y414174D01*
X153322Y412674D02*X157322D01*
X155322Y413474D02*X153322Y414674D01*
Y416374D02*X157322Y418374D01*
Y415874D02*Y418374D01*
X156822Y419574D02*X157322Y420074D01*
Y421574D01*
X156822Y422074D01*
X155822D02*X156822D01*
X153322Y419574D02*X155822Y422074D01*
X153322Y419574D02*Y422074D01*
X157599Y382446D02*Y384446D01*
X157099Y384946D01*
X156099D02*X157099D01*
X155599Y384446D02*X156099Y384946D01*
X155599Y382946D02*Y384446D01*
X153599Y382946D02*X157599D01*
X155599Y383746D02*X153599Y384946D01*
Y386646D02*X157599Y388646D01*
Y386146D02*Y388646D01*
X154099Y389846D02*X153599Y390346D01*
X154099Y389846D02*X157099D01*
X157599Y390346D01*
Y391346D01*
X157099Y391846D01*
X154099D02*X157099D01*
X153599Y391346D02*X154099Y391846D01*
X153599Y390346D02*Y391346D01*
X154599Y389846D02*X156599Y391846D01*
X119473Y381766D02*Y383766D01*
X118973Y384266D01*
X117973D02*X118973D01*
X117473Y383766D02*X117973Y384266D01*
X117473Y382266D02*Y383766D01*
X115473Y382266D02*X119473D01*
X117473Y383066D02*X115473Y384266D01*
X119473Y385466D02*Y387466D01*
X117473Y385466D02*X119473D01*
X117473D02*X117973Y385966D01*
Y386966D01*
X117473Y387466D01*
X115973D02*X117473D01*
X115473Y386966D02*X115973Y387466D01*
X115473Y385966D02*Y386966D01*
X115973Y385466D02*X115473Y385966D01*
Y389166D02*X119473Y391166D01*
Y388666D02*Y391166D01*
X119444Y353366D02*Y355366D01*
X118944Y355866D01*
X117944D02*X118944D01*
X117444Y355366D02*X117944Y355866D01*
X117444Y353866D02*Y355366D01*
X115444Y353866D02*X119444D01*
X117444Y354666D02*X115444Y355866D01*
X119444Y357066D02*Y359066D01*
X117444Y357066D02*X119444D01*
X117444D02*X117944Y357566D01*
Y358566D01*
X117444Y359066D01*
X115944D02*X117444D01*
X115444Y358566D02*X115944Y359066D01*
X115444Y357566D02*Y358566D01*
X115944Y357066D02*X115444Y357566D01*
X118644Y360266D02*X119444Y361066D01*
X115444D02*X119444D01*
X115444Y360266D02*Y361766D01*
X119444Y322776D02*Y324776D01*
X118944Y325276D01*
X117944D02*X118944D01*
X117444Y324776D02*X117944Y325276D01*
X117444Y323276D02*Y324776D01*
X115444Y323276D02*X119444D01*
X117444Y324076D02*X115444Y325276D01*
X116944Y326476D02*X119444Y328476D01*
X116944Y326476D02*Y328976D01*
X115444Y328476D02*X119444D01*
X116944Y330176D02*X119444Y332176D01*
X116944Y330176D02*Y332676D01*
X115444Y332176D02*X119444D01*
X119321Y292707D02*Y294707D01*
X118821Y295207D01*
X117821D02*X118821D01*
X117321Y294707D02*X117821Y295207D01*
X117321Y293207D02*Y294707D01*
X115321Y293207D02*X119321D01*
X117321Y294007D02*X115321Y295207D01*
X118821Y296407D02*X119321Y296907D01*
Y297907D01*
X118821Y298407D01*
X115321Y297907D02*X115821Y298407D01*
X115321Y296907D02*Y297907D01*
X115821Y296407D02*X115321Y296907D01*
X117521D02*Y297907D01*
X118021Y298407D02*X118821D01*
X115821D02*X117021D01*
X117521Y297907D01*
X118021Y298407D02*X117521Y297907D01*
X115321Y300107D02*X117321Y301607D01*
X118821D01*
X119321Y301107D02*X118821Y301607D01*
X119321Y300107D02*Y301107D01*
X118821Y299607D02*X119321Y300107D01*
X117821Y299607D02*X118821D01*
X117821D02*X117321Y300107D01*
Y301607D01*
X119311Y262611D02*Y264611D01*
X118811Y265111D01*
X117811D02*X118811D01*
X117311Y264611D02*X117811Y265111D01*
X117311Y263111D02*Y264611D01*
X115311Y263111D02*X119311D01*
X117311Y263911D02*X115311Y265111D01*
X118811Y266311D02*X119311Y266811D01*
Y267811D01*
X118811Y268311D01*
X115311Y267811D02*X115811Y268311D01*
X115311Y266811D02*Y267811D01*
X115811Y266311D02*X115311Y266811D01*
X117511D02*Y267811D01*
X118011Y268311D02*X118811D01*
X115811D02*X117011D01*
X117511Y267811D01*
X118011Y268311D02*X117511Y267811D01*
X116811Y269511D02*X119311Y271511D01*
X116811Y269511D02*Y272011D01*
X115311Y271511D02*X119311D01*
X118896Y232537D02*Y234537D01*
X118396Y235037D01*
X117396D02*X118396D01*
X116896Y234537D02*X117396Y235037D01*
X116896Y233037D02*Y234537D01*
X114896Y233037D02*X118896D01*
X116896Y233837D02*X114896Y235037D01*
X118396Y236237D02*X118896Y236737D01*
Y238237D01*
X118396Y238737D01*
X117396D02*X118396D01*
X114896Y236237D02*X117396Y238737D01*
X114896Y236237D02*Y238737D01*
X115396Y239937D02*X114896Y240437D01*
X115396Y239937D02*X116196D01*
X116896Y240637D01*
Y241237D01*
X116196Y241937D01*
X115396D02*X116196D01*
X114896Y241437D02*X115396Y241937D01*
X114896Y240437D02*Y241437D01*
X117596Y239937D02*X116896Y240637D01*
X117596Y239937D02*X118396D01*
X118896Y240437D01*
Y241437D01*
X118396Y241937D01*
X117596D02*X118396D01*
X116896Y241237D02*X117596Y241937D01*
X118801Y202399D02*Y204399D01*
X118301Y204899D01*
X117301D02*X118301D01*
X116801Y204399D02*X117301Y204899D01*
X116801Y202899D02*Y204399D01*
X114801Y202899D02*X118801D01*
X116801Y203699D02*X114801Y204899D01*
X118301Y206099D02*X118801Y206599D01*
Y208099D01*
X118301Y208599D01*
X117301D02*X118301D01*
X114801Y206099D02*X117301Y208599D01*
X114801Y206099D02*Y208599D01*
X118301Y209799D02*X118801Y210299D01*
Y211299D01*
X118301Y211799D01*
X114801Y211299D02*X115301Y211799D01*
X114801Y210299D02*Y211299D01*
X115301Y209799D02*X114801Y210299D01*
X117001D02*Y211299D01*
X117501Y211799D02*X118301D01*
X115301D02*X116501D01*
X117001Y211299D01*
X117501Y211799D02*X117001Y211299D01*
X118629Y172717D02*Y174717D01*
X118129Y175217D01*
X117129D02*X118129D01*
X116629Y174717D02*X117129Y175217D01*
X116629Y173217D02*Y174717D01*
X114629Y173217D02*X118629D01*
X116629Y174017D02*X114629Y175217D01*
X117829Y176417D02*X118629Y177217D01*
X114629D02*X118629D01*
X114629Y176417D02*Y177917D01*
Y179617D02*X116629Y181117D01*
X118129D01*
X118629Y180617D02*X118129Y181117D01*
X118629Y179617D02*Y180617D01*
X118129Y179117D02*X118629Y179617D01*
X117129Y179117D02*X118129D01*
X117129D02*X116629Y179617D01*
Y181117D01*
X361529Y431776D02*X363529D01*
X364029Y432276D01*
Y433276D01*
X363529Y433776D02*X364029Y433276D01*
X362029Y433776D02*X363529D01*
X362029Y431776D02*Y435776D01*
X362829Y433776D02*X364029Y435776D01*
X365729D02*X367729Y431776D01*
X365229D02*X367729D01*
X368929D02*X370929D01*
X368929D02*Y433776D01*
X369429Y433276D01*
X370429D01*
X370929Y433776D01*
Y435276D01*
X370429Y435776D02*X370929Y435276D01*
X369429Y435776D02*X370429D01*
X368929Y435276D02*X369429Y435776D01*
X351632Y412034D02*Y414034D01*
X351132Y414534D01*
X350132D02*X351132D01*
X349632Y414034D02*X350132Y414534D01*
X349632Y412534D02*Y414034D01*
X347632Y412534D02*X351632D01*
X349632Y413334D02*X347632Y414534D01*
Y416234D02*X351632Y418234D01*
Y415734D02*Y418234D01*
X351132Y419434D02*X351632Y419934D01*
Y420934D01*
X351132Y421434D01*
X347632Y420934D02*X348132Y421434D01*
X347632Y419934D02*Y420934D01*
X348132Y419434D02*X347632Y419934D01*
X349832D02*Y420934D01*
X350332Y421434D02*X351132D01*
X348132D02*X349332D01*
X349832Y420934D01*
X350332Y421434D02*X349832Y420934D01*
X351484Y382379D02*Y384379D01*
X350984Y384879D01*
X349984D02*X350984D01*
X349484Y384379D02*X349984Y384879D01*
X349484Y382879D02*Y384379D01*
X347484Y382879D02*X351484D01*
X349484Y383679D02*X347484Y384879D01*
Y386579D02*X351484Y388579D01*
Y386079D02*Y388579D01*
X350684Y389779D02*X351484Y390579D01*
X347484D02*X351484D01*
X347484Y389779D02*Y391279D01*
X363200Y403100D02*Y406100D01*
Y403100D02*X363700Y402600D01*
X364700D01*
X365200Y403100D01*
Y405600D01*
X364200Y406600D02*X365200Y405600D01*
X363700Y406600D02*X364200D01*
X363200Y406100D02*X363700Y406600D01*
X364200Y405100D02*X365200Y406600D01*
X366400Y405100D02*X368400Y402600D01*
X366400Y405100D02*X368900D01*
X368400Y402600D02*Y406600D01*
X370100Y403100D02*X370600Y402600D01*
X371600D01*
X372100Y403100D01*
X371600Y406600D02*X372100Y406100D01*
X370600Y406600D02*X371600D01*
X370100Y406100D02*X370600Y406600D01*
Y404400D02*X371600D01*
X372100Y403100D02*Y403900D01*
Y404900D02*Y406100D01*
Y404900D02*X371600Y404400D01*
X372100Y403900D02*X371600Y404400D01*
X363500Y374500D02*Y377500D01*
Y374500D02*X364000Y374000D01*
X365000D01*
X365500Y374500D01*
Y377000D01*
X364500Y378000D02*X365500Y377000D01*
X364000Y378000D02*X364500D01*
X363500Y377500D02*X364000Y378000D01*
X364500Y376500D02*X365500Y378000D01*
X366700Y376500D02*X368700Y374000D01*
X366700Y376500D02*X369200D01*
X368700Y374000D02*Y378000D01*
X370400Y374800D02*X371200Y374000D01*
Y378000D01*
X370400D02*X371900D01*
X351659Y352606D02*Y354606D01*
X351159Y355106D01*
X350159D02*X351159D01*
X349659Y354606D02*X350159Y355106D01*
X349659Y353106D02*Y354606D01*
X347659Y353106D02*X351659D01*
X349659Y353906D02*X347659Y355106D01*
X351659Y357806D02*X351159Y358306D01*
X351659Y356806D02*Y357806D01*
X351159Y356306D02*X351659Y356806D01*
X348159Y356306D02*X351159D01*
X348159D02*X347659Y356806D01*
X349859Y357806D02*X349359Y358306D01*
X349859Y356306D02*Y357806D01*
X347659Y356806D02*Y357806D01*
X348159Y358306D01*
X349359D01*
X347659Y360006D02*X349659Y361506D01*
X351159D01*
X351659Y361006D02*X351159Y361506D01*
X351659Y360006D02*Y361006D01*
X351159Y359506D02*X351659Y360006D01*
X350159Y359506D02*X351159D01*
X350159D02*X349659Y360006D01*
Y361506D01*
X363500Y344500D02*Y347500D01*
Y344500D02*X364000Y344000D01*
X365000D01*
X365500Y344500D01*
Y347000D01*
X364500Y348000D02*X365500Y347000D01*
X364000Y348000D02*X364500D01*
X363500Y347500D02*X364000Y348000D01*
X364500Y346500D02*X365500Y348000D01*
X366700Y344500D02*X367200Y344000D01*
X368200D01*
X368700Y344500D01*
X368200Y348000D02*X368700Y347500D01*
X367200Y348000D02*X368200D01*
X366700Y347500D02*X367200Y348000D01*
Y345800D02*X368200D01*
X368700Y344500D02*Y345300D01*
Y346300D02*Y347500D01*
Y346300D02*X368200Y345800D01*
X368700Y345300D02*X368200Y345800D01*
X370400Y348000D02*X371900Y346000D01*
Y344500D02*Y346000D01*
X371400Y344000D02*X371900Y344500D01*
X370400Y344000D02*X371400D01*
X369900Y344500D02*X370400Y344000D01*
X369900Y344500D02*Y345500D01*
X370400Y346000D01*
X371900D01*
X351390Y322522D02*Y324522D01*
X350890Y325022D01*
X349890D02*X350890D01*
X349390Y324522D02*X349890Y325022D01*
X349390Y323022D02*Y324522D01*
X347390Y323022D02*X351390D01*
X349390Y323822D02*X347390Y325022D01*
X351390Y327722D02*X350890Y328222D01*
X351390Y326722D02*Y327722D01*
X350890Y326222D02*X351390Y326722D01*
X347890Y326222D02*X350890D01*
X347890D02*X347390Y326722D01*
X349590Y327722D02*X349090Y328222D01*
X349590Y326222D02*Y327722D01*
X347390Y326722D02*Y327722D01*
X347890Y328222D01*
X349090D01*
X347390Y329922D02*X351390Y331922D01*
Y329422D02*Y331922D01*
X351450Y292850D02*Y294850D01*
X350950Y295350D01*
X349950D02*X350950D01*
X349450Y294850D02*X349950Y295350D01*
X349450Y293350D02*Y294850D01*
X347450Y293350D02*X351450D01*
X349450Y294150D02*X347450Y295350D01*
X351450Y298050D02*X350950Y298550D01*
X351450Y297050D02*Y298050D01*
X350950Y296550D02*X351450Y297050D01*
X347950Y296550D02*X350950D01*
X347950D02*X347450Y297050D01*
X349650Y298050D02*X349150Y298550D01*
X349650Y296550D02*Y298050D01*
X347450Y297050D02*Y298050D01*
X347950Y298550D01*
X349150D01*
X350950Y299750D02*X351450Y300250D01*
Y301250D01*
X350950Y301750D01*
X347450Y301250D02*X347950Y301750D01*
X347450Y300250D02*Y301250D01*
X347950Y299750D02*X347450Y300250D01*
X349650D02*Y301250D01*
X350150Y301750D02*X350950D01*
X347950D02*X349150D01*
X349650Y301250D01*
X350150Y301750D02*X349650Y301250D01*
X363500Y255000D02*Y258000D01*
Y255000D02*X364000Y254500D01*
X365000D01*
X365500Y255000D01*
Y257500D01*
X364500Y258500D02*X365500Y257500D01*
X364000Y258500D02*X364500D01*
X363500Y258000D02*X364000Y258500D01*
X364500Y257000D02*X365500Y258500D01*
X366700Y255000D02*X367200Y254500D01*
X368200D01*
X368700Y255000D01*
X368200Y258500D02*X368700Y258000D01*
X367200Y258500D02*X368200D01*
X366700Y258000D02*X367200Y258500D01*
Y256300D02*X368200D01*
X368700Y255000D02*Y255800D01*
Y256800D02*Y258000D01*
Y256800D02*X368200Y256300D01*
X368700Y255800D02*X368200Y256300D01*
X369900Y255000D02*X370400Y254500D01*
X371400D01*
X371900Y255000D01*
X371400Y258500D02*X371900Y258000D01*
X370400Y258500D02*X371400D01*
X369900Y258000D02*X370400Y258500D01*
Y256300D02*X371400D01*
X371900Y255000D02*Y255800D01*
Y256800D02*Y258000D01*
Y256800D02*X371400Y256300D01*
X371900Y255800D02*X371400Y256300D01*
X363500Y225000D02*Y228000D01*
Y225000D02*X364000Y224500D01*
X365000D01*
X365500Y225000D01*
Y227500D01*
X364500Y228500D02*X365500Y227500D01*
X364000Y228500D02*X364500D01*
X363500Y228000D02*X364000Y228500D01*
X364500Y227000D02*X365500Y228500D01*
X366700Y225000D02*X367200Y224500D01*
X368200D01*
X368700Y225000D01*
X368200Y228500D02*X368700Y228000D01*
X367200Y228500D02*X368200D01*
X366700Y228000D02*X367200Y228500D01*
Y226300D02*X368200D01*
X368700Y225000D02*Y225800D01*
Y226800D02*Y228000D01*
Y226800D02*X368200Y226300D01*
X368700Y225800D02*X368200Y226300D01*
X369900Y228000D02*X370400Y228500D01*
X369900Y225000D02*Y228000D01*
Y225000D02*X370400Y224500D01*
X371400D01*
X371900Y225000D01*
Y228000D01*
X371400Y228500D02*X371900Y228000D01*
X370400Y228500D02*X371400D01*
X369900Y227500D02*X371900Y225500D01*
X363000Y315000D02*Y318000D01*
Y315000D02*X363500Y314500D01*
X364500D01*
X365000Y315000D01*
Y317500D01*
X364000Y318500D02*X365000Y317500D01*
X363500Y318500D02*X364000D01*
X363000Y318000D02*X363500Y318500D01*
X364000Y317000D02*X365000Y318500D01*
X366200Y315000D02*X366700Y314500D01*
X367700D01*
X368200Y315000D01*
X367700Y318500D02*X368200Y318000D01*
X366700Y318500D02*X367700D01*
X366200Y318000D02*X366700Y318500D01*
Y316300D02*X367700D01*
X368200Y315000D02*Y315800D01*
Y316800D02*Y318000D01*
Y316800D02*X367700Y316300D01*
X368200Y315800D02*X367700Y316300D01*
X369900Y318500D02*X371900Y314500D01*
X369400D02*X371900D01*
X363000Y284500D02*Y287500D01*
Y284500D02*X363500Y284000D01*
X364500D01*
X365000Y284500D01*
Y287000D01*
X364000Y288000D02*X365000Y287000D01*
X363500Y288000D02*X364000D01*
X363000Y287500D02*X363500Y288000D01*
X364000Y286500D02*X365000Y288000D01*
X366200Y284500D02*X366700Y284000D01*
X367700D01*
X368200Y284500D01*
X367700Y288000D02*X368200Y287500D01*
X366700Y288000D02*X367700D01*
X366200Y287500D02*X366700Y288000D01*
Y285800D02*X367700D01*
X368200Y284500D02*Y285300D01*
Y286300D02*Y287500D01*
Y286300D02*X367700Y285800D01*
X368200Y285300D02*X367700Y285800D01*
X370900Y284000D02*X371400Y284500D01*
X369900Y284000D02*X370900D01*
X369400Y284500D02*X369900Y284000D01*
X369400Y284500D02*Y287500D01*
X369900Y288000D01*
X370900Y285800D02*X371400Y286300D01*
X369400Y285800D02*X370900D01*
X369900Y288000D02*X370900D01*
X371400Y287500D01*
Y286300D02*Y287500D01*
X351350Y262850D02*Y264850D01*
X350850Y265350D01*
X349850D02*X350850D01*
X349350Y264850D02*X349850Y265350D01*
X349350Y263350D02*Y264850D01*
X347350Y263350D02*X351350D01*
X349350Y264150D02*X347350Y265350D01*
X351350Y266550D02*Y268550D01*
X349350Y266550D02*X351350D01*
X349350D02*X349850Y267050D01*
Y268050D01*
X349350Y268550D01*
X347850D02*X349350D01*
X347350Y268050D02*X347850Y268550D01*
X347350Y267050D02*Y268050D01*
X347850Y266550D02*X347350Y267050D01*
Y270250D02*X349350Y271750D01*
X350850D01*
X351350Y271250D02*X350850Y271750D01*
X351350Y270250D02*Y271250D01*
X350850Y269750D02*X351350Y270250D01*
X349850Y269750D02*X350850D01*
X349850D02*X349350Y270250D01*
Y271750D01*
X351444Y232776D02*Y234776D01*
X350944Y235276D01*
X349944D02*X350944D01*
X349444Y234776D02*X349944Y235276D01*
X349444Y233276D02*Y234776D01*
X347444Y233276D02*X351444D01*
X349444Y234076D02*X347444Y235276D01*
X351444Y236476D02*Y238476D01*
X349444Y236476D02*X351444D01*
X349444D02*X349944Y236976D01*
Y237976D01*
X349444Y238476D01*
X347944D02*X349444D01*
X347444Y237976D02*X347944Y238476D01*
X347444Y236976D02*Y237976D01*
X347944Y236476D02*X347444Y236976D01*
X351444Y239676D02*Y241676D01*
X349444Y239676D02*X351444D01*
X349444D02*X349944Y240176D01*
Y241176D01*
X349444Y241676D01*
X347944D02*X349444D01*
X347444Y241176D02*X347944Y241676D01*
X347444Y240176D02*Y241176D01*
X347944Y239676D02*X347444Y240176D01*
X351944Y202276D02*Y204276D01*
X351444Y204776D01*
X350444D02*X351444D01*
X349944Y204276D02*X350444Y204776D01*
X349944Y202776D02*Y204276D01*
X347944Y202776D02*X351944D01*
X349944Y203576D02*X347944Y204776D01*
X349444Y205976D02*X351944Y207976D01*
X349444Y205976D02*Y208476D01*
X347944Y207976D02*X351944D01*
X347944Y210176D02*X349944Y211676D01*
X351444D01*
X351944Y211176D02*X351444Y211676D01*
X351944Y210176D02*Y211176D01*
X351444Y209676D02*X351944Y210176D01*
X350444Y209676D02*X351444D01*
X350444D02*X349944Y210176D01*
Y211676D01*
X351679Y173174D02*Y175174D01*
X351179Y175674D01*
X350179D02*X351179D01*
X349679Y175174D02*X350179Y175674D01*
X349679Y173674D02*Y175174D01*
X347679Y173674D02*X351679D01*
X349679Y174474D02*X347679Y175674D01*
X349179Y176874D02*X351679Y178874D01*
X349179Y176874D02*Y179374D01*
X347679Y178874D02*X351679D01*
X351179Y180574D02*X351679Y181074D01*
Y182074D01*
X351179Y182574D01*
X347679Y182074D02*X348179Y182574D01*
X347679Y181074D02*Y182074D01*
X348179Y180574D02*X347679Y181074D01*
X349879D02*Y182074D01*
X350379Y182574D02*X351179D01*
X348179D02*X349379D01*
X349879Y182074D01*
X350379Y182574D02*X349879Y182074D01*
X351773Y143443D02*Y145443D01*
X351273Y145943D01*
X350273D02*X351273D01*
X349773Y145443D02*X350273Y145943D01*
X349773Y143943D02*Y145443D01*
X347773Y143943D02*X351773D01*
X349773Y144743D02*X347773Y145943D01*
X351273Y147143D02*X351773Y147643D01*
Y148643D01*
X351273Y149143D01*
X347773Y148643D02*X348273Y149143D01*
X347773Y147643D02*Y148643D01*
X348273Y147143D02*X347773Y147643D01*
X349973D02*Y148643D01*
X350473Y149143D02*X351273D01*
X348273D02*X349473D01*
X349973Y148643D01*
X350473Y149143D02*X349973Y148643D01*
X351773Y151843D02*X351273Y152343D01*
X351773Y150843D02*Y151843D01*
X351273Y150343D02*X351773Y150843D01*
X348273Y150343D02*X351273D01*
X348273D02*X347773Y150843D01*
X349973Y151843D02*X349473Y152343D01*
X349973Y150343D02*Y151843D01*
X347773Y150843D02*Y151843D01*
X348273Y152343D01*
X349473D01*
X398020Y431605D02*X400020D01*
X400520Y432105D01*
Y433105D01*
X400020Y433605D02*X400520Y433105D01*
X398520Y433605D02*X400020D01*
X398520Y431605D02*Y435605D01*
X399320Y433605D02*X400520Y435605D01*
X403220Y431605D02*X403720Y432105D01*
X402220Y431605D02*X403220D01*
X401720Y432105D02*X402220Y431605D01*
X401720Y432105D02*Y435105D01*
X402220Y435605D01*
X403220Y433405D02*X403720Y433905D01*
X401720Y433405D02*X403220D01*
X402220Y435605D02*X403220D01*
X403720Y435105D01*
Y433905D02*Y435105D01*
X406420Y431605D02*X406920Y432105D01*
X405420Y431605D02*X406420D01*
X404920Y432105D02*X405420Y431605D01*
X404920Y432105D02*Y435105D01*
X405420Y435605D01*
X406420Y433405D02*X406920Y433905D01*
X404920Y433405D02*X406420D01*
X405420Y435605D02*X406420D01*
X406920Y435105D01*
Y433905D02*Y435105D01*
X435780Y419806D02*Y422806D01*
Y419806D02*X436280Y419306D01*
X437280D01*
X437780Y419806D01*
Y422306D01*
X436780Y423306D02*X437780Y422306D01*
X436280Y423306D02*X436780D01*
X435780Y422806D02*X436280Y423306D01*
X436780Y421806D02*X437780Y423306D01*
X438980Y419806D02*X439480Y419306D01*
X440980D01*
X441480Y419806D01*
Y420806D01*
X438980Y423306D02*X441480Y420806D01*
X438980Y423306D02*X441480D01*
X443180D02*X445180Y419306D01*
X442680D02*X445180D01*
X427944Y413776D02*Y415776D01*
X427444Y416276D01*
X426444D02*X427444D01*
X425944Y415776D02*X426444Y416276D01*
X425944Y414276D02*Y415776D01*
X423944Y414276D02*X427944D01*
X425944Y415076D02*X423944Y416276D01*
X427944Y417476D02*Y419476D01*
X425944Y417476D02*X427944D01*
X425944D02*X426444Y417976D01*
Y418976D01*
X425944Y419476D01*
X424444D02*X425944D01*
X423944Y418976D02*X424444Y419476D01*
X423944Y417976D02*Y418976D01*
X424444Y417476D02*X423944Y417976D01*
X427444Y420676D02*X427944Y421176D01*
Y422176D01*
X427444Y422676D01*
X423944Y422176D02*X424444Y422676D01*
X423944Y421176D02*Y422176D01*
X424444Y420676D02*X423944Y421176D01*
X426144D02*Y422176D01*
X426644Y422676D02*X427444D01*
X424444D02*X425644D01*
X426144Y422176D01*
X426644Y422676D02*X426144Y422176D01*
X436200Y389600D02*Y392600D01*
Y389600D02*X436700Y389100D01*
X437700D01*
X438200Y389600D01*
Y392100D01*
X437200Y393100D02*X438200Y392100D01*
X436700Y393100D02*X437200D01*
X436200Y392600D02*X436700Y393100D01*
X437200Y391600D02*X438200Y393100D01*
X439400Y389600D02*X439900Y389100D01*
X441400D01*
X441900Y389600D01*
Y390600D01*
X439400Y393100D02*X441900Y390600D01*
X439400Y393100D02*X441900D01*
X443100Y389100D02*X445100D01*
X443100D02*Y391100D01*
X443600Y390600D01*
X444600D01*
X445100Y391100D01*
Y392600D01*
X444600Y393100D02*X445100Y392600D01*
X443600Y393100D02*X444600D01*
X443100Y392600D02*X443600Y393100D01*
X419444Y381776D02*Y383776D01*
X418944Y384276D01*
X417944D02*X418944D01*
X417444Y383776D02*X417944Y384276D01*
X417444Y382276D02*Y383776D01*
X415444Y382276D02*X419444D01*
X417444Y383076D02*X415444Y384276D01*
X416944Y385476D02*X419444Y387476D01*
X416944Y385476D02*Y387976D01*
X415444Y387476D02*X419444D01*
X415444Y389676D02*X419444Y391676D01*
Y389176D02*Y391676D01*
X433535Y382276D02*Y384276D01*
X433035Y384776D01*
X432035D02*X433035D01*
X431535Y384276D02*X432035Y384776D01*
X431535Y382776D02*Y384276D01*
X429535Y382776D02*X433535D01*
X431535Y383576D02*X429535Y384776D01*
X431035Y385976D02*X433535Y387976D01*
X431035Y385976D02*Y388476D01*
X429535Y387976D02*X433535D01*
X432735Y389676D02*X433535Y390476D01*
X429535D02*X433535D01*
X429535Y389676D02*Y391176D01*
X436200Y360100D02*Y363100D01*
Y360100D02*X436700Y359600D01*
X437700D01*
X438200Y360100D01*
Y362600D01*
X437200Y363600D02*X438200Y362600D01*
X436700Y363600D02*X437200D01*
X436200Y363100D02*X436700Y363600D01*
X437200Y362100D02*X438200Y363600D01*
X439400Y360100D02*X439900Y359600D01*
X441400D01*
X441900Y360100D01*
Y361100D01*
X439400Y363600D02*X441900Y361100D01*
X439400Y363600D02*X441900D01*
X443100Y360100D02*X443600Y359600D01*
X444600D01*
X445100Y360100D01*
X444600Y363600D02*X445100Y363100D01*
X443600Y363600D02*X444600D01*
X443100Y363100D02*X443600Y363600D01*
Y361400D02*X444600D01*
X445100Y360100D02*Y360900D01*
Y361900D02*Y363100D01*
Y361900D02*X444600Y361400D01*
X445100Y360900D02*X444600Y361400D01*
X436254Y328860D02*Y331860D01*
Y328860D02*X436754Y328360D01*
X437754D01*
X438254Y328860D01*
Y331360D01*
X437254Y332360D02*X438254Y331360D01*
X436754Y332360D02*X437254D01*
X436254Y331860D02*X436754Y332360D01*
X437254Y330860D02*X438254Y332360D01*
X439454Y328860D02*X439954Y328360D01*
X441454D01*
X441954Y328860D01*
Y329860D01*
X439454Y332360D02*X441954Y329860D01*
X439454Y332360D02*X441954D01*
X443154Y331860D02*X443654Y332360D01*
X443154Y328860D02*Y331860D01*
Y328860D02*X443654Y328360D01*
X444654D01*
X445154Y328860D01*
Y331860D01*
X444654Y332360D02*X445154Y331860D01*
X443654Y332360D02*X444654D01*
X443154Y331360D02*X445154Y329360D01*
X423944Y352866D02*Y354866D01*
X423444Y355366D01*
X422444D02*X423444D01*
X421944Y354866D02*X422444Y355366D01*
X421944Y353366D02*Y354866D01*
X419944Y353366D02*X423944D01*
X421944Y354166D02*X419944Y355366D01*
X423444Y356566D02*X423944Y357066D01*
Y358066D01*
X423444Y358566D01*
X419944Y358066D02*X420444Y358566D01*
X419944Y357066D02*Y358066D01*
X420444Y356566D02*X419944Y357066D01*
X422144D02*Y358066D01*
X422644Y358566D02*X423444D01*
X420444D02*X421644D01*
X422144Y358066D01*
X422644Y358566D02*X422144Y358066D01*
X419944Y360266D02*X423944Y362266D01*
Y359766D02*Y362266D01*
X423998Y322667D02*Y324667D01*
X423498Y325167D01*
X422498D02*X423498D01*
X421998Y324667D02*X422498Y325167D01*
X421998Y323167D02*Y324667D01*
X419998Y323167D02*X423998D01*
X421998Y323967D02*X419998Y325167D01*
X423498Y326367D02*X423998Y326867D01*
Y327867D01*
X423498Y328367D01*
X419998Y327867D02*X420498Y328367D01*
X419998Y326867D02*Y327867D01*
X420498Y326367D02*X419998Y326867D01*
X422198D02*Y327867D01*
X422698Y328367D02*X423498D01*
X420498D02*X421698D01*
X422198Y327867D01*
X422698Y328367D02*X422198Y327867D01*
X420498Y329567D02*X419998Y330067D01*
X420498Y329567D02*X423498D01*
X423998Y330067D01*
Y331067D01*
X423498Y331567D01*
X420498D02*X423498D01*
X419998Y331067D02*X420498Y331567D01*
X419998Y330067D02*Y331067D01*
X420998Y329567D02*X422998Y331567D01*
X397944Y322381D02*Y324381D01*
X397444Y324881D01*
X396444D02*X397444D01*
X395944Y324381D02*X396444Y324881D01*
X395944Y322881D02*Y324381D01*
X393944Y322881D02*X397944D01*
X395944Y323681D02*X393944Y324881D01*
X395444Y326082D02*X397944Y328082D01*
X395444Y326082D02*Y328582D01*
X393944Y328082D02*X397944D01*
X394444Y329782D02*X393944Y330282D01*
X394444Y329782D02*X395244D01*
X395944Y330482D01*
Y331082D01*
X395244Y331782D01*
X394444D02*X395244D01*
X393944Y331282D02*X394444Y331782D01*
X393944Y330282D02*Y331282D01*
X396644Y329782D02*X395944Y330482D01*
X396644Y329782D02*X397444D01*
X397944Y330282D01*
Y331282D01*
X397444Y331782D01*
X396644D02*X397444D01*
X395944Y331082D02*X396644Y331782D01*
X397944Y352881D02*Y354881D01*
X397444Y355381D01*
X396444D02*X397444D01*
X395944Y354881D02*X396444Y355381D01*
X395944Y353381D02*Y354881D01*
X393944Y353381D02*X397944D01*
X395944Y354181D02*X393944Y355381D01*
X397944Y356582D02*Y358582D01*
X395944Y356582D02*X397944D01*
X395944D02*X396444Y357082D01*
Y358082D01*
X395944Y358582D01*
X394444D02*X395944D01*
X393944Y358082D02*X394444Y358582D01*
X393944Y357082D02*Y358082D01*
X394444Y356582D02*X393944Y357082D01*
X395444Y359782D02*X397944Y361782D01*
X395444Y359782D02*Y362282D01*
X393944Y361782D02*X397944D01*
X397964Y382849D02*Y384849D01*
X397464Y385349D01*
X396464D02*X397464D01*
X395964Y384849D02*X396464Y385349D01*
X395964Y383349D02*Y384849D01*
X393964Y383349D02*X397964D01*
X395964Y384149D02*X393964Y385349D01*
X397964Y386549D02*Y388549D01*
X395964Y386549D02*X397964D01*
X395964D02*X396464Y387049D01*
Y388049D01*
X395964Y388549D01*
X394464D02*X395964D01*
X393964Y388049D02*X394464Y388549D01*
X393964Y387049D02*Y388049D01*
X394464Y386549D02*X393964Y387049D01*
X394464Y389749D02*X393964Y390249D01*
X394464Y389749D02*X395264D01*
X395964Y390449D01*
Y391049D01*
X395264Y391749D01*
X394464D02*X395264D01*
X393964Y391249D02*X394464Y391749D01*
X393964Y390249D02*Y391249D01*
X396664Y389749D02*X395964Y390449D01*
X396664Y389749D02*X397464D01*
X397964Y390249D01*
Y391249D01*
X397464Y391749D01*
X396664D02*X397464D01*
X395964Y391049D02*X396664Y391749D01*
X407850Y396850D02*Y398850D01*
X407350Y399350D01*
X406350D02*X407350D01*
X405850Y398850D02*X406350Y399350D01*
X405850Y397350D02*Y398850D01*
X403850Y397350D02*X407850D01*
X405850Y398150D02*X403850Y399350D01*
X407850Y402050D02*X407350Y402550D01*
X407850Y401050D02*Y402050D01*
X407350Y400550D02*X407850Y401050D01*
X404350Y400550D02*X407350D01*
X404350D02*X403850Y401050D01*
X406050Y402050D02*X405550Y402550D01*
X406050Y400550D02*Y402050D01*
X403850Y401050D02*Y402050D01*
X404350Y402550D01*
X405550D01*
X407350Y403750D02*X407850Y404250D01*
Y405750D01*
X407350Y406250D01*
X406350D02*X407350D01*
X403850Y403750D02*X406350Y406250D01*
X403850Y403750D02*Y406250D01*
X438700Y180600D02*Y183600D01*
Y180600D02*X439200Y180100D01*
X440200D01*
X440700Y180600D01*
Y183100D01*
X439700Y184100D02*X440700Y183100D01*
X439200Y184100D02*X439700D01*
X438700Y183600D02*X439200Y184100D01*
X439700Y182600D02*X440700Y184100D01*
X443400Y180100D02*X443900Y180600D01*
X442400Y180100D02*X443400D01*
X441900Y180600D02*X442400Y180100D01*
X441900Y180600D02*Y183600D01*
X442400Y184100D01*
X443400Y181900D02*X443900Y182400D01*
X441900Y181900D02*X443400D01*
X442400Y184100D02*X443400D01*
X443900Y183600D01*
Y182400D02*Y183600D01*
X438700Y210600D02*Y213600D01*
Y210600D02*X439200Y210100D01*
X440200D01*
X440700Y210600D01*
Y213100D01*
X439700Y214100D02*X440700Y213100D01*
X439200Y214100D02*X439700D01*
X438700Y213600D02*X439200Y214100D01*
X439700Y212600D02*X440700Y214100D01*
X442400D02*X443900Y212100D01*
Y210600D02*Y212100D01*
X443400Y210100D02*X443900Y210600D01*
X442400Y210100D02*X443400D01*
X441900Y210600D02*X442400Y210100D01*
X441900Y210600D02*Y211600D01*
X442400Y212100D01*
X443900D01*
X416750Y139671D02*X418750D01*
X419250Y140171D01*
Y141171D01*
X418750Y141671D02*X419250Y141171D01*
X417250Y141671D02*X418750D01*
X417250Y139671D02*Y143671D01*
X418050Y141671D02*X419250Y143671D01*
X420950D02*X422450Y141671D01*
Y140171D02*Y141671D01*
X421950Y139671D02*X422450Y140171D01*
X420950Y139671D02*X421950D01*
X420450Y140171D02*X420950Y139671D01*
X420450Y140171D02*Y141171D01*
X420950Y141671D01*
X422450D01*
X416638Y110134D02*X418638D01*
X419138Y110634D01*
Y111634D01*
X418638Y112134D02*X419138Y111634D01*
X417138Y112134D02*X418638D01*
X417138Y110134D02*Y114134D01*
X417938Y112134D02*X419138Y114134D01*
X420338Y113634D02*X420838Y114134D01*
X420338Y112834D02*Y113634D01*
Y112834D02*X421038Y112134D01*
X421638D01*
X422338Y112834D01*
Y113634D01*
X421838Y114134D02*X422338Y113634D01*
X420838Y114134D02*X421838D01*
X420338Y111434D02*X421038Y112134D01*
X420338Y110634D02*Y111434D01*
Y110634D02*X420838Y110134D01*
X421838D01*
X422338Y110634D01*
Y111434D01*
X421638Y112134D02*X422338Y111434D01*
X424150Y202850D02*Y204850D01*
X423650Y205350D01*
X422650D02*X423650D01*
X422150Y204850D02*X422650Y205350D01*
X422150Y203350D02*Y204850D01*
X420150Y203350D02*X424150D01*
X422150Y204150D02*X420150Y205350D01*
Y207050D02*X424150Y209050D01*
Y206550D02*Y209050D01*
Y211750D02*X423650Y212250D01*
X424150Y210750D02*Y211750D01*
X423650Y210250D02*X424150Y210750D01*
X420650Y210250D02*X423650D01*
X420650D02*X420150Y210750D01*
X422350Y211750D02*X421850Y212250D01*
X422350Y210250D02*Y211750D01*
X420150Y210750D02*Y211750D01*
X420650Y212250D01*
X421850D01*
X424489Y173120D02*Y175120D01*
X423989Y175620D01*
X422989D02*X423989D01*
X422489Y175120D02*X422989Y175620D01*
X422489Y173620D02*Y175120D01*
X420489Y173620D02*X424489D01*
X422489Y174420D02*X420489Y175620D01*
X423689Y176820D02*X424489Y177620D01*
X420489D02*X424489D01*
X420489Y176820D02*Y178320D01*
X420989Y179520D02*X420489Y180020D01*
X420989Y179520D02*X423989D01*
X424489Y180020D01*
Y181020D01*
X423989Y181520D01*
X420989D02*X423989D01*
X420489Y181020D02*X420989Y181520D01*
X420489Y180020D02*Y181020D01*
X421489Y179520D02*X423489Y181520D01*
X436700Y240600D02*Y243600D01*
Y240600D02*X437200Y240100D01*
X438200D01*
X438700Y240600D01*
Y243100D01*
X437700Y244100D02*X438700Y243100D01*
X437200Y244100D02*X437700D01*
X436700Y243600D02*X437200Y244100D01*
X437700Y242600D02*X438700Y244100D01*
X439900Y240900D02*X440700Y240100D01*
Y244100D01*
X439900D02*X441400D01*
X442600Y240600D02*X443100Y240100D01*
X444600D01*
X445100Y240600D01*
Y241600D01*
X442600Y244100D02*X445100Y241600D01*
X442600Y244100D02*X445100D01*
X397745Y233229D02*Y235229D01*
X397245Y235729D01*
X396245D02*X397245D01*
X395745Y235229D02*X396245Y235729D01*
X395745Y233729D02*Y235229D01*
X393745Y233729D02*X397745D01*
X395745Y234529D02*X393745Y235729D01*
X397245Y236929D02*X397745Y237429D01*
Y238429D01*
X397245Y238929D01*
X393745Y238429D02*X394245Y238929D01*
X393745Y237429D02*Y238429D01*
X394245Y236929D02*X393745Y237429D01*
X395945D02*Y238429D01*
X396445Y238929D02*X397245D01*
X394245D02*X395445D01*
X395945Y238429D01*
X396445Y238929D02*X395945Y238429D01*
X396945Y240129D02*X397745Y240929D01*
X393745D02*X397745D01*
X393745Y240129D02*Y241629D01*
X424007Y233324D02*Y235324D01*
X423507Y235824D01*
X422507D02*X423507D01*
X422007Y235324D02*X422507Y235824D01*
X422007Y233824D02*Y235324D01*
X420007Y233824D02*X424007D01*
X422007Y234624D02*X420007Y235824D01*
X423207Y237024D02*X424007Y237824D01*
X420007D02*X424007D01*
X420007Y237024D02*Y238524D01*
Y240224D02*X424007Y242224D01*
Y239724D02*Y242224D01*
X436700Y270600D02*Y273600D01*
Y270600D02*X437200Y270100D01*
X438200D01*
X438700Y270600D01*
Y273100D01*
X437700Y274100D02*X438700Y273100D01*
X437200Y274100D02*X437700D01*
X436700Y273600D02*X437200Y274100D01*
X437700Y272600D02*X438700Y274100D01*
X439900Y270900D02*X440700Y270100D01*
Y274100D01*
X439900D02*X441400D01*
X442600Y272600D02*X444600Y270100D01*
X442600Y272600D02*X445100D01*
X444600Y270100D02*Y274100D01*
X397912Y263017D02*Y265017D01*
X397412Y265517D01*
X396412D02*X397412D01*
X395912Y265017D02*X396412Y265517D01*
X395912Y263517D02*Y265017D01*
X393912Y263517D02*X397912D01*
X395912Y264317D02*X393912Y265517D01*
X397412Y266717D02*X397912Y267217D01*
Y268217D01*
X397412Y268717D01*
X393912Y268217D02*X394412Y268717D01*
X393912Y267217D02*Y268217D01*
X394412Y266717D02*X393912Y267217D01*
X396112D02*Y268217D01*
X396612Y268717D02*X397412D01*
X394412D02*X395612D01*
X396112Y268217D01*
X396612Y268717D02*X396112Y268217D01*
X397912Y269917D02*Y271917D01*
X395912Y269917D02*X397912D01*
X395912D02*X396412Y270417D01*
Y271417D01*
X395912Y271917D01*
X394412D02*X395912D01*
X393912Y271417D02*X394412Y271917D01*
X393912Y270417D02*Y271417D01*
X394412Y269917D02*X393912Y270417D01*
X423823Y262726D02*Y264726D01*
X423323Y265226D01*
X422323D02*X423323D01*
X421823Y264726D02*X422323Y265226D01*
X421823Y263226D02*Y264726D01*
X419823Y263226D02*X423823D01*
X421823Y264026D02*X419823Y265226D01*
X423323Y266426D02*X423823Y266926D01*
Y268426D01*
X423323Y268926D01*
X422323D02*X423323D01*
X419823Y266426D02*X422323Y268926D01*
X419823Y266426D02*Y268926D01*
X420323Y270126D02*X419823Y270626D01*
X420323Y270126D02*X423323D01*
X423823Y270626D01*
Y271626D01*
X423323Y272126D01*
X420323D02*X423323D01*
X419823Y271626D02*X420323Y272126D01*
X419823Y270626D02*Y271626D01*
X420823Y270126D02*X422823Y272126D01*
X436700Y300100D02*Y303100D01*
Y300100D02*X437200Y299600D01*
X438200D01*
X438700Y300100D01*
Y302600D01*
X437700Y303600D02*X438700Y302600D01*
X437200Y303600D02*X437700D01*
X436700Y303100D02*X437200Y303600D01*
X437700Y302100D02*X438700Y303600D01*
X439900Y300400D02*X440700Y299600D01*
Y303600D01*
X439900D02*X441400D01*
X443100D02*X445100Y299600D01*
X442600D02*X445100D01*
X398074Y292314D02*Y294314D01*
X397574Y294814D01*
X396574D02*X397574D01*
X396074Y294314D02*X396574Y294814D01*
X396074Y292814D02*Y294314D01*
X394074Y292814D02*X398074D01*
X396074Y293614D02*X394074Y294814D01*
X395574Y296014D02*X398074Y298014D01*
X395574Y296014D02*Y298514D01*
X394074Y298014D02*X398074D01*
X397574Y299714D02*X398074Y300214D01*
Y301714D01*
X397574Y302214D01*
X396574D02*X397574D01*
X394074Y299714D02*X396574Y302214D01*
X394074Y299714D02*Y302214D01*
X423707Y292595D02*Y294595D01*
X423207Y295095D01*
X422207D02*X423207D01*
X421707Y294595D02*X422207Y295095D01*
X421707Y293095D02*Y294595D01*
X419707Y293095D02*X423707D01*
X421707Y293895D02*X419707Y295095D01*
X423207Y296295D02*X423707Y296795D01*
Y298295D01*
X423207Y298795D01*
X422207D02*X423207D01*
X419707Y296295D02*X422207Y298795D01*
X419707Y296295D02*Y298795D01*
X423707Y299995D02*Y301995D01*
X421707Y299995D02*X423707D01*
X421707D02*X422207Y300495D01*
Y301495D01*
X421707Y301995D01*
X420207D02*X421707D01*
X419707Y301495D02*X420207Y301995D01*
X419707Y300495D02*Y301495D01*
X420207Y299995D02*X419707Y300495D01*
X378866Y138856D02*X380866D01*
X381366Y139356D01*
Y140356D01*
X380866Y140856D02*X381366Y140356D01*
X379366Y140856D02*X380866D01*
X379366Y138856D02*Y142856D01*
X380166Y140856D02*X381366Y142856D01*
X382566Y139656D02*X383366Y138856D01*
Y142856D01*
X382566D02*X384066D01*
X386766Y138856D02*X387266Y139356D01*
X385766Y138856D02*X386766D01*
X385266Y139356D02*X385766Y138856D01*
X385266Y139356D02*Y142356D01*
X385766Y142856D01*
X386766Y140656D02*X387266Y141156D01*
X385266Y140656D02*X386766D01*
X385766Y142856D02*X386766D01*
X387266Y142356D01*
Y141156D02*Y142356D01*
X378381Y168156D02*X380381D01*
X380881Y168656D01*
Y169656D01*
X380381Y170156D02*X380881Y169656D01*
X378881Y170156D02*X380381D01*
X378881Y168156D02*Y172156D01*
X379681Y170156D02*X380881Y172156D01*
X382082Y168656D02*X382582Y168156D01*
X384082D01*
X384582Y168656D01*
Y169656D01*
X382082Y172156D02*X384582Y169656D01*
X382082Y172156D02*X384582D01*
X385782Y168956D02*X386582Y168156D01*
Y172156D01*
X385782D02*X387282D01*
X378558Y198777D02*X380558D01*
X381058Y199277D01*
Y200277D01*
X380558Y200777D02*X381058Y200277D01*
X379058Y200777D02*X380558D01*
X379058Y198777D02*Y202777D01*
X379858Y200777D02*X381058Y202777D01*
X382258Y199277D02*X382758Y198777D01*
X384258D01*
X384758Y199277D01*
Y200277D01*
X382258Y202777D02*X384758Y200277D01*
X382258Y202777D02*X384758D01*
X385958Y201277D02*X387958Y198777D01*
X385958Y201277D02*X388458D01*
X387958Y198777D02*Y202777D01*
X351921Y113405D02*Y115405D01*
X351421Y115905D01*
X350421D02*X351421D01*
X349921Y115405D02*X350421Y115905D01*
X349921Y113905D02*Y115405D01*
X347921Y113905D02*X351921D01*
X349921Y114705D02*X347921Y115905D01*
X351421Y117105D02*X351921Y117605D01*
Y119105D01*
X351421Y119605D01*
X350421D02*X351421D01*
X347921Y117105D02*X350421Y119605D01*
X347921Y117105D02*Y119605D01*
Y121305D02*X349921Y122805D01*
X351421D01*
X351921Y122305D02*X351421Y122805D01*
X351921Y121305D02*Y122305D01*
X351421Y120805D02*X351921Y121305D01*
X350421Y120805D02*X351421D01*
X350421D02*X349921Y121305D01*
Y122805D01*
X378859Y109418D02*X380859D01*
X381359Y109918D01*
Y110918D01*
X380859Y111418D02*X381359Y110918D01*
X379359Y111418D02*X380859D01*
X379359Y109418D02*Y113418D01*
X380159Y111418D02*X381359Y113418D01*
X382559Y110218D02*X383359Y109418D01*
Y113418D01*
X382559D02*X384059D01*
X385259Y109918D02*X385759Y109418D01*
X386759D01*
X387259Y109918D01*
X386759Y113418D02*X387259Y112918D01*
X385759Y113418D02*X386759D01*
X385259Y112918D02*X385759Y113418D01*
Y111218D02*X386759D01*
X387259Y109918D02*Y110718D01*
Y111718D02*Y112918D01*
Y111718D02*X386759Y111218D01*
X387259Y110718D02*X386759Y111218D01*
X258700Y45100D02*Y48100D01*
Y45100D02*X259200Y44600D01*
X260200D01*
X260700Y45100D01*
Y47600D01*
X259700Y48600D02*X260700Y47600D01*
X259200Y48600D02*X259700D01*
X258700Y48100D02*X259200Y48600D01*
X259700Y47100D02*X260700Y48600D01*
X261900Y45100D02*X262400Y44600D01*
X263400D01*
X263900Y45100D01*
X263400Y48600D02*X263900Y48100D01*
X262400Y48600D02*X263400D01*
X261900Y48100D02*X262400Y48600D01*
Y46400D02*X263400D01*
X263900Y45100D02*Y45900D01*
Y46900D02*Y48100D01*
Y46900D02*X263400Y46400D01*
X263900Y45900D02*X263400Y46400D01*
X288200Y45100D02*Y48100D01*
Y45100D02*X288700Y44600D01*
X289700D01*
X290200Y45100D01*
Y47600D01*
X289200Y48600D02*X290200Y47600D01*
X288700Y48600D02*X289200D01*
X288200Y48100D02*X288700Y48600D01*
X289200Y47100D02*X290200Y48600D01*
X291900D02*X293900Y44600D01*
X291400D02*X293900D01*
X317200Y45100D02*Y48100D01*
Y45100D02*X317700Y44600D01*
X318700D01*
X319200Y45100D01*
Y47600D01*
X318200Y48600D02*X319200Y47600D01*
X317700Y48600D02*X318200D01*
X317200Y48100D02*X317700Y48600D01*
X318200Y47100D02*X319200Y48600D01*
X320400Y45400D02*X321200Y44600D01*
Y48600D01*
X320400D02*X321900D01*
X323100Y45400D02*X323900Y44600D01*
Y48600D01*
X323100D02*X324600D01*
X347200Y45100D02*Y48100D01*
Y45100D02*X347700Y44600D01*
X348700D01*
X349200Y45100D01*
Y47600D01*
X348200Y48600D02*X349200Y47600D01*
X347700Y48600D02*X348200D01*
X347200Y48100D02*X347700Y48600D01*
X348200Y47100D02*X349200Y48600D01*
X350400Y45400D02*X351200Y44600D01*
Y48600D01*
X350400D02*X351900D01*
X353100Y44600D02*X355100D01*
X353100D02*Y46600D01*
X353600Y46100D01*
X354600D01*
X355100Y46600D01*
Y48100D01*
X354600Y48600D02*X355100Y48100D01*
X353600Y48600D02*X354600D01*
X353100Y48100D02*X353600Y48600D01*
X376700Y45100D02*Y48100D01*
Y45100D02*X377200Y44600D01*
X378200D01*
X378700Y45100D01*
Y47600D01*
X377700Y48600D02*X378700Y47600D01*
X377200Y48600D02*X377700D01*
X376700Y48100D02*X377200Y48600D01*
X377700Y47100D02*X378700Y48600D01*
X379900Y45100D02*X380400Y44600D01*
X381900D01*
X382400Y45100D01*
Y46100D01*
X379900Y48600D02*X382400Y46100D01*
X379900Y48600D02*X382400D01*
X383600Y45400D02*X384400Y44600D01*
Y48600D01*
X383600D02*X385100D01*
X122700Y404600D02*Y407600D01*
Y404600D02*X123200Y404100D01*
X124200D01*
X124700Y404600D01*
Y407100D01*
X123700Y408100D02*X124700Y407100D01*
X123200Y408100D02*X123700D01*
X122700Y407600D02*X123200Y408100D01*
X123700Y406600D02*X124700Y408100D01*
X125900Y406600D02*X127900Y404100D01*
X125900Y406600D02*X128400D01*
X127900Y404100D02*Y408100D01*
X129600Y404600D02*X130100Y404100D01*
X131600D01*
X132100Y404600D01*
Y405600D01*
X129600Y408100D02*X132100Y405600D01*
X129600Y408100D02*X132100D01*
X123200Y374600D02*Y377600D01*
Y374600D02*X123700Y374100D01*
X124700D01*
X125200Y374600D01*
Y377100D01*
X124200Y378100D02*X125200Y377100D01*
X123700Y378100D02*X124200D01*
X123200Y377600D02*X123700Y378100D01*
X124200Y376600D02*X125200Y378100D01*
X126400Y376600D02*X128400Y374100D01*
X126400Y376600D02*X128900D01*
X128400Y374100D02*Y378100D01*
X130100Y377600D02*X130600Y378100D01*
X130100Y374600D02*Y377600D01*
Y374600D02*X130600Y374100D01*
X131600D01*
X132100Y374600D01*
Y377600D01*
X131600Y378100D02*X132100Y377600D01*
X130600Y378100D02*X131600D01*
X130100Y377100D02*X132100Y375100D01*
X123200Y343600D02*Y346600D01*
Y343600D02*X123700Y343100D01*
X124700D01*
X125200Y343600D01*
Y346100D01*
X124200Y347100D02*X125200Y346100D01*
X123700Y347100D02*X124200D01*
X123200Y346600D02*X123700Y347100D01*
X124200Y345600D02*X125200Y347100D01*
X126400Y343600D02*X126900Y343100D01*
X127900D01*
X128400Y343600D01*
X127900Y347100D02*X128400Y346600D01*
X126900Y347100D02*X127900D01*
X126400Y346600D02*X126900Y347100D01*
Y344900D02*X127900D01*
X128400Y343600D02*Y344400D01*
Y345400D02*Y346600D01*
Y345400D02*X127900Y344900D01*
X128400Y344400D02*X127900Y344900D01*
X129600Y346600D02*X130100Y347100D01*
X129600Y345800D02*Y346600D01*
Y345800D02*X130300Y345100D01*
X130900D01*
X131600Y345800D01*
Y346600D01*
X131100Y347100D02*X131600Y346600D01*
X130100Y347100D02*X131100D01*
X129600Y344400D02*X130300Y345100D01*
X129600Y343600D02*Y344400D01*
Y343600D02*X130100Y343100D01*
X131100D01*
X131600Y343600D01*
Y344400D01*
X130900Y345100D02*X131600Y344400D01*
X49700Y329600D02*Y332600D01*
Y329600D02*X50200Y329100D01*
X51200D01*
X51700Y329600D01*
Y332100D01*
X50700Y333100D02*X51700Y332100D01*
X50200Y333100D02*X50700D01*
X49700Y332600D02*X50200Y333100D01*
X50700Y331600D02*X51700Y333100D01*
X52900Y329900D02*X53700Y329100D01*
Y333100D01*
X52900D02*X54400D01*
X56100D02*X57600Y331100D01*
Y329600D02*Y331100D01*
X57100Y329100D02*X57600Y329600D01*
X56100Y329100D02*X57100D01*
X55600Y329600D02*X56100Y329100D01*
X55600Y329600D02*Y330600D01*
X56100Y331100D01*
X57600D01*
X49700Y299600D02*Y302600D01*
Y299600D02*X50200Y299100D01*
X51200D01*
X51700Y299600D01*
Y302100D01*
X50700Y303100D02*X51700Y302100D01*
X50200Y303100D02*X50700D01*
X49700Y302600D02*X50200Y303100D01*
X50700Y301600D02*X51700Y303100D01*
X52900Y299900D02*X53700Y299100D01*
Y303100D01*
X52900D02*X54400D01*
X57100Y299100D02*X57600Y299600D01*
X56100Y299100D02*X57100D01*
X55600Y299600D02*X56100Y299100D01*
X55600Y299600D02*Y302600D01*
X56100Y303100D01*
X57100Y300900D02*X57600Y301400D01*
X55600Y300900D02*X57100D01*
X56100Y303100D02*X57100D01*
X57600Y302600D01*
Y301400D02*Y302600D01*
X49200Y359600D02*Y362600D01*
Y359600D02*X49700Y359100D01*
X50700D01*
X51200Y359600D01*
Y362100D01*
X50200Y363100D02*X51200Y362100D01*
X49700Y363100D02*X50200D01*
X49200Y362600D02*X49700Y363100D01*
X50200Y361600D02*X51200Y363100D01*
X52400Y359600D02*X52900Y359100D01*
X54400D01*
X54900Y359600D01*
Y360600D01*
X52400Y363100D02*X54900Y360600D01*
X52400Y363100D02*X54900D01*
X56100Y359600D02*X56600Y359100D01*
X58100D01*
X58600Y359600D01*
Y360600D01*
X56100Y363100D02*X58600Y360600D01*
X56100Y363100D02*X58600D01*
X49200Y389600D02*Y392600D01*
Y389600D02*X49700Y389100D01*
X50700D01*
X51200Y389600D01*
Y392100D01*
X50200Y393100D02*X51200Y392100D01*
X49700Y393100D02*X50200D01*
X49200Y392600D02*X49700Y393100D01*
X50200Y391600D02*X51200Y393100D01*
X52400Y389600D02*X52900Y389100D01*
X54400D01*
X54900Y389600D01*
Y390600D01*
X52400Y393100D02*X54900Y390600D01*
X52400Y393100D02*X54900D01*
X56100Y391600D02*X58100Y389100D01*
X56100Y391600D02*X58600D01*
X58100Y389100D02*Y393100D01*
X49700Y412100D02*Y415100D01*
Y412100D02*X50200Y411600D01*
X51200D01*
X51700Y412100D01*
Y414600D01*
X50700Y415600D02*X51700Y414600D01*
X50200Y415600D02*X50700D01*
X49700Y415100D02*X50200Y415600D01*
X50700Y414100D02*X51700Y415600D01*
X52900Y412100D02*X53400Y411600D01*
X54900D01*
X55400Y412100D01*
Y413100D01*
X52900Y415600D02*X55400Y413100D01*
X52900Y415600D02*X55400D01*
X58100Y411600D02*X58600Y412100D01*
X57100Y411600D02*X58100D01*
X56600Y412100D02*X57100Y411600D01*
X56600Y412100D02*Y415100D01*
X57100Y415600D01*
X58100Y413400D02*X58600Y413900D01*
X56600Y413400D02*X58100D01*
X57100Y415600D02*X58100D01*
X58600Y415100D01*
Y413900D02*Y415100D01*
X88444Y292381D02*Y294381D01*
X87944Y294881D01*
X86944D02*X87944D01*
X86444Y294381D02*X86944Y294881D01*
X86444Y292881D02*Y294381D01*
X84444Y292881D02*X88444D01*
X86444Y293681D02*X84444Y294881D01*
X87944Y296082D02*X88444Y296582D01*
Y298082D01*
X87944Y298582D01*
X86944D02*X87944D01*
X84444Y296082D02*X86944Y298582D01*
X84444Y296082D02*Y298582D01*
X88444Y301282D02*X87944Y301782D01*
X88444Y300282D02*Y301282D01*
X87944Y299782D02*X88444Y300282D01*
X84944Y299782D02*X87944D01*
X84944D02*X84444Y300282D01*
X86644Y301282D02*X86144Y301782D01*
X86644Y299782D02*Y301282D01*
X84444Y300282D02*Y301282D01*
X84944Y301782D01*
X86144D01*
X157210Y292584D02*Y294584D01*
X156710Y295084D01*
X155710D02*X156710D01*
X155210Y294584D02*X155710Y295084D01*
X155210Y293084D02*Y294584D01*
X153210Y293084D02*X157210D01*
X155210Y293884D02*X153210Y295084D01*
X157210Y297784D02*X156710Y298284D01*
X157210Y296784D02*Y297784D01*
X156710Y296284D02*X157210Y296784D01*
X153710Y296284D02*X156710D01*
X153710D02*X153210Y296784D01*
X155410Y297784D02*X154910Y298284D01*
X155410Y296284D02*Y297784D01*
X153210Y296784D02*Y297784D01*
X153710Y298284D01*
X154910D01*
X156410Y299484D02*X157210Y300284D01*
X153210D02*X157210D01*
X153210Y299484D02*Y300984D01*
X88604Y352813D02*Y354813D01*
X88104Y355313D01*
X87104D02*X88104D01*
X86604Y354813D02*X87104Y355313D01*
X86604Y353313D02*Y354813D01*
X84604Y353313D02*X88604D01*
X86604Y354113D02*X84604Y355313D01*
X88104Y356513D02*X88604Y357013D01*
Y358013D01*
X88104Y358513D01*
X84604Y358013D02*X85104Y358513D01*
X84604Y357013D02*Y358013D01*
X85104Y356513D02*X84604Y357013D01*
X86804D02*Y358013D01*
X87304Y358513D02*X88104D01*
X85104D02*X86304D01*
X86804Y358013D01*
X87304Y358513D02*X86804Y358013D01*
X85104Y359713D02*X84604Y360213D01*
X85104Y359713D02*X85904D01*
X86604Y360413D01*
Y361013D01*
X85904Y361713D01*
X85104D02*X85904D01*
X84604Y361213D02*X85104Y361713D01*
X84604Y360213D02*Y361213D01*
X87304Y359713D02*X86604Y360413D01*
X87304Y359713D02*X88104D01*
X88604Y360213D01*
Y361213D01*
X88104Y361713D01*
X87304D02*X88104D01*
X86604Y361013D02*X87304Y361713D01*
X157850Y352350D02*Y354350D01*
X157350Y354850D01*
X156350D02*X157350D01*
X155850Y354350D02*X156350Y354850D01*
X155850Y352850D02*Y354350D01*
X153850Y352850D02*X157850D01*
X155850Y353650D02*X153850Y354850D01*
X157850Y357550D02*X157350Y358050D01*
X157850Y356550D02*Y357550D01*
X157350Y356050D02*X157850Y356550D01*
X154350Y356050D02*X157350D01*
X154350D02*X153850Y356550D01*
X156050Y357550D02*X155550Y358050D01*
X156050Y356050D02*Y357550D01*
X153850Y356550D02*Y357550D01*
X154350Y358050D01*
X155550D01*
X154350Y359250D02*X153850Y359750D01*
X154350Y359250D02*X155150D01*
X155850Y359950D01*
Y360550D01*
X155150Y361250D01*
X154350D02*X155150D01*
X153850Y360750D02*X154350Y361250D01*
X153850Y359750D02*Y360750D01*
X156550Y359250D02*X155850Y359950D01*
X156550Y359250D02*X157350D01*
X157850Y359750D01*
Y360750D01*
X157350Y361250D01*
X156550D02*X157350D01*
X155850Y360550D02*X156550Y361250D01*
X88702Y322387D02*Y324387D01*
X88202Y324887D01*
X87202D02*X88202D01*
X86702Y324387D02*X87202Y324887D01*
X86702Y322887D02*Y324387D01*
X84702Y322887D02*X88702D01*
X86702Y323687D02*X84702Y324887D01*
X88202Y326087D02*X88702Y326587D01*
Y327587D01*
X88202Y328087D01*
X84702Y327587D02*X85202Y328087D01*
X84702Y326587D02*Y327587D01*
X85202Y326087D02*X84702Y326587D01*
X86902D02*Y327587D01*
X87402Y328087D02*X88202D01*
X85202D02*X86402D01*
X86902Y327587D01*
X87402Y328087D02*X86902Y327587D01*
X88202Y329287D02*X88702Y329787D01*
Y331287D01*
X88202Y331787D01*
X87202D02*X88202D01*
X84702Y329287D02*X87202Y331787D01*
X84702Y329287D02*Y331787D01*
X157724Y322529D02*Y324529D01*
X157224Y325029D01*
X156224D02*X157224D01*
X155724Y324529D02*X156224Y325029D01*
X155724Y323029D02*Y324529D01*
X153724Y323029D02*X157724D01*
X155724Y323829D02*X153724Y325029D01*
X157724Y327729D02*X157224Y328229D01*
X157724Y326729D02*Y327729D01*
X157224Y326229D02*X157724Y326729D01*
X154224Y326229D02*X157224D01*
X154224D02*X153724Y326729D01*
X155924Y327729D02*X155424Y328229D01*
X155924Y326229D02*Y327729D01*
X153724Y326729D02*Y327729D01*
X154224Y328229D01*
X155424D01*
X157724Y329429D02*Y331429D01*
X155724Y329429D02*X157724D01*
X155724D02*X156224Y329929D01*
Y330929D01*
X155724Y331429D01*
X154224D02*X155724D01*
X153724Y330929D02*X154224Y331429D01*
X153724Y329929D02*Y330929D01*
X154224Y329429D02*X153724Y329929D01*
X88444Y382276D02*Y384276D01*
X87944Y384776D01*
X86944D02*X87944D01*
X86444Y384276D02*X86944Y384776D01*
X86444Y382776D02*Y384276D01*
X84444Y382776D02*X88444D01*
X86444Y383576D02*X84444Y384776D01*
X85944Y385976D02*X88444Y387976D01*
X85944Y385976D02*Y388476D01*
X84444Y387976D02*X88444D01*
Y389676D02*Y391676D01*
X86444Y389676D02*X88444D01*
X86444D02*X86944Y390176D01*
Y391176D01*
X86444Y391676D01*
X84944D02*X86444D01*
X84444Y391176D02*X84944Y391676D01*
X84444Y390176D02*Y391176D01*
X84944Y389676D02*X84444Y390176D01*
X81944Y412276D02*Y414276D01*
X81444Y414776D01*
X80444D02*X81444D01*
X79944Y414276D02*X80444Y414776D01*
X79944Y412776D02*Y414276D01*
X77944Y412776D02*X81944D01*
X79944Y413576D02*X77944Y414776D01*
X81944Y415976D02*Y417976D01*
X79944Y415976D02*X81944D01*
X79944D02*X80444Y416476D01*
Y417476D01*
X79944Y417976D01*
X78444D02*X79944D01*
X77944Y417476D02*X78444Y417976D01*
X77944Y416476D02*Y417476D01*
X78444Y415976D02*X77944Y416476D01*
X81444Y419176D02*X81944Y419676D01*
Y421176D01*
X81444Y421676D01*
X80444D02*X81444D01*
X77944Y419176D02*X80444Y421676D01*
X77944Y419176D02*Y421676D01*
X122700Y224600D02*Y227600D01*
Y224600D02*X123200Y224100D01*
X124200D01*
X124700Y224600D01*
Y227100D01*
X123700Y228100D02*X124700Y227100D01*
X123200Y228100D02*X123700D01*
X122700Y227600D02*X123200Y228100D01*
X123700Y226600D02*X124700Y228100D01*
X125900Y224600D02*X126400Y224100D01*
X127900D01*
X128400Y224600D01*
Y225600D01*
X125900Y228100D02*X128400Y225600D01*
X125900Y228100D02*X128400D01*
X130100D02*X131600Y226100D01*
Y224600D02*Y226100D01*
X131100Y224100D02*X131600Y224600D01*
X130100Y224100D02*X131100D01*
X129600Y224600D02*X130100Y224100D01*
X129600Y224600D02*Y225600D01*
X130100Y226100D01*
X131600D01*
X123700Y314600D02*Y317600D01*
Y314600D02*X124200Y314100D01*
X125200D01*
X125700Y314600D01*
Y317100D01*
X124700Y318100D02*X125700Y317100D01*
X124200Y318100D02*X124700D01*
X123700Y317600D02*X124200Y318100D01*
X124700Y316600D02*X125700Y318100D01*
X126900Y314600D02*X127400Y314100D01*
X128400D01*
X128900Y314600D01*
X128400Y318100D02*X128900Y317600D01*
X127400Y318100D02*X128400D01*
X126900Y317600D02*X127400Y318100D01*
Y315900D02*X128400D01*
X128900Y314600D02*Y315400D01*
Y316400D02*Y317600D01*
Y316400D02*X128400Y315900D01*
X128900Y315400D02*X128400Y315900D01*
X130100Y314100D02*X132100D01*
X130100D02*Y316100D01*
X130600Y315600D01*
X131600D01*
X132100Y316100D01*
Y317600D01*
X131600Y318100D02*X132100Y317600D01*
X130600Y318100D02*X131600D01*
X130100Y317600D02*X130600Y318100D01*
X123200Y284600D02*Y287600D01*
Y284600D02*X123700Y284100D01*
X124700D01*
X125200Y284600D01*
Y287100D01*
X124200Y288100D02*X125200Y287100D01*
X123700Y288100D02*X124200D01*
X123200Y287600D02*X123700Y288100D01*
X124200Y286600D02*X125200Y288100D01*
X126400Y284600D02*X126900Y284100D01*
X127900D01*
X128400Y284600D01*
X127900Y288100D02*X128400Y287600D01*
X126900Y288100D02*X127900D01*
X126400Y287600D02*X126900Y288100D01*
Y285900D02*X127900D01*
X128400Y284600D02*Y285400D01*
Y286400D02*Y287600D01*
Y286400D02*X127900Y285900D01*
X128400Y285400D02*X127900Y285900D01*
X129600Y286600D02*X131600Y284100D01*
X129600Y286600D02*X132100D01*
X131600Y284100D02*Y288100D01*
X123200Y254100D02*Y257100D01*
Y254100D02*X123700Y253600D01*
X124700D01*
X125200Y254100D01*
Y256600D01*
X124200Y257600D02*X125200Y256600D01*
X123700Y257600D02*X124200D01*
X123200Y257100D02*X123700Y257600D01*
X124200Y256100D02*X125200Y257600D01*
X126400Y254100D02*X126900Y253600D01*
X127900D01*
X128400Y254100D01*
X127900Y257600D02*X128400Y257100D01*
X126900Y257600D02*X127900D01*
X126400Y257100D02*X126900Y257600D01*
Y255400D02*X127900D01*
X128400Y254100D02*Y254900D01*
Y255900D02*Y257100D01*
Y255900D02*X127900Y255400D01*
X128400Y254900D02*X127900Y255400D01*
X129600Y254100D02*X130100Y253600D01*
X131600D01*
X132100Y254100D01*
Y255100D01*
X129600Y257600D02*X132100Y255100D01*
X129600Y257600D02*X132100D01*
X49700Y269600D02*Y272600D01*
Y269600D02*X50200Y269100D01*
X51200D01*
X51700Y269600D01*
Y272100D01*
X50700Y273100D02*X51700Y272100D01*
X50200Y273100D02*X50700D01*
X49700Y272600D02*X50200Y273100D01*
X50700Y271600D02*X51700Y273100D01*
X52900Y269900D02*X53700Y269100D01*
Y273100D01*
X52900D02*X54400D01*
X55600Y269600D02*X56100Y269100D01*
X57100D01*
X57600Y269600D01*
X57100Y273100D02*X57600Y272600D01*
X56100Y273100D02*X57100D01*
X55600Y272600D02*X56100Y273100D01*
Y270900D02*X57100D01*
X57600Y269600D02*Y270400D01*
Y271400D02*Y272600D01*
Y271400D02*X57100Y270900D01*
X57600Y270400D02*X57100Y270900D01*
X88583Y262387D02*Y264387D01*
X88083Y264887D01*
X87083D02*X88083D01*
X86583Y264387D02*X87083Y264887D01*
X86583Y262887D02*Y264387D01*
X84583Y262887D02*X88583D01*
X86583Y263687D02*X84583Y264887D01*
X88083Y266088D02*X88583Y266588D01*
Y268088D01*
X88083Y268588D01*
X87083D02*X88083D01*
X84583Y266088D02*X87083Y268588D01*
X84583Y266088D02*Y268588D01*
X88083Y269788D02*X88583Y270288D01*
Y271788D01*
X88083Y272288D01*
X87083D02*X88083D01*
X84583Y269788D02*X87083Y272288D01*
X84583Y269788D02*Y272288D01*
X157190Y262758D02*Y264758D01*
X156690Y265258D01*
X155690D02*X156690D01*
X155190Y264758D02*X155690Y265258D01*
X155190Y263258D02*Y264758D01*
X153190Y263258D02*X157190D01*
X155190Y264058D02*X153190Y265258D01*
X157190Y266458D02*Y268458D01*
X155190Y266458D02*X157190D01*
X155190D02*X155690Y266958D01*
Y267958D01*
X155190Y268458D01*
X153690D02*X155190D01*
X153190Y267958D02*X153690Y268458D01*
X153190Y266958D02*Y267958D01*
X153690Y266458D02*X153190Y266958D01*
X157190Y271158D02*X156690Y271658D01*
X157190Y270158D02*Y271158D01*
X156690Y269658D02*X157190Y270158D01*
X153690Y269658D02*X156690D01*
X153690D02*X153190Y270158D01*
X155390Y271158D02*X154890Y271658D01*
X155390Y269658D02*Y271158D01*
X153190Y270158D02*Y271158D01*
X153690Y271658D01*
X154890D01*
X49200Y240100D02*Y243100D01*
Y240100D02*X49700Y239600D01*
X50700D01*
X51200Y240100D01*
Y242600D01*
X50200Y243600D02*X51200Y242600D01*
X49700Y243600D02*X50200D01*
X49200Y243100D02*X49700Y243600D01*
X50200Y242100D02*X51200Y243600D01*
X52400Y240400D02*X53200Y239600D01*
Y243600D01*
X52400D02*X53900D01*
X55100Y243100D02*X55600Y243600D01*
X55100Y240100D02*Y243100D01*
Y240100D02*X55600Y239600D01*
X56600D01*
X57100Y240100D01*
Y243100D01*
X56600Y243600D02*X57100Y243100D01*
X55600Y243600D02*X56600D01*
X55100Y242600D02*X57100Y240600D01*
X88113Y232870D02*Y234870D01*
X87613Y235370D01*
X86613D02*X87613D01*
X86113Y234870D02*X86613Y235370D01*
X86113Y233370D02*Y234870D01*
X84113Y233370D02*X88113D01*
X86113Y234170D02*X84113Y235370D01*
X87313Y236570D02*X88113Y237370D01*
X84113D02*X88113D01*
X84113Y236570D02*Y238070D01*
X84613Y239270D02*X84113Y239770D01*
X84613Y239270D02*X85413D01*
X86113Y239970D01*
Y240570D01*
X85413Y241270D01*
X84613D02*X85413D01*
X84113Y240770D02*X84613Y241270D01*
X84113Y239770D02*Y240770D01*
X86813Y239270D02*X86113Y239970D01*
X86813Y239270D02*X87613D01*
X88113Y239770D01*
Y240770D01*
X87613Y241270D01*
X86813D02*X87613D01*
X86113Y240570D02*X86813Y241270D01*
X156944Y232881D02*Y234881D01*
X156444Y235381D01*
X155444D02*X156444D01*
X154944Y234881D02*X155444Y235381D01*
X154944Y233381D02*Y234881D01*
X152944Y233381D02*X156944D01*
X154944Y234181D02*X152944Y235381D01*
X156944Y236582D02*Y238582D01*
X154944Y236582D02*X156944D01*
X154944D02*X155444Y237082D01*
Y238082D01*
X154944Y238582D01*
X153444D02*X154944D01*
X152944Y238082D02*X153444Y238582D01*
X152944Y237082D02*Y238082D01*
X153444Y236582D02*X152944Y237082D01*
X153444Y239782D02*X152944Y240282D01*
X153444Y239782D02*X156444D01*
X156944Y240282D01*
Y241282D01*
X156444Y241782D01*
X153444D02*X156444D01*
X152944Y241282D02*X153444Y241782D01*
X152944Y240282D02*Y241282D01*
X153944Y239782D02*X155944Y241782D01*
X51200Y210600D02*Y213600D01*
Y210600D02*X51700Y210100D01*
X52700D01*
X53200Y210600D01*
Y213100D01*
X52200Y214100D02*X53200Y213100D01*
X51700Y214100D02*X52200D01*
X51200Y213600D02*X51700Y214100D01*
X52200Y212600D02*X53200Y214100D01*
X54400Y213600D02*X54900Y214100D01*
X54400Y212800D02*Y213600D01*
Y212800D02*X55100Y212100D01*
X55700D01*
X56400Y212800D01*
Y213600D01*
X55900Y214100D02*X56400Y213600D01*
X54900Y214100D02*X55900D01*
X54400Y211400D02*X55100Y212100D01*
X54400Y210600D02*Y211400D01*
Y210600D02*X54900Y210100D01*
X55900D01*
X56400Y210600D01*
Y211400D01*
X55700Y212100D02*X56400Y211400D01*
X88115Y173855D02*Y175855D01*
X87615Y176355D01*
X86615D02*X87615D01*
X86115Y175855D02*X86615Y176355D01*
X86115Y174355D02*Y175855D01*
X84115Y174355D02*X88115D01*
X86115Y175155D02*X84115Y176355D01*
X87315Y177555D02*X88115Y178355D01*
X84115D02*X88115D01*
X84115Y177555D02*Y179055D01*
X87315Y180255D02*X88115Y181055D01*
X84115D02*X88115D01*
X84115Y180255D02*Y181755D01*
X88069Y202838D02*Y204838D01*
X87569Y205338D01*
X86569D02*X87569D01*
X86069Y204838D02*X86569Y205338D01*
X86069Y203338D02*Y204838D01*
X84069Y203338D02*X88069D01*
X86069Y204138D02*X84069Y205338D01*
X87269Y206538D02*X88069Y207338D01*
X84069D02*X88069D01*
X84069Y206538D02*Y208038D01*
X85569Y209238D02*X88069Y211238D01*
X85569Y209238D02*Y211738D01*
X84069Y211238D02*X88069D01*
X156937Y202826D02*Y204826D01*
X156437Y205326D01*
X155437D02*X156437D01*
X154937Y204826D02*X155437Y205326D01*
X154937Y203326D02*Y204826D01*
X152937Y203326D02*X156937D01*
X154937Y204126D02*X152937Y205326D01*
X154437Y206526D02*X156937Y208526D01*
X154437Y206526D02*Y209026D01*
X152937Y208526D02*X156937D01*
Y211726D02*X156437Y212226D01*
X156937Y210726D02*Y211726D01*
X156437Y210226D02*X156937Y210726D01*
X153437Y210226D02*X156437D01*
X153437D02*X152937Y210726D01*
X155137Y211726D02*X154637Y212226D01*
X155137Y210226D02*Y211726D01*
X152937Y210726D02*Y211726D01*
X153437Y212226D01*
X154637D01*
X156649Y172589D02*Y174589D01*
X156149Y175089D01*
X155149D02*X156149D01*
X154649Y174589D02*X155149Y175089D01*
X154649Y173089D02*Y174589D01*
X152649Y173089D02*X156649D01*
X154649Y173889D02*X152649Y175089D01*
X154149Y176289D02*X156649Y178289D01*
X154149Y176289D02*Y178789D01*
X152649Y178289D02*X156649D01*
X153149Y179989D02*X152649Y180489D01*
X153149Y179989D02*X156149D01*
X156649Y180489D01*
Y181489D01*
X156149Y181989D01*
X153149D02*X156149D01*
X152649Y181489D02*X153149Y181989D01*
X152649Y180489D02*Y181489D01*
X153649Y179989D02*X155649Y181989D01*
X156597Y143207D02*Y145207D01*
X156097Y145707D01*
X155097D02*X156097D01*
X154597Y145207D02*X155097Y145707D01*
X154597Y143707D02*Y145207D01*
X152597Y143707D02*X156597D01*
X154597Y144507D02*X152597Y145707D01*
X156097Y146907D02*X156597Y147407D01*
Y148407D01*
X156097Y148907D01*
X152597Y148407D02*X153097Y148907D01*
X152597Y147407D02*Y148407D01*
X153097Y146907D02*X152597Y147407D01*
X154797D02*Y148407D01*
X155297Y148907D02*X156097D01*
X153097D02*X154297D01*
X154797Y148407D01*
X155297Y148907D02*X154797Y148407D01*
X156097Y150107D02*X156597Y150607D01*
Y151607D01*
X156097Y152107D01*
X152597Y151607D02*X153097Y152107D01*
X152597Y150607D02*Y151607D01*
X153097Y150107D02*X152597Y150607D01*
X154797D02*Y151607D01*
X155297Y152107D02*X156097D01*
X153097D02*X154297D01*
X154797Y151607D01*
X155297Y152107D02*X154797Y151607D01*
X157016Y112659D02*Y114659D01*
X156516Y115159D01*
X155516D02*X156516D01*
X155016Y114659D02*X155516Y115159D01*
X155016Y113159D02*Y114659D01*
X153016Y113159D02*X157016D01*
X155016Y113959D02*X153016Y115159D01*
X156516Y116359D02*X157016Y116859D01*
Y118359D01*
X156516Y118859D01*
X155516D02*X156516D01*
X153016Y116359D02*X155516Y118859D01*
X153016Y116359D02*Y118859D01*
Y120559D02*X157016Y122559D01*
Y120059D02*Y122559D01*
X118613Y143036D02*Y145036D01*
X118113Y145536D01*
X117113D02*X118113D01*
X116613Y145036D02*X117113Y145536D01*
X116613Y143536D02*Y145036D01*
X114613Y143536D02*X118613D01*
X116613Y144336D02*X114613Y145536D01*
X117813Y146736D02*X118613Y147536D01*
X114613D02*X118613D01*
X114613Y146736D02*Y148236D01*
X118613Y149436D02*Y151436D01*
X116613Y149436D02*X118613D01*
X116613D02*X117113Y149936D01*
Y150936D01*
X116613Y151436D01*
X115113D02*X116613D01*
X114613Y150936D02*X115113Y151436D01*
X114613Y149936D02*Y150936D01*
X115113Y149436D02*X114613Y149936D01*
X119248Y113637D02*Y115637D01*
X118748Y116137D01*
X117748D02*X118748D01*
X117248Y115637D02*X117748Y116137D01*
X117248Y114137D02*Y115637D01*
X115248Y114137D02*X119248D01*
X117248Y114937D02*X115248Y116137D01*
X118448Y117337D02*X119248Y118137D01*
X115248D02*X119248D01*
X115248Y117337D02*Y118837D01*
X118748Y120037D02*X119248Y120537D01*
Y122037D01*
X118748Y122537D01*
X117748D02*X118748D01*
X115248Y120037D02*X117748Y122537D01*
X115248Y120037D02*Y122537D01*
X50700Y180600D02*Y183600D01*
Y180600D02*X51200Y180100D01*
X52200D01*
X52700Y180600D01*
Y183100D01*
X51700Y184100D02*X52700Y183100D01*
X51200Y184100D02*X51700D01*
X50700Y183600D02*X51200Y184100D01*
X51700Y182600D02*X52700Y184100D01*
X53900Y180100D02*X55900D01*
X53900D02*Y182100D01*
X54400Y181600D01*
X55400D01*
X55900Y182100D01*
Y183600D01*
X55400Y184100D02*X55900Y183600D01*
X54400Y184100D02*X55400D01*
X53900Y183600D02*X54400Y184100D01*
X50700Y150600D02*Y153600D01*
Y150600D02*X51200Y150100D01*
X52200D01*
X52700Y150600D01*
Y153100D01*
X51700Y154100D02*X52700Y153100D01*
X51200Y154100D02*X51700D01*
X50700Y153600D02*X51200Y154100D01*
X51700Y152600D02*X52700Y154100D01*
X53900Y152600D02*X55900Y150100D01*
X53900Y152600D02*X56400D01*
X55900Y150100D02*Y154100D01*
X50700Y120600D02*Y123600D01*
Y120600D02*X51200Y120100D01*
X52200D01*
X52700Y120600D01*
Y123100D01*
X51700Y124100D02*X52700Y123100D01*
X51200Y124100D02*X51700D01*
X50700Y123600D02*X51200Y124100D01*
X51700Y122600D02*X52700Y124100D01*
X53900Y120600D02*X54400Y120100D01*
X55900D01*
X56400Y120600D01*
Y121600D01*
X53900Y124100D02*X56400Y121600D01*
X53900Y124100D02*X56400D01*
X50700Y90600D02*Y93600D01*
Y90600D02*X51200Y90100D01*
X52200D01*
X52700Y90600D01*
Y93100D01*
X51700Y94100D02*X52700Y93100D01*
X51200Y94100D02*X51700D01*
X50700Y93600D02*X51200Y94100D01*
X51700Y92600D02*X52700Y94100D01*
X53900Y90900D02*X54700Y90100D01*
Y94100D01*
X53900D02*X55400D01*
M02*
