G04 start of page 12 for group 0 layer_idx 13 *
G04 Title: liplight-art, top_paste *
G04 Creator: pcb-rnd 2.0.0 *
G04 CreationDate: 2018-08-21 02:54:24 UTC *
G04 For:  *
G04 Format: Gerber/RS-274X *
G04 PCB-Dimensions: 636000 660500 *
G04 PCB-Coordinate-Origin: lower left *
%MOIN*%
%FSLAX25Y25*%
%LNTOPPASTE*%
%ADD58C,0.0001*%
G54D58*G36*
X191764Y102964D02*Y100602D01*
X198260D01*
Y102964D01*
X191764D01*
G37*
G36*
Y106901D02*Y104539D01*
X198260D01*
Y106901D01*
X191764D01*
G37*
G36*
Y110838D02*Y108476D01*
X198260D01*
Y110838D01*
X191764D01*
G37*
G36*
Y114775D02*Y112413D01*
X198260D01*
Y114775D01*
X191764D01*
G37*
G36*
Y118712D02*Y116350D01*
X198260D01*
Y118712D01*
X191764D01*
G37*
G36*
Y122650D02*Y120288D01*
X198260D01*
Y122650D01*
X191764D01*
G37*
G36*
Y126587D02*Y124225D01*
X198260D01*
Y126587D01*
X191764D01*
G37*
G36*
Y130524D02*Y128162D01*
X198260D01*
Y130524D01*
X191764D01*
G37*
G36*
Y134461D02*Y132099D01*
X198260D01*
Y134461D01*
X191764D01*
G37*
G36*
Y138398D02*Y136036D01*
X198260D01*
Y138398D01*
X191764D01*
G37*
G36*
X295134Y102964D02*Y100602D01*
X301630D01*
Y102964D01*
X295134D01*
G37*
G36*
Y106901D02*Y104539D01*
X301630D01*
Y106901D01*
X295134D01*
G37*
G36*
Y110838D02*Y108476D01*
X301630D01*
Y110838D01*
X295134D01*
G37*
G36*
Y114775D02*Y112413D01*
X301630D01*
Y114775D01*
X295134D01*
G37*
G36*
Y118712D02*Y116350D01*
X301630D01*
Y118712D01*
X295134D01*
G37*
G36*
Y122650D02*Y120288D01*
X301630D01*
Y122650D01*
X295134D01*
G37*
G36*
Y126587D02*Y124225D01*
X301630D01*
Y126587D01*
X295134D01*
G37*
G36*
X280764Y102964D02*Y100602D01*
X287260D01*
Y102964D01*
X280764D01*
G37*
G36*
Y106901D02*Y104539D01*
X287260D01*
Y106901D01*
X280764D01*
G37*
G36*
Y110838D02*Y108476D01*
X287260D01*
Y110838D01*
X280764D01*
G37*
G36*
Y114775D02*Y112413D01*
X287260D01*
Y114775D01*
X280764D01*
G37*
G36*
Y118712D02*Y116350D01*
X287260D01*
Y118712D01*
X280764D01*
G37*
G36*
Y122650D02*Y120288D01*
X287260D01*
Y122650D01*
X280764D01*
G37*
G36*
Y126587D02*Y124225D01*
X287260D01*
Y126587D01*
X280764D01*
G37*
G36*
Y130524D02*Y128162D01*
X287260D01*
Y130524D01*
X280764D01*
G37*
G36*
Y134461D02*Y132099D01*
X287260D01*
Y134461D01*
X280764D01*
G37*
G36*
Y138398D02*Y136036D01*
X287260D01*
Y138398D01*
X280764D01*
G37*
G36*
X295134Y130524D02*Y128162D01*
X301630D01*
Y130524D01*
X295134D01*
G37*
G36*
Y134461D02*Y132099D01*
X301630D01*
Y134461D01*
X295134D01*
G37*
G36*
Y138398D02*Y136036D01*
X301630D01*
Y138398D01*
X295134D01*
G37*
G36*
X237764Y130524D02*Y128162D01*
X244260D01*
Y130524D01*
X237764D01*
G37*
G36*
Y134461D02*Y132099D01*
X244260D01*
Y134461D01*
X237764D01*
G37*
G36*
Y138398D02*Y136036D01*
X244260D01*
Y138398D01*
X237764D01*
G37*
G36*
X252134Y130524D02*Y128162D01*
X258630D01*
Y130524D01*
X252134D01*
G37*
G36*
Y134461D02*Y132099D01*
X258630D01*
Y134461D01*
X252134D01*
G37*
G36*
Y138398D02*Y136036D01*
X258630D01*
Y138398D01*
X252134D01*
G37*
G36*
X206134Y102964D02*Y100602D01*
X212630D01*
Y102964D01*
X206134D01*
G37*
G36*
Y106901D02*Y104539D01*
X212630D01*
Y106901D01*
X206134D01*
G37*
G36*
Y110838D02*Y108476D01*
X212630D01*
Y110838D01*
X206134D01*
G37*
G36*
Y114775D02*Y112413D01*
X212630D01*
Y114775D01*
X206134D01*
G37*
G36*
X237764D02*Y112413D01*
X244260D01*
Y114775D01*
X237764D01*
G37*
G36*
Y118712D02*Y116350D01*
X244260D01*
Y118712D01*
X237764D01*
G37*
G36*
Y122650D02*Y120288D01*
X244260D01*
Y122650D01*
X237764D01*
G37*
G36*
Y126587D02*Y124225D01*
X244260D01*
Y126587D01*
X237764D01*
G37*
G36*
Y102964D02*Y100602D01*
X244260D01*
Y102964D01*
X237764D01*
G37*
G36*
Y106901D02*Y104539D01*
X244260D01*
Y106901D01*
X237764D01*
G37*
G36*
Y110838D02*Y108476D01*
X244260D01*
Y110838D01*
X237764D01*
G37*
G36*
X252134Y102964D02*Y100602D01*
X258630D01*
Y102964D01*
X252134D01*
G37*
G36*
Y106901D02*Y104539D01*
X258630D01*
Y106901D01*
X252134D01*
G37*
G36*
Y110838D02*Y108476D01*
X258630D01*
Y110838D01*
X252134D01*
G37*
G36*
Y114775D02*Y112413D01*
X258630D01*
Y114775D01*
X252134D01*
G37*
G36*
Y118712D02*Y116350D01*
X258630D01*
Y118712D01*
X252134D01*
G37*
G36*
Y122650D02*Y120288D01*
X258630D01*
Y122650D01*
X252134D01*
G37*
G36*
Y126587D02*Y124225D01*
X258630D01*
Y126587D01*
X252134D01*
G37*
G36*
X206134Y118712D02*Y116350D01*
X212630D01*
Y118712D01*
X206134D01*
G37*
G36*
Y122650D02*Y120288D01*
X212630D01*
Y122650D01*
X206134D01*
G37*
G36*
Y126587D02*Y124225D01*
X212630D01*
Y126587D01*
X206134D01*
G37*
G36*
Y130524D02*Y128162D01*
X212630D01*
Y130524D01*
X206134D01*
G37*
G36*
Y134461D02*Y132099D01*
X212630D01*
Y134461D01*
X206134D01*
G37*
G36*
Y138398D02*Y136036D01*
X212630D01*
Y138398D01*
X206134D01*
G37*
M02*
