G04 start of page 14 for group -1 layer_idx 16777221 *
G04 Title: liplight-art, <virtual group> *
G04 Creator: pcb-rnd 2.0.0 *
G04 CreationDate: 2018-08-21 02:54:24 UTC *
G04 For:  *
G04 Format: Gerber/RS-274X *
G04 PCB-Dimensions: 636000 660500 *
G04 PCB-Coordinate-Origin: lower left *
%MOIN*%
%FSLAX25Y25*%
%LNFAB*%
%ADD63C,0.0100*%
%ADD62C,0.0075*%
%ADD61C,0.0060*%
%ADD60C,0.0080*%
G54D60*X89623Y419676D02*X92023Y417276D01*
X89623D02*X92023Y419676D01*
X401552Y422944D02*X403952Y420544D01*
X401552D02*X403952Y422944D01*
X175607Y108023D02*X178007Y105623D01*
X175607D02*X178007Y108023D01*
X315607D02*X318007Y105623D01*
X315607D02*X318007Y108023D01*
X13800Y687950D02*X16200Y685550D01*
X13800D02*X16200Y687950D01*
G54D61*X135000Y689000D02*X136500Y686000D01*
X138000Y689000D01*
X136500Y686000D02*Y683000D01*
X139800Y686300D02*X142050D01*
X139800Y683000D02*X142800D01*
X139800Y689000D02*Y683000D01*
Y689000D02*X142800D01*
X147600D02*X148350Y688250D01*
X145350Y689000D02*X147600D01*
X144600Y688250D02*X145350Y689000D01*
X144600Y688250D02*Y686750D01*
X145350Y686000D01*
X147600D01*
X148350Y685250D01*
Y683750D01*
X147600Y683000D02*X148350Y683750D01*
X145350Y683000D02*X147600D01*
X144600Y683750D02*X145350Y683000D01*
X98000Y685250D02*X101000Y689000D01*
X98000Y685250D02*X101750D01*
X101000Y689000D02*Y683000D01*
X45000Y688250D02*X45750Y689000D01*
X48000D01*
X48750Y688250D01*
Y686750D01*
X45000Y683000D02*X48750Y686750D01*
X45000Y683000D02*X48750D01*
X50550D02*X51300D01*
X53100Y689000D02*X56100D01*
X53100D02*Y686000D01*
X53850Y686750D01*
X55350D01*
X56100Y686000D01*
Y683750D01*
X55350Y683000D02*X56100Y683750D01*
X53850Y683000D02*X55350D01*
X53100Y683750D02*X53850Y683000D01*
X57900Y687800D02*X59100Y689000D01*
Y683000D01*
X57900D02*X60150D01*
X78854Y403620D02*Y400420D01*
X77254Y402020D02*X80454D01*
X68854Y403620D02*Y400420D01*
X67254Y402020D02*X70454D01*
X150823Y433541D02*Y430341D01*
X149223Y431941D02*X152423D01*
X140823Y433541D02*Y430341D01*
X139223Y431941D02*X142423D01*
X114838Y403620D02*Y400420D01*
X113238Y402020D02*X116438D01*
X104838Y403620D02*Y400420D01*
X103238Y402020D02*X106438D01*
X150823Y403620D02*Y400420D01*
X149223Y402020D02*X152423D01*
X140823Y403620D02*Y400420D01*
X139223Y402020D02*X142423D01*
X78854Y433541D02*Y430341D01*
X77254Y431941D02*X80454D01*
X114838Y433541D02*Y430341D01*
X113238Y431941D02*X116438D01*
X104838Y433541D02*Y430341D01*
X103238Y431941D02*X106438D01*
X68854Y433541D02*Y430341D01*
X67254Y431941D02*X70454D01*
X388775Y433541D02*Y430341D01*
X387175Y431941D02*X390375D01*
X378775Y433541D02*Y430341D01*
X377175Y431941D02*X380375D01*
X388775Y403620D02*Y400420D01*
X387175Y402020D02*X390375D01*
X378775Y403620D02*Y400420D01*
X377175Y402020D02*X380375D01*
X424760Y433541D02*Y430341D01*
X423160Y431941D02*X426360D01*
X424760Y403620D02*Y400420D01*
X423160Y402020D02*X426360D01*
X424760Y373698D02*Y370498D01*
X423160Y372098D02*X426360D01*
X414760Y433541D02*Y430341D01*
X413160Y431941D02*X416360D01*
X414760Y403620D02*Y400420D01*
X413160Y402020D02*X416360D01*
X414760Y373698D02*Y370498D01*
X413160Y372098D02*X416360D01*
X352791Y373698D02*Y370498D01*
X351191Y372098D02*X354391D01*
X388775Y373698D02*Y370498D01*
X387175Y372098D02*X390375D01*
X378775Y373698D02*Y370498D01*
X377175Y372098D02*X380375D01*
X342791Y373698D02*Y370498D01*
X341191Y372098D02*X344391D01*
X342791Y403620D02*Y400420D01*
X341191Y402020D02*X344391D01*
X352791Y433541D02*Y430341D01*
X351191Y431941D02*X354391D01*
X342791Y433541D02*Y430341D01*
X341191Y431941D02*X344391D01*
X352791Y403620D02*Y400420D01*
X351191Y402020D02*X354391D01*
X176807Y74407D02*Y71207D01*
X175207Y72807D02*X178407D01*
X166807Y74407D02*Y71207D01*
X165207Y72807D02*X168407D01*
X196807Y74407D02*Y71207D01*
X195207Y72807D02*X198407D01*
X352791Y104407D02*Y101207D01*
X351191Y102807D02*X354391D01*
X342791Y104407D02*Y101207D01*
X341191Y102807D02*X344391D01*
X326807Y74407D02*Y71207D01*
X325207Y72807D02*X328407D01*
X316807Y74407D02*Y71207D01*
X315207Y72807D02*X318407D01*
X356807Y74407D02*Y71207D01*
X355207Y72807D02*X358407D01*
X346807Y74407D02*Y71207D01*
X345207Y72807D02*X348407D01*
X406807Y74407D02*Y71207D01*
X405207Y72807D02*X408407D01*
X386807Y74407D02*Y71207D01*
X385207Y72807D02*X388407D01*
X376807Y74407D02*Y71207D01*
X375207Y72807D02*X378407D01*
X416807Y74407D02*Y71207D01*
X415207Y72807D02*X418407D01*
X446807Y74407D02*Y71207D01*
X445207Y72807D02*X448407D01*
X436807Y74407D02*Y71207D01*
X435207Y72807D02*X438407D01*
X424760Y104407D02*Y101207D01*
X423160Y102807D02*X426360D01*
X414760Y104407D02*Y101207D01*
X413160Y102807D02*X416360D01*
X388775Y104407D02*Y101207D01*
X387175Y102807D02*X390375D01*
X378775Y104407D02*Y101207D01*
X377175Y102807D02*X380375D01*
X296807Y74407D02*Y71207D01*
X295207Y72807D02*X298407D01*
X286807Y74407D02*Y71207D01*
X285207Y72807D02*X288407D01*
X114838Y134328D02*Y131128D01*
X113238Y132728D02*X116438D01*
X104838Y134328D02*Y131128D01*
X103238Y132728D02*X106438D01*
X150823Y134328D02*Y131128D01*
X149223Y132728D02*X152423D01*
X140823Y134328D02*Y131128D01*
X139223Y132728D02*X142423D01*
X150823Y104407D02*Y101207D01*
X149223Y102807D02*X152423D01*
X140823Y104407D02*Y101207D01*
X139223Y102807D02*X142423D01*
X114838Y104407D02*Y101207D01*
X113238Y102807D02*X116438D01*
X116807Y74407D02*Y71207D01*
X115207Y72807D02*X118407D01*
X106807Y74407D02*Y71207D01*
X105207Y72807D02*X108407D01*
X146807Y74407D02*Y71207D01*
X145207Y72807D02*X148407D01*
X136807Y74407D02*Y71207D01*
X135207Y72807D02*X138407D01*
X104838Y104407D02*Y101207D01*
X103238Y102807D02*X106438D01*
X150823Y164250D02*Y161050D01*
X149223Y162650D02*X152423D01*
X140823Y164250D02*Y161050D01*
X139223Y162650D02*X142423D01*
X114838Y164250D02*Y161050D01*
X113238Y162650D02*X116438D01*
X104838Y164250D02*Y161050D01*
X103238Y162650D02*X106438D01*
X352791Y164250D02*Y161050D01*
X351191Y162650D02*X354391D01*
X342791Y164250D02*Y161050D01*
X341191Y162650D02*X344391D01*
X352791Y194171D02*Y190971D01*
X351191Y192571D02*X354391D01*
X388775Y194171D02*Y190971D01*
X387175Y192571D02*X390375D01*
X378775Y194171D02*Y190971D01*
X377175Y192571D02*X380375D01*
X414760Y194171D02*Y190971D01*
X413160Y192571D02*X416360D01*
X342791Y194171D02*Y190971D01*
X341191Y192571D02*X344391D01*
X424760Y164250D02*Y161050D01*
X423160Y162650D02*X426360D01*
X424760Y194171D02*Y190971D01*
X423160Y192571D02*X426360D01*
X388775Y164250D02*Y161050D01*
X387175Y162650D02*X390375D01*
X378775Y164250D02*Y161050D01*
X377175Y162650D02*X380375D01*
X414760Y164250D02*Y161050D01*
X413160Y162650D02*X416360D01*
X352791Y134328D02*Y131128D01*
X351191Y132728D02*X354391D01*
X342791Y134328D02*Y131128D01*
X341191Y132728D02*X344391D01*
X424760Y134328D02*Y131128D01*
X423160Y132728D02*X426360D01*
X414760Y134328D02*Y131128D01*
X413160Y132728D02*X416360D01*
X388775Y134328D02*Y131128D01*
X387175Y132728D02*X390375D01*
X378775Y134328D02*Y131128D01*
X377175Y132728D02*X380375D01*
X236807Y74407D02*Y71207D01*
X235207Y72807D02*X238407D01*
X226807Y74407D02*Y71207D01*
X225207Y72807D02*X228407D01*
X266807Y74407D02*Y71207D01*
X265207Y72807D02*X268407D01*
X256807Y74407D02*Y71207D01*
X255207Y72807D02*X258407D01*
X206807Y74407D02*Y71207D01*
X205207Y72807D02*X208407D01*
X78854Y373698D02*Y370498D01*
X77254Y372098D02*X80454D01*
X68854Y373698D02*Y370498D01*
X67254Y372098D02*X70454D01*
X78854Y343777D02*Y340577D01*
X77254Y342177D02*X80454D01*
X68854Y343777D02*Y340577D01*
X67254Y342177D02*X70454D01*
X114838Y343777D02*Y340577D01*
X113238Y342177D02*X116438D01*
X104838Y343777D02*Y340577D01*
X103238Y342177D02*X106438D01*
X114838Y373698D02*Y370498D01*
X113238Y372098D02*X116438D01*
X150823Y373698D02*Y370498D01*
X149223Y372098D02*X152423D01*
X140823Y373698D02*Y370498D01*
X139223Y372098D02*X142423D01*
X104838Y373698D02*Y370498D01*
X103238Y372098D02*X106438D01*
X78854Y283935D02*Y280735D01*
X77254Y282335D02*X80454D01*
X68854Y283935D02*Y280735D01*
X67254Y282335D02*X70454D01*
X78854Y313856D02*Y310656D01*
X77254Y312256D02*X80454D01*
X68854Y313856D02*Y310656D01*
X67254Y312256D02*X70454D01*
X78854Y254013D02*Y250813D01*
X77254Y252413D02*X80454D01*
X68854Y254013D02*Y250813D01*
X67254Y252413D02*X70454D01*
X150823Y343777D02*Y340577D01*
X149223Y342177D02*X152423D01*
X140823Y343777D02*Y340577D01*
X139223Y342177D02*X142423D01*
X114838Y254013D02*Y250813D01*
X113238Y252413D02*X116438D01*
X104838Y254013D02*Y250813D01*
X103238Y252413D02*X106438D01*
X150823Y254013D02*Y250813D01*
X149223Y252413D02*X152423D01*
X140823Y254013D02*Y250813D01*
X139223Y252413D02*X142423D01*
X114838Y283935D02*Y280735D01*
X113238Y282335D02*X116438D01*
X150823Y283935D02*Y280735D01*
X149223Y282335D02*X152423D01*
X140823Y283935D02*Y280735D01*
X139223Y282335D02*X142423D01*
X104838Y283935D02*Y280735D01*
X103238Y282335D02*X106438D01*
X114838Y313856D02*Y310656D01*
X113238Y312256D02*X116438D01*
X104838Y313856D02*Y310656D01*
X103238Y312256D02*X106438D01*
X150823Y313856D02*Y310656D01*
X149223Y312256D02*X152423D01*
X140823Y313856D02*Y310656D01*
X139223Y312256D02*X142423D01*
X388775Y224092D02*Y220892D01*
X387175Y222492D02*X390375D01*
X378775Y224092D02*Y220892D01*
X377175Y222492D02*X380375D01*
X424760Y224092D02*Y220892D01*
X423160Y222492D02*X426360D01*
X414760Y224092D02*Y220892D01*
X413160Y222492D02*X416360D01*
X424760Y254013D02*Y250813D01*
X423160Y252413D02*X426360D01*
X414760Y254013D02*Y250813D01*
X413160Y252413D02*X416360D01*
X388775Y254013D02*Y250813D01*
X387175Y252413D02*X390375D01*
X378775Y254013D02*Y250813D01*
X377175Y252413D02*X380375D01*
X342791Y313856D02*Y310656D01*
X341191Y312256D02*X344391D01*
X342791Y254013D02*Y250813D01*
X341191Y252413D02*X344391D01*
X342791Y283935D02*Y280735D01*
X341191Y282335D02*X344391D01*
X352791Y224092D02*Y220892D01*
X351191Y222492D02*X354391D01*
X342791Y224092D02*Y220892D01*
X341191Y222492D02*X344391D01*
X352791Y254013D02*Y250813D01*
X351191Y252413D02*X354391D01*
X342791Y343777D02*Y340577D01*
X341191Y342177D02*X344391D01*
X352791Y343777D02*Y340577D01*
X351191Y342177D02*X354391D01*
X352791Y283935D02*Y280735D01*
X351191Y282335D02*X354391D01*
X352791Y313856D02*Y310656D01*
X351191Y312256D02*X354391D01*
X424760Y343777D02*Y340577D01*
X423160Y342177D02*X426360D01*
X414760Y343777D02*Y340577D01*
X413160Y342177D02*X416360D01*
X424760Y313856D02*Y310656D01*
X423160Y312256D02*X426360D01*
X414760Y313856D02*Y310656D01*
X413160Y312256D02*X416360D01*
X388775Y313856D02*Y310656D01*
X387175Y312256D02*X390375D01*
X378775Y313856D02*Y310656D01*
X377175Y312256D02*X380375D01*
X388775Y343777D02*Y340577D01*
X387175Y342177D02*X390375D01*
X378775Y343777D02*Y340577D01*
X377175Y342177D02*X380375D01*
X424760Y283935D02*Y280735D01*
X423160Y282335D02*X426360D01*
X414760Y283935D02*Y280735D01*
X413160Y282335D02*X416360D01*
X388775Y283935D02*Y280735D01*
X387175Y282335D02*X390375D01*
X378775Y283935D02*Y280735D01*
X377175Y282335D02*X380375D01*
X78854Y224092D02*Y220892D01*
X77254Y222492D02*X80454D01*
X68854Y224092D02*Y220892D01*
X67254Y222492D02*X70454D01*
X114838Y224092D02*Y220892D01*
X113238Y222492D02*X116438D01*
X104838Y224092D02*Y220892D01*
X103238Y222492D02*X106438D01*
X114838Y194171D02*Y190971D01*
X113238Y192571D02*X116438D01*
X104838Y194171D02*Y190971D01*
X103238Y192571D02*X106438D01*
X78854Y194171D02*Y190971D01*
X77254Y192571D02*X80454D01*
X68854Y194171D02*Y190971D01*
X67254Y192571D02*X70454D01*
X150823Y194171D02*Y190971D01*
X149223Y192571D02*X152423D01*
X140823Y194171D02*Y190971D01*
X139223Y192571D02*X142423D01*
X150823Y224092D02*Y220892D01*
X149223Y222492D02*X152423D01*
X140823Y224092D02*Y220892D01*
X139223Y222492D02*X142423D01*
X78854Y164250D02*Y161050D01*
X77254Y162650D02*X80454D01*
X68854Y164250D02*Y161050D01*
X67254Y162650D02*X70454D01*
X78854Y134328D02*Y131128D01*
X77254Y132728D02*X80454D01*
X68854Y134328D02*Y131128D01*
X67254Y132728D02*X70454D01*
X78854Y104407D02*Y101207D01*
X77254Y102807D02*X80454D01*
X68854Y104407D02*Y101207D01*
X67254Y102807D02*X70454D01*
X56807Y74407D02*Y71207D01*
X55207Y72807D02*X58407D01*
X46807Y74407D02*Y71207D01*
X45207Y72807D02*X48407D01*
X86807Y74407D02*Y71207D01*
X85207Y72807D02*X88407D01*
X76807Y74407D02*Y71207D01*
X75207Y72807D02*X78407D01*
X15000Y703350D02*Y700150D01*
X13400Y701750D02*X16600D01*
X135000Y704000D02*X136500Y701000D01*
X138000Y704000D01*
X136500Y701000D02*Y698000D01*
X139800Y701300D02*X142050D01*
X139800Y698000D02*X142800D01*
X139800Y704000D02*Y698000D01*
Y704000D02*X142800D01*
X147600D02*X148350Y703250D01*
X145350Y704000D02*X147600D01*
X144600Y703250D02*X145350Y704000D01*
X144600Y703250D02*Y701750D01*
X145350Y701000D01*
X147600D01*
X148350Y700250D01*
Y698750D01*
X147600Y698000D02*X148350Y698750D01*
X145350Y698000D02*X147600D01*
X144600Y698750D02*X145350Y698000D01*
X98000Y702800D02*X99200Y704000D01*
Y698000D01*
X98000D02*X100250D01*
X102800D02*X105800Y704000D01*
X102050D02*X105800D01*
X107600Y703250D02*X108350Y704000D01*
X110600D01*
X111350Y703250D01*
Y701750D01*
X107600Y698000D02*X111350Y701750D01*
X107600Y698000D02*X111350D01*
X45000Y698750D02*X45750Y698000D01*
X45000Y703250D02*Y698750D01*
Y703250D02*X45750Y704000D01*
X47250D01*
X48000Y703250D01*
Y698750D01*
X47250Y698000D02*X48000Y698750D01*
X45750Y698000D02*X47250D01*
X45000Y699500D02*X48000Y702500D01*
X49800Y698000D02*X50550D01*
X53100D02*X56100Y704000D01*
X52350D02*X56100D01*
X57900Y702800D02*X59100Y704000D01*
Y698000D01*
X57900D02*X60150D01*
X64500Y420500D02*Y418900D01*
Y420500D02*X65887Y421300D01*
X64500Y420500D02*X63113Y421300D01*
X49500Y409500D02*Y407900D01*
Y409500D02*X50887Y410300D01*
X49500Y409500D02*X48113Y410300D01*
X69000Y381000D02*Y379400D01*
Y381000D02*X70387Y381800D01*
X69000Y381000D02*X67613Y381800D01*
X65000Y394291D02*Y392691D01*
Y394291D02*X66387Y395091D01*
X65000Y394291D02*X63613Y395091D01*
X139400Y389900D02*Y388300D01*
Y389900D02*X140787Y390700D01*
X139400Y389900D02*X138013Y390700D01*
X139400Y382100D02*Y380500D01*
Y382100D02*X140787Y382900D01*
X139400Y382100D02*X138013Y382900D01*
X139400Y419900D02*Y418300D01*
Y419900D02*X140787Y420700D01*
X139400Y419900D02*X138013Y420700D01*
X139400Y412100D02*Y410500D01*
Y412100D02*X140787Y412900D01*
X139400Y412100D02*X138013Y412900D01*
X380200Y416100D02*Y414500D01*
Y416100D02*X381587Y416900D01*
X380200Y416100D02*X378813Y416900D01*
X380000Y387500D02*Y385900D01*
Y387500D02*X381387Y388300D01*
X380000Y387500D02*X378613Y388300D01*
X437000Y440500D02*Y438900D01*
Y440500D02*X438387Y441300D01*
X437000Y440500D02*X435613Y441300D01*
X437000Y410500D02*Y408900D01*
Y410500D02*X438387Y411300D01*
X437000Y410500D02*X435613Y411300D01*
X437000Y380500D02*Y378900D01*
Y380500D02*X438387Y381300D01*
X437000Y380500D02*X435613Y381300D01*
X169000Y138500D02*Y136900D01*
Y138500D02*X170387Y139300D01*
X169000Y138500D02*X167613Y139300D01*
X176000Y141500D02*Y139900D01*
Y141500D02*X177387Y142300D01*
X176000Y141500D02*X174613Y142300D01*
X183000Y144500D02*Y142900D01*
Y144500D02*X184387Y145300D01*
X183000Y144500D02*X181613Y145300D01*
X190000Y147500D02*Y145900D01*
Y147500D02*X191387Y148300D01*
X190000Y147500D02*X188613Y148300D01*
X197000Y150500D02*Y148900D01*
Y150500D02*X198387Y151300D01*
X197000Y150500D02*X195613Y151300D01*
X366000Y105500D02*Y103900D01*
Y105500D02*X367387Y106300D01*
X366000Y105500D02*X364613Y106300D01*
X307000Y63500D02*Y61900D01*
Y63500D02*X308387Y64300D01*
X307000Y63500D02*X305613Y64300D01*
X337000Y62500D02*Y60900D01*
Y62500D02*X338387Y63300D01*
X337000Y62500D02*X335613Y63300D01*
X162000Y135500D02*Y133900D01*
Y135500D02*X163387Y136300D01*
X162000Y135500D02*X160613Y136300D01*
X205000Y153500D02*Y151900D01*
Y153500D02*X206387Y154300D01*
X205000Y153500D02*X203613Y154300D01*
X224000Y133500D02*Y131900D01*
Y133500D02*X225387Y134300D01*
X224000Y133500D02*X222613Y134300D01*
X223000Y126500D02*Y124900D01*
Y126500D02*X224387Y127300D01*
X223000Y126500D02*X221613Y127300D01*
X219000Y115500D02*Y113900D01*
Y115500D02*X220387Y116300D01*
X219000Y115500D02*X217613Y116300D01*
X226000Y119500D02*Y117900D01*
Y119500D02*X227387Y120300D01*
X226000Y119500D02*X224613Y120300D01*
X219000Y107500D02*Y105900D01*
Y107500D02*X220387Y108300D01*
X219000Y107500D02*X217613Y108300D01*
X226000Y101500D02*Y99900D01*
Y101500D02*X227387Y102300D01*
X226000Y101500D02*X224613Y102300D01*
X240000Y94500D02*Y92900D01*
Y94500D02*X241387Y95300D01*
X240000Y94500D02*X238613Y95300D01*
X252000Y89500D02*Y87900D01*
Y89500D02*X253387Y90300D01*
X252000Y89500D02*X250613Y90300D01*
X264000Y85500D02*Y83900D01*
Y85500D02*X265387Y86300D01*
X264000Y85500D02*X262613Y86300D01*
X247000Y72500D02*Y70900D01*
Y72500D02*X248387Y73300D01*
X247000Y72500D02*X245613Y73300D01*
X277000Y72500D02*Y70900D01*
Y72500D02*X278387Y73300D01*
X277000Y72500D02*X275613Y73300D01*
X57700Y436700D02*Y435100D01*
Y436700D02*X59087Y437500D01*
X57700Y436700D02*X56313Y437500D01*
X65000Y364370D02*Y362770D01*
Y364370D02*X66387Y365170D01*
X65000Y364370D02*X63613Y365170D01*
X69000Y351000D02*Y349400D01*
Y351000D02*X70387Y351800D01*
X69000Y351000D02*X67613Y351800D01*
X69000Y321000D02*Y319400D01*
Y321000D02*X70387Y321800D01*
X69000Y321000D02*X67613Y321800D01*
X65000Y334449D02*Y332849D01*
Y334449D02*X66387Y335249D01*
X65000Y334449D02*X63613Y335249D01*
X139400Y359400D02*Y357800D01*
Y359400D02*X140787Y360200D01*
X139400Y359400D02*X138013Y360200D01*
X139400Y351600D02*Y350000D01*
Y351600D02*X140787Y352400D01*
X139400Y351600D02*X138013Y352400D01*
X139400Y330400D02*Y328800D01*
Y330400D02*X140787Y331200D01*
X139400Y330400D02*X138013Y331200D01*
X139400Y322600D02*Y321000D01*
Y322600D02*X140787Y323400D01*
X139400Y322600D02*X138013Y323400D01*
X69000Y291000D02*Y289400D01*
Y291000D02*X70387Y291800D01*
X69000Y291000D02*X67613Y291800D01*
X65000Y304528D02*Y302928D01*
Y304528D02*X66387Y305328D01*
X65000Y304528D02*X63613Y305328D01*
X139400Y269900D02*Y268300D01*
Y269900D02*X140787Y270700D01*
X139400Y269900D02*X138013Y270700D01*
X139400Y300400D02*Y298800D01*
Y300400D02*X140787Y301200D01*
X139400Y300400D02*X138013Y301200D01*
X139400Y292600D02*Y291000D01*
Y292600D02*X140787Y293400D01*
X139400Y292600D02*X138013Y293400D01*
X139400Y262100D02*Y260500D01*
Y262100D02*X140787Y262900D01*
X139400Y262100D02*X138013Y262900D01*
X139400Y240400D02*Y238800D01*
Y240400D02*X140787Y241200D01*
X139400Y240400D02*X138013Y241200D01*
X139400Y232600D02*Y231000D01*
Y232600D02*X140787Y233400D01*
X139400Y232600D02*X138013Y233400D01*
X380000Y237500D02*Y235900D01*
Y237500D02*X381387Y238300D01*
X380000Y237500D02*X378613Y238300D01*
X356000Y242500D02*Y240900D01*
Y242500D02*X357387Y243300D01*
X356000Y242500D02*X354613Y243300D01*
X356000Y332500D02*Y330900D01*
Y332500D02*X357387Y333300D01*
X356000Y332500D02*X354613Y333300D01*
X356000Y362000D02*Y360400D01*
Y362000D02*X357387Y362800D01*
X356000Y362000D02*X354613Y362800D01*
X356000Y272500D02*Y270900D01*
Y272500D02*X357387Y273300D01*
X356000Y272500D02*X354613Y273300D01*
X356000Y302000D02*Y300400D01*
Y302000D02*X357387Y302800D01*
X356000Y302000D02*X354613Y302800D01*
X380000Y327500D02*Y325900D01*
Y327500D02*X381387Y328300D01*
X380000Y327500D02*X378613Y328300D01*
X380000Y357000D02*Y355400D01*
Y357000D02*X381387Y357800D01*
X380000Y357000D02*X378613Y357800D01*
X437000Y352500D02*Y350900D01*
Y352500D02*X438387Y353300D01*
X437000Y352500D02*X435613Y353300D01*
X437000Y323500D02*Y321900D01*
Y323500D02*X438387Y324300D01*
X437000Y323500D02*X435613Y324300D01*
X437000Y294500D02*Y292900D01*
Y294500D02*X438387Y295300D01*
X437000Y294500D02*X435613Y295300D01*
X380000Y297000D02*Y295400D01*
Y297000D02*X381387Y297800D01*
X380000Y297000D02*X378613Y297800D01*
X380000Y267500D02*Y265900D01*
Y267500D02*X381387Y268300D01*
X380000Y267500D02*X378613Y268300D01*
X69000Y261500D02*Y259900D01*
Y261500D02*X70387Y262300D01*
X69000Y261500D02*X67613Y262300D01*
X69000Y231500D02*Y229900D01*
Y231500D02*X70387Y232300D01*
X69000Y231500D02*X67613Y232300D01*
X69000Y201500D02*Y199900D01*
Y201500D02*X70387Y202300D01*
X69000Y201500D02*X67613Y202300D01*
X69000Y171500D02*Y169900D01*
Y171500D02*X70387Y172300D01*
X69000Y171500D02*X67613Y172300D01*
X65000Y155000D02*Y153400D01*
Y155000D02*X66387Y155800D01*
X65000Y155000D02*X63613Y155800D01*
X69000Y141500D02*Y139900D01*
Y141500D02*X70387Y142300D01*
X69000Y141500D02*X67613Y142300D01*
X65000Y125000D02*Y123400D01*
Y125000D02*X66387Y125800D01*
X65000Y125000D02*X63613Y125800D01*
X65000Y184921D02*Y183321D01*
Y184921D02*X66387Y185721D01*
X65000Y184921D02*X63613Y185721D01*
X69000Y111500D02*Y109900D01*
Y111500D02*X70387Y112300D01*
X69000Y111500D02*X67613Y112300D01*
X65000Y95000D02*Y93400D01*
Y95000D02*X66387Y95800D01*
X65000Y95000D02*X63613Y95800D01*
X65000Y274606D02*Y273006D01*
Y274606D02*X66387Y275406D01*
X65000Y274606D02*X63613Y275406D01*
X65000Y214764D02*Y213164D01*
Y214764D02*X66387Y215564D01*
X65000Y214764D02*X63613Y215564D01*
X65000Y244685D02*Y243085D01*
Y244685D02*X66387Y245485D01*
X65000Y244685D02*X63613Y245485D01*
X15000Y716750D02*Y715150D01*
Y716750D02*X16387Y717550D01*
X15000Y716750D02*X13613Y717550D01*
X135000Y719000D02*X136500Y716000D01*
X138000Y719000D01*
X136500Y716000D02*Y713000D01*
X139800Y716300D02*X142050D01*
X139800Y713000D02*X142800D01*
X139800Y719000D02*Y713000D01*
Y719000D02*X142800D01*
X147600D02*X148350Y718250D01*
X145350Y719000D02*X147600D01*
X144600Y718250D02*X145350Y719000D01*
X144600Y718250D02*Y716750D01*
X145350Y716000D01*
X147600D01*
X148350Y715250D01*
Y713750D01*
X147600Y713000D02*X148350Y713750D01*
X145350Y713000D02*X147600D01*
X144600Y713750D02*X145350Y713000D01*
X98750D02*X101750Y719000D01*
X98000D02*X101750D01*
X104300Y713000D02*X107300Y719000D01*
X103550D02*X107300D01*
X45000Y713750D02*X45750Y713000D01*
X45000Y718250D02*Y713750D01*
Y718250D02*X45750Y719000D01*
X47250D01*
X48000Y718250D01*
Y713750D01*
X47250Y713000D02*X48000Y713750D01*
X45750Y713000D02*X47250D01*
X45000Y714500D02*X48000Y717500D01*
X49800Y713000D02*X50550D01*
X54600Y719000D02*X55350Y718250D01*
X53100Y719000D02*X54600D01*
X52350Y718250D02*X53100Y719000D01*
X52350Y718250D02*Y713750D01*
X53100Y713000D01*
X54600Y716300D02*X55350Y715550D01*
X52350Y716300D02*X54600D01*
X53100Y713000D02*X54600D01*
X55350Y713750D01*
Y715550D02*Y713750D01*
X57150Y719000D02*X60150D01*
X57150D02*Y716000D01*
X57900Y716750D01*
X59400D01*
X60150Y716000D01*
Y713750D01*
X59400Y713000D02*X60150Y713750D01*
X57900Y713000D02*X59400D01*
X57150Y713750D02*X57900Y713000D01*
X3000Y734000D02*X3750Y733250D01*
X750Y734000D02*X3000D01*
X0Y733250D02*X750Y734000D01*
X0Y733250D02*Y731750D01*
X750Y731000D01*
X3000D01*
X3750Y730250D01*
Y728750D01*
X3000Y728000D02*X3750Y728750D01*
X750Y728000D02*X3000D01*
X0Y728750D02*X750Y728000D01*
X5550Y731000D02*Y728750D01*
X6300Y728000D01*
X8550Y731000D02*Y726500D01*
X7800Y725750D02*X8550Y726500D01*
X6300Y725750D02*X7800D01*
X5550Y726500D02*X6300Y725750D01*
Y728000D02*X7800D01*
X8550Y728750D01*
X11100Y730250D02*Y728000D01*
Y730250D02*X11850Y731000D01*
X12600D01*
X13350Y730250D01*
Y728000D01*
Y730250D02*X14100Y731000D01*
X14850D01*
X15600Y730250D01*
Y728000D01*
X10350Y731000D02*X11100Y730250D01*
X17400Y734000D02*Y728000D01*
Y728750D02*X18150Y728000D01*
X19650D01*
X20400Y728750D01*
Y730250D02*Y728750D01*
X19650Y731000D02*X20400Y730250D01*
X18150Y731000D02*X19650D01*
X17400Y730250D02*X18150Y731000D01*
X22200Y730250D02*Y728750D01*
Y730250D02*X22950Y731000D01*
X24450D01*
X25200Y730250D01*
Y728750D01*
X24450Y728000D02*X25200Y728750D01*
X22950Y728000D02*X24450D01*
X22200Y728750D02*X22950Y728000D01*
X27000Y734000D02*Y728750D01*
X27750Y728000D01*
X0Y724750D02*X29250D01*
X41750Y734000D02*Y728000D01*
X43700Y734000D02*X44750Y732950D01*
Y729050D01*
X43700Y728000D02*X44750Y729050D01*
X41000Y728000D02*X43700D01*
X41000Y734000D02*X43700D01*
G54D62*X46550Y732500D02*Y732350D01*
G54D61*Y730250D02*Y728000D01*
X50300Y731000D02*X51050Y730250D01*
X48800Y731000D02*X50300D01*
X48050Y730250D02*X48800Y731000D01*
X48050Y730250D02*Y728750D01*
X48800Y728000D01*
X51050Y731000D02*Y728750D01*
X51800Y728000D01*
X48800D02*X50300D01*
X51050Y728750D01*
X54350Y730250D02*Y728000D01*
Y730250D02*X55100Y731000D01*
X55850D01*
X56600Y730250D01*
Y728000D01*
Y730250D02*X57350Y731000D01*
X58100D01*
X58850Y730250D01*
Y728000D01*
X53600Y731000D02*X54350Y730250D01*
X60650Y728000D02*X61400D01*
X65900Y728750D02*X66650Y728000D01*
X65900Y733250D02*X66650Y734000D01*
X65900Y733250D02*Y728750D01*
X69200Y730250D02*Y728000D01*
Y730250D02*X69950Y731000D01*
X70700D01*
X71450Y730250D01*
Y728000D01*
Y730250D02*X72200Y731000D01*
X72950D01*
X73700Y730250D01*
Y728000D01*
X68450Y731000D02*X69200Y730250D01*
X76250D02*Y728000D01*
Y730250D02*X77000Y731000D01*
X77750D01*
X78500Y730250D01*
Y728000D01*
Y730250D02*X79250Y731000D01*
X80000D01*
X80750Y730250D01*
Y728000D01*
X75500Y731000D02*X76250Y730250D01*
X82550Y734000D02*X83300Y733250D01*
Y728750D01*
X82550Y728000D02*X83300Y728750D01*
X41000Y724750D02*X85100D01*
X96050Y728000D02*X98000D01*
X95000Y729050D02*X96050Y728000D01*
X95000Y732950D02*Y729050D01*
Y732950D02*X96050Y734000D01*
X98000D01*
X99800Y730250D02*Y728750D01*
Y730250D02*X100550Y731000D01*
X102050D01*
X102800Y730250D01*
Y728750D01*
X102050Y728000D02*X102800Y728750D01*
X100550Y728000D02*X102050D01*
X99800Y728750D02*X100550Y728000D01*
X104600Y731000D02*Y728750D01*
X105350Y728000D01*
X106850D01*
X107600Y728750D01*
Y731000D02*Y728750D01*
X110150Y730250D02*Y728000D01*
Y730250D02*X110900Y731000D01*
X111650D01*
X112400Y730250D01*
Y728000D01*
X109400Y731000D02*X110150Y730250D01*
X114950Y734000D02*Y728750D01*
X115700Y728000D01*
X114200Y731750D02*X115700D01*
X95000Y724750D02*X117200D01*
X130750Y734000D02*Y728000D01*
X130000Y734000D02*X133000D01*
X133750Y733250D01*
Y731750D01*
X133000Y731000D02*X133750Y731750D01*
X130750Y731000D02*X133000D01*
X135550Y734000D02*Y728750D01*
X136300Y728000D01*
X140050Y731000D02*X140800Y730250D01*
X138550Y731000D02*X140050D01*
X137800Y730250D02*X138550Y731000D01*
X137800Y730250D02*Y728750D01*
X138550Y728000D01*
X140800Y731000D02*Y728750D01*
X141550Y728000D01*
X138550D02*X140050D01*
X140800Y728750D01*
X144100Y734000D02*Y728750D01*
X144850Y728000D01*
X143350Y731750D02*X144850D01*
X147100Y728000D02*X149350D01*
X146350Y728750D02*X147100Y728000D01*
X146350Y730250D02*Y728750D01*
Y730250D02*X147100Y731000D01*
X148600D01*
X149350Y730250D01*
X146350Y729500D02*X149350D01*
Y730250D02*Y729500D01*
X154150Y734000D02*Y728000D01*
X153400D02*X154150Y728750D01*
X151900Y728000D02*X153400D01*
X151150Y728750D02*X151900Y728000D01*
X151150Y730250D02*Y728750D01*
Y730250D02*X151900Y731000D01*
X153400D01*
X154150Y730250D01*
X157450Y731000D02*Y730250D01*
Y728750D02*Y728000D01*
X155950Y733250D02*Y732500D01*
Y733250D02*X156700Y734000D01*
X158200D01*
X158950Y733250D01*
Y732500D01*
X157450Y731000D02*X158950Y732500D01*
X130000Y724750D02*X160750D01*
X0Y749000D02*X3000D01*
X1500D02*Y743000D01*
X4800Y749000D02*Y743000D01*
Y745250D02*X5550Y746000D01*
X7050D01*
X7800Y745250D01*
Y743000D01*
X10350D02*X12600D01*
X9600Y743750D02*X10350Y743000D01*
X9600Y745250D02*Y743750D01*
Y745250D02*X10350Y746000D01*
X11850D01*
X12600Y745250D01*
X9600Y744500D02*X12600D01*
Y745250D02*Y744500D01*
X15150Y745250D02*Y743000D01*
Y745250D02*X15900Y746000D01*
X17400D01*
X14400D02*X15150Y745250D01*
X19950Y743000D02*X22200D01*
X19200Y743750D02*X19950Y743000D01*
X19200Y745250D02*Y743750D01*
Y745250D02*X19950Y746000D01*
X21450D01*
X22200Y745250D01*
X19200Y744500D02*X22200D01*
Y745250D02*Y744500D01*
X28950Y746000D02*X29700Y745250D01*
X27450Y746000D02*X28950D01*
X26700Y745250D02*X27450Y746000D01*
X26700Y745250D02*Y743750D01*
X27450Y743000D01*
X29700Y746000D02*Y743750D01*
X30450Y743000D01*
X27450D02*X28950D01*
X29700Y743750D01*
X33000Y745250D02*Y743000D01*
Y745250D02*X33750Y746000D01*
X35250D01*
X32250D02*X33000Y745250D01*
X37800Y743000D02*X40050D01*
X37050Y743750D02*X37800Y743000D01*
X37050Y745250D02*Y743750D01*
Y745250D02*X37800Y746000D01*
X39300D01*
X40050Y745250D01*
X37050Y744500D02*X40050D01*
Y745250D02*Y744500D01*
X44550Y748250D02*X45300Y749000D01*
X46800D01*
X47550Y748250D01*
X46800Y743000D02*X47550Y743750D01*
X45300Y743000D02*X46800D01*
X44550Y743750D02*X45300Y743000D01*
Y746300D02*X46800D01*
X47550Y748250D02*Y747050D01*
Y745550D02*Y743750D01*
Y745550D02*X46800Y746300D01*
X47550Y747050D02*X46800Y746300D01*
X55050Y749000D02*Y743000D01*
X54300D02*X55050Y743750D01*
X52800Y743000D02*X54300D01*
X52050Y743750D02*X52800Y743000D01*
X52050Y745250D02*Y743750D01*
Y745250D02*X52800Y746000D01*
X54300D01*
X55050Y745250D01*
G54D62*X56850Y747500D02*Y747350D01*
G54D61*Y745250D02*Y743000D01*
X59100Y748250D02*Y743000D01*
Y748250D02*X59850Y749000D01*
X60600D01*
X58350Y746000D02*X59850D01*
X62850Y748250D02*Y743000D01*
Y748250D02*X63600Y749000D01*
X64350D01*
X62100Y746000D02*X63600D01*
X66600Y743000D02*X68850D01*
X65850Y743750D02*X66600Y743000D01*
X65850Y745250D02*Y743750D01*
Y745250D02*X66600Y746000D01*
X68100D01*
X68850Y745250D01*
X65850Y744500D02*X68850D01*
Y745250D02*Y744500D01*
X71400Y745250D02*Y743000D01*
Y745250D02*X72150Y746000D01*
X73650D01*
X70650D02*X71400Y745250D01*
X76200Y743000D02*X78450D01*
X75450Y743750D02*X76200Y743000D01*
X75450Y745250D02*Y743750D01*
Y745250D02*X76200Y746000D01*
X77700D01*
X78450Y745250D01*
X75450Y744500D02*X78450D01*
Y745250D02*Y744500D01*
X81000Y745250D02*Y743000D01*
Y745250D02*X81750Y746000D01*
X82500D01*
X83250Y745250D01*
Y743000D01*
X80250Y746000D02*X81000Y745250D01*
X85800Y749000D02*Y743750D01*
X86550Y743000D01*
X85050Y746750D02*X86550D01*
X93750Y749000D02*Y743000D01*
X93000D02*X93750Y743750D01*
X91500Y743000D02*X93000D01*
X90750Y743750D02*X91500Y743000D01*
X90750Y745250D02*Y743750D01*
Y745250D02*X91500Y746000D01*
X93000D01*
X93750Y745250D01*
X96300D02*Y743000D01*
Y745250D02*X97050Y746000D01*
X98550D01*
X95550D02*X96300Y745250D01*
G54D62*X100350Y747500D02*Y747350D01*
G54D61*Y745250D02*Y743000D01*
X101850Y749000D02*Y743750D01*
X102600Y743000D01*
X104100Y749000D02*Y743750D01*
X104850Y743000D01*
X109800D02*X112050D01*
X112800Y743750D01*
X112050Y744500D02*X112800Y743750D01*
X109800Y744500D02*X112050D01*
X109050Y745250D02*X109800Y744500D01*
X109050Y745250D02*X109800Y746000D01*
X112050D01*
X112800Y745250D01*
X109050Y743750D02*X109800Y743000D01*
G54D62*X114600Y747500D02*Y747350D01*
G54D61*Y745250D02*Y743000D01*
X116100Y746000D02*X119100D01*
X116100Y743000D02*X119100Y746000D01*
X116100Y743000D02*X119100D01*
X121650D02*X123900D01*
X120900Y743750D02*X121650Y743000D01*
X120900Y745250D02*Y743750D01*
Y745250D02*X121650Y746000D01*
X123150D01*
X123900Y745250D01*
X120900Y744500D02*X123900D01*
Y745250D02*Y744500D01*
X126450Y743000D02*X128700D01*
X129450Y743750D01*
X128700Y744500D02*X129450Y743750D01*
X126450Y744500D02*X128700D01*
X125700Y745250D02*X126450Y744500D01*
X125700Y745250D02*X126450Y746000D01*
X128700D01*
X129450Y745250D01*
X125700Y743750D02*X126450Y743000D01*
X133950Y746000D02*Y743750D01*
X134700Y743000D01*
X136200D01*
X136950Y743750D01*
Y746000D02*Y743750D01*
X139500Y743000D02*X141750D01*
X142500Y743750D01*
X141750Y744500D02*X142500Y743750D01*
X139500Y744500D02*X141750D01*
X138750Y745250D02*X139500Y744500D01*
X138750Y745250D02*X139500Y746000D01*
X141750D01*
X142500Y745250D01*
X138750Y743750D02*X139500Y743000D01*
X145050D02*X147300D01*
X144300Y743750D02*X145050Y743000D01*
X144300Y745250D02*Y743750D01*
Y745250D02*X145050Y746000D01*
X146550D01*
X147300Y745250D01*
X144300Y744500D02*X147300D01*
Y745250D02*Y744500D01*
X152100Y749000D02*Y743000D01*
X151350D02*X152100Y743750D01*
X149850Y743000D02*X151350D01*
X149100Y743750D02*X149850Y743000D01*
X149100Y745250D02*Y743750D01*
Y745250D02*X149850Y746000D01*
X151350D01*
X152100Y745250D01*
G54D62*X156600Y747500D02*Y747350D01*
G54D61*Y745250D02*Y743000D01*
X158850Y745250D02*Y743000D01*
Y745250D02*X159600Y746000D01*
X160350D01*
X161100Y745250D01*
Y743000D01*
X158100Y746000D02*X158850Y745250D01*
X166350Y749000D02*Y743750D01*
X167100Y743000D01*
X165600Y746750D02*X167100D01*
X168600Y749000D02*Y743000D01*
Y745250D02*X169350Y746000D01*
X170850D01*
X171600Y745250D01*
Y743000D01*
G54D62*X173400Y747500D02*Y747350D01*
G54D61*Y745250D02*Y743000D01*
X175650D02*X177900D01*
X178650Y743750D01*
X177900Y744500D02*X178650Y743750D01*
X175650Y744500D02*X177900D01*
X174900Y745250D02*X175650Y744500D01*
X174900Y745250D02*X175650Y746000D01*
X177900D01*
X178650Y745250D01*
X174900Y743750D02*X175650Y743000D01*
X183150Y749000D02*Y743750D01*
X183900Y743000D01*
X187650Y746000D02*X188400Y745250D01*
X186150Y746000D02*X187650D01*
X185400Y745250D02*X186150Y746000D01*
X185400Y745250D02*Y743750D01*
X186150Y743000D01*
X188400Y746000D02*Y743750D01*
X189150Y743000D01*
X186150D02*X187650D01*
X188400Y743750D01*
X190950Y746000D02*Y743750D01*
X191700Y743000D01*
X193950Y746000D02*Y741500D01*
X193200Y740750D02*X193950Y741500D01*
X191700Y740750D02*X193200D01*
X190950Y741500D02*X191700Y740750D01*
Y743000D02*X193200D01*
X193950Y743750D01*
X195750Y745250D02*Y743750D01*
Y745250D02*X196500Y746000D01*
X198000D01*
X198750Y745250D01*
Y743750D01*
X198000Y743000D02*X198750Y743750D01*
X196500Y743000D02*X198000D01*
X195750Y743750D02*X196500Y743000D01*
X200550Y746000D02*Y743750D01*
X201300Y743000D01*
X202800D01*
X203550Y743750D01*
Y746000D02*Y743750D01*
X206100Y749000D02*Y743750D01*
X206850Y743000D01*
X205350Y746750D02*X206850D01*
X208350Y741500D02*X209850Y743000D01*
X214350Y748250D02*X215100Y749000D01*
X217350D01*
X218100Y748250D01*
Y746750D01*
X214350Y743000D02*X218100Y746750D01*
X214350Y743000D02*X218100D01*
X219900Y749000D02*X222900D01*
X219900D02*Y746000D01*
X220650Y746750D01*
X222150D01*
X222900Y746000D01*
Y743750D01*
X222150Y743000D02*X222900Y743750D01*
X220650Y743000D02*X222150D01*
X219900Y743750D02*X220650Y743000D01*
X224700Y748250D02*X225450Y749000D01*
X226950D01*
X227700Y748250D01*
X226950Y743000D02*X227700Y743750D01*
X225450Y743000D02*X226950D01*
X224700Y743750D02*X225450Y743000D01*
Y746300D02*X226950D01*
X227700Y748250D02*Y747050D01*
Y745550D02*Y743750D01*
Y745550D02*X226950Y746300D01*
X227700Y747050D02*X226950Y746300D01*
X232200Y749000D02*Y743000D01*
Y745250D02*X232950Y746000D01*
X234450D01*
X235200Y745250D01*
Y743000D01*
X237000Y745250D02*Y743750D01*
Y745250D02*X237750Y746000D01*
X239250D01*
X240000Y745250D01*
Y743750D01*
X239250Y743000D02*X240000Y743750D01*
X237750Y743000D02*X239250D01*
X237000Y743750D02*X237750Y743000D01*
X241800Y749000D02*Y743750D01*
X242550Y743000D01*
X244800D02*X247050D01*
X244050Y743750D02*X244800Y743000D01*
X244050Y745250D02*Y743750D01*
Y745250D02*X244800Y746000D01*
X246300D01*
X247050Y745250D01*
X244050Y744500D02*X247050D01*
Y745250D02*Y744500D01*
X249600Y743000D02*X251850D01*
X252600Y743750D01*
X251850Y744500D02*X252600Y743750D01*
X249600Y744500D02*X251850D01*
X248850Y745250D02*X249600Y744500D01*
X248850Y745250D02*X249600Y746000D01*
X251850D01*
X252600Y745250D01*
X248850Y743750D02*X249600Y743000D01*
X257850Y749000D02*Y743750D01*
X258600Y743000D01*
X257100Y746750D02*X258600D01*
X260100Y745250D02*Y743750D01*
Y745250D02*X260850Y746000D01*
X262350D01*
X263100Y745250D01*
Y743750D01*
X262350Y743000D02*X263100Y743750D01*
X260850Y743000D02*X262350D01*
X260100Y743750D02*X260850Y743000D01*
X265650Y749000D02*Y743750D01*
X266400Y743000D01*
X264900Y746750D02*X266400D01*
X270150Y746000D02*X270900Y745250D01*
X268650Y746000D02*X270150D01*
X267900Y745250D02*X268650Y746000D01*
X267900Y745250D02*Y743750D01*
X268650Y743000D01*
X270900Y746000D02*Y743750D01*
X271650Y743000D01*
X268650D02*X270150D01*
X270900Y743750D01*
X273450Y749000D02*Y743750D01*
X274200Y743000D01*
G54D63*X167673Y161823D02*X325941D01*
X333815Y169697D02*Y438949D01*
X341689Y446823D02*X444917D01*
X452791Y438949D02*Y46705D01*
X444917Y38831D02*X48697D01*
X40823Y46705D02*Y438949D01*
X151925Y446823D02*X48697D01*
X159799Y438949D02*Y169697D01*
X167673Y161823D02*G75*G02X159799Y169697I0J7874D01*G01*
X333815D02*G75*G02X325941Y161823I-7874J0D01*G01*
X452791Y46705D02*G75*G02X444917Y38831I-7874J0D01*G01*
Y446823D02*G75*G02X452791Y438949I0J-7874D01*G01*
X48697Y38831D02*G75*G02X40823Y46705I0J7874D01*G01*
Y438949D02*G75*G02X48697Y446823I7874J0D01*G01*
X333815Y438949D02*G75*G02X341689Y446823I7874J0D01*G01*
X151925D02*G75*G02X159799Y438949I0J-7874D01*G01*
G54D61*X231675Y-9500D02*X234675D01*
X235425Y-8750D01*
Y-6950D02*Y-8750D01*
X234675Y-6200D02*X235425Y-6950D01*
X232425Y-6200D02*X234675D01*
X232425Y-3500D02*Y-9500D01*
X231675Y-3500D02*X234675D01*
X235425Y-4250D01*
Y-5450D01*
X234675Y-6200D02*X235425Y-5450D01*
X237225Y-7250D02*Y-8750D01*
Y-7250D02*X237975Y-6500D01*
X239475D01*
X240225Y-7250D01*
Y-8750D01*
X239475Y-9500D02*X240225Y-8750D01*
X237975Y-9500D02*X239475D01*
X237225Y-8750D02*X237975Y-9500D01*
X244275Y-6500D02*X245025Y-7250D01*
X242775Y-6500D02*X244275D01*
X242025Y-7250D02*X242775Y-6500D01*
X242025Y-7250D02*Y-8750D01*
X242775Y-9500D01*
X245025Y-6500D02*Y-8750D01*
X245775Y-9500D01*
X242775D02*X244275D01*
X245025Y-8750D01*
X248325Y-7250D02*Y-9500D01*
Y-7250D02*X249075Y-6500D01*
X250575D01*
X247575D02*X248325Y-7250D01*
X255375Y-3500D02*Y-9500D01*
X254625D02*X255375Y-8750D01*
X253125Y-9500D02*X254625D01*
X252375Y-8750D02*X253125Y-9500D01*
X252375Y-7250D02*Y-8750D01*
Y-7250D02*X253125Y-6500D01*
X254625D01*
X255375Y-7250D01*
X259875D02*Y-8750D01*
Y-7250D02*X260625Y-6500D01*
X262125D01*
X262875Y-7250D01*
Y-8750D01*
X262125Y-9500D02*X262875Y-8750D01*
X260625Y-9500D02*X262125D01*
X259875Y-8750D02*X260625Y-9500D01*
X264675Y-6500D02*Y-8750D01*
X265425Y-9500D01*
X266925D01*
X267675Y-8750D01*
Y-6500D02*Y-8750D01*
X270225Y-3500D02*Y-8750D01*
X270975Y-9500D01*
X269475Y-5750D02*X270975D01*
X272475Y-3500D02*Y-8750D01*
X273225Y-9500D01*
G54D62*X274725Y-5000D02*Y-5150D01*
G54D61*Y-7250D02*Y-9500D01*
X276975Y-7250D02*Y-9500D01*
Y-7250D02*X277725Y-6500D01*
X278475D01*
X279225Y-7250D01*
Y-9500D01*
X276225Y-6500D02*X276975Y-7250D01*
X281775Y-9500D02*X284025D01*
X281025Y-8750D02*X281775Y-9500D01*
X281025Y-7250D02*Y-8750D01*
Y-7250D02*X281775Y-6500D01*
X283275D01*
X284025Y-7250D01*
X281025Y-8000D02*X284025D01*
Y-7250D02*Y-8000D01*
G54D62*X288525Y-5000D02*Y-5150D01*
G54D61*Y-7250D02*Y-9500D01*
X290775D02*X293025D01*
X293775Y-8750D01*
X293025Y-8000D02*X293775Y-8750D01*
X290775Y-8000D02*X293025D01*
X290025Y-7250D02*X290775Y-8000D01*
X290025Y-7250D02*X290775Y-6500D01*
X293025D01*
X293775Y-7250D01*
X290025Y-8750D02*X290775Y-9500D01*
X299025Y-3500D02*Y-8750D01*
X299775Y-9500D01*
X298275Y-5750D02*X299775D01*
X301275Y-3500D02*Y-9500D01*
Y-7250D02*X302025Y-6500D01*
X303525D01*
X304275Y-7250D01*
Y-9500D01*
X306825D02*X309075D01*
X306075Y-8750D02*X306825Y-9500D01*
X306075Y-7250D02*Y-8750D01*
Y-7250D02*X306825Y-6500D01*
X308325D01*
X309075Y-7250D01*
X306075Y-8000D02*X309075D01*
Y-7250D02*Y-8000D01*
X314325Y-6500D02*X316575D01*
X313575Y-7250D02*X314325Y-6500D01*
X313575Y-7250D02*Y-8750D01*
X314325Y-9500D01*
X316575D01*
X319125D02*X321375D01*
X318375Y-8750D02*X319125Y-9500D01*
X318375Y-7250D02*Y-8750D01*
Y-7250D02*X319125Y-6500D01*
X320625D01*
X321375Y-7250D01*
X318375Y-8000D02*X321375D01*
Y-7250D02*Y-8000D01*
X323925Y-7250D02*Y-9500D01*
Y-7250D02*X324675Y-6500D01*
X325425D01*
X326175Y-7250D01*
Y-9500D01*
X323175Y-6500D02*X323925Y-7250D01*
X328725Y-3500D02*Y-8750D01*
X329475Y-9500D01*
X327975Y-5750D02*X329475D01*
X331725Y-9500D02*X333975D01*
X330975Y-8750D02*X331725Y-9500D01*
X330975Y-7250D02*Y-8750D01*
Y-7250D02*X331725Y-6500D01*
X333225D01*
X333975Y-7250D01*
X330975Y-8000D02*X333975D01*
Y-7250D02*Y-8000D01*
X336525Y-7250D02*Y-9500D01*
Y-7250D02*X337275Y-6500D01*
X338775D01*
X335775D02*X336525Y-7250D01*
X340575Y-3500D02*Y-8750D01*
X341325Y-9500D01*
G54D62*X342825Y-5000D02*Y-5150D01*
G54D61*Y-7250D02*Y-9500D01*
X345075Y-7250D02*Y-9500D01*
Y-7250D02*X345825Y-6500D01*
X346575D01*
X347325Y-7250D01*
Y-9500D01*
X344325Y-6500D02*X345075Y-7250D01*
X349875Y-9500D02*X352125D01*
X349125Y-8750D02*X349875Y-9500D01*
X349125Y-7250D02*Y-8750D01*
Y-7250D02*X349875Y-6500D01*
X351375D01*
X352125Y-7250D01*
X349125Y-8000D02*X352125D01*
Y-7250D02*Y-8000D01*
X356625Y-7250D02*Y-8750D01*
Y-7250D02*X357375Y-6500D01*
X358875D01*
X359625Y-7250D01*
Y-8750D01*
X358875Y-9500D02*X359625Y-8750D01*
X357375Y-9500D02*X358875D01*
X356625Y-8750D02*X357375Y-9500D01*
X362175Y-4250D02*Y-9500D01*
Y-4250D02*X362925Y-3500D01*
X363675D01*
X361425Y-6500D02*X362925D01*
X368625Y-3500D02*Y-8750D01*
X369375Y-9500D01*
X367875Y-5750D02*X369375D01*
X370875Y-3500D02*Y-9500D01*
Y-7250D02*X371625Y-6500D01*
X373125D01*
X373875Y-7250D01*
Y-9500D01*
G54D62*X375675Y-5000D02*Y-5150D01*
G54D61*Y-7250D02*Y-9500D01*
X377925D02*X380175D01*
X380925Y-8750D01*
X380175Y-8000D02*X380925Y-8750D01*
X377925Y-8000D02*X380175D01*
X377175Y-7250D02*X377925Y-8000D01*
X377175Y-7250D02*X377925Y-6500D01*
X380175D01*
X380925Y-7250D01*
X377175Y-8750D02*X377925Y-9500D01*
X386175Y-7250D02*Y-11750D01*
X385425Y-6500D02*X386175Y-7250D01*
X386925Y-6500D01*
X388425D01*
X389175Y-7250D01*
Y-8750D01*
X388425Y-9500D02*X389175Y-8750D01*
X386925Y-9500D02*X388425D01*
X386175Y-8750D02*X386925Y-9500D01*
X393225Y-6500D02*X393975Y-7250D01*
X391725Y-6500D02*X393225D01*
X390975Y-7250D02*X391725Y-6500D01*
X390975Y-7250D02*Y-8750D01*
X391725Y-9500D01*
X393975Y-6500D02*Y-8750D01*
X394725Y-9500D01*
X391725D02*X393225D01*
X393975Y-8750D01*
X397275Y-3500D02*Y-8750D01*
X398025Y-9500D01*
X396525Y-5750D02*X398025D01*
X399525Y-3500D02*Y-9500D01*
Y-7250D02*X400275Y-6500D01*
X401775D01*
X402525Y-7250D01*
Y-9500D01*
X200750Y689000D02*Y683000D01*
X202700Y689000D02*X203750Y687950D01*
Y684050D01*
X202700Y683000D02*X203750Y684050D01*
X200000Y683000D02*X202700D01*
X200000Y689000D02*X202700D01*
X207800Y686000D02*X208550Y685250D01*
X206300Y686000D02*X207800D01*
X205550Y685250D02*X206300Y686000D01*
X205550Y685250D02*Y683750D01*
X206300Y683000D01*
X208550Y686000D02*Y683750D01*
X209300Y683000D01*
X206300D02*X207800D01*
X208550Y683750D01*
X211850Y689000D02*Y683750D01*
X212600Y683000D01*
X211100Y686750D02*X212600D01*
X214850Y683000D02*X217100D01*
X214100Y683750D02*X214850Y683000D01*
X214100Y685250D02*Y683750D01*
Y685250D02*X214850Y686000D01*
X216350D01*
X217100Y685250D01*
X214100Y684500D02*X217100D01*
Y685250D02*Y684500D01*
X218900Y686750D02*X219650D01*
X218900Y685250D02*X219650D01*
X224150Y688250D02*X224900Y689000D01*
X227150D01*
X227900Y688250D01*
Y686750D01*
X224150Y683000D02*X227900Y686750D01*
X224150Y683000D02*X227900D01*
X229700Y683750D02*X230450Y683000D01*
X229700Y688250D02*Y683750D01*
Y688250D02*X230450Y689000D01*
X231950D01*
X232700Y688250D01*
Y683750D01*
X231950Y683000D02*X232700Y683750D01*
X230450Y683000D02*X231950D01*
X229700Y684500D02*X232700Y687500D01*
X234500Y687800D02*X235700Y689000D01*
Y683000D01*
X234500D02*X236750D01*
X238550Y683750D02*X239300Y683000D01*
X238550Y684950D02*Y683750D01*
Y684950D02*X239600Y686000D01*
X240500D01*
X241550Y684950D01*
Y683750D01*
X240800Y683000D02*X241550Y683750D01*
X239300Y683000D02*X240800D01*
X238550Y687050D02*X239600Y686000D01*
X238550Y688250D02*Y687050D01*
Y688250D02*X239300Y689000D01*
X240800D01*
X241550Y688250D01*
Y687050D01*
X240500Y686000D02*X241550Y687050D01*
X243350Y686000D02*X246350D01*
X248150Y683750D02*X248900Y683000D01*
X248150Y688250D02*Y683750D01*
Y688250D02*X248900Y689000D01*
X250400D01*
X251150Y688250D01*
Y683750D01*
X250400Y683000D02*X251150Y683750D01*
X248900Y683000D02*X250400D01*
X248150Y684500D02*X251150Y687500D01*
X252950Y683750D02*X253700Y683000D01*
X252950Y684950D02*Y683750D01*
Y684950D02*X254000Y686000D01*
X254900D01*
X255950Y684950D01*
Y683750D01*
X255200Y683000D02*X255950Y683750D01*
X253700Y683000D02*X255200D01*
X252950Y687050D02*X254000Y686000D01*
X252950Y688250D02*Y687050D01*
Y688250D02*X253700Y689000D01*
X255200D01*
X255950Y688250D01*
Y687050D01*
X254900Y686000D02*X255950Y687050D01*
X257750Y686000D02*X260750D01*
X262550Y688250D02*X263300Y689000D01*
X265550D01*
X266300Y688250D01*
Y686750D01*
X262550Y683000D02*X266300Y686750D01*
X262550Y683000D02*X266300D01*
X268100Y687800D02*X269300Y689000D01*
Y683000D01*
X268100D02*X270350D01*
X274850Y683750D02*X275600Y683000D01*
X274850Y688250D02*Y683750D01*
Y688250D02*X275600Y689000D01*
X277100D01*
X277850Y688250D01*
Y683750D01*
X277100Y683000D02*X277850Y683750D01*
X275600Y683000D02*X277100D01*
X274850Y684500D02*X277850Y687500D01*
X279650Y688250D02*X280400Y689000D01*
X282650D01*
X283400Y688250D01*
Y686750D01*
X279650Y683000D02*X283400Y686750D01*
X279650Y683000D02*X283400D01*
X285200Y686750D02*X285950D01*
X285200Y685250D02*X285950D01*
X287750Y689000D02*X290750D01*
X287750D02*Y686000D01*
X288500Y686750D01*
X290000D01*
X290750Y686000D01*
Y683750D01*
X290000Y683000D02*X290750Y683750D01*
X288500Y683000D02*X290000D01*
X287750Y683750D02*X288500Y683000D01*
X292550Y685250D02*X295550Y689000D01*
X292550Y685250D02*X296300D01*
X295550Y689000D02*Y683000D01*
X298100Y686750D02*X298850D01*
X298100Y685250D02*X298850D01*
X300650Y688250D02*X301400Y689000D01*
X303650D01*
X304400Y688250D01*
Y686750D01*
X300650Y683000D02*X304400Y686750D01*
X300650Y683000D02*X304400D01*
X306200Y685250D02*X309200Y689000D01*
X306200Y685250D02*X309950D01*
X309200Y689000D02*Y683000D01*
X314450Y689000D02*Y683750D01*
X315200Y683000D01*
X316700D01*
X317450Y683750D01*
Y689000D02*Y683750D01*
X319250Y689000D02*X322250D01*
X320750D02*Y683000D01*
X325100D02*X327050D01*
X324050Y684050D02*X325100Y683000D01*
X324050Y687950D02*Y684050D01*
Y687950D02*X325100Y689000D01*
X327050D01*
X200000Y702500D02*Y698000D01*
Y702500D02*X201050Y704000D01*
X202700D01*
X203750Y702500D01*
Y698000D01*
X200000Y701000D02*X203750D01*
X205550D02*Y698750D01*
X206300Y698000D01*
X207800D01*
X208550Y698750D01*
Y701000D02*Y698750D01*
X211100Y704000D02*Y698750D01*
X211850Y698000D01*
X210350Y701750D02*X211850D01*
X213350Y704000D02*Y698000D01*
Y700250D02*X214100Y701000D01*
X215600D01*
X216350Y700250D01*
Y698000D01*
X218150Y700250D02*Y698750D01*
Y700250D02*X218900Y701000D01*
X220400D01*
X221150Y700250D01*
Y698750D01*
X220400Y698000D02*X221150Y698750D01*
X218900Y698000D02*X220400D01*
X218150Y698750D02*X218900Y698000D01*
X223700Y700250D02*Y698000D01*
Y700250D02*X224450Y701000D01*
X225950D01*
X222950D02*X223700Y700250D01*
X227750Y701750D02*X228500D01*
X227750Y700250D02*X228500D01*
X200000Y719000D02*X203000D01*
X201500D02*Y713000D01*
G54D62*X204800Y717500D02*Y717350D01*
G54D61*Y715250D02*Y713000D01*
X207050Y719000D02*Y713750D01*
X207800Y713000D01*
X206300Y716750D02*X207800D01*
X209300Y719000D02*Y713750D01*
X210050Y713000D01*
X212300D02*X214550D01*
X211550Y713750D02*X212300Y713000D01*
X211550Y715250D02*Y713750D01*
Y715250D02*X212300Y716000D01*
X213800D01*
X214550Y715250D01*
X211550Y714500D02*X214550D01*
Y715250D02*Y714500D01*
X216350Y716750D02*X217100D01*
X216350Y715250D02*X217100D01*
X221600Y719000D02*Y713750D01*
X222350Y713000D01*
G54D62*X223850Y717500D02*Y717350D01*
G54D61*Y715250D02*Y713000D01*
X226100Y715250D02*Y710750D01*
X225350Y716000D02*X226100Y715250D01*
X226850Y716000D01*
X228350D01*
X229100Y715250D01*
Y713750D01*
X228350Y713000D02*X229100Y713750D01*
X226850Y713000D02*X228350D01*
X226100Y713750D02*X226850Y713000D01*
X230900Y719000D02*Y713750D01*
X231650Y713000D01*
G54D62*X233150Y717500D02*Y717350D01*
G54D61*Y715250D02*Y713000D01*
X236900Y716000D02*X237650Y715250D01*
X235400Y716000D02*X236900D01*
X234650Y715250D02*X235400Y716000D01*
X234650Y715250D02*Y713750D01*
X235400Y713000D01*
X236900D01*
X237650Y713750D01*
X234650Y711500D02*X235400Y710750D01*
X236900D01*
X237650Y711500D01*
Y716000D02*Y711500D01*
X239450Y719000D02*Y713000D01*
Y715250D02*X240200Y716000D01*
X241700D01*
X242450Y715250D01*
Y713000D01*
X245000Y719000D02*Y713750D01*
X245750Y713000D01*
X244250Y716750D02*X245750D01*
X247250Y716000D02*X250250D01*
X254300D02*X255050Y715250D01*
X252800Y716000D02*X254300D01*
X252050Y715250D02*X252800Y716000D01*
X252050Y715250D02*Y713750D01*
X252800Y713000D01*
X255050Y716000D02*Y713750D01*
X255800Y713000D01*
X252800D02*X254300D01*
X255050Y713750D01*
X258350Y715250D02*Y713000D01*
Y715250D02*X259100Y716000D01*
X260600D01*
X257600D02*X258350Y715250D01*
X263150Y719000D02*Y713750D01*
X263900Y713000D01*
X262400Y716750D02*X263900D01*
X268100Y716000D02*X271100D01*
X275600Y719000D02*Y713000D01*
Y719000D02*X278600D01*
X275600Y716300D02*X277850D01*
X282650Y716000D02*X283400Y715250D01*
X281150Y716000D02*X282650D01*
X280400Y715250D02*X281150Y716000D01*
X280400Y715250D02*Y713750D01*
X281150Y713000D01*
X283400Y716000D02*Y713750D01*
X284150Y713000D01*
X281150D02*X282650D01*
X283400Y713750D01*
X285950Y719000D02*Y713000D01*
Y713750D02*X286700Y713000D01*
X288200D01*
X288950Y713750D01*
Y715250D02*Y713750D01*
X288200Y716000D02*X288950Y715250D01*
X286700Y716000D02*X288200D01*
X285950Y715250D02*X286700Y716000D01*
X291500Y715250D02*Y713000D01*
Y715250D02*X292250Y716000D01*
X293750D01*
X290750D02*X291500Y715250D01*
G54D62*X295550Y717500D02*Y717350D01*
G54D61*Y715250D02*Y713000D01*
X297800Y716000D02*X300050D01*
X297050Y715250D02*X297800Y716000D01*
X297050Y715250D02*Y713750D01*
X297800Y713000D01*
X300050D01*
X304100Y716000D02*X304850Y715250D01*
X302600Y716000D02*X304100D01*
X301850Y715250D02*X302600Y716000D01*
X301850Y715250D02*Y713750D01*
X302600Y713000D01*
X304850Y716000D02*Y713750D01*
X305600Y713000D01*
X302600D02*X304100D01*
X304850Y713750D01*
X308150Y719000D02*Y713750D01*
X308900Y713000D01*
X307400Y716750D02*X308900D01*
G54D62*X310400Y717500D02*Y717350D01*
G54D61*Y715250D02*Y713000D01*
X311900Y715250D02*Y713750D01*
Y715250D02*X312650Y716000D01*
X314150D01*
X314900Y715250D01*
Y713750D01*
X314150Y713000D02*X314900Y713750D01*
X312650Y713000D02*X314150D01*
X311900Y713750D02*X312650Y713000D01*
X317450Y715250D02*Y713000D01*
Y715250D02*X318200Y716000D01*
X318950D01*
X319700Y715250D01*
Y713000D01*
X316700Y716000D02*X317450Y715250D01*
X324950Y719000D02*Y713000D01*
X326900Y719000D02*X327950Y717950D01*
Y714050D01*
X326900Y713000D02*X327950Y714050D01*
X324200Y713000D02*X326900D01*
X324200Y719000D02*X326900D01*
X330500Y715250D02*Y713000D01*
Y715250D02*X331250Y716000D01*
X332750D01*
X329750D02*X330500Y715250D01*
X336800Y716000D02*X337550Y715250D01*
X335300Y716000D02*X336800D01*
X334550Y715250D02*X335300Y716000D01*
X334550Y715250D02*Y713750D01*
X335300Y713000D01*
X337550Y716000D02*Y713750D01*
X338300Y713000D01*
X335300D02*X336800D01*
X337550Y713750D01*
X340100Y716000D02*Y713750D01*
X340850Y713000D01*
X341600D01*
X342350Y713750D01*
Y716000D02*Y713750D01*
X343100Y713000D01*
X343850D01*
X344600Y713750D01*
Y716000D02*Y713750D01*
G54D62*X346400Y717500D02*Y717350D01*
G54D61*Y715250D02*Y713000D01*
X348650Y715250D02*Y713000D01*
Y715250D02*X349400Y716000D01*
X350150D01*
X350900Y715250D01*
Y713000D01*
X347900Y716000D02*X348650Y715250D01*
X354950Y716000D02*X355700Y715250D01*
X353450Y716000D02*X354950D01*
X352700Y715250D02*X353450Y716000D01*
X352700Y715250D02*Y713750D01*
X353450Y713000D01*
X354950D01*
X355700Y713750D01*
X352700Y711500D02*X353450Y710750D01*
X354950D01*
X355700Y711500D01*
Y716000D02*Y711500D01*
M02*
