M48
INCH
T57C0.028
T56C0.026
T55C0.099
%
T56
X006450Y042050
X004950Y040950
X006900Y038100
X006500Y039429
X013940Y038990
X013940Y038210
X013940Y041990
X013940Y041210
X038020Y041610
X038000Y038750
X043700Y044050
X043700Y041050
X043700Y038050
X016900Y013850
X017600Y014150
X018300Y014450
X019000Y014750
X019700Y015050
X036600Y010550
X030700Y006350
X033700Y006250
X016200Y013550
X020500Y015350
X022400Y013350
X022300Y012650
X021900Y011550
X022600Y011950
X021900Y010750
X022600Y010150
X024000Y009450
X025200Y008950
X026400Y008550
X024700Y007250
X027700Y007250
X005770Y043670
X006500Y036437
X006900Y035100
X006900Y032100
X006500Y033445
X013940Y035940
X013940Y035160
X013940Y033040
X013940Y032260
X006900Y029100
X006500Y030453
X013940Y026990
X013940Y030040
X013940Y029260
X013940Y026210
X013940Y024040
X013940Y023260
X038000Y023750
X035600Y024250
X035600Y033250
X035600Y036200
X035600Y027250
X035600Y030200
X038000Y032750
X038000Y035700
X043700Y035250
X043700Y032350
X043700Y029450
X038000Y029700
X038000Y026750
X006900Y026150
X006900Y023150
X006900Y020150
X006900Y017150
X006500Y015500
X006900Y014150
X006500Y012500
X006500Y018492
X006900Y011150
X006500Y009500
X006500Y027461
X006500Y021476
X006500Y024469
T57
X007885Y040202
X006885Y040202
X015082Y043194
X014082Y043194
X011484Y040202
X010484Y040202
X015082Y040202
X014082Y040202
X007885Y043194
X011484Y043194
X010484Y043194
X006885Y043194
X038878Y043194
X037878Y043194
X038878Y040202
X037878Y040202
X042476Y043194
X042476Y040202
X042476Y037210
X041476Y043194
X041476Y040202
X041476Y037210
X035279Y037210
X038878Y037210
X037878Y037210
X034279Y037210
X034279Y040202
X035279Y043194
X034279Y043194
X035279Y040202
X017681Y007281
X016681Y007281
X019681Y007281
X035279Y010281
X034279Y010281
X032681Y007281
X031681Y007281
X035681Y007281
X034681Y007281
X040681Y007281
X038681Y007281
X037681Y007281
X041681Y007281
X044681Y007281
X043681Y007281
X042476Y010281
X041476Y010281
X038878Y010281
X037878Y010281
X029681Y007281
X028681Y007281
X011484Y013273
X010484Y013273
X015082Y013273
X014082Y013273
X015082Y010281
X014082Y010281
X011484Y010281
X011681Y007281
X010681Y007281
X014681Y007281
X013681Y007281
X010484Y010281
X015082Y016265
X014082Y016265
X011484Y016265
X010484Y016265
X035279Y016265
X034279Y016265
X035279Y019257
X038878Y019257
X037878Y019257
X041476Y019257
X034279Y019257
X042476Y016265
X042476Y019257
X038878Y016265
X037878Y016265
X041476Y016265
X035279Y013273
X034279Y013273
X042476Y013273
X041476Y013273
X038878Y013273
X037878Y013273
X023681Y007281
X022681Y007281
X026681Y007281
X025681Y007281
X020681Y007281
X007885Y037210
X006885Y037210
X007885Y034218
X006885Y034218
X011484Y034218
X010484Y034218
X011484Y037210
X015082Y037210
X014082Y037210
X010484Y037210
X007885Y028233
X006885Y028233
X007885Y031226
X006885Y031226
X007885Y025241
X006885Y025241
X015082Y034218
X014082Y034218
X011484Y025241
X010484Y025241
X015082Y025241
X014082Y025241
X011484Y028233
X015082Y028233
X014082Y028233
X010484Y028233
X011484Y031226
X010484Y031226
X015082Y031226
X014082Y031226
X038878Y022249
X037878Y022249
X042476Y022249
X041476Y022249
X042476Y025241
X041476Y025241
X038878Y025241
X037878Y025241
X034279Y031226
X034279Y025241
X034279Y028233
X035279Y022249
X034279Y022249
X035279Y025241
X034279Y034218
X035279Y034218
X035279Y028233
X035279Y031226
X042476Y034218
X041476Y034218
X042476Y031226
X041476Y031226
X038878Y031226
X037878Y031226
X038878Y034218
X037878Y034218
X042476Y028233
X041476Y028233
X038878Y028233
X037878Y028233
X007885Y022249
X006885Y022249
X011484Y022249
X010484Y022249
X011484Y019257
X010484Y019257
X007885Y019257
X006885Y019257
X015082Y019257
X014082Y019257
X015082Y022249
X014082Y022249
X007885Y016265
X006885Y016265
X007885Y013273
X006885Y013273
X007885Y010281
X006885Y010281
X005681Y007281
X004681Y007281
X008681Y007281
X007681Y007281
T55
X009082Y041848
X040275Y042174
X017681Y010682
X031681Y010682
M30
