G04 start of page 3 for group 5 layer_idx 8 *
G04 Title: liplight-art, Intern *
G04 Creator: pcb-rnd 2.0.0 *
G04 CreationDate: 2018-08-21 02:54:24 UTC *
G04 For:  *
G04 Format: Gerber/RS-274X *
G04 PCB-Dimensions: 636000 660500 *
G04 PCB-Coordinate-Origin: lower left *
%MOIN*%
%FSLAX25Y25*%
%LNGROUP5*%
%ADD26C,0.0280*%
%ADD25C,0.0256*%
%ADD24C,0.0988*%
%ADD23C,0.0700*%
%ADD22C,0.0001*%
%ADD21C,0.0492*%
%ADD20C,0.1181*%
%ADD19C,0.0118*%
G54D19*X139400Y240400D02*X137400D01*
X134500Y237500D01*
X139400Y269900D02*X131500Y262000D01*
Y157500D01*
X134500Y237500D02*Y159000D01*
X136500Y157000D01*
X158500D01*
X131500Y157500D02*X135000Y154000D01*
X166500D02*X193500D01*
X171500Y151000D02*X186500D01*
X158500Y157000D02*X201500Y157000D01*
X208000Y150500D01*
X210000D01*
X217000Y157500D01*
X212000Y144500D02*X219000Y151500D01*
X217000Y157500D02*X330000D01*
X218000Y154500D02*X333000D01*
X335000Y156500D01*
X360000D01*
X379000Y155500D02*X393000D01*
X396000Y158500D01*
X219000Y151500D02*X335000D01*
X220000Y148500D02*X337000D01*
X339000Y150500D01*
X335000Y151500D02*X337000Y153500D01*
X362000D01*
X339000Y150500D02*X364000D01*
X381000Y152500D02*X394000D01*
X399000Y157500D01*
X362000Y153500D02*X366000Y157500D01*
X364000Y150500D02*X369000Y155500D01*
X366000Y147500D02*X372000Y153500D01*
X367957Y144457D02*X379000Y155500D01*
X370000Y141500D02*X381000Y152500D01*
X330000Y157500D02*X336500Y164000D01*
X360000Y156500D02*X363000Y159500D01*
X336500Y164000D02*Y166000D01*
X340000Y169500D01*
X360000Y229500D02*X356000Y233500D01*
Y242500D01*
X363000Y255500D02*X356000Y262500D01*
Y272500D01*
X372000Y345500D02*X365000Y352500D01*
X366000Y157500D02*Y282500D01*
X369000Y155500D02*Y312500D01*
X363000Y159500D02*Y255500D01*
X372000Y153500D02*Y345500D01*
X396000Y158500D02*Y378500D01*
X399000Y157500D02*Y408500D01*
X402000Y133500D02*Y406500D01*
X405000Y131500D02*Y379500D01*
X408000Y128500D02*Y349500D01*
X366000Y282500D02*X356000Y292500D01*
Y302000D01*
X369000Y312500D02*X356000Y325500D01*
X365000Y352500D02*X359000D01*
X356000Y355500D01*
Y362000D01*
X380000Y387500D02*X387000D01*
X396000Y378500D01*
X380200Y416100D02*X391400D01*
X356000Y325500D02*Y332500D01*
X391400Y416100D02*X399000Y408500D01*
X402000Y406500D02*X417000Y421500D01*
X432000D01*
X405000Y379500D02*X417000Y391500D01*
X433000D01*
X408000Y349500D02*X420000Y361500D01*
X432000D01*
X340000Y169500D02*X351000D01*
X360000Y178500D01*
Y229500D01*
X447000Y100500D02*Y321500D01*
X444000Y102500D02*Y296500D01*
X441000Y103500D02*Y265500D01*
X432000Y421500D02*X437000Y426500D01*
Y440500D01*
X433000Y391500D02*X437000Y395500D01*
Y410500D01*
X438000Y123500D02*Y236500D01*
X435000Y125500D02*Y207500D01*
X432000Y127500D02*Y176500D01*
Y361500D02*X437000Y366500D01*
Y380500D01*
X200000Y147500D02*X211000D01*
X218000Y154500D01*
X213000Y141500D02*X220000Y148500D01*
X214000Y138500D02*X221000Y145500D01*
X215000Y135500D02*X222000Y142500D01*
X216000Y132500D02*X223000Y139500D01*
X193000Y144500D02*X212000D01*
X221000Y145500D02*X339000D01*
X222000Y142500D02*X340543D01*
X339000Y145500D02*X341000Y147500D01*
X366000D01*
X340543Y142500D02*X342500Y144457D01*
X367957D01*
X223000Y139500D02*X343000D01*
X345000Y141500D01*
X326000Y136500D02*X337000Y125500D01*
X325000Y133500D02*X336000Y122500D01*
X337000Y125500D02*X394000D01*
X402000Y133500D01*
X336000Y122500D02*X396000D01*
X405000Y131500D01*
X324000Y130500D02*X335000Y119500D01*
X240000Y94500D02*X432000D01*
X254000Y91500D02*X433000D01*
X335000Y119500D02*X399000D01*
X334000Y116500D02*X421000D01*
X333000Y113500D02*X423000D01*
X332000Y110500D02*X425000D01*
X366000Y105500D02*Y110500D01*
X432000Y94500D02*X441000Y103500D01*
X433000Y91500D02*X444000Y102500D01*
X267000Y88500D02*X435000D01*
X447000Y100500D01*
X399000Y119500D02*X408000Y128500D01*
X421000Y116500D02*X432000Y127500D01*
X423000Y113500D02*X435000Y125500D01*
X425000Y110500D02*X438000Y123500D01*
X323000Y127500D02*X334000Y116500D01*
X322000Y124500D02*X333000Y113500D01*
X321000Y121500D02*X332000Y110500D01*
X345000Y141500D02*X370000D01*
X227000Y136500D02*X326000D01*
X230000Y133500D02*X325000D01*
X241000Y130500D02*X324000D01*
X244000Y127500D02*X323000D01*
X246000Y124500D02*X322000D01*
X250000Y121500D02*X321000D01*
X188000Y141500D02*X213000D01*
X179000Y138500D02*X214000D01*
X172000Y135500D02*X215000D01*
X165000Y132500D02*X216000D01*
X57700Y436700D02*Y419800D01*
X63500Y414000D01*
X83500D01*
X93000Y404500D01*
X83000Y409500D02*X90000Y402500D01*
X139400Y389900D02*X107900D01*
X99000Y381000D01*
X69000D02*X83500D01*
X87000Y377500D01*
X139400Y419900D02*X111900D01*
X96000Y404000D02*X111900Y419900D01*
X139400Y300400D02*X128500Y289500D01*
X139400Y330400D02*X125500Y316500D01*
X139400Y359400D02*X122500Y342500D01*
X49500Y409500D02*X83000D01*
X69000Y351000D02*X52500D01*
X43500Y342000D01*
X69000Y321000D02*X52500D01*
X46500Y315000D01*
X69000Y291000D02*X52500D01*
X128500Y289500D02*Y156000D01*
X122500Y342500D02*Y153000D01*
X99000Y381000D02*Y149500D01*
X96000Y404000D02*Y148000D01*
X125500Y316500D02*Y154500D01*
X99000Y149500D02*X106500Y142000D01*
X96000Y148000D02*X105000Y139000D01*
X93000Y404500D02*Y135000D01*
X101000Y127000D01*
X52500Y291000D02*X49500Y288000D01*
X90000Y402500D02*Y133000D01*
X87000Y377500D02*Y131000D01*
X69000Y261500D02*X56000D01*
X69000Y201500D02*X61000D01*
X58500Y199000D01*
X56000Y261500D02*X52500Y258000D01*
X69000Y231500D02*X59000D01*
X55500Y228000D01*
X58500Y199000D02*Y121500D01*
X62000Y118000D01*
X43500Y342000D02*Y89000D01*
X46500Y315000D02*Y90500D01*
X49500Y288000D02*Y92000D01*
X52500Y258000D02*Y94000D01*
X55500Y228000D02*Y95500D01*
X46500Y90500D02*X55000Y82000D01*
X43500Y89000D02*X53500Y79000D01*
X60000Y91000D02*X72500D01*
X77000Y95500D01*
X58500Y88000D02*X74500D01*
X79000Y92500D01*
X49500Y92000D02*X56500Y85000D01*
X52500Y94000D02*X58500Y88000D01*
X55500Y95500D02*X60000Y91000D01*
X56500Y85000D02*X76500D01*
X81000Y89500D01*
X55000Y82000D02*X78500D01*
X53500Y79000D02*X80500D01*
X78500Y82000D02*X83000Y86500D01*
X80500Y79000D02*X85000Y83500D01*
X90000Y133000D02*X99000Y124000D01*
X87000Y131000D02*X97000Y121000D01*
X128500Y156000D02*X133500Y151000D01*
X125500Y154500D02*X132000Y148000D01*
X122500Y153000D02*X130500Y145000D01*
X105000Y139000D02*X157500D01*
X106500Y142000D02*X163000D01*
X158500Y139000D03*
D03*
X157500D03*
X163000Y142000D02*X163500D01*
D03*
X165500D01*
X157500Y139000D02*X158500D01*
X101000Y127000D02*X217500D01*
X227000Y136500D01*
X99000Y124000D02*X220500D01*
X97000Y121000D02*X224500D01*
X62000Y118000D02*X216500D01*
X77000Y95500D02*X182000D01*
X79000Y92500D02*X217000D01*
X81000Y89500D02*X235000D01*
X83000Y86500D02*X249000D01*
X194000Y107500D02*X182000Y95500D01*
X217000Y92500D02*X226000Y101500D01*
X235000Y89500D02*X240000Y94500D01*
X249000Y86500D02*X254000Y91500D01*
X85000Y83500D02*X262000D01*
X267000Y88500D01*
X216500Y118000D02*X222000Y112500D01*
X229000D01*
X194000Y107500D02*X229000D01*
X226000Y101500D02*X230000D01*
X220500Y124000D02*X230000Y133500D01*
X224500Y121000D02*X226000Y119500D01*
X230000D01*
X232000Y121500D01*
D03*
X241000Y130500D01*
X229000Y112500D02*X235000Y118500D01*
Y118500D01*
X238000Y116500D03*
X235000Y118500D02*X244000Y127500D01*
X229000Y107500D02*X238000Y116500D01*
X246000Y124500D01*
X230000Y101500D02*X250000Y121500D01*
X130500Y145000D02*X168500D01*
X132000Y148000D02*X176500D01*
X179500D01*
X181500Y146000D01*
X168500Y145000D02*X169500D01*
X158500Y139000D02*X165000Y132500D01*
X169500Y145000D02*X172500D01*
X178000Y139500D01*
X165500Y142000D02*X172000Y135500D01*
X179000Y138500D02*X178000Y139500D01*
X181500Y146000D02*X186000Y141500D01*
X188000D02*X186000D01*
D03*
X186500Y151000D02*X193000Y144500D01*
X193500Y154000D02*X200000Y147500D01*
X135000Y154000D02*X166500D01*
X133500Y151000D02*X171500D01*
G54D20*X90823Y418476D03*
G54D21*X64500Y420500D03*
X49500Y409500D03*
X69000Y381000D03*
X65000Y394291D03*
G54D22*G36*
X75354Y405520D02*X82354D01*
Y398520D01*
X75354D01*
Y405520D01*
G37*
G54D23*X68854Y402020D03*
G54D21*X139400Y389900D03*
Y382100D03*
Y419900D03*
G54D22*G36*
X147323Y435441D02*X154323D01*
Y428441D01*
X147323D01*
Y435441D01*
G37*
G54D23*X140823Y431941D03*
G54D22*G36*
X111338Y405520D02*X118338D01*
Y398520D01*
X111338D01*
Y405520D01*
G37*
G54D23*X104838Y402020D03*
G54D21*X139400Y412100D03*
G54D22*G36*
X147323Y405520D02*X154323D01*
Y398520D01*
X147323D01*
Y405520D01*
G37*
G54D23*X140823Y402020D03*
G54D22*G36*
X75354Y435441D02*X82354D01*
Y428441D01*
X75354D01*
Y435441D01*
G37*
G36*
X111338D02*X118338D01*
Y428441D01*
X111338D01*
Y435441D01*
G37*
G54D23*X104838Y431941D03*
X68854D03*
G54D20*X402752Y421744D03*
G54D21*X380200Y416100D03*
G54D22*G36*
X385275Y435441D02*X392275D01*
Y428441D01*
X385275D01*
Y435441D01*
G37*
G54D23*X378775Y431941D03*
G54D21*X380000Y387500D03*
G54D22*G36*
X385275Y405520D02*X392275D01*
Y398520D01*
X385275D01*
Y405520D01*
G37*
G54D23*X378775Y402020D03*
G54D21*X437000Y440500D03*
Y410500D03*
G54D22*G36*
X421260Y435441D02*X428260D01*
Y428441D01*
X421260D01*
Y435441D01*
G37*
G36*
Y405520D02*X428260D01*
Y398520D01*
X421260D01*
Y405520D01*
G37*
G54D21*X437000Y380500D03*
G54D22*G36*
X421260Y375598D02*X428260D01*
Y368598D01*
X421260D01*
Y375598D01*
G37*
G54D23*X414760Y431941D03*
Y402020D03*
Y372098D03*
G54D22*G36*
X349291Y375598D02*X356291D01*
Y368598D01*
X349291D01*
Y375598D01*
G37*
G36*
X385275D02*X392275D01*
Y368598D01*
X385275D01*
Y375598D01*
G37*
G54D23*X378775Y372098D03*
X342791D03*
Y402020D03*
G54D22*G36*
X349291Y435441D02*X356291D01*
Y428441D01*
X349291D01*
Y435441D01*
G37*
G54D23*X342791Y431941D03*
G54D22*G36*
X349291Y405520D02*X356291D01*
Y398520D01*
X349291D01*
Y405520D01*
G37*
G54D21*X169000Y138500D03*
X176000Y141500D03*
X183000Y144500D03*
X190000Y147500D03*
X197000Y150500D03*
G54D20*X176807Y106823D03*
G54D22*G36*
X173307Y76307D02*X180307D01*
Y69307D01*
X173307D01*
Y76307D01*
G37*
G54D23*X166807Y72807D03*
X196807D03*
G54D20*X316807Y106823D03*
G54D21*X366000Y105500D03*
G54D22*G36*
X349291Y106307D02*X356291D01*
Y99307D01*
X349291D01*
Y106307D01*
G37*
G54D23*X342791Y102807D03*
G54D21*X307000Y63500D03*
G54D22*G36*
X323307Y76307D02*X330307D01*
Y69307D01*
X323307D01*
Y76307D01*
G37*
G54D23*X316807Y72807D03*
G54D21*X337000Y62500D03*
G54D22*G36*
X353307Y76307D02*X360307D01*
Y69307D01*
X353307D01*
Y76307D01*
G37*
G54D23*X346807Y72807D03*
X406807D03*
G54D22*G36*
X383307Y76307D02*X390307D01*
Y69307D01*
X383307D01*
Y76307D01*
G37*
G54D23*X376807Y72807D03*
G54D22*G36*
X413307Y76307D02*X420307D01*
Y69307D01*
X413307D01*
Y76307D01*
G37*
G36*
X443307D02*X450307D01*
Y69307D01*
X443307D01*
Y76307D01*
G37*
G54D23*X436807Y72807D03*
G54D22*G36*
X421260Y106307D02*X428260D01*
Y99307D01*
X421260D01*
Y106307D01*
G37*
G54D23*X414760Y102807D03*
G54D22*G36*
X392275Y106307D02*Y99307D01*
X385275D01*
Y106307D01*
X392275D01*
G37*
G54D23*X378775Y102807D03*
G54D22*G36*
X293307Y76307D02*X300307D01*
Y69307D01*
X293307D01*
Y76307D01*
G37*
G54D23*X286807Y72807D03*
G54D22*G36*
X111338Y136228D02*X118338D01*
Y129228D01*
X111338D01*
Y136228D01*
G37*
G54D23*X104838Y132728D03*
G54D21*X162000Y135500D03*
G54D22*G36*
X147323Y136228D02*X154323D01*
Y129228D01*
X147323D01*
Y136228D01*
G37*
G54D23*X140823Y132728D03*
G54D22*G36*
X147323Y106307D02*X154323D01*
Y99307D01*
X147323D01*
Y106307D01*
G37*
G54D23*X140823Y102807D03*
G54D22*G36*
X118338Y106307D02*Y99307D01*
X111338D01*
Y106307D01*
X118338D01*
G37*
G36*
X113307Y76307D02*X120307D01*
Y69307D01*
X113307D01*
Y76307D01*
G37*
G54D23*X106807Y72807D03*
G54D22*G36*
X143307Y76307D02*X150307D01*
Y69307D01*
X143307D01*
Y76307D01*
G37*
G54D23*X136807Y72807D03*
X104838Y102807D03*
G54D22*G36*
X147323Y166150D02*X154323D01*
Y159150D01*
X147323D01*
Y166150D01*
G37*
G54D23*X140823Y162650D03*
G54D22*G36*
X111338Y166150D02*X118338D01*
Y159150D01*
X111338D01*
Y166150D01*
G37*
G54D23*X104838Y162650D03*
G54D21*X205000Y153500D03*
G54D22*G36*
X349291Y166150D02*X356291D01*
Y159150D01*
X349291D01*
Y166150D01*
G37*
G54D23*X342791Y162650D03*
G54D22*G36*
X349291Y196071D02*X356291D01*
Y189071D01*
X349291D01*
Y196071D01*
G37*
G36*
X385275D02*X392275D01*
Y189071D01*
X385275D01*
Y196071D01*
G37*
G54D23*X378775Y192571D03*
X414760D03*
X342791D03*
G54D22*G36*
X421260Y166150D02*X428260D01*
Y159150D01*
X421260D01*
Y166150D01*
G37*
G36*
X428260Y196071D02*Y189071D01*
X421260D01*
Y196071D01*
X428260D01*
G37*
G36*
X385275Y166150D02*X392275D01*
Y159150D01*
X385275D01*
Y166150D01*
G37*
G54D23*X378775Y162650D03*
X414760D03*
G54D21*X224000Y133500D03*
G54D22*G36*
X349291Y136228D02*X356291D01*
Y129228D01*
X349291D01*
Y136228D01*
G37*
G54D23*X342791Y132728D03*
G54D22*G36*
X421260Y136228D02*X428260D01*
Y129228D01*
X421260D01*
Y136228D01*
G37*
G54D23*X414760Y132728D03*
G54D22*G36*
X385275Y136228D02*X392275D01*
Y129228D01*
X385275D01*
Y136228D01*
G37*
G54D23*X378775Y132728D03*
G54D21*X223000Y126500D03*
X219000Y115500D03*
X226000Y119500D03*
X219000Y107500D03*
X226000Y101500D03*
X240000Y94500D03*
X252000Y89500D03*
X264000Y85500D03*
X247000Y72500D03*
G54D22*G36*
X233307Y76307D02*X240307D01*
Y69307D01*
X233307D01*
Y76307D01*
G37*
G54D23*X226807Y72807D03*
G54D21*X277000Y72500D03*
G54D22*G36*
X263307Y76307D02*X270307D01*
Y69307D01*
X263307D01*
Y76307D01*
G37*
G54D23*X256807Y72807D03*
G54D22*G36*
X203307Y76307D02*X210307D01*
Y69307D01*
X203307D01*
Y76307D01*
G37*
G54D21*X57700Y436700D03*
X65000Y364370D03*
G54D22*G36*
X75354Y375598D02*X82354D01*
Y368598D01*
X75354D01*
Y375598D01*
G37*
G54D23*X68854Y372098D03*
G54D21*X69000Y351000D03*
Y321000D03*
X65000Y334449D03*
G54D22*G36*
X75354Y345677D02*X82354D01*
Y338677D01*
X75354D01*
Y345677D01*
G37*
G54D23*X68854Y342177D03*
G54D21*X139400Y359400D03*
Y351600D03*
Y330400D03*
Y322600D03*
G54D22*G36*
X111338Y345677D02*X118338D01*
Y338677D01*
X111338D01*
Y345677D01*
G37*
G54D23*X104838Y342177D03*
G54D22*G36*
X111338Y375598D02*X118338D01*
Y368598D01*
X111338D01*
Y375598D01*
G37*
G36*
X147323D02*X154323D01*
Y368598D01*
X147323D01*
Y375598D01*
G37*
G54D23*X140823Y372098D03*
X104838D03*
G54D21*X69000Y291000D03*
X65000Y304528D03*
G54D22*G36*
X75354Y285835D02*X82354D01*
Y278835D01*
X75354D01*
Y285835D01*
G37*
G54D23*X68854Y282335D03*
G54D22*G36*
X75354Y315756D02*X82354D01*
Y308756D01*
X75354D01*
Y315756D01*
G37*
G54D23*X68854Y312256D03*
G54D22*G36*
X75354Y255913D02*X82354D01*
Y248913D01*
X75354D01*
Y255913D01*
G37*
G54D23*X68854Y252413D03*
G54D22*G36*
X147323Y345677D02*X154323D01*
Y338677D01*
X147323D01*
Y345677D01*
G37*
G54D23*X140823Y342177D03*
G54D21*X139400Y269900D03*
Y300400D03*
Y292600D03*
Y262100D03*
G54D22*G36*
X111338Y255913D02*X118338D01*
Y248913D01*
X111338D01*
Y255913D01*
G37*
G54D21*X139400Y240400D03*
Y232600D03*
G54D23*X104838Y252413D03*
G54D22*G36*
X147323Y255913D02*X154323D01*
Y248913D01*
X147323D01*
Y255913D01*
G37*
G54D23*X140823Y252413D03*
G54D22*G36*
X111338Y285835D02*X118338D01*
Y278835D01*
X111338D01*
Y285835D01*
G37*
G36*
X147323D02*X154323D01*
Y278835D01*
X147323D01*
Y285835D01*
G37*
G54D23*X140823Y282335D03*
X104838D03*
G54D22*G36*
X111338Y315756D02*X118338D01*
Y308756D01*
X111338D01*
Y315756D01*
G37*
G54D23*X104838Y312256D03*
G54D22*G36*
X147323Y315756D02*X154323D01*
Y308756D01*
X147323D01*
Y315756D01*
G37*
G54D23*X140823Y312256D03*
G54D21*X380000Y237500D03*
G54D22*G36*
X385275Y225992D02*X392275D01*
Y218992D01*
X385275D01*
Y225992D01*
G37*
G54D23*X378775Y222492D03*
G54D22*G36*
X421260Y225992D02*X428260D01*
Y218992D01*
X421260D01*
Y225992D01*
G37*
G54D23*X414760Y222492D03*
G54D22*G36*
X421260Y255913D02*X428260D01*
Y248913D01*
X421260D01*
Y255913D01*
G37*
G54D23*X414760Y252413D03*
G54D22*G36*
X385275Y255913D02*X392275D01*
Y248913D01*
X385275D01*
Y255913D01*
G37*
G54D23*X378775Y252413D03*
X342791Y312256D03*
Y252413D03*
Y282335D03*
G54D21*X356000Y242500D03*
G54D22*G36*
X349291Y225992D02*X356291D01*
Y218992D01*
X349291D01*
Y225992D01*
G37*
G54D23*X342791Y222492D03*
G54D22*G36*
X349291Y255913D02*X356291D01*
Y248913D01*
X349291D01*
Y255913D01*
G37*
G54D23*X342791Y342177D03*
G54D21*X356000Y332500D03*
Y362000D03*
G54D22*G36*
X349291Y345677D02*X356291D01*
Y338677D01*
X349291D01*
Y345677D01*
G37*
G54D21*X356000Y272500D03*
Y302000D03*
G54D22*G36*
X349291Y285835D02*X356291D01*
Y278835D01*
X349291D01*
Y285835D01*
G37*
G36*
Y315756D02*X356291D01*
Y308756D01*
X349291D01*
Y315756D01*
G37*
G54D21*X380000Y327500D03*
Y357000D03*
X437000Y352500D03*
G54D22*G36*
X421260Y345677D02*X428260D01*
Y338677D01*
X421260D01*
Y345677D01*
G37*
G54D23*X414760Y342177D03*
G54D22*G36*
X421260Y315756D02*X428260D01*
Y308756D01*
X421260D01*
Y315756D01*
G37*
G54D23*X414760Y312256D03*
G54D21*X437000Y323500D03*
Y294500D03*
G54D22*G36*
X385275Y315756D02*X392275D01*
Y308756D01*
X385275D01*
Y315756D01*
G37*
G54D23*X378775Y312256D03*
G54D22*G36*
X385275Y345677D02*X392275D01*
Y338677D01*
X385275D01*
Y345677D01*
G37*
G54D23*X378775Y342177D03*
G54D21*X380000Y297000D03*
Y267500D03*
G54D22*G36*
X421260Y285835D02*X428260D01*
Y278835D01*
X421260D01*
Y285835D01*
G37*
G54D23*X414760Y282335D03*
G54D22*G36*
X385275Y285835D02*X392275D01*
Y278835D01*
X385275D01*
Y285835D01*
G37*
G54D23*X378775Y282335D03*
G54D21*X69000Y261500D03*
Y231500D03*
Y201500D03*
G54D22*G36*
X75354Y225992D02*X82354D01*
Y218992D01*
X75354D01*
Y225992D01*
G37*
G54D23*X68854Y222492D03*
G54D21*X69000Y171500D03*
X65000Y155000D03*
X69000Y141500D03*
X65000Y125000D03*
G54D22*G36*
X111338Y225992D02*X118338D01*
Y218992D01*
X111338D01*
Y225992D01*
G37*
G54D23*X104838Y222492D03*
G54D21*X65000Y184921D03*
G54D22*G36*
X111338Y196071D02*X118338D01*
Y189071D01*
X111338D01*
Y196071D01*
G37*
G54D23*X104838Y192571D03*
G54D22*G36*
X82354Y196071D02*Y189071D01*
X75354D01*
Y196071D01*
X82354D01*
G37*
G54D23*X68854Y192571D03*
G54D22*G36*
X147323Y196071D02*X154323D01*
Y189071D01*
X147323D01*
Y196071D01*
G37*
G54D23*X140823Y192571D03*
G54D22*G36*
X147323Y225992D02*X154323D01*
Y218992D01*
X147323D01*
Y225992D01*
G37*
G54D23*X140823Y222492D03*
G54D22*G36*
X75354Y166150D02*X82354D01*
Y159150D01*
X75354D01*
Y166150D01*
G37*
G54D23*X68854Y162650D03*
G54D21*X69000Y111500D03*
G54D22*G36*
X75354Y136228D02*X82354D01*
Y129228D01*
X75354D01*
Y136228D01*
G37*
G54D23*X68854Y132728D03*
G54D22*G36*
X75354Y106307D02*X82354D01*
Y99307D01*
X75354D01*
Y106307D01*
G37*
G54D23*X68854Y102807D03*
G54D21*X65000Y95000D03*
G54D22*G36*
X53307Y76307D02*X60307D01*
Y69307D01*
X53307D01*
Y76307D01*
G37*
G54D23*X46807Y72807D03*
G54D22*G36*
X83307Y76307D02*X90307D01*
Y69307D01*
X83307D01*
Y76307D01*
G37*
G54D23*X76807Y72807D03*
G54D21*X65000Y274606D03*
Y214764D03*
Y244685D03*
G54D24*G54D25*G54D26*G54D25*G54D26*G54D25*G54D26*G54D24*G54D25*G54D26*G54D25*G54D26*G54D25*G54D26*G54D25*G54D26*G54D25*G54D24*G54D26*G54D24*G54D25*G54D26*G54D25*G54D26*G54D25*G54D26*G54D25*G54D26*G54D25*G54D26*G54D25*G54D26*G54D25*G54D26*G54D25*G54D26*G54D25*G54D26*G54D25*G54D26*G54D25*G54D26*G54D25*G54D26*G54D25*G54D26*G54D25*G54D26*G54D25*G54D26*G54D25*G54D26*G54D25*G54D26*G54D25*G54D26*G54D25*G54D26*G54D25*G54D26*G54D25*G54D26*G54D25*G54D26*G54D25*G54D26*G54D25*G54D26*G54D25*G54D26*G54D25*G54D26*G54D25*M02*
