G04 start of page 14 for group -1 layer_idx 16777221 *
G04 Title: liplight-art, <virtual group> *
G04 Creator: pcb-rnd 2.0.0 *
G04 CreationDate: 2018-08-04 21:30:55 UTC *
G04 For:  *
G04 Format: Gerber/RS-274X *
G04 PCB-Dimensions: 506299 506299 *
G04 PCB-Coordinate-Origin: lower left *
%MOIN*%
%FSLAX25Y25*%
%LNFAB*%
%ADD49C,0.0100*%
%ADD48C,0.0075*%
%ADD47C,0.0060*%
%ADD46C,0.0080*%
G54D46*X126378Y429868D02*Y426668D01*
X124778Y428268D02*X127978D01*
X212362Y118214D02*Y115014D01*
X210762Y116614D02*X213962D01*
X438307Y433135D02*Y429935D01*
X436707Y431535D02*X439907D01*
X352362Y118214D02*Y115014D01*
X350762Y116614D02*X353962D01*
X15000Y549149D02*Y545949D01*
X13400Y547549D02*X16600D01*
G54D47*X135000Y549799D02*X136500Y546799D01*
X138000Y549799D01*
X136500Y546799D02*Y543799D01*
X139800Y547099D02*X142050D01*
X139800Y543799D02*X142800D01*
X139800Y549799D02*Y543799D01*
Y549799D02*X142800D01*
X147600D02*X148350Y549049D01*
X145350Y549799D02*X147600D01*
X144600Y549049D02*X145350Y549799D01*
X144600Y549049D02*Y547549D01*
X145350Y546799D01*
X147600D01*
X148350Y546049D01*
Y544549D01*
X147600Y543799D02*X148350Y544549D01*
X145350Y543799D02*X147600D01*
X144600Y544549D02*X145350Y543799D01*
X98000Y546049D02*X101000Y549799D01*
X98000Y546049D02*X101750D01*
X101000Y549799D02*Y543799D01*
X45000Y549049D02*X45750Y549799D01*
X48000D01*
X48750Y549049D01*
Y547549D01*
X45000Y543799D02*X48750Y547549D01*
X45000Y543799D02*X48750D01*
X50550D02*X51300D01*
X53100Y549799D02*X56100D01*
X53100D02*Y546799D01*
X53850Y547549D01*
X55350D01*
X56100Y546799D01*
Y544549D01*
X55350Y543799D02*X56100Y544549D01*
X53850Y543799D02*X55350D01*
X53100Y544549D02*X53850Y543799D01*
X57900Y548599D02*X59100Y549799D01*
Y543799D01*
X57900D02*X60150D01*
X114409Y441732D02*Y440132D01*
Y441732D02*X115796Y442532D01*
X114409Y441732D02*X113023Y442532D01*
X104409Y441732D02*Y440132D01*
Y441732D02*X105796Y442532D01*
X104409Y441732D02*X103023Y442532D01*
X140394Y411811D02*Y410211D01*
Y411811D02*X141780Y412611D01*
X140394Y411811D02*X139007Y412611D01*
X114409Y411811D02*Y410211D01*
Y411811D02*X115796Y412611D01*
X114409Y411811D02*X113023Y412611D01*
X104409Y411811D02*Y410211D01*
Y411811D02*X105796Y412611D01*
X104409Y411811D02*X103023Y412611D01*
X150394Y411811D02*Y410211D01*
Y411811D02*X151780Y412611D01*
X150394Y411811D02*X149007Y412611D01*
X186378Y411811D02*Y410211D01*
Y411811D02*X187765Y412611D01*
X186378Y411811D02*X184991Y412611D01*
X176378Y411811D02*Y410211D01*
Y411811D02*X177765Y412611D01*
X176378Y411811D02*X174991Y412611D01*
X150394Y441732D02*Y440132D01*
Y441732D02*X151780Y442532D01*
X150394Y441732D02*X149007Y442532D01*
X140394Y441732D02*Y440132D01*
Y441732D02*X141780Y442532D01*
X140394Y441732D02*X139007Y442532D01*
X186378Y441732D02*Y440132D01*
Y441732D02*X187765Y442532D01*
X186378Y441732D02*X184991Y442532D01*
X176378Y441732D02*Y440132D01*
Y441732D02*X177765Y442532D01*
X176378Y441732D02*X174991Y442532D01*
X92362Y82598D02*Y80998D01*
Y82598D02*X93749Y83398D01*
X92362Y82598D02*X90976Y83398D01*
X82362Y82598D02*Y80998D01*
Y82598D02*X83749Y83398D01*
X82362Y82598D02*X80976Y83398D01*
X122362Y82598D02*Y80998D01*
Y82598D02*X123749Y83398D01*
X122362Y82598D02*X120976Y83398D01*
X112362Y82598D02*Y80998D01*
Y82598D02*X113749Y83398D01*
X112362Y82598D02*X110976Y83398D01*
X142362Y82598D02*Y80998D01*
Y82598D02*X143749Y83398D01*
X142362Y82598D02*X140976Y83398D01*
X186378Y112598D02*Y110998D01*
Y112598D02*X187765Y113398D01*
X186378Y112598D02*X184991Y113398D01*
X176378Y112598D02*Y110998D01*
Y112598D02*X177765Y113398D01*
X176378Y112598D02*X174991Y113398D01*
X152362Y82598D02*Y80998D01*
Y82598D02*X153749Y83398D01*
X152362Y82598D02*X150976Y83398D01*
X182362Y82598D02*Y80998D01*
Y82598D02*X183749Y83398D01*
X182362Y82598D02*X180976Y83398D01*
X172362Y82598D02*Y80998D01*
Y82598D02*X173749Y83398D01*
X172362Y82598D02*X170976Y83398D01*
X212362Y82598D02*Y80998D01*
Y82598D02*X213749Y83398D01*
X212362Y82598D02*X210976Y83398D01*
X202362Y82598D02*Y80998D01*
Y82598D02*X203749Y83398D01*
X202362Y82598D02*X200976Y83398D01*
X150394Y112598D02*Y110998D01*
Y112598D02*X151780Y113398D01*
X150394Y112598D02*X149007Y113398D01*
X140394Y112598D02*Y110998D01*
Y112598D02*X141780Y113398D01*
X140394Y112598D02*X139007Y113398D01*
X114409Y112598D02*Y110998D01*
Y112598D02*X115796Y113398D01*
X114409Y112598D02*X113023Y113398D01*
X104409Y112598D02*Y110998D01*
Y112598D02*X105796Y113398D01*
X104409Y112598D02*X103023Y113398D01*
X242362Y82598D02*Y80998D01*
Y82598D02*X243749Y83398D01*
X242362Y82598D02*X240976Y83398D01*
X272362Y82598D02*Y80998D01*
Y82598D02*X273749Y83398D01*
X272362Y82598D02*X270976Y83398D01*
X262362Y82598D02*Y80998D01*
Y82598D02*X263749Y83398D01*
X262362Y82598D02*X260976Y83398D01*
X302362Y82598D02*Y80998D01*
Y82598D02*X303749Y83398D01*
X302362Y82598D02*X300976Y83398D01*
X292362Y82598D02*Y80998D01*
Y82598D02*X293749Y83398D01*
X292362Y82598D02*X290976Y83398D01*
X232362Y82598D02*Y80998D01*
Y82598D02*X233749Y83398D01*
X232362Y82598D02*X230976Y83398D01*
X150394Y202362D02*Y200762D01*
Y202362D02*X151780Y203162D01*
X150394Y202362D02*X149007Y203162D01*
X140394Y202362D02*Y200762D01*
Y202362D02*X141780Y203162D01*
X140394Y202362D02*X139007Y203162D01*
X150394Y172441D02*Y170841D01*
Y172441D02*X151780Y173241D01*
X150394Y172441D02*X149007Y173241D01*
X140394Y172441D02*Y170841D01*
Y172441D02*X141780Y173241D01*
X140394Y172441D02*X139007Y173241D01*
X114409Y142520D02*Y140920D01*
Y142520D02*X115796Y143320D01*
X114409Y142520D02*X113023Y143320D01*
X150394Y142520D02*Y140920D01*
Y142520D02*X151780Y143320D01*
X150394Y142520D02*X149007Y143320D01*
X140394Y142520D02*Y140920D01*
Y142520D02*X141780Y143320D01*
X140394Y142520D02*X139007Y143320D01*
X150394Y232283D02*Y230683D01*
Y232283D02*X151780Y233083D01*
X150394Y232283D02*X149007Y233083D01*
X140394Y232283D02*Y230683D01*
Y232283D02*X141780Y233083D01*
X140394Y232283D02*X139007Y233083D01*
X150394Y351969D02*Y350369D01*
Y351969D02*X151780Y352769D01*
X150394Y351969D02*X149007Y352769D01*
X150394Y381890D02*Y380290D01*
Y381890D02*X151780Y382690D01*
X150394Y381890D02*X149007Y382690D01*
X150394Y262205D02*Y260605D01*
Y262205D02*X151780Y263005D01*
X150394Y262205D02*X149007Y263005D01*
X150394Y292126D02*Y290526D01*
Y292126D02*X151780Y292926D01*
X150394Y292126D02*X149007Y292926D01*
X150394Y322047D02*Y320447D01*
Y322047D02*X151780Y322847D01*
X150394Y322047D02*X149007Y322847D01*
X140394Y351969D02*Y350369D01*
Y351969D02*X141780Y352769D01*
X140394Y351969D02*X139007Y352769D01*
X140394Y381890D02*Y380290D01*
Y381890D02*X141780Y382690D01*
X140394Y381890D02*X139007Y382690D01*
X140394Y262205D02*Y260605D01*
Y262205D02*X141780Y263005D01*
X140394Y262205D02*X139007Y263005D01*
X140394Y292126D02*Y290526D01*
Y292126D02*X141780Y292926D01*
X140394Y292126D02*X139007Y292926D01*
X140394Y322047D02*Y320447D01*
Y322047D02*X141780Y322847D01*
X140394Y322047D02*X139007Y322847D01*
X186378Y202362D02*Y200762D01*
Y202362D02*X187765Y203162D01*
X186378Y202362D02*X184991Y203162D01*
X176378Y202362D02*Y200762D01*
Y202362D02*X177765Y203162D01*
X176378Y202362D02*X174991Y203162D01*
X104409Y142520D02*Y140920D01*
Y142520D02*X105796Y143320D01*
X104409Y142520D02*X103023Y143320D01*
X186378Y142520D02*Y140920D01*
Y142520D02*X187765Y143320D01*
X186378Y142520D02*X184991Y143320D01*
X176378Y142520D02*Y140920D01*
Y142520D02*X177765Y143320D01*
X176378Y142520D02*X174991Y143320D01*
X186378Y172441D02*Y170841D01*
Y172441D02*X187765Y173241D01*
X186378Y172441D02*X184991Y173241D01*
X176378Y172441D02*Y170841D01*
Y172441D02*X177765Y173241D01*
X176378Y172441D02*X174991Y173241D01*
X186378Y232283D02*Y230683D01*
Y232283D02*X187765Y233083D01*
X186378Y232283D02*X184991Y233083D01*
X176378Y232283D02*Y230683D01*
Y232283D02*X177765Y233083D01*
X176378Y232283D02*X174991Y233083D01*
X186378Y351969D02*Y350369D01*
Y351969D02*X187765Y352769D01*
X186378Y351969D02*X184991Y352769D01*
X186378Y381890D02*Y380290D01*
Y381890D02*X187765Y382690D01*
X186378Y381890D02*X184991Y382690D01*
X186378Y262205D02*Y260605D01*
Y262205D02*X187765Y263005D01*
X186378Y262205D02*X184991Y263005D01*
X186378Y292126D02*Y290526D01*
Y292126D02*X187765Y292926D01*
X186378Y292126D02*X184991Y292926D01*
X186378Y322047D02*Y320447D01*
Y322047D02*X187765Y322847D01*
X186378Y322047D02*X184991Y322847D01*
X176378Y351969D02*Y350369D01*
Y351969D02*X177765Y352769D01*
X176378Y351969D02*X174991Y352769D01*
X176378Y381890D02*Y380290D01*
Y381890D02*X177765Y382690D01*
X176378Y381890D02*X174991Y382690D01*
X176378Y262205D02*Y260605D01*
Y262205D02*X177765Y263005D01*
X176378Y262205D02*X174991Y263005D01*
X176378Y292126D02*Y290526D01*
Y292126D02*X177765Y292926D01*
X176378Y292126D02*X174991Y292926D01*
X176378Y322047D02*Y320447D01*
Y322047D02*X177765Y322847D01*
X176378Y322047D02*X174991Y322847D01*
X114409Y262205D02*Y260605D01*
Y262205D02*X115796Y263005D01*
X114409Y262205D02*X113023Y263005D01*
X114409Y292126D02*Y290526D01*
Y292126D02*X115796Y292926D01*
X114409Y292126D02*X113023Y292926D01*
X114409Y322047D02*Y320447D01*
Y322047D02*X115796Y322847D01*
X114409Y322047D02*X113023Y322847D01*
X114409Y351969D02*Y350369D01*
Y351969D02*X115796Y352769D01*
X114409Y351969D02*X113023Y352769D01*
X114409Y172441D02*Y170841D01*
Y172441D02*X115796Y173241D01*
X114409Y172441D02*X113023Y173241D01*
X114409Y202362D02*Y200762D01*
Y202362D02*X115796Y203162D01*
X114409Y202362D02*X113023Y203162D01*
X114409Y232283D02*Y230683D01*
Y232283D02*X115796Y233083D01*
X114409Y232283D02*X113023Y233083D01*
X114409Y381890D02*Y380290D01*
Y381890D02*X115796Y382690D01*
X114409Y381890D02*X113023Y382690D01*
X104409Y262205D02*Y260605D01*
Y262205D02*X105796Y263005D01*
X104409Y262205D02*X103023Y263005D01*
X104409Y292126D02*Y290526D01*
Y292126D02*X105796Y292926D01*
X104409Y292126D02*X103023Y292926D01*
X104409Y322047D02*Y320447D01*
Y322047D02*X105796Y322847D01*
X104409Y322047D02*X103023Y322847D01*
X104409Y351969D02*Y350369D01*
Y351969D02*X105796Y352769D01*
X104409Y351969D02*X103023Y352769D01*
X104409Y172441D02*Y170841D01*
Y172441D02*X105796Y173241D01*
X104409Y172441D02*X103023Y173241D01*
X104409Y202362D02*Y200762D01*
Y202362D02*X105796Y203162D01*
X104409Y202362D02*X103023Y203162D01*
X104409Y232283D02*Y230683D01*
Y232283D02*X105796Y233083D01*
X104409Y232283D02*X103023Y233083D01*
X104409Y381890D02*Y380290D01*
Y381890D02*X105796Y382690D01*
X104409Y381890D02*X103023Y382690D01*
X424331Y441732D02*Y440132D01*
Y441732D02*X425717Y442532D01*
X424331Y441732D02*X422944Y442532D01*
X414331Y441732D02*Y440132D01*
Y441732D02*X415717Y442532D01*
X414331Y441732D02*X412944Y442532D01*
X460315Y441732D02*Y440132D01*
Y441732D02*X461702Y442532D01*
X460315Y441732D02*X458928Y442532D01*
X450315Y441732D02*Y440132D01*
Y441732D02*X451702Y442532D01*
X450315Y441732D02*X448928Y442532D01*
X424331Y322047D02*Y320447D01*
Y322047D02*X425717Y322847D01*
X424331Y322047D02*X422944Y322847D01*
X414331Y322047D02*Y320447D01*
Y322047D02*X415717Y322847D01*
X414331Y322047D02*X412944Y322847D01*
X424331Y351969D02*Y350369D01*
Y351969D02*X425717Y352769D01*
X424331Y351969D02*X422944Y352769D01*
X414331Y351969D02*Y350369D01*
Y351969D02*X415717Y352769D01*
X414331Y351969D02*X412944Y352769D01*
X460315Y411811D02*Y410211D01*
Y411811D02*X461702Y412611D01*
X460315Y411811D02*X458928Y412611D01*
X450315Y411811D02*Y410211D01*
Y411811D02*X451702Y412611D01*
X450315Y411811D02*X448928Y412611D01*
X460315Y381890D02*Y380290D01*
Y381890D02*X461702Y382690D01*
X460315Y381890D02*X458928Y382690D01*
X450315Y381890D02*Y380290D01*
Y381890D02*X451702Y382690D01*
X450315Y381890D02*X448928Y382690D01*
X424331Y411811D02*Y410211D01*
Y411811D02*X425717Y412611D01*
X424331Y411811D02*X422944Y412611D01*
X414331Y411811D02*Y410211D01*
Y411811D02*X415717Y412611D01*
X414331Y411811D02*X412944Y412611D01*
X424331Y381890D02*Y380290D01*
Y381890D02*X425717Y382690D01*
X424331Y381890D02*X422944Y382690D01*
X414331Y381890D02*Y380290D01*
Y381890D02*X415717Y382690D01*
X414331Y381890D02*X412944Y382690D01*
X388346Y112598D02*Y110998D01*
Y112598D02*X389733Y113398D01*
X388346Y112598D02*X386960Y113398D01*
X378346Y112598D02*Y110998D01*
Y112598D02*X379733Y113398D01*
X378346Y112598D02*X376960Y113398D01*
X442362Y82598D02*Y80998D01*
Y82598D02*X443749Y83398D01*
X442362Y82598D02*X440976Y83398D01*
X422362Y82598D02*Y80998D01*
Y82598D02*X423749Y83398D01*
X422362Y82598D02*X420976Y83398D01*
X412362Y82598D02*Y80998D01*
Y82598D02*X413749Y83398D01*
X412362Y82598D02*X410976Y83398D01*
X392362Y82598D02*Y80998D01*
Y82598D02*X393749Y83398D01*
X392362Y82598D02*X390976Y83398D01*
X452362Y82598D02*Y80998D01*
Y82598D02*X453749Y83398D01*
X452362Y82598D02*X450976Y83398D01*
X482362Y82598D02*Y80998D01*
Y82598D02*X483749Y83398D01*
X482362Y82598D02*X480976Y83398D01*
X472362Y82598D02*Y80998D01*
Y82598D02*X473749Y83398D01*
X472362Y82598D02*X470976Y83398D01*
X382362Y82598D02*Y80998D01*
Y82598D02*X383749Y83398D01*
X382362Y82598D02*X380976Y83398D01*
X460315Y112598D02*Y110998D01*
Y112598D02*X461702Y113398D01*
X460315Y112598D02*X458928Y113398D01*
X450315Y112598D02*Y110998D01*
Y112598D02*X451702Y113398D01*
X450315Y112598D02*X448928Y113398D01*
X424331Y112598D02*Y110998D01*
Y112598D02*X425717Y113398D01*
X424331Y112598D02*X422944Y113398D01*
X414331Y112598D02*Y110998D01*
Y112598D02*X415717Y113398D01*
X414331Y112598D02*X412944Y113398D01*
X332362Y82598D02*Y80998D01*
Y82598D02*X333749Y83398D01*
X332362Y82598D02*X330976Y83398D01*
X362362Y82598D02*Y80998D01*
Y82598D02*X363749Y83398D01*
X362362Y82598D02*X360976Y83398D01*
X352362Y82598D02*Y80998D01*
Y82598D02*X353749Y83398D01*
X352362Y82598D02*X350976Y83398D01*
X322362Y82598D02*Y80998D01*
Y82598D02*X323749Y83398D01*
X322362Y82598D02*X320976Y83398D01*
X388346Y142520D02*Y140920D01*
Y142520D02*X389733Y143320D01*
X388346Y142520D02*X386960Y143320D01*
X414331Y172441D02*Y170841D01*
Y172441D02*X415717Y173241D01*
X414331Y172441D02*X412944Y173241D01*
X424331Y142520D02*Y140920D01*
Y142520D02*X425717Y143320D01*
X424331Y142520D02*X422944Y143320D01*
X414331Y142520D02*Y140920D01*
Y142520D02*X415717Y143320D01*
X414331Y142520D02*X412944Y143320D01*
X424331Y172441D02*Y170841D01*
Y172441D02*X425717Y173241D01*
X424331Y172441D02*X422944Y173241D01*
X450315Y172441D02*Y170841D01*
Y172441D02*X451702Y173241D01*
X450315Y172441D02*X448928Y173241D01*
X460315Y202362D02*Y200762D01*
Y202362D02*X461702Y203162D01*
X460315Y202362D02*X458928Y203162D01*
X450315Y202362D02*Y200762D01*
Y202362D02*X451702Y203162D01*
X450315Y202362D02*X448928Y203162D01*
X460315Y142520D02*Y140920D01*
Y142520D02*X461702Y143320D01*
X460315Y142520D02*X458928Y143320D01*
X450315Y142520D02*Y140920D01*
Y142520D02*X451702Y143320D01*
X450315Y142520D02*X448928Y143320D01*
X460315Y172441D02*Y170841D01*
Y172441D02*X461702Y173241D01*
X460315Y172441D02*X458928Y173241D01*
X460315Y232283D02*Y230683D01*
Y232283D02*X461702Y233083D01*
X460315Y232283D02*X458928Y233083D01*
X424331Y232283D02*Y230683D01*
Y232283D02*X425717Y233083D01*
X424331Y232283D02*X422944Y233083D01*
X414331Y232283D02*Y230683D01*
Y232283D02*X415717Y233083D01*
X414331Y232283D02*X412944Y233083D01*
X424331Y262205D02*Y260605D01*
Y262205D02*X425717Y263005D01*
X424331Y262205D02*X422944Y263005D01*
X414331Y262205D02*Y260605D01*
Y262205D02*X415717Y263005D01*
X414331Y262205D02*X412944Y263005D01*
X424331Y202362D02*Y200762D01*
Y202362D02*X425717Y203162D01*
X424331Y202362D02*X422944Y203162D01*
X414331Y202362D02*Y200762D01*
Y202362D02*X415717Y203162D01*
X414331Y202362D02*X412944Y203162D01*
X450315Y232283D02*Y230683D01*
Y232283D02*X451702Y233083D01*
X450315Y232283D02*X448928Y233083D01*
X424331Y292126D02*Y290526D01*
Y292126D02*X425717Y292926D01*
X424331Y292126D02*X422944Y292926D01*
X414331Y292126D02*Y290526D01*
Y292126D02*X415717Y292926D01*
X414331Y292126D02*X412944Y292926D01*
X460315Y262205D02*Y260605D01*
Y262205D02*X461702Y263005D01*
X460315Y262205D02*X458928Y263005D01*
X460315Y292126D02*Y290526D01*
Y292126D02*X461702Y292926D01*
X460315Y292126D02*X458928Y292926D01*
X460315Y322047D02*Y320447D01*
Y322047D02*X461702Y322847D01*
X460315Y322047D02*X458928Y322847D01*
X460315Y351969D02*Y350369D01*
Y351969D02*X461702Y352769D01*
X460315Y351969D02*X458928Y352769D01*
X450315Y262205D02*Y260605D01*
Y262205D02*X451702Y263005D01*
X450315Y262205D02*X448928Y263005D01*
X450315Y292126D02*Y290526D01*
Y292126D02*X451702Y292926D01*
X450315Y292126D02*X448928Y292926D01*
X450315Y322047D02*Y320447D01*
Y322047D02*X451702Y322847D01*
X450315Y322047D02*X448928Y322847D01*
X450315Y351969D02*Y350369D01*
Y351969D02*X451702Y352769D01*
X450315Y351969D02*X448928Y352769D01*
X378346Y142520D02*Y140920D01*
Y142520D02*X379733Y143320D01*
X378346Y142520D02*X376960Y143320D01*
X388346Y262205D02*Y260605D01*
Y262205D02*X389733Y263005D01*
X388346Y262205D02*X386960Y263005D01*
X388346Y292126D02*Y290526D01*
Y292126D02*X389733Y292926D01*
X388346Y292126D02*X386960Y292926D01*
X388346Y322047D02*Y320447D01*
Y322047D02*X389733Y322847D01*
X388346Y322047D02*X386960Y322847D01*
X388346Y351969D02*Y350369D01*
Y351969D02*X389733Y352769D01*
X388346Y351969D02*X386960Y352769D01*
X388346Y172441D02*Y170841D01*
Y172441D02*X389733Y173241D01*
X388346Y172441D02*X386960Y173241D01*
X388346Y202362D02*Y200762D01*
Y202362D02*X389733Y203162D01*
X388346Y202362D02*X386960Y203162D01*
X388346Y232283D02*Y230683D01*
Y232283D02*X389733Y233083D01*
X388346Y232283D02*X386960Y233083D01*
X388346Y381890D02*Y380290D01*
Y381890D02*X389733Y382690D01*
X388346Y381890D02*X386960Y382690D01*
X388346Y411811D02*Y410211D01*
Y411811D02*X389733Y412611D01*
X388346Y411811D02*X386960Y412611D01*
X388346Y441732D02*Y440132D01*
Y441732D02*X389733Y442532D01*
X388346Y441732D02*X386960Y442532D01*
X378346Y262205D02*Y260605D01*
Y262205D02*X379733Y263005D01*
X378346Y262205D02*X376960Y263005D01*
X378346Y292126D02*Y290526D01*
Y292126D02*X379733Y292926D01*
X378346Y292126D02*X376960Y292926D01*
X378346Y322047D02*Y320447D01*
Y322047D02*X379733Y322847D01*
X378346Y322047D02*X376960Y322847D01*
X378346Y351969D02*Y350369D01*
Y351969D02*X379733Y352769D01*
X378346Y351969D02*X376960Y352769D01*
X378346Y172441D02*Y170841D01*
Y172441D02*X379733Y173241D01*
X378346Y172441D02*X376960Y173241D01*
X378346Y202362D02*Y200762D01*
Y202362D02*X379733Y203162D01*
X378346Y202362D02*X376960Y203162D01*
X378346Y232283D02*Y230683D01*
Y232283D02*X379733Y233083D01*
X378346Y232283D02*X376960Y233083D01*
X378346Y381890D02*Y380290D01*
Y381890D02*X379733Y382690D01*
X378346Y381890D02*X376960Y382690D01*
X378346Y411811D02*Y410211D01*
Y411811D02*X379733Y412611D01*
X378346Y411811D02*X376960Y412611D01*
X378346Y441732D02*Y440132D01*
Y441732D02*X379733Y442532D01*
X378346Y441732D02*X376960Y442532D01*
X15000Y562549D02*Y560949D01*
Y562549D02*X16387Y563349D01*
X15000Y562549D02*X13613Y563349D01*
X135000Y564799D02*X136500Y561799D01*
X138000Y564799D01*
X136500Y561799D02*Y558799D01*
X139800Y562099D02*X142050D01*
X139800Y558799D02*X142800D01*
X139800Y564799D02*Y558799D01*
Y564799D02*X142800D01*
X147600D02*X148350Y564049D01*
X145350Y564799D02*X147600D01*
X144600Y564049D02*X145350Y564799D01*
X144600Y564049D02*Y562549D01*
X145350Y561799D01*
X147600D01*
X148350Y561049D01*
Y559549D01*
X147600Y558799D02*X148350Y559549D01*
X145350Y558799D02*X147600D01*
X144600Y559549D02*X145350Y558799D01*
X98000Y563599D02*X99200Y564799D01*
Y558799D01*
X98000D02*X100250D01*
X102800D02*X105800Y564799D01*
X102050D02*X105800D01*
X107600Y564049D02*X108350Y564799D01*
X110600D01*
X111350Y564049D01*
Y562549D01*
X107600Y558799D02*X111350Y562549D01*
X107600Y558799D02*X111350D01*
X45000Y559549D02*X45750Y558799D01*
X45000Y564049D02*Y559549D01*
Y564049D02*X45750Y564799D01*
X47250D01*
X48000Y564049D01*
Y559549D01*
X47250Y558799D02*X48000Y559549D01*
X45750Y558799D02*X47250D01*
X45000Y560299D02*X48000Y563299D01*
X49800Y558799D02*X50550D01*
X53100D02*X56100Y564799D01*
X52350D02*X56100D01*
X57900Y563599D02*X59100Y564799D01*
Y558799D01*
X57900D02*X60150D01*
X3000Y579799D02*X3750Y579049D01*
X750Y579799D02*X3000D01*
X0Y579049D02*X750Y579799D01*
X0Y579049D02*Y577549D01*
X750Y576799D01*
X3000D01*
X3750Y576049D01*
Y574549D01*
X3000Y573799D02*X3750Y574549D01*
X750Y573799D02*X3000D01*
X0Y574549D02*X750Y573799D01*
X5550Y576799D02*Y574549D01*
X6300Y573799D01*
X8550Y576799D02*Y572299D01*
X7800Y571549D02*X8550Y572299D01*
X6300Y571549D02*X7800D01*
X5550Y572299D02*X6300Y571549D01*
Y573799D02*X7800D01*
X8550Y574549D01*
X11100Y576049D02*Y573799D01*
Y576049D02*X11850Y576799D01*
X12600D01*
X13350Y576049D01*
Y573799D01*
Y576049D02*X14100Y576799D01*
X14850D01*
X15600Y576049D01*
Y573799D01*
X10350Y576799D02*X11100Y576049D01*
X17400Y579799D02*Y573799D01*
Y574549D02*X18150Y573799D01*
X19650D01*
X20400Y574549D01*
Y576049D02*Y574549D01*
X19650Y576799D02*X20400Y576049D01*
X18150Y576799D02*X19650D01*
X17400Y576049D02*X18150Y576799D01*
X22200Y576049D02*Y574549D01*
Y576049D02*X22950Y576799D01*
X24450D01*
X25200Y576049D01*
Y574549D01*
X24450Y573799D02*X25200Y574549D01*
X22950Y573799D02*X24450D01*
X22200Y574549D02*X22950Y573799D01*
X27000Y579799D02*Y574549D01*
X27750Y573799D01*
X0Y570549D02*X29250D01*
X41750Y579799D02*Y573799D01*
X43700Y579799D02*X44750Y578749D01*
Y574849D01*
X43700Y573799D02*X44750Y574849D01*
X41000Y573799D02*X43700D01*
X41000Y579799D02*X43700D01*
G54D48*X46550Y578299D02*Y578149D01*
G54D47*Y576049D02*Y573799D01*
X50300Y576799D02*X51050Y576049D01*
X48800Y576799D02*X50300D01*
X48050Y576049D02*X48800Y576799D01*
X48050Y576049D02*Y574549D01*
X48800Y573799D01*
X51050Y576799D02*Y574549D01*
X51800Y573799D01*
X48800D02*X50300D01*
X51050Y574549D01*
X54350Y576049D02*Y573799D01*
Y576049D02*X55100Y576799D01*
X55850D01*
X56600Y576049D01*
Y573799D01*
Y576049D02*X57350Y576799D01*
X58100D01*
X58850Y576049D01*
Y573799D01*
X53600Y576799D02*X54350Y576049D01*
X60650Y573799D02*X61400D01*
X65900Y574549D02*X66650Y573799D01*
X65900Y579049D02*X66650Y579799D01*
X65900Y579049D02*Y574549D01*
X69200Y576049D02*Y573799D01*
Y576049D02*X69950Y576799D01*
X70700D01*
X71450Y576049D01*
Y573799D01*
Y576049D02*X72200Y576799D01*
X72950D01*
X73700Y576049D01*
Y573799D01*
X68450Y576799D02*X69200Y576049D01*
X76250D02*Y573799D01*
Y576049D02*X77000Y576799D01*
X77750D01*
X78500Y576049D01*
Y573799D01*
Y576049D02*X79250Y576799D01*
X80000D01*
X80750Y576049D01*
Y573799D01*
X75500Y576799D02*X76250Y576049D01*
X82550Y579799D02*X83300Y579049D01*
Y574549D01*
X82550Y573799D02*X83300Y574549D01*
X41000Y570549D02*X85100D01*
X96050Y573799D02*X98000D01*
X95000Y574849D02*X96050Y573799D01*
X95000Y578749D02*Y574849D01*
Y578749D02*X96050Y579799D01*
X98000D01*
X99800Y576049D02*Y574549D01*
Y576049D02*X100550Y576799D01*
X102050D01*
X102800Y576049D01*
Y574549D01*
X102050Y573799D02*X102800Y574549D01*
X100550Y573799D02*X102050D01*
X99800Y574549D02*X100550Y573799D01*
X104600Y576799D02*Y574549D01*
X105350Y573799D01*
X106850D01*
X107600Y574549D01*
Y576799D02*Y574549D01*
X110150Y576049D02*Y573799D01*
Y576049D02*X110900Y576799D01*
X111650D01*
X112400Y576049D01*
Y573799D01*
X109400Y576799D02*X110150Y576049D01*
X114950Y579799D02*Y574549D01*
X115700Y573799D01*
X114200Y577549D02*X115700D01*
X95000Y570549D02*X117200D01*
X130750Y579799D02*Y573799D01*
X130000Y579799D02*X133000D01*
X133750Y579049D01*
Y577549D01*
X133000Y576799D02*X133750Y577549D01*
X130750Y576799D02*X133000D01*
X135550Y579799D02*Y574549D01*
X136300Y573799D01*
X140050Y576799D02*X140800Y576049D01*
X138550Y576799D02*X140050D01*
X137800Y576049D02*X138550Y576799D01*
X137800Y576049D02*Y574549D01*
X138550Y573799D01*
X140800Y576799D02*Y574549D01*
X141550Y573799D01*
X138550D02*X140050D01*
X140800Y574549D01*
X144100Y579799D02*Y574549D01*
X144850Y573799D01*
X143350Y577549D02*X144850D01*
X147100Y573799D02*X149350D01*
X146350Y574549D02*X147100Y573799D01*
X146350Y576049D02*Y574549D01*
Y576049D02*X147100Y576799D01*
X148600D01*
X149350Y576049D01*
X146350Y575299D02*X149350D01*
Y576049D02*Y575299D01*
X154150Y579799D02*Y573799D01*
X153400D02*X154150Y574549D01*
X151900Y573799D02*X153400D01*
X151150Y574549D02*X151900Y573799D01*
X151150Y576049D02*Y574549D01*
Y576049D02*X151900Y576799D01*
X153400D01*
X154150Y576049D01*
X157450Y576799D02*Y576049D01*
Y574549D02*Y573799D01*
X155950Y579049D02*Y578299D01*
Y579049D02*X156700Y579799D01*
X158200D01*
X158950Y579049D01*
Y578299D01*
X157450Y576799D02*X158950Y578299D01*
X130000Y570549D02*X160750D01*
X0Y594799D02*X3000D01*
X1500D02*Y588799D01*
X4800Y594799D02*Y588799D01*
Y591049D02*X5550Y591799D01*
X7050D01*
X7800Y591049D01*
Y588799D01*
X10350D02*X12600D01*
X9600Y589549D02*X10350Y588799D01*
X9600Y591049D02*Y589549D01*
Y591049D02*X10350Y591799D01*
X11850D01*
X12600Y591049D01*
X9600Y590299D02*X12600D01*
Y591049D02*Y590299D01*
X15150Y591049D02*Y588799D01*
Y591049D02*X15900Y591799D01*
X17400D01*
X14400D02*X15150Y591049D01*
X19950Y588799D02*X22200D01*
X19200Y589549D02*X19950Y588799D01*
X19200Y591049D02*Y589549D01*
Y591049D02*X19950Y591799D01*
X21450D01*
X22200Y591049D01*
X19200Y590299D02*X22200D01*
Y591049D02*Y590299D01*
X28950Y591799D02*X29700Y591049D01*
X27450Y591799D02*X28950D01*
X26700Y591049D02*X27450Y591799D01*
X26700Y591049D02*Y589549D01*
X27450Y588799D01*
X29700Y591799D02*Y589549D01*
X30450Y588799D01*
X27450D02*X28950D01*
X29700Y589549D01*
X33000Y591049D02*Y588799D01*
Y591049D02*X33750Y591799D01*
X35250D01*
X32250D02*X33000Y591049D01*
X37800Y588799D02*X40050D01*
X37050Y589549D02*X37800Y588799D01*
X37050Y591049D02*Y589549D01*
Y591049D02*X37800Y591799D01*
X39300D01*
X40050Y591049D01*
X37050Y590299D02*X40050D01*
Y591049D02*Y590299D01*
X44550Y594049D02*X45300Y594799D01*
X47550D01*
X48300Y594049D01*
Y592549D01*
X44550Y588799D02*X48300Y592549D01*
X44550Y588799D02*X48300D01*
X55800Y594799D02*Y588799D01*
X55050D02*X55800Y589549D01*
X53550Y588799D02*X55050D01*
X52800Y589549D02*X53550Y588799D01*
X52800Y591049D02*Y589549D01*
Y591049D02*X53550Y591799D01*
X55050D01*
X55800Y591049D01*
G54D48*X57600Y593299D02*Y593149D01*
G54D47*Y591049D02*Y588799D01*
X59850Y594049D02*Y588799D01*
Y594049D02*X60600Y594799D01*
X61350D01*
X59100Y591799D02*X60600D01*
X63600Y594049D02*Y588799D01*
Y594049D02*X64350Y594799D01*
X65100D01*
X62850Y591799D02*X64350D01*
X67350Y588799D02*X69600D01*
X66600Y589549D02*X67350Y588799D01*
X66600Y591049D02*Y589549D01*
Y591049D02*X67350Y591799D01*
X68850D01*
X69600Y591049D01*
X66600Y590299D02*X69600D01*
Y591049D02*Y590299D01*
X72150Y591049D02*Y588799D01*
Y591049D02*X72900Y591799D01*
X74400D01*
X71400D02*X72150Y591049D01*
X76950Y588799D02*X79200D01*
X76200Y589549D02*X76950Y588799D01*
X76200Y591049D02*Y589549D01*
Y591049D02*X76950Y591799D01*
X78450D01*
X79200Y591049D01*
X76200Y590299D02*X79200D01*
Y591049D02*Y590299D01*
X81750Y591049D02*Y588799D01*
Y591049D02*X82500Y591799D01*
X83250D01*
X84000Y591049D01*
Y588799D01*
X81000Y591799D02*X81750Y591049D01*
X86550Y594799D02*Y589549D01*
X87300Y588799D01*
X85800Y592549D02*X87300D01*
X94500Y594799D02*Y588799D01*
X93750D02*X94500Y589549D01*
X92250Y588799D02*X93750D01*
X91500Y589549D02*X92250Y588799D01*
X91500Y591049D02*Y589549D01*
Y591049D02*X92250Y591799D01*
X93750D01*
X94500Y591049D01*
X97050D02*Y588799D01*
Y591049D02*X97800Y591799D01*
X99300D01*
X96300D02*X97050Y591049D01*
G54D48*X101100Y593299D02*Y593149D01*
G54D47*Y591049D02*Y588799D01*
X102600Y594799D02*Y589549D01*
X103350Y588799D01*
X104850Y594799D02*Y589549D01*
X105600Y588799D01*
X110550D02*X112800D01*
X113550Y589549D01*
X112800Y590299D02*X113550Y589549D01*
X110550Y590299D02*X112800D01*
X109800Y591049D02*X110550Y590299D01*
X109800Y591049D02*X110550Y591799D01*
X112800D01*
X113550Y591049D01*
X109800Y589549D02*X110550Y588799D01*
G54D48*X115350Y593299D02*Y593149D01*
G54D47*Y591049D02*Y588799D01*
X116850Y591799D02*X119850D01*
X116850Y588799D02*X119850Y591799D01*
X116850Y588799D02*X119850D01*
X122400D02*X124650D01*
X121650Y589549D02*X122400Y588799D01*
X121650Y591049D02*Y589549D01*
Y591049D02*X122400Y591799D01*
X123900D01*
X124650Y591049D01*
X121650Y590299D02*X124650D01*
Y591049D02*Y590299D01*
X127200Y588799D02*X129450D01*
X130200Y589549D01*
X129450Y590299D02*X130200Y589549D01*
X127200Y590299D02*X129450D01*
X126450Y591049D02*X127200Y590299D01*
X126450Y591049D02*X127200Y591799D01*
X129450D01*
X130200Y591049D01*
X126450Y589549D02*X127200Y588799D01*
X134700Y591799D02*Y589549D01*
X135450Y588799D01*
X136950D01*
X137700Y589549D01*
Y591799D02*Y589549D01*
X140250Y588799D02*X142500D01*
X143250Y589549D01*
X142500Y590299D02*X143250Y589549D01*
X140250Y590299D02*X142500D01*
X139500Y591049D02*X140250Y590299D01*
X139500Y591049D02*X140250Y591799D01*
X142500D01*
X143250Y591049D01*
X139500Y589549D02*X140250Y588799D01*
X145800D02*X148050D01*
X145050Y589549D02*X145800Y588799D01*
X145050Y591049D02*Y589549D01*
Y591049D02*X145800Y591799D01*
X147300D01*
X148050Y591049D01*
X145050Y590299D02*X148050D01*
Y591049D02*Y590299D01*
X152850Y594799D02*Y588799D01*
X152100D02*X152850Y589549D01*
X150600Y588799D02*X152100D01*
X149850Y589549D02*X150600Y588799D01*
X149850Y591049D02*Y589549D01*
Y591049D02*X150600Y591799D01*
X152100D01*
X152850Y591049D01*
G54D48*X157350Y593299D02*Y593149D01*
G54D47*Y591049D02*Y588799D01*
X159600Y591049D02*Y588799D01*
Y591049D02*X160350Y591799D01*
X161100D01*
X161850Y591049D01*
Y588799D01*
X158850Y591799D02*X159600Y591049D01*
X167100Y594799D02*Y589549D01*
X167850Y588799D01*
X166350Y592549D02*X167850D01*
X169350Y594799D02*Y588799D01*
Y591049D02*X170100Y591799D01*
X171600D01*
X172350Y591049D01*
Y588799D01*
G54D48*X174150Y593299D02*Y593149D01*
G54D47*Y591049D02*Y588799D01*
X176400D02*X178650D01*
X179400Y589549D01*
X178650Y590299D02*X179400Y589549D01*
X176400Y590299D02*X178650D01*
X175650Y591049D02*X176400Y590299D01*
X175650Y591049D02*X176400Y591799D01*
X178650D01*
X179400Y591049D01*
X175650Y589549D02*X176400Y588799D01*
X183900Y594799D02*Y589549D01*
X184650Y588799D01*
X188400Y591799D02*X189150Y591049D01*
X186900Y591799D02*X188400D01*
X186150Y591049D02*X186900Y591799D01*
X186150Y591049D02*Y589549D01*
X186900Y588799D01*
X189150Y591799D02*Y589549D01*
X189900Y588799D01*
X186900D02*X188400D01*
X189150Y589549D01*
X191700Y591799D02*Y589549D01*
X192450Y588799D01*
X194700Y591799D02*Y587299D01*
X193950Y586549D02*X194700Y587299D01*
X192450Y586549D02*X193950D01*
X191700Y587299D02*X192450Y586549D01*
Y588799D02*X193950D01*
X194700Y589549D01*
X196500Y591049D02*Y589549D01*
Y591049D02*X197250Y591799D01*
X198750D01*
X199500Y591049D01*
Y589549D01*
X198750Y588799D02*X199500Y589549D01*
X197250Y588799D02*X198750D01*
X196500Y589549D02*X197250Y588799D01*
X201300Y591799D02*Y589549D01*
X202050Y588799D01*
X203550D01*
X204300Y589549D01*
Y591799D02*Y589549D01*
X206850Y594799D02*Y589549D01*
X207600Y588799D01*
X206100Y592549D02*X207600D01*
X209100Y587299D02*X210600Y588799D01*
X215100Y593599D02*X216300Y594799D01*
Y588799D01*
X215100D02*X217350D01*
X219900D02*X222900Y594799D01*
X219150D02*X222900D01*
X226950D02*X227700Y594049D01*
X225450Y594799D02*X226950D01*
X224700Y594049D02*X225450Y594799D01*
X224700Y594049D02*Y589549D01*
X225450Y588799D01*
X226950Y592099D02*X227700Y591349D01*
X224700Y592099D02*X226950D01*
X225450Y588799D02*X226950D01*
X227700Y589549D01*
Y591349D02*Y589549D01*
X232200Y594799D02*Y588799D01*
Y591049D02*X232950Y591799D01*
X234450D01*
X235200Y591049D01*
Y588799D01*
X237000Y591049D02*Y589549D01*
Y591049D02*X237750Y591799D01*
X239250D01*
X240000Y591049D01*
Y589549D01*
X239250Y588799D02*X240000Y589549D01*
X237750Y588799D02*X239250D01*
X237000Y589549D02*X237750Y588799D01*
X241800Y594799D02*Y589549D01*
X242550Y588799D01*
X244800D02*X247050D01*
X244050Y589549D02*X244800Y588799D01*
X244050Y591049D02*Y589549D01*
Y591049D02*X244800Y591799D01*
X246300D01*
X247050Y591049D01*
X244050Y590299D02*X247050D01*
Y591049D02*Y590299D01*
X249600Y588799D02*X251850D01*
X252600Y589549D01*
X251850Y590299D02*X252600Y589549D01*
X249600Y590299D02*X251850D01*
X248850Y591049D02*X249600Y590299D01*
X248850Y591049D02*X249600Y591799D01*
X251850D01*
X252600Y591049D01*
X248850Y589549D02*X249600Y588799D01*
X257850Y594799D02*Y589549D01*
X258600Y588799D01*
X257100Y592549D02*X258600D01*
X260100Y591049D02*Y589549D01*
Y591049D02*X260850Y591799D01*
X262350D01*
X263100Y591049D01*
Y589549D01*
X262350Y588799D02*X263100Y589549D01*
X260850Y588799D02*X262350D01*
X260100Y589549D02*X260850Y588799D01*
X265650Y594799D02*Y589549D01*
X266400Y588799D01*
X264900Y592549D02*X266400D01*
X270150Y591799D02*X270900Y591049D01*
X268650Y591799D02*X270150D01*
X267900Y591049D02*X268650Y591799D01*
X267900Y591049D02*Y589549D01*
X268650Y588799D01*
X270900Y591799D02*Y589549D01*
X271650Y588799D01*
X268650D02*X270150D01*
X270900Y589549D01*
X273450Y594799D02*Y589549D01*
X274200Y588799D01*
G54D49*X203228Y171614D02*X361496D01*
X369370Y179488D02*Y448740D01*
X377244Y456614D02*X480472D01*
X488346Y448740D02*Y56496D01*
X480472Y48622D02*X84252D01*
X76378Y56496D02*Y448740D01*
X187480Y456614D02*X84252D01*
X195354Y448740D02*Y179488D01*
X203228Y171614D02*G75*G02X195354Y179488I0J7874D01*G01*
X369370D02*G75*G02X361496Y171614I-7874J0D01*G01*
X488346Y56496D02*G75*G02X480472Y48622I-7874J0D01*G01*
Y456614D02*G75*G02X488346Y448740I0J-7874D01*G01*
X84252Y48622D02*G75*G02X76378Y56496I0J7874D01*G01*
Y448740D02*G75*G02X84252Y456614I7874J0D01*G01*
X369370Y448740D02*G75*G02X377244Y456614I7874J0D01*G01*
X187480D02*G75*G02X195354Y448740I0J-7874D01*G01*
G54D47*X166824Y-9500D02*X169824D01*
X170574Y-8750D01*
Y-6950D02*Y-8750D01*
X169824Y-6200D02*X170574Y-6950D01*
X167574Y-6200D02*X169824D01*
X167574Y-3500D02*Y-9500D01*
X166824Y-3500D02*X169824D01*
X170574Y-4250D01*
Y-5450D01*
X169824Y-6200D02*X170574Y-5450D01*
X172375Y-7250D02*Y-8750D01*
Y-7250D02*X173125Y-6500D01*
X174625D01*
X175375Y-7250D01*
Y-8750D01*
X174625Y-9500D02*X175375Y-8750D01*
X173125Y-9500D02*X174625D01*
X172375Y-8750D02*X173125Y-9500D01*
X179425Y-6500D02*X180175Y-7250D01*
X177925Y-6500D02*X179425D01*
X177175Y-7250D02*X177925Y-6500D01*
X177175Y-7250D02*Y-8750D01*
X177925Y-9500D01*
X180175Y-6500D02*Y-8750D01*
X180925Y-9500D01*
X177925D02*X179425D01*
X180175Y-8750D01*
X183475Y-7250D02*Y-9500D01*
Y-7250D02*X184225Y-6500D01*
X185725D01*
X182725D02*X183475Y-7250D01*
X190525Y-3500D02*Y-9500D01*
X189775D02*X190525Y-8750D01*
X188275Y-9500D02*X189775D01*
X187525Y-8750D02*X188275Y-9500D01*
X187525Y-7250D02*Y-8750D01*
Y-7250D02*X188275Y-6500D01*
X189775D01*
X190525Y-7250D01*
X195025D02*Y-8750D01*
Y-7250D02*X195775Y-6500D01*
X197275D01*
X198025Y-7250D01*
Y-8750D01*
X197275Y-9500D02*X198025Y-8750D01*
X195775Y-9500D02*X197275D01*
X195025Y-8750D02*X195775Y-9500D01*
X199825Y-6500D02*Y-8750D01*
X200575Y-9500D01*
X202075D01*
X202825Y-8750D01*
Y-6500D02*Y-8750D01*
X205375Y-3500D02*Y-8750D01*
X206125Y-9500D01*
X204625Y-5750D02*X206125D01*
X207625Y-3500D02*Y-8750D01*
X208375Y-9500D01*
G54D48*X209875Y-5000D02*Y-5150D01*
G54D47*Y-7250D02*Y-9500D01*
X212125Y-7250D02*Y-9500D01*
Y-7250D02*X212875Y-6500D01*
X213625D01*
X214375Y-7250D01*
Y-9500D01*
X211375Y-6500D02*X212125Y-7250D01*
X216925Y-9500D02*X219175D01*
X216175Y-8750D02*X216925Y-9500D01*
X216175Y-7250D02*Y-8750D01*
Y-7250D02*X216925Y-6500D01*
X218425D01*
X219175Y-7250D01*
X216175Y-8000D02*X219175D01*
Y-7250D02*Y-8000D01*
G54D48*X223675Y-5000D02*Y-5150D01*
G54D47*Y-7250D02*Y-9500D01*
X225925D02*X228175D01*
X228925Y-8750D01*
X228175Y-8000D02*X228925Y-8750D01*
X225925Y-8000D02*X228175D01*
X225175Y-7250D02*X225925Y-8000D01*
X225175Y-7250D02*X225925Y-6500D01*
X228175D01*
X228925Y-7250D01*
X225175Y-8750D02*X225925Y-9500D01*
X234175Y-3500D02*Y-8750D01*
X234925Y-9500D01*
X233425Y-5750D02*X234925D01*
X236425Y-3500D02*Y-9500D01*
Y-7250D02*X237175Y-6500D01*
X238675D01*
X239425Y-7250D01*
Y-9500D01*
X241975D02*X244225D01*
X241225Y-8750D02*X241975Y-9500D01*
X241225Y-7250D02*Y-8750D01*
Y-7250D02*X241975Y-6500D01*
X243475D01*
X244225Y-7250D01*
X241225Y-8000D02*X244225D01*
Y-7250D02*Y-8000D01*
X249475Y-6500D02*X251725D01*
X248725Y-7250D02*X249475Y-6500D01*
X248725Y-7250D02*Y-8750D01*
X249475Y-9500D01*
X251725D01*
X254275D02*X256525D01*
X253525Y-8750D02*X254275Y-9500D01*
X253525Y-7250D02*Y-8750D01*
Y-7250D02*X254275Y-6500D01*
X255775D01*
X256525Y-7250D01*
X253525Y-8000D02*X256525D01*
Y-7250D02*Y-8000D01*
X259075Y-7250D02*Y-9500D01*
Y-7250D02*X259825Y-6500D01*
X260575D01*
X261325Y-7250D01*
Y-9500D01*
X258325Y-6500D02*X259075Y-7250D01*
X263875Y-3500D02*Y-8750D01*
X264625Y-9500D01*
X263125Y-5750D02*X264625D01*
X266875Y-9500D02*X269125D01*
X266125Y-8750D02*X266875Y-9500D01*
X266125Y-7250D02*Y-8750D01*
Y-7250D02*X266875Y-6500D01*
X268375D01*
X269125Y-7250D01*
X266125Y-8000D02*X269125D01*
Y-7250D02*Y-8000D01*
X271675Y-7250D02*Y-9500D01*
Y-7250D02*X272425Y-6500D01*
X273925D01*
X270925D02*X271675Y-7250D01*
X275725Y-3500D02*Y-8750D01*
X276475Y-9500D01*
G54D48*X277975Y-5000D02*Y-5150D01*
G54D47*Y-7250D02*Y-9500D01*
X280225Y-7250D02*Y-9500D01*
Y-7250D02*X280975Y-6500D01*
X281725D01*
X282475Y-7250D01*
Y-9500D01*
X279475Y-6500D02*X280225Y-7250D01*
X285025Y-9500D02*X287275D01*
X284275Y-8750D02*X285025Y-9500D01*
X284275Y-7250D02*Y-8750D01*
Y-7250D02*X285025Y-6500D01*
X286525D01*
X287275Y-7250D01*
X284275Y-8000D02*X287275D01*
Y-7250D02*Y-8000D01*
X291775Y-7250D02*Y-8750D01*
Y-7250D02*X292525Y-6500D01*
X294025D01*
X294775Y-7250D01*
Y-8750D01*
X294025Y-9500D02*X294775Y-8750D01*
X292525Y-9500D02*X294025D01*
X291775Y-8750D02*X292525Y-9500D01*
X297325Y-4250D02*Y-9500D01*
Y-4250D02*X298075Y-3500D01*
X298825D01*
X296575Y-6500D02*X298075D01*
X303775Y-3500D02*Y-8750D01*
X304525Y-9500D01*
X303025Y-5750D02*X304525D01*
X306025Y-3500D02*Y-9500D01*
Y-7250D02*X306775Y-6500D01*
X308275D01*
X309025Y-7250D01*
Y-9500D01*
G54D48*X310825Y-5000D02*Y-5150D01*
G54D47*Y-7250D02*Y-9500D01*
X313075D02*X315325D01*
X316075Y-8750D01*
X315325Y-8000D02*X316075Y-8750D01*
X313075Y-8000D02*X315325D01*
X312325Y-7250D02*X313075Y-8000D01*
X312325Y-7250D02*X313075Y-6500D01*
X315325D01*
X316075Y-7250D01*
X312325Y-8750D02*X313075Y-9500D01*
X321325Y-7250D02*Y-11750D01*
X320575Y-6500D02*X321325Y-7250D01*
X322075Y-6500D01*
X323575D01*
X324325Y-7250D01*
Y-8750D01*
X323575Y-9500D02*X324325Y-8750D01*
X322075Y-9500D02*X323575D01*
X321325Y-8750D02*X322075Y-9500D01*
X328375Y-6500D02*X329125Y-7250D01*
X326875Y-6500D02*X328375D01*
X326125Y-7250D02*X326875Y-6500D01*
X326125Y-7250D02*Y-8750D01*
X326875Y-9500D01*
X329125Y-6500D02*Y-8750D01*
X329875Y-9500D01*
X326875D02*X328375D01*
X329125Y-8750D01*
X332425Y-3500D02*Y-8750D01*
X333175Y-9500D01*
X331675Y-5750D02*X333175D01*
X334675Y-3500D02*Y-9500D01*
Y-7250D02*X335425Y-6500D01*
X336925D01*
X337675Y-7250D01*
Y-9500D01*
X200750Y534799D02*Y528799D01*
X202700Y534799D02*X203750Y533749D01*
Y529849D01*
X202700Y528799D02*X203750Y529849D01*
X200000Y528799D02*X202700D01*
X200000Y534799D02*X202700D01*
X207800Y531799D02*X208550Y531049D01*
X206300Y531799D02*X207800D01*
X205550Y531049D02*X206300Y531799D01*
X205550Y531049D02*Y529549D01*
X206300Y528799D01*
X208550Y531799D02*Y529549D01*
X209300Y528799D01*
X206300D02*X207800D01*
X208550Y529549D01*
X211850Y534799D02*Y529549D01*
X212600Y528799D01*
X211100Y532549D02*X212600D01*
X214850Y528799D02*X217100D01*
X214100Y529549D02*X214850Y528799D01*
X214100Y531049D02*Y529549D01*
Y531049D02*X214850Y531799D01*
X216350D01*
X217100Y531049D01*
X214100Y530299D02*X217100D01*
Y531049D02*Y530299D01*
X218900Y532549D02*X219650D01*
X218900Y531049D02*X219650D01*
X224150Y534049D02*X224900Y534799D01*
X227150D01*
X227900Y534049D01*
Y532549D01*
X224150Y528799D02*X227900Y532549D01*
X224150Y528799D02*X227900D01*
X229700Y529549D02*X230450Y528799D01*
X229700Y534049D02*Y529549D01*
Y534049D02*X230450Y534799D01*
X231950D01*
X232700Y534049D01*
Y529549D01*
X231950Y528799D02*X232700Y529549D01*
X230450Y528799D02*X231950D01*
X229700Y530299D02*X232700Y533299D01*
X234500Y533599D02*X235700Y534799D01*
Y528799D01*
X234500D02*X236750D01*
X238550Y529549D02*X239300Y528799D01*
X238550Y530749D02*Y529549D01*
Y530749D02*X239600Y531799D01*
X240500D01*
X241550Y530749D01*
Y529549D01*
X240800Y528799D02*X241550Y529549D01*
X239300Y528799D02*X240800D01*
X238550Y532849D02*X239600Y531799D01*
X238550Y534049D02*Y532849D01*
Y534049D02*X239300Y534799D01*
X240800D01*
X241550Y534049D01*
Y532849D01*
X240500Y531799D02*X241550Y532849D01*
X243350Y531799D02*X246350D01*
X248150Y529549D02*X248900Y528799D01*
X248150Y534049D02*Y529549D01*
Y534049D02*X248900Y534799D01*
X250400D01*
X251150Y534049D01*
Y529549D01*
X250400Y528799D02*X251150Y529549D01*
X248900Y528799D02*X250400D01*
X248150Y530299D02*X251150Y533299D01*
X252950Y529549D02*X253700Y528799D01*
X252950Y530749D02*Y529549D01*
Y530749D02*X254000Y531799D01*
X254900D01*
X255950Y530749D01*
Y529549D01*
X255200Y528799D02*X255950Y529549D01*
X253700Y528799D02*X255200D01*
X252950Y532849D02*X254000Y531799D01*
X252950Y534049D02*Y532849D01*
Y534049D02*X253700Y534799D01*
X255200D01*
X255950Y534049D01*
Y532849D01*
X254900Y531799D02*X255950Y532849D01*
X257750Y531799D02*X260750D01*
X262550Y529549D02*X263300Y528799D01*
X262550Y534049D02*Y529549D01*
Y534049D02*X263300Y534799D01*
X264800D01*
X265550Y534049D01*
Y529549D01*
X264800Y528799D02*X265550Y529549D01*
X263300Y528799D02*X264800D01*
X262550Y530299D02*X265550Y533299D01*
X267350Y531049D02*X270350Y534799D01*
X267350Y531049D02*X271100D01*
X270350Y534799D02*Y528799D01*
X275600Y534049D02*X276350Y534799D01*
X278600D01*
X279350Y534049D01*
Y532549D01*
X275600Y528799D02*X279350Y532549D01*
X275600Y528799D02*X279350D01*
X281150Y533599D02*X282350Y534799D01*
Y528799D01*
X281150D02*X283400D01*
X285200Y532549D02*X285950D01*
X285200Y531049D02*X285950D01*
X287750Y534049D02*X288500Y534799D01*
X290000D01*
X290750Y534049D01*
X290000Y528799D02*X290750Y529549D01*
X288500Y528799D02*X290000D01*
X287750Y529549D02*X288500Y528799D01*
Y532099D02*X290000D01*
X290750Y534049D02*Y532849D01*
Y531349D02*Y529549D01*
Y531349D02*X290000Y532099D01*
X290750Y532849D02*X290000Y532099D01*
X292550Y529549D02*X293300Y528799D01*
X292550Y534049D02*Y529549D01*
Y534049D02*X293300Y534799D01*
X294800D01*
X295550Y534049D01*
Y529549D01*
X294800Y528799D02*X295550Y529549D01*
X293300Y528799D02*X294800D01*
X292550Y530299D02*X295550Y533299D01*
X297350Y532549D02*X298100D01*
X297350Y531049D02*X298100D01*
X299900Y534799D02*X302900D01*
X299900D02*Y531799D01*
X300650Y532549D01*
X302150D01*
X302900Y531799D01*
Y529549D01*
X302150Y528799D02*X302900Y529549D01*
X300650Y528799D02*X302150D01*
X299900Y529549D02*X300650Y528799D01*
X304700Y534799D02*X307700D01*
X304700D02*Y531799D01*
X305450Y532549D01*
X306950D01*
X307700Y531799D01*
Y529549D01*
X306950Y528799D02*X307700Y529549D01*
X305450Y528799D02*X306950D01*
X304700Y529549D02*X305450Y528799D01*
X312200Y534799D02*Y529549D01*
X312950Y528799D01*
X314450D01*
X315200Y529549D01*
Y534799D02*Y529549D01*
X317000Y534799D02*X320000D01*
X318500D02*Y528799D01*
X322850D02*X324800D01*
X321800Y529849D02*X322850Y528799D01*
X321800Y533749D02*Y529849D01*
Y533749D02*X322850Y534799D01*
X324800D01*
X200000Y548299D02*Y543799D01*
Y548299D02*X201050Y549799D01*
X202700D01*
X203750Y548299D01*
Y543799D01*
X200000Y546799D02*X203750D01*
X205550D02*Y544549D01*
X206300Y543799D01*
X207800D01*
X208550Y544549D01*
Y546799D02*Y544549D01*
X211100Y549799D02*Y544549D01*
X211850Y543799D01*
X210350Y547549D02*X211850D01*
X213350Y549799D02*Y543799D01*
Y546049D02*X214100Y546799D01*
X215600D01*
X216350Y546049D01*
Y543799D01*
X218150Y546049D02*Y544549D01*
Y546049D02*X218900Y546799D01*
X220400D01*
X221150Y546049D01*
Y544549D01*
X220400Y543799D02*X221150Y544549D01*
X218900Y543799D02*X220400D01*
X218150Y544549D02*X218900Y543799D01*
X223700Y546049D02*Y543799D01*
Y546049D02*X224450Y546799D01*
X225950D01*
X222950D02*X223700Y546049D01*
X227750Y547549D02*X228500D01*
X227750Y546049D02*X228500D01*
X200000Y564799D02*X203000D01*
X201500D02*Y558799D01*
G54D48*X204800Y563299D02*Y563149D01*
G54D47*Y561049D02*Y558799D01*
X207050Y564799D02*Y559549D01*
X207800Y558799D01*
X206300Y562549D02*X207800D01*
X209300Y564799D02*Y559549D01*
X210050Y558799D01*
X212300D02*X214550D01*
X211550Y559549D02*X212300Y558799D01*
X211550Y561049D02*Y559549D01*
Y561049D02*X212300Y561799D01*
X213800D01*
X214550Y561049D01*
X211550Y560299D02*X214550D01*
Y561049D02*Y560299D01*
X216350Y562549D02*X217100D01*
X216350Y561049D02*X217100D01*
X221600Y564799D02*Y559549D01*
X222350Y558799D01*
G54D48*X223850Y563299D02*Y563149D01*
G54D47*Y561049D02*Y558799D01*
X226100Y561049D02*Y556549D01*
X225350Y561799D02*X226100Y561049D01*
X226850Y561799D01*
X228350D01*
X229100Y561049D01*
Y559549D01*
X228350Y558799D02*X229100Y559549D01*
X226850Y558799D02*X228350D01*
X226100Y559549D02*X226850Y558799D01*
X230900Y564799D02*Y559549D01*
X231650Y558799D01*
G54D48*X233150Y563299D02*Y563149D01*
G54D47*Y561049D02*Y558799D01*
X236900Y561799D02*X237650Y561049D01*
X235400Y561799D02*X236900D01*
X234650Y561049D02*X235400Y561799D01*
X234650Y561049D02*Y559549D01*
X235400Y558799D01*
X236900D01*
X237650Y559549D01*
X234650Y557299D02*X235400Y556549D01*
X236900D01*
X237650Y557299D01*
Y561799D02*Y557299D01*
X239450Y564799D02*Y558799D01*
Y561049D02*X240200Y561799D01*
X241700D01*
X242450Y561049D01*
Y558799D01*
X245000Y564799D02*Y559549D01*
X245750Y558799D01*
X244250Y562549D02*X245750D01*
X247250Y561799D02*X250250D01*
X254300D02*X255050Y561049D01*
X252800Y561799D02*X254300D01*
X252050Y561049D02*X252800Y561799D01*
X252050Y561049D02*Y559549D01*
X252800Y558799D01*
X255050Y561799D02*Y559549D01*
X255800Y558799D01*
X252800D02*X254300D01*
X255050Y559549D01*
X258350Y561049D02*Y558799D01*
Y561049D02*X259100Y561799D01*
X260600D01*
X257600D02*X258350Y561049D01*
X263150Y564799D02*Y559549D01*
X263900Y558799D01*
X262400Y562549D02*X263900D01*
X268100Y561799D02*X271100D01*
X275600Y564799D02*Y558799D01*
Y564799D02*X278600D01*
X275600Y562099D02*X277850D01*
X282650Y561799D02*X283400Y561049D01*
X281150Y561799D02*X282650D01*
X280400Y561049D02*X281150Y561799D01*
X280400Y561049D02*Y559549D01*
X281150Y558799D01*
X283400Y561799D02*Y559549D01*
X284150Y558799D01*
X281150D02*X282650D01*
X283400Y559549D01*
X285950Y564799D02*Y558799D01*
Y559549D02*X286700Y558799D01*
X288200D01*
X288950Y559549D01*
Y561049D02*Y559549D01*
X288200Y561799D02*X288950Y561049D01*
X286700Y561799D02*X288200D01*
X285950Y561049D02*X286700Y561799D01*
X291500Y561049D02*Y558799D01*
Y561049D02*X292250Y561799D01*
X293750D01*
X290750D02*X291500Y561049D01*
G54D48*X295550Y563299D02*Y563149D01*
G54D47*Y561049D02*Y558799D01*
X297800Y561799D02*X300050D01*
X297050Y561049D02*X297800Y561799D01*
X297050Y561049D02*Y559549D01*
X297800Y558799D01*
X300050D01*
X304100Y561799D02*X304850Y561049D01*
X302600Y561799D02*X304100D01*
X301850Y561049D02*X302600Y561799D01*
X301850Y561049D02*Y559549D01*
X302600Y558799D01*
X304850Y561799D02*Y559549D01*
X305600Y558799D01*
X302600D02*X304100D01*
X304850Y559549D01*
X308150Y564799D02*Y559549D01*
X308900Y558799D01*
X307400Y562549D02*X308900D01*
G54D48*X310400Y563299D02*Y563149D01*
G54D47*Y561049D02*Y558799D01*
X311900Y561049D02*Y559549D01*
Y561049D02*X312650Y561799D01*
X314150D01*
X314900Y561049D01*
Y559549D01*
X314150Y558799D02*X314900Y559549D01*
X312650Y558799D02*X314150D01*
X311900Y559549D02*X312650Y558799D01*
X317450Y561049D02*Y558799D01*
Y561049D02*X318200Y561799D01*
X318950D01*
X319700Y561049D01*
Y558799D01*
X316700Y561799D02*X317450Y561049D01*
X324950Y564799D02*Y558799D01*
X326900Y564799D02*X327950Y563749D01*
Y559849D01*
X326900Y558799D02*X327950Y559849D01*
X324200Y558799D02*X326900D01*
X324200Y564799D02*X326900D01*
X330500Y561049D02*Y558799D01*
Y561049D02*X331250Y561799D01*
X332750D01*
X329750D02*X330500Y561049D01*
X336800Y561799D02*X337550Y561049D01*
X335300Y561799D02*X336800D01*
X334550Y561049D02*X335300Y561799D01*
X334550Y561049D02*Y559549D01*
X335300Y558799D01*
X337550Y561799D02*Y559549D01*
X338300Y558799D01*
X335300D02*X336800D01*
X337550Y559549D01*
X340100Y561799D02*Y559549D01*
X340850Y558799D01*
X341600D01*
X342350Y559549D01*
Y561799D02*Y559549D01*
X343100Y558799D01*
X343850D01*
X344600Y559549D01*
Y561799D02*Y559549D01*
G54D48*X346400Y563299D02*Y563149D01*
G54D47*Y561049D02*Y558799D01*
X348650Y561049D02*Y558799D01*
Y561049D02*X349400Y561799D01*
X350150D01*
X350900Y561049D01*
Y558799D01*
X347900Y561799D02*X348650Y561049D01*
X354950Y561799D02*X355700Y561049D01*
X353450Y561799D02*X354950D01*
X352700Y561049D02*X353450Y561799D01*
X352700Y561049D02*Y559549D01*
X353450Y558799D01*
X354950D01*
X355700Y559549D01*
X352700Y557299D02*X353450Y556549D01*
X354950D01*
X355700Y557299D01*
Y561799D02*Y557299D01*
M02*
