G04 start of page 4 for group 7 layer_idx 4 *
G04 Title: liplight-art, Intern *
G04 Creator: pcb-rnd 2.0.0 *
G04 CreationDate: 2018-08-21 02:54:24 UTC *
G04 For:  *
G04 Format: Gerber/RS-274X *
G04 PCB-Dimensions: 636000 660500 *
G04 PCB-Coordinate-Origin: lower left *
%MOIN*%
%FSLAX25Y25*%
%LNGROUP7*%
%ADD34C,0.0280*%
%ADD33C,0.0256*%
%ADD32C,0.0988*%
%ADD31C,0.0700*%
%ADD30C,0.0001*%
%ADD29C,0.0492*%
%ADD28C,0.1181*%
%ADD27C,0.0118*%
G54D27*X78854Y162650D02*Y151354D01*
X75000Y147500D01*
X69000Y171500D02*X93000D01*
X414760Y162650D02*Y157740D01*
X417000Y155500D01*
X443000D01*
X449000Y149500D01*
X93000Y171500D02*X98000Y166500D01*
X449000Y149500D02*Y87500D01*
X441000Y124500D02*X446000Y119500D01*
Y89500D01*
X449000Y87500D02*X442000Y80500D01*
X434000D01*
X446000Y89500D02*X440000Y83500D01*
X433000D01*
X434000Y80500D02*X430000Y76500D01*
X433000Y83500D02*X427000Y77500D01*
X414760Y102807D02*Y96740D01*
X417000Y94500D01*
X419000D01*
X424000Y89500D01*
X430000Y76500D02*Y45500D01*
X427000Y77500D02*Y47500D01*
X424000Y89500D02*Y49500D01*
X70000Y77500D02*X79000Y86500D01*
X67000Y48500D02*Y84500D01*
X73000Y47500D02*X70000Y50500D01*
Y77500D01*
X64000Y46500D02*Y81500D01*
X94000Y78500D02*Y56500D01*
X99000Y51500D01*
X93000Y86500D02*X97000Y82500D01*
Y60500D01*
X100000Y86500D02*Y63500D01*
X97000Y60500D02*X102000Y55500D01*
X100000Y63500D02*X104000Y59500D01*
X98000Y88500D02*X100000Y86500D01*
X422000Y47500D02*X73000D01*
X424000Y44500D02*X71000D01*
X102000Y55500D02*X266000D01*
X104000Y59500D02*X243000D01*
X99000Y51500D02*X295000D01*
X430000Y45500D02*X426000Y41500D01*
X427000Y47500D02*X424000Y44500D01*
Y49500D02*X422000Y47500D01*
X243000Y59500D02*X247000Y63500D01*
Y72500D01*
X277000D02*Y66500D01*
X337000Y62500D02*Y76500D01*
X348000Y87500D01*
X358000D01*
X366000Y95500D01*
Y105500D01*
X277000Y66500D02*X266000Y55500D01*
X295000Y51500D02*X307000Y63500D01*
X59000Y109500D02*X66000Y116500D01*
X75000D01*
X79000Y120500D01*
X69000Y111500D02*X82000D01*
X86000Y107500D01*
X79000Y86500D02*Y102661D01*
X59000Y92500D02*Y109500D01*
X86000Y107500D02*Y86500D01*
X93000Y137500D02*Y86500D01*
X67000Y84500D02*X59000Y92500D01*
X64000Y81500D02*X55000Y90500D01*
X86000Y86500D02*X94000Y78500D01*
X98000Y166500D02*Y88500D01*
X55000Y90500D02*Y137500D01*
X65000Y147500D01*
X75000D02*X65000D01*
X69000Y141500D02*X89000D01*
X93000Y137500D01*
X79000Y102661D02*X78854Y102807D01*
X79000Y120500D02*Y132582D01*
X78854Y132728D01*
X426000Y41500D02*X69000D01*
X64000Y46500D01*
X71000Y44500D02*X67000Y48500D01*
X414760Y132728D02*Y126740D01*
X417000Y124500D01*
X441000D01*
G54D28*X90823Y418476D03*
G54D29*X64500Y420500D03*
X49500Y409500D03*
X69000Y381000D03*
X65000Y394291D03*
G54D30*G36*
X75354Y405520D02*X82354D01*
Y398520D01*
X75354D01*
Y405520D01*
G37*
G54D31*X68854Y402020D03*
G54D29*X139400Y389900D03*
Y382100D03*
Y419900D03*
G54D30*G36*
X147323Y435441D02*X154323D01*
Y428441D01*
X147323D01*
Y435441D01*
G37*
G54D31*X140823Y431941D03*
G54D30*G36*
X111338Y405520D02*X118338D01*
Y398520D01*
X111338D01*
Y405520D01*
G37*
G54D31*X104838Y402020D03*
G54D29*X139400Y412100D03*
G54D30*G36*
X147323Y405520D02*X154323D01*
Y398520D01*
X147323D01*
Y405520D01*
G37*
G54D31*X140823Y402020D03*
G54D30*G36*
X75354Y435441D02*X82354D01*
Y428441D01*
X75354D01*
Y435441D01*
G37*
G36*
X111338D02*X118338D01*
Y428441D01*
X111338D01*
Y435441D01*
G37*
G54D31*X104838Y431941D03*
X68854D03*
G54D28*X402752Y421744D03*
G54D29*X380200Y416100D03*
G54D30*G36*
X385275Y435441D02*X392275D01*
Y428441D01*
X385275D01*
Y435441D01*
G37*
G54D31*X378775Y431941D03*
G54D29*X380000Y387500D03*
G54D30*G36*
X385275Y405520D02*X392275D01*
Y398520D01*
X385275D01*
Y405520D01*
G37*
G54D31*X378775Y402020D03*
G54D29*X437000Y440500D03*
Y410500D03*
G54D30*G36*
X421260Y435441D02*X428260D01*
Y428441D01*
X421260D01*
Y435441D01*
G37*
G36*
Y405520D02*X428260D01*
Y398520D01*
X421260D01*
Y405520D01*
G37*
G54D29*X437000Y380500D03*
G54D30*G36*
X421260Y375598D02*X428260D01*
Y368598D01*
X421260D01*
Y375598D01*
G37*
G54D31*X414760Y431941D03*
Y402020D03*
Y372098D03*
G54D30*G36*
X349291Y375598D02*X356291D01*
Y368598D01*
X349291D01*
Y375598D01*
G37*
G36*
X385275D02*X392275D01*
Y368598D01*
X385275D01*
Y375598D01*
G37*
G54D31*X378775Y372098D03*
X342791D03*
Y402020D03*
G54D30*G36*
X349291Y435441D02*X356291D01*
Y428441D01*
X349291D01*
Y435441D01*
G37*
G54D31*X342791Y431941D03*
G54D30*G36*
X349291Y405520D02*X356291D01*
Y398520D01*
X349291D01*
Y405520D01*
G37*
G54D29*X169000Y138500D03*
X176000Y141500D03*
X183000Y144500D03*
X190000Y147500D03*
X197000Y150500D03*
G54D28*X176807Y106823D03*
G54D30*G36*
X173307Y76307D02*X180307D01*
Y69307D01*
X173307D01*
Y76307D01*
G37*
G54D31*X166807Y72807D03*
X196807D03*
G54D28*X316807Y106823D03*
G54D29*X366000Y105500D03*
G54D30*G36*
X349291Y106307D02*X356291D01*
Y99307D01*
X349291D01*
Y106307D01*
G37*
G54D31*X342791Y102807D03*
G54D29*X307000Y63500D03*
G54D30*G36*
X323307Y76307D02*X330307D01*
Y69307D01*
X323307D01*
Y76307D01*
G37*
G54D31*X316807Y72807D03*
G54D29*X337000Y62500D03*
G54D30*G36*
X353307Y76307D02*X360307D01*
Y69307D01*
X353307D01*
Y76307D01*
G37*
G54D31*X346807Y72807D03*
X406807D03*
G54D30*G36*
X383307Y76307D02*X390307D01*
Y69307D01*
X383307D01*
Y76307D01*
G37*
G54D31*X376807Y72807D03*
G54D30*G36*
X413307Y76307D02*X420307D01*
Y69307D01*
X413307D01*
Y76307D01*
G37*
G36*
X443307D02*X450307D01*
Y69307D01*
X443307D01*
Y76307D01*
G37*
G54D31*X436807Y72807D03*
G54D30*G36*
X421260Y106307D02*X428260D01*
Y99307D01*
X421260D01*
Y106307D01*
G37*
G54D31*X414760Y102807D03*
G54D30*G36*
X392275Y106307D02*Y99307D01*
X385275D01*
Y106307D01*
X392275D01*
G37*
G54D31*X378775Y102807D03*
G54D30*G36*
X293307Y76307D02*X300307D01*
Y69307D01*
X293307D01*
Y76307D01*
G37*
G54D31*X286807Y72807D03*
G54D30*G36*
X111338Y136228D02*X118338D01*
Y129228D01*
X111338D01*
Y136228D01*
G37*
G54D31*X104838Y132728D03*
G54D29*X162000Y135500D03*
G54D30*G36*
X147323Y136228D02*X154323D01*
Y129228D01*
X147323D01*
Y136228D01*
G37*
G54D31*X140823Y132728D03*
G54D30*G36*
X147323Y106307D02*X154323D01*
Y99307D01*
X147323D01*
Y106307D01*
G37*
G54D31*X140823Y102807D03*
G54D30*G36*
X118338Y106307D02*Y99307D01*
X111338D01*
Y106307D01*
X118338D01*
G37*
G36*
X113307Y76307D02*X120307D01*
Y69307D01*
X113307D01*
Y76307D01*
G37*
G54D31*X106807Y72807D03*
G54D30*G36*
X143307Y76307D02*X150307D01*
Y69307D01*
X143307D01*
Y76307D01*
G37*
G54D31*X136807Y72807D03*
X104838Y102807D03*
G54D30*G36*
X147323Y166150D02*X154323D01*
Y159150D01*
X147323D01*
Y166150D01*
G37*
G54D31*X140823Y162650D03*
G54D30*G36*
X111338Y166150D02*X118338D01*
Y159150D01*
X111338D01*
Y166150D01*
G37*
G54D31*X104838Y162650D03*
G54D29*X205000Y153500D03*
G54D30*G36*
X349291Y166150D02*X356291D01*
Y159150D01*
X349291D01*
Y166150D01*
G37*
G54D31*X342791Y162650D03*
G54D30*G36*
X349291Y196071D02*X356291D01*
Y189071D01*
X349291D01*
Y196071D01*
G37*
G36*
X385275D02*X392275D01*
Y189071D01*
X385275D01*
Y196071D01*
G37*
G54D31*X378775Y192571D03*
X414760D03*
X342791D03*
G54D30*G36*
X421260Y166150D02*X428260D01*
Y159150D01*
X421260D01*
Y166150D01*
G37*
G36*
X428260Y196071D02*Y189071D01*
X421260D01*
Y196071D01*
X428260D01*
G37*
G36*
X385275Y166150D02*X392275D01*
Y159150D01*
X385275D01*
Y166150D01*
G37*
G54D31*X378775Y162650D03*
X414760D03*
G54D29*X224000Y133500D03*
G54D30*G36*
X349291Y136228D02*X356291D01*
Y129228D01*
X349291D01*
Y136228D01*
G37*
G54D31*X342791Y132728D03*
G54D30*G36*
X421260Y136228D02*X428260D01*
Y129228D01*
X421260D01*
Y136228D01*
G37*
G54D31*X414760Y132728D03*
G54D30*G36*
X385275Y136228D02*X392275D01*
Y129228D01*
X385275D01*
Y136228D01*
G37*
G54D31*X378775Y132728D03*
G54D29*X223000Y126500D03*
X219000Y115500D03*
X226000Y119500D03*
X219000Y107500D03*
X226000Y101500D03*
X240000Y94500D03*
X252000Y89500D03*
X264000Y85500D03*
X247000Y72500D03*
G54D30*G36*
X233307Y76307D02*X240307D01*
Y69307D01*
X233307D01*
Y76307D01*
G37*
G54D31*X226807Y72807D03*
G54D29*X277000Y72500D03*
G54D30*G36*
X263307Y76307D02*X270307D01*
Y69307D01*
X263307D01*
Y76307D01*
G37*
G54D31*X256807Y72807D03*
G54D30*G36*
X203307Y76307D02*X210307D01*
Y69307D01*
X203307D01*
Y76307D01*
G37*
G54D29*X57700Y436700D03*
X65000Y364370D03*
G54D30*G36*
X75354Y375598D02*X82354D01*
Y368598D01*
X75354D01*
Y375598D01*
G37*
G54D31*X68854Y372098D03*
G54D29*X69000Y351000D03*
Y321000D03*
X65000Y334449D03*
G54D30*G36*
X75354Y345677D02*X82354D01*
Y338677D01*
X75354D01*
Y345677D01*
G37*
G54D31*X68854Y342177D03*
G54D29*X139400Y359400D03*
Y351600D03*
Y330400D03*
Y322600D03*
G54D30*G36*
X111338Y345677D02*X118338D01*
Y338677D01*
X111338D01*
Y345677D01*
G37*
G54D31*X104838Y342177D03*
G54D30*G36*
X111338Y375598D02*X118338D01*
Y368598D01*
X111338D01*
Y375598D01*
G37*
G36*
X147323D02*X154323D01*
Y368598D01*
X147323D01*
Y375598D01*
G37*
G54D31*X140823Y372098D03*
X104838D03*
G54D29*X69000Y291000D03*
X65000Y304528D03*
G54D30*G36*
X75354Y285835D02*X82354D01*
Y278835D01*
X75354D01*
Y285835D01*
G37*
G54D31*X68854Y282335D03*
G54D30*G36*
X75354Y315756D02*X82354D01*
Y308756D01*
X75354D01*
Y315756D01*
G37*
G54D31*X68854Y312256D03*
G54D30*G36*
X75354Y255913D02*X82354D01*
Y248913D01*
X75354D01*
Y255913D01*
G37*
G54D31*X68854Y252413D03*
G54D30*G36*
X147323Y345677D02*X154323D01*
Y338677D01*
X147323D01*
Y345677D01*
G37*
G54D31*X140823Y342177D03*
G54D29*X139400Y269900D03*
Y300400D03*
Y292600D03*
Y262100D03*
G54D30*G36*
X111338Y255913D02*X118338D01*
Y248913D01*
X111338D01*
Y255913D01*
G37*
G54D29*X139400Y240400D03*
Y232600D03*
G54D31*X104838Y252413D03*
G54D30*G36*
X147323Y255913D02*X154323D01*
Y248913D01*
X147323D01*
Y255913D01*
G37*
G54D31*X140823Y252413D03*
G54D30*G36*
X111338Y285835D02*X118338D01*
Y278835D01*
X111338D01*
Y285835D01*
G37*
G36*
X147323D02*X154323D01*
Y278835D01*
X147323D01*
Y285835D01*
G37*
G54D31*X140823Y282335D03*
X104838D03*
G54D30*G36*
X111338Y315756D02*X118338D01*
Y308756D01*
X111338D01*
Y315756D01*
G37*
G54D31*X104838Y312256D03*
G54D30*G36*
X147323Y315756D02*X154323D01*
Y308756D01*
X147323D01*
Y315756D01*
G37*
G54D31*X140823Y312256D03*
G54D29*X380000Y237500D03*
G54D30*G36*
X385275Y225992D02*X392275D01*
Y218992D01*
X385275D01*
Y225992D01*
G37*
G54D31*X378775Y222492D03*
G54D30*G36*
X421260Y225992D02*X428260D01*
Y218992D01*
X421260D01*
Y225992D01*
G37*
G54D31*X414760Y222492D03*
G54D30*G36*
X421260Y255913D02*X428260D01*
Y248913D01*
X421260D01*
Y255913D01*
G37*
G54D31*X414760Y252413D03*
G54D30*G36*
X385275Y255913D02*X392275D01*
Y248913D01*
X385275D01*
Y255913D01*
G37*
G54D31*X378775Y252413D03*
X342791Y312256D03*
Y252413D03*
Y282335D03*
G54D29*X356000Y242500D03*
G54D30*G36*
X349291Y225992D02*X356291D01*
Y218992D01*
X349291D01*
Y225992D01*
G37*
G54D31*X342791Y222492D03*
G54D30*G36*
X349291Y255913D02*X356291D01*
Y248913D01*
X349291D01*
Y255913D01*
G37*
G54D31*X342791Y342177D03*
G54D29*X356000Y332500D03*
Y362000D03*
G54D30*G36*
X349291Y345677D02*X356291D01*
Y338677D01*
X349291D01*
Y345677D01*
G37*
G54D29*X356000Y272500D03*
Y302000D03*
G54D30*G36*
X349291Y285835D02*X356291D01*
Y278835D01*
X349291D01*
Y285835D01*
G37*
G36*
Y315756D02*X356291D01*
Y308756D01*
X349291D01*
Y315756D01*
G37*
G54D29*X380000Y327500D03*
Y357000D03*
X437000Y352500D03*
G54D30*G36*
X421260Y345677D02*X428260D01*
Y338677D01*
X421260D01*
Y345677D01*
G37*
G54D31*X414760Y342177D03*
G54D30*G36*
X421260Y315756D02*X428260D01*
Y308756D01*
X421260D01*
Y315756D01*
G37*
G54D31*X414760Y312256D03*
G54D29*X437000Y323500D03*
Y294500D03*
G54D30*G36*
X385275Y315756D02*X392275D01*
Y308756D01*
X385275D01*
Y315756D01*
G37*
G54D31*X378775Y312256D03*
G54D30*G36*
X385275Y345677D02*X392275D01*
Y338677D01*
X385275D01*
Y345677D01*
G37*
G54D31*X378775Y342177D03*
G54D29*X380000Y297000D03*
Y267500D03*
G54D30*G36*
X421260Y285835D02*X428260D01*
Y278835D01*
X421260D01*
Y285835D01*
G37*
G54D31*X414760Y282335D03*
G54D30*G36*
X385275Y285835D02*X392275D01*
Y278835D01*
X385275D01*
Y285835D01*
G37*
G54D31*X378775Y282335D03*
G54D29*X69000Y261500D03*
Y231500D03*
Y201500D03*
G54D30*G36*
X75354Y225992D02*X82354D01*
Y218992D01*
X75354D01*
Y225992D01*
G37*
G54D31*X68854Y222492D03*
G54D29*X69000Y171500D03*
X65000Y155000D03*
X69000Y141500D03*
X65000Y125000D03*
G54D30*G36*
X111338Y225992D02*X118338D01*
Y218992D01*
X111338D01*
Y225992D01*
G37*
G54D31*X104838Y222492D03*
G54D29*X65000Y184921D03*
G54D30*G36*
X111338Y196071D02*X118338D01*
Y189071D01*
X111338D01*
Y196071D01*
G37*
G54D31*X104838Y192571D03*
G54D30*G36*
X82354Y196071D02*Y189071D01*
X75354D01*
Y196071D01*
X82354D01*
G37*
G54D31*X68854Y192571D03*
G54D30*G36*
X147323Y196071D02*X154323D01*
Y189071D01*
X147323D01*
Y196071D01*
G37*
G54D31*X140823Y192571D03*
G54D30*G36*
X147323Y225992D02*X154323D01*
Y218992D01*
X147323D01*
Y225992D01*
G37*
G54D31*X140823Y222492D03*
G54D30*G36*
X75354Y166150D02*X82354D01*
Y159150D01*
X75354D01*
Y166150D01*
G37*
G54D31*X68854Y162650D03*
G54D29*X69000Y111500D03*
G54D30*G36*
X75354Y136228D02*X82354D01*
Y129228D01*
X75354D01*
Y136228D01*
G37*
G54D31*X68854Y132728D03*
G54D30*G36*
X75354Y106307D02*X82354D01*
Y99307D01*
X75354D01*
Y106307D01*
G37*
G54D31*X68854Y102807D03*
G54D29*X65000Y95000D03*
G54D30*G36*
X53307Y76307D02*X60307D01*
Y69307D01*
X53307D01*
Y76307D01*
G37*
G54D31*X46807Y72807D03*
G54D30*G36*
X83307Y76307D02*X90307D01*
Y69307D01*
X83307D01*
Y76307D01*
G37*
G54D31*X76807Y72807D03*
G54D29*X65000Y274606D03*
Y214764D03*
Y244685D03*
G54D32*G54D33*G54D34*G54D33*G54D34*G54D33*G54D34*G54D32*G54D33*G54D34*G54D33*G54D34*G54D33*G54D34*G54D33*G54D34*G54D33*G54D32*G54D34*G54D32*G54D33*G54D34*G54D33*G54D34*G54D33*G54D34*G54D33*G54D34*G54D33*G54D34*G54D33*G54D34*G54D33*G54D34*G54D33*G54D34*G54D33*G54D34*G54D33*G54D34*G54D33*G54D34*G54D33*G54D34*G54D33*G54D34*G54D33*G54D34*G54D33*G54D34*G54D33*G54D34*G54D33*G54D34*G54D33*G54D34*G54D33*G54D34*G54D33*G54D34*G54D33*G54D34*G54D33*G54D34*G54D33*G54D34*G54D33*G54D34*G54D33*G54D34*G54D33*G54D34*G54D33*M02*
