G04 start of page 2 for group 3 layer_idx 0 *
G04 Title: liplight-art, top_copper *
G04 Creator: pcb-rnd 1.2.4 *
G04 CreationDate: 2017-09-08 03:23:09 UTC *
G04 For:  *
G04 Format: Gerber/RS-274X *
G04 PCB-Dimensions: 506299 506299 *
G04 PCB-Coordinate-Origin: lower left *
%MOIN*%
%FSLAX25Y25*%
%LNTOP*%
%ADD16C,0.0280*%
%ADD15C,0.0988*%
%ADD14C,0.1181*%
%ADD13C,0.0700*%
%ADD12C,0.0295*%
%ADD11C,0.0001*%
G54D11*G36*
X181370Y242257D02*X182547Y241080D01*
Y237247D01*
X182413Y237214D01*
X182195Y237124D01*
X181994Y237001D01*
X181814Y236847D01*
X181661Y236668D01*
X181537Y236467D01*
X181447Y236248D01*
X181392Y236019D01*
X181378Y235783D01*
Y232283D01*
X181370Y232414D01*
Y242257D01*
G37*
G36*
Y177296D02*X181744Y176923D01*
X181661Y176825D01*
X181537Y176624D01*
X181447Y176406D01*
X181392Y176176D01*
X181378Y175941D01*
Y172441D01*
X181370Y172572D01*
Y177296D01*
G37*
G36*
X482362Y457087D02*X496654D01*
Y42323D01*
X482362D01*
Y77598D01*
X485862D01*
X486098Y77612D01*
X486327Y77667D01*
X486545Y77758D01*
X486747Y77881D01*
X486926Y78034D01*
X487079Y78214D01*
X487203Y78415D01*
X487293Y78633D01*
X487348Y78863D01*
X487362Y79098D01*
Y86098D01*
X487348Y86334D01*
X487293Y86563D01*
X487203Y86782D01*
X487079Y86983D01*
X486926Y87162D01*
X486747Y87316D01*
X486545Y87439D01*
X486327Y87529D01*
X486098Y87585D01*
X485862Y87598D01*
X482362D01*
Y457087D01*
G37*
G36*
X472354D02*X482362D01*
Y87598D01*
X478862D01*
X478627Y87585D01*
X478397Y87529D01*
X478179Y87439D01*
X477978Y87316D01*
X477798Y87162D01*
X477645Y86983D01*
X477522Y86782D01*
X477431Y86563D01*
X477376Y86334D01*
X477362Y86098D01*
Y79098D01*
X477376Y78863D01*
X477431Y78633D01*
X477522Y78415D01*
X477645Y78214D01*
X477798Y78034D01*
X477978Y77881D01*
X478179Y77758D01*
X478397Y77667D01*
X478627Y77612D01*
X478862Y77598D01*
X482362D01*
Y42323D01*
X472354D01*
Y77584D01*
X472362Y77583D01*
X473147Y77645D01*
X473912Y77828D01*
X474639Y78130D01*
X475310Y78541D01*
X475909Y79052D01*
X476420Y79650D01*
X476831Y80321D01*
X477132Y81049D01*
X477316Y81814D01*
X477362Y82598D01*
X477316Y83383D01*
X477132Y84148D01*
X476831Y84875D01*
X476420Y85546D01*
X475909Y86145D01*
X475310Y86656D01*
X474639Y87067D01*
X473912Y87368D01*
X473147Y87552D01*
X472362Y87614D01*
X472354Y87613D01*
Y457087D01*
G37*
G36*
X460315D02*X472354D01*
Y87613D01*
X471578Y87552D01*
X470812Y87368D01*
X470085Y87067D01*
X469414Y86656D01*
X468816Y86145D01*
X468305Y85546D01*
X467893Y84875D01*
X467592Y84148D01*
X467409Y83383D01*
X467347Y82598D01*
X467409Y81814D01*
X467592Y81049D01*
X467893Y80321D01*
X468305Y79650D01*
X468816Y79052D01*
X469414Y78541D01*
X470085Y78130D01*
X470812Y77828D01*
X471578Y77645D01*
X472354Y77584D01*
Y42323D01*
X460315D01*
Y107598D01*
X463815D01*
X464050Y107612D01*
X464280Y107667D01*
X464498Y107758D01*
X464699Y107881D01*
X464879Y108034D01*
X465032Y108214D01*
X465156Y108415D01*
X465246Y108633D01*
X465301Y108863D01*
X465315Y109098D01*
Y116098D01*
X465301Y116334D01*
X465246Y116563D01*
X465156Y116782D01*
X465032Y116983D01*
X464879Y117162D01*
X464699Y117316D01*
X464498Y117439D01*
X464280Y117529D01*
X464050Y117585D01*
X463815Y117598D01*
X460315D01*
Y137520D01*
X463815D01*
X464050Y137534D01*
X464280Y137589D01*
X464498Y137679D01*
X464699Y137802D01*
X464879Y137956D01*
X465032Y138135D01*
X465156Y138337D01*
X465246Y138555D01*
X465301Y138784D01*
X465315Y139020D01*
Y146020D01*
X465301Y146255D01*
X465246Y146485D01*
X465156Y146703D01*
X465032Y146904D01*
X464879Y147084D01*
X464699Y147237D01*
X464498Y147360D01*
X464280Y147451D01*
X464050Y147506D01*
X463815Y147520D01*
X460315D01*
Y167441D01*
X463815D01*
X464050Y167455D01*
X464280Y167510D01*
X464498Y167600D01*
X464699Y167724D01*
X464879Y167877D01*
X465032Y168057D01*
X465156Y168258D01*
X465246Y168476D01*
X465301Y168706D01*
X465315Y168941D01*
Y175941D01*
X465301Y176176D01*
X465246Y176406D01*
X465156Y176624D01*
X465032Y176825D01*
X464879Y177005D01*
X464699Y177158D01*
X464498Y177282D01*
X464280Y177372D01*
X464050Y177427D01*
X463815Y177441D01*
X460315D01*
Y197362D01*
X463815D01*
X464050Y197376D01*
X464280Y197431D01*
X464498Y197522D01*
X464699Y197645D01*
X464879Y197798D01*
X465032Y197978D01*
X465156Y198179D01*
X465246Y198397D01*
X465301Y198627D01*
X465315Y198862D01*
Y205862D01*
X465301Y206098D01*
X465246Y206327D01*
X465156Y206545D01*
X465032Y206747D01*
X464879Y206926D01*
X464699Y207079D01*
X464498Y207203D01*
X464280Y207293D01*
X464050Y207348D01*
X463815Y207362D01*
X460315D01*
Y227283D01*
X463815D01*
X464050Y227297D01*
X464280Y227352D01*
X464498Y227443D01*
X464699Y227566D01*
X464879Y227720D01*
X465032Y227899D01*
X465156Y228100D01*
X465246Y228319D01*
X465301Y228548D01*
X465315Y228783D01*
Y235783D01*
X465301Y236019D01*
X465246Y236248D01*
X465156Y236467D01*
X465032Y236668D01*
X464879Y236847D01*
X464699Y237001D01*
X464498Y237124D01*
X464280Y237214D01*
X464050Y237270D01*
X463815Y237283D01*
X460315D01*
Y257205D01*
X463815D01*
X464050Y257219D01*
X464280Y257274D01*
X464498Y257364D01*
X464699Y257487D01*
X464879Y257641D01*
X465032Y257820D01*
X465156Y258022D01*
X465246Y258240D01*
X465301Y258469D01*
X465315Y258705D01*
Y265705D01*
X465301Y265940D01*
X465246Y266170D01*
X465156Y266388D01*
X465032Y266589D01*
X464879Y266769D01*
X464699Y266922D01*
X464498Y267045D01*
X464280Y267136D01*
X464050Y267191D01*
X463815Y267205D01*
X460315D01*
Y287126D01*
X463815D01*
X464050Y287140D01*
X464280Y287195D01*
X464498Y287285D01*
X464699Y287409D01*
X464879Y287562D01*
X465032Y287742D01*
X465156Y287943D01*
X465246Y288161D01*
X465301Y288391D01*
X465315Y288626D01*
Y295626D01*
X465301Y295861D01*
X465246Y296091D01*
X465156Y296309D01*
X465032Y296510D01*
X464879Y296690D01*
X464699Y296843D01*
X464498Y296967D01*
X464280Y297057D01*
X464050Y297112D01*
X463815Y297126D01*
X460315D01*
Y317047D01*
X463815D01*
X464050Y317061D01*
X464280Y317116D01*
X464498Y317207D01*
X464699Y317330D01*
X464879Y317483D01*
X465032Y317663D01*
X465156Y317864D01*
X465246Y318082D01*
X465301Y318312D01*
X465315Y318547D01*
Y325547D01*
X465301Y325783D01*
X465246Y326012D01*
X465156Y326230D01*
X465032Y326432D01*
X464879Y326611D01*
X464699Y326765D01*
X464498Y326888D01*
X464280Y326978D01*
X464050Y327033D01*
X463815Y327047D01*
X460315D01*
Y346969D01*
X463815D01*
X464050Y346982D01*
X464280Y347038D01*
X464498Y347128D01*
X464699Y347251D01*
X464879Y347405D01*
X465032Y347584D01*
X465156Y347785D01*
X465246Y348004D01*
X465301Y348233D01*
X465315Y348469D01*
Y355469D01*
X465301Y355704D01*
X465246Y355933D01*
X465156Y356152D01*
X465032Y356353D01*
X464879Y356532D01*
X464699Y356686D01*
X464498Y356809D01*
X464280Y356899D01*
X464050Y356955D01*
X463815Y356969D01*
X460315D01*
Y376890D01*
X463815D01*
X464050Y376904D01*
X464280Y376959D01*
X464498Y377049D01*
X464699Y377172D01*
X464879Y377326D01*
X465032Y377505D01*
X465156Y377707D01*
X465246Y377925D01*
X465301Y378154D01*
X465315Y378390D01*
Y385390D01*
X465301Y385625D01*
X465246Y385855D01*
X465156Y386073D01*
X465032Y386274D01*
X464879Y386454D01*
X464699Y386607D01*
X464498Y386730D01*
X464280Y386821D01*
X464050Y386876D01*
X463815Y386890D01*
X460315D01*
Y406811D01*
X463815D01*
X464050Y406825D01*
X464280Y406880D01*
X464498Y406970D01*
X464699Y407094D01*
X464879Y407247D01*
X465032Y407427D01*
X465156Y407628D01*
X465246Y407846D01*
X465301Y408076D01*
X465315Y408311D01*
Y415311D01*
X465301Y415546D01*
X465246Y415776D01*
X465156Y415994D01*
X465032Y416195D01*
X464879Y416375D01*
X464699Y416528D01*
X464498Y416652D01*
X464280Y416742D01*
X464050Y416797D01*
X463815Y416811D01*
X460315D01*
Y436732D01*
X463815D01*
X464050Y436746D01*
X464280Y436801D01*
X464498Y436892D01*
X464699Y437015D01*
X464879Y437168D01*
X465032Y437348D01*
X465156Y437549D01*
X465246Y437767D01*
X465301Y437997D01*
X465315Y438232D01*
Y445232D01*
X465301Y445468D01*
X465246Y445697D01*
X465156Y445915D01*
X465032Y446117D01*
X464879Y446296D01*
X464699Y446450D01*
X464498Y446573D01*
X464280Y446663D01*
X464050Y446718D01*
X463815Y446732D01*
X460315D01*
Y457087D01*
G37*
G36*
X452362D02*X460315D01*
Y446732D01*
X456815D01*
X456580Y446718D01*
X456350Y446663D01*
X456132Y446573D01*
X455931Y446450D01*
X455751Y446296D01*
X455598Y446117D01*
X455474Y445915D01*
X455384Y445697D01*
X455329Y445468D01*
X455315Y445232D01*
Y438232D01*
X455329Y437997D01*
X455384Y437767D01*
X455474Y437549D01*
X455598Y437348D01*
X455751Y437168D01*
X455931Y437015D01*
X456132Y436892D01*
X456350Y436801D01*
X456580Y436746D01*
X456815Y436732D01*
X460315D01*
Y416811D01*
X456815D01*
X456580Y416797D01*
X456350Y416742D01*
X456132Y416652D01*
X455931Y416528D01*
X455751Y416375D01*
X455598Y416195D01*
X455474Y415994D01*
X455384Y415776D01*
X455329Y415546D01*
X455315Y415311D01*
Y408311D01*
X455329Y408076D01*
X455384Y407846D01*
X455474Y407628D01*
X455598Y407427D01*
X455751Y407247D01*
X455931Y407094D01*
X456132Y406970D01*
X456350Y406880D01*
X456580Y406825D01*
X456815Y406811D01*
X460315D01*
Y386890D01*
X456815D01*
X456580Y386876D01*
X456350Y386821D01*
X456132Y386730D01*
X455931Y386607D01*
X455751Y386454D01*
X455598Y386274D01*
X455474Y386073D01*
X455384Y385855D01*
X455329Y385625D01*
X455315Y385390D01*
Y378390D01*
X455329Y378154D01*
X455384Y377925D01*
X455474Y377707D01*
X455598Y377505D01*
X455751Y377326D01*
X455931Y377172D01*
X456132Y377049D01*
X456350Y376959D01*
X456580Y376904D01*
X456815Y376890D01*
X460315D01*
Y356969D01*
X456815D01*
X456580Y356955D01*
X456350Y356899D01*
X456132Y356809D01*
X455931Y356686D01*
X455751Y356532D01*
X455598Y356353D01*
X455474Y356152D01*
X455384Y355933D01*
X455329Y355704D01*
X455315Y355469D01*
Y348469D01*
X455329Y348233D01*
X455384Y348004D01*
X455474Y347785D01*
X455598Y347584D01*
X455751Y347405D01*
X455931Y347251D01*
X456132Y347128D01*
X456350Y347038D01*
X456580Y346982D01*
X456815Y346969D01*
X460315D01*
Y327047D01*
X456815D01*
X456580Y327033D01*
X456350Y326978D01*
X456132Y326888D01*
X455931Y326765D01*
X455751Y326611D01*
X455598Y326432D01*
X455474Y326230D01*
X455384Y326012D01*
X455329Y325783D01*
X455315Y325547D01*
Y318547D01*
X455329Y318312D01*
X455384Y318082D01*
X455474Y317864D01*
X455598Y317663D01*
X455751Y317483D01*
X455931Y317330D01*
X456132Y317207D01*
X456350Y317116D01*
X456580Y317061D01*
X456815Y317047D01*
X460315D01*
Y297126D01*
X456815D01*
X456580Y297112D01*
X456350Y297057D01*
X456132Y296967D01*
X455931Y296843D01*
X455751Y296690D01*
X455598Y296510D01*
X455474Y296309D01*
X455384Y296091D01*
X455329Y295861D01*
X455315Y295626D01*
Y288626D01*
X455329Y288391D01*
X455384Y288161D01*
X455474Y287943D01*
X455598Y287742D01*
X455751Y287562D01*
X455931Y287409D01*
X456132Y287285D01*
X456350Y287195D01*
X456580Y287140D01*
X456815Y287126D01*
X460315D01*
Y267205D01*
X456815D01*
X456580Y267191D01*
X456350Y267136D01*
X456132Y267045D01*
X455931Y266922D01*
X455751Y266769D01*
X455598Y266589D01*
X455474Y266388D01*
X455384Y266170D01*
X455329Y265940D01*
X455315Y265705D01*
Y258705D01*
X455329Y258469D01*
X455384Y258240D01*
X455474Y258022D01*
X455598Y257820D01*
X455751Y257641D01*
X455931Y257487D01*
X456132Y257364D01*
X456350Y257274D01*
X456580Y257219D01*
X456815Y257205D01*
X460315D01*
Y237283D01*
X456815D01*
X456580Y237270D01*
X456350Y237214D01*
X456132Y237124D01*
X455931Y237001D01*
X455751Y236847D01*
X455598Y236668D01*
X455474Y236467D01*
X455384Y236248D01*
X455329Y236019D01*
X455315Y235783D01*
Y228783D01*
X455329Y228548D01*
X455384Y228319D01*
X455474Y228100D01*
X455598Y227899D01*
X455751Y227720D01*
X455931Y227566D01*
X456132Y227443D01*
X456350Y227352D01*
X456580Y227297D01*
X456815Y227283D01*
X460315D01*
Y207362D01*
X456815D01*
X456580Y207348D01*
X456350Y207293D01*
X456132Y207203D01*
X455931Y207079D01*
X455751Y206926D01*
X455598Y206747D01*
X455474Y206545D01*
X455384Y206327D01*
X455329Y206098D01*
X455315Y205862D01*
Y198862D01*
X455329Y198627D01*
X455384Y198397D01*
X455474Y198179D01*
X455598Y197978D01*
X455751Y197798D01*
X455931Y197645D01*
X456132Y197522D01*
X456350Y197431D01*
X456580Y197376D01*
X456815Y197362D01*
X460315D01*
Y177441D01*
X456815D01*
X456580Y177427D01*
X456350Y177372D01*
X456132Y177282D01*
X455931Y177158D01*
X455751Y177005D01*
X455598Y176825D01*
X455474Y176624D01*
X455384Y176406D01*
X455329Y176176D01*
X455315Y175941D01*
Y168941D01*
X455329Y168706D01*
X455384Y168476D01*
X455474Y168258D01*
X455598Y168057D01*
X455751Y167877D01*
X455931Y167724D01*
X456132Y167600D01*
X456350Y167510D01*
X456580Y167455D01*
X456815Y167441D01*
X460315D01*
Y147520D01*
X456815D01*
X456580Y147506D01*
X456350Y147451D01*
X456132Y147360D01*
X455931Y147237D01*
X455751Y147084D01*
X455598Y146904D01*
X455474Y146703D01*
X455384Y146485D01*
X455329Y146255D01*
X455315Y146020D01*
Y139020D01*
X455329Y138784D01*
X455384Y138555D01*
X455474Y138337D01*
X455598Y138135D01*
X455751Y137956D01*
X455931Y137802D01*
X456132Y137679D01*
X456350Y137589D01*
X456580Y137534D01*
X456815Y137520D01*
X460315D01*
Y117598D01*
X456815D01*
X456580Y117585D01*
X456350Y117529D01*
X456132Y117439D01*
X455931Y117316D01*
X455751Y117162D01*
X455598Y116983D01*
X455474Y116782D01*
X455384Y116563D01*
X455329Y116334D01*
X455315Y116098D01*
Y109098D01*
X455329Y108863D01*
X455384Y108633D01*
X455474Y108415D01*
X455598Y108214D01*
X455751Y108034D01*
X455931Y107881D01*
X456132Y107758D01*
X456350Y107667D01*
X456580Y107612D01*
X456815Y107598D01*
X460315D01*
Y42323D01*
X452362D01*
Y77598D01*
X455862D01*
X456098Y77612D01*
X456327Y77667D01*
X456545Y77758D01*
X456747Y77881D01*
X456926Y78034D01*
X457079Y78214D01*
X457203Y78415D01*
X457293Y78633D01*
X457348Y78863D01*
X457362Y79098D01*
Y86098D01*
X457348Y86334D01*
X457293Y86563D01*
X457203Y86782D01*
X457079Y86983D01*
X456926Y87162D01*
X456747Y87316D01*
X456545Y87439D01*
X456327Y87529D01*
X456098Y87585D01*
X455862Y87598D01*
X452362D01*
Y108035D01*
X452592Y108130D01*
X453263Y108541D01*
X453861Y109052D01*
X454373Y109650D01*
X454784Y110321D01*
X455085Y111049D01*
X455269Y111814D01*
X455315Y112598D01*
X455269Y113383D01*
X455085Y114148D01*
X454784Y114875D01*
X454373Y115546D01*
X453861Y116145D01*
X453263Y116656D01*
X452592Y117067D01*
X452362Y117162D01*
Y137956D01*
X452592Y138051D01*
X453263Y138462D01*
X453861Y138973D01*
X454373Y139572D01*
X454784Y140243D01*
X455085Y140970D01*
X455269Y141735D01*
X455315Y142520D01*
X455269Y143304D01*
X455085Y144070D01*
X454784Y144797D01*
X454373Y145468D01*
X453861Y146066D01*
X453263Y146577D01*
X452592Y146988D01*
X452362Y147084D01*
Y167877D01*
X452592Y167972D01*
X453263Y168383D01*
X453861Y168895D01*
X454373Y169493D01*
X454784Y170164D01*
X455085Y170891D01*
X455269Y171656D01*
X455315Y172441D01*
X455269Y173226D01*
X455085Y173991D01*
X454784Y174718D01*
X454373Y175389D01*
X453861Y175987D01*
X453263Y176499D01*
X452592Y176910D01*
X452362Y177005D01*
Y197798D01*
X452592Y197893D01*
X453263Y198305D01*
X453861Y198816D01*
X454373Y199414D01*
X454784Y200085D01*
X455085Y200812D01*
X455269Y201578D01*
X455315Y202362D01*
X455269Y203147D01*
X455085Y203912D01*
X454784Y204639D01*
X454373Y205310D01*
X453861Y205909D01*
X453263Y206420D01*
X452592Y206831D01*
X452362Y206926D01*
Y227720D01*
X452592Y227815D01*
X453263Y228226D01*
X453861Y228737D01*
X454373Y229335D01*
X454784Y230007D01*
X455085Y230734D01*
X455269Y231499D01*
X455315Y232283D01*
X455269Y233068D01*
X455085Y233833D01*
X454784Y234560D01*
X454373Y235231D01*
X453861Y235830D01*
X453263Y236341D01*
X452592Y236752D01*
X452362Y236847D01*
Y257641D01*
X452592Y257736D01*
X453263Y258147D01*
X453861Y258658D01*
X454373Y259257D01*
X454784Y259928D01*
X455085Y260655D01*
X455269Y261420D01*
X455315Y262205D01*
X455269Y262989D01*
X455085Y263755D01*
X454784Y264482D01*
X454373Y265153D01*
X453861Y265751D01*
X453263Y266262D01*
X452592Y266673D01*
X452362Y266769D01*
Y287562D01*
X452592Y287657D01*
X453263Y288068D01*
X453861Y288580D01*
X454373Y289178D01*
X454784Y289849D01*
X455085Y290576D01*
X455269Y291341D01*
X455315Y292126D01*
X455269Y292911D01*
X455085Y293676D01*
X454784Y294403D01*
X454373Y295074D01*
X453861Y295672D01*
X453263Y296184D01*
X452592Y296595D01*
X452362Y296690D01*
Y317483D01*
X452592Y317578D01*
X453263Y317990D01*
X453861Y318501D01*
X454373Y319099D01*
X454784Y319770D01*
X455085Y320497D01*
X455269Y321263D01*
X455315Y322047D01*
X455269Y322832D01*
X455085Y323597D01*
X454784Y324324D01*
X454373Y324995D01*
X453861Y325594D01*
X453263Y326105D01*
X452592Y326516D01*
X452362Y326611D01*
Y347405D01*
X452592Y347500D01*
X453263Y347911D01*
X453861Y348422D01*
X454373Y349021D01*
X454784Y349692D01*
X455085Y350419D01*
X455269Y351184D01*
X455315Y351969D01*
X455269Y352753D01*
X455085Y353518D01*
X454784Y354245D01*
X454373Y354916D01*
X453861Y355515D01*
X453263Y356026D01*
X452592Y356437D01*
X452362Y356532D01*
Y377326D01*
X452592Y377421D01*
X453263Y377832D01*
X453861Y378343D01*
X454373Y378942D01*
X454784Y379613D01*
X455085Y380340D01*
X455269Y381105D01*
X455315Y381890D01*
X455269Y382674D01*
X455085Y383440D01*
X454784Y384167D01*
X454373Y384838D01*
X453861Y385436D01*
X453263Y385947D01*
X452592Y386359D01*
X452362Y386454D01*
Y407247D01*
X452592Y407342D01*
X453263Y407753D01*
X453861Y408265D01*
X454373Y408863D01*
X454784Y409534D01*
X455085Y410261D01*
X455269Y411026D01*
X455315Y411811D01*
X455269Y412596D01*
X455085Y413361D01*
X454784Y414088D01*
X454373Y414759D01*
X453861Y415357D01*
X453263Y415869D01*
X452592Y416280D01*
X452362Y416375D01*
Y437168D01*
X452592Y437264D01*
X453263Y437675D01*
X453861Y438186D01*
X454373Y438784D01*
X454784Y439455D01*
X455085Y440182D01*
X455269Y440948D01*
X455315Y441732D01*
X455269Y442517D01*
X455085Y443282D01*
X454784Y444009D01*
X454373Y444680D01*
X453861Y445279D01*
X453263Y445790D01*
X452592Y446201D01*
X452362Y446296D01*
Y457087D01*
G37*
G36*
X442354D02*X452362D01*
Y446296D01*
X451865Y446502D01*
X451100Y446686D01*
X450315Y446748D01*
X449530Y446686D01*
X448765Y446502D01*
X448038Y446201D01*
X447367Y445790D01*
X446769Y445279D01*
X446257Y444680D01*
X445846Y444009D01*
X445545Y443282D01*
X445361Y442517D01*
X445300Y441732D01*
X445361Y440948D01*
X445545Y440182D01*
X445846Y439455D01*
X446257Y438784D01*
X446769Y438186D01*
X447367Y437675D01*
X448038Y437264D01*
X448765Y436962D01*
X449530Y436779D01*
X450315Y436717D01*
X451100Y436779D01*
X451865Y436962D01*
X452362Y437168D01*
Y416375D01*
X451865Y416581D01*
X451100Y416765D01*
X450315Y416826D01*
X449530Y416765D01*
X448765Y416581D01*
X448038Y416280D01*
X447367Y415869D01*
X446769Y415357D01*
X446257Y414759D01*
X445846Y414088D01*
X445545Y413361D01*
X445361Y412596D01*
X445300Y411811D01*
X445361Y411026D01*
X445545Y410261D01*
X445846Y409534D01*
X446257Y408863D01*
X446769Y408265D01*
X447367Y407753D01*
X448038Y407342D01*
X448765Y407041D01*
X449530Y406857D01*
X450315Y406796D01*
X451100Y406857D01*
X451865Y407041D01*
X452362Y407247D01*
Y386454D01*
X451865Y386660D01*
X451100Y386843D01*
X450315Y386905D01*
X449530Y386843D01*
X448765Y386660D01*
X448038Y386359D01*
X447367Y385947D01*
X446769Y385436D01*
X446257Y384838D01*
X445846Y384167D01*
X445545Y383440D01*
X445361Y382674D01*
X445300Y381890D01*
X445361Y381105D01*
X445545Y380340D01*
X445846Y379613D01*
X446257Y378942D01*
X446769Y378343D01*
X447367Y377832D01*
X448038Y377421D01*
X448765Y377120D01*
X449530Y376936D01*
X450315Y376874D01*
X451100Y376936D01*
X451865Y377120D01*
X452362Y377326D01*
Y356532D01*
X451865Y356738D01*
X451100Y356922D01*
X450315Y356984D01*
X449530Y356922D01*
X448765Y356738D01*
X448038Y356437D01*
X447367Y356026D01*
X446769Y355515D01*
X446257Y354916D01*
X445846Y354245D01*
X445545Y353518D01*
X445361Y352753D01*
X445300Y351969D01*
X445361Y351184D01*
X445545Y350419D01*
X445846Y349692D01*
X446257Y349021D01*
X446769Y348422D01*
X447367Y347911D01*
X448038Y347500D01*
X448765Y347199D01*
X449530Y347015D01*
X450315Y346953D01*
X451100Y347015D01*
X451865Y347199D01*
X452362Y347405D01*
Y326611D01*
X451865Y326817D01*
X451100Y327001D01*
X450315Y327063D01*
X449530Y327001D01*
X448765Y326817D01*
X448038Y326516D01*
X447367Y326105D01*
X446769Y325594D01*
X446257Y324995D01*
X445846Y324324D01*
X445545Y323597D01*
X445361Y322832D01*
X445300Y322047D01*
X445361Y321263D01*
X445545Y320497D01*
X445846Y319770D01*
X446257Y319099D01*
X446769Y318501D01*
X447367Y317990D01*
X448038Y317578D01*
X448765Y317277D01*
X449530Y317094D01*
X450315Y317032D01*
X451100Y317094D01*
X451865Y317277D01*
X452362Y317483D01*
Y296690D01*
X451865Y296896D01*
X451100Y297080D01*
X450315Y297141D01*
X449530Y297080D01*
X448765Y296896D01*
X448038Y296595D01*
X447367Y296184D01*
X446769Y295672D01*
X446257Y295074D01*
X445846Y294403D01*
X445545Y293676D01*
X445361Y292911D01*
X445300Y292126D01*
X445361Y291341D01*
X445545Y290576D01*
X445846Y289849D01*
X446257Y289178D01*
X446769Y288580D01*
X447367Y288068D01*
X448038Y287657D01*
X448765Y287356D01*
X449530Y287172D01*
X450315Y287111D01*
X451100Y287172D01*
X451865Y287356D01*
X452362Y287562D01*
Y266769D01*
X451865Y266975D01*
X451100Y267158D01*
X450315Y267220D01*
X449530Y267158D01*
X448765Y266975D01*
X448038Y266673D01*
X447367Y266262D01*
X446769Y265751D01*
X446257Y265153D01*
X445846Y264482D01*
X445545Y263755D01*
X445361Y262989D01*
X445300Y262205D01*
X445361Y261420D01*
X445545Y260655D01*
X445846Y259928D01*
X446257Y259257D01*
X446769Y258658D01*
X447367Y258147D01*
X448038Y257736D01*
X448765Y257435D01*
X449530Y257251D01*
X450315Y257189D01*
X451100Y257251D01*
X451865Y257435D01*
X452362Y257641D01*
Y236847D01*
X451865Y237053D01*
X451100Y237237D01*
X450315Y237299D01*
X449530Y237237D01*
X448765Y237053D01*
X448038Y236752D01*
X447367Y236341D01*
X446769Y235830D01*
X446257Y235231D01*
X445846Y234560D01*
X445545Y233833D01*
X445361Y233068D01*
X445300Y232283D01*
X445361Y231499D01*
X445545Y230734D01*
X445846Y230007D01*
X446257Y229335D01*
X446769Y228737D01*
X447367Y228226D01*
X448038Y227815D01*
X448765Y227514D01*
X449530Y227330D01*
X450315Y227268D01*
X451100Y227330D01*
X451865Y227514D01*
X452362Y227720D01*
Y206926D01*
X451865Y207132D01*
X451100Y207316D01*
X450315Y207378D01*
X449530Y207316D01*
X448765Y207132D01*
X448038Y206831D01*
X447367Y206420D01*
X446769Y205909D01*
X446257Y205310D01*
X445846Y204639D01*
X445545Y203912D01*
X445361Y203147D01*
X445300Y202362D01*
X445361Y201578D01*
X445545Y200812D01*
X445846Y200085D01*
X446257Y199414D01*
X446769Y198816D01*
X447367Y198305D01*
X448038Y197893D01*
X448765Y197592D01*
X449530Y197409D01*
X450315Y197347D01*
X451100Y197409D01*
X451865Y197592D01*
X452362Y197798D01*
Y177005D01*
X451865Y177211D01*
X451100Y177395D01*
X450315Y177456D01*
X449530Y177395D01*
X448765Y177211D01*
X448038Y176910D01*
X447367Y176499D01*
X446769Y175987D01*
X446257Y175389D01*
X445846Y174718D01*
X445545Y173991D01*
X445361Y173226D01*
X445300Y172441D01*
X445361Y171656D01*
X445545Y170891D01*
X445846Y170164D01*
X446257Y169493D01*
X446769Y168895D01*
X447367Y168383D01*
X448038Y167972D01*
X448765Y167671D01*
X449530Y167487D01*
X450315Y167426D01*
X451100Y167487D01*
X451865Y167671D01*
X452362Y167877D01*
Y147084D01*
X451865Y147290D01*
X451100Y147473D01*
X450315Y147535D01*
X449530Y147473D01*
X448765Y147290D01*
X448038Y146988D01*
X447367Y146577D01*
X446769Y146066D01*
X446257Y145468D01*
X445846Y144797D01*
X445545Y144070D01*
X445361Y143304D01*
X445300Y142520D01*
X445361Y141735D01*
X445545Y140970D01*
X445846Y140243D01*
X446257Y139572D01*
X446769Y138973D01*
X447367Y138462D01*
X448038Y138051D01*
X448765Y137750D01*
X449530Y137566D01*
X450315Y137504D01*
X451100Y137566D01*
X451865Y137750D01*
X452362Y137956D01*
Y117162D01*
X451865Y117368D01*
X451100Y117552D01*
X450315Y117614D01*
X449530Y117552D01*
X448765Y117368D01*
X448038Y117067D01*
X447367Y116656D01*
X446769Y116145D01*
X446257Y115546D01*
X445846Y114875D01*
X445545Y114148D01*
X445361Y113383D01*
X445300Y112598D01*
X445361Y111814D01*
X445545Y111049D01*
X445846Y110321D01*
X446257Y109650D01*
X446769Y109052D01*
X447367Y108541D01*
X448038Y108130D01*
X448765Y107828D01*
X449530Y107645D01*
X450315Y107583D01*
X451100Y107645D01*
X451865Y107828D01*
X452362Y108035D01*
Y87598D01*
X448862D01*
X448627Y87585D01*
X448397Y87529D01*
X448179Y87439D01*
X447978Y87316D01*
X447798Y87162D01*
X447645Y86983D01*
X447522Y86782D01*
X447431Y86563D01*
X447376Y86334D01*
X447362Y86098D01*
Y79098D01*
X447376Y78863D01*
X447431Y78633D01*
X447522Y78415D01*
X447645Y78214D01*
X447798Y78034D01*
X447978Y77881D01*
X448179Y77758D01*
X448397Y77667D01*
X448627Y77612D01*
X448862Y77598D01*
X452362D01*
Y42323D01*
X442354D01*
Y77584D01*
X442362Y77583D01*
X443147Y77645D01*
X443912Y77828D01*
X444639Y78130D01*
X445310Y78541D01*
X445909Y79052D01*
X446420Y79650D01*
X446831Y80321D01*
X447132Y81049D01*
X447316Y81814D01*
X447362Y82598D01*
X447316Y83383D01*
X447132Y84148D01*
X446831Y84875D01*
X446420Y85546D01*
X445909Y86145D01*
X445310Y86656D01*
X444639Y87067D01*
X443912Y87368D01*
X443147Y87552D01*
X442362Y87614D01*
X442354Y87613D01*
Y425243D01*
X442717Y425465D01*
X443613Y426230D01*
X444377Y427125D01*
X444993Y428129D01*
X445443Y429217D01*
X445718Y430362D01*
X445787Y431535D01*
X445718Y432709D01*
X445443Y433854D01*
X444993Y434942D01*
X444377Y435946D01*
X443613Y436841D01*
X442717Y437606D01*
X442354Y437828D01*
Y457087D01*
G37*
G36*
X424331D02*X442354D01*
Y437828D01*
X441714Y438221D01*
X440626Y438672D01*
X439481Y438946D01*
X438307Y439039D01*
X437133Y438946D01*
X435988Y438672D01*
X434901Y438221D01*
X433897Y437606D01*
X433001Y436841D01*
X432237Y435946D01*
X431622Y434942D01*
X431171Y433854D01*
X430896Y432709D01*
X430804Y431535D01*
X430896Y430362D01*
X431171Y429217D01*
X431622Y428129D01*
X432237Y427125D01*
X433001Y426230D01*
X433897Y425465D01*
X434901Y424850D01*
X435988Y424399D01*
X437133Y424124D01*
X438307Y424032D01*
X439481Y424124D01*
X440626Y424399D01*
X441714Y424850D01*
X442354Y425243D01*
Y87613D01*
X441578Y87552D01*
X440812Y87368D01*
X440085Y87067D01*
X439414Y86656D01*
X438816Y86145D01*
X438305Y85546D01*
X437893Y84875D01*
X437592Y84148D01*
X437409Y83383D01*
X437347Y82598D01*
X437409Y81814D01*
X437592Y81049D01*
X437893Y80321D01*
X438305Y79650D01*
X438816Y79052D01*
X439414Y78541D01*
X440085Y78130D01*
X440812Y77828D01*
X441578Y77645D01*
X442354Y77584D01*
Y42323D01*
X424331D01*
Y77598D01*
X425862D01*
X426098Y77612D01*
X426327Y77667D01*
X426545Y77758D01*
X426747Y77881D01*
X426926Y78034D01*
X427079Y78214D01*
X427203Y78415D01*
X427293Y78633D01*
X427348Y78863D01*
X427362Y79098D01*
Y86098D01*
X427348Y86334D01*
X427293Y86563D01*
X427203Y86782D01*
X427079Y86983D01*
X426926Y87162D01*
X426747Y87316D01*
X426545Y87439D01*
X426327Y87529D01*
X426098Y87585D01*
X425862Y87598D01*
X424331D01*
Y107598D01*
X427831D01*
X428066Y107612D01*
X428296Y107667D01*
X428514Y107758D01*
X428715Y107881D01*
X428895Y108034D01*
X429048Y108214D01*
X429171Y108415D01*
X429262Y108633D01*
X429317Y108863D01*
X429331Y109098D01*
Y116098D01*
X429317Y116334D01*
X429262Y116563D01*
X429171Y116782D01*
X429048Y116983D01*
X428895Y117162D01*
X428715Y117316D01*
X428514Y117439D01*
X428296Y117529D01*
X428066Y117585D01*
X427831Y117598D01*
X424331D01*
Y137520D01*
X427831D01*
X428066Y137534D01*
X428296Y137589D01*
X428514Y137679D01*
X428715Y137802D01*
X428895Y137956D01*
X429048Y138135D01*
X429171Y138337D01*
X429262Y138555D01*
X429317Y138784D01*
X429331Y139020D01*
Y146020D01*
X429317Y146255D01*
X429262Y146485D01*
X429171Y146703D01*
X429048Y146904D01*
X428895Y147084D01*
X428715Y147237D01*
X428514Y147360D01*
X428296Y147451D01*
X428066Y147506D01*
X427831Y147520D01*
X424331D01*
Y167441D01*
X427831D01*
X428066Y167455D01*
X428296Y167510D01*
X428514Y167600D01*
X428715Y167724D01*
X428895Y167877D01*
X429048Y168057D01*
X429171Y168258D01*
X429262Y168476D01*
X429317Y168706D01*
X429331Y168941D01*
Y175941D01*
X429317Y176176D01*
X429262Y176406D01*
X429171Y176624D01*
X429048Y176825D01*
X428895Y177005D01*
X428715Y177158D01*
X428514Y177282D01*
X428296Y177372D01*
X428066Y177427D01*
X427831Y177441D01*
X424331D01*
Y197362D01*
X427831D01*
X428066Y197376D01*
X428296Y197431D01*
X428514Y197522D01*
X428715Y197645D01*
X428895Y197798D01*
X429048Y197978D01*
X429171Y198179D01*
X429262Y198397D01*
X429317Y198627D01*
X429331Y198862D01*
Y205862D01*
X429317Y206098D01*
X429262Y206327D01*
X429171Y206545D01*
X429048Y206747D01*
X428895Y206926D01*
X428715Y207079D01*
X428514Y207203D01*
X428296Y207293D01*
X428066Y207348D01*
X427831Y207362D01*
X424331D01*
Y227283D01*
X427831D01*
X428066Y227297D01*
X428296Y227352D01*
X428514Y227443D01*
X428715Y227566D01*
X428895Y227720D01*
X429048Y227899D01*
X429171Y228100D01*
X429262Y228319D01*
X429317Y228548D01*
X429331Y228783D01*
Y235783D01*
X429317Y236019D01*
X429262Y236248D01*
X429171Y236467D01*
X429048Y236668D01*
X428895Y236847D01*
X428715Y237001D01*
X428514Y237124D01*
X428296Y237214D01*
X428066Y237270D01*
X427831Y237283D01*
X424331D01*
Y257205D01*
X427831D01*
X428066Y257219D01*
X428296Y257274D01*
X428514Y257364D01*
X428715Y257487D01*
X428895Y257641D01*
X429048Y257820D01*
X429171Y258022D01*
X429262Y258240D01*
X429317Y258469D01*
X429331Y258705D01*
Y265705D01*
X429317Y265940D01*
X429262Y266170D01*
X429171Y266388D01*
X429048Y266589D01*
X428895Y266769D01*
X428715Y266922D01*
X428514Y267045D01*
X428296Y267136D01*
X428066Y267191D01*
X427831Y267205D01*
X424331D01*
Y287126D01*
X427831D01*
X428066Y287140D01*
X428296Y287195D01*
X428514Y287285D01*
X428715Y287409D01*
X428895Y287562D01*
X429048Y287742D01*
X429171Y287943D01*
X429262Y288161D01*
X429317Y288391D01*
X429331Y288626D01*
Y295626D01*
X429317Y295861D01*
X429262Y296091D01*
X429171Y296309D01*
X429048Y296510D01*
X428895Y296690D01*
X428715Y296843D01*
X428514Y296967D01*
X428296Y297057D01*
X428066Y297112D01*
X427831Y297126D01*
X424331D01*
Y317047D01*
X427831D01*
X428066Y317061D01*
X428296Y317116D01*
X428514Y317207D01*
X428715Y317330D01*
X428895Y317483D01*
X429048Y317663D01*
X429171Y317864D01*
X429262Y318082D01*
X429317Y318312D01*
X429331Y318547D01*
Y325547D01*
X429317Y325783D01*
X429262Y326012D01*
X429171Y326230D01*
X429048Y326432D01*
X428895Y326611D01*
X428715Y326765D01*
X428514Y326888D01*
X428296Y326978D01*
X428066Y327033D01*
X427831Y327047D01*
X424331D01*
Y346969D01*
X427831D01*
X428066Y346982D01*
X428296Y347038D01*
X428514Y347128D01*
X428715Y347251D01*
X428895Y347405D01*
X429048Y347584D01*
X429171Y347785D01*
X429262Y348004D01*
X429317Y348233D01*
X429331Y348469D01*
Y355469D01*
X429317Y355704D01*
X429262Y355933D01*
X429171Y356152D01*
X429048Y356353D01*
X428895Y356532D01*
X428715Y356686D01*
X428514Y356809D01*
X428296Y356899D01*
X428066Y356955D01*
X427831Y356969D01*
X424331D01*
Y376890D01*
X427831D01*
X428066Y376904D01*
X428296Y376959D01*
X428514Y377049D01*
X428715Y377172D01*
X428895Y377326D01*
X429048Y377505D01*
X429171Y377707D01*
X429262Y377925D01*
X429317Y378154D01*
X429331Y378390D01*
Y385390D01*
X429317Y385625D01*
X429262Y385855D01*
X429171Y386073D01*
X429048Y386274D01*
X428895Y386454D01*
X428715Y386607D01*
X428514Y386730D01*
X428296Y386821D01*
X428066Y386876D01*
X427831Y386890D01*
X424331D01*
Y406811D01*
X427831D01*
X428066Y406825D01*
X428296Y406880D01*
X428514Y406970D01*
X428715Y407094D01*
X428895Y407247D01*
X429048Y407427D01*
X429171Y407628D01*
X429262Y407846D01*
X429317Y408076D01*
X429331Y408311D01*
Y415311D01*
X429317Y415546D01*
X429262Y415776D01*
X429171Y415994D01*
X429048Y416195D01*
X428895Y416375D01*
X428715Y416528D01*
X428514Y416652D01*
X428296Y416742D01*
X428066Y416797D01*
X427831Y416811D01*
X424331D01*
Y436732D01*
X427831D01*
X428066Y436746D01*
X428296Y436801D01*
X428514Y436892D01*
X428715Y437015D01*
X428895Y437168D01*
X429048Y437348D01*
X429171Y437549D01*
X429262Y437767D01*
X429317Y437997D01*
X429331Y438232D01*
Y445232D01*
X429317Y445468D01*
X429262Y445697D01*
X429171Y445915D01*
X429048Y446117D01*
X428895Y446296D01*
X428715Y446450D01*
X428514Y446573D01*
X428296Y446663D01*
X428066Y446718D01*
X427831Y446732D01*
X424331D01*
Y457087D01*
G37*
G36*
X414323D02*X424331D01*
Y446732D01*
X420831D01*
X420595Y446718D01*
X420366Y446663D01*
X420148Y446573D01*
X419946Y446450D01*
X419767Y446296D01*
X419613Y446117D01*
X419490Y445915D01*
X419400Y445697D01*
X419345Y445468D01*
X419331Y445232D01*
Y438232D01*
X419345Y437997D01*
X419400Y437767D01*
X419490Y437549D01*
X419613Y437348D01*
X419767Y437168D01*
X419946Y437015D01*
X420148Y436892D01*
X420366Y436801D01*
X420595Y436746D01*
X420831Y436732D01*
X424331D01*
Y416811D01*
X420831D01*
X420595Y416797D01*
X420366Y416742D01*
X420148Y416652D01*
X419946Y416528D01*
X419767Y416375D01*
X419613Y416195D01*
X419490Y415994D01*
X419400Y415776D01*
X419345Y415546D01*
X419331Y415311D01*
Y408311D01*
X419345Y408076D01*
X419400Y407846D01*
X419490Y407628D01*
X419613Y407427D01*
X419767Y407247D01*
X419946Y407094D01*
X420148Y406970D01*
X420366Y406880D01*
X420595Y406825D01*
X420831Y406811D01*
X424331D01*
Y386890D01*
X420831D01*
X420595Y386876D01*
X420366Y386821D01*
X420148Y386730D01*
X419946Y386607D01*
X419767Y386454D01*
X419613Y386274D01*
X419490Y386073D01*
X419400Y385855D01*
X419345Y385625D01*
X419331Y385390D01*
Y378390D01*
X419345Y378154D01*
X419400Y377925D01*
X419490Y377707D01*
X419613Y377505D01*
X419767Y377326D01*
X419946Y377172D01*
X420148Y377049D01*
X420366Y376959D01*
X420595Y376904D01*
X420831Y376890D01*
X424331D01*
Y356969D01*
X420831D01*
X420595Y356955D01*
X420366Y356899D01*
X420148Y356809D01*
X419946Y356686D01*
X419767Y356532D01*
X419613Y356353D01*
X419490Y356152D01*
X419400Y355933D01*
X419345Y355704D01*
X419331Y355469D01*
Y348469D01*
X419345Y348233D01*
X419400Y348004D01*
X419490Y347785D01*
X419613Y347584D01*
X419767Y347405D01*
X419946Y347251D01*
X420148Y347128D01*
X420366Y347038D01*
X420595Y346982D01*
X420831Y346969D01*
X424331D01*
Y327047D01*
X420831D01*
X420595Y327033D01*
X420366Y326978D01*
X420148Y326888D01*
X419946Y326765D01*
X419767Y326611D01*
X419613Y326432D01*
X419490Y326230D01*
X419400Y326012D01*
X419345Y325783D01*
X419331Y325547D01*
Y318547D01*
X419345Y318312D01*
X419400Y318082D01*
X419490Y317864D01*
X419613Y317663D01*
X419767Y317483D01*
X419946Y317330D01*
X420148Y317207D01*
X420366Y317116D01*
X420595Y317061D01*
X420831Y317047D01*
X424331D01*
Y297126D01*
X420831D01*
X420595Y297112D01*
X420366Y297057D01*
X420148Y296967D01*
X419946Y296843D01*
X419767Y296690D01*
X419613Y296510D01*
X419490Y296309D01*
X419400Y296091D01*
X419345Y295861D01*
X419331Y295626D01*
Y288626D01*
X419345Y288391D01*
X419400Y288161D01*
X419490Y287943D01*
X419613Y287742D01*
X419767Y287562D01*
X419946Y287409D01*
X420148Y287285D01*
X420366Y287195D01*
X420595Y287140D01*
X420831Y287126D01*
X424331D01*
Y267205D01*
X420831D01*
X420595Y267191D01*
X420366Y267136D01*
X420148Y267045D01*
X419946Y266922D01*
X419767Y266769D01*
X419613Y266589D01*
X419490Y266388D01*
X419400Y266170D01*
X419345Y265940D01*
X419331Y265705D01*
Y258705D01*
X419345Y258469D01*
X419400Y258240D01*
X419490Y258022D01*
X419613Y257820D01*
X419767Y257641D01*
X419946Y257487D01*
X420148Y257364D01*
X420366Y257274D01*
X420595Y257219D01*
X420831Y257205D01*
X424331D01*
Y237283D01*
X420831D01*
X420595Y237270D01*
X420366Y237214D01*
X420148Y237124D01*
X419946Y237001D01*
X419767Y236847D01*
X419613Y236668D01*
X419490Y236467D01*
X419400Y236248D01*
X419345Y236019D01*
X419331Y235783D01*
Y228783D01*
X419345Y228548D01*
X419400Y228319D01*
X419490Y228100D01*
X419613Y227899D01*
X419767Y227720D01*
X419946Y227566D01*
X420148Y227443D01*
X420366Y227352D01*
X420595Y227297D01*
X420831Y227283D01*
X424331D01*
Y207362D01*
X420831D01*
X420595Y207348D01*
X420366Y207293D01*
X420148Y207203D01*
X419946Y207079D01*
X419767Y206926D01*
X419613Y206747D01*
X419490Y206545D01*
X419400Y206327D01*
X419345Y206098D01*
X419331Y205862D01*
Y198862D01*
X419345Y198627D01*
X419400Y198397D01*
X419490Y198179D01*
X419613Y197978D01*
X419767Y197798D01*
X419946Y197645D01*
X420148Y197522D01*
X420366Y197431D01*
X420595Y197376D01*
X420831Y197362D01*
X424331D01*
Y177441D01*
X420831D01*
X420595Y177427D01*
X420366Y177372D01*
X420148Y177282D01*
X419946Y177158D01*
X419767Y177005D01*
X419613Y176825D01*
X419490Y176624D01*
X419400Y176406D01*
X419345Y176176D01*
X419331Y175941D01*
Y168941D01*
X419345Y168706D01*
X419400Y168476D01*
X419490Y168258D01*
X419613Y168057D01*
X419767Y167877D01*
X419946Y167724D01*
X420148Y167600D01*
X420366Y167510D01*
X420595Y167455D01*
X420831Y167441D01*
X424331D01*
Y147520D01*
X420831D01*
X420595Y147506D01*
X420366Y147451D01*
X420148Y147360D01*
X419946Y147237D01*
X419767Y147084D01*
X419613Y146904D01*
X419490Y146703D01*
X419400Y146485D01*
X419345Y146255D01*
X419331Y146020D01*
Y139020D01*
X419345Y138784D01*
X419400Y138555D01*
X419490Y138337D01*
X419613Y138135D01*
X419767Y137956D01*
X419946Y137802D01*
X420148Y137679D01*
X420366Y137589D01*
X420595Y137534D01*
X420831Y137520D01*
X424331D01*
Y117598D01*
X420831D01*
X420595Y117585D01*
X420366Y117529D01*
X420148Y117439D01*
X419946Y117316D01*
X419767Y117162D01*
X419613Y116983D01*
X419490Y116782D01*
X419400Y116563D01*
X419345Y116334D01*
X419331Y116098D01*
Y109098D01*
X419345Y108863D01*
X419400Y108633D01*
X419490Y108415D01*
X419613Y108214D01*
X419767Y108034D01*
X419946Y107881D01*
X420148Y107758D01*
X420366Y107667D01*
X420595Y107612D01*
X420831Y107598D01*
X424331D01*
Y87598D01*
X418862D01*
X418627Y87585D01*
X418397Y87529D01*
X418179Y87439D01*
X417978Y87316D01*
X417798Y87162D01*
X417645Y86983D01*
X417522Y86782D01*
X417431Y86563D01*
X417376Y86334D01*
X417362Y86098D01*
Y79098D01*
X417376Y78863D01*
X417431Y78633D01*
X417522Y78415D01*
X417645Y78214D01*
X417798Y78034D01*
X417978Y77881D01*
X418179Y77758D01*
X418397Y77667D01*
X418627Y77612D01*
X418862Y77598D01*
X424331D01*
Y42323D01*
X414323D01*
Y77999D01*
X414639Y78130D01*
X415310Y78541D01*
X415909Y79052D01*
X416420Y79650D01*
X416831Y80321D01*
X417132Y81049D01*
X417316Y81814D01*
X417362Y82598D01*
X417316Y83383D01*
X417132Y84148D01*
X416831Y84875D01*
X416420Y85546D01*
X415909Y86145D01*
X415310Y86656D01*
X414639Y87067D01*
X414323Y87198D01*
Y107584D01*
X414331Y107583D01*
X415115Y107645D01*
X415881Y107828D01*
X416608Y108130D01*
X417279Y108541D01*
X417877Y109052D01*
X418388Y109650D01*
X418799Y110321D01*
X419101Y111049D01*
X419284Y111814D01*
X419331Y112598D01*
X419284Y113383D01*
X419101Y114148D01*
X418799Y114875D01*
X418388Y115546D01*
X417877Y116145D01*
X417279Y116656D01*
X416608Y117067D01*
X415881Y117368D01*
X415115Y117552D01*
X414331Y117614D01*
X414323Y117613D01*
Y137505D01*
X414331Y137504D01*
X415115Y137566D01*
X415881Y137750D01*
X416608Y138051D01*
X417279Y138462D01*
X417877Y138973D01*
X418388Y139572D01*
X418799Y140243D01*
X419101Y140970D01*
X419284Y141735D01*
X419331Y142520D01*
X419284Y143304D01*
X419101Y144070D01*
X418799Y144797D01*
X418388Y145468D01*
X417877Y146066D01*
X417279Y146577D01*
X416608Y146988D01*
X415881Y147290D01*
X415115Y147473D01*
X414331Y147535D01*
X414323Y147534D01*
Y167426D01*
X414331Y167426D01*
X415115Y167487D01*
X415881Y167671D01*
X416608Y167972D01*
X417279Y168383D01*
X417877Y168895D01*
X418388Y169493D01*
X418799Y170164D01*
X419101Y170891D01*
X419284Y171656D01*
X419331Y172441D01*
X419284Y173226D01*
X419101Y173991D01*
X418799Y174718D01*
X418388Y175389D01*
X417877Y175987D01*
X417279Y176499D01*
X416608Y176910D01*
X415881Y177211D01*
X415115Y177395D01*
X414331Y177456D01*
X414323Y177456D01*
Y197347D01*
X414331Y197347D01*
X415115Y197409D01*
X415881Y197592D01*
X416608Y197893D01*
X417279Y198305D01*
X417877Y198816D01*
X418388Y199414D01*
X418799Y200085D01*
X419101Y200812D01*
X419284Y201578D01*
X419331Y202362D01*
X419284Y203147D01*
X419101Y203912D01*
X418799Y204639D01*
X418388Y205310D01*
X417877Y205909D01*
X417279Y206420D01*
X416608Y206831D01*
X415881Y207132D01*
X415115Y207316D01*
X414331Y207378D01*
X414323Y207377D01*
Y227269D01*
X414331Y227268D01*
X415115Y227330D01*
X415881Y227514D01*
X416608Y227815D01*
X417279Y228226D01*
X417877Y228737D01*
X418388Y229335D01*
X418799Y230007D01*
X419101Y230734D01*
X419284Y231499D01*
X419331Y232283D01*
X419284Y233068D01*
X419101Y233833D01*
X418799Y234560D01*
X418388Y235231D01*
X417877Y235830D01*
X417279Y236341D01*
X416608Y236752D01*
X415881Y237053D01*
X415115Y237237D01*
X414331Y237299D01*
X414323Y237298D01*
Y257190D01*
X414331Y257189D01*
X415115Y257251D01*
X415881Y257435D01*
X416608Y257736D01*
X417279Y258147D01*
X417877Y258658D01*
X418388Y259257D01*
X418799Y259928D01*
X419101Y260655D01*
X419284Y261420D01*
X419331Y262205D01*
X419284Y262989D01*
X419101Y263755D01*
X418799Y264482D01*
X418388Y265153D01*
X417877Y265751D01*
X417279Y266262D01*
X416608Y266673D01*
X415881Y266975D01*
X415115Y267158D01*
X414331Y267220D01*
X414323Y267220D01*
Y287111D01*
X414331Y287111D01*
X415115Y287172D01*
X415881Y287356D01*
X416608Y287657D01*
X417279Y288068D01*
X417877Y288580D01*
X418388Y289178D01*
X418799Y289849D01*
X419101Y290576D01*
X419284Y291341D01*
X419331Y292126D01*
X419284Y292911D01*
X419101Y293676D01*
X418799Y294403D01*
X418388Y295074D01*
X417877Y295672D01*
X417279Y296184D01*
X416608Y296595D01*
X415881Y296896D01*
X415115Y297080D01*
X414331Y297141D01*
X414323Y297141D01*
Y317032D01*
X414331Y317032D01*
X415115Y317094D01*
X415881Y317277D01*
X416608Y317578D01*
X417279Y317990D01*
X417877Y318501D01*
X418388Y319099D01*
X418799Y319770D01*
X419101Y320497D01*
X419284Y321263D01*
X419331Y322047D01*
X419284Y322832D01*
X419101Y323597D01*
X418799Y324324D01*
X418388Y324995D01*
X417877Y325594D01*
X417279Y326105D01*
X416608Y326516D01*
X415881Y326817D01*
X415115Y327001D01*
X414331Y327063D01*
X414323Y327062D01*
Y346954D01*
X414331Y346953D01*
X415115Y347015D01*
X415881Y347199D01*
X416608Y347500D01*
X417279Y347911D01*
X417877Y348422D01*
X418388Y349021D01*
X418799Y349692D01*
X419101Y350419D01*
X419284Y351184D01*
X419331Y351969D01*
X419284Y352753D01*
X419101Y353518D01*
X418799Y354245D01*
X418388Y354916D01*
X417877Y355515D01*
X417279Y356026D01*
X416608Y356437D01*
X415881Y356738D01*
X415115Y356922D01*
X414331Y356984D01*
X414323Y356983D01*
Y376875D01*
X414331Y376874D01*
X415115Y376936D01*
X415881Y377120D01*
X416608Y377421D01*
X417279Y377832D01*
X417877Y378343D01*
X418388Y378942D01*
X418799Y379613D01*
X419101Y380340D01*
X419284Y381105D01*
X419331Y381890D01*
X419284Y382674D01*
X419101Y383440D01*
X418799Y384167D01*
X418388Y384838D01*
X417877Y385436D01*
X417279Y385947D01*
X416608Y386359D01*
X415881Y386660D01*
X415115Y386843D01*
X414331Y386905D01*
X414323Y386905D01*
Y406796D01*
X414331Y406796D01*
X415115Y406857D01*
X415881Y407041D01*
X416608Y407342D01*
X417279Y407753D01*
X417877Y408265D01*
X418388Y408863D01*
X418799Y409534D01*
X419101Y410261D01*
X419284Y411026D01*
X419331Y411811D01*
X419284Y412596D01*
X419101Y413361D01*
X418799Y414088D01*
X418388Y414759D01*
X417877Y415357D01*
X417279Y415869D01*
X416608Y416280D01*
X415881Y416581D01*
X415115Y416765D01*
X414331Y416826D01*
X414323Y416826D01*
Y436717D01*
X414331Y436717D01*
X415115Y436779D01*
X415881Y436962D01*
X416608Y437264D01*
X417279Y437675D01*
X417877Y438186D01*
X418388Y438784D01*
X418799Y439455D01*
X419101Y440182D01*
X419284Y440948D01*
X419331Y441732D01*
X419284Y442517D01*
X419101Y443282D01*
X418799Y444009D01*
X418388Y444680D01*
X417877Y445279D01*
X417279Y445790D01*
X416608Y446201D01*
X415881Y446502D01*
X415115Y446686D01*
X414331Y446748D01*
X414323Y446747D01*
Y457087D01*
G37*
G36*
X388346D02*X414323D01*
Y446747D01*
X413546Y446686D01*
X412781Y446502D01*
X412054Y446201D01*
X411383Y445790D01*
X410784Y445279D01*
X410273Y444680D01*
X409862Y444009D01*
X409561Y443282D01*
X409377Y442517D01*
X409315Y441732D01*
X409377Y440948D01*
X409561Y440182D01*
X409862Y439455D01*
X410273Y438784D01*
X410784Y438186D01*
X411383Y437675D01*
X412054Y437264D01*
X412781Y436962D01*
X413546Y436779D01*
X414323Y436717D01*
Y416826D01*
X413546Y416765D01*
X412781Y416581D01*
X412054Y416280D01*
X411383Y415869D01*
X410784Y415357D01*
X410273Y414759D01*
X409862Y414088D01*
X409561Y413361D01*
X409377Y412596D01*
X409315Y411811D01*
X409377Y411026D01*
X409561Y410261D01*
X409862Y409534D01*
X410273Y408863D01*
X410784Y408265D01*
X411383Y407753D01*
X412054Y407342D01*
X412781Y407041D01*
X413546Y406857D01*
X414323Y406796D01*
Y386905D01*
X413546Y386843D01*
X412781Y386660D01*
X412054Y386359D01*
X411383Y385947D01*
X410784Y385436D01*
X410273Y384838D01*
X409862Y384167D01*
X409561Y383440D01*
X409377Y382674D01*
X409315Y381890D01*
X409377Y381105D01*
X409561Y380340D01*
X409862Y379613D01*
X410273Y378942D01*
X410784Y378343D01*
X411383Y377832D01*
X412054Y377421D01*
X412781Y377120D01*
X413546Y376936D01*
X414323Y376875D01*
Y356983D01*
X413546Y356922D01*
X412781Y356738D01*
X412054Y356437D01*
X411383Y356026D01*
X410784Y355515D01*
X410273Y354916D01*
X409862Y354245D01*
X409561Y353518D01*
X409377Y352753D01*
X409315Y351969D01*
X409377Y351184D01*
X409561Y350419D01*
X409862Y349692D01*
X410273Y349021D01*
X410784Y348422D01*
X411383Y347911D01*
X412054Y347500D01*
X412781Y347199D01*
X413546Y347015D01*
X414323Y346954D01*
Y327062D01*
X413546Y327001D01*
X412781Y326817D01*
X412054Y326516D01*
X411383Y326105D01*
X410784Y325594D01*
X410273Y324995D01*
X409862Y324324D01*
X409561Y323597D01*
X409377Y322832D01*
X409315Y322047D01*
X409377Y321263D01*
X409561Y320497D01*
X409862Y319770D01*
X410273Y319099D01*
X410784Y318501D01*
X411383Y317990D01*
X412054Y317578D01*
X412781Y317277D01*
X413546Y317094D01*
X414323Y317032D01*
Y297141D01*
X413546Y297080D01*
X412781Y296896D01*
X412054Y296595D01*
X411383Y296184D01*
X410784Y295672D01*
X410273Y295074D01*
X409862Y294403D01*
X409561Y293676D01*
X409377Y292911D01*
X409315Y292126D01*
X409377Y291341D01*
X409561Y290576D01*
X409862Y289849D01*
X410273Y289178D01*
X410784Y288580D01*
X411383Y288068D01*
X412054Y287657D01*
X412781Y287356D01*
X413546Y287172D01*
X414323Y287111D01*
Y267220D01*
X413546Y267158D01*
X412781Y266975D01*
X412054Y266673D01*
X411383Y266262D01*
X410784Y265751D01*
X410273Y265153D01*
X409862Y264482D01*
X409561Y263755D01*
X409377Y262989D01*
X409315Y262205D01*
X409377Y261420D01*
X409561Y260655D01*
X409862Y259928D01*
X410273Y259257D01*
X410784Y258658D01*
X411383Y258147D01*
X412054Y257736D01*
X412781Y257435D01*
X413546Y257251D01*
X414323Y257190D01*
Y237298D01*
X413546Y237237D01*
X412781Y237053D01*
X412054Y236752D01*
X411383Y236341D01*
X410784Y235830D01*
X410273Y235231D01*
X409862Y234560D01*
X409561Y233833D01*
X409377Y233068D01*
X409315Y232283D01*
X409377Y231499D01*
X409561Y230734D01*
X409862Y230007D01*
X410273Y229335D01*
X410784Y228737D01*
X411383Y228226D01*
X412054Y227815D01*
X412781Y227514D01*
X413546Y227330D01*
X414323Y227269D01*
Y207377D01*
X413546Y207316D01*
X412781Y207132D01*
X412054Y206831D01*
X411383Y206420D01*
X410784Y205909D01*
X410273Y205310D01*
X409862Y204639D01*
X409561Y203912D01*
X409377Y203147D01*
X409315Y202362D01*
X409377Y201578D01*
X409561Y200812D01*
X409862Y200085D01*
X410273Y199414D01*
X410784Y198816D01*
X411383Y198305D01*
X412054Y197893D01*
X412781Y197592D01*
X413546Y197409D01*
X414323Y197347D01*
Y177456D01*
X413546Y177395D01*
X412781Y177211D01*
X412054Y176910D01*
X411383Y176499D01*
X410784Y175987D01*
X410273Y175389D01*
X409862Y174718D01*
X409561Y173991D01*
X409377Y173226D01*
X409315Y172441D01*
X409377Y171656D01*
X409561Y170891D01*
X409862Y170164D01*
X410273Y169493D01*
X410784Y168895D01*
X411383Y168383D01*
X412054Y167972D01*
X412781Y167671D01*
X413546Y167487D01*
X414323Y167426D01*
Y147534D01*
X413546Y147473D01*
X412781Y147290D01*
X412054Y146988D01*
X411383Y146577D01*
X410784Y146066D01*
X410273Y145468D01*
X409862Y144797D01*
X409561Y144070D01*
X409377Y143304D01*
X409315Y142520D01*
X409377Y141735D01*
X409561Y140970D01*
X409862Y140243D01*
X410273Y139572D01*
X410784Y138973D01*
X411383Y138462D01*
X412054Y138051D01*
X412781Y137750D01*
X413546Y137566D01*
X414323Y137505D01*
Y117613D01*
X413546Y117552D01*
X412781Y117368D01*
X412054Y117067D01*
X411383Y116656D01*
X410784Y116145D01*
X410273Y115546D01*
X409862Y114875D01*
X409561Y114148D01*
X409377Y113383D01*
X409315Y112598D01*
X409377Y111814D01*
X409561Y111049D01*
X409862Y110321D01*
X410273Y109650D01*
X410784Y109052D01*
X411383Y108541D01*
X412054Y108130D01*
X412781Y107828D01*
X413546Y107645D01*
X414323Y107584D01*
Y87198D01*
X413912Y87368D01*
X413147Y87552D01*
X412362Y87614D01*
X411578Y87552D01*
X410812Y87368D01*
X410085Y87067D01*
X409414Y86656D01*
X408816Y86145D01*
X408305Y85546D01*
X407893Y84875D01*
X407592Y84148D01*
X407409Y83383D01*
X407347Y82598D01*
X407409Y81814D01*
X407592Y81049D01*
X407893Y80321D01*
X408305Y79650D01*
X408816Y79052D01*
X409414Y78541D01*
X410085Y78130D01*
X410812Y77828D01*
X411578Y77645D01*
X412362Y77583D01*
X413147Y77645D01*
X413912Y77828D01*
X414323Y77999D01*
Y42323D01*
X388346D01*
Y77688D01*
X388397Y77667D01*
X388627Y77612D01*
X388862Y77598D01*
X395862D01*
X396098Y77612D01*
X396327Y77667D01*
X396545Y77758D01*
X396747Y77881D01*
X396926Y78034D01*
X397079Y78214D01*
X397203Y78415D01*
X397293Y78633D01*
X397348Y78863D01*
X397362Y79098D01*
Y86098D01*
X397348Y86334D01*
X397293Y86563D01*
X397203Y86782D01*
X397079Y86983D01*
X396926Y87162D01*
X396747Y87316D01*
X396545Y87439D01*
X396327Y87529D01*
X396098Y87585D01*
X395862Y87598D01*
X388862D01*
X388627Y87585D01*
X388397Y87529D01*
X388346Y87508D01*
Y107598D01*
X391846D01*
X392082Y107612D01*
X392311Y107667D01*
X392530Y107758D01*
X392731Y107881D01*
X392910Y108034D01*
X393064Y108214D01*
X393187Y108415D01*
X393277Y108633D01*
X393333Y108863D01*
X393346Y109098D01*
Y116098D01*
X393333Y116334D01*
X393277Y116563D01*
X393187Y116782D01*
X393064Y116983D01*
X392910Y117162D01*
X392731Y117316D01*
X392530Y117439D01*
X392311Y117529D01*
X392082Y117585D01*
X391846Y117598D01*
X388346D01*
Y137520D01*
X391846D01*
X392082Y137534D01*
X392311Y137589D01*
X392530Y137679D01*
X392731Y137802D01*
X392910Y137956D01*
X393064Y138135D01*
X393187Y138337D01*
X393277Y138555D01*
X393333Y138784D01*
X393346Y139020D01*
Y146020D01*
X393333Y146255D01*
X393277Y146485D01*
X393187Y146703D01*
X393064Y146904D01*
X392910Y147084D01*
X392731Y147237D01*
X392530Y147360D01*
X392311Y147451D01*
X392082Y147506D01*
X391846Y147520D01*
X388346D01*
Y167441D01*
X391846D01*
X392082Y167455D01*
X392311Y167510D01*
X392530Y167600D01*
X392731Y167724D01*
X392910Y167877D01*
X393064Y168057D01*
X393187Y168258D01*
X393277Y168476D01*
X393333Y168706D01*
X393346Y168941D01*
Y175941D01*
X393333Y176176D01*
X393277Y176406D01*
X393187Y176624D01*
X393064Y176825D01*
X392910Y177005D01*
X392731Y177158D01*
X392530Y177282D01*
X392311Y177372D01*
X392082Y177427D01*
X391846Y177441D01*
X388346D01*
Y197362D01*
X391846D01*
X392082Y197376D01*
X392311Y197431D01*
X392530Y197522D01*
X392731Y197645D01*
X392910Y197798D01*
X393064Y197978D01*
X393187Y198179D01*
X393277Y198397D01*
X393333Y198627D01*
X393346Y198862D01*
Y205862D01*
X393333Y206098D01*
X393277Y206327D01*
X393187Y206545D01*
X393064Y206747D01*
X392910Y206926D01*
X392731Y207079D01*
X392530Y207203D01*
X392311Y207293D01*
X392082Y207348D01*
X391846Y207362D01*
X388346D01*
Y227283D01*
X391846D01*
X392082Y227297D01*
X392311Y227352D01*
X392530Y227443D01*
X392731Y227566D01*
X392910Y227720D01*
X393064Y227899D01*
X393187Y228100D01*
X393277Y228319D01*
X393333Y228548D01*
X393346Y228783D01*
Y235783D01*
X393333Y236019D01*
X393277Y236248D01*
X393187Y236467D01*
X393064Y236668D01*
X392910Y236847D01*
X392731Y237001D01*
X392530Y237124D01*
X392311Y237214D01*
X392082Y237270D01*
X391846Y237283D01*
X388346D01*
Y257205D01*
X391846D01*
X392082Y257219D01*
X392311Y257274D01*
X392530Y257364D01*
X392731Y257487D01*
X392910Y257641D01*
X393064Y257820D01*
X393187Y258022D01*
X393277Y258240D01*
X393333Y258469D01*
X393346Y258705D01*
Y265705D01*
X393333Y265940D01*
X393277Y266170D01*
X393187Y266388D01*
X393064Y266589D01*
X392910Y266769D01*
X392731Y266922D01*
X392530Y267045D01*
X392311Y267136D01*
X392082Y267191D01*
X391846Y267205D01*
X388346D01*
Y287126D01*
X391846D01*
X392082Y287140D01*
X392311Y287195D01*
X392530Y287285D01*
X392731Y287409D01*
X392910Y287562D01*
X393064Y287742D01*
X393187Y287943D01*
X393277Y288161D01*
X393333Y288391D01*
X393346Y288626D01*
Y295626D01*
X393333Y295861D01*
X393277Y296091D01*
X393187Y296309D01*
X393064Y296510D01*
X392910Y296690D01*
X392731Y296843D01*
X392530Y296967D01*
X392311Y297057D01*
X392082Y297112D01*
X391846Y297126D01*
X388346D01*
Y317047D01*
X391846D01*
X392082Y317061D01*
X392311Y317116D01*
X392530Y317207D01*
X392731Y317330D01*
X392910Y317483D01*
X393064Y317663D01*
X393187Y317864D01*
X393277Y318082D01*
X393333Y318312D01*
X393346Y318547D01*
Y325547D01*
X393333Y325783D01*
X393277Y326012D01*
X393187Y326230D01*
X393064Y326432D01*
X392910Y326611D01*
X392731Y326765D01*
X392530Y326888D01*
X392311Y326978D01*
X392082Y327033D01*
X391846Y327047D01*
X388346D01*
Y346969D01*
X391846D01*
X392082Y346982D01*
X392311Y347038D01*
X392530Y347128D01*
X392731Y347251D01*
X392910Y347405D01*
X393064Y347584D01*
X393187Y347785D01*
X393277Y348004D01*
X393333Y348233D01*
X393346Y348469D01*
Y355469D01*
X393333Y355704D01*
X393277Y355933D01*
X393187Y356152D01*
X393064Y356353D01*
X392910Y356532D01*
X392731Y356686D01*
X392530Y356809D01*
X392311Y356899D01*
X392082Y356955D01*
X391846Y356969D01*
X388346D01*
Y376890D01*
X391846D01*
X392082Y376904D01*
X392311Y376959D01*
X392530Y377049D01*
X392731Y377172D01*
X392910Y377326D01*
X393064Y377505D01*
X393187Y377707D01*
X393277Y377925D01*
X393333Y378154D01*
X393346Y378390D01*
Y385390D01*
X393333Y385625D01*
X393277Y385855D01*
X393187Y386073D01*
X393064Y386274D01*
X392910Y386454D01*
X392731Y386607D01*
X392530Y386730D01*
X392311Y386821D01*
X392082Y386876D01*
X391846Y386890D01*
X388346D01*
Y406811D01*
X391846D01*
X392082Y406825D01*
X392311Y406880D01*
X392530Y406970D01*
X392731Y407094D01*
X392910Y407247D01*
X393064Y407427D01*
X393187Y407628D01*
X393277Y407846D01*
X393333Y408076D01*
X393346Y408311D01*
Y415311D01*
X393333Y415546D01*
X393277Y415776D01*
X393187Y415994D01*
X393064Y416195D01*
X392910Y416375D01*
X392731Y416528D01*
X392530Y416652D01*
X392311Y416742D01*
X392082Y416797D01*
X391846Y416811D01*
X388346D01*
Y436732D01*
X391846D01*
X392082Y436746D01*
X392311Y436801D01*
X392530Y436892D01*
X392731Y437015D01*
X392910Y437168D01*
X393064Y437348D01*
X393187Y437549D01*
X393277Y437767D01*
X393333Y437997D01*
X393346Y438232D01*
Y445232D01*
X393333Y445468D01*
X393277Y445697D01*
X393187Y445915D01*
X393064Y446117D01*
X392910Y446296D01*
X392731Y446450D01*
X392530Y446573D01*
X392311Y446663D01*
X392082Y446718D01*
X391846Y446732D01*
X388346D01*
Y457087D01*
G37*
G36*
X378339Y346954D02*X378346Y346953D01*
X379131Y347015D01*
X379896Y347199D01*
X380623Y347500D01*
X381294Y347911D01*
X381893Y348422D01*
X382404Y349021D01*
X382815Y349692D01*
X383116Y350419D01*
X383300Y351184D01*
X383346Y351969D01*
Y348469D01*
X383360Y348233D01*
X383415Y348004D01*
X383506Y347785D01*
X383629Y347584D01*
X383783Y347405D01*
X383962Y347251D01*
X384163Y347128D01*
X384382Y347038D01*
X384611Y346982D01*
X384846Y346969D01*
X388346D01*
Y327047D01*
X384846D01*
X384611Y327033D01*
X384382Y326978D01*
X384163Y326888D01*
X383962Y326765D01*
X383783Y326611D01*
X383629Y326432D01*
X383506Y326230D01*
X383415Y326012D01*
X383360Y325783D01*
X383346Y325547D01*
Y318547D01*
X383360Y318312D01*
X383415Y318082D01*
X383506Y317864D01*
X383629Y317663D01*
X383783Y317483D01*
X383962Y317330D01*
X384163Y317207D01*
X384382Y317116D01*
X384611Y317061D01*
X384846Y317047D01*
X388346D01*
Y297126D01*
X384846D01*
X384611Y297112D01*
X384382Y297057D01*
X384163Y296967D01*
X383962Y296843D01*
X383783Y296690D01*
X383629Y296510D01*
X383506Y296309D01*
X383415Y296091D01*
X383360Y295861D01*
X383346Y295626D01*
Y288626D01*
X383360Y288391D01*
X383415Y288161D01*
X383506Y287943D01*
X383629Y287742D01*
X383783Y287562D01*
X383962Y287409D01*
X384163Y287285D01*
X384382Y287195D01*
X384611Y287140D01*
X384846Y287126D01*
X388346D01*
Y267205D01*
X384846D01*
X384611Y267191D01*
X384382Y267136D01*
X384163Y267045D01*
X383962Y266922D01*
X383783Y266769D01*
X383629Y266589D01*
X383506Y266388D01*
X383415Y266170D01*
X383360Y265940D01*
X383346Y265705D01*
Y258705D01*
X383360Y258469D01*
X383415Y258240D01*
X383506Y258022D01*
X383629Y257820D01*
X383783Y257641D01*
X383962Y257487D01*
X384163Y257364D01*
X384382Y257274D01*
X384611Y257219D01*
X384846Y257205D01*
X388346D01*
Y237283D01*
X384846D01*
X384611Y237270D01*
X384382Y237214D01*
X384163Y237124D01*
X383962Y237001D01*
X383783Y236847D01*
X383629Y236668D01*
X383506Y236467D01*
X383415Y236248D01*
X383360Y236019D01*
X383346Y235783D01*
Y228783D01*
X383360Y228548D01*
X383415Y228319D01*
X383506Y228100D01*
X383629Y227899D01*
X383783Y227720D01*
X383962Y227566D01*
X384163Y227443D01*
X384382Y227352D01*
X384611Y227297D01*
X384846Y227283D01*
X388346D01*
Y207362D01*
X384846D01*
X384611Y207348D01*
X384382Y207293D01*
X384163Y207203D01*
X383962Y207079D01*
X383783Y206926D01*
X383629Y206747D01*
X383506Y206545D01*
X383415Y206327D01*
X383360Y206098D01*
X383346Y205862D01*
Y198862D01*
X383360Y198627D01*
X383415Y198397D01*
X383506Y198179D01*
X383629Y197978D01*
X383783Y197798D01*
X383962Y197645D01*
X384163Y197522D01*
X384382Y197431D01*
X384611Y197376D01*
X384846Y197362D01*
X388346D01*
Y177441D01*
X384846D01*
X384611Y177427D01*
X384382Y177372D01*
X384163Y177282D01*
X383962Y177158D01*
X383783Y177005D01*
X383629Y176825D01*
X383506Y176624D01*
X383415Y176406D01*
X383360Y176176D01*
X383346Y175941D01*
Y168941D01*
X383360Y168706D01*
X383415Y168476D01*
X383506Y168258D01*
X383629Y168057D01*
X383783Y167877D01*
X383962Y167724D01*
X384163Y167600D01*
X384382Y167510D01*
X384611Y167455D01*
X384846Y167441D01*
X388346D01*
Y147520D01*
X384846D01*
X384611Y147506D01*
X384382Y147451D01*
X384163Y147360D01*
X383962Y147237D01*
X383783Y147084D01*
X383629Y146904D01*
X383506Y146703D01*
X383415Y146485D01*
X383360Y146255D01*
X383346Y146020D01*
Y139020D01*
X383360Y138784D01*
X383415Y138555D01*
X383506Y138337D01*
X383629Y138135D01*
X383783Y137956D01*
X383962Y137802D01*
X384163Y137679D01*
X384382Y137589D01*
X384611Y137534D01*
X384846Y137520D01*
X388346D01*
Y117598D01*
X384846D01*
X384611Y117585D01*
X384382Y117529D01*
X384163Y117439D01*
X383962Y117316D01*
X383783Y117162D01*
X383629Y116983D01*
X383506Y116782D01*
X383415Y116563D01*
X383360Y116334D01*
X383346Y116098D01*
Y109098D01*
X383360Y108863D01*
X383415Y108633D01*
X383506Y108415D01*
X383629Y108214D01*
X383783Y108034D01*
X383962Y107881D01*
X384163Y107758D01*
X384382Y107667D01*
X384611Y107612D01*
X384846Y107598D01*
X388346D01*
Y87508D01*
X388179Y87439D01*
X387978Y87316D01*
X387798Y87162D01*
X387645Y86983D01*
X387522Y86782D01*
X387431Y86563D01*
X387376Y86334D01*
X387362Y86098D01*
Y79098D01*
X387376Y78863D01*
X387431Y78633D01*
X387522Y78415D01*
X387645Y78214D01*
X387798Y78034D01*
X387978Y77881D01*
X388179Y77758D01*
X388346Y77688D01*
Y42323D01*
X378339D01*
Y79610D01*
X378816Y79052D01*
X379414Y78541D01*
X380085Y78130D01*
X380812Y77828D01*
X381578Y77645D01*
X382362Y77583D01*
X383147Y77645D01*
X383912Y77828D01*
X384639Y78130D01*
X385310Y78541D01*
X385909Y79052D01*
X386420Y79650D01*
X386831Y80321D01*
X387132Y81049D01*
X387316Y81814D01*
X387362Y82598D01*
X387316Y83383D01*
X387132Y84148D01*
X386831Y84875D01*
X386420Y85546D01*
X385909Y86145D01*
X385310Y86656D01*
X384639Y87067D01*
X383912Y87368D01*
X383147Y87552D01*
X382362Y87614D01*
X381578Y87552D01*
X380812Y87368D01*
X380085Y87067D01*
X379414Y86656D01*
X378816Y86145D01*
X378339Y85586D01*
Y107584D01*
X378346Y107583D01*
X379131Y107645D01*
X379896Y107828D01*
X380623Y108130D01*
X381294Y108541D01*
X381893Y109052D01*
X382404Y109650D01*
X382815Y110321D01*
X383116Y111049D01*
X383300Y111814D01*
X383346Y112598D01*
X383300Y113383D01*
X383116Y114148D01*
X382815Y114875D01*
X382404Y115546D01*
X381893Y116145D01*
X381294Y116656D01*
X380623Y117067D01*
X379896Y117368D01*
X379131Y117552D01*
X378346Y117614D01*
X378339Y117613D01*
Y137505D01*
X378346Y137504D01*
X379131Y137566D01*
X379896Y137750D01*
X380623Y138051D01*
X381294Y138462D01*
X381893Y138973D01*
X382404Y139572D01*
X382815Y140243D01*
X383116Y140970D01*
X383300Y141735D01*
X383346Y142520D01*
X383300Y143304D01*
X383116Y144070D01*
X382815Y144797D01*
X382404Y145468D01*
X381893Y146066D01*
X381294Y146577D01*
X380623Y146988D01*
X379896Y147290D01*
X379131Y147473D01*
X378346Y147535D01*
X378339Y147534D01*
Y167426D01*
X378346Y167426D01*
X379131Y167487D01*
X379896Y167671D01*
X380623Y167972D01*
X381294Y168383D01*
X381893Y168895D01*
X382404Y169493D01*
X382815Y170164D01*
X383116Y170891D01*
X383300Y171656D01*
X383346Y172441D01*
X383300Y173226D01*
X383116Y173991D01*
X382815Y174718D01*
X382404Y175389D01*
X381893Y175987D01*
X381294Y176499D01*
X380623Y176910D01*
X379896Y177211D01*
X379131Y177395D01*
X378346Y177456D01*
X378339Y177456D01*
Y197347D01*
X378346Y197347D01*
X379131Y197409D01*
X379896Y197592D01*
X380623Y197893D01*
X381294Y198305D01*
X381893Y198816D01*
X382404Y199414D01*
X382815Y200085D01*
X383116Y200812D01*
X383300Y201578D01*
X383346Y202362D01*
X383300Y203147D01*
X383116Y203912D01*
X382815Y204639D01*
X382404Y205310D01*
X381893Y205909D01*
X381294Y206420D01*
X380623Y206831D01*
X379896Y207132D01*
X379131Y207316D01*
X378346Y207378D01*
X378339Y207377D01*
Y227269D01*
X378346Y227268D01*
X379131Y227330D01*
X379896Y227514D01*
X380623Y227815D01*
X381294Y228226D01*
X381893Y228737D01*
X382404Y229335D01*
X382815Y230007D01*
X383116Y230734D01*
X383300Y231499D01*
X383346Y232283D01*
X383300Y233068D01*
X383116Y233833D01*
X382815Y234560D01*
X382404Y235231D01*
X381893Y235830D01*
X381294Y236341D01*
X380623Y236752D01*
X379896Y237053D01*
X379131Y237237D01*
X378346Y237299D01*
X378339Y237298D01*
Y257190D01*
X378346Y257189D01*
X379131Y257251D01*
X379896Y257435D01*
X380623Y257736D01*
X381294Y258147D01*
X381893Y258658D01*
X382404Y259257D01*
X382815Y259928D01*
X383116Y260655D01*
X383300Y261420D01*
X383346Y262205D01*
X383300Y262989D01*
X383116Y263755D01*
X382815Y264482D01*
X382404Y265153D01*
X381893Y265751D01*
X381294Y266262D01*
X380623Y266673D01*
X379896Y266975D01*
X379131Y267158D01*
X378346Y267220D01*
X378339Y267220D01*
Y287111D01*
X378346Y287111D01*
X379131Y287172D01*
X379896Y287356D01*
X380623Y287657D01*
X381294Y288068D01*
X381893Y288580D01*
X382404Y289178D01*
X382815Y289849D01*
X383116Y290576D01*
X383300Y291341D01*
X383346Y292126D01*
X383300Y292911D01*
X383116Y293676D01*
X382815Y294403D01*
X382404Y295074D01*
X381893Y295672D01*
X381294Y296184D01*
X380623Y296595D01*
X379896Y296896D01*
X379131Y297080D01*
X378346Y297141D01*
X378339Y297141D01*
Y317032D01*
X378346Y317032D01*
X379131Y317094D01*
X379896Y317277D01*
X380623Y317578D01*
X381294Y317990D01*
X381893Y318501D01*
X382404Y319099D01*
X382815Y319770D01*
X383116Y320497D01*
X383300Y321263D01*
X383346Y322047D01*
X383300Y322832D01*
X383116Y323597D01*
X382815Y324324D01*
X382404Y324995D01*
X381893Y325594D01*
X381294Y326105D01*
X380623Y326516D01*
X379896Y326817D01*
X379131Y327001D01*
X378346Y327063D01*
X378339Y327062D01*
Y346954D01*
G37*
G36*
Y376875D02*X378346Y376874D01*
X379131Y376936D01*
X379896Y377120D01*
X380623Y377421D01*
X381294Y377832D01*
X381893Y378343D01*
X382404Y378942D01*
X382815Y379613D01*
X383116Y380340D01*
X383300Y381105D01*
X383346Y381890D01*
Y378390D01*
X383360Y378154D01*
X383415Y377925D01*
X383506Y377707D01*
X383629Y377505D01*
X383783Y377326D01*
X383962Y377172D01*
X384163Y377049D01*
X384382Y376959D01*
X384611Y376904D01*
X384846Y376890D01*
X388346D01*
Y356969D01*
X384846D01*
X384611Y356955D01*
X384382Y356899D01*
X384163Y356809D01*
X383962Y356686D01*
X383783Y356532D01*
X383629Y356353D01*
X383506Y356152D01*
X383415Y355933D01*
X383360Y355704D01*
X383346Y355469D01*
Y351969D01*
X383300Y352753D01*
X383116Y353518D01*
X382815Y354245D01*
X382404Y354916D01*
X381893Y355515D01*
X381294Y356026D01*
X380623Y356437D01*
X379896Y356738D01*
X379131Y356922D01*
X378346Y356984D01*
X378339Y356983D01*
Y376875D01*
G37*
G36*
Y406796D02*X378346Y406796D01*
X379131Y406857D01*
X379896Y407041D01*
X380623Y407342D01*
X381294Y407753D01*
X381893Y408265D01*
X382404Y408863D01*
X382815Y409534D01*
X383116Y410261D01*
X383300Y411026D01*
X383346Y411811D01*
Y408311D01*
X383360Y408076D01*
X383415Y407846D01*
X383506Y407628D01*
X383629Y407427D01*
X383783Y407247D01*
X383962Y407094D01*
X384163Y406970D01*
X384382Y406880D01*
X384611Y406825D01*
X384846Y406811D01*
X388346D01*
Y386890D01*
X384846D01*
X384611Y386876D01*
X384382Y386821D01*
X384163Y386730D01*
X383962Y386607D01*
X383783Y386454D01*
X383629Y386274D01*
X383506Y386073D01*
X383415Y385855D01*
X383360Y385625D01*
X383346Y385390D01*
Y381890D01*
X383300Y382674D01*
X383116Y383440D01*
X382815Y384167D01*
X382404Y384838D01*
X381893Y385436D01*
X381294Y385947D01*
X380623Y386359D01*
X379896Y386660D01*
X379131Y386843D01*
X378346Y386905D01*
X378339Y386905D01*
Y406796D01*
G37*
G36*
Y457087D02*X388346D01*
Y446732D01*
X384846D01*
X384611Y446718D01*
X384382Y446663D01*
X384163Y446573D01*
X383962Y446450D01*
X383783Y446296D01*
X383629Y446117D01*
X383506Y445915D01*
X383415Y445697D01*
X383360Y445468D01*
X383346Y445232D01*
Y438232D01*
X383360Y437997D01*
X383415Y437767D01*
X383506Y437549D01*
X383629Y437348D01*
X383783Y437168D01*
X383962Y437015D01*
X384163Y436892D01*
X384382Y436801D01*
X384611Y436746D01*
X384846Y436732D01*
X388346D01*
Y416811D01*
X384846D01*
X384611Y416797D01*
X384382Y416742D01*
X384163Y416652D01*
X383962Y416528D01*
X383783Y416375D01*
X383629Y416195D01*
X383506Y415994D01*
X383415Y415776D01*
X383360Y415546D01*
X383346Y415311D01*
Y411811D01*
X383300Y412596D01*
X383116Y413361D01*
X382815Y414088D01*
X382404Y414759D01*
X381893Y415357D01*
X381294Y415869D01*
X380623Y416280D01*
X379896Y416581D01*
X379131Y416765D01*
X378346Y416826D01*
X378339Y416826D01*
Y436717D01*
X378346Y436717D01*
X379131Y436779D01*
X379896Y436962D01*
X380623Y437264D01*
X381294Y437675D01*
X381893Y438186D01*
X382404Y438784D01*
X382815Y439455D01*
X383116Y440182D01*
X383300Y440948D01*
X383346Y441732D01*
X383300Y442517D01*
X383116Y443282D01*
X382815Y444009D01*
X382404Y444680D01*
X381893Y445279D01*
X381294Y445790D01*
X380623Y446201D01*
X379896Y446502D01*
X379131Y446686D01*
X378346Y446748D01*
X378339Y446747D01*
Y457087D01*
G37*
G36*
X362362D02*X378339D01*
Y446747D01*
X377562Y446686D01*
X376797Y446502D01*
X376070Y446201D01*
X375398Y445790D01*
X374800Y445279D01*
X374289Y444680D01*
X373878Y444009D01*
X373577Y443282D01*
X373393Y442517D01*
X373331Y441732D01*
X373393Y440948D01*
X373577Y440182D01*
X373878Y439455D01*
X374289Y438784D01*
X374800Y438186D01*
X375398Y437675D01*
X376070Y437264D01*
X376797Y436962D01*
X377562Y436779D01*
X378339Y436717D01*
Y416826D01*
X377562Y416765D01*
X376797Y416581D01*
X376070Y416280D01*
X375398Y415869D01*
X374800Y415357D01*
X374289Y414759D01*
X373878Y414088D01*
X373577Y413361D01*
X373393Y412596D01*
X373331Y411811D01*
X373393Y411026D01*
X373577Y410261D01*
X373878Y409534D01*
X374289Y408863D01*
X374800Y408265D01*
X375398Y407753D01*
X376070Y407342D01*
X376797Y407041D01*
X377562Y406857D01*
X378339Y406796D01*
Y386905D01*
X377562Y386843D01*
X376797Y386660D01*
X376070Y386359D01*
X375398Y385947D01*
X374800Y385436D01*
X374289Y384838D01*
X373878Y384167D01*
X373577Y383440D01*
X373393Y382674D01*
X373331Y381890D01*
X373393Y381105D01*
X373577Y380340D01*
X373878Y379613D01*
X374289Y378942D01*
X374800Y378343D01*
X375398Y377832D01*
X376070Y377421D01*
X376797Y377120D01*
X377562Y376936D01*
X378339Y376875D01*
Y356983D01*
X377562Y356922D01*
X376797Y356738D01*
X376070Y356437D01*
X375398Y356026D01*
X374800Y355515D01*
X374289Y354916D01*
X373878Y354245D01*
X373577Y353518D01*
X373393Y352753D01*
X373331Y351969D01*
X373393Y351184D01*
X373577Y350419D01*
X373878Y349692D01*
X374289Y349021D01*
X374800Y348422D01*
X375398Y347911D01*
X376070Y347500D01*
X376797Y347199D01*
X377562Y347015D01*
X378339Y346954D01*
Y327062D01*
X377562Y327001D01*
X376797Y326817D01*
X376070Y326516D01*
X375398Y326105D01*
X374800Y325594D01*
X374289Y324995D01*
X373878Y324324D01*
X373577Y323597D01*
X373393Y322832D01*
X373331Y322047D01*
X373393Y321263D01*
X373577Y320497D01*
X373878Y319770D01*
X374289Y319099D01*
X374800Y318501D01*
X375398Y317990D01*
X376070Y317578D01*
X376797Y317277D01*
X377562Y317094D01*
X378339Y317032D01*
Y297141D01*
X377562Y297080D01*
X376797Y296896D01*
X376070Y296595D01*
X375398Y296184D01*
X374800Y295672D01*
X374289Y295074D01*
X373878Y294403D01*
X373577Y293676D01*
X373393Y292911D01*
X373331Y292126D01*
X373393Y291341D01*
X373577Y290576D01*
X373878Y289849D01*
X374289Y289178D01*
X374800Y288580D01*
X375398Y288068D01*
X376070Y287657D01*
X376797Y287356D01*
X377562Y287172D01*
X378339Y287111D01*
Y267220D01*
X377562Y267158D01*
X376797Y266975D01*
X376070Y266673D01*
X375398Y266262D01*
X374800Y265751D01*
X374289Y265153D01*
X373878Y264482D01*
X373577Y263755D01*
X373393Y262989D01*
X373331Y262205D01*
X373393Y261420D01*
X373577Y260655D01*
X373878Y259928D01*
X374289Y259257D01*
X374800Y258658D01*
X375398Y258147D01*
X376070Y257736D01*
X376797Y257435D01*
X377562Y257251D01*
X378339Y257190D01*
Y237298D01*
X377562Y237237D01*
X376797Y237053D01*
X376070Y236752D01*
X375398Y236341D01*
X374800Y235830D01*
X374289Y235231D01*
X373878Y234560D01*
X373577Y233833D01*
X373393Y233068D01*
X373331Y232283D01*
X373393Y231499D01*
X373577Y230734D01*
X373878Y230007D01*
X374289Y229335D01*
X374800Y228737D01*
X375398Y228226D01*
X376070Y227815D01*
X376797Y227514D01*
X377562Y227330D01*
X378339Y227269D01*
Y207377D01*
X377562Y207316D01*
X376797Y207132D01*
X376070Y206831D01*
X375398Y206420D01*
X374800Y205909D01*
X374289Y205310D01*
X373878Y204639D01*
X373577Y203912D01*
X373393Y203147D01*
X373331Y202362D01*
X373393Y201578D01*
X373577Y200812D01*
X373878Y200085D01*
X374289Y199414D01*
X374800Y198816D01*
X375398Y198305D01*
X376070Y197893D01*
X376797Y197592D01*
X377562Y197409D01*
X378339Y197347D01*
Y177456D01*
X377562Y177395D01*
X376797Y177211D01*
X376070Y176910D01*
X375398Y176499D01*
X374800Y175987D01*
X374289Y175389D01*
X373878Y174718D01*
X373577Y173991D01*
X373393Y173226D01*
X373331Y172441D01*
X373393Y171656D01*
X373577Y170891D01*
X373878Y170164D01*
X374289Y169493D01*
X374800Y168895D01*
X375398Y168383D01*
X376070Y167972D01*
X376797Y167671D01*
X377562Y167487D01*
X378339Y167426D01*
Y147534D01*
X377562Y147473D01*
X376797Y147290D01*
X376070Y146988D01*
X375398Y146577D01*
X374800Y146066D01*
X374289Y145468D01*
X373878Y144797D01*
X373577Y144070D01*
X373393Y143304D01*
X373331Y142520D01*
X373393Y141735D01*
X373577Y140970D01*
X373878Y140243D01*
X374289Y139572D01*
X374800Y138973D01*
X375398Y138462D01*
X376070Y138051D01*
X376797Y137750D01*
X377562Y137566D01*
X378339Y137505D01*
Y117613D01*
X377562Y117552D01*
X376797Y117368D01*
X376070Y117067D01*
X375398Y116656D01*
X374800Y116145D01*
X374289Y115546D01*
X373878Y114875D01*
X373577Y114148D01*
X373393Y113383D01*
X373331Y112598D01*
X373393Y111814D01*
X373577Y111049D01*
X373878Y110321D01*
X374289Y109650D01*
X374800Y109052D01*
X375398Y108541D01*
X376070Y108130D01*
X376797Y107828D01*
X377562Y107645D01*
X378339Y107584D01*
Y85586D01*
X378305Y85546D01*
X377893Y84875D01*
X377592Y84148D01*
X377409Y83383D01*
X377347Y82598D01*
X377409Y81814D01*
X377592Y81049D01*
X377893Y80321D01*
X378305Y79650D01*
X378339Y79610D01*
Y42323D01*
X362362D01*
Y77598D01*
X365862D01*
X366098Y77612D01*
X366327Y77667D01*
X366545Y77758D01*
X366747Y77881D01*
X366926Y78034D01*
X367079Y78214D01*
X367203Y78415D01*
X367293Y78633D01*
X367348Y78863D01*
X367362Y79098D01*
Y86098D01*
X367348Y86334D01*
X367293Y86563D01*
X367203Y86782D01*
X367079Y86983D01*
X366926Y87162D01*
X366747Y87316D01*
X366545Y87439D01*
X366327Y87529D01*
X366098Y87585D01*
X365862Y87598D01*
X362362D01*
Y457087D01*
G37*
G36*
X352351D02*X362362D01*
Y87598D01*
X358862D01*
X358627Y87585D01*
X358397Y87529D01*
X358179Y87439D01*
X357978Y87316D01*
X357798Y87162D01*
X357645Y86983D01*
X357522Y86782D01*
X357431Y86563D01*
X357376Y86334D01*
X357362Y86098D01*
Y79098D01*
X357376Y78863D01*
X357431Y78633D01*
X357522Y78415D01*
X357645Y78214D01*
X357798Y78034D01*
X357978Y77881D01*
X358179Y77758D01*
X358397Y77667D01*
X358627Y77612D01*
X358862Y77598D01*
X362362D01*
Y42323D01*
X352351D01*
Y77584D01*
X352362Y77583D01*
X353147Y77645D01*
X353912Y77828D01*
X354639Y78130D01*
X355310Y78541D01*
X355909Y79052D01*
X356420Y79650D01*
X356831Y80321D01*
X357132Y81049D01*
X357316Y81814D01*
X357362Y82598D01*
X357316Y83383D01*
X357132Y84148D01*
X356831Y84875D01*
X356420Y85546D01*
X355909Y86145D01*
X355310Y86656D01*
X354639Y87067D01*
X353912Y87368D01*
X353147Y87552D01*
X352362Y87614D01*
X352351Y87613D01*
Y109112D01*
X352362Y109111D01*
X353536Y109203D01*
X354681Y109478D01*
X355769Y109929D01*
X356773Y110544D01*
X357668Y111308D01*
X358433Y112204D01*
X359048Y113208D01*
X359498Y114296D01*
X359773Y115440D01*
X359843Y116614D01*
X359773Y117788D01*
X359498Y118933D01*
X359048Y120021D01*
X358433Y121025D01*
X357668Y121920D01*
X356773Y122685D01*
X355769Y123300D01*
X354681Y123750D01*
X353536Y124025D01*
X352362Y124118D01*
X352351Y124117D01*
Y457087D01*
G37*
G36*
X332362D02*X352351D01*
Y124117D01*
X351188Y124025D01*
X350044Y123750D01*
X348956Y123300D01*
X347952Y122685D01*
X347057Y121920D01*
X346292Y121025D01*
X345677Y120021D01*
X345226Y118933D01*
X344951Y117788D01*
X344859Y116614D01*
X344951Y115440D01*
X345226Y114296D01*
X345677Y113208D01*
X346292Y112204D01*
X347057Y111308D01*
X347952Y110544D01*
X348956Y109929D01*
X350044Y109478D01*
X351188Y109203D01*
X352351Y109112D01*
Y87613D01*
X351578Y87552D01*
X350812Y87368D01*
X350085Y87067D01*
X349414Y86656D01*
X348816Y86145D01*
X348305Y85546D01*
X347893Y84875D01*
X347592Y84148D01*
X347409Y83383D01*
X347347Y82598D01*
X347409Y81814D01*
X347592Y81049D01*
X347893Y80321D01*
X348305Y79650D01*
X348816Y79052D01*
X349414Y78541D01*
X350085Y78130D01*
X350812Y77828D01*
X351578Y77645D01*
X352351Y77584D01*
Y42323D01*
X332362D01*
Y77598D01*
X335862D01*
X336098Y77612D01*
X336327Y77667D01*
X336545Y77758D01*
X336747Y77881D01*
X336926Y78034D01*
X337079Y78214D01*
X337203Y78415D01*
X337293Y78633D01*
X337348Y78863D01*
X337362Y79098D01*
Y86098D01*
X337348Y86334D01*
X337293Y86563D01*
X337203Y86782D01*
X337079Y86983D01*
X336926Y87162D01*
X336747Y87316D01*
X336545Y87439D01*
X336327Y87529D01*
X336098Y87585D01*
X335862Y87598D01*
X332362D01*
Y457087D01*
G37*
G36*
X322354D02*X332362D01*
Y87598D01*
X328862D01*
X328627Y87585D01*
X328397Y87529D01*
X328179Y87439D01*
X327978Y87316D01*
X327798Y87162D01*
X327645Y86983D01*
X327522Y86782D01*
X327431Y86563D01*
X327376Y86334D01*
X327362Y86098D01*
Y79098D01*
X327376Y78863D01*
X327431Y78633D01*
X327522Y78415D01*
X327645Y78214D01*
X327798Y78034D01*
X327978Y77881D01*
X328179Y77758D01*
X328397Y77667D01*
X328627Y77612D01*
X328862Y77598D01*
X332362D01*
Y42323D01*
X322354D01*
Y77584D01*
X322362Y77583D01*
X323147Y77645D01*
X323912Y77828D01*
X324639Y78130D01*
X325310Y78541D01*
X325909Y79052D01*
X326420Y79650D01*
X326831Y80321D01*
X327132Y81049D01*
X327316Y81814D01*
X327362Y82598D01*
X327316Y83383D01*
X327132Y84148D01*
X326831Y84875D01*
X326420Y85546D01*
X325909Y86145D01*
X325310Y86656D01*
X324639Y87067D01*
X323912Y87368D01*
X323147Y87552D01*
X322362Y87614D01*
X322354Y87613D01*
Y457087D01*
G37*
G36*
X302362D02*X322354D01*
Y87613D01*
X321578Y87552D01*
X320812Y87368D01*
X320085Y87067D01*
X319414Y86656D01*
X318816Y86145D01*
X318305Y85546D01*
X317893Y84875D01*
X317592Y84148D01*
X317409Y83383D01*
X317347Y82598D01*
X317409Y81814D01*
X317592Y81049D01*
X317893Y80321D01*
X318305Y79650D01*
X318816Y79052D01*
X319414Y78541D01*
X320085Y78130D01*
X320812Y77828D01*
X321578Y77645D01*
X322354Y77584D01*
Y42323D01*
X302362D01*
Y77598D01*
X305862D01*
X306098Y77612D01*
X306327Y77667D01*
X306545Y77758D01*
X306747Y77881D01*
X306926Y78034D01*
X307079Y78214D01*
X307203Y78415D01*
X307293Y78633D01*
X307348Y78863D01*
X307362Y79098D01*
Y86098D01*
X307348Y86334D01*
X307293Y86563D01*
X307203Y86782D01*
X307079Y86983D01*
X306926Y87162D01*
X306747Y87316D01*
X306545Y87439D01*
X306327Y87529D01*
X306098Y87585D01*
X305862Y87598D01*
X302362D01*
Y457087D01*
G37*
G36*
X292354D02*X302362D01*
Y87598D01*
X298862D01*
X298627Y87585D01*
X298397Y87529D01*
X298179Y87439D01*
X297978Y87316D01*
X297798Y87162D01*
X297645Y86983D01*
X297522Y86782D01*
X297431Y86563D01*
X297376Y86334D01*
X297362Y86098D01*
Y79098D01*
X297376Y78863D01*
X297431Y78633D01*
X297522Y78415D01*
X297645Y78214D01*
X297798Y78034D01*
X297978Y77881D01*
X298179Y77758D01*
X298397Y77667D01*
X298627Y77612D01*
X298862Y77598D01*
X302362D01*
Y42323D01*
X292354D01*
Y77584D01*
X292362Y77583D01*
X293147Y77645D01*
X293912Y77828D01*
X294639Y78130D01*
X295310Y78541D01*
X295909Y79052D01*
X296420Y79650D01*
X296831Y80321D01*
X297132Y81049D01*
X297316Y81814D01*
X297362Y82598D01*
X297316Y83383D01*
X297132Y84148D01*
X296831Y84875D01*
X296420Y85546D01*
X295909Y86145D01*
X295310Y86656D01*
X294639Y87067D01*
X293912Y87368D01*
X293147Y87552D01*
X292362Y87614D01*
X292354Y87613D01*
Y457087D01*
G37*
G36*
X272362D02*X292354D01*
Y87613D01*
X291578Y87552D01*
X290812Y87368D01*
X290085Y87067D01*
X289414Y86656D01*
X288816Y86145D01*
X288305Y85546D01*
X287893Y84875D01*
X287592Y84148D01*
X287409Y83383D01*
X287347Y82598D01*
X287409Y81814D01*
X287592Y81049D01*
X287893Y80321D01*
X288305Y79650D01*
X288816Y79052D01*
X289414Y78541D01*
X290085Y78130D01*
X290812Y77828D01*
X291578Y77645D01*
X292354Y77584D01*
Y42323D01*
X272362D01*
Y77598D01*
X275862D01*
X276098Y77612D01*
X276327Y77667D01*
X276545Y77758D01*
X276747Y77881D01*
X276926Y78034D01*
X277079Y78214D01*
X277203Y78415D01*
X277293Y78633D01*
X277348Y78863D01*
X277362Y79098D01*
Y86098D01*
X277348Y86334D01*
X277293Y86563D01*
X277203Y86782D01*
X277079Y86983D01*
X276926Y87162D01*
X276747Y87316D01*
X276545Y87439D01*
X276327Y87529D01*
X276098Y87585D01*
X275862Y87598D01*
X272362D01*
Y457087D01*
G37*
G36*
X262354D02*X272362D01*
Y87598D01*
X268862D01*
X268627Y87585D01*
X268397Y87529D01*
X268179Y87439D01*
X267978Y87316D01*
X267798Y87162D01*
X267645Y86983D01*
X267522Y86782D01*
X267431Y86563D01*
X267376Y86334D01*
X267362Y86098D01*
Y79098D01*
X267376Y78863D01*
X267431Y78633D01*
X267522Y78415D01*
X267645Y78214D01*
X267798Y78034D01*
X267978Y77881D01*
X268179Y77758D01*
X268397Y77667D01*
X268627Y77612D01*
X268862Y77598D01*
X272362D01*
Y42323D01*
X262354D01*
Y77584D01*
X262362Y77583D01*
X263147Y77645D01*
X263912Y77828D01*
X264639Y78130D01*
X265310Y78541D01*
X265909Y79052D01*
X266420Y79650D01*
X266831Y80321D01*
X267132Y81049D01*
X267316Y81814D01*
X267362Y82598D01*
X267316Y83383D01*
X267132Y84148D01*
X266831Y84875D01*
X266420Y85546D01*
X265909Y86145D01*
X265310Y86656D01*
X264639Y87067D01*
X263912Y87368D01*
X263147Y87552D01*
X262362Y87614D01*
X262354Y87613D01*
Y457087D01*
G37*
G36*
X242362D02*X262354D01*
Y87613D01*
X261578Y87552D01*
X260812Y87368D01*
X260085Y87067D01*
X259414Y86656D01*
X258816Y86145D01*
X258305Y85546D01*
X257893Y84875D01*
X257592Y84148D01*
X257409Y83383D01*
X257347Y82598D01*
X257409Y81814D01*
X257592Y81049D01*
X257893Y80321D01*
X258305Y79650D01*
X258816Y79052D01*
X259414Y78541D01*
X260085Y78130D01*
X260812Y77828D01*
X261578Y77645D01*
X262354Y77584D01*
Y42323D01*
X242362D01*
Y77598D01*
X245862D01*
X246098Y77612D01*
X246327Y77667D01*
X246545Y77758D01*
X246747Y77881D01*
X246926Y78034D01*
X247079Y78214D01*
X247203Y78415D01*
X247293Y78633D01*
X247348Y78863D01*
X247362Y79098D01*
Y86098D01*
X247348Y86334D01*
X247293Y86563D01*
X247203Y86782D01*
X247079Y86983D01*
X246926Y87162D01*
X246747Y87316D01*
X246545Y87439D01*
X246327Y87529D01*
X246098Y87585D01*
X245862Y87598D01*
X242362D01*
Y457087D01*
G37*
G36*
X232354D02*X242362D01*
Y87598D01*
X238862D01*
X238627Y87585D01*
X238397Y87529D01*
X238179Y87439D01*
X237978Y87316D01*
X237798Y87162D01*
X237645Y86983D01*
X237522Y86782D01*
X237431Y86563D01*
X237376Y86334D01*
X237362Y86098D01*
Y79098D01*
X237376Y78863D01*
X237431Y78633D01*
X237522Y78415D01*
X237645Y78214D01*
X237798Y78034D01*
X237978Y77881D01*
X238179Y77758D01*
X238397Y77667D01*
X238627Y77612D01*
X238862Y77598D01*
X242362D01*
Y42323D01*
X232354D01*
Y77584D01*
X232362Y77583D01*
X233147Y77645D01*
X233912Y77828D01*
X234639Y78130D01*
X235310Y78541D01*
X235909Y79052D01*
X236420Y79650D01*
X236831Y80321D01*
X237132Y81049D01*
X237316Y81814D01*
X237362Y82598D01*
X237316Y83383D01*
X237132Y84148D01*
X236831Y84875D01*
X236420Y85546D01*
X235909Y86145D01*
X235310Y86656D01*
X234639Y87067D01*
X233912Y87368D01*
X233147Y87552D01*
X232362Y87614D01*
X232354Y87613D01*
Y457087D01*
G37*
G36*
X212351D02*X232354D01*
Y87613D01*
X231578Y87552D01*
X230812Y87368D01*
X230085Y87067D01*
X229414Y86656D01*
X228816Y86145D01*
X228305Y85546D01*
X227893Y84875D01*
X227592Y84148D01*
X227409Y83383D01*
X227347Y82598D01*
X227409Y81814D01*
X227592Y81049D01*
X227893Y80321D01*
X228305Y79650D01*
X228816Y79052D01*
X229414Y78541D01*
X230085Y78130D01*
X230812Y77828D01*
X231578Y77645D01*
X232354Y77584D01*
Y42323D01*
X212351D01*
Y77598D01*
X215862D01*
X216098Y77612D01*
X216327Y77667D01*
X216545Y77758D01*
X216747Y77881D01*
X216926Y78034D01*
X217079Y78214D01*
X217203Y78415D01*
X217293Y78633D01*
X217348Y78863D01*
X217362Y79098D01*
Y86098D01*
X217348Y86334D01*
X217293Y86563D01*
X217203Y86782D01*
X217079Y86983D01*
X216926Y87162D01*
X216747Y87316D01*
X216545Y87439D01*
X216327Y87529D01*
X216098Y87585D01*
X215862Y87598D01*
X212351D01*
Y109112D01*
X212362Y109111D01*
X213536Y109203D01*
X214681Y109478D01*
X215769Y109929D01*
X216773Y110544D01*
X217668Y111308D01*
X218433Y112204D01*
X219048Y113208D01*
X219498Y114296D01*
X219773Y115440D01*
X219843Y116614D01*
X219773Y117788D01*
X219498Y118933D01*
X219048Y120021D01*
X218433Y121025D01*
X217668Y121920D01*
X216773Y122685D01*
X215769Y123300D01*
X214681Y123750D01*
X213536Y124025D01*
X212362Y124118D01*
X212351Y124117D01*
Y457087D01*
G37*
G36*
X202354D02*X212351D01*
Y124117D01*
X211188Y124025D01*
X210044Y123750D01*
X208956Y123300D01*
X207952Y122685D01*
X207057Y121920D01*
X206292Y121025D01*
X205677Y120021D01*
X205226Y118933D01*
X204951Y117788D01*
X204859Y116614D01*
X204951Y115440D01*
X205226Y114296D01*
X205677Y113208D01*
X206292Y112204D01*
X207057Y111308D01*
X207952Y110544D01*
X208956Y109929D01*
X210044Y109478D01*
X211188Y109203D01*
X212351Y109112D01*
Y87598D01*
X208862D01*
X208627Y87585D01*
X208397Y87529D01*
X208179Y87439D01*
X207978Y87316D01*
X207798Y87162D01*
X207645Y86983D01*
X207522Y86782D01*
X207431Y86563D01*
X207376Y86334D01*
X207362Y86098D01*
Y79098D01*
X207376Y78863D01*
X207431Y78633D01*
X207522Y78415D01*
X207645Y78214D01*
X207798Y78034D01*
X207978Y77881D01*
X208179Y77758D01*
X208397Y77667D01*
X208627Y77612D01*
X208862Y77598D01*
X212351D01*
Y42323D01*
X202354D01*
Y77584D01*
X202362Y77583D01*
X203147Y77645D01*
X203912Y77828D01*
X204639Y78130D01*
X205310Y78541D01*
X205909Y79052D01*
X206420Y79650D01*
X206831Y80321D01*
X207132Y81049D01*
X207316Y81814D01*
X207362Y82598D01*
X207316Y83383D01*
X207132Y84148D01*
X206831Y84875D01*
X206420Y85546D01*
X205909Y86145D01*
X205310Y86656D01*
X204639Y87067D01*
X203912Y87368D01*
X203147Y87552D01*
X202362Y87614D01*
X202354Y87613D01*
Y457087D01*
G37*
G36*
X186378D02*X202354D01*
Y87613D01*
X201578Y87552D01*
X200812Y87368D01*
X200085Y87067D01*
X199414Y86656D01*
X198816Y86145D01*
X198305Y85546D01*
X197893Y84875D01*
X197592Y84148D01*
X197409Y83383D01*
X197347Y82598D01*
X197409Y81814D01*
X197592Y81049D01*
X197893Y80321D01*
X198305Y79650D01*
X198816Y79052D01*
X199414Y78541D01*
X200085Y78130D01*
X200812Y77828D01*
X201578Y77645D01*
X202354Y77584D01*
Y42323D01*
X186378D01*
Y77688D01*
X186545Y77758D01*
X186747Y77881D01*
X186926Y78034D01*
X187079Y78214D01*
X187203Y78415D01*
X187293Y78633D01*
X187348Y78863D01*
X187362Y79098D01*
Y86098D01*
X187348Y86334D01*
X187293Y86563D01*
X187203Y86782D01*
X187079Y86983D01*
X186926Y87162D01*
X186747Y87316D01*
X186545Y87439D01*
X186378Y87508D01*
Y107598D01*
X189878D01*
X190113Y107612D01*
X190343Y107667D01*
X190561Y107758D01*
X190762Y107881D01*
X190942Y108034D01*
X191095Y108214D01*
X191219Y108415D01*
X191309Y108633D01*
X191364Y108863D01*
X191378Y109098D01*
Y116098D01*
X191364Y116334D01*
X191309Y116563D01*
X191219Y116782D01*
X191095Y116983D01*
X190942Y117162D01*
X190762Y117316D01*
X190561Y117439D01*
X190343Y117529D01*
X190113Y117585D01*
X189878Y117598D01*
X189500D01*
Y121320D01*
X189511Y121457D01*
X189468Y122002D01*
X189340Y122534D01*
X189131Y123040D01*
X188845Y123506D01*
X188845Y123506D01*
X188489Y123922D01*
X188385Y124011D01*
X186378Y126019D01*
Y137520D01*
X189878D01*
X190113Y137534D01*
X190343Y137589D01*
X190561Y137679D01*
X190762Y137802D01*
X190942Y137956D01*
X191095Y138135D01*
X191219Y138337D01*
X191309Y138555D01*
X191364Y138784D01*
X191378Y139020D01*
Y146020D01*
X191364Y146255D01*
X191309Y146485D01*
X191219Y146703D01*
X191095Y146904D01*
X190942Y147084D01*
X190762Y147237D01*
X190561Y147360D01*
X190343Y147451D01*
X190113Y147506D01*
X189878Y147520D01*
X189500D01*
Y147895D01*
X189511Y148032D01*
X189468Y148577D01*
X189340Y149109D01*
X189131Y149615D01*
X188845Y150081D01*
X188845Y150081D01*
X188489Y150497D01*
X188385Y150586D01*
X186378Y152594D01*
Y167441D01*
X189878D01*
X190113Y167455D01*
X190343Y167510D01*
X190561Y167600D01*
X190762Y167724D01*
X190942Y167877D01*
X191095Y168057D01*
X191219Y168258D01*
X191309Y168476D01*
X191364Y168706D01*
X191378Y168941D01*
Y175941D01*
X191364Y176176D01*
X191309Y176406D01*
X191219Y176624D01*
X191095Y176825D01*
X190942Y177005D01*
X190762Y177158D01*
X190561Y177282D01*
X190343Y177372D01*
X190113Y177427D01*
X189878Y177441D01*
X189846D01*
X189822Y177750D01*
X189694Y178282D01*
X189485Y178788D01*
X189199Y179254D01*
X189199Y179254D01*
X188844Y179670D01*
X188740Y179759D01*
X186378Y182121D01*
Y197362D01*
X189878D01*
X190113Y197376D01*
X190343Y197431D01*
X190561Y197522D01*
X190762Y197645D01*
X190942Y197798D01*
X191095Y197978D01*
X191219Y198179D01*
X191309Y198397D01*
X191364Y198627D01*
X191378Y198862D01*
Y205862D01*
X191364Y206098D01*
X191309Y206327D01*
X191219Y206545D01*
X191095Y206747D01*
X190942Y206926D01*
X190762Y207079D01*
X190561Y207203D01*
X190343Y207293D01*
X190113Y207348D01*
X189878Y207362D01*
X186378D01*
Y227283D01*
X189878D01*
X190113Y227297D01*
X190343Y227352D01*
X190561Y227443D01*
X190762Y227566D01*
X190942Y227720D01*
X191095Y227899D01*
X191219Y228100D01*
X191309Y228319D01*
X191364Y228548D01*
X191378Y228783D01*
Y235783D01*
X191364Y236019D01*
X191309Y236248D01*
X191219Y236467D01*
X191095Y236668D01*
X190942Y236847D01*
X190762Y237001D01*
X190561Y237124D01*
X190343Y237214D01*
X190113Y237270D01*
X189878Y237283D01*
X189500D01*
Y242383D01*
X189511Y242520D01*
X189468Y243065D01*
X189468Y243065D01*
X189340Y243597D01*
X189131Y244103D01*
X188845Y244569D01*
X188489Y244985D01*
X188385Y245074D01*
X186378Y247082D01*
Y257205D01*
X189878D01*
X190113Y257219D01*
X190343Y257274D01*
X190561Y257364D01*
X190762Y257487D01*
X190942Y257641D01*
X191095Y257820D01*
X191219Y258022D01*
X191309Y258240D01*
X191364Y258469D01*
X191378Y258705D01*
Y265705D01*
X191364Y265940D01*
X191309Y266170D01*
X191219Y266388D01*
X191095Y266589D01*
X190942Y266769D01*
X190762Y266922D01*
X190561Y267045D01*
X190343Y267136D01*
X190113Y267191D01*
X189878Y267205D01*
X186378D01*
Y287126D01*
X189878D01*
X190113Y287140D01*
X190343Y287195D01*
X190561Y287285D01*
X190762Y287409D01*
X190942Y287562D01*
X191095Y287742D01*
X191219Y287943D01*
X191309Y288161D01*
X191364Y288391D01*
X191378Y288626D01*
Y295626D01*
X191364Y295861D01*
X191309Y296091D01*
X191219Y296309D01*
X191095Y296510D01*
X190942Y296690D01*
X190762Y296843D01*
X190561Y296967D01*
X190343Y297057D01*
X190113Y297112D01*
X189878Y297126D01*
X186378D01*
Y317047D01*
X189878D01*
X190113Y317061D01*
X190343Y317116D01*
X190561Y317207D01*
X190762Y317330D01*
X190942Y317483D01*
X191095Y317663D01*
X191219Y317864D01*
X191309Y318082D01*
X191364Y318312D01*
X191378Y318547D01*
Y325547D01*
X191364Y325783D01*
X191309Y326012D01*
X191219Y326230D01*
X191095Y326432D01*
X190942Y326611D01*
X190762Y326765D01*
X190561Y326888D01*
X190343Y326978D01*
X190113Y327033D01*
X189878Y327047D01*
X186378D01*
Y346969D01*
X189878D01*
X190113Y346982D01*
X190343Y347038D01*
X190561Y347128D01*
X190762Y347251D01*
X190942Y347405D01*
X191095Y347584D01*
X191219Y347785D01*
X191309Y348004D01*
X191364Y348233D01*
X191378Y348469D01*
Y355469D01*
X191364Y355704D01*
X191309Y355933D01*
X191219Y356152D01*
X191095Y356353D01*
X190942Y356532D01*
X190762Y356686D01*
X190561Y356809D01*
X190343Y356899D01*
X190113Y356955D01*
X189878Y356969D01*
X186378D01*
Y376890D01*
X189878D01*
X190113Y376904D01*
X190343Y376959D01*
X190561Y377049D01*
X190762Y377172D01*
X190942Y377326D01*
X191095Y377505D01*
X191219Y377707D01*
X191309Y377925D01*
X191364Y378154D01*
X191378Y378390D01*
Y385390D01*
X191364Y385625D01*
X191309Y385855D01*
X191219Y386073D01*
X191095Y386274D01*
X190942Y386454D01*
X190762Y386607D01*
X190561Y386730D01*
X190343Y386821D01*
X190113Y386876D01*
X189878Y386890D01*
X186378D01*
Y406811D01*
X189878D01*
X190113Y406825D01*
X190343Y406880D01*
X190561Y406970D01*
X190762Y407094D01*
X190942Y407247D01*
X191095Y407427D01*
X191219Y407628D01*
X191309Y407846D01*
X191364Y408076D01*
X191378Y408311D01*
Y415311D01*
X191364Y415546D01*
X191309Y415776D01*
X191219Y415994D01*
X191095Y416195D01*
X190942Y416375D01*
X190762Y416528D01*
X190561Y416652D01*
X190343Y416742D01*
X190113Y416797D01*
X189878Y416811D01*
X186378D01*
Y436732D01*
X189878D01*
X190113Y436746D01*
X190343Y436801D01*
X190561Y436892D01*
X190762Y437015D01*
X190942Y437168D01*
X191095Y437348D01*
X191219Y437549D01*
X191309Y437767D01*
X191364Y437997D01*
X191378Y438232D01*
Y445232D01*
X191364Y445468D01*
X191309Y445697D01*
X191219Y445915D01*
X191095Y446117D01*
X190942Y446296D01*
X190762Y446450D01*
X190561Y446573D01*
X190343Y446663D01*
X190113Y446718D01*
X189878Y446732D01*
X186378D01*
Y457087D01*
G37*
G36*
Y356969D02*X182878D01*
X182643Y356955D01*
X182413Y356899D01*
X182195Y356809D01*
X181994Y356686D01*
X181814Y356532D01*
X181661Y356353D01*
X181537Y356152D01*
X181447Y355933D01*
X181392Y355704D01*
X181378Y355469D01*
Y351969D01*
X181370Y352099D01*
Y381759D01*
X181378Y381890D01*
Y378390D01*
X181392Y378154D01*
X181447Y377925D01*
X181537Y377707D01*
X181661Y377505D01*
X181814Y377326D01*
X181994Y377172D01*
X182195Y377049D01*
X182413Y376959D01*
X182643Y376904D01*
X182878Y376890D01*
X186378D01*
Y356969D01*
G37*
G36*
Y327047D02*X182878D01*
X182643Y327033D01*
X182413Y326978D01*
X182195Y326888D01*
X181994Y326765D01*
X181814Y326611D01*
X181661Y326432D01*
X181537Y326230D01*
X181447Y326012D01*
X181392Y325783D01*
X181378Y325547D01*
Y322047D01*
X181370Y322178D01*
Y351838D01*
X181378Y351969D01*
Y348469D01*
X181392Y348233D01*
X181447Y348004D01*
X181537Y347785D01*
X181661Y347584D01*
X181814Y347405D01*
X181994Y347251D01*
X182195Y347128D01*
X182413Y347038D01*
X182643Y346982D01*
X182878Y346969D01*
X186378D01*
Y327047D01*
G37*
G36*
Y297126D02*X182878D01*
X182643Y297112D01*
X182413Y297057D01*
X182195Y296967D01*
X181994Y296843D01*
X181814Y296690D01*
X181661Y296510D01*
X181537Y296309D01*
X181447Y296091D01*
X181392Y295861D01*
X181378Y295626D01*
Y292126D01*
X181370Y292257D01*
Y321917D01*
X181378Y322047D01*
Y318547D01*
X181392Y318312D01*
X181447Y318082D01*
X181537Y317864D01*
X181661Y317663D01*
X181814Y317483D01*
X181994Y317330D01*
X182195Y317207D01*
X182413Y317116D01*
X182643Y317061D01*
X182878Y317047D01*
X186378D01*
Y297126D01*
G37*
G36*
Y267205D02*X182878D01*
X182643Y267191D01*
X182413Y267136D01*
X182195Y267045D01*
X181994Y266922D01*
X181814Y266769D01*
X181661Y266589D01*
X181537Y266388D01*
X181447Y266170D01*
X181392Y265940D01*
X181378Y265705D01*
Y262205D01*
X181370Y262335D01*
Y291995D01*
X181378Y292126D01*
Y288626D01*
X181392Y288391D01*
X181447Y288161D01*
X181537Y287943D01*
X181661Y287742D01*
X181814Y287562D01*
X181994Y287409D01*
X182195Y287285D01*
X182413Y287195D01*
X182643Y287140D01*
X182878Y287126D01*
X186378D01*
Y267205D01*
G37*
G36*
Y247082D02*X183657Y249803D01*
X183568Y249907D01*
X183152Y250262D01*
X183152Y250262D01*
X182685Y250548D01*
X182180Y250757D01*
X181648Y250885D01*
X181370Y250907D01*
Y262074D01*
X181378Y262205D01*
Y258705D01*
X181392Y258469D01*
X181447Y258240D01*
X181537Y258022D01*
X181661Y257820D01*
X181814Y257641D01*
X181994Y257487D01*
X182195Y257364D01*
X182413Y257274D01*
X182643Y257219D01*
X182878Y257205D01*
X186378D01*
Y247082D01*
G37*
G36*
Y207362D02*X182878D01*
X182643Y207348D01*
X182413Y207293D01*
X182195Y207203D01*
X181994Y207079D01*
X181814Y206926D01*
X181661Y206747D01*
X181537Y206545D01*
X181447Y206327D01*
X181392Y206098D01*
X181378Y205862D01*
Y202362D01*
X181370Y202493D01*
Y232153D01*
X181378Y232283D01*
Y228783D01*
X181392Y228548D01*
X181447Y228319D01*
X181537Y228100D01*
X181661Y227899D01*
X181814Y227720D01*
X181994Y227566D01*
X182195Y227443D01*
X182413Y227352D01*
X182643Y227297D01*
X182878Y227283D01*
X186378D01*
Y207362D01*
G37*
G36*
Y182121D02*X181370Y187129D01*
Y202232D01*
X181378Y202362D01*
Y198862D01*
X181392Y198627D01*
X181447Y198397D01*
X181537Y198179D01*
X181661Y197978D01*
X181814Y197798D01*
X181994Y197645D01*
X182195Y197522D01*
X182413Y197431D01*
X182643Y197376D01*
X182878Y197362D01*
X186378D01*
Y182121D01*
G37*
G36*
Y152594D02*X181370Y157601D01*
Y172310D01*
X181378Y172441D01*
Y168941D01*
X181392Y168706D01*
X181447Y168476D01*
X181537Y168258D01*
X181661Y168057D01*
X181814Y167877D01*
X181994Y167724D01*
X182195Y167600D01*
X182413Y167510D01*
X182643Y167455D01*
X182878Y167441D01*
X186378D01*
Y152594D01*
G37*
G36*
Y126019D02*X183657Y128740D01*
X183568Y128844D01*
X183152Y129199D01*
X182685Y129485D01*
X182180Y129694D01*
X181648Y129822D01*
X181648Y129822D01*
X181370Y129844D01*
Y142389D01*
X181378Y142520D01*
X181370Y142650D01*
Y147769D01*
X181944Y147195D01*
X181814Y147084D01*
X181661Y146904D01*
X181537Y146703D01*
X181447Y146485D01*
X181392Y146255D01*
X181378Y146020D01*
Y139020D01*
X181392Y138784D01*
X181447Y138555D01*
X181537Y138337D01*
X181661Y138135D01*
X181814Y137956D01*
X181994Y137802D01*
X182195Y137679D01*
X182413Y137589D01*
X182643Y137534D01*
X182878Y137520D01*
X186378D01*
Y126019D01*
G37*
G36*
Y87508D02*X186327Y87529D01*
X186098Y87585D01*
X185862Y87598D01*
X181370D01*
Y112468D01*
X181378Y112598D01*
X181370Y112729D01*
Y121194D01*
X182547Y120017D01*
Y117562D01*
X182413Y117529D01*
X182195Y117439D01*
X181994Y117316D01*
X181814Y117162D01*
X181661Y116983D01*
X181537Y116782D01*
X181447Y116563D01*
X181392Y116334D01*
X181378Y116098D01*
Y109098D01*
X181392Y108863D01*
X181447Y108633D01*
X181537Y108415D01*
X181661Y108214D01*
X181814Y108034D01*
X181994Y107881D01*
X182195Y107758D01*
X182413Y107667D01*
X182643Y107612D01*
X182878Y107598D01*
X186378D01*
Y87508D01*
G37*
G36*
Y42323D02*X181370D01*
Y77598D01*
X185862D01*
X186098Y77612D01*
X186327Y77667D01*
X186378Y77688D01*
Y42323D01*
G37*
G36*
X181370Y457087D02*X186378D01*
Y446732D01*
X182878D01*
X182643Y446718D01*
X182413Y446663D01*
X182195Y446573D01*
X181994Y446450D01*
X181814Y446296D01*
X181661Y446117D01*
X181537Y445915D01*
X181447Y445697D01*
X181392Y445468D01*
X181378Y445232D01*
Y438232D01*
X181392Y437997D01*
X181447Y437767D01*
X181537Y437549D01*
X181661Y437348D01*
X181814Y437168D01*
X181994Y437015D01*
X182195Y436892D01*
X182413Y436801D01*
X182643Y436746D01*
X182878Y436732D01*
X186378D01*
Y416811D01*
X182878D01*
X182643Y416797D01*
X182413Y416742D01*
X182195Y416652D01*
X181994Y416528D01*
X181814Y416375D01*
X181661Y416195D01*
X181537Y415994D01*
X181447Y415776D01*
X181392Y415546D01*
X181378Y415311D01*
Y408311D01*
X181392Y408076D01*
X181447Y407846D01*
X181537Y407628D01*
X181661Y407427D01*
X181814Y407247D01*
X181994Y407094D01*
X182195Y406970D01*
X182413Y406880D01*
X182643Y406825D01*
X182878Y406811D01*
X186378D01*
Y386890D01*
X182878D01*
X182643Y386876D01*
X182413Y386821D01*
X182195Y386730D01*
X181994Y386607D01*
X181814Y386454D01*
X181661Y386274D01*
X181537Y386073D01*
X181447Y385855D01*
X181392Y385625D01*
X181378Y385390D01*
Y381890D01*
X181370Y382020D01*
Y411680D01*
X181378Y411811D01*
X181370Y411942D01*
Y441602D01*
X181378Y441732D01*
X181370Y441863D01*
Y457087D01*
G37*
G36*
Y187129D02*X170900Y197599D01*
Y242999D01*
X170911Y243136D01*
X170868Y243681D01*
X170868Y243681D01*
X170740Y244213D01*
X170531Y244719D01*
X170245Y245185D01*
X169889Y245601D01*
X169786Y245690D01*
X163420Y252056D01*
Y366084D01*
X163430Y366221D01*
X163387Y366766D01*
X163260Y367298D01*
X163050Y367804D01*
X162764Y368270D01*
X162764Y368270D01*
X162409Y368686D01*
X162305Y368775D01*
X156932Y374148D01*
X156843Y374252D01*
X156427Y374608D01*
X155960Y374894D01*
X155455Y375103D01*
X154923Y375231D01*
X154923Y375231D01*
X154923D01*
X154377Y375274D01*
X154241Y375263D01*
X145386D01*
Y381759D01*
X145394Y381890D01*
Y378390D01*
X145408Y378154D01*
X145463Y377925D01*
X145553Y377707D01*
X145676Y377505D01*
X145830Y377326D01*
X146009Y377172D01*
X146211Y377049D01*
X146429Y376959D01*
X146658Y376904D01*
X146894Y376890D01*
X153894D01*
X154129Y376904D01*
X154359Y376959D01*
X154577Y377049D01*
X154778Y377172D01*
X154958Y377326D01*
X155111Y377505D01*
X155234Y377707D01*
X155325Y377925D01*
X155380Y378154D01*
X155394Y378390D01*
Y385390D01*
X155380Y385625D01*
X155325Y385855D01*
X155234Y386073D01*
X155111Y386274D01*
X154958Y386454D01*
X154778Y386607D01*
X154577Y386730D01*
X154359Y386821D01*
X154129Y386876D01*
X153894Y386890D01*
X146894D01*
X146658Y386876D01*
X146429Y386821D01*
X146211Y386730D01*
X146009Y386607D01*
X145830Y386454D01*
X145676Y386274D01*
X145553Y386073D01*
X145463Y385855D01*
X145408Y385625D01*
X145394Y385390D01*
Y381890D01*
X145386Y382020D01*
Y398392D01*
X161061D01*
X163974Y395480D01*
Y255324D01*
X163963Y255188D01*
X163988Y254866D01*
X163998Y254739D01*
X164006Y254642D01*
Y254642D01*
X164037Y254514D01*
X164134Y254110D01*
X164137Y254103D01*
X164343Y253604D01*
X164629Y253138D01*
X164629Y253138D01*
X164985Y252722D01*
X165088Y252633D01*
X172642Y245079D01*
X172731Y244975D01*
X173147Y244620D01*
X173147Y244620D01*
X173614Y244334D01*
X174119Y244125D01*
X174651Y243997D01*
X175197Y243954D01*
X175333Y243965D01*
X179662D01*
X181370Y242257D01*
Y232414D01*
X181332Y233068D01*
X181148Y233833D01*
X180847Y234560D01*
X180436Y235231D01*
X179924Y235830D01*
X179326Y236341D01*
X178655Y236752D01*
X177928Y237053D01*
X177163Y237237D01*
X176378Y237299D01*
X175593Y237237D01*
X174828Y237053D01*
X174101Y236752D01*
X173430Y236341D01*
X172832Y235830D01*
X172320Y235231D01*
X171909Y234560D01*
X171608Y233833D01*
X171424Y233068D01*
X171363Y232283D01*
X171424Y231499D01*
X171608Y230734D01*
X171909Y230007D01*
X172320Y229335D01*
X172832Y228737D01*
X173430Y228226D01*
X174101Y227815D01*
X174828Y227514D01*
X175593Y227330D01*
X176378Y227268D01*
X177163Y227330D01*
X177928Y227514D01*
X178655Y227815D01*
X179326Y228226D01*
X179924Y228737D01*
X180436Y229335D01*
X180847Y230007D01*
X181148Y230734D01*
X181332Y231499D01*
X181370Y232153D01*
Y202493D01*
X181332Y203147D01*
X181148Y203912D01*
X180847Y204639D01*
X180436Y205310D01*
X179924Y205909D01*
X179326Y206420D01*
X178655Y206831D01*
X177928Y207132D01*
X177163Y207316D01*
X176378Y207378D01*
X175593Y207316D01*
X174828Y207132D01*
X174101Y206831D01*
X173430Y206420D01*
X172832Y205909D01*
X172320Y205310D01*
X171909Y204639D01*
X171608Y203912D01*
X171424Y203147D01*
X171363Y202362D01*
X171424Y201578D01*
X171608Y200812D01*
X171909Y200085D01*
X172230Y199562D01*
X172320Y199414D01*
X172832Y198816D01*
X173430Y198305D01*
X174101Y197893D01*
X174828Y197592D01*
X175593Y197409D01*
X176378Y197347D01*
X177163Y197409D01*
X177928Y197592D01*
X178655Y197893D01*
X179326Y198305D01*
X179924Y198816D01*
X180436Y199414D01*
X180526Y199562D01*
X180847Y200085D01*
X181148Y200812D01*
X181332Y201578D01*
X181370Y202232D01*
Y187129D01*
G37*
G36*
Y157601D02*X174799Y164173D01*
X174710Y164277D01*
X174294Y164632D01*
X173827Y164918D01*
X173322Y165127D01*
X172790Y165255D01*
X172789Y165255D01*
X172789D01*
X172789Y165255D01*
X172789D01*
X172244Y165298D01*
X172108Y165287D01*
X150394D01*
Y167441D01*
X153894D01*
X154129Y167455D01*
X154359Y167510D01*
X154577Y167600D01*
X154778Y167724D01*
X154958Y167877D01*
X155111Y168057D01*
X155234Y168258D01*
X155325Y168476D01*
X155380Y168706D01*
X155394Y168941D01*
Y175941D01*
X155380Y176176D01*
X155325Y176406D01*
X155234Y176624D01*
X155111Y176825D01*
X154958Y177005D01*
X154778Y177158D01*
X154577Y177282D01*
X154359Y177372D01*
X154129Y177427D01*
X153894Y177441D01*
X150394D01*
Y197362D01*
X153894D01*
X154129Y197376D01*
X154359Y197431D01*
X154577Y197522D01*
X154778Y197645D01*
X154958Y197798D01*
X155111Y197978D01*
X155234Y198179D01*
X155325Y198397D01*
X155380Y198627D01*
X155394Y198862D01*
Y205862D01*
X155380Y206098D01*
X155325Y206327D01*
X155234Y206545D01*
X155111Y206747D01*
X154958Y206926D01*
X154778Y207079D01*
X154577Y207203D01*
X154359Y207293D01*
X154129Y207348D01*
X153894Y207362D01*
X150394D01*
Y227283D01*
X153894D01*
X154129Y227297D01*
X154359Y227352D01*
X154577Y227443D01*
X154778Y227566D01*
X154958Y227720D01*
X155111Y227899D01*
X155234Y228100D01*
X155325Y228319D01*
X155380Y228548D01*
X155394Y228783D01*
Y235783D01*
X155380Y236019D01*
X155325Y236248D01*
X155234Y236467D01*
X155111Y236668D01*
X154958Y236847D01*
X154778Y237001D01*
X154577Y237124D01*
X154359Y237214D01*
X154129Y237270D01*
X153894Y237283D01*
X150394D01*
Y257205D01*
X153894D01*
X154129Y257219D01*
X154359Y257274D01*
X154577Y257364D01*
X154778Y257487D01*
X154958Y257641D01*
X155111Y257820D01*
X155234Y258022D01*
X155325Y258240D01*
X155380Y258469D01*
X155394Y258705D01*
Y265705D01*
X155380Y265940D01*
X155325Y266170D01*
X155234Y266388D01*
X155111Y266589D01*
X154958Y266769D01*
X154778Y266922D01*
X154577Y267045D01*
X154359Y267136D01*
X154129Y267191D01*
X153894Y267205D01*
X150394D01*
Y287126D01*
X153894D01*
X154129Y287140D01*
X154359Y287195D01*
X154577Y287285D01*
X154778Y287409D01*
X154958Y287562D01*
X155111Y287742D01*
X155234Y287943D01*
X155325Y288161D01*
X155380Y288391D01*
X155394Y288626D01*
Y295626D01*
X155380Y295861D01*
X155325Y296091D01*
X155234Y296309D01*
X155111Y296510D01*
X154958Y296690D01*
X154778Y296843D01*
X154577Y296967D01*
X154359Y297057D01*
X154129Y297112D01*
X153894Y297126D01*
X150394D01*
Y317047D01*
X153894D01*
X154129Y317061D01*
X154359Y317116D01*
X154577Y317207D01*
X154778Y317330D01*
X154958Y317483D01*
X155111Y317663D01*
X155234Y317864D01*
X155325Y318082D01*
X155380Y318312D01*
X155394Y318547D01*
Y325547D01*
X155380Y325783D01*
X155325Y326012D01*
X155234Y326230D01*
X155111Y326432D01*
X154958Y326611D01*
X154778Y326765D01*
X154577Y326888D01*
X154359Y326978D01*
X154129Y327033D01*
X153894Y327047D01*
X150394D01*
Y346969D01*
X153894D01*
X154129Y346982D01*
X154359Y347038D01*
X154577Y347128D01*
X154778Y347251D01*
X154958Y347405D01*
X155111Y347584D01*
X155234Y347785D01*
X155325Y348004D01*
X155380Y348233D01*
X155394Y348469D01*
Y355469D01*
X155380Y355704D01*
X155325Y355933D01*
X155234Y356152D01*
X155111Y356353D01*
X154958Y356532D01*
X154778Y356686D01*
X154577Y356809D01*
X154359Y356899D01*
X154129Y356955D01*
X153894Y356969D01*
X150394D01*
Y368310D01*
X152937D01*
X156467Y364781D01*
Y250752D01*
X156456Y250616D01*
X156499Y250071D01*
X156627Y249538D01*
X156836Y249033D01*
X157122Y248566D01*
X157122Y248566D01*
X157478Y248150D01*
X157581Y248062D01*
X163947Y241696D01*
Y196295D01*
X163937Y196159D01*
X163980Y195613D01*
Y195613D01*
X164010Y195486D01*
X164107Y195081D01*
X164206Y194844D01*
X164317Y194576D01*
X164603Y194109D01*
X164603Y194109D01*
X164958Y193693D01*
X165062Y193604D01*
X181370Y177296D01*
Y172572D01*
X181332Y173226D01*
X181213Y173718D01*
X181148Y173991D01*
X180847Y174718D01*
X180436Y175389D01*
X179924Y175987D01*
X179326Y176499D01*
X178655Y176910D01*
X177928Y177211D01*
X177163Y177395D01*
X176378Y177456D01*
X175593Y177395D01*
X174828Y177211D01*
X174101Y176910D01*
X173430Y176499D01*
X172832Y175987D01*
X172320Y175389D01*
X171909Y174718D01*
X171608Y173991D01*
X171542Y173718D01*
X171424Y173226D01*
X171363Y172441D01*
X171424Y171656D01*
X171608Y170891D01*
X171909Y170164D01*
X172320Y169493D01*
X172832Y168895D01*
X173430Y168383D01*
X174101Y167972D01*
X174828Y167671D01*
X175593Y167487D01*
X176378Y167426D01*
X177163Y167487D01*
X177928Y167671D01*
X178655Y167972D01*
X179326Y168383D01*
X179924Y168895D01*
X180436Y169493D01*
X180847Y170164D01*
X181148Y170891D01*
X181332Y171656D01*
X181370Y172310D01*
Y157601D01*
G37*
G36*
X150394Y356969D02*X146894D01*
X146658Y356955D01*
X146429Y356899D01*
X146211Y356809D01*
X146009Y356686D01*
X145830Y356532D01*
X145676Y356353D01*
X145553Y356152D01*
X145463Y355933D01*
X145408Y355704D01*
X145394Y355469D01*
Y351969D01*
X145386Y352099D01*
Y368310D01*
X150394D01*
Y356969D01*
G37*
G36*
Y327047D02*X146894D01*
X146658Y327033D01*
X146429Y326978D01*
X146211Y326888D01*
X146009Y326765D01*
X145830Y326611D01*
X145676Y326432D01*
X145553Y326230D01*
X145463Y326012D01*
X145408Y325783D01*
X145394Y325547D01*
Y322047D01*
X145386Y322178D01*
Y351838D01*
X145394Y351969D01*
Y348469D01*
X145408Y348233D01*
X145463Y348004D01*
X145553Y347785D01*
X145676Y347584D01*
X145830Y347405D01*
X146009Y347251D01*
X146211Y347128D01*
X146429Y347038D01*
X146658Y346982D01*
X146894Y346969D01*
X150394D01*
Y327047D01*
G37*
G36*
Y297126D02*X146894D01*
X146658Y297112D01*
X146429Y297057D01*
X146211Y296967D01*
X146009Y296843D01*
X145830Y296690D01*
X145676Y296510D01*
X145553Y296309D01*
X145463Y296091D01*
X145408Y295861D01*
X145394Y295626D01*
Y292126D01*
X145386Y292257D01*
Y321917D01*
X145394Y322047D01*
Y318547D01*
X145408Y318312D01*
X145463Y318082D01*
X145553Y317864D01*
X145676Y317663D01*
X145830Y317483D01*
X146009Y317330D01*
X146211Y317207D01*
X146429Y317116D01*
X146658Y317061D01*
X146894Y317047D01*
X150394D01*
Y297126D01*
G37*
G36*
Y267205D02*X146894D01*
X146658Y267191D01*
X146429Y267136D01*
X146211Y267045D01*
X146009Y266922D01*
X145830Y266769D01*
X145676Y266589D01*
X145553Y266388D01*
X145463Y266170D01*
X145408Y265940D01*
X145394Y265705D01*
Y262205D01*
X145386Y262335D01*
Y291995D01*
X145394Y292126D01*
Y288626D01*
X145408Y288391D01*
X145463Y288161D01*
X145553Y287943D01*
X145676Y287742D01*
X145830Y287562D01*
X146009Y287409D01*
X146211Y287285D01*
X146429Y287195D01*
X146658Y287140D01*
X146894Y287126D01*
X150394D01*
Y267205D01*
G37*
G36*
Y177441D02*X146894D01*
X146658Y177427D01*
X146429Y177372D01*
X146211Y177282D01*
X146009Y177158D01*
X145830Y177005D01*
X145676Y176825D01*
X145553Y176624D01*
X145463Y176406D01*
X145408Y176176D01*
X145394Y175941D01*
Y172441D01*
X145386Y172572D01*
Y202232D01*
X145394Y202362D01*
X145386Y202493D01*
Y232153D01*
X145394Y232283D01*
X145386Y232414D01*
Y262074D01*
X145394Y262205D01*
Y258705D01*
X145408Y258469D01*
X145463Y258240D01*
X145553Y258022D01*
X145676Y257820D01*
X145830Y257641D01*
X146009Y257487D01*
X146211Y257364D01*
X146429Y257274D01*
X146658Y257219D01*
X146894Y257205D01*
X150394D01*
Y237283D01*
X146894D01*
X146658Y237270D01*
X146429Y237214D01*
X146211Y237124D01*
X146009Y237001D01*
X145830Y236847D01*
X145676Y236668D01*
X145553Y236467D01*
X145463Y236248D01*
X145408Y236019D01*
X145394Y235783D01*
Y228783D01*
X145408Y228548D01*
X145463Y228319D01*
X145553Y228100D01*
X145676Y227899D01*
X145830Y227720D01*
X146009Y227566D01*
X146211Y227443D01*
X146429Y227352D01*
X146658Y227297D01*
X146894Y227283D01*
X150394D01*
Y207362D01*
X146894D01*
X146658Y207348D01*
X146429Y207293D01*
X146211Y207203D01*
X146009Y207079D01*
X145830Y206926D01*
X145676Y206747D01*
X145553Y206545D01*
X145463Y206327D01*
X145408Y206098D01*
X145394Y205862D01*
Y198862D01*
X145408Y198627D01*
X145463Y198397D01*
X145553Y198179D01*
X145676Y197978D01*
X145830Y197798D01*
X146009Y197645D01*
X146211Y197522D01*
X146429Y197431D01*
X146658Y197376D01*
X146894Y197362D01*
X150394D01*
Y177441D01*
G37*
G36*
Y165287D02*X145386D01*
Y172310D01*
X145394Y172441D01*
Y168941D01*
X145408Y168706D01*
X145463Y168476D01*
X145553Y168258D01*
X145676Y168057D01*
X145830Y167877D01*
X146009Y167724D01*
X146211Y167600D01*
X146429Y167510D01*
X146658Y167455D01*
X146894Y167441D01*
X150394D01*
Y165287D01*
G37*
G36*
X181370Y129844D02*X181102Y129865D01*
X180966Y129854D01*
X175653D01*
X167846Y137660D01*
Y145927D01*
X167857Y146063D01*
X167814Y146608D01*
X167687Y147141D01*
X167477Y147646D01*
X167191Y148113D01*
X167191Y148113D01*
X166836Y148529D01*
X166732Y148617D01*
X159051Y156299D01*
X158962Y156403D01*
X158546Y156758D01*
X158546Y156758D01*
X158079Y157044D01*
X157574Y157253D01*
X157042Y157381D01*
X156496Y157424D01*
X156360Y157413D01*
X145386D01*
Y158335D01*
X170804D01*
X181370Y147769D01*
Y142650D01*
X181332Y143304D01*
X181148Y144070D01*
X180847Y144797D01*
X180436Y145468D01*
X179924Y146066D01*
X179326Y146577D01*
X178655Y146988D01*
X177928Y147290D01*
X177163Y147473D01*
X176378Y147535D01*
X175593Y147473D01*
X174828Y147290D01*
X174101Y146988D01*
X173430Y146577D01*
X172832Y146066D01*
X172320Y145468D01*
X171909Y144797D01*
X171608Y144070D01*
X171424Y143304D01*
X171363Y142520D01*
X171424Y141735D01*
X171608Y140970D01*
X171909Y140243D01*
X172320Y139572D01*
X172832Y138973D01*
X173430Y138462D01*
X174101Y138051D01*
X174828Y137750D01*
X175593Y137566D01*
X176378Y137504D01*
X177163Y137566D01*
X177928Y137750D01*
X178655Y138051D01*
X179326Y138462D01*
X179924Y138973D01*
X180436Y139572D01*
X180847Y140243D01*
X181148Y140970D01*
X181332Y141735D01*
X181370Y142389D01*
Y129844D01*
G37*
G36*
X172354Y123439D02*X172629Y123271D01*
X173135Y123062D01*
X173539Y122964D01*
X173667Y122934D01*
X173667D01*
X174213Y122891D01*
X174349Y122902D01*
X179662D01*
X181370Y121194D01*
Y112729D01*
X181332Y113383D01*
X181148Y114148D01*
X180847Y114875D01*
X180436Y115546D01*
X179924Y116145D01*
X179326Y116656D01*
X178655Y117067D01*
X177928Y117368D01*
X177163Y117552D01*
X176378Y117614D01*
X175593Y117552D01*
X174828Y117368D01*
X174101Y117067D01*
X173430Y116656D01*
X172832Y116145D01*
X172354Y115586D01*
Y123439D01*
G37*
G36*
X181370Y42323D02*X172354D01*
Y77584D01*
X172362Y77583D01*
X173147Y77645D01*
X173912Y77828D01*
X174639Y78130D01*
X175310Y78541D01*
X175909Y79052D01*
X176420Y79650D01*
X176831Y80321D01*
X177132Y81049D01*
X177316Y81814D01*
X177362Y82598D01*
X177316Y83383D01*
X177132Y84148D01*
X176831Y84875D01*
X176420Y85546D01*
X175909Y86145D01*
X175310Y86656D01*
X174639Y87067D01*
X173912Y87368D01*
X173147Y87552D01*
X172362Y87614D01*
X172354Y87613D01*
Y109610D01*
X172832Y109052D01*
X173430Y108541D01*
X174101Y108130D01*
X174828Y107828D01*
X175593Y107645D01*
X176378Y107583D01*
X177163Y107645D01*
X177928Y107828D01*
X178655Y108130D01*
X179326Y108541D01*
X179924Y109052D01*
X180436Y109650D01*
X180847Y110321D01*
X181148Y111049D01*
X181332Y111814D01*
X181370Y112468D01*
Y87598D01*
X178862D01*
X178627Y87585D01*
X178397Y87529D01*
X178179Y87439D01*
X177978Y87316D01*
X177798Y87162D01*
X177645Y86983D01*
X177522Y86782D01*
X177431Y86563D01*
X177376Y86334D01*
X177362Y86098D01*
Y79098D01*
X177376Y78863D01*
X177431Y78633D01*
X177522Y78415D01*
X177645Y78214D01*
X177798Y78034D01*
X177978Y77881D01*
X178179Y77758D01*
X178397Y77667D01*
X178627Y77612D01*
X178862Y77598D01*
X181370D01*
Y42323D01*
G37*
G36*
X172354D02*X152362D01*
Y77598D01*
X155862D01*
X156098Y77612D01*
X156327Y77667D01*
X156545Y77758D01*
X156747Y77881D01*
X156926Y78034D01*
X157079Y78214D01*
X157203Y78415D01*
X157293Y78633D01*
X157348Y78863D01*
X157362Y79098D01*
Y86098D01*
X157348Y86334D01*
X157293Y86563D01*
X157203Y86782D01*
X157079Y86983D01*
X156926Y87162D01*
X156747Y87316D01*
X156545Y87439D01*
X156327Y87529D01*
X156098Y87585D01*
X155862Y87598D01*
X152362D01*
Y107598D01*
X153894D01*
X154129Y107612D01*
X154359Y107667D01*
X154577Y107758D01*
X154778Y107881D01*
X154958Y108034D01*
X155111Y108214D01*
X155234Y108415D01*
X155325Y108633D01*
X155380Y108863D01*
X155394Y109098D01*
Y116098D01*
X155380Y116334D01*
X155325Y116563D01*
X155234Y116782D01*
X155111Y116983D01*
X154958Y117162D01*
X154778Y117316D01*
X154577Y117439D01*
X154359Y117529D01*
X154129Y117585D01*
X153894Y117598D01*
X152362D01*
Y137520D01*
X153894D01*
X154129Y137534D01*
X154359Y137589D01*
X154577Y137679D01*
X154778Y137802D01*
X154958Y137956D01*
X155111Y138135D01*
X155234Y138337D01*
X155325Y138555D01*
X155380Y138784D01*
X155394Y139020D01*
Y146020D01*
X155380Y146255D01*
X155325Y146485D01*
X155234Y146703D01*
X155111Y146904D01*
X154958Y147084D01*
X154778Y147237D01*
X154577Y147360D01*
X154359Y147451D01*
X154129Y147506D01*
X153894Y147520D01*
X152362D01*
Y150461D01*
X155056D01*
X160894Y144623D01*
Y136357D01*
X160883Y136220D01*
X160926Y135675D01*
X161054Y135143D01*
X161263Y134637D01*
X161549Y134171D01*
X161549Y134171D01*
X161904Y133755D01*
X162008Y133666D01*
X171658Y124016D01*
X171747Y123912D01*
X172163Y123557D01*
X172163Y123557D01*
X172354Y123439D01*
Y115586D01*
X172320Y115546D01*
X171909Y114875D01*
X171608Y114148D01*
X171424Y113383D01*
X171363Y112598D01*
X171424Y111814D01*
X171608Y111049D01*
X171909Y110321D01*
X172320Y109650D01*
X172354Y109610D01*
Y87613D01*
X171578Y87552D01*
X170812Y87368D01*
X170085Y87067D01*
X169414Y86656D01*
X168816Y86145D01*
X168305Y85546D01*
X167893Y84875D01*
X167592Y84148D01*
X167409Y83383D01*
X167347Y82598D01*
X167409Y81814D01*
X167592Y81049D01*
X167893Y80321D01*
X168305Y79650D01*
X168816Y79052D01*
X169414Y78541D01*
X170085Y78130D01*
X170812Y77828D01*
X171578Y77645D01*
X172354Y77584D01*
Y42323D01*
G37*
G36*
X152362D02*X145386D01*
Y78606D01*
X145909Y79052D01*
X146420Y79650D01*
X146831Y80321D01*
X147132Y81049D01*
X147316Y81814D01*
X147362Y82598D01*
X147316Y83383D01*
X147132Y84148D01*
X146831Y84875D01*
X146420Y85546D01*
X145909Y86145D01*
X145386Y86591D01*
Y112468D01*
X145394Y112598D01*
X145386Y112729D01*
Y142389D01*
X145394Y142520D01*
X145386Y142650D01*
Y150461D01*
X152362D01*
Y147520D01*
X146894D01*
X146658Y147506D01*
X146429Y147451D01*
X146211Y147360D01*
X146009Y147237D01*
X145830Y147084D01*
X145676Y146904D01*
X145553Y146703D01*
X145463Y146485D01*
X145408Y146255D01*
X145394Y146020D01*
Y139020D01*
X145408Y138784D01*
X145463Y138555D01*
X145553Y138337D01*
X145676Y138135D01*
X145830Y137956D01*
X146009Y137802D01*
X146211Y137679D01*
X146429Y137589D01*
X146658Y137534D01*
X146894Y137520D01*
X152362D01*
Y117598D01*
X146894D01*
X146658Y117585D01*
X146429Y117529D01*
X146211Y117439D01*
X146009Y117316D01*
X145830Y117162D01*
X145676Y116983D01*
X145553Y116782D01*
X145463Y116563D01*
X145408Y116334D01*
X145394Y116098D01*
Y109098D01*
X145408Y108863D01*
X145463Y108633D01*
X145553Y108415D01*
X145676Y108214D01*
X145830Y108034D01*
X146009Y107881D01*
X146211Y107758D01*
X146429Y107667D01*
X146658Y107612D01*
X146894Y107598D01*
X152362D01*
Y87598D01*
X148862D01*
X148627Y87585D01*
X148397Y87529D01*
X148179Y87439D01*
X147978Y87316D01*
X147798Y87162D01*
X147645Y86983D01*
X147522Y86782D01*
X147431Y86563D01*
X147376Y86334D01*
X147362Y86098D01*
Y79098D01*
X147376Y78863D01*
X147431Y78633D01*
X147522Y78415D01*
X147645Y78214D01*
X147798Y78034D01*
X147978Y77881D01*
X148179Y77758D01*
X148397Y77667D01*
X148627Y77612D01*
X148862Y77598D01*
X152362D01*
Y42323D01*
G37*
G36*
X145386Y457087D02*X181370D01*
Y441863D01*
X181332Y442517D01*
X181148Y443282D01*
X180847Y444009D01*
X180436Y444680D01*
X179924Y445279D01*
X179326Y445790D01*
X178655Y446201D01*
X177928Y446502D01*
X177163Y446686D01*
X176378Y446748D01*
X175593Y446686D01*
X174828Y446502D01*
X174101Y446201D01*
X173430Y445790D01*
X172832Y445279D01*
X172320Y444680D01*
X171909Y444009D01*
X171608Y443282D01*
X171424Y442517D01*
X171363Y441732D01*
X171424Y440948D01*
X171608Y440182D01*
X171909Y439455D01*
X172320Y438784D01*
X172832Y438186D01*
X173430Y437675D01*
X174101Y437264D01*
X174828Y436962D01*
X175593Y436779D01*
X176378Y436717D01*
X177163Y436779D01*
X177928Y436962D01*
X178655Y437264D01*
X179326Y437675D01*
X179924Y438186D01*
X180436Y438784D01*
X180847Y439455D01*
X181148Y440182D01*
X181332Y440948D01*
X181370Y441602D01*
Y411942D01*
X181332Y412596D01*
X181148Y413361D01*
X180847Y414088D01*
X180436Y414759D01*
X179924Y415357D01*
X179326Y415869D01*
X178655Y416280D01*
X177928Y416581D01*
X177163Y416765D01*
X176378Y416826D01*
X175593Y416765D01*
X174828Y416581D01*
X174101Y416280D01*
X173430Y415869D01*
X172832Y415357D01*
X172320Y414759D01*
X171909Y414088D01*
X171608Y413361D01*
X171424Y412596D01*
X171363Y411811D01*
X171424Y411026D01*
X171608Y410261D01*
X171909Y409534D01*
X172320Y408863D01*
X172832Y408265D01*
X173430Y407753D01*
X174101Y407342D01*
X174828Y407041D01*
X175593Y406857D01*
X176378Y406796D01*
X177163Y406857D01*
X177928Y407041D01*
X178655Y407342D01*
X179326Y407753D01*
X179924Y408265D01*
X180436Y408863D01*
X180847Y409534D01*
X181148Y410261D01*
X181332Y411026D01*
X181370Y411680D01*
Y382020D01*
X181332Y382674D01*
X181148Y383440D01*
X180847Y384167D01*
X180436Y384838D01*
X179924Y385436D01*
X179326Y385947D01*
X178655Y386359D01*
X177928Y386660D01*
X177163Y386843D01*
X176378Y386905D01*
X175593Y386843D01*
X174828Y386660D01*
X174101Y386359D01*
X173430Y385947D01*
X172832Y385436D01*
X172320Y384838D01*
X171909Y384167D01*
X171608Y383440D01*
X171424Y382674D01*
X171363Y381890D01*
X171424Y381105D01*
X171608Y380340D01*
X171909Y379613D01*
X172320Y378942D01*
X172832Y378343D01*
X173430Y377832D01*
X174101Y377421D01*
X174828Y377120D01*
X175593Y376936D01*
X176378Y376874D01*
X177163Y376936D01*
X177928Y377120D01*
X178655Y377421D01*
X179326Y377832D01*
X179924Y378343D01*
X180436Y378942D01*
X180847Y379613D01*
X181148Y380340D01*
X181332Y381105D01*
X181370Y381759D01*
Y352099D01*
X181332Y352753D01*
X181148Y353518D01*
X180847Y354245D01*
X180436Y354916D01*
X179924Y355515D01*
X179326Y356026D01*
X178655Y356437D01*
X177928Y356738D01*
X177163Y356922D01*
X176378Y356984D01*
X175593Y356922D01*
X174828Y356738D01*
X174101Y356437D01*
X173430Y356026D01*
X172832Y355515D01*
X172320Y354916D01*
X171909Y354245D01*
X171608Y353518D01*
X171424Y352753D01*
X171363Y351969D01*
X171424Y351184D01*
X171608Y350419D01*
X171909Y349692D01*
X172320Y349021D01*
X172832Y348422D01*
X173430Y347911D01*
X174101Y347500D01*
X174828Y347199D01*
X175593Y347015D01*
X176378Y346953D01*
X177163Y347015D01*
X177928Y347199D01*
X178655Y347500D01*
X179326Y347911D01*
X179924Y348422D01*
X180436Y349021D01*
X180847Y349692D01*
X181148Y350419D01*
X181332Y351184D01*
X181370Y351838D01*
Y322178D01*
X181332Y322832D01*
X181148Y323597D01*
X180847Y324324D01*
X180436Y324995D01*
X179924Y325594D01*
X179326Y326105D01*
X178655Y326516D01*
X177928Y326817D01*
X177163Y327001D01*
X176378Y327063D01*
X175593Y327001D01*
X174828Y326817D01*
X174101Y326516D01*
X173430Y326105D01*
X172832Y325594D01*
X172320Y324995D01*
X171909Y324324D01*
X171608Y323597D01*
X171424Y322832D01*
X171363Y322047D01*
X171424Y321263D01*
X171608Y320497D01*
X171909Y319770D01*
X172320Y319099D01*
X172832Y318501D01*
X173430Y317990D01*
X174101Y317578D01*
X174828Y317277D01*
X175593Y317094D01*
X176378Y317032D01*
X177163Y317094D01*
X177928Y317277D01*
X178655Y317578D01*
X179326Y317990D01*
X179924Y318501D01*
X180436Y319099D01*
X180847Y319770D01*
X181148Y320497D01*
X181332Y321263D01*
X181370Y321917D01*
Y292257D01*
X181332Y292911D01*
X181148Y293676D01*
X180847Y294403D01*
X180436Y295074D01*
X179924Y295672D01*
X179326Y296184D01*
X178655Y296595D01*
X177928Y296896D01*
X177163Y297080D01*
X176378Y297141D01*
X175593Y297080D01*
X174828Y296896D01*
X174101Y296595D01*
X173430Y296184D01*
X172832Y295672D01*
X172320Y295074D01*
X171909Y294403D01*
X171608Y293676D01*
X171424Y292911D01*
X171363Y292126D01*
X171424Y291341D01*
X171608Y290576D01*
X171909Y289849D01*
X172320Y289178D01*
X172832Y288580D01*
X173430Y288068D01*
X174101Y287657D01*
X174828Y287356D01*
X175593Y287172D01*
X176378Y287111D01*
X177163Y287172D01*
X177928Y287356D01*
X178655Y287657D01*
X179326Y288068D01*
X179924Y288580D01*
X180436Y289178D01*
X180847Y289849D01*
X181148Y290576D01*
X181332Y291341D01*
X181370Y291995D01*
Y262335D01*
X181332Y262989D01*
X181148Y263755D01*
X180847Y264482D01*
X180436Y265153D01*
X179924Y265751D01*
X179326Y266262D01*
X178655Y266673D01*
X177928Y266975D01*
X177163Y267158D01*
X176378Y267220D01*
X175593Y267158D01*
X174828Y266975D01*
X174101Y266673D01*
X173430Y266262D01*
X172832Y265751D01*
X172320Y265153D01*
X171909Y264482D01*
X171608Y263755D01*
X171424Y262989D01*
X171363Y262205D01*
X171424Y261420D01*
X171608Y260655D01*
X171909Y259928D01*
X172320Y259257D01*
X172832Y258658D01*
X173430Y258147D01*
X174101Y257736D01*
X174828Y257435D01*
X175593Y257251D01*
X176378Y257189D01*
X177163Y257251D01*
X177928Y257435D01*
X178655Y257736D01*
X178684Y257754D01*
X179326Y258147D01*
X179924Y258658D01*
X180436Y259257D01*
X180847Y259928D01*
X181148Y260655D01*
X181332Y261420D01*
X181370Y262074D01*
Y250907D01*
X181102Y250928D01*
X180966Y250917D01*
X176637D01*
X170927Y256627D01*
Y396784D01*
X170937Y396920D01*
X170894Y397465D01*
X170894Y397465D01*
X170767Y397997D01*
X170557Y398503D01*
X170271Y398969D01*
X169916Y399386D01*
X169812Y399474D01*
X165056Y404231D01*
X164967Y404335D01*
X164551Y404690D01*
X164551Y404690D01*
X164084Y404976D01*
X163579Y405185D01*
X163047Y405313D01*
X162501Y405356D01*
X162365Y405345D01*
X145386D01*
Y411680D01*
X145394Y411811D01*
Y408311D01*
X145408Y408076D01*
X145463Y407846D01*
X145553Y407628D01*
X145676Y407427D01*
X145830Y407247D01*
X146009Y407094D01*
X146211Y406970D01*
X146429Y406880D01*
X146658Y406825D01*
X146894Y406811D01*
X153894D01*
X154129Y406825D01*
X154359Y406880D01*
X154577Y406970D01*
X154778Y407094D01*
X154958Y407247D01*
X155111Y407427D01*
X155234Y407628D01*
X155325Y407846D01*
X155380Y408076D01*
X155394Y408311D01*
Y415311D01*
X155380Y415546D01*
X155325Y415776D01*
X155234Y415994D01*
X155111Y416195D01*
X154958Y416375D01*
X154778Y416528D01*
X154577Y416652D01*
X154359Y416742D01*
X154129Y416797D01*
X153894Y416811D01*
X146894D01*
X146658Y416797D01*
X146429Y416742D01*
X146211Y416652D01*
X146009Y416528D01*
X145830Y416375D01*
X145676Y416195D01*
X145553Y415994D01*
X145463Y415776D01*
X145408Y415546D01*
X145394Y415311D01*
Y411811D01*
X145386Y411942D01*
Y441602D01*
X145394Y441732D01*
Y438232D01*
X145408Y437997D01*
X145463Y437767D01*
X145553Y437549D01*
X145676Y437348D01*
X145830Y437168D01*
X146009Y437015D01*
X146211Y436892D01*
X146429Y436801D01*
X146658Y436746D01*
X146894Y436732D01*
X153894D01*
X154129Y436746D01*
X154359Y436801D01*
X154577Y436892D01*
X154778Y437015D01*
X154958Y437168D01*
X155111Y437348D01*
X155234Y437549D01*
X155325Y437767D01*
X155380Y437997D01*
X155394Y438232D01*
Y445232D01*
X155380Y445468D01*
X155325Y445697D01*
X155234Y445915D01*
X155111Y446117D01*
X154958Y446296D01*
X154778Y446450D01*
X154577Y446573D01*
X154359Y446663D01*
X154129Y446718D01*
X153894Y446732D01*
X146894D01*
X146658Y446718D01*
X146429Y446663D01*
X146211Y446573D01*
X146009Y446450D01*
X145830Y446296D01*
X145676Y446117D01*
X145553Y445915D01*
X145463Y445697D01*
X145408Y445468D01*
X145394Y445232D01*
Y441732D01*
X145386Y441863D01*
Y457087D01*
G37*
G36*
X114409Y305972D02*X117655D01*
X120238Y303389D01*
Y164217D01*
X120228Y164081D01*
X120271Y163535D01*
X120398Y163003D01*
X120608Y162497D01*
X120894Y162031D01*
X120894Y162031D01*
X121249Y161615D01*
X121353Y161526D01*
X131304Y151575D01*
X131393Y151471D01*
X131808Y151116D01*
X131809Y151116D01*
X132275Y150830D01*
X132781Y150621D01*
X133313Y150493D01*
X133858Y150450D01*
X133995Y150461D01*
X145386D01*
Y142650D01*
X145347Y143304D01*
X145164Y144070D01*
X144862Y144797D01*
X144451Y145468D01*
X143940Y146066D01*
X143342Y146577D01*
X142671Y146988D01*
X141944Y147290D01*
X141178Y147473D01*
X140394Y147535D01*
X139609Y147473D01*
X138844Y147290D01*
X138117Y146988D01*
X137446Y146577D01*
X136847Y146066D01*
X136336Y145468D01*
X135925Y144797D01*
X135624Y144070D01*
X135440Y143304D01*
X135378Y142520D01*
X135440Y141735D01*
X135624Y140970D01*
X135925Y140243D01*
X136336Y139572D01*
X136847Y138973D01*
X137446Y138462D01*
X138117Y138051D01*
X138844Y137750D01*
X139609Y137566D01*
X140394Y137504D01*
X141178Y137566D01*
X141944Y137750D01*
X142671Y138051D01*
X143342Y138462D01*
X143940Y138973D01*
X144451Y139572D01*
X144862Y140243D01*
X145164Y140970D01*
X145347Y141735D01*
X145386Y142389D01*
Y112729D01*
X145347Y113383D01*
X145164Y114148D01*
X144862Y114875D01*
X144451Y115546D01*
X143940Y116145D01*
X143342Y116656D01*
X142671Y117067D01*
X141944Y117368D01*
X141178Y117552D01*
X140394Y117614D01*
X139609Y117552D01*
X138844Y117368D01*
X138117Y117067D01*
X137446Y116656D01*
X136847Y116145D01*
X136336Y115546D01*
X135925Y114875D01*
X135624Y114148D01*
X135440Y113383D01*
X135378Y112598D01*
X135440Y111814D01*
X135624Y111049D01*
X135925Y110321D01*
X136336Y109650D01*
X136847Y109052D01*
X137446Y108541D01*
X138117Y108130D01*
X138844Y107828D01*
X139609Y107645D01*
X140394Y107583D01*
X141178Y107645D01*
X141944Y107828D01*
X142671Y108130D01*
X143342Y108541D01*
X143940Y109052D01*
X144451Y109650D01*
X144862Y110321D01*
X145164Y111049D01*
X145347Y111814D01*
X145386Y112468D01*
Y86591D01*
X145310Y86656D01*
X144639Y87067D01*
X143912Y87368D01*
X143147Y87552D01*
X142362Y87614D01*
X141578Y87552D01*
X140812Y87368D01*
X140085Y87067D01*
X139414Y86656D01*
X138816Y86145D01*
X138305Y85546D01*
X137893Y84875D01*
X137592Y84148D01*
X137409Y83383D01*
X137347Y82598D01*
X137409Y81814D01*
X137592Y81049D01*
X137893Y80321D01*
X138305Y79650D01*
X138816Y79052D01*
X139414Y78541D01*
X140085Y78130D01*
X140812Y77828D01*
X141578Y77645D01*
X142362Y77583D01*
X143147Y77645D01*
X143912Y77828D01*
X144639Y78130D01*
X145310Y78541D01*
X145386Y78606D01*
Y42323D01*
X114409D01*
Y78035D01*
X114639Y78130D01*
X115310Y78541D01*
X115909Y79052D01*
X116420Y79650D01*
X116831Y80321D01*
X117132Y81049D01*
X117316Y81814D01*
X117362Y82598D01*
Y79098D01*
X117376Y78863D01*
X117431Y78633D01*
X117522Y78415D01*
X117645Y78214D01*
X117798Y78034D01*
X117978Y77881D01*
X118179Y77758D01*
X118397Y77667D01*
X118627Y77612D01*
X118862Y77598D01*
X125862D01*
X126098Y77612D01*
X126327Y77667D01*
X126545Y77758D01*
X126747Y77881D01*
X126926Y78034D01*
X127079Y78214D01*
X127203Y78415D01*
X127293Y78633D01*
X127348Y78863D01*
X127362Y79098D01*
Y86098D01*
X127348Y86334D01*
X127293Y86563D01*
X127203Y86782D01*
X127079Y86983D01*
X126926Y87162D01*
X126747Y87316D01*
X126545Y87439D01*
X126327Y87529D01*
X126098Y87585D01*
X125862Y87598D01*
X118862D01*
X118627Y87585D01*
X118397Y87529D01*
X118179Y87439D01*
X117978Y87316D01*
X117798Y87162D01*
X117645Y86983D01*
X117522Y86782D01*
X117431Y86563D01*
X117376Y86334D01*
X117362Y86098D01*
Y82598D01*
X117316Y83383D01*
X117132Y84148D01*
X116831Y84875D01*
X116420Y85546D01*
X115909Y86145D01*
X115310Y86656D01*
X114639Y87067D01*
X114409Y87162D01*
Y107598D01*
X117909D01*
X118145Y107612D01*
X118374Y107667D01*
X118593Y107758D01*
X118794Y107881D01*
X118973Y108034D01*
X119127Y108214D01*
X119250Y108415D01*
X119340Y108633D01*
X119396Y108863D01*
X119409Y109098D01*
Y116098D01*
X119396Y116334D01*
X119340Y116563D01*
X119250Y116782D01*
X119127Y116983D01*
X118973Y117162D01*
X118794Y117316D01*
X118593Y117439D01*
X118374Y117529D01*
X118145Y117585D01*
X117909Y117598D01*
X114409D01*
Y137520D01*
X117909D01*
X118145Y137534D01*
X118374Y137589D01*
X118593Y137679D01*
X118794Y137802D01*
X118973Y137956D01*
X119127Y138135D01*
X119250Y138337D01*
X119340Y138555D01*
X119396Y138784D01*
X119409Y139020D01*
Y146020D01*
X119396Y146255D01*
X119340Y146485D01*
X119250Y146703D01*
X119127Y146904D01*
X118973Y147084D01*
X118794Y147237D01*
X118593Y147360D01*
X118374Y147451D01*
X118145Y147506D01*
X117909Y147520D01*
X114409D01*
Y167441D01*
X117909D01*
X118145Y167455D01*
X118374Y167510D01*
X118593Y167600D01*
X118794Y167724D01*
X118973Y167877D01*
X119127Y168057D01*
X119250Y168258D01*
X119340Y168476D01*
X119396Y168706D01*
X119409Y168941D01*
Y175941D01*
X119396Y176176D01*
X119340Y176406D01*
X119250Y176624D01*
X119127Y176825D01*
X118973Y177005D01*
X118794Y177158D01*
X118593Y177282D01*
X118374Y177372D01*
X118145Y177427D01*
X117909Y177441D01*
X114409D01*
Y197362D01*
X117909D01*
X118145Y197376D01*
X118374Y197431D01*
X118593Y197522D01*
X118794Y197645D01*
X118973Y197798D01*
X119127Y197978D01*
X119250Y198179D01*
X119340Y198397D01*
X119396Y198627D01*
X119409Y198862D01*
Y205862D01*
X119396Y206098D01*
X119340Y206327D01*
X119250Y206545D01*
X119127Y206747D01*
X118973Y206926D01*
X118794Y207079D01*
X118593Y207203D01*
X118374Y207293D01*
X118145Y207348D01*
X117909Y207362D01*
X114409D01*
Y227283D01*
X117909D01*
X118145Y227297D01*
X118374Y227352D01*
X118593Y227443D01*
X118794Y227566D01*
X118973Y227720D01*
X119127Y227899D01*
X119250Y228100D01*
X119340Y228319D01*
X119396Y228548D01*
X119409Y228783D01*
Y235783D01*
X119396Y236019D01*
X119340Y236248D01*
X119250Y236467D01*
X119127Y236668D01*
X118973Y236847D01*
X118794Y237001D01*
X118593Y237124D01*
X118374Y237214D01*
X118145Y237270D01*
X117909Y237283D01*
X114409D01*
Y257205D01*
X117909D01*
X118145Y257219D01*
X118374Y257274D01*
X118593Y257364D01*
X118794Y257487D01*
X118973Y257641D01*
X119127Y257820D01*
X119250Y258022D01*
X119340Y258240D01*
X119396Y258469D01*
X119409Y258705D01*
Y265705D01*
X119396Y265940D01*
X119340Y266170D01*
X119250Y266388D01*
X119127Y266589D01*
X118973Y266769D01*
X118794Y266922D01*
X118593Y267045D01*
X118374Y267136D01*
X118145Y267191D01*
X117909Y267205D01*
X114409D01*
Y287126D01*
X117909D01*
X118145Y287140D01*
X118374Y287195D01*
X118593Y287285D01*
X118794Y287409D01*
X118973Y287562D01*
X119127Y287742D01*
X119250Y287943D01*
X119340Y288161D01*
X119396Y288391D01*
X119409Y288626D01*
Y295626D01*
X119396Y295861D01*
X119340Y296091D01*
X119250Y296309D01*
X119127Y296510D01*
X118973Y296690D01*
X118794Y296843D01*
X118593Y296967D01*
X118374Y297057D01*
X118145Y297112D01*
X117909Y297126D01*
X114409D01*
Y305972D01*
G37*
G36*
X104402Y312335D02*X109650Y307087D01*
X109739Y306983D01*
X110155Y306628D01*
X110155Y306628D01*
X110622Y306342D01*
X111127Y306132D01*
X111531Y306035D01*
X111659Y306005D01*
X111659Y306005D01*
X112205Y305962D01*
X112341Y305972D01*
X114409D01*
Y297126D01*
X110909D01*
X110674Y297112D01*
X110444Y297057D01*
X110226Y296967D01*
X110025Y296843D01*
X109846Y296690D01*
X109692Y296510D01*
X109569Y296309D01*
X109478Y296091D01*
X109423Y295861D01*
X109409Y295626D01*
Y288626D01*
X109423Y288391D01*
X109478Y288161D01*
X109569Y287943D01*
X109692Y287742D01*
X109846Y287562D01*
X110025Y287409D01*
X110226Y287285D01*
X110444Y287195D01*
X110674Y287140D01*
X110909Y287126D01*
X114409D01*
Y267205D01*
X110909D01*
X110674Y267191D01*
X110444Y267136D01*
X110226Y267045D01*
X110025Y266922D01*
X109846Y266769D01*
X109692Y266589D01*
X109569Y266388D01*
X109478Y266170D01*
X109423Y265940D01*
X109409Y265705D01*
Y258705D01*
X109423Y258469D01*
X109478Y258240D01*
X109569Y258022D01*
X109692Y257820D01*
X109846Y257641D01*
X110025Y257487D01*
X110226Y257364D01*
X110444Y257274D01*
X110674Y257219D01*
X110909Y257205D01*
X114409D01*
Y237283D01*
X110909D01*
X110674Y237270D01*
X110444Y237214D01*
X110226Y237124D01*
X110025Y237001D01*
X109846Y236847D01*
X109692Y236668D01*
X109569Y236467D01*
X109478Y236248D01*
X109423Y236019D01*
X109409Y235783D01*
Y228783D01*
X109423Y228548D01*
X109478Y228319D01*
X109569Y228100D01*
X109692Y227899D01*
X109846Y227720D01*
X110025Y227566D01*
X110226Y227443D01*
X110444Y227352D01*
X110674Y227297D01*
X110909Y227283D01*
X114409D01*
Y207362D01*
X110909D01*
X110674Y207348D01*
X110444Y207293D01*
X110226Y207203D01*
X110025Y207079D01*
X109846Y206926D01*
X109692Y206747D01*
X109569Y206545D01*
X109478Y206327D01*
X109423Y206098D01*
X109409Y205862D01*
Y198862D01*
X109423Y198627D01*
X109478Y198397D01*
X109569Y198179D01*
X109692Y197978D01*
X109846Y197798D01*
X110025Y197645D01*
X110226Y197522D01*
X110444Y197431D01*
X110674Y197376D01*
X110909Y197362D01*
X114409D01*
Y177441D01*
X110909D01*
X110674Y177427D01*
X110444Y177372D01*
X110226Y177282D01*
X110025Y177158D01*
X109846Y177005D01*
X109692Y176825D01*
X109569Y176624D01*
X109478Y176406D01*
X109423Y176176D01*
X109409Y175941D01*
Y168941D01*
X109423Y168706D01*
X109478Y168476D01*
X109569Y168258D01*
X109692Y168057D01*
X109846Y167877D01*
X110025Y167724D01*
X110226Y167600D01*
X110444Y167510D01*
X110674Y167455D01*
X110909Y167441D01*
X114409D01*
Y147520D01*
X110909D01*
X110674Y147506D01*
X110444Y147451D01*
X110226Y147360D01*
X110025Y147237D01*
X109846Y147084D01*
X109692Y146904D01*
X109569Y146703D01*
X109478Y146485D01*
X109423Y146255D01*
X109409Y146020D01*
Y139020D01*
X109423Y138784D01*
X109478Y138555D01*
X109569Y138337D01*
X109692Y138135D01*
X109846Y137956D01*
X110025Y137802D01*
X110226Y137679D01*
X110444Y137589D01*
X110674Y137534D01*
X110909Y137520D01*
X114409D01*
Y117598D01*
X110909D01*
X110674Y117585D01*
X110444Y117529D01*
X110226Y117439D01*
X110025Y117316D01*
X109846Y117162D01*
X109692Y116983D01*
X109569Y116782D01*
X109478Y116563D01*
X109423Y116334D01*
X109409Y116098D01*
Y109098D01*
X109423Y108863D01*
X109478Y108633D01*
X109569Y108415D01*
X109692Y108214D01*
X109846Y108034D01*
X110025Y107881D01*
X110226Y107758D01*
X110444Y107667D01*
X110674Y107612D01*
X110909Y107598D01*
X114409D01*
Y87162D01*
X113912Y87368D01*
X113147Y87552D01*
X112362Y87614D01*
X111578Y87552D01*
X110812Y87368D01*
X110085Y87067D01*
X109414Y86656D01*
X108816Y86145D01*
X108305Y85546D01*
X107893Y84875D01*
X107592Y84148D01*
X107409Y83383D01*
X107347Y82598D01*
X107409Y81814D01*
X107592Y81049D01*
X107893Y80321D01*
X108305Y79650D01*
X108816Y79052D01*
X109414Y78541D01*
X110085Y78130D01*
X110812Y77828D01*
X111578Y77645D01*
X112362Y77583D01*
X113147Y77645D01*
X113912Y77828D01*
X114409Y78035D01*
Y42323D01*
X104402D01*
Y107584D01*
X104409Y107583D01*
X105194Y107645D01*
X105959Y107828D01*
X106686Y108130D01*
X107357Y108541D01*
X107956Y109052D01*
X108467Y109650D01*
X108878Y110321D01*
X109179Y111049D01*
X109363Y111814D01*
X109409Y112598D01*
X109363Y113383D01*
X109179Y114148D01*
X108878Y114875D01*
X108467Y115546D01*
X107956Y116145D01*
X107357Y116656D01*
X106686Y117067D01*
X105959Y117368D01*
X105194Y117552D01*
X104409Y117614D01*
X104402Y117613D01*
Y137505D01*
X104409Y137504D01*
X105194Y137566D01*
X105959Y137750D01*
X106686Y138051D01*
X107357Y138462D01*
X107956Y138973D01*
X108467Y139572D01*
X108878Y140243D01*
X109179Y140970D01*
X109363Y141735D01*
X109409Y142520D01*
X109363Y143304D01*
X109179Y144070D01*
X108878Y144797D01*
X108467Y145468D01*
X107956Y146066D01*
X107357Y146577D01*
X106686Y146988D01*
X105959Y147290D01*
X105194Y147473D01*
X104409Y147535D01*
X104402Y147534D01*
Y167426D01*
X104409Y167426D01*
X105194Y167487D01*
X105959Y167671D01*
X106686Y167972D01*
X107357Y168383D01*
X107956Y168895D01*
X108467Y169493D01*
X108878Y170164D01*
X109179Y170891D01*
X109363Y171656D01*
X109409Y172441D01*
X109363Y173226D01*
X109179Y173991D01*
X108878Y174718D01*
X108467Y175389D01*
X107956Y175987D01*
X107357Y176499D01*
X106686Y176910D01*
X105959Y177211D01*
X105194Y177395D01*
X104409Y177456D01*
X104402Y177456D01*
Y197347D01*
X104409Y197347D01*
X105194Y197409D01*
X105959Y197592D01*
X106686Y197893D01*
X107357Y198305D01*
X107956Y198816D01*
X108467Y199414D01*
X108878Y200085D01*
X109179Y200812D01*
X109363Y201578D01*
X109409Y202362D01*
X109363Y203147D01*
X109179Y203912D01*
X108878Y204639D01*
X108467Y205310D01*
X107956Y205909D01*
X107357Y206420D01*
X106686Y206831D01*
X105959Y207132D01*
X105194Y207316D01*
X104409Y207378D01*
X104402Y207377D01*
Y227269D01*
X104409Y227268D01*
X105194Y227330D01*
X105959Y227514D01*
X106686Y227815D01*
X107357Y228226D01*
X107956Y228737D01*
X108467Y229335D01*
X108878Y230007D01*
X109179Y230734D01*
X109363Y231499D01*
X109409Y232283D01*
X109363Y233068D01*
X109179Y233833D01*
X108878Y234560D01*
X108467Y235231D01*
X107956Y235830D01*
X107357Y236341D01*
X106686Y236752D01*
X105959Y237053D01*
X105194Y237237D01*
X104409Y237299D01*
X104402Y237298D01*
Y257190D01*
X104409Y257189D01*
X105194Y257251D01*
X105959Y257435D01*
X106686Y257736D01*
X107357Y258147D01*
X107956Y258658D01*
X108467Y259257D01*
X108878Y259928D01*
X109179Y260655D01*
X109363Y261420D01*
X109409Y262205D01*
X109363Y262989D01*
X109179Y263755D01*
X108878Y264482D01*
X108467Y265153D01*
X107956Y265751D01*
X107357Y266262D01*
X106686Y266673D01*
X105959Y266975D01*
X105194Y267158D01*
X104409Y267220D01*
X104402Y267220D01*
Y287111D01*
X104409Y287111D01*
X105194Y287172D01*
X105959Y287356D01*
X106686Y287657D01*
X107357Y288068D01*
X107956Y288580D01*
X108467Y289178D01*
X108878Y289849D01*
X109179Y290576D01*
X109363Y291341D01*
X109409Y292126D01*
X109363Y292911D01*
X109179Y293676D01*
X108878Y294403D01*
X108467Y295074D01*
X107956Y295672D01*
X107357Y296184D01*
X106686Y296595D01*
X105959Y296896D01*
X105194Y297080D01*
X104409Y297141D01*
X104402Y297141D01*
Y312335D01*
G37*
G36*
Y341863D02*X107682Y338583D01*
X107770Y338479D01*
X108186Y338124D01*
X108187Y338124D01*
X108653Y337838D01*
X109159Y337628D01*
X109691Y337501D01*
X110236Y337458D01*
X110373Y337469D01*
X118639D01*
X127719Y328388D01*
Y168547D01*
X127709Y168411D01*
X127751Y167865D01*
X127879Y167333D01*
X128089Y166828D01*
X128375Y166361D01*
X128375Y166361D01*
X128730Y165945D01*
X128834Y165856D01*
X135241Y159449D01*
X135330Y159345D01*
X135745Y158990D01*
X135746Y158990D01*
X136212Y158704D01*
X136718Y158495D01*
X137122Y158398D01*
X137250Y158367D01*
X137250D01*
X137795Y158324D01*
X137932Y158335D01*
X145386D01*
Y157413D01*
X135298D01*
X127191Y165521D01*
Y304692D01*
X127202Y304829D01*
X127159Y305374D01*
X127031Y305906D01*
X126822Y306412D01*
X126536Y306878D01*
X126536Y306878D01*
X126180Y307294D01*
X126077Y307383D01*
X121649Y311811D01*
X121560Y311915D01*
X121144Y312270D01*
X120678Y312556D01*
X120172Y312765D01*
X119640Y312893D01*
X119640Y312893D01*
X119094Y312936D01*
X118958Y312925D01*
X113645D01*
X108008Y318562D01*
X108467Y319099D01*
X108878Y319770D01*
X109179Y320497D01*
X109363Y321263D01*
X109409Y322047D01*
Y318547D01*
X109423Y318312D01*
X109478Y318082D01*
X109569Y317864D01*
X109692Y317663D01*
X109846Y317483D01*
X110025Y317330D01*
X110226Y317207D01*
X110444Y317116D01*
X110674Y317061D01*
X110909Y317047D01*
X117909D01*
X118145Y317061D01*
X118374Y317116D01*
X118593Y317207D01*
X118794Y317330D01*
X118973Y317483D01*
X119127Y317663D01*
X119250Y317864D01*
X119340Y318082D01*
X119396Y318312D01*
X119409Y318547D01*
Y325547D01*
X119396Y325783D01*
X119381Y325844D01*
X119340Y326012D01*
X119250Y326230D01*
X119127Y326432D01*
X118973Y326611D01*
X118952Y326629D01*
X118920Y326656D01*
X118794Y326765D01*
X118593Y326888D01*
X118374Y326978D01*
X118145Y327033D01*
X117909Y327047D01*
X110909D01*
X110674Y327033D01*
X110444Y326978D01*
X110226Y326888D01*
X110025Y326765D01*
X109846Y326611D01*
X109692Y326432D01*
X109569Y326230D01*
X109478Y326012D01*
X109423Y325783D01*
X109409Y325547D01*
Y322047D01*
X109363Y322832D01*
X109179Y323597D01*
X108878Y324324D01*
X108467Y324995D01*
X107956Y325594D01*
X107357Y326105D01*
X106686Y326516D01*
X105959Y326817D01*
X105194Y327001D01*
X104409Y327063D01*
X104402Y327062D01*
Y341863D01*
G37*
G36*
Y371074D02*X106051Y369425D01*
X106140Y369321D01*
X106556Y368966D01*
X106556Y368965D01*
X107022Y368680D01*
X107528Y368470D01*
X107932Y368373D01*
X108060Y368342D01*
X108060D01*
X108606Y368299D01*
X108742Y368310D01*
X145386D01*
Y352099D01*
X145347Y352753D01*
X145164Y353518D01*
X144862Y354245D01*
X144451Y354916D01*
X143940Y355515D01*
X143342Y356026D01*
X142671Y356437D01*
X141944Y356738D01*
X141178Y356922D01*
X140394Y356984D01*
X139609Y356922D01*
X139070Y356793D01*
X138844Y356738D01*
X138117Y356437D01*
X137446Y356026D01*
X136847Y355515D01*
X136336Y354916D01*
X135925Y354245D01*
X135624Y353518D01*
X135440Y352753D01*
X135378Y351969D01*
X135440Y351184D01*
X135624Y350419D01*
X135925Y349692D01*
X136336Y349021D01*
X136847Y348422D01*
X137446Y347911D01*
X138117Y347500D01*
X138844Y347199D01*
X139070Y347144D01*
X139609Y347015D01*
X140394Y346953D01*
X141178Y347015D01*
X141944Y347199D01*
X142671Y347500D01*
X143342Y347911D01*
X143940Y348422D01*
X144451Y349021D01*
X144862Y349692D01*
X145164Y350419D01*
X145347Y351184D01*
X145386Y351838D01*
Y322178D01*
X145347Y322832D01*
X145164Y323597D01*
X144862Y324324D01*
X144451Y324995D01*
X143940Y325594D01*
X143342Y326105D01*
X142671Y326516D01*
X141944Y326817D01*
X141178Y327001D01*
X140394Y327063D01*
X139609Y327001D01*
X139070Y326871D01*
X138844Y326817D01*
X138117Y326516D01*
X137446Y326105D01*
X136847Y325594D01*
X136336Y324995D01*
X135925Y324324D01*
X135624Y323597D01*
X135440Y322832D01*
X135378Y322047D01*
X135440Y321263D01*
X135624Y320497D01*
X135925Y319770D01*
X136336Y319099D01*
X136847Y318501D01*
X137446Y317990D01*
X138117Y317578D01*
X138844Y317277D01*
X139070Y317223D01*
X139609Y317094D01*
X140394Y317032D01*
X141178Y317094D01*
X141944Y317277D01*
X142671Y317578D01*
X143342Y317990D01*
X143940Y318501D01*
X144451Y319099D01*
X144862Y319770D01*
X145164Y320497D01*
X145347Y321263D01*
X145386Y321917D01*
Y292257D01*
X145347Y292911D01*
X145164Y293676D01*
X144862Y294403D01*
X144451Y295074D01*
X143940Y295672D01*
X143342Y296184D01*
X142671Y296595D01*
X141944Y296896D01*
X141178Y297080D01*
X140394Y297141D01*
X139609Y297080D01*
X139070Y296950D01*
X138844Y296896D01*
X138117Y296595D01*
X137446Y296184D01*
X136847Y295672D01*
X136336Y295074D01*
X135925Y294403D01*
X135624Y293676D01*
X135440Y292911D01*
X135378Y292126D01*
X135440Y291341D01*
X135624Y290576D01*
X135925Y289849D01*
X136336Y289178D01*
X136847Y288580D01*
X137446Y288068D01*
X138117Y287657D01*
X138844Y287356D01*
X139070Y287302D01*
X139609Y287172D01*
X140394Y287111D01*
X141178Y287172D01*
X141944Y287356D01*
X142671Y287657D01*
X143342Y288068D01*
X143940Y288580D01*
X144451Y289178D01*
X144862Y289849D01*
X145164Y290576D01*
X145347Y291341D01*
X145386Y291995D01*
Y262335D01*
X145347Y262989D01*
X145164Y263755D01*
X144862Y264482D01*
X144451Y265153D01*
X143940Y265751D01*
X143342Y266262D01*
X142671Y266673D01*
X141944Y266975D01*
X141178Y267158D01*
X140394Y267220D01*
X139609Y267158D01*
X138844Y266975D01*
X138117Y266673D01*
X137446Y266262D01*
X136847Y265751D01*
X136336Y265153D01*
X135925Y264482D01*
X135624Y263755D01*
X135440Y262989D01*
X135378Y262205D01*
X135440Y261420D01*
X135624Y260655D01*
X135925Y259928D01*
X136336Y259257D01*
X136847Y258658D01*
X137446Y258147D01*
X138117Y257736D01*
X138844Y257435D01*
X139609Y257251D01*
X140394Y257189D01*
X141178Y257251D01*
X141944Y257435D01*
X142671Y257736D01*
X143342Y258147D01*
X143940Y258658D01*
X144451Y259257D01*
X144862Y259928D01*
X145164Y260655D01*
X145347Y261420D01*
X145386Y262074D01*
Y232414D01*
X145347Y233068D01*
X145164Y233833D01*
X144862Y234560D01*
X144451Y235231D01*
X143940Y235830D01*
X143342Y236341D01*
X142671Y236752D01*
X141944Y237053D01*
X141178Y237237D01*
X140394Y237299D01*
X139609Y237237D01*
X138844Y237053D01*
X138117Y236752D01*
X137446Y236341D01*
X136847Y235830D01*
X136336Y235231D01*
X135925Y234560D01*
X135624Y233833D01*
X135440Y233068D01*
X135378Y232283D01*
X135440Y231499D01*
X135624Y230734D01*
X135925Y230007D01*
X136336Y229335D01*
X136847Y228737D01*
X137446Y228226D01*
X138117Y227815D01*
X138844Y227514D01*
X139609Y227330D01*
X140394Y227268D01*
X141178Y227330D01*
X141944Y227514D01*
X142671Y227815D01*
X143342Y228226D01*
X143940Y228737D01*
X144451Y229335D01*
X144862Y230007D01*
X145164Y230734D01*
X145347Y231499D01*
X145386Y232153D01*
Y202493D01*
X145347Y203147D01*
X145164Y203912D01*
X144862Y204639D01*
X144451Y205310D01*
X143940Y205909D01*
X143342Y206420D01*
X142671Y206831D01*
X141944Y207132D01*
X141178Y207316D01*
X140394Y207378D01*
X139609Y207316D01*
X138844Y207132D01*
X138117Y206831D01*
X137446Y206420D01*
X136847Y205909D01*
X136336Y205310D01*
X135925Y204639D01*
X135624Y203912D01*
X135440Y203147D01*
X135378Y202362D01*
X135440Y201578D01*
X135624Y200812D01*
X135925Y200085D01*
X136336Y199414D01*
X136847Y198816D01*
X137446Y198305D01*
X138117Y197893D01*
X138844Y197592D01*
X139609Y197409D01*
X140394Y197347D01*
X141178Y197409D01*
X141944Y197592D01*
X142671Y197893D01*
X143342Y198305D01*
X143940Y198816D01*
X144451Y199414D01*
X144862Y200085D01*
X145164Y200812D01*
X145347Y201578D01*
X145386Y202232D01*
Y172572D01*
X145347Y173226D01*
X145164Y173991D01*
X144862Y174718D01*
X144451Y175389D01*
X143940Y175987D01*
X143342Y176499D01*
X142671Y176910D01*
X141944Y177211D01*
X141178Y177395D01*
X140394Y177456D01*
X139609Y177395D01*
X138844Y177211D01*
X138117Y176910D01*
X137446Y176499D01*
X136847Y175987D01*
X136336Y175389D01*
X135925Y174718D01*
X135624Y173991D01*
X135440Y173226D01*
X135378Y172441D01*
X135396Y172216D01*
X135440Y171656D01*
X135624Y170891D01*
X135925Y170164D01*
X136336Y169493D01*
X136847Y168895D01*
X137446Y168383D01*
X138117Y167972D01*
X138844Y167671D01*
X139609Y167487D01*
X140394Y167426D01*
X141178Y167487D01*
X141944Y167671D01*
X142671Y167972D01*
X143342Y168383D01*
X143940Y168895D01*
X144451Y169493D01*
X144862Y170164D01*
X145164Y170891D01*
X145347Y171656D01*
X145386Y172310D01*
Y165287D01*
X139235D01*
X134672Y169851D01*
Y329692D01*
X134683Y329828D01*
X134640Y330373D01*
X134512Y330906D01*
X134365Y331261D01*
X134303Y331411D01*
X134017Y331878D01*
X134017Y331878D01*
X133661Y332294D01*
X133558Y332382D01*
X122633Y343307D01*
X122544Y343411D01*
X122129Y343766D01*
X122128Y343766D01*
X121662Y344052D01*
X121156Y344261D01*
X120624Y344389D01*
X120079Y344432D01*
X119942Y344421D01*
X111676D01*
X107886Y348212D01*
Y348362D01*
X107956Y348422D01*
X108467Y349021D01*
X108878Y349692D01*
X109179Y350419D01*
X109363Y351184D01*
X109409Y351969D01*
Y348469D01*
X109423Y348233D01*
X109478Y348004D01*
X109569Y347785D01*
X109692Y347584D01*
X109846Y347405D01*
X110025Y347251D01*
X110226Y347128D01*
X110444Y347038D01*
X110674Y346982D01*
X110909Y346969D01*
X117909D01*
X118145Y346982D01*
X118374Y347038D01*
X118593Y347128D01*
X118794Y347251D01*
X118973Y347405D01*
X119127Y347584D01*
X119250Y347785D01*
X119340Y348004D01*
X119396Y348233D01*
X119409Y348469D01*
Y355469D01*
X119396Y355704D01*
X119340Y355933D01*
X119250Y356152D01*
X119127Y356353D01*
X118973Y356532D01*
X118794Y356686D01*
X118593Y356809D01*
X118374Y356899D01*
X118145Y356955D01*
X117909Y356969D01*
X110909D01*
X110674Y356955D01*
X110444Y356899D01*
X110226Y356809D01*
X110025Y356686D01*
X109846Y356532D01*
X109692Y356353D01*
X109569Y356152D01*
X109478Y355933D01*
X109423Y355704D01*
X109409Y355469D01*
Y351969D01*
X109407Y352011D01*
X109363Y352753D01*
X109179Y353518D01*
X108878Y354245D01*
X108467Y354916D01*
X107956Y355515D01*
X107357Y356026D01*
X106686Y356437D01*
X105959Y356738D01*
X105194Y356922D01*
X104409Y356984D01*
X104402Y356983D01*
Y371074D01*
G37*
G36*
X114409Y421422D02*X123687Y412145D01*
Y410768D01*
X123676Y410632D01*
X123719Y410086D01*
X123847Y409554D01*
X124057Y409049D01*
X124342Y408582D01*
X124343Y408582D01*
X124698Y408166D01*
X124802Y408077D01*
X133372Y399507D01*
X133461Y399403D01*
X133877Y399048D01*
X133877Y399048D01*
X134343Y398762D01*
X134849Y398552D01*
X135381Y398425D01*
X135926Y398382D01*
X136063Y398392D01*
X145386D01*
Y382020D01*
X145347Y382674D01*
X145164Y383440D01*
X144862Y384167D01*
X144451Y384838D01*
X143940Y385436D01*
X143342Y385947D01*
X142671Y386359D01*
X141944Y386660D01*
X141178Y386843D01*
X140394Y386905D01*
X139609Y386843D01*
X139070Y386714D01*
X138844Y386660D01*
X138117Y386359D01*
X137446Y385947D01*
X136847Y385436D01*
X136336Y384838D01*
X135925Y384167D01*
X135624Y383440D01*
X135440Y382674D01*
X135378Y381890D01*
X135440Y381105D01*
X135624Y380340D01*
X135925Y379613D01*
X136336Y378942D01*
X136847Y378343D01*
X137446Y377832D01*
X138117Y377421D01*
X138844Y377120D01*
X139070Y377066D01*
X139609Y376936D01*
X140394Y376874D01*
X141178Y376936D01*
X141944Y377120D01*
X142671Y377421D01*
X143342Y377832D01*
X143940Y378343D01*
X144451Y378942D01*
X144862Y379613D01*
X145164Y380340D01*
X145347Y381105D01*
X145386Y381759D01*
Y375263D01*
X114409D01*
Y376890D01*
X117909D01*
X118145Y376904D01*
X118374Y376959D01*
X118593Y377049D01*
X118794Y377172D01*
X118973Y377326D01*
X119127Y377505D01*
X119250Y377707D01*
X119340Y377925D01*
X119396Y378154D01*
X119409Y378390D01*
Y385390D01*
X119396Y385625D01*
X119340Y385855D01*
X119250Y386073D01*
X119127Y386274D01*
X118973Y386454D01*
X118794Y386607D01*
X118593Y386730D01*
X118374Y386821D01*
X118145Y386876D01*
X117909Y386890D01*
X114409D01*
Y406811D01*
X117909D01*
X118145Y406825D01*
X118374Y406880D01*
X118593Y406970D01*
X118794Y407094D01*
X118973Y407247D01*
X119127Y407427D01*
X119250Y407628D01*
X119340Y407846D01*
X119396Y408076D01*
X119409Y408311D01*
Y415311D01*
X119396Y415546D01*
X119340Y415776D01*
X119250Y415994D01*
X119127Y416195D01*
X118973Y416375D01*
X118794Y416528D01*
X118593Y416652D01*
X118374Y416742D01*
X118145Y416797D01*
X117909Y416811D01*
X114409D01*
Y421422D01*
G37*
G36*
Y375263D02*X110046D01*
X107886Y377423D01*
Y378283D01*
X107956Y378343D01*
X108467Y378942D01*
X108878Y379613D01*
X109179Y380340D01*
X109363Y381105D01*
X109401Y381755D01*
X109409Y381890D01*
Y378390D01*
X109423Y378154D01*
X109478Y377925D01*
X109569Y377707D01*
X109692Y377505D01*
X109846Y377326D01*
X110025Y377172D01*
X110226Y377049D01*
X110444Y376959D01*
X110674Y376904D01*
X110909Y376890D01*
X114409D01*
Y375263D01*
G37*
G36*
X104402Y431430D02*X114409Y421422D01*
Y416811D01*
X110909D01*
X110674Y416797D01*
X110444Y416742D01*
X110226Y416652D01*
X110025Y416528D01*
X109846Y416375D01*
X109692Y416195D01*
X109569Y415994D01*
X109478Y415776D01*
X109423Y415546D01*
X109409Y415311D01*
Y408311D01*
X109423Y408076D01*
X109478Y407846D01*
X109569Y407628D01*
X109692Y407427D01*
X109846Y407247D01*
X110025Y407094D01*
X110226Y406970D01*
X110444Y406880D01*
X110674Y406825D01*
X110909Y406811D01*
X114409D01*
Y386890D01*
X110909D01*
X110674Y386876D01*
X110444Y386821D01*
X110226Y386730D01*
X110025Y386607D01*
X109846Y386454D01*
X109692Y386274D01*
X109569Y386073D01*
X109478Y385855D01*
X109423Y385625D01*
X109409Y385390D01*
Y381890D01*
X109363Y382674D01*
X109179Y383440D01*
X108878Y384167D01*
X108467Y384838D01*
X107956Y385436D01*
X107357Y385947D01*
X106686Y386359D01*
X105959Y386660D01*
X105194Y386843D01*
X104409Y386905D01*
X104402Y386905D01*
Y406796D01*
X104409Y406796D01*
X105194Y406857D01*
X105959Y407041D01*
X106686Y407342D01*
X107357Y407753D01*
X107956Y408265D01*
X108467Y408863D01*
X108878Y409534D01*
X109179Y410261D01*
X109363Y411026D01*
X109409Y411811D01*
X109363Y412596D01*
X109179Y413361D01*
X108878Y414088D01*
X108467Y414759D01*
X107956Y415357D01*
X107357Y415869D01*
X106686Y416280D01*
X105959Y416581D01*
X105194Y416765D01*
X104409Y416826D01*
X104402Y416826D01*
Y431430D01*
G37*
G36*
Y457087D02*X145386D01*
Y441863D01*
X145347Y442517D01*
X145164Y443282D01*
X144862Y444009D01*
X144451Y444680D01*
X143940Y445279D01*
X143342Y445790D01*
X142671Y446201D01*
X141944Y446502D01*
X141178Y446686D01*
X140394Y446748D01*
X139609Y446686D01*
X138844Y446502D01*
X138117Y446201D01*
X137446Y445790D01*
X136847Y445279D01*
X136336Y444680D01*
X135925Y444009D01*
X135624Y443282D01*
X135440Y442517D01*
X135378Y441732D01*
X135440Y440948D01*
X135624Y440182D01*
X135772Y439826D01*
X135925Y439455D01*
X136336Y438784D01*
X136847Y438186D01*
X137446Y437675D01*
X138117Y437264D01*
X138844Y436962D01*
X139070Y436908D01*
X139609Y436779D01*
X140394Y436717D01*
X141178Y436779D01*
X141944Y436962D01*
X142671Y437264D01*
X143342Y437675D01*
X143940Y438186D01*
X144451Y438784D01*
X144862Y439455D01*
X145164Y440182D01*
X145347Y440948D01*
X145386Y441602D01*
Y411942D01*
X145347Y412596D01*
X145164Y413361D01*
X144862Y414088D01*
X144451Y414759D01*
X143940Y415357D01*
X143342Y415869D01*
X142671Y416280D01*
X141944Y416581D01*
X141178Y416765D01*
X140394Y416826D01*
X139609Y416765D01*
X139070Y416635D01*
X138844Y416581D01*
X138117Y416280D01*
X137446Y415869D01*
X136847Y415357D01*
X136336Y414759D01*
X135925Y414088D01*
X135624Y413361D01*
X135440Y412596D01*
X135378Y411811D01*
X135414Y411355D01*
X135440Y411026D01*
X135624Y410261D01*
X135925Y409534D01*
X136336Y408863D01*
X136847Y408265D01*
X137446Y407753D01*
X138117Y407342D01*
X138844Y407041D01*
X139609Y406857D01*
X140394Y406796D01*
X140398Y406796D01*
X141178Y406857D01*
X141944Y407041D01*
X142671Y407342D01*
X143342Y407753D01*
X143940Y408265D01*
X144451Y408863D01*
X144862Y409534D01*
X145164Y410261D01*
X145347Y411026D01*
X145386Y411680D01*
Y405345D01*
X137366D01*
X130640Y412072D01*
Y413448D01*
X130651Y413584D01*
X130608Y414130D01*
X130480Y414662D01*
X130271Y415168D01*
X129985Y415634D01*
X129985Y415634D01*
X129629Y416050D01*
X129525Y416139D01*
X124682Y420982D01*
X125204Y420857D01*
X126378Y420764D01*
X127552Y420857D01*
X128697Y421132D01*
X129784Y421582D01*
X130788Y422197D01*
X131684Y422962D01*
X132448Y423857D01*
X133064Y424861D01*
X133514Y425949D01*
X133789Y427094D01*
X133858Y428268D01*
X133789Y429442D01*
X133514Y430586D01*
X133064Y431674D01*
X132448Y432678D01*
X131684Y433573D01*
X130788Y434338D01*
X129784Y434953D01*
X128697Y435404D01*
X127552Y435679D01*
X126378Y435771D01*
X125204Y435679D01*
X124059Y435404D01*
X122971Y434953D01*
X121968Y434338D01*
X121072Y433573D01*
X120308Y432678D01*
X119692Y431674D01*
X119242Y430586D01*
X118967Y429442D01*
X118875Y428268D01*
X118967Y427094D01*
X119092Y426572D01*
X107886Y437779D01*
Y438126D01*
X107956Y438186D01*
X108467Y438784D01*
X108878Y439455D01*
X109032Y439826D01*
X109179Y440182D01*
X109363Y440948D01*
X109409Y441732D01*
Y438232D01*
X109423Y437997D01*
X109478Y437767D01*
X109569Y437549D01*
X109692Y437348D01*
X109846Y437168D01*
X110025Y437015D01*
X110226Y436892D01*
X110444Y436801D01*
X110674Y436746D01*
X110909Y436732D01*
X117909D01*
X118145Y436746D01*
X118374Y436801D01*
X118593Y436892D01*
X118794Y437015D01*
X118973Y437168D01*
X119127Y437348D01*
X119250Y437549D01*
X119340Y437767D01*
X119396Y437997D01*
X119409Y438232D01*
Y445232D01*
X119396Y445468D01*
X119340Y445697D01*
X119250Y445915D01*
X119127Y446117D01*
X118973Y446296D01*
X118794Y446450D01*
X118593Y446573D01*
X118374Y446663D01*
X118145Y446718D01*
X117909Y446732D01*
X110909D01*
X110674Y446718D01*
X110444Y446663D01*
X110226Y446573D01*
X110025Y446450D01*
X109846Y446296D01*
X109692Y446117D01*
X109569Y445915D01*
X109478Y445697D01*
X109423Y445468D01*
X109409Y445232D01*
Y441732D01*
X109363Y442517D01*
X109179Y443282D01*
X108878Y444009D01*
X108467Y444680D01*
X107956Y445279D01*
X107357Y445790D01*
X106686Y446201D01*
X105959Y446502D01*
X105194Y446686D01*
X104409Y446748D01*
X104402Y446747D01*
Y457087D01*
G37*
G36*
X92362D02*X104402D01*
Y446747D01*
X103625Y446686D01*
X102860Y446502D01*
X102132Y446201D01*
X101461Y445790D01*
X100863Y445279D01*
X100352Y444680D01*
X99941Y444009D01*
X99640Y443282D01*
X99456Y442517D01*
X99394Y441732D01*
X99456Y440948D01*
X99640Y440182D01*
X99941Y439455D01*
X100352Y438784D01*
X100863Y438186D01*
X100922Y438135D01*
Y438135D01*
X100933Y438126D01*
Y436475D01*
X100922Y436339D01*
X100965Y435793D01*
X101093Y435261D01*
X101302Y434755D01*
X101588Y434289D01*
X101589Y434289D01*
X101944Y433873D01*
X102048Y433784D01*
X104402Y431430D01*
Y416826D01*
X103625Y416765D01*
X102860Y416581D01*
X102132Y416280D01*
X101461Y415869D01*
X100863Y415357D01*
X100352Y414759D01*
X99941Y414088D01*
X99640Y413361D01*
X99456Y412596D01*
X99394Y411811D01*
X99456Y411026D01*
X99640Y410261D01*
X99941Y409534D01*
X100352Y408863D01*
X100863Y408265D01*
X101461Y407753D01*
X102132Y407342D01*
X102860Y407041D01*
X103625Y406857D01*
X104402Y406796D01*
Y386905D01*
X103625Y386843D01*
X102860Y386660D01*
X102132Y386359D01*
X101461Y385947D01*
X100863Y385436D01*
X100352Y384838D01*
X99941Y384167D01*
X99640Y383440D01*
X99456Y382674D01*
X99394Y381890D01*
X99456Y381105D01*
X99640Y380340D01*
X99941Y379613D01*
X100352Y378942D01*
X100863Y378343D01*
X100922Y378293D01*
Y378293D01*
X100933Y378283D01*
Y376119D01*
X100922Y375983D01*
X100965Y375437D01*
X101093Y374905D01*
X101302Y374400D01*
X101588Y373933D01*
X101589Y373933D01*
X101944Y373517D01*
X102048Y373428D01*
X104402Y371074D01*
Y356983D01*
X103625Y356922D01*
X102860Y356738D01*
X102132Y356437D01*
X101461Y356026D01*
X100863Y355515D01*
X100352Y354916D01*
X99941Y354245D01*
X99640Y353518D01*
X99456Y352753D01*
X99394Y351969D01*
X99456Y351184D01*
X99640Y350419D01*
X99941Y349692D01*
X100352Y349021D01*
X100863Y348422D01*
X100933Y348362D01*
Y346908D01*
X100922Y346772D01*
X100965Y346226D01*
Y346226D01*
X100996Y346098D01*
X101093Y345694D01*
X101302Y345189D01*
X101588Y344722D01*
X101588Y344722D01*
X101944Y344306D01*
X102048Y344217D01*
X104402Y341863D01*
Y327062D01*
X103625Y327001D01*
X102860Y326817D01*
X102132Y326516D01*
X101461Y326105D01*
X100863Y325594D01*
X100352Y324995D01*
X99941Y324324D01*
X99640Y323597D01*
X99456Y322832D01*
X99394Y322047D01*
X99456Y321263D01*
X99640Y320497D01*
X99941Y319770D01*
X100352Y319099D01*
X100863Y318501D01*
X100922Y318450D01*
Y318450D01*
X100933Y318441D01*
Y317380D01*
X100922Y317244D01*
X100965Y316699D01*
X101093Y316167D01*
X101302Y315661D01*
X101588Y315194D01*
X101589Y315194D01*
X101944Y314778D01*
X102048Y314690D01*
X104402Y312335D01*
Y297141D01*
X103625Y297080D01*
X102860Y296896D01*
X102132Y296595D01*
X101461Y296184D01*
X100863Y295672D01*
X100352Y295074D01*
X99941Y294403D01*
X99640Y293676D01*
X99456Y292911D01*
X99394Y292126D01*
X99456Y291341D01*
X99640Y290576D01*
X99941Y289849D01*
X100352Y289178D01*
X100863Y288580D01*
X101461Y288068D01*
X102132Y287657D01*
X102860Y287356D01*
X103625Y287172D01*
X104402Y287111D01*
Y267220D01*
X103625Y267158D01*
X102860Y266975D01*
X102132Y266673D01*
X101461Y266262D01*
X100863Y265751D01*
X100352Y265153D01*
X99941Y264482D01*
X99640Y263755D01*
X99456Y262989D01*
X99394Y262205D01*
X99456Y261420D01*
X99640Y260655D01*
X99941Y259928D01*
X100352Y259257D01*
X100863Y258658D01*
X101461Y258147D01*
X102132Y257736D01*
X102860Y257435D01*
X103625Y257251D01*
X104402Y257190D01*
Y237298D01*
X103625Y237237D01*
X102860Y237053D01*
X102132Y236752D01*
X101461Y236341D01*
X100863Y235830D01*
X100352Y235231D01*
X99941Y234560D01*
X99640Y233833D01*
X99456Y233068D01*
X99394Y232283D01*
X99456Y231499D01*
X99640Y230734D01*
X99941Y230007D01*
X100352Y229335D01*
X100863Y228737D01*
X101461Y228226D01*
X102132Y227815D01*
X102860Y227514D01*
X103625Y227330D01*
X104402Y227269D01*
Y207377D01*
X103625Y207316D01*
X102860Y207132D01*
X102132Y206831D01*
X101461Y206420D01*
X100863Y205909D01*
X100352Y205310D01*
X99941Y204639D01*
X99640Y203912D01*
X99456Y203147D01*
X99394Y202362D01*
X99456Y201578D01*
X99640Y200812D01*
X99941Y200085D01*
X100352Y199414D01*
X100863Y198816D01*
X101461Y198305D01*
X102132Y197893D01*
X102860Y197592D01*
X103625Y197409D01*
X104402Y197347D01*
Y177456D01*
X103625Y177395D01*
X102860Y177211D01*
X102132Y176910D01*
X101461Y176499D01*
X100863Y175987D01*
X100352Y175389D01*
X99941Y174718D01*
X99640Y173991D01*
X99456Y173226D01*
X99394Y172441D01*
X99456Y171656D01*
X99640Y170891D01*
X99941Y170164D01*
X100352Y169493D01*
X100863Y168895D01*
X101461Y168383D01*
X102132Y167972D01*
X102860Y167671D01*
X103625Y167487D01*
X104402Y167426D01*
Y147534D01*
X103625Y147473D01*
X102860Y147290D01*
X102132Y146988D01*
X101461Y146577D01*
X100863Y146066D01*
X100352Y145468D01*
X99941Y144797D01*
X99640Y144070D01*
X99456Y143304D01*
X99394Y142520D01*
X99456Y141735D01*
X99640Y140970D01*
X99941Y140243D01*
X100352Y139572D01*
X100863Y138973D01*
X101461Y138462D01*
X102132Y138051D01*
X102860Y137750D01*
X103625Y137566D01*
X104402Y137505D01*
Y117613D01*
X103625Y117552D01*
X102860Y117368D01*
X102132Y117067D01*
X101461Y116656D01*
X100863Y116145D01*
X100352Y115546D01*
X99941Y114875D01*
X99640Y114148D01*
X99456Y113383D01*
X99394Y112598D01*
X99456Y111814D01*
X99640Y111049D01*
X99941Y110321D01*
X100352Y109650D01*
X100863Y109052D01*
X101461Y108541D01*
X102132Y108130D01*
X102860Y107828D01*
X103625Y107645D01*
X104402Y107584D01*
Y42323D01*
X92362D01*
Y77598D01*
X95862D01*
X96098Y77612D01*
X96327Y77667D01*
X96545Y77758D01*
X96747Y77881D01*
X96926Y78034D01*
X97079Y78214D01*
X97203Y78415D01*
X97293Y78633D01*
X97348Y78863D01*
X97362Y79098D01*
Y86098D01*
X97348Y86334D01*
X97293Y86563D01*
X97203Y86782D01*
X97079Y86983D01*
X96926Y87162D01*
X96747Y87316D01*
X96545Y87439D01*
X96327Y87529D01*
X96098Y87585D01*
X95862Y87598D01*
X92362D01*
Y457087D01*
G37*
G36*
X82354D02*X92362D01*
Y87598D01*
X88862D01*
X88627Y87585D01*
X88397Y87529D01*
X88179Y87439D01*
X87978Y87316D01*
X87798Y87162D01*
X87645Y86983D01*
X87522Y86782D01*
X87431Y86563D01*
X87376Y86334D01*
X87362Y86098D01*
Y79098D01*
X87376Y78863D01*
X87431Y78633D01*
X87522Y78415D01*
X87645Y78214D01*
X87798Y78034D01*
X87978Y77881D01*
X88179Y77758D01*
X88397Y77667D01*
X88627Y77612D01*
X88862Y77598D01*
X92362D01*
Y42323D01*
X82354D01*
Y77584D01*
X82362Y77583D01*
X83147Y77645D01*
X83912Y77828D01*
X84639Y78130D01*
X85310Y78541D01*
X85909Y79052D01*
X86420Y79650D01*
X86831Y80321D01*
X87132Y81049D01*
X87316Y81814D01*
X87362Y82598D01*
X87316Y83383D01*
X87132Y84148D01*
X86831Y84875D01*
X86420Y85546D01*
X85909Y86145D01*
X85310Y86656D01*
X84639Y87067D01*
X83912Y87368D01*
X83147Y87552D01*
X82362Y87614D01*
X82354Y87613D01*
Y457087D01*
G37*
G36*
X38583D02*X82354D01*
Y87613D01*
X81578Y87552D01*
X80812Y87368D01*
X80085Y87067D01*
X79414Y86656D01*
X78816Y86145D01*
X78305Y85546D01*
X77893Y84875D01*
X77592Y84148D01*
X77409Y83383D01*
X77347Y82598D01*
X77409Y81814D01*
X77592Y81049D01*
X77893Y80321D01*
X78305Y79650D01*
X78816Y79052D01*
X79414Y78541D01*
X80085Y78130D01*
X80812Y77828D01*
X81578Y77645D01*
X82354Y77584D01*
Y42323D01*
X38583D01*
Y457087D01*
G37*
G54D12*X162501Y401869D02*X167450Y396920D01*
Y255188D01*
X159943Y250616D02*X167424Y243136D01*
X159943Y250616D02*Y366221D01*
X104409Y317244D02*X112205Y309449D01*
X119094D01*
X123715Y304829D01*
X120079Y340945D02*X131196Y329828D01*
X108606Y371787D02*X154377D01*
X104409Y375983D02*X108606Y371787D01*
X104409Y441732D02*Y436339D01*
X127164Y413584D02*X104409Y436339D01*
X127164Y413584D02*Y410632D01*
X135926Y401869D01*
X162501D01*
X104409Y351969D02*Y346772D01*
X110236Y340945D01*
X120079D01*
X104409Y322047D02*Y317244D01*
X154377Y371787D02*X159943Y366221D01*
X104409Y381890D02*Y375983D01*
X175197Y247441D02*X181102D01*
X186024Y242520D01*
Y232638D01*
X186378Y232283D01*
X167450Y255188D02*X175197Y247441D01*
X167424Y243136D02*Y196159D01*
X123715Y304829D02*Y164081D01*
X131196Y329828D02*Y168411D01*
X186378Y172441D02*Y177205D01*
X167424Y196159D01*
X181102Y126378D02*X186024Y121457D01*
Y112953D01*
X186378Y112598D01*
X172244Y161811D02*X186024Y148031D01*
Y142874D01*
X186378Y142520D01*
X156496Y153937D02*X164370Y146063D01*
Y136220D01*
X174213Y126378D01*
X181102D01*
X137795Y161811D02*X172244D01*
X133858Y153937D02*X156496D01*
X123715Y164081D02*X133858Y153937D01*
X131196Y168411D02*X137795Y161811D01*
G54D11*G36*
X110909Y175941D02*Y168941D01*
X117909D01*
Y175941D01*
X110909D01*
G37*
G54D13*X104409Y172441D03*
G54D11*G36*
X110909Y205862D02*Y198862D01*
X117909D01*
Y205862D01*
X110909D01*
G37*
G54D13*X104409Y202362D03*
G54D11*G36*
X110909Y235783D02*Y228783D01*
X117909D01*
Y235783D01*
X110909D01*
G37*
G54D13*X104409Y232283D03*
G54D11*G36*
X110909Y265705D02*Y258705D01*
X117909D01*
Y265705D01*
X110909D01*
G37*
G54D13*X104409Y262205D03*
G54D11*G36*
X110909Y295626D02*Y288626D01*
X117909D01*
Y295626D01*
X110909D01*
G37*
G54D13*X104409Y292126D03*
G54D11*G36*
X110909Y325547D02*Y318547D01*
X117909D01*
Y325547D01*
X110909D01*
G37*
G36*
Y355469D02*Y348469D01*
X117909D01*
Y355469D01*
X110909D01*
G37*
G36*
Y385390D02*Y378390D01*
X117909D01*
Y385390D01*
X110909D01*
G37*
G36*
Y415311D02*Y408311D01*
X117909D01*
Y415311D01*
X110909D01*
G37*
G36*
Y445232D02*Y438232D01*
X117909D01*
Y445232D01*
X110909D01*
G37*
G54D13*X104409Y322047D03*
Y351969D03*
Y381890D03*
Y411811D03*
Y441732D03*
G54D11*G36*
X182878Y265705D02*Y258705D01*
X189878D01*
Y265705D01*
X182878D01*
G37*
G54D13*X176378Y262205D03*
G54D11*G36*
X182878Y295626D02*Y288626D01*
X189878D01*
Y295626D01*
X182878D01*
G37*
G54D13*X176378Y292126D03*
G54D11*G36*
X182878Y325547D02*Y318547D01*
X189878D01*
Y325547D01*
X182878D01*
G37*
G54D13*X176378Y322047D03*
G54D11*G36*
X182878Y355469D02*Y348469D01*
X189878D01*
Y355469D01*
X182878D01*
G37*
G54D13*X176378Y351969D03*
G54D11*G36*
X182878Y385390D02*Y378390D01*
X189878D01*
Y385390D01*
X182878D01*
G37*
G54D13*X176378Y381890D03*
G54D11*G36*
X182878Y415311D02*Y408311D01*
X189878D01*
Y415311D01*
X182878D01*
G37*
G36*
Y445232D02*Y438232D01*
X189878D01*
Y445232D01*
X182878D01*
G37*
G54D13*X176378Y411811D03*
Y441732D03*
G54D11*G36*
X146894Y265705D02*Y258705D01*
X153894D01*
Y265705D01*
X146894D01*
G37*
G36*
Y295626D02*Y288626D01*
X153894D01*
Y295626D01*
X146894D01*
G37*
G36*
Y325547D02*Y318547D01*
X153894D01*
Y325547D01*
X146894D01*
G37*
G54D13*X140394Y262205D03*
Y292126D03*
Y322047D03*
Y351969D03*
Y381890D03*
Y411811D03*
G54D11*G36*
X146894Y355469D02*Y348469D01*
X153894D01*
Y355469D01*
X146894D01*
G37*
G36*
Y385390D02*Y378390D01*
X153894D01*
Y385390D01*
X146894D01*
G37*
G36*
Y415311D02*Y408311D01*
X153894D01*
Y415311D01*
X146894D01*
G37*
G36*
Y445232D02*Y438232D01*
X153894D01*
Y445232D01*
X146894D01*
G37*
G54D13*X140394Y441732D03*
G54D11*G36*
X88862Y86098D02*Y79098D01*
X95862D01*
Y86098D01*
X88862D01*
G37*
G54D13*X82362Y82598D03*
X112362D03*
G54D11*G36*
X118862Y86098D02*Y79098D01*
X125862D01*
Y86098D01*
X118862D01*
G37*
G36*
X148862D02*Y79098D01*
X155862D01*
Y86098D01*
X148862D01*
G37*
G54D13*X142362Y82598D03*
G54D11*G36*
X110909Y116098D02*Y109098D01*
X117909D01*
Y116098D01*
X110909D01*
G37*
G36*
X146894D02*Y109098D01*
X153894D01*
Y116098D01*
X146894D01*
G37*
G54D13*X140394Y112598D03*
X104409D03*
G54D11*G36*
X110909Y146020D02*Y139020D01*
X117909D01*
Y146020D01*
X110909D01*
G37*
G54D13*X104409Y142520D03*
G54D11*G36*
X146894Y146020D02*Y139020D01*
X153894D01*
Y146020D01*
X146894D01*
G37*
G54D13*X140394Y142520D03*
G54D11*G36*
X146894Y175941D02*Y168941D01*
X153894D01*
Y175941D01*
X146894D01*
G37*
G54D13*X140394Y172441D03*
G54D11*G36*
X146894Y205862D02*Y198862D01*
X153894D01*
Y205862D01*
X146894D01*
G37*
G54D13*X140394Y202362D03*
G54D11*G36*
X146894Y235783D02*Y228783D01*
X153894D01*
Y235783D01*
X146894D01*
G37*
G54D13*X140394Y232283D03*
G54D11*G36*
X182878Y116098D02*Y109098D01*
X189878D01*
Y116098D01*
X182878D01*
G37*
G36*
Y146020D02*Y139020D01*
X189878D01*
Y146020D01*
X182878D01*
G37*
G54D13*X176378Y142520D03*
G54D11*G36*
X182878Y175941D02*Y168941D01*
X189878D01*
Y175941D01*
X182878D01*
G37*
G54D13*X176378Y172441D03*
G54D11*G36*
X182878Y205862D02*Y198862D01*
X189878D01*
Y205862D01*
X182878D01*
G37*
G54D13*X176378Y202362D03*
G54D11*G36*
X182878Y235783D02*Y228783D01*
X189878D01*
Y235783D01*
X182878D01*
G37*
G54D13*X176378Y232283D03*
Y112598D03*
G54D11*G36*
X178862Y86098D02*Y79098D01*
X185862D01*
Y86098D01*
X178862D01*
G37*
G36*
X208862D02*Y79098D01*
X215862D01*
Y86098D01*
X208862D01*
G37*
G54D13*X202362Y82598D03*
X172362D03*
G54D11*G36*
X238862Y86098D02*Y79098D01*
X245862D01*
Y86098D01*
X238862D01*
G37*
G54D13*X232362Y82598D03*
G54D11*G36*
X268862Y86098D02*Y79098D01*
X275862D01*
Y86098D01*
X268862D01*
G37*
G54D13*X262362Y82598D03*
G54D11*G36*
X298862Y86098D02*Y79098D01*
X305862D01*
Y86098D01*
X298862D01*
G37*
G36*
X328862D02*Y79098D01*
X335862D01*
Y86098D01*
X328862D01*
G37*
G54D13*X322362Y82598D03*
X292362D03*
G54D11*G36*
X388862Y86098D02*Y79098D01*
X395862D01*
Y86098D01*
X388862D01*
G37*
G54D13*X382362Y82598D03*
G54D11*G36*
X418862Y86098D02*Y79098D01*
X425862D01*
Y86098D01*
X418862D01*
G37*
G54D13*X412362Y82598D03*
G54D11*G36*
X358862Y86098D02*Y79098D01*
X365862D01*
Y86098D01*
X358862D01*
G37*
G54D13*X352362Y82598D03*
G54D11*G36*
X384846Y116098D02*Y109098D01*
X391846D01*
Y116098D01*
X384846D01*
G37*
G54D13*X378346Y112598D03*
G54D11*G36*
X384846Y146020D02*Y139020D01*
X391846D01*
Y146020D01*
X384846D01*
G37*
G54D13*X378346Y142520D03*
G54D11*G36*
X384846Y175941D02*Y168941D01*
X391846D01*
Y175941D01*
X384846D01*
G37*
G54D13*X378346Y172441D03*
G54D11*G36*
X384846Y205862D02*Y198862D01*
X391846D01*
Y205862D01*
X384846D01*
G37*
G54D13*X378346Y202362D03*
G54D11*G36*
X384846Y235783D02*Y228783D01*
X391846D01*
Y235783D01*
X384846D01*
G37*
G54D13*X378346Y232283D03*
G54D11*G36*
X448862Y86098D02*Y79098D01*
X455862D01*
Y86098D01*
X448862D01*
G37*
G54D13*X442362Y82598D03*
G54D11*G36*
X478862Y86098D02*Y79098D01*
X485862D01*
Y86098D01*
X478862D01*
G37*
G54D13*X472362Y82598D03*
G54D11*G36*
X456815Y116098D02*Y109098D01*
X463815D01*
Y116098D01*
X456815D01*
G37*
G54D13*X450315Y112598D03*
G54D11*G36*
X456815Y146020D02*Y139020D01*
X463815D01*
Y146020D01*
X456815D01*
G37*
G54D13*X450315Y142520D03*
G54D11*G36*
X420831Y116098D02*Y109098D01*
X427831D01*
Y116098D01*
X420831D01*
G37*
G54D13*X414331Y112598D03*
G54D11*G36*
X420831Y146020D02*Y139020D01*
X427831D01*
Y146020D01*
X420831D01*
G37*
G54D13*X414331Y142520D03*
G54D11*G36*
X456815Y175941D02*Y168941D01*
X463815D01*
Y175941D01*
X456815D01*
G37*
G36*
Y205862D02*Y198862D01*
X463815D01*
Y205862D01*
X456815D01*
G37*
G36*
Y235783D02*Y228783D01*
X463815D01*
Y235783D01*
X456815D01*
G37*
G36*
Y265705D02*Y258705D01*
X463815D01*
Y265705D01*
X456815D01*
G37*
G36*
Y355469D02*Y348469D01*
X463815D01*
Y355469D01*
X456815D01*
G37*
G54D13*X450315Y172441D03*
Y202362D03*
Y232283D03*
Y262205D03*
Y351969D03*
G54D11*G36*
X420831Y175941D02*Y168941D01*
X427831D01*
Y175941D01*
X420831D01*
G37*
G54D13*X414331Y172441D03*
G54D11*G36*
X420831Y205862D02*Y198862D01*
X427831D01*
Y205862D01*
X420831D01*
G37*
G54D13*X414331Y202362D03*
G54D11*G36*
X420831Y235783D02*Y228783D01*
X427831D01*
Y235783D01*
X420831D01*
G37*
G54D13*X414331Y232283D03*
G54D11*G36*
X420831Y265705D02*Y258705D01*
X427831D01*
Y265705D01*
X420831D01*
G37*
G54D13*X414331Y262205D03*
G54D11*G36*
X456815Y295626D02*Y288626D01*
X463815D01*
Y295626D01*
X456815D01*
G37*
G36*
Y325547D02*Y318547D01*
X463815D01*
Y325547D01*
X456815D01*
G37*
G54D13*X450315Y322047D03*
Y292126D03*
G54D11*G36*
X420831Y295626D02*Y288626D01*
X427831D01*
Y295626D01*
X420831D01*
G37*
G54D13*X414331Y292126D03*
G54D11*G36*
X420831Y325547D02*Y318547D01*
X427831D01*
Y325547D01*
X420831D01*
G37*
G54D13*X414331Y322047D03*
G54D11*G36*
X420831Y355469D02*Y348469D01*
X427831D01*
Y355469D01*
X420831D01*
G37*
G54D13*X414331Y351969D03*
G54D11*G36*
X384846Y265705D02*Y258705D01*
X391846D01*
Y265705D01*
X384846D01*
G37*
G36*
Y295626D02*Y288626D01*
X391846D01*
Y295626D01*
X384846D01*
G37*
G36*
Y325547D02*Y318547D01*
X391846D01*
Y325547D01*
X384846D01*
G37*
G54D13*X378346Y262205D03*
Y292126D03*
Y322047D03*
Y351969D03*
Y381890D03*
Y411811D03*
G54D11*G36*
X384846Y355469D02*Y348469D01*
X391846D01*
Y355469D01*
X384846D01*
G37*
G36*
Y385390D02*Y378390D01*
X391846D01*
Y385390D01*
X384846D01*
G37*
G36*
Y415311D02*Y408311D01*
X391846D01*
Y415311D01*
X384846D01*
G37*
G36*
Y445232D02*Y438232D01*
X391846D01*
Y445232D01*
X384846D01*
G37*
G54D13*X378346Y441732D03*
G54D11*G36*
X456815Y385390D02*Y378390D01*
X463815D01*
Y385390D01*
X456815D01*
G37*
G36*
Y415311D02*Y408311D01*
X463815D01*
Y415311D01*
X456815D01*
G37*
G36*
Y445232D02*Y438232D01*
X463815D01*
Y445232D01*
X456815D01*
G37*
G54D13*X450315Y441732D03*
Y381890D03*
Y411811D03*
G54D11*G36*
X420831Y385390D02*Y378390D01*
X427831D01*
Y385390D01*
X420831D01*
G37*
G36*
Y415311D02*Y408311D01*
X427831D01*
Y415311D01*
X420831D01*
G37*
G54D13*X414331Y411811D03*
G54D11*G36*
X420831Y445232D02*Y438232D01*
X427831D01*
Y445232D01*
X420831D01*
G37*
G54D13*X414331Y441732D03*
Y381890D03*
G54D14*X212362Y116614D03*
X352362D03*
X126378Y428268D03*
X438307Y431535D03*
G54D15*G54D16*M02*
