G04 start of page 5 for group 2 layer_idx 0 *
G04 Title: liplight-art, top_mask *
G04 Creator: pcb-rnd 1.2.4 *
G04 CreationDate: 2017-09-08 03:23:09 UTC *
G04 For:  *
G04 Format: Gerber/RS-274X *
G04 PCB-Dimensions: 506299 506299 *
G04 PCB-Coordinate-Origin: lower left *
%MOIN*%
%FSLAX25Y25*%
%LNTOPMASK*%
%ADD21C,0.0600*%
%ADD20C,0.0001*%
G54D20*G36*
X111409Y175441D02*Y169441D01*
X117409D01*
Y175441D01*
X111409D01*
G37*
G54D21*X104409Y172441D03*
G54D20*G36*
X111409Y205362D02*Y199362D01*
X117409D01*
Y205362D01*
X111409D01*
G37*
G54D21*X104409Y202362D03*
G54D20*G36*
X111409Y235283D02*Y229283D01*
X117409D01*
Y235283D01*
X111409D01*
G37*
G54D21*X104409Y232283D03*
G54D20*G36*
X111409Y265205D02*Y259205D01*
X117409D01*
Y265205D01*
X111409D01*
G37*
G54D21*X104409Y262205D03*
G54D20*G36*
X111409Y295126D02*Y289126D01*
X117409D01*
Y295126D01*
X111409D01*
G37*
G54D21*X104409Y292126D03*
G54D20*G36*
X111409Y325047D02*Y319047D01*
X117409D01*
Y325047D01*
X111409D01*
G37*
G36*
Y354969D02*Y348969D01*
X117409D01*
Y354969D01*
X111409D01*
G37*
G36*
Y384890D02*Y378890D01*
X117409D01*
Y384890D01*
X111409D01*
G37*
G36*
Y414811D02*Y408811D01*
X117409D01*
Y414811D01*
X111409D01*
G37*
G36*
Y444732D02*Y438732D01*
X117409D01*
Y444732D01*
X111409D01*
G37*
G54D21*X104409Y322047D03*
Y351969D03*
Y381890D03*
Y411811D03*
Y441732D03*
G54D20*G36*
X183378Y265205D02*Y259205D01*
X189378D01*
Y265205D01*
X183378D01*
G37*
G54D21*X176378Y262205D03*
G54D20*G36*
X183378Y295126D02*Y289126D01*
X189378D01*
Y295126D01*
X183378D01*
G37*
G54D21*X176378Y292126D03*
G54D20*G36*
X183378Y325047D02*Y319047D01*
X189378D01*
Y325047D01*
X183378D01*
G37*
G54D21*X176378Y322047D03*
G54D20*G36*
X183378Y354969D02*Y348969D01*
X189378D01*
Y354969D01*
X183378D01*
G37*
G54D21*X176378Y351969D03*
G54D20*G36*
X183378Y384890D02*Y378890D01*
X189378D01*
Y384890D01*
X183378D01*
G37*
G54D21*X176378Y381890D03*
G54D20*G36*
X183378Y414811D02*Y408811D01*
X189378D01*
Y414811D01*
X183378D01*
G37*
G36*
Y444732D02*Y438732D01*
X189378D01*
Y444732D01*
X183378D01*
G37*
G54D21*X176378Y411811D03*
Y441732D03*
G54D20*G36*
X147394Y265205D02*Y259205D01*
X153394D01*
Y265205D01*
X147394D01*
G37*
G36*
Y295126D02*Y289126D01*
X153394D01*
Y295126D01*
X147394D01*
G37*
G36*
Y325047D02*Y319047D01*
X153394D01*
Y325047D01*
X147394D01*
G37*
G54D21*X140394Y262205D03*
Y292126D03*
Y322047D03*
Y351969D03*
Y381890D03*
Y411811D03*
G54D20*G36*
X147394Y354969D02*Y348969D01*
X153394D01*
Y354969D01*
X147394D01*
G37*
G36*
Y384890D02*Y378890D01*
X153394D01*
Y384890D01*
X147394D01*
G37*
G36*
Y414811D02*Y408811D01*
X153394D01*
Y414811D01*
X147394D01*
G37*
G36*
Y444732D02*Y438732D01*
X153394D01*
Y444732D01*
X147394D01*
G37*
G54D21*X140394Y441732D03*
G54D20*G36*
X89362Y85598D02*Y79598D01*
X95362D01*
Y85598D01*
X89362D01*
G37*
G54D21*X82362Y82598D03*
X112362D03*
G54D20*G36*
X119362Y85598D02*Y79598D01*
X125362D01*
Y85598D01*
X119362D01*
G37*
G36*
X149362D02*Y79598D01*
X155362D01*
Y85598D01*
X149362D01*
G37*
G54D21*X142362Y82598D03*
G54D20*G36*
X111409Y115598D02*Y109598D01*
X117409D01*
Y115598D01*
X111409D01*
G37*
G36*
X147394D02*Y109598D01*
X153394D01*
Y115598D01*
X147394D01*
G37*
G54D21*X140394Y112598D03*
X104409D03*
G54D20*G36*
X111409Y145520D02*Y139520D01*
X117409D01*
Y145520D01*
X111409D01*
G37*
G54D21*X104409Y142520D03*
G54D20*G36*
X147394Y145520D02*Y139520D01*
X153394D01*
Y145520D01*
X147394D01*
G37*
G54D21*X140394Y142520D03*
G54D20*G36*
X147394Y175441D02*Y169441D01*
X153394D01*
Y175441D01*
X147394D01*
G37*
G54D21*X140394Y172441D03*
G54D20*G36*
X147394Y205362D02*Y199362D01*
X153394D01*
Y205362D01*
X147394D01*
G37*
G54D21*X140394Y202362D03*
G54D20*G36*
X147394Y235283D02*Y229283D01*
X153394D01*
Y235283D01*
X147394D01*
G37*
G54D21*X140394Y232283D03*
G54D20*G36*
X183378Y115598D02*Y109598D01*
X189378D01*
Y115598D01*
X183378D01*
G37*
G36*
Y145520D02*Y139520D01*
X189378D01*
Y145520D01*
X183378D01*
G37*
G54D21*X176378Y142520D03*
G54D20*G36*
X183378Y175441D02*Y169441D01*
X189378D01*
Y175441D01*
X183378D01*
G37*
G54D21*X176378Y172441D03*
G54D20*G36*
X183378Y205362D02*Y199362D01*
X189378D01*
Y205362D01*
X183378D01*
G37*
G54D21*X176378Y202362D03*
G54D20*G36*
X183378Y235283D02*Y229283D01*
X189378D01*
Y235283D01*
X183378D01*
G37*
G54D21*X176378Y232283D03*
Y112598D03*
G54D20*G36*
X179362Y85598D02*Y79598D01*
X185362D01*
Y85598D01*
X179362D01*
G37*
G36*
X209362D02*Y79598D01*
X215362D01*
Y85598D01*
X209362D01*
G37*
G54D21*X202362Y82598D03*
X172362D03*
G54D20*G36*
X239362Y85598D02*Y79598D01*
X245362D01*
Y85598D01*
X239362D01*
G37*
G54D21*X232362Y82598D03*
G54D20*G36*
X269362Y85598D02*Y79598D01*
X275362D01*
Y85598D01*
X269362D01*
G37*
G54D21*X262362Y82598D03*
G54D20*G36*
X299362Y85598D02*Y79598D01*
X305362D01*
Y85598D01*
X299362D01*
G37*
G36*
X329362D02*Y79598D01*
X335362D01*
Y85598D01*
X329362D01*
G37*
G54D21*X322362Y82598D03*
X292362D03*
G54D20*G36*
X389362Y85598D02*Y79598D01*
X395362D01*
Y85598D01*
X389362D01*
G37*
G54D21*X382362Y82598D03*
G54D20*G36*
X419362Y85598D02*Y79598D01*
X425362D01*
Y85598D01*
X419362D01*
G37*
G54D21*X412362Y82598D03*
G54D20*G36*
X359362Y85598D02*Y79598D01*
X365362D01*
Y85598D01*
X359362D01*
G37*
G54D21*X352362Y82598D03*
G54D20*G36*
X385346Y115598D02*Y109598D01*
X391346D01*
Y115598D01*
X385346D01*
G37*
G54D21*X378346Y112598D03*
G54D20*G36*
X385346Y145520D02*Y139520D01*
X391346D01*
Y145520D01*
X385346D01*
G37*
G54D21*X378346Y142520D03*
G54D20*G36*
X385346Y175441D02*Y169441D01*
X391346D01*
Y175441D01*
X385346D01*
G37*
G54D21*X378346Y172441D03*
G54D20*G36*
X385346Y205362D02*Y199362D01*
X391346D01*
Y205362D01*
X385346D01*
G37*
G54D21*X378346Y202362D03*
G54D20*G36*
X385346Y235283D02*Y229283D01*
X391346D01*
Y235283D01*
X385346D01*
G37*
G54D21*X378346Y232283D03*
G54D20*G36*
X449362Y85598D02*Y79598D01*
X455362D01*
Y85598D01*
X449362D01*
G37*
G54D21*X442362Y82598D03*
G54D20*G36*
X479362Y85598D02*Y79598D01*
X485362D01*
Y85598D01*
X479362D01*
G37*
G54D21*X472362Y82598D03*
G54D20*G36*
X457315Y115598D02*Y109598D01*
X463315D01*
Y115598D01*
X457315D01*
G37*
G54D21*X450315Y112598D03*
G54D20*G36*
X457315Y145520D02*Y139520D01*
X463315D01*
Y145520D01*
X457315D01*
G37*
G54D21*X450315Y142520D03*
G54D20*G36*
X421331Y115598D02*Y109598D01*
X427331D01*
Y115598D01*
X421331D01*
G37*
G54D21*X414331Y112598D03*
G54D20*G36*
X421331Y145520D02*Y139520D01*
X427331D01*
Y145520D01*
X421331D01*
G37*
G54D21*X414331Y142520D03*
G54D20*G36*
X457315Y175441D02*Y169441D01*
X463315D01*
Y175441D01*
X457315D01*
G37*
G36*
Y205362D02*Y199362D01*
X463315D01*
Y205362D01*
X457315D01*
G37*
G36*
Y235283D02*Y229283D01*
X463315D01*
Y235283D01*
X457315D01*
G37*
G36*
Y265205D02*Y259205D01*
X463315D01*
Y265205D01*
X457315D01*
G37*
G36*
Y354969D02*Y348969D01*
X463315D01*
Y354969D01*
X457315D01*
G37*
G54D21*X450315Y172441D03*
Y202362D03*
Y232283D03*
Y262205D03*
Y351969D03*
G54D20*G36*
X421331Y175441D02*Y169441D01*
X427331D01*
Y175441D01*
X421331D01*
G37*
G54D21*X414331Y172441D03*
G54D20*G36*
X421331Y205362D02*Y199362D01*
X427331D01*
Y205362D01*
X421331D01*
G37*
G54D21*X414331Y202362D03*
G54D20*G36*
X421331Y235283D02*Y229283D01*
X427331D01*
Y235283D01*
X421331D01*
G37*
G54D21*X414331Y232283D03*
G54D20*G36*
X421331Y265205D02*Y259205D01*
X427331D01*
Y265205D01*
X421331D01*
G37*
G54D21*X414331Y262205D03*
G54D20*G36*
X457315Y295126D02*Y289126D01*
X463315D01*
Y295126D01*
X457315D01*
G37*
G36*
Y325047D02*Y319047D01*
X463315D01*
Y325047D01*
X457315D01*
G37*
G54D21*X450315Y322047D03*
Y292126D03*
G54D20*G36*
X421331Y295126D02*Y289126D01*
X427331D01*
Y295126D01*
X421331D01*
G37*
G54D21*X414331Y292126D03*
G54D20*G36*
X421331Y325047D02*Y319047D01*
X427331D01*
Y325047D01*
X421331D01*
G37*
G54D21*X414331Y322047D03*
G54D20*G36*
X421331Y354969D02*Y348969D01*
X427331D01*
Y354969D01*
X421331D01*
G37*
G54D21*X414331Y351969D03*
G54D20*G36*
X385346Y265205D02*Y259205D01*
X391346D01*
Y265205D01*
X385346D01*
G37*
G36*
Y295126D02*Y289126D01*
X391346D01*
Y295126D01*
X385346D01*
G37*
G36*
Y325047D02*Y319047D01*
X391346D01*
Y325047D01*
X385346D01*
G37*
G54D21*X378346Y262205D03*
Y292126D03*
Y322047D03*
Y351969D03*
Y381890D03*
Y411811D03*
G54D20*G36*
X385346Y354969D02*Y348969D01*
X391346D01*
Y354969D01*
X385346D01*
G37*
G36*
Y384890D02*Y378890D01*
X391346D01*
Y384890D01*
X385346D01*
G37*
G36*
Y414811D02*Y408811D01*
X391346D01*
Y414811D01*
X385346D01*
G37*
G36*
Y444732D02*Y438732D01*
X391346D01*
Y444732D01*
X385346D01*
G37*
G54D21*X378346Y441732D03*
G54D20*G36*
X457315Y384890D02*Y378890D01*
X463315D01*
Y384890D01*
X457315D01*
G37*
G36*
Y414811D02*Y408811D01*
X463315D01*
Y414811D01*
X457315D01*
G37*
G36*
Y444732D02*Y438732D01*
X463315D01*
Y444732D01*
X457315D01*
G37*
G54D21*X450315Y441732D03*
Y381890D03*
Y411811D03*
G54D20*G36*
X421331Y384890D02*Y378890D01*
X427331D01*
Y384890D01*
X421331D01*
G37*
G36*
Y414811D02*Y408811D01*
X427331D01*
Y414811D01*
X421331D01*
G37*
G54D21*X414331Y411811D03*
G54D20*G36*
X421331Y444732D02*Y438732D01*
X427331D01*
Y444732D01*
X421331D01*
G37*
G54D21*X414331Y441732D03*
Y381890D03*
M02*
