G04 start of page 10 for group 12 layer_idx 9 *
G04 Title: liplight-art, bottom_silk *
G04 Creator: pcb-rnd 2.0.0 *
G04 CreationDate: 2018-08-04 21:30:55 UTC *
G04 For:  *
G04 Format: Gerber/RS-274X *
G04 PCB-Dimensions: 506299 506299 *
G04 PCB-Coordinate-Origin: lower left *
%MOIN*%
%FSLAX25Y25*%
%LNBOTTOMSILK*%
%ADD41C,0.0070*%
%ADD40C,0.0080*%
G54D40*X454587Y189606D02*X455373D01*
X454587Y195116D02*X455373D01*
G54D41*X104527Y422052D02*X106527D01*
X107027Y422552D01*
Y423552D01*
X106527Y424052D02*X107027Y423552D01*
X105027Y424052D02*X106527D01*
X105027Y422052D02*Y426052D01*
X105827Y424052D02*X107027Y426052D01*
X108227Y422052D02*X110227D01*
X108227D02*Y424052D01*
X108727Y423552D01*
X109727D01*
X110227Y424052D01*
Y425552D01*
X109727Y426052D02*X110227Y425552D01*
X108727Y426052D02*X109727D01*
X108227Y425552D02*X108727Y426052D01*
X111427Y422552D02*X111927Y422052D01*
X113427D01*
X113927Y422552D01*
Y423552D01*
X111427Y426052D02*X113927Y423552D01*
X111427Y426052D02*X113927D01*
X140531Y421868D02*X142531D01*
X143031Y422368D01*
Y423368D01*
X142531Y423868D02*X143031Y423368D01*
X141031Y423868D02*X142531D01*
X141031Y421868D02*Y425868D01*
X141831Y423868D02*X143031Y425868D01*
X145731Y421868D02*X146231Y422368D01*
X144731Y421868D02*X145731D01*
X144231Y422368D02*X144731Y421868D01*
X144231Y422368D02*Y425368D01*
X144731Y425868D01*
X145731Y423668D02*X146231Y424168D01*
X144231Y423668D02*X145731D01*
X144731Y425868D02*X145731D01*
X146231Y425368D01*
Y424168D02*Y425368D01*
X147431Y424368D02*X149431Y421868D01*
X147431Y424368D02*X149931D01*
X149431Y421868D02*Y425868D01*
X104527Y392524D02*X106527D01*
X107027Y393024D01*
Y394024D01*
X106527Y394524D02*X107027Y394024D01*
X105027Y394524D02*X106527D01*
X105027Y392524D02*Y396524D01*
X105827Y394524D02*X107027Y396524D01*
X108227Y395024D02*X110227Y392524D01*
X108227Y395024D02*X110727D01*
X110227Y392524D02*Y396524D01*
X111927Y392524D02*X113927D01*
X111927D02*Y394524D01*
X112427Y394024D01*
X113427D01*
X113927Y394524D01*
Y396024D01*
X113427Y396524D02*X113927Y396024D01*
X112427Y396524D02*X113427D01*
X111927Y396024D02*X112427Y396524D01*
X104564Y361852D02*X106564D01*
X107064Y362352D01*
Y363352D01*
X106564Y363852D02*X107064Y363352D01*
X105064Y363852D02*X106564D01*
X105064Y361852D02*Y365852D01*
X105864Y363852D02*X107064Y365852D01*
X108265Y362352D02*X108765Y361852D01*
X109765D01*
X110265Y362352D01*
X109765Y365852D02*X110265Y365352D01*
X108765Y365852D02*X109765D01*
X108265Y365352D02*X108765Y365852D01*
Y363652D02*X109765D01*
X110265Y362352D02*Y363152D01*
Y364152D02*Y365352D01*
Y364152D02*X109765Y363652D01*
X110265Y363152D02*X109765Y363652D01*
X111465Y365352D02*X111965Y365852D01*
X111465Y364552D02*Y365352D01*
Y364552D02*X112165Y363852D01*
X112765D01*
X113465Y364552D01*
Y365352D01*
X112965Y365852D02*X113465Y365352D01*
X111965Y365852D02*X112965D01*
X111465Y363152D02*X112165Y363852D01*
X111465Y362352D02*Y363152D01*
Y362352D02*X111965Y361852D01*
X112965D01*
X113465Y362352D01*
Y363152D01*
X112765Y363852D02*X113465Y363152D01*
X176543Y422146D02*X178543D01*
X179043Y422646D01*
Y423646D01*
X178543Y424146D02*X179043Y423646D01*
X177043Y424146D02*X178543D01*
X177043Y422146D02*Y426146D01*
X177843Y424146D02*X179043Y426146D01*
X180743D02*X182743Y422146D01*
X180243D02*X182743D01*
X183943Y424646D02*X185943Y422146D01*
X183943Y424646D02*X186443D01*
X185943Y422146D02*Y426146D01*
X140704Y392619D02*X142704D01*
X143204Y393119D01*
Y394119D01*
X142704Y394619D02*X143204Y394119D01*
X141204Y394619D02*X142704D01*
X141204Y392619D02*Y396619D01*
X142004Y394619D02*X143204Y396619D01*
X145904Y392619D02*X146404Y393119D01*
X144904Y392619D02*X145904D01*
X144404Y393119D02*X144904Y392619D01*
X144404Y393119D02*Y396119D01*
X144904Y396619D01*
X145904Y394419D02*X146404Y394919D01*
X144404Y394419D02*X145904D01*
X144904Y396619D02*X145904D01*
X146404Y396119D01*
Y394919D02*Y396119D01*
X147604D02*X148104Y396619D01*
X147604Y393119D02*Y396119D01*
Y393119D02*X148104Y392619D01*
X149104D01*
X149604Y393119D01*
Y396119D01*
X149104Y396619D02*X149604Y396119D01*
X148104Y396619D02*X149104D01*
X147604Y395619D02*X149604Y393619D01*
X176276Y392647D02*X178276D01*
X178776Y393147D01*
Y394147D01*
X178276Y394647D02*X178776Y394147D01*
X176776Y394647D02*X178276D01*
X176776Y392647D02*Y396647D01*
X177576Y394647D02*X178776Y396647D01*
X180476D02*X182476Y392647D01*
X179976D02*X182476D01*
X183676Y393147D02*X184176Y392647D01*
X185676D01*
X186176Y393147D01*
Y394147D01*
X183676Y396647D02*X186176Y394147D01*
X183676Y396647D02*X186176D01*
X378334Y391867D02*X380334D01*
X380834Y392367D01*
Y393367D01*
X380334Y393867D02*X380834Y393367D01*
X378834Y393867D02*X380334D01*
X378834Y391867D02*Y395867D01*
X379634Y393867D02*X380834Y395867D01*
X382534D02*X384534Y391867D01*
X382034D02*X384534D01*
X385734Y392367D02*X386234Y391867D01*
X387234D01*
X387734Y392367D01*
X387234Y395867D02*X387734Y395367D01*
X386234Y395867D02*X387234D01*
X385734Y395367D02*X386234Y395867D01*
Y393667D02*X387234D01*
X387734Y392367D02*Y393167D01*
Y394167D02*Y395367D01*
Y394167D02*X387234Y393667D01*
X387734Y393167D02*X387234Y393667D01*
X449976Y391055D02*X451976D01*
X452476Y391555D01*
Y392555D01*
X451976Y393055D02*X452476Y392555D01*
X450476Y393055D02*X451976D01*
X450476Y391055D02*Y395055D01*
X451276Y393055D02*X452476Y395055D01*
X453676Y393555D02*X455676Y391055D01*
X453676Y393555D02*X456176D01*
X455676Y391055D02*Y395055D01*
X457876D02*X459876Y391055D01*
X457376D02*X459876D01*
X414650Y392149D02*X416650D01*
X417150Y392649D01*
Y393649D01*
X416650Y394149D02*X417150Y393649D01*
X415150Y394149D02*X416650D01*
X415150Y392149D02*Y396149D01*
X415950Y394149D02*X417150Y396149D01*
X419850Y392149D02*X420350Y392649D01*
X418850Y392149D02*X419850D01*
X418350Y392649D02*X418850Y392149D01*
X418350Y392649D02*Y395649D01*
X418850Y396149D01*
X419850Y393949D02*X420350Y394449D01*
X418350Y393949D02*X419850D01*
X418850Y396149D02*X419850D01*
X420350Y395649D01*
Y394449D02*Y395649D01*
X421550Y392649D02*X422050Y392149D01*
X423550D01*
X424050Y392649D01*
Y393649D01*
X421550Y396149D02*X424050Y393649D01*
X421550Y396149D02*X424050D01*
X378329Y422776D02*X380329D01*
X380829Y423276D01*
Y424276D01*
X380329Y424776D02*X380829Y424276D01*
X378829Y424776D02*X380329D01*
X378829Y422776D02*Y426776D01*
X379629Y424776D02*X380829Y426776D01*
X382529D02*X384529Y422776D01*
X382029D02*X384529D01*
X385729D02*X387729D01*
X385729D02*Y424776D01*
X386229Y424276D01*
X387229D01*
X387729Y424776D01*
Y426276D01*
X387229Y426776D02*X387729Y426276D01*
X386229Y426776D02*X387229D01*
X385729Y426276D02*X386229Y426776D01*
X414820Y422605D02*X416820D01*
X417320Y423105D01*
Y424105D01*
X416820Y424605D02*X417320Y424105D01*
X415320Y424605D02*X416820D01*
X415320Y422605D02*Y426605D01*
X416120Y424605D02*X417320Y426605D01*
X420020Y422605D02*X420520Y423105D01*
X419020Y422605D02*X420020D01*
X418520Y423105D02*X419020Y422605D01*
X418520Y423105D02*Y426105D01*
X419020Y426605D01*
X420020Y424405D02*X420520Y424905D01*
X418520Y424405D02*X420020D01*
X419020Y426605D02*X420020D01*
X420520Y426105D01*
Y424905D02*Y426105D01*
X423220Y422605D02*X423720Y423105D01*
X422220Y422605D02*X423220D01*
X421720Y423105D02*X422220Y422605D01*
X421720Y423105D02*Y426105D01*
X422220Y426605D01*
X423220Y424405D02*X423720Y424905D01*
X421720Y424405D02*X423220D01*
X422220Y426605D02*X423220D01*
X423720Y426105D01*
Y424905D02*Y426105D01*
X450576Y422555D02*X452576D01*
X453076Y423055D01*
Y424055D01*
X452576Y424555D02*X453076Y424055D01*
X451076Y424555D02*X452576D01*
X451076Y422555D02*Y426555D01*
X451876Y424555D02*X453076Y426555D01*
X454276Y422555D02*X456276D01*
X454276D02*Y424555D01*
X454776Y424055D01*
X455776D01*
X456276Y424555D01*
Y426055D01*
X455776Y426555D02*X456276Y426055D01*
X454776Y426555D02*X455776D01*
X454276Y426055D02*X454776Y426555D01*
X457476Y423055D02*X457976Y422555D01*
X458976D01*
X459476Y423055D01*
X458976Y426555D02*X459476Y426055D01*
X457976Y426555D02*X458976D01*
X457476Y426055D02*X457976Y426555D01*
Y424355D02*X458976D01*
X459476Y423055D02*Y423855D01*
Y424855D02*Y426055D01*
Y424855D02*X458976Y424355D01*
X459476Y423855D02*X458976Y424355D01*
X140621Y361984D02*X142621D01*
X143121Y362484D01*
Y363484D01*
X142621Y363984D02*X143121Y363484D01*
X141121Y363984D02*X142621D01*
X141121Y361984D02*Y365984D01*
X141921Y363984D02*X143121Y365984D01*
X144321Y361984D02*X146321D01*
X144321D02*Y363984D01*
X144821Y363484D01*
X145821D01*
X146321Y363984D01*
Y365484D01*
X145821Y365984D02*X146321Y365484D01*
X144821Y365984D02*X145821D01*
X144321Y365484D02*X144821Y365984D01*
X148021D02*X150021Y361984D01*
X147521D02*X150021D01*
X176548Y361857D02*X178548D01*
X179048Y362357D01*
Y363357D01*
X178548Y363857D02*X179048Y363357D01*
X177048Y363857D02*X178548D01*
X177048Y361857D02*Y365857D01*
X177848Y363857D02*X179048Y365857D01*
X180748D02*X182748Y361857D01*
X180248D02*X182748D01*
X183948Y365357D02*X184448Y365857D01*
X183948Y362357D02*Y365357D01*
Y362357D02*X184448Y361857D01*
X185448D01*
X185948Y362357D01*
Y365357D01*
X185448Y365857D02*X185948Y365357D01*
X184448Y365857D02*X185448D01*
X183948Y364857D02*X185948Y362857D01*
X378679Y362316D02*X380679D01*
X381179Y362816D01*
Y363816D01*
X380679Y364316D02*X381179Y363816D01*
X379179Y364316D02*X380679D01*
X379179Y362316D02*Y366316D01*
X379979Y364316D02*X381179Y366316D01*
X382879D02*X384879Y362316D01*
X382379D02*X384879D01*
X386079Y363116D02*X386879Y362316D01*
Y366316D01*
X386079D02*X387579D01*
X414649Y362335D02*X416649D01*
X417149Y362835D01*
Y363835D01*
X416649Y364335D02*X417149Y363835D01*
X415149Y364335D02*X416649D01*
X415149Y362335D02*Y366335D01*
X415949Y364335D02*X417149Y366335D01*
X418349Y362335D02*X420349D01*
X418349D02*Y364335D01*
X418849Y363835D01*
X419849D01*
X420349Y364335D01*
Y365835D01*
X419849Y366335D02*X420349Y365835D01*
X418849Y366335D02*X419849D01*
X418349Y365835D02*X418849Y366335D01*
X421549Y365835D02*X422049Y366335D01*
X421549Y365035D02*Y365835D01*
Y365035D02*X422249Y364335D01*
X422849D01*
X423549Y365035D01*
Y365835D01*
X423049Y366335D02*X423549Y365835D01*
X422049Y366335D02*X423049D01*
X421549Y363635D02*X422249Y364335D01*
X421549Y362835D02*Y363635D01*
Y362835D02*X422049Y362335D01*
X423049D01*
X423549Y362835D01*
Y363635D01*
X422849Y364335D02*X423549Y363635D01*
X450576Y362064D02*X452576D01*
X453076Y362564D01*
Y363564D01*
X452576Y364064D02*X453076Y363564D01*
X451076Y364064D02*X452576D01*
X451076Y362064D02*Y366064D01*
X451876Y364064D02*X453076Y366064D01*
X454276Y364564D02*X456276Y362064D01*
X454276Y364564D02*X456776D01*
X456276Y362064D02*Y366064D01*
X457976Y362864D02*X458776Y362064D01*
Y366064D01*
X457976D02*X459476D01*
X104639Y332227D02*X106639D01*
X107139Y332727D01*
Y333727D01*
X106639Y334227D02*X107139Y333727D01*
X105139Y334227D02*X106639D01*
X105139Y332227D02*Y336227D01*
X105939Y334227D02*X107139Y336227D01*
X108339Y332727D02*X108839Y332227D01*
X109839D01*
X110339Y332727D01*
X109839Y336227D02*X110339Y335727D01*
X108839Y336227D02*X109839D01*
X108339Y335727D02*X108839Y336227D01*
Y334027D02*X109839D01*
X110339Y332727D02*Y333527D01*
Y334527D02*Y335727D01*
Y334527D02*X109839Y334027D01*
X110339Y333527D02*X109839Y334027D01*
X111539Y332727D02*X112039Y332227D01*
X113539D01*
X114039Y332727D01*
Y333727D01*
X111539Y336227D02*X114039Y333727D01*
X111539Y336227D02*X114039D01*
X141220Y332485D02*X143220D01*
X143720Y332985D01*
Y333985D01*
X143220Y334485D02*X143720Y333985D01*
X141720Y334485D02*X143220D01*
X141720Y332485D02*Y336485D01*
X142520Y334485D02*X143720Y336485D01*
X144920Y332485D02*X146920D01*
X144920D02*Y334485D01*
X145420Y333985D01*
X146420D01*
X146920Y334485D01*
Y335985D01*
X146420Y336485D02*X146920Y335985D01*
X145420Y336485D02*X146420D01*
X144920Y335985D02*X145420Y336485D01*
X148120Y333285D02*X148920Y332485D01*
Y336485D01*
X148120D02*X149620D01*
X104133Y302957D02*X106133D01*
X106633Y303457D01*
Y304457D01*
X106133Y304957D02*X106633Y304457D01*
X104633Y304957D02*X106133D01*
X104633Y302957D02*Y306957D01*
X105433Y304957D02*X106633Y306957D01*
X107833Y303457D02*X108333Y302957D01*
X109833D01*
X110333Y303457D01*
Y304457D01*
X107833Y306957D02*X110333Y304457D01*
X107833Y306957D02*X110333D01*
X113033Y302957D02*X113533Y303457D01*
X112033Y302957D02*X113033D01*
X111533Y303457D02*X112033Y302957D01*
X111533Y303457D02*Y306457D01*
X112033Y306957D01*
X113033Y304757D02*X113533Y305257D01*
X111533Y304757D02*X113033D01*
X112033Y306957D02*X113033D01*
X113533Y306457D01*
Y305257D02*Y306457D01*
X140630Y302957D02*X142630D01*
X143130Y303457D01*
Y304457D01*
X142630Y304957D02*X143130Y304457D01*
X141130Y304957D02*X142630D01*
X141130Y302957D02*Y306957D01*
X141930Y304957D02*X143130Y306957D01*
X144330Y305457D02*X146330Y302957D01*
X144330Y305457D02*X146830D01*
X146330Y302957D02*Y306957D01*
X148030Y305457D02*X150030Y302957D01*
X148030Y305457D02*X150530D01*
X150030Y302957D02*Y306957D01*
X104139Y272306D02*X106139D01*
X106639Y272806D01*
Y273806D01*
X106139Y274306D02*X106639Y273806D01*
X104639Y274306D02*X106139D01*
X104639Y272306D02*Y276306D01*
X105439Y274306D02*X106639Y276306D01*
X107839Y272806D02*X108339Y272306D01*
X109839D01*
X110339Y272806D01*
Y273806D01*
X107839Y276306D02*X110339Y273806D01*
X107839Y276306D02*X110339D01*
X111539Y272806D02*X112039Y272306D01*
X113539D01*
X114039Y272806D01*
Y273806D01*
X111539Y276306D02*X114039Y273806D01*
X111539Y276306D02*X114039D01*
X141061Y272568D02*X143061D01*
X143561Y273068D01*
Y274068D01*
X143061Y274568D02*X143561Y274068D01*
X141561Y274568D02*X143061D01*
X141561Y272568D02*Y276568D01*
X142361Y274568D02*X143561Y276568D01*
X144761Y273068D02*X145261Y272568D01*
X146261D01*
X146761Y273068D01*
X146261Y276568D02*X146761Y276068D01*
X145261Y276568D02*X146261D01*
X144761Y276068D02*X145261Y276568D01*
Y274368D02*X146261D01*
X146761Y273068D02*Y273868D01*
Y274868D02*Y276068D01*
Y274868D02*X146261Y274368D01*
X146761Y273868D02*X146261Y274368D01*
X148461Y276568D02*X149961Y274568D01*
Y273068D02*Y274568D01*
X149461Y272568D02*X149961Y273068D01*
X148461Y272568D02*X149461D01*
X147961Y273068D02*X148461Y272568D01*
X147961Y273068D02*Y274068D01*
X148461Y274568D01*
X149961D01*
X140465Y243051D02*X142465D01*
X142965Y243551D01*
Y244551D01*
X142465Y245051D02*X142965Y244551D01*
X140965Y245051D02*X142465D01*
X140965Y243051D02*Y247051D01*
X141765Y245051D02*X142965Y247051D01*
X144165Y243551D02*X144665Y243051D01*
X145665D01*
X146165Y243551D01*
X145665Y247051D02*X146165Y246551D01*
X144665Y247051D02*X145665D01*
X144165Y246551D02*X144665Y247051D01*
Y244851D02*X145665D01*
X146165Y243551D02*Y244351D01*
Y245351D02*Y246551D01*
Y245351D02*X145665Y244851D01*
X146165Y244351D02*X145665Y244851D01*
X147365Y245551D02*X149365Y243051D01*
X147365Y245551D02*X149865D01*
X149365Y243051D02*Y247051D01*
X104370Y243312D02*X106370D01*
X106870Y243812D01*
Y244812D01*
X106370Y245312D02*X106870Y244812D01*
X104870Y245312D02*X106370D01*
X104870Y243312D02*Y247312D01*
X105670Y245312D02*X106870Y247312D01*
X108070Y244112D02*X108870Y243312D01*
Y247312D01*
X108070D02*X109570D01*
X110770Y246812D02*X111270Y247312D01*
X110770Y246012D02*Y246812D01*
Y246012D02*X111470Y245312D01*
X112070D01*
X112770Y246012D01*
Y246812D01*
X112270Y247312D02*X112770Y246812D01*
X111270Y247312D02*X112270D01*
X110770Y244612D02*X111470Y245312D01*
X110770Y243812D02*Y244612D01*
Y243812D02*X111270Y243312D01*
X112270D01*
X112770Y243812D01*
Y244612D01*
X112070Y245312D02*X112770Y244612D01*
X140392Y212955D02*X142392D01*
X142892Y213455D01*
Y214455D01*
X142392Y214955D02*X142892Y214455D01*
X140892Y214955D02*X142392D01*
X140892Y212955D02*Y216955D01*
X141692Y214955D02*X142892Y216955D01*
X144092Y213455D02*X144592Y212955D01*
X146092D01*
X146592Y213455D01*
Y214455D01*
X144092Y216955D02*X146592Y214455D01*
X144092Y216955D02*X146592D01*
X147792Y216455D02*X148292Y216955D01*
X147792Y215655D02*Y216455D01*
Y215655D02*X148492Y214955D01*
X149092D01*
X149792Y215655D01*
Y216455D01*
X149292Y216955D02*X149792Y216455D01*
X148292Y216955D02*X149292D01*
X147792Y214255D02*X148492Y214955D01*
X147792Y213455D02*Y214255D01*
Y213455D02*X148292Y212955D01*
X149292D01*
X149792Y213455D01*
Y214255D01*
X149092Y214955D02*X149792Y214255D01*
X104590Y212781D02*X106590D01*
X107090Y213281D01*
Y214281D01*
X106590Y214781D02*X107090Y214281D01*
X105090Y214781D02*X106590D01*
X105090Y212781D02*Y216781D01*
X105890Y214781D02*X107090Y216781D01*
X108290Y213581D02*X109090Y212781D01*
Y216781D01*
X108290D02*X109790D01*
X110990Y215281D02*X112990Y212781D01*
X110990Y215281D02*X113490D01*
X112990Y212781D02*Y216781D01*
X105150Y183208D02*X107150D01*
X107650Y183708D01*
Y184708D01*
X107150Y185208D02*X107650Y184708D01*
X105650Y185208D02*X107150D01*
X105650Y183208D02*Y187208D01*
X106450Y185208D02*X107650Y187208D01*
X108850Y184008D02*X109650Y183208D01*
Y187208D01*
X108850D02*X110350D01*
X111550Y184008D02*X112350Y183208D01*
Y187208D01*
X111550D02*X113050D01*
X114111Y60386D02*X116111D01*
X116611Y60886D01*
Y61886D01*
X116111Y62386D02*X116611Y61886D01*
X114611Y62386D02*X116111D01*
X114611Y60386D02*Y64386D01*
X115411Y62386D02*X116611Y64386D01*
X119311Y60386D02*X119811Y60886D01*
X118311Y60386D02*X119311D01*
X117811Y60886D02*X118311Y60386D01*
X117811Y60886D02*Y63886D01*
X118311Y64386D01*
X119311Y62186D02*X119811Y62686D01*
X117811Y62186D02*X119311D01*
X118311Y64386D02*X119311D01*
X119811Y63886D01*
Y62686D02*Y63886D01*
X84448Y60331D02*X86448D01*
X86948Y60831D01*
Y61831D01*
X86448Y62331D02*X86948Y61831D01*
X84948Y62331D02*X86448D01*
X84948Y60331D02*Y64331D01*
X85748Y62331D02*X86948Y64331D01*
X88648D02*X90648Y60331D01*
X88148D02*X90648D01*
X140253Y183522D02*X142253D01*
X142753Y184022D01*
Y185022D01*
X142253Y185522D02*X142753Y185022D01*
X140753Y185522D02*X142253D01*
X140753Y183522D02*Y187522D01*
X141553Y185522D02*X142753Y187522D01*
X143953Y184022D02*X144453Y183522D01*
X145953D01*
X146453Y184022D01*
Y185022D01*
X143953Y187522D02*X146453Y185022D01*
X143953Y187522D02*X146453D01*
X147653Y184022D02*X148153Y183522D01*
X149153D01*
X149653Y184022D01*
X149153Y187522D02*X149653Y187022D01*
X148153Y187522D02*X149153D01*
X147653Y187022D02*X148153Y187522D01*
Y185322D02*X149153D01*
X149653Y184022D02*Y184822D01*
Y185822D02*Y187022D01*
Y185822D02*X149153Y185322D01*
X149653Y184822D02*X149153Y185322D01*
X140572Y154166D02*X142572D01*
X143072Y154666D01*
Y155666D01*
X142572Y156166D02*X143072Y155666D01*
X141072Y156166D02*X142572D01*
X141072Y154166D02*Y158166D01*
X141872Y156166D02*X143072Y158166D01*
X144272Y154966D02*X145072Y154166D01*
Y158166D01*
X144272D02*X145772D01*
X147472D02*X148972Y156166D01*
Y154666D02*Y156166D01*
X148472Y154166D02*X148972Y154666D01*
X147472Y154166D02*X148472D01*
X146972Y154666D02*X147472Y154166D01*
X146972Y154666D02*Y155666D01*
X147472Y156166D01*
X148972D01*
X140536Y123686D02*X142536D01*
X143036Y124186D01*
Y125186D01*
X142536Y125686D02*X143036Y125186D01*
X141036Y125686D02*X142536D01*
X141036Y123686D02*Y127686D01*
X141836Y125686D02*X143036Y127686D01*
X144236Y124486D02*X145036Y123686D01*
Y127686D01*
X144236D02*X145736D01*
X146936Y123686D02*X148936D01*
X146936D02*Y125686D01*
X147436Y125186D01*
X148436D01*
X148936Y125686D01*
Y127186D01*
X148436Y127686D02*X148936Y127186D01*
X147436Y127686D02*X148436D01*
X146936Y127186D02*X147436Y127686D01*
X140137Y93551D02*X142137D01*
X142637Y94051D01*
Y95051D01*
X142137Y95551D02*X142637Y95051D01*
X140637Y95551D02*X142137D01*
X140637Y93551D02*Y97551D01*
X141437Y95551D02*X142637Y97551D01*
X143837Y94351D02*X144637Y93551D01*
Y97551D01*
X143837D02*X145337D01*
X146537Y94051D02*X147037Y93551D01*
X148537D01*
X149037Y94051D01*
Y95051D01*
X146537Y97551D02*X149037Y95051D01*
X146537Y97551D02*X149037D01*
X144476Y60562D02*X146476D01*
X146976Y61062D01*
Y62062D01*
X146476Y62562D02*X146976Y62062D01*
X144976Y62562D02*X146476D01*
X144976Y60562D02*Y64562D01*
X145776Y62562D02*X146976Y64562D01*
X148176Y60562D02*X150176D01*
X148176D02*Y62562D01*
X148676Y62062D01*
X149676D01*
X150176Y62562D01*
Y64062D01*
X149676Y64562D02*X150176Y64062D01*
X148676Y64562D02*X149676D01*
X148176Y64062D02*X148676Y64562D01*
X176452Y332079D02*X178452D01*
X178952Y332579D01*
Y333579D01*
X178452Y334079D02*X178952Y333579D01*
X176952Y334079D02*X178452D01*
X176952Y332079D02*Y336079D01*
X177752Y334079D02*X178952Y336079D01*
X181652Y332079D02*X182152Y332579D01*
X180652Y332079D02*X181652D01*
X180152Y332579D02*X180652Y332079D01*
X180152Y332579D02*Y335579D01*
X180652Y336079D01*
X181652Y333879D02*X182152Y334379D01*
X180152Y333879D02*X181652D01*
X180652Y336079D02*X181652D01*
X182152Y335579D01*
Y334379D02*Y335579D01*
X183352D02*X183852Y336079D01*
X183352Y334779D02*Y335579D01*
Y334779D02*X184052Y334079D01*
X184652D01*
X185352Y334779D01*
Y335579D01*
X184852Y336079D02*X185352Y335579D01*
X183852Y336079D02*X184852D01*
X183352Y333379D02*X184052Y334079D01*
X183352Y332579D02*Y333379D01*
Y332579D02*X183852Y332079D01*
X184852D01*
X185352Y332579D01*
Y333379D01*
X184652Y334079D02*X185352Y333379D01*
X176632Y302678D02*X178632D01*
X179132Y303178D01*
Y304178D01*
X178632Y304678D02*X179132Y304178D01*
X177132Y304678D02*X178632D01*
X177132Y302678D02*Y306678D01*
X177932Y304678D02*X179132Y306678D01*
X181832Y302678D02*X182332Y303178D01*
X180832Y302678D02*X181832D01*
X180332Y303178D02*X180832Y302678D01*
X180332Y303178D02*Y306178D01*
X180832Y306678D01*
X181832Y304478D02*X182332Y304978D01*
X180332Y304478D02*X181832D01*
X180832Y306678D02*X181832D01*
X182332Y306178D01*
Y304978D02*Y306178D01*
X183532Y302678D02*X185532D01*
X183532D02*Y304678D01*
X184032Y304178D01*
X185032D01*
X185532Y304678D01*
Y306178D01*
X185032Y306678D02*X185532Y306178D01*
X184032Y306678D02*X185032D01*
X183532Y306178D02*X184032Y306678D01*
X176687Y272679D02*X178687D01*
X179187Y273179D01*
Y274179D01*
X178687Y274679D02*X179187Y274179D01*
X177187Y274679D02*X178687D01*
X177187Y272679D02*Y276679D01*
X177987Y274679D02*X179187Y276679D01*
X181887Y272679D02*X182387Y273179D01*
X180887Y272679D02*X181887D01*
X180387Y273179D02*X180887Y272679D01*
X180387Y273179D02*Y276179D01*
X180887Y276679D01*
X181887Y274479D02*X182387Y274979D01*
X180387Y274479D02*X181887D01*
X180887Y276679D02*X181887D01*
X182387Y276179D01*
Y274979D02*Y276179D01*
X183587Y273479D02*X184387Y272679D01*
Y276679D01*
X183587D02*X185087D01*
X176360Y243172D02*X178360D01*
X178860Y243672D01*
Y244672D01*
X178360Y245172D02*X178860Y244672D01*
X176860Y245172D02*X178360D01*
X176860Y243172D02*Y247172D01*
X177660Y245172D02*X178860Y247172D01*
X180060Y243172D02*X182060D01*
X180060D02*Y245172D01*
X180560Y244672D01*
X181560D01*
X182060Y245172D01*
Y246672D01*
X181560Y247172D02*X182060Y246672D01*
X180560Y247172D02*X181560D01*
X180060Y246672D02*X180560Y247172D01*
X184760Y243172D02*X185260Y243672D01*
X183760Y243172D02*X184760D01*
X183260Y243672D02*X183760Y243172D01*
X183260Y243672D02*Y246672D01*
X183760Y247172D01*
X184760Y244972D02*X185260Y245472D01*
X183260Y244972D02*X184760D01*
X183760Y247172D02*X184760D01*
X185260Y246672D01*
Y245472D02*Y246672D01*
X176781Y212957D02*X178781D01*
X179281Y213457D01*
Y214457D01*
X178781Y214957D02*X179281Y214457D01*
X177281Y214957D02*X178781D01*
X177281Y212957D02*Y216957D01*
X178081Y214957D02*X179281Y216957D01*
X180482Y212957D02*X182482D01*
X180482D02*Y214957D01*
X180982Y214457D01*
X181982D01*
X182482Y214957D01*
Y216457D01*
X181982Y216957D02*X182482Y216457D01*
X180982Y216957D02*X181982D01*
X180482Y216457D02*X180982Y216957D01*
X183682Y216457D02*X184182Y216957D01*
X183682Y213457D02*Y216457D01*
Y213457D02*X184182Y212957D01*
X185182D01*
X185682Y213457D01*
Y216457D01*
X185182Y216957D02*X185682Y216457D01*
X184182Y216957D02*X185182D01*
X183682Y215957D02*X185682Y213957D01*
X177173Y184890D02*X179173D01*
X179673Y185390D01*
Y186390D01*
X179173Y186890D02*X179673Y186390D01*
X177673Y186890D02*X179173D01*
X177673Y184890D02*Y188890D01*
X178473Y186890D02*X179673Y188890D01*
X180873Y187390D02*X182873Y184890D01*
X180873Y187390D02*X183373D01*
X182873Y184890D02*Y188890D01*
X186073Y184890D02*X186573Y185390D01*
X185073Y184890D02*X186073D01*
X184573Y185390D02*X185073Y184890D01*
X184573Y185390D02*Y188390D01*
X185073Y188890D01*
X186073Y186690D02*X186573Y187190D01*
X184573Y186690D02*X186073D01*
X185073Y188890D02*X186073D01*
X186573Y188390D01*
Y187190D02*Y188390D01*
X176145Y154143D02*X178145D01*
X178645Y154643D01*
Y155643D01*
X178145Y156143D02*X178645Y155643D01*
X176645Y156143D02*X178145D01*
X176645Y154143D02*Y158143D01*
X177445Y156143D02*X178645Y158143D01*
X179845Y156643D02*X181845Y154143D01*
X179845Y156643D02*X182345D01*
X181845Y154143D02*Y158143D01*
X183545Y157643D02*X184045Y158143D01*
X183545Y154643D02*Y157643D01*
Y154643D02*X184045Y154143D01*
X185045D01*
X185545Y154643D01*
Y157643D01*
X185045Y158143D02*X185545Y157643D01*
X184045Y158143D02*X185045D01*
X183545Y157143D02*X185545Y155143D01*
X176707Y123702D02*X178707D01*
X179207Y124202D01*
Y125202D01*
X178707Y125702D02*X179207Y125202D01*
X177207Y125702D02*X178707D01*
X177207Y123702D02*Y127702D01*
X178007Y125702D02*X179207Y127702D01*
X180407Y124202D02*X180907Y123702D01*
X181907D01*
X182407Y124202D01*
X181907Y127702D02*X182407Y127202D01*
X180907Y127702D02*X181907D01*
X180407Y127202D02*X180907Y127702D01*
Y125502D02*X181907D01*
X182407Y124202D02*Y125002D01*
Y126002D02*Y127202D01*
Y126002D02*X181907Y125502D01*
X182407Y125002D02*X181907Y125502D01*
X183607Y124202D02*X184107Y123702D01*
X185107D01*
X185607Y124202D01*
X185107Y127702D02*X185607Y127202D01*
X184107Y127702D02*X185107D01*
X183607Y127202D02*X184107Y127702D01*
Y125502D02*X185107D01*
X185607Y124202D02*Y125002D01*
Y126002D02*Y127202D01*
Y126002D02*X185107Y125502D01*
X185607Y125002D02*X185107Y125502D01*
X378743Y123026D02*X380743D01*
X381243Y123526D01*
Y124526D01*
X380743Y125026D02*X381243Y124526D01*
X379243Y125026D02*X380743D01*
X379243Y123026D02*Y127026D01*
X380043Y125026D02*X381243Y127026D01*
X382443Y123526D02*X382943Y123026D01*
X383943D01*
X384443Y123526D01*
X383943Y127026D02*X384443Y126526D01*
X382943Y127026D02*X383943D01*
X382443Y126526D02*X382943Y127026D01*
Y124826D02*X383943D01*
X384443Y123526D02*Y124326D01*
Y125326D02*Y126526D01*
Y125326D02*X383943Y124826D01*
X384443Y124326D02*X383943Y124826D01*
X387143Y123026D02*X387643Y123526D01*
X386143Y123026D02*X387143D01*
X385643Y123526D02*X386143Y123026D01*
X385643Y123526D02*Y126526D01*
X386143Y127026D01*
X387143Y124826D02*X387643Y125326D01*
X385643Y124826D02*X387143D01*
X386143Y127026D02*X387143D01*
X387643Y126526D01*
Y125326D02*Y126526D01*
X414666Y122855D02*X416666D01*
X417166Y123355D01*
Y124355D01*
X416666Y124855D02*X417166Y124355D01*
X415166Y124855D02*X416666D01*
X415166Y122855D02*Y126855D01*
X415966Y124855D02*X417166Y126855D01*
X418366Y123655D02*X419166Y122855D01*
Y126855D01*
X418366D02*X419866D01*
X422566Y122855D02*X423066Y123355D01*
X421566Y122855D02*X422566D01*
X421066Y123355D02*X421566Y122855D01*
X421066Y123355D02*Y126355D01*
X421566Y126855D01*
X422566Y124655D02*X423066Y125155D01*
X421066Y124655D02*X422566D01*
X421566Y126855D02*X422566D01*
X423066Y126355D01*
Y125155D02*Y126355D01*
X378474Y152520D02*X380474D01*
X380974Y153020D01*
Y154020D01*
X380474Y154520D02*X380974Y154020D01*
X378974Y154520D02*X380474D01*
X378974Y152520D02*Y156520D01*
X379774Y154520D02*X380974Y156520D01*
X382174Y155020D02*X384174Y152520D01*
X382174Y155020D02*X384674D01*
X384174Y152520D02*Y156520D01*
X385874Y153020D02*X386374Y152520D01*
X387374D01*
X387874Y153020D01*
X387374Y156520D02*X387874Y156020D01*
X386374Y156520D02*X387374D01*
X385874Y156020D02*X386374Y156520D01*
Y154320D02*X387374D01*
X387874Y153020D02*Y153820D01*
Y154820D02*Y156020D01*
Y154820D02*X387374Y154320D01*
X387874Y153820D02*X387374Y154320D01*
X414181Y152155D02*X416181D01*
X416681Y152655D01*
Y153655D01*
X416181Y154155D02*X416681Y153655D01*
X414681Y154155D02*X416181D01*
X414681Y152155D02*Y156155D01*
X415481Y154155D02*X416681Y156155D01*
X417881Y152655D02*X418381Y152155D01*
X419881D01*
X420381Y152655D01*
Y153655D01*
X417881Y156155D02*X420381Y153655D01*
X417881Y156155D02*X420381D01*
X421582Y152955D02*X422382Y152155D01*
Y156155D01*
X421582D02*X423082D01*
X378076Y182855D02*X380076D01*
X380576Y183355D01*
Y184355D01*
X380076Y184855D02*X380576Y184355D01*
X378576Y184855D02*X380076D01*
X378576Y182855D02*Y186855D01*
X379376Y184855D02*X380576Y186855D01*
X381776Y185355D02*X383776Y182855D01*
X381776Y185355D02*X384276D01*
X383776Y182855D02*Y186855D01*
X385976D02*X387476Y184855D01*
Y183355D02*Y184855D01*
X386976Y182855D02*X387476Y183355D01*
X385976Y182855D02*X386976D01*
X385476Y183355D02*X385976Y182855D01*
X385476Y183355D02*Y184355D01*
X385976Y184855D01*
X387476D01*
X414358Y182776D02*X416358D01*
X416858Y183276D01*
Y184276D01*
X416358Y184776D02*X416858Y184276D01*
X414858Y184776D02*X416358D01*
X414858Y182776D02*Y186776D01*
X415658Y184776D02*X416858Y186776D01*
X418058Y183276D02*X418558Y182776D01*
X420058D01*
X420558Y183276D01*
Y184276D01*
X418058Y186776D02*X420558Y184276D01*
X418058Y186776D02*X420558D01*
X421758Y185276D02*X423758Y182776D01*
X421758Y185276D02*X424258D01*
X423758Y182776D02*Y186776D01*
X450526Y243576D02*X452526D01*
X453026Y244076D01*
Y245076D01*
X452526Y245576D02*X453026Y245076D01*
X451026Y245576D02*X452526D01*
X451026Y243576D02*Y247576D01*
X451826Y245576D02*X453026Y247576D01*
X454226Y244076D02*X454726Y243576D01*
X456226D01*
X456726Y244076D01*
Y245076D01*
X454226Y247576D02*X456726Y245076D01*
X454226Y247576D02*X456726D01*
X457926Y247076D02*X458426Y247576D01*
X457926Y244076D02*Y247076D01*
Y244076D02*X458426Y243576D01*
X459426D01*
X459926Y244076D01*
Y247076D01*
X459426Y247576D02*X459926Y247076D01*
X458426Y247576D02*X459426D01*
X457926Y246576D02*X459926Y244576D01*
X450352Y272992D02*X452352D01*
X452852Y273492D01*
Y274492D01*
X452352Y274992D02*X452852Y274492D01*
X450852Y274992D02*X452352D01*
X450852Y272992D02*Y276992D01*
X451652Y274992D02*X452852Y276992D01*
X454052Y273492D02*X454552Y272992D01*
X456052D01*
X456552Y273492D01*
Y274492D01*
X454052Y276992D02*X456552Y274492D01*
X454052Y276992D02*X456552D01*
X457752Y272992D02*X459752D01*
X457752D02*Y274992D01*
X458252Y274492D01*
X459252D01*
X459752Y274992D01*
Y276492D01*
X459252Y276992D02*X459752Y276492D01*
X458252Y276992D02*X459252D01*
X457752Y276492D02*X458252Y276992D01*
X450623Y332755D02*X452623D01*
X453123Y333255D01*
Y334255D01*
X452623Y334755D02*X453123Y334255D01*
X451123Y334755D02*X452623D01*
X451123Y332755D02*Y336755D01*
X451923Y334755D02*X453123Y336755D01*
X454323Y333255D02*X454823Y332755D01*
X455823D01*
X456323Y333255D01*
X455823Y336755D02*X456323Y336255D01*
X454823Y336755D02*X455823D01*
X454323Y336255D02*X454823Y336755D01*
Y334555D02*X455823D01*
X456323Y333255D02*Y334055D01*
Y335055D02*Y336255D01*
Y335055D02*X455823Y334555D01*
X456323Y334055D02*X455823Y334555D01*
X458023Y336755D02*X460023Y332755D01*
X457523D02*X460023D01*
X451124Y212792D02*X453124D01*
X453624Y213292D01*
Y214292D01*
X453124Y214792D02*X453624Y214292D01*
X451624Y214792D02*X453124D01*
X451624Y212792D02*Y216792D01*
X452424Y214792D02*X453624Y216792D01*
X454824Y213592D02*X455624Y212792D01*
Y216792D01*
X454824D02*X456324D01*
X458024D02*X460024Y212792D01*
X457524D02*X460024D01*
X450778Y153306D02*X452778D01*
X453278Y153806D01*
Y154806D01*
X452778Y155306D02*X453278Y154806D01*
X451278Y155306D02*X452778D01*
X451278Y153306D02*Y157306D01*
X452078Y155306D02*X453278Y157306D01*
X454478Y154106D02*X455278Y153306D01*
Y157306D01*
X454478D02*X455978D01*
X457178Y156806D02*X457678Y157306D01*
X457178Y153806D02*Y156806D01*
Y153806D02*X457678Y153306D01*
X458678D01*
X459178Y153806D01*
Y156806D01*
X458678Y157306D02*X459178Y156806D01*
X457678Y157306D02*X458678D01*
X457178Y156306D02*X459178Y154306D01*
X452007Y122870D02*X454007D01*
X454507Y123370D01*
Y124370D01*
X454007Y124870D02*X454507Y124370D01*
X452507Y124870D02*X454007D01*
X452507Y122870D02*Y126870D01*
X453307Y124870D02*X454507Y126870D01*
X456207D02*X457707Y124870D01*
Y123370D02*Y124870D01*
X457207Y122870D02*X457707Y123370D01*
X456207Y122870D02*X457207D01*
X455707Y123370D02*X456207Y122870D01*
X455707Y123370D02*Y124370D01*
X456207Y124870D01*
X457707D01*
X450330Y183211D02*X452330D01*
X452830Y183711D01*
Y184711D01*
X452330Y185211D02*X452830Y184711D01*
X450830Y185211D02*X452330D01*
X450830Y183211D02*Y187211D01*
X451630Y185211D02*X452830Y187211D01*
X454530D02*X456530Y183211D01*
X454030D02*X456530D01*
X459230D02*X459730Y183711D01*
X458230Y183211D02*X459230D01*
X457730Y183711D02*X458230Y183211D01*
X457730Y183711D02*Y186711D01*
X458230Y187211D01*
X459230Y185011D02*X459730Y185511D01*
X457730Y185011D02*X459230D01*
X458230Y187211D02*X459230D01*
X459730Y186711D01*
Y185511D02*Y186711D01*
X450167Y302302D02*X452167D01*
X452667Y302802D01*
Y303802D01*
X452167Y304302D02*X452667Y303802D01*
X450667Y304302D02*X452167D01*
X450667Y302302D02*Y306302D01*
X451467Y304302D02*X452667Y306302D01*
X453867Y302802D02*X454367Y302302D01*
X455367D01*
X455867Y302802D01*
X455367Y306302D02*X455867Y305802D01*
X454367Y306302D02*X455367D01*
X453867Y305802D02*X454367Y306302D01*
Y304102D02*X455367D01*
X455867Y302802D02*Y303602D01*
Y304602D02*Y305802D01*
Y304602D02*X455367Y304102D01*
X455867Y303602D02*X455367Y304102D01*
X457067Y305802D02*X457567Y306302D01*
X457067Y302802D02*Y305802D01*
Y302802D02*X457567Y302302D01*
X458567D01*
X459067Y302802D01*
Y305802D01*
X458567Y306302D02*X459067Y305802D01*
X457567Y306302D02*X458567D01*
X457067Y305302D02*X459067Y303302D01*
X415029Y213054D02*X417029D01*
X417529Y213554D01*
Y214554D01*
X417029Y215054D02*X417529Y214554D01*
X415529Y215054D02*X417029D01*
X415529Y213054D02*Y217054D01*
X416329Y215054D02*X417529Y217054D01*
X418729Y213554D02*X419229Y213054D01*
X420229D01*
X420729Y213554D01*
X420229Y217054D02*X420729Y216554D01*
X419229Y217054D02*X420229D01*
X418729Y216554D02*X419229Y217054D01*
Y214854D02*X420229D01*
X420729Y213554D02*Y214354D01*
Y215354D02*Y216554D01*
Y215354D02*X420229Y214854D01*
X420729Y214354D02*X420229Y214854D01*
X421929Y213854D02*X422729Y213054D01*
Y217054D01*
X421929D02*X423429D01*
X414114Y272725D02*X416114D01*
X416614Y273225D01*
Y274225D01*
X416114Y274725D02*X416614Y274225D01*
X414614Y274725D02*X416114D01*
X414614Y272725D02*Y276725D01*
X415414Y274725D02*X416614Y276725D01*
X417814Y275225D02*X419814Y272725D01*
X417814Y275225D02*X420314D01*
X419814Y272725D02*Y276725D01*
X421514Y273225D02*X422014Y272725D01*
X423514D01*
X424014Y273225D01*
Y274225D01*
X421514Y276725D02*X424014Y274225D01*
X421514Y276725D02*X424014D01*
X414181Y302455D02*X416181D01*
X416681Y302955D01*
Y303955D01*
X416181Y304455D02*X416681Y303955D01*
X414681Y304455D02*X416181D01*
X414681Y302455D02*Y306455D01*
X415481Y304455D02*X416681Y306455D01*
X417881Y304955D02*X419881Y302455D01*
X417881Y304955D02*X420381D01*
X419881Y302455D02*Y306455D01*
X421582Y305955D02*X422082Y306455D01*
X421582Y305155D02*Y305955D01*
Y305155D02*X422282Y304455D01*
X422882D01*
X423582Y305155D01*
Y305955D01*
X423082Y306455D02*X423582Y305955D01*
X422082Y306455D02*X423082D01*
X421582Y303755D02*X422282Y304455D01*
X421582Y302955D02*Y303755D01*
Y302955D02*X422082Y302455D01*
X423082D01*
X423582Y302955D01*
Y303755D01*
X422882Y304455D02*X423582Y303755D01*
X414681Y332855D02*X416681D01*
X417181Y333355D01*
Y334355D01*
X416681Y334855D02*X417181Y334355D01*
X415181Y334855D02*X416681D01*
X415181Y332855D02*Y336855D01*
X415981Y334855D02*X417181Y336855D01*
X418381Y332855D02*X420381D01*
X418381D02*Y334855D01*
X418881Y334355D01*
X419881D01*
X420381Y334855D01*
Y336355D01*
X419881Y336855D02*X420381Y336355D01*
X418881Y336855D02*X419881D01*
X418381Y336355D02*X418881Y336855D01*
X421582Y335355D02*X423582Y332855D01*
X421582Y335355D02*X424082D01*
X423582Y332855D02*Y336855D01*
X378676Y212855D02*X380676D01*
X381176Y213355D01*
Y214355D01*
X380676Y214855D02*X381176Y214355D01*
X379176Y214855D02*X380676D01*
X379176Y212855D02*Y216855D01*
X379976Y214855D02*X381176Y216855D01*
X382376Y212855D02*X384376D01*
X382376D02*Y214855D01*
X382876Y214355D01*
X383876D01*
X384376Y214855D01*
Y216355D01*
X383876Y216855D02*X384376Y216355D01*
X382876Y216855D02*X383876D01*
X382376Y216355D02*X382876Y216855D01*
X385576Y212855D02*X387576D01*
X385576D02*Y214855D01*
X386076Y214355D01*
X387076D01*
X387576Y214855D01*
Y216355D01*
X387076Y216855D02*X387576Y216355D01*
X386076Y216855D02*X387076D01*
X385576Y216355D02*X386076Y216855D01*
X378650Y272949D02*X380650D01*
X381150Y273449D01*
Y274449D01*
X380650Y274949D02*X381150Y274449D01*
X379150Y274949D02*X380650D01*
X379150Y272949D02*Y276949D01*
X379950Y274949D02*X381150Y276949D01*
X383850Y272949D02*X384350Y273449D01*
X382850Y272949D02*X383850D01*
X382350Y273449D02*X382850Y272949D01*
X382350Y273449D02*Y276449D01*
X382850Y276949D01*
X383850Y274749D02*X384350Y275249D01*
X382350Y274749D02*X383850D01*
X382850Y276949D02*X383850D01*
X384350Y276449D01*
Y275249D02*Y276449D01*
X385550Y273449D02*X386050Y272949D01*
X387050D01*
X387550Y273449D01*
X387050Y276949D02*X387550Y276449D01*
X386050Y276949D02*X387050D01*
X385550Y276449D02*X386050Y276949D01*
Y274749D02*X387050D01*
X387550Y273449D02*Y274249D01*
Y275249D02*Y276449D01*
Y275249D02*X387050Y274749D01*
X387550Y274249D02*X387050Y274749D01*
X378822Y302509D02*X380822D01*
X381322Y303009D01*
Y304009D01*
X380822Y304509D02*X381322Y304009D01*
X379322Y304509D02*X380822D01*
X379322Y302509D02*Y306509D01*
X380122Y304509D02*X381322Y306509D01*
X384022Y302509D02*X384522Y303009D01*
X383022Y302509D02*X384022D01*
X382522Y303009D02*X383022Y302509D01*
X382522Y303009D02*Y306009D01*
X383022Y306509D01*
X384022Y304309D02*X384522Y304809D01*
X382522Y304309D02*X384022D01*
X383022Y306509D02*X384022D01*
X384522Y306009D01*
Y304809D02*Y306009D01*
X386222Y306509D02*X388222Y302509D01*
X385722D02*X388222D01*
X378661Y332632D02*X380661D01*
X381161Y333132D01*
Y334132D01*
X380661Y334632D02*X381161Y334132D01*
X379161Y334632D02*X380661D01*
X379161Y332632D02*Y336632D01*
X379961Y334632D02*X381161Y336632D01*
X383861Y332632D02*X384361Y333132D01*
X382861Y332632D02*X383861D01*
X382361Y333132D02*X382861Y332632D01*
X382361Y333132D02*Y336132D01*
X382861Y336632D01*
X383861Y334432D02*X384361Y334932D01*
X382361Y334432D02*X383861D01*
X382861Y336632D02*X383861D01*
X384361Y336132D01*
Y334932D02*Y336132D01*
X386061Y336632D02*X387561Y334632D01*
Y333132D02*Y334632D01*
X387061Y332632D02*X387561Y333132D01*
X386061Y332632D02*X387061D01*
X385561Y333132D02*X386061Y332632D01*
X385561Y333132D02*Y334132D01*
X386061Y334632D01*
X387561D01*
X378650Y243449D02*X380650D01*
X381150Y243949D01*
Y244949D01*
X380650Y245449D02*X381150Y244949D01*
X379150Y245449D02*X380650D01*
X379150Y243449D02*Y247449D01*
X379950Y245449D02*X381150Y247449D01*
X382350Y243449D02*X384350D01*
X382350D02*Y245449D01*
X382850Y244949D01*
X383850D01*
X384350Y245449D01*
Y246949D01*
X383850Y247449D02*X384350Y246949D01*
X382850Y247449D02*X383850D01*
X382350Y246949D02*X382850Y247449D01*
X386050D02*X387550Y245449D01*
Y243949D02*Y245449D01*
X387050Y243449D02*X387550Y243949D01*
X386050Y243449D02*X387050D01*
X385550Y243949D02*X386050Y243449D01*
X385550Y243949D02*Y244949D01*
X386050Y245449D01*
X387550D01*
X414817Y243387D02*X416817D01*
X417317Y243887D01*
Y244887D01*
X416817Y245387D02*X417317Y244887D01*
X415317Y245387D02*X416817D01*
X415317Y243387D02*Y247387D01*
X416117Y245387D02*X417317Y247387D01*
X418517Y243887D02*X419017Y243387D01*
X420017D01*
X420517Y243887D01*
X420017Y247387D02*X420517Y246887D01*
X419017Y247387D02*X420017D01*
X418517Y246887D02*X419017Y247387D01*
Y245187D02*X420017D01*
X420517Y243887D02*Y244687D01*
Y245687D02*Y246887D01*
Y245687D02*X420017Y245187D01*
X420517Y244687D02*X420017Y245187D01*
X421717Y243387D02*X423717D01*
X421717D02*Y245387D01*
X422217Y244887D01*
X423217D01*
X423717Y245387D01*
Y246887D01*
X423217Y247387D02*X423717Y246887D01*
X422217Y247387D02*X423217D01*
X421717Y246887D02*X422217Y247387D01*
X176159Y94283D02*X178159D01*
X178659Y94783D01*
Y95783D01*
X178159Y96283D02*X178659Y95783D01*
X176659Y96283D02*X178159D01*
X176659Y94283D02*Y98283D01*
X177459Y96283D02*X178659Y98283D01*
X179859Y94783D02*X180359Y94283D01*
X181859D01*
X182359Y94783D01*
Y95783D01*
X179859Y98283D02*X182359Y95783D01*
X179859Y98283D02*X182359D01*
X184059D02*X186059Y94283D01*
X183559D02*X186059D01*
X378705Y93379D02*X380705D01*
X381205Y93879D01*
Y94879D01*
X380705Y95379D02*X381205Y94879D01*
X379205Y95379D02*X380705D01*
X379205Y93379D02*Y97379D01*
X380005Y95379D02*X381205Y97379D01*
X382405Y93879D02*X382905Y93379D01*
X384405D01*
X384905Y93879D01*
Y94879D01*
X382405Y97379D02*X384905Y94879D01*
X382405Y97379D02*X384905D01*
X386605D02*X388105Y95379D01*
Y93879D02*Y95379D01*
X387605Y93379D02*X388105Y93879D01*
X386605Y93379D02*X387605D01*
X386105Y93879D02*X386605Y93379D01*
X386105Y93879D02*Y94879D01*
X386605Y95379D01*
X388105D01*
X414659Y93417D02*X416659D01*
X417159Y93917D01*
Y94917D01*
X416659Y95417D02*X417159Y94917D01*
X415159Y95417D02*X416659D01*
X415159Y93417D02*Y97417D01*
X415959Y95417D02*X417159Y97417D01*
X418359Y94217D02*X419159Y93417D01*
Y97417D01*
X418359D02*X419859D01*
X421059Y93917D02*X421559Y93417D01*
X422559D01*
X423059Y93917D01*
X422559Y97417D02*X423059Y96917D01*
X421559Y97417D02*X422559D01*
X421059Y96917D02*X421559Y97417D01*
Y95217D02*X422559D01*
X423059Y93917D02*Y94717D01*
Y95717D02*Y96917D01*
Y95717D02*X422559Y95217D01*
X423059Y94717D02*X422559Y95217D01*
X451895Y93333D02*X453895D01*
X454395Y93833D01*
Y94833D01*
X453895Y95333D02*X454395Y94833D01*
X452395Y95333D02*X453895D01*
X452395Y93333D02*Y97333D01*
X453195Y95333D02*X454395Y97333D01*
X455595Y96833D02*X456095Y97333D01*
X455595Y96033D02*Y96833D01*
Y96033D02*X456295Y95333D01*
X456895D01*
X457595Y96033D01*
Y96833D01*
X457095Y97333D02*X457595Y96833D01*
X456095Y97333D02*X457095D01*
X455595Y94633D02*X456295Y95333D01*
X455595Y93833D02*Y94633D01*
Y93833D02*X456095Y93333D01*
X457095D01*
X457595Y93833D01*
Y94633D01*
X456895Y95333D02*X457595Y94633D01*
X264567Y60331D02*X266567D01*
X267067Y60831D01*
Y61831D01*
X266567Y62331D02*X267067Y61831D01*
X265067Y62331D02*X266567D01*
X265067Y60331D02*Y64331D01*
X265867Y62331D02*X267067Y64331D01*
X268267Y61131D02*X269067Y60331D01*
Y64331D01*
X268267D02*X269767D01*
X234055Y60331D02*X236055D01*
X236555Y60831D01*
Y61831D01*
X236055Y62331D02*X236555Y61831D01*
X234555Y62331D02*X236055D01*
X234555Y60331D02*Y64331D01*
X235355Y62331D02*X236555Y64331D01*
X237755Y60831D02*X238255Y60331D01*
X239755D01*
X240255Y60831D01*
Y61831D01*
X237755Y64331D02*X240255Y61831D01*
X237755Y64331D02*X240255D01*
X204527Y60331D02*X206527D01*
X207027Y60831D01*
Y61831D01*
X206527Y62331D02*X207027Y61831D01*
X205027Y62331D02*X206527D01*
X205027Y60331D02*Y64331D01*
X205827Y62331D02*X207027Y64331D01*
X208227Y60831D02*X208727Y60331D01*
X209727D01*
X210227Y60831D01*
X209727Y64331D02*X210227Y63831D01*
X208727Y64331D02*X209727D01*
X208227Y63831D02*X208727Y64331D01*
Y62131D02*X209727D01*
X210227Y60831D02*Y61631D01*
Y62631D02*Y63831D01*
Y62631D02*X209727Y62131D01*
X210227Y61631D02*X209727Y62131D01*
X174170Y60729D02*X176170D01*
X176670Y61229D01*
Y62229D01*
X176170Y62729D02*X176670Y62229D01*
X174670Y62729D02*X176170D01*
X174670Y60729D02*Y64729D01*
X175470Y62729D02*X176670Y64729D01*
X177870Y63229D02*X179870Y60729D01*
X177870Y63229D02*X180370D01*
X179870Y60729D02*Y64729D01*
M02*
