G04 start of page 4 for group 7 layer_idx 4 *
G04 Title: liplight-art, Intern *
G04 Creator: pcb-rnd 2.0.0 *
G04 CreationDate: 2018-08-04 21:30:55 UTC *
G04 For:  *
G04 Format: Gerber/RS-274X *
G04 PCB-Dimensions: 506299 506299 *
G04 PCB-Coordinate-Origin: lower left *
%MOIN*%
%FSLAX25Y25*%
%LNGROUP7*%
%ADD26C,0.0280*%
%ADD25C,0.0988*%
%ADD24C,0.0700*%
%ADD23C,0.0001*%
%ADD22C,0.1181*%
%ADD21C,0.0118*%
G54D21*X104409Y441732D02*Y426890D01*
X112000Y419299D01*
X104409Y411811D02*Y405890D01*
X140394Y441732D02*Y436906D01*
X144000Y433299D01*
X162000D01*
X169000Y426299D01*
X104409Y405890D02*X108000Y402299D01*
X122000D01*
X121000Y419299D02*X121000Y419299D01*
X121000Y419299D02*X132000Y408299D01*
X112000Y419299D02*X121000D01*
X460315Y172441D02*Y170984D01*
X450315Y202362D02*Y195614D01*
X444000Y189299D01*
Y180299D01*
X414331Y112598D02*Y118630D01*
X416000Y120299D01*
X378346Y112598D02*Y118646D01*
X381000Y121299D01*
X403000D01*
X441000Y199299D02*Y182299D01*
X431000Y172299D01*
X444000Y180299D02*X434000Y170299D01*
X431000Y172299D02*Y158299D01*
X434000Y170299D02*Y127299D01*
X438000Y157299D02*X443000Y162299D01*
X447500D02*X443000D01*
X450315Y136614D02*X442000Y128299D01*
X460315Y112598D02*Y112283D01*
Y112598D02*Y111614D01*
X442000Y105299D02*X433000Y96299D01*
X429000Y100299D02*X438000Y109299D01*
Y157299D01*
X442000Y105299D02*Y128299D01*
X450315Y112598D02*Y104614D01*
Y172441D02*Y165114D01*
X447500Y162299D01*
X450315Y142520D02*Y136614D01*
X403000Y121299D02*X408000Y126299D01*
X434000Y127299D02*X427000Y120299D01*
X416000D02*X427000D01*
X378346Y172441D02*Y178646D01*
X382000Y182299D01*
X397000D01*
X402000Y187299D01*
X382000Y212299D02*X396000D01*
X399000Y215299D01*
X378346Y142520D02*Y148646D01*
X382000Y242299D02*X395000D01*
X399000Y246299D01*
X382000Y272299D02*X395000D01*
X382000Y302299D02*X396000D01*
X399000Y305299D01*
X382000Y332299D02*X394000D01*
X399000Y337299D01*
X395000Y272299D02*X399000Y276299D01*
X378346Y208646D02*X382000Y212299D01*
X378346Y232283D02*Y238646D01*
X382000Y242299D01*
X378346Y262205D02*Y268646D01*
X382000Y272299D01*
X378346Y148646D02*X381000Y151299D01*
X378346Y202362D02*Y208646D01*
Y292126D02*Y298646D01*
X382000Y302299D01*
X378346Y322047D02*Y328646D01*
X382000Y332299D01*
X381000Y151299D02*X401000D01*
X405000Y155299D01*
X431000Y158299D02*X424000Y151299D01*
X417000D02*X424000D01*
X414331Y202362D02*Y208630D01*
X417000Y211299D01*
X414331Y232283D02*Y238630D01*
X417000Y241299D01*
X414331Y142520D02*Y148630D01*
Y172441D02*Y178630D01*
X417000Y181299D01*
X414331Y262205D02*Y268630D01*
X417000Y271299D01*
X414331Y292126D02*Y298630D01*
Y322047D02*Y328630D01*
X418000Y332299D01*
X414331Y351969D02*Y358630D01*
X417000Y361299D01*
X414331Y298630D02*X417000Y301299D01*
X408000Y232299D02*Y255969D01*
X414331Y262299D01*
X405000Y235299D02*Y259299D01*
X408000Y262299D01*
X402000Y237299D02*Y263299D01*
X408000Y225953D02*X414331Y232283D01*
X405000Y229299D02*X408000Y232299D01*
X402000Y263299D02*X405000Y266299D01*
X399000Y246299D02*Y266299D01*
X402000Y269299D01*
X414331Y148630D02*X417000Y151299D01*
X408000Y126299D02*Y225953D01*
X405000Y155299D02*Y229299D01*
X402000Y187299D02*Y232299D01*
X399000Y215299D02*Y234299D01*
X402000Y237299D01*
Y232299D02*X405000Y235299D01*
Y289299D02*X408000Y292299D01*
Y315717D01*
X402000Y291299D02*X405000Y294299D01*
Y319299D01*
X402000Y296299D02*Y322299D01*
X405000Y325299D01*
X408000Y262299D02*Y285795D01*
X405000Y266299D02*Y289299D01*
X402000Y269299D02*Y291299D01*
X405000Y319299D02*X408000Y322299D01*
X399000Y324299D02*X402000Y327299D01*
X408000Y322299D02*Y345638D01*
X405000Y325299D02*Y372559D01*
X402000Y327299D02*Y376299D01*
X408000Y382299D01*
Y405480D01*
X399000Y378299D02*X405000Y384299D01*
X399000Y276299D02*Y293299D01*
Y305299D02*Y324299D01*
Y337299D02*Y378299D01*
Y293299D02*X402000Y296299D01*
X405000Y372559D02*X414331Y381890D01*
X408000Y405480D02*X414331Y411811D01*
X405000Y384299D02*Y409299D01*
X408000Y412299D01*
Y285795D02*X414331Y292126D01*
X408000Y315717D02*X414331Y322047D01*
X408000Y345638D02*X414331Y351969D01*
X408000Y412299D02*Y435402D01*
X414331Y441732D01*
X417000Y211299D02*X435000D01*
X438000Y214299D01*
X441000Y199299D02*X444000Y202299D01*
X417000Y181299D02*X434000D01*
X438000Y185299D01*
Y201299D01*
X441000Y204299D01*
X417000Y241299D02*X432000D01*
X438000Y247299D01*
X417000Y271299D02*X433000D01*
X417000Y301299D02*X434000D01*
X418000Y332299D02*X432000D01*
X417000Y361299D02*X433000D01*
Y271299D02*X438000Y276299D01*
X434000Y301299D02*X438000Y305299D01*
X432000Y332299D02*X438000Y338299D01*
X433000Y361299D02*X438000Y366299D01*
X444000Y232299D02*Y255890D01*
X450315Y262205D01*
X444000Y202299D02*Y225969D01*
X450315Y232283D01*
X441000Y204299D02*Y229299D01*
X444000Y232299D01*
X438000Y214299D02*Y231299D01*
X441000Y234299D01*
X438000Y276299D02*Y291299D01*
X441000Y294299D01*
X438000Y305299D02*Y321299D01*
X441000Y324299D01*
Y234299D02*Y259299D01*
X438000Y247299D02*Y261299D01*
X441000Y264299D01*
X438000Y338299D02*Y351299D01*
X441000Y354299D01*
X438000Y366299D02*Y381299D01*
X441000Y384299D01*
Y259299D02*X444000Y262299D01*
Y292299D02*Y315732D01*
X450315Y322047D01*
X441000Y294299D02*Y319299D01*
X444000Y262299D02*Y285811D01*
X450315Y292126D01*
X441000Y264299D02*Y289299D01*
X444000Y292299D01*
X441000Y319299D02*X444000Y322299D01*
Y345654D01*
Y352299D02*Y375575D01*
Y382299D02*Y405496D01*
Y411299D02*Y422299D01*
Y375575D02*X450315Y381890D01*
X441000Y379299D02*X444000Y382299D01*
Y405496D02*X450315Y411811D01*
X441000Y384299D02*Y408299D01*
X444000Y411299D01*
Y345654D02*X450315Y351969D01*
X441000Y349299D02*X444000Y352299D01*
X441000Y354299D02*Y379299D01*
X450315Y441732D02*Y428614D01*
X444000Y422299D01*
X441000Y324299D02*Y349299D01*
X169000Y426299D02*Y329425D01*
X165000Y392299D02*Y320299D01*
X162000Y365299D02*Y316299D01*
X166000Y312299D01*
X169000Y329425D02*X176378Y322047D01*
X165000Y320299D02*X170000Y315299D01*
Y298504D01*
X176378Y292126D01*
X166000Y312299D02*Y287299D01*
X170000Y283299D01*
Y268583D01*
X176378Y262205D01*
X170000Y238661D02*X176378Y232283D01*
X162000Y225299D02*Y249299D01*
X158000Y246299D02*Y222299D01*
X162000Y249299D02*X158000Y253299D01*
Y277299D01*
X166000Y229299D02*X171000Y224299D01*
X162000Y225299D02*X167000Y220299D01*
X158000Y222299D02*X163000Y217299D01*
X158000Y277299D02*X153000Y282299D01*
X162000Y278299D02*X158000Y282299D01*
X166000Y229299D02*Y253299D01*
X170000Y238661D02*Y256299D01*
X166000Y260299D01*
Y253299D02*X162000Y257299D01*
Y278299D01*
X166000Y260299D02*Y280299D01*
X162000Y284299D01*
X171000Y224299D02*Y207740D01*
X176378Y202362D01*
X167000Y220299D02*X167000Y181819D01*
X163000Y217299D02*Y175299D01*
X167000Y181819D02*X176378Y172441D01*
X163000Y175299D02*X167000Y171299D01*
Y151898D01*
X176378Y142520D01*
X130000Y122992D02*Y159299D01*
X114409Y142520D02*Y134890D01*
X122000Y127299D02*X114409Y134890D01*
Y172441D02*Y165890D01*
X126000Y154299D02*X114409Y165890D01*
X159000Y170299D02*X161000Y168299D01*
Y127976D01*
X159000Y214299D02*Y170299D01*
X161000Y127976D02*X176378Y112598D01*
X114409D02*Y101390D01*
X152559Y82402D02*X152362Y82598D01*
X112362D02*Y66181D01*
X123031Y55512D01*
X142362Y82598D02*Y70630D01*
X92520Y82441D02*X92362Y82598D01*
X82362D02*Y64685D01*
X95472Y51575D01*
X142362Y70630D02*X153543Y59449D01*
X172362Y82598D02*Y73110D01*
X182087Y63386D01*
X202362Y82598D02*Y75591D01*
X210630Y67323D01*
X232362Y82598D02*Y77087D01*
X238189Y71260D01*
X433000Y96299D02*X130000D01*
X135000Y100299D02*X429000D01*
X262362Y82598D02*Y78583D01*
X265748Y75197D01*
X302165Y77165D02*Y82402D01*
X302362Y82598D01*
X265748Y75197D02*X300197D01*
X302165Y77165D01*
X238189Y71260D02*X326772D01*
X332362Y82598D02*Y76850D01*
X326772Y71260D01*
X362362Y82598D02*Y76339D01*
X392362Y82598D02*Y73858D01*
X210630Y67323D02*X353346D01*
X153543Y59449D02*X411417D01*
X381890Y63386D02*X182087D01*
X422362Y82598D02*Y70394D01*
X411417Y59449D01*
X392362Y73858D02*X381890Y63386D01*
X362362Y76339D02*X353346Y67323D01*
X123500Y92299D02*X124500Y92299D01*
X433000Y92299D01*
X433000Y92299D02*X433000Y92299D01*
X114409Y101390D02*X123500Y92299D01*
X95472Y51575D02*X468504D01*
X440945Y55512D02*X123031D01*
X468504Y51575D02*X482283Y65354D01*
X452362Y66929D02*X440945Y55512D01*
X482283Y65354D02*Y82520D01*
X482362Y82598D01*
X452362D02*Y66929D01*
X472441Y82677D02*X472362Y82598D01*
X450315Y104614D02*X438000Y92299D01*
X433000D01*
X140394Y411811D02*Y403906D01*
Y232283D02*Y224906D01*
X144000Y221299D01*
X140394Y381890D02*Y374906D01*
X143000Y372299D01*
X128000Y396299D02*Y351299D01*
X132000Y360362D02*Y408299D01*
X143000Y372299D02*X155000D01*
X162000Y365299D01*
X132000Y360362D02*X140394Y351969D01*
X128000Y351299D02*X132000Y347299D01*
X124000Y347299D02*X128000Y343299D01*
X140531Y351831D02*Y346768D01*
X144000Y343299D01*
X153000D01*
X158000Y338299D01*
X158000Y312299D01*
X144000Y312299D02*X151000D01*
X158000Y312299D02*X162000Y308299D01*
X151000Y312299D02*X158000Y305299D01*
X162000Y308299D02*X162000Y284299D01*
X158000Y305299D02*Y282299D01*
X140394Y322047D02*Y315906D01*
Y292126D02*Y285906D01*
X144000Y282299D01*
X153000D01*
X126000Y307299D02*Y286299D01*
X130000Y282299D01*
X140394Y315906D02*X144000Y312299D01*
X132000Y347299D02*Y330441D01*
X128000Y343299D02*X128000Y321299D01*
X134000Y315299D01*
Y298520D01*
X124000Y317299D02*X130000Y311299D01*
Y289299D01*
X134000Y285299D01*
Y268598D01*
Y165299D02*Y148913D01*
X130000Y282299D02*Y259299D01*
X134000Y255299D01*
X126000Y256299D02*X130000Y252299D01*
X126000Y277299D02*Y256299D01*
Y249299D02*Y224299D01*
X129000Y221299D01*
X125000Y218299D02*Y194299D01*
X128000Y191299D01*
X123000Y188299D02*Y166299D01*
X130000Y159299D01*
X128000Y171299D02*X134000Y165299D01*
X130000Y96299D02*X122000Y104299D01*
Y127299D01*
X126000Y154299D02*Y109299D01*
X135000Y100299D01*
X132000Y330441D02*X140394Y322047D01*
X134000Y298520D02*X140394Y292126D01*
X134000Y268598D02*X140394Y262205D01*
Y254906D01*
X143000Y252299D01*
X152000D01*
X158000Y246299D01*
X144000Y221299D02*X152000D01*
X159000Y214299D01*
X134000Y255299D02*Y238677D01*
X130000Y252299D02*Y230299D01*
X134000Y226299D01*
Y208756D01*
X129000Y221299D02*Y198299D01*
X133000Y194299D01*
Y179835D01*
X128000Y191299D02*Y171299D01*
X134000Y238677D02*X140394Y232283D01*
X134000Y208756D02*X140394Y202362D01*
X133000Y179835D02*X140394Y172441D01*
X134000Y148913D02*X140394Y142520D01*
Y112598D02*X130000Y122992D01*
X124000Y368299D02*Y347299D01*
Y338299D02*Y317299D01*
X122000Y402299D02*X128000Y396299D01*
X104409Y381890D02*Y376890D01*
X108000Y373299D01*
X119000D01*
X140394Y403906D02*X143000Y401299D01*
X156000D01*
X165000Y392299D01*
X119000Y373299D02*X124000Y368299D01*
X104409Y351969D02*Y345890D01*
Y322047D02*Y315890D01*
X109000Y311299D01*
X104409Y292126D02*Y285890D01*
X108000Y282299D01*
X104409Y262205D02*Y255890D01*
X108000Y252299D01*
X104409Y232283D02*Y225890D01*
X108000Y222299D01*
X104409Y202362D02*Y196890D01*
X109000Y192299D01*
X104409Y345890D02*X107000Y343299D01*
X119000D01*
X124000Y338299D01*
X109000Y311299D02*X122000D01*
X126000Y307299D01*
X108000Y282299D02*X121000D01*
X126000Y277299D01*
X108000Y252299D02*X123000D01*
X126000Y249299D01*
X108000Y222299D02*X121000D01*
X125000Y218299D01*
X109000Y192299D02*X119000D01*
X123000Y188299D01*
G54D22*X126378Y428268D03*
G54D23*G36*
X110909Y445232D02*X117909D01*
Y438232D01*
X110909D01*
Y445232D01*
G37*
G54D24*X104409Y441732D03*
X140394Y411811D03*
G54D23*G36*
X110909Y415311D02*X117909D01*
Y408311D01*
X110909D01*
Y415311D01*
G37*
G54D24*X104409Y411811D03*
G54D23*G36*
X146894Y415311D02*X153894D01*
Y408311D01*
X146894D01*
Y415311D01*
G37*
G36*
X182878D02*X189878D01*
Y408311D01*
X182878D01*
Y415311D01*
G37*
G54D24*X176378Y411811D03*
G54D23*G36*
X146894Y445232D02*X153894D01*
Y438232D01*
X146894D01*
Y445232D01*
G37*
G54D24*X140394Y441732D03*
G54D23*G36*
X182878Y445232D02*X189878D01*
Y438232D01*
X182878D01*
Y445232D01*
G37*
G54D24*X176378Y441732D03*
G54D23*G36*
X88862Y86098D02*X95862D01*
Y79098D01*
X88862D01*
Y86098D01*
G37*
G54D24*X82362Y82598D03*
G54D23*G36*
X118862Y86098D02*X125862D01*
Y79098D01*
X118862D01*
Y86098D01*
G37*
G54D24*X112362Y82598D03*
X142362D03*
G54D22*X212362Y116614D03*
G54D23*G36*
X182878Y116098D02*X189878D01*
Y109098D01*
X182878D01*
Y116098D01*
G37*
G54D24*X176378Y112598D03*
G54D23*G36*
X148862Y86098D02*X155862D01*
Y79098D01*
X148862D01*
Y86098D01*
G37*
G36*
X178862D02*X185862D01*
Y79098D01*
X178862D01*
Y86098D01*
G37*
G54D24*X172362Y82598D03*
G54D23*G36*
X208862Y86098D02*X215862D01*
Y79098D01*
X208862D01*
Y86098D01*
G37*
G54D24*X202362Y82598D03*
G54D23*G36*
X146894Y116098D02*X153894D01*
Y109098D01*
X146894D01*
Y116098D01*
G37*
G54D24*X140394Y112598D03*
G54D23*G36*
X110909Y116098D02*X117909D01*
Y109098D01*
X110909D01*
Y116098D01*
G37*
G54D24*X104409Y112598D03*
G54D23*G36*
X238862Y86098D02*X245862D01*
Y79098D01*
X238862D01*
Y86098D01*
G37*
G36*
X268862D02*X275862D01*
Y79098D01*
X268862D01*
Y86098D01*
G37*
G54D24*X262362Y82598D03*
G54D23*G36*
X298862Y86098D02*X305862D01*
Y79098D01*
X298862D01*
Y86098D01*
G37*
G54D24*X292362Y82598D03*
X232362D03*
G54D23*G36*
X146894Y205862D02*X153894D01*
Y198862D01*
X146894D01*
Y205862D01*
G37*
G54D24*X140394Y202362D03*
G54D23*G36*
X146894Y175941D02*X153894D01*
Y168941D01*
X146894D01*
Y175941D01*
G37*
G54D24*X140394Y172441D03*
G54D23*G36*
X110909Y146020D02*X117909D01*
Y139020D01*
X110909D01*
Y146020D01*
G37*
G36*
X146894D02*X153894D01*
Y139020D01*
X146894D01*
Y146020D01*
G37*
G54D24*X140394Y142520D03*
G54D23*G36*
X146894Y235783D02*X153894D01*
Y228783D01*
X146894D01*
Y235783D01*
G37*
G54D24*X140394Y232283D03*
G54D23*G36*
X146894Y355469D02*X153894D01*
Y348469D01*
X146894D01*
Y355469D01*
G37*
G36*
Y385390D02*X153894D01*
Y378390D01*
X146894D01*
Y385390D01*
G37*
G36*
Y265705D02*X153894D01*
Y258705D01*
X146894D01*
Y265705D01*
G37*
G36*
Y295626D02*X153894D01*
Y288626D01*
X146894D01*
Y295626D01*
G37*
G36*
Y325547D02*X153894D01*
Y318547D01*
X146894D01*
Y325547D01*
G37*
G54D24*X140394Y351969D03*
Y381890D03*
Y262205D03*
Y292126D03*
Y322047D03*
G54D23*G36*
X182878Y205862D02*X189878D01*
Y198862D01*
X182878D01*
Y205862D01*
G37*
G54D24*X176378Y202362D03*
X104409Y142520D03*
G54D23*G36*
X182878Y146020D02*X189878D01*
Y139020D01*
X182878D01*
Y146020D01*
G37*
G54D24*X176378Y142520D03*
G54D23*G36*
X182878Y175941D02*X189878D01*
Y168941D01*
X182878D01*
Y175941D01*
G37*
G54D24*X176378Y172441D03*
G54D23*G36*
X182878Y235783D02*X189878D01*
Y228783D01*
X182878D01*
Y235783D01*
G37*
G54D24*X176378Y232283D03*
G54D23*G36*
X182878Y355469D02*X189878D01*
Y348469D01*
X182878D01*
Y355469D01*
G37*
G36*
Y385390D02*X189878D01*
Y378390D01*
X182878D01*
Y385390D01*
G37*
G36*
Y265705D02*X189878D01*
Y258705D01*
X182878D01*
Y265705D01*
G37*
G36*
Y295626D02*X189878D01*
Y288626D01*
X182878D01*
Y295626D01*
G37*
G36*
Y325547D02*X189878D01*
Y318547D01*
X182878D01*
Y325547D01*
G37*
G54D24*X176378Y351969D03*
Y381890D03*
Y262205D03*
Y292126D03*
Y322047D03*
G54D23*G36*
X110909Y265705D02*X117909D01*
Y258705D01*
X110909D01*
Y265705D01*
G37*
G36*
Y295626D02*X117909D01*
Y288626D01*
X110909D01*
Y295626D01*
G37*
G36*
Y325547D02*X117909D01*
Y318547D01*
X110909D01*
Y325547D01*
G37*
G36*
Y355469D02*X117909D01*
Y348469D01*
X110909D01*
Y355469D01*
G37*
G36*
Y175941D02*X117909D01*
Y168941D01*
X110909D01*
Y175941D01*
G37*
G36*
Y205862D02*X117909D01*
Y198862D01*
X110909D01*
Y205862D01*
G37*
G36*
Y235783D02*X117909D01*
Y228783D01*
X110909D01*
Y235783D01*
G37*
G36*
Y385390D02*X117909D01*
Y378390D01*
X110909D01*
Y385390D01*
G37*
G54D24*X104409Y262205D03*
Y292126D03*
Y322047D03*
Y351969D03*
Y172441D03*
Y202362D03*
Y232283D03*
Y381890D03*
G54D23*G36*
X420831Y445232D02*X427831D01*
Y438232D01*
X420831D01*
Y445232D01*
G37*
G54D24*X414331Y441732D03*
G54D22*X438307Y431535D03*
G54D23*G36*
X456815Y445232D02*X463815D01*
Y438232D01*
X456815D01*
Y445232D01*
G37*
G54D24*X450315Y441732D03*
G54D23*G36*
X420831Y325547D02*X427831D01*
Y318547D01*
X420831D01*
Y325547D01*
G37*
G54D24*X414331Y322047D03*
G54D23*G36*
X420831Y355469D02*X427831D01*
Y348469D01*
X420831D01*
Y355469D01*
G37*
G54D24*X414331Y351969D03*
G54D23*G36*
X456815Y415311D02*X463815D01*
Y408311D01*
X456815D01*
Y415311D01*
G37*
G54D24*X450315Y411811D03*
G54D23*G36*
X456815Y385390D02*X463815D01*
Y378390D01*
X456815D01*
Y385390D01*
G37*
G54D24*X450315Y381890D03*
G54D23*G36*
X420831Y415311D02*X427831D01*
Y408311D01*
X420831D01*
Y415311D01*
G37*
G54D24*X414331Y411811D03*
G54D23*G36*
X420831Y385390D02*X427831D01*
Y378390D01*
X420831D01*
Y385390D01*
G37*
G54D24*X414331Y381890D03*
G54D22*X352362Y116614D03*
G54D23*G36*
X384846Y116098D02*X391846D01*
Y109098D01*
X384846D01*
Y116098D01*
G37*
G54D24*X378346Y112598D03*
X442362Y82598D03*
G54D23*G36*
X418862Y86098D02*X425862D01*
Y79098D01*
X418862D01*
Y86098D01*
G37*
G54D24*X412362Y82598D03*
G54D23*G36*
X388862Y86098D02*X395862D01*
Y79098D01*
X388862D01*
Y86098D01*
G37*
G36*
X448862D02*X455862D01*
Y79098D01*
X448862D01*
Y86098D01*
G37*
G36*
X478862D02*X485862D01*
Y79098D01*
X478862D01*
Y86098D01*
G37*
G54D24*X472362Y82598D03*
X382362D03*
G54D23*G36*
X456815Y116098D02*X463815D01*
Y109098D01*
X456815D01*
Y116098D01*
G37*
G54D24*X450315Y112598D03*
G54D23*G36*
X420831Y116098D02*X427831D01*
Y109098D01*
X420831D01*
Y116098D01*
G37*
G54D24*X414331Y112598D03*
G54D23*G36*
X328862Y86098D02*X335862D01*
Y79098D01*
X328862D01*
Y86098D01*
G37*
G36*
X358862D02*X365862D01*
Y79098D01*
X358862D01*
Y86098D01*
G37*
G54D24*X352362Y82598D03*
X322362D03*
G54D23*G36*
X384846Y146020D02*X391846D01*
Y139020D01*
X384846D01*
Y146020D01*
G37*
G54D24*X414331Y172441D03*
G54D23*G36*
X420831Y146020D02*X427831D01*
Y139020D01*
X420831D01*
Y146020D01*
G37*
G54D24*X414331Y142520D03*
G54D23*G36*
X420831Y175941D02*X427831D01*
Y168941D01*
X420831D01*
Y175941D01*
G37*
G54D24*X450315Y172441D03*
G54D23*G36*
X456815Y205862D02*X463815D01*
Y198862D01*
X456815D01*
Y205862D01*
G37*
G54D24*X450315Y202362D03*
G54D23*G36*
X456815Y146020D02*X463815D01*
Y139020D01*
X456815D01*
Y146020D01*
G37*
G54D24*X450315Y142520D03*
G54D23*G36*
X456815Y175941D02*X463815D01*
Y168941D01*
X456815D01*
Y175941D01*
G37*
G36*
Y235783D02*X463815D01*
Y228783D01*
X456815D01*
Y235783D01*
G37*
G36*
X420831D02*X427831D01*
Y228783D01*
X420831D01*
Y235783D01*
G37*
G54D24*X414331Y232283D03*
G54D23*G36*
X420831Y265705D02*X427831D01*
Y258705D01*
X420831D01*
Y265705D01*
G37*
G54D24*X414331Y262205D03*
G54D23*G36*
X420831Y205862D02*X427831D01*
Y198862D01*
X420831D01*
Y205862D01*
G37*
G54D24*X414331Y202362D03*
X450315Y232283D03*
G54D23*G36*
X420831Y295626D02*X427831D01*
Y288626D01*
X420831D01*
Y295626D01*
G37*
G54D24*X414331Y292126D03*
G54D23*G36*
X456815Y265705D02*X463815D01*
Y258705D01*
X456815D01*
Y265705D01*
G37*
G36*
Y295626D02*X463815D01*
Y288626D01*
X456815D01*
Y295626D01*
G37*
G36*
Y325547D02*X463815D01*
Y318547D01*
X456815D01*
Y325547D01*
G37*
G36*
Y355469D02*X463815D01*
Y348469D01*
X456815D01*
Y355469D01*
G37*
G54D24*X450315Y262205D03*
Y292126D03*
Y322047D03*
Y351969D03*
X378346Y142520D03*
G54D23*G36*
X384846Y265705D02*X391846D01*
Y258705D01*
X384846D01*
Y265705D01*
G37*
G36*
Y295626D02*X391846D01*
Y288626D01*
X384846D01*
Y295626D01*
G37*
G36*
Y325547D02*X391846D01*
Y318547D01*
X384846D01*
Y325547D01*
G37*
G36*
Y355469D02*X391846D01*
Y348469D01*
X384846D01*
Y355469D01*
G37*
G36*
Y175941D02*X391846D01*
Y168941D01*
X384846D01*
Y175941D01*
G37*
G36*
Y205862D02*X391846D01*
Y198862D01*
X384846D01*
Y205862D01*
G37*
G36*
Y235783D02*X391846D01*
Y228783D01*
X384846D01*
Y235783D01*
G37*
G36*
Y385390D02*X391846D01*
Y378390D01*
X384846D01*
Y385390D01*
G37*
G36*
Y415311D02*X391846D01*
Y408311D01*
X384846D01*
Y415311D01*
G37*
G36*
Y445232D02*X391846D01*
Y438232D01*
X384846D01*
Y445232D01*
G37*
G54D24*X378346Y262205D03*
Y292126D03*
Y322047D03*
Y351969D03*
Y172441D03*
Y202362D03*
Y232283D03*
Y381890D03*
Y411811D03*
Y441732D03*
G54D25*G54D26*G54D25*G54D26*G54D25*G54D26*G54D25*G54D26*M02*
