M48
INCH
T43C0.028
T42C0.099
%
T43
X011441Y044173
X010441Y044173
X014039Y041181
X011441Y041181
X010441Y041181
X015039Y041181
X018638Y041181
X017638Y041181
X015039Y044173
X014039Y044173
X018638Y044173
X017638Y044173
X009236Y008260
X008236Y008260
X012236Y008260
X011236Y008260
X014236Y008260
X018638Y011260
X017638Y011260
X015236Y008260
X018236Y008260
X017236Y008260
X021236Y008260
X020236Y008260
X015039Y011260
X014039Y011260
X011441Y011260
X010441Y011260
X024236Y008260
X027236Y008260
X026236Y008260
X030236Y008260
X029236Y008260
X023236Y008260
X015039Y020236
X014039Y020236
X015039Y017244
X014039Y017244
X011441Y014252
X015039Y014252
X014039Y014252
X015039Y023228
X014039Y023228
X015039Y035197
X015039Y038189
X015039Y026220
X015039Y029213
X015039Y032205
X014039Y035197
X014039Y038189
X014039Y026220
X014039Y029213
X014039Y032205
X018638Y020236
X017638Y020236
X010441Y014252
X018638Y014252
X017638Y014252
X018638Y017244
X017638Y017244
X018638Y023228
X017638Y023228
X018638Y035197
X018638Y038189
X018638Y026220
X018638Y029213
X018638Y032205
X017638Y035197
X017638Y038189
X017638Y026220
X017638Y029213
X017638Y032205
X011441Y026220
X011441Y029213
X011441Y032205
X011441Y035197
X011441Y017244
X011441Y020236
X011441Y023228
X011441Y038189
X010441Y026220
X010441Y029213
X010441Y032205
X010441Y035197
X010441Y017244
X010441Y020236
X010441Y023228
X010441Y038189
X042433Y044173
X041433Y044173
X046031Y044173
X045031Y044173
X042433Y032205
X041433Y032205
X042433Y035197
X041433Y035197
X046031Y041181
X045031Y041181
X046031Y038189
X045031Y038189
X042433Y041181
X041433Y041181
X042433Y038189
X041433Y038189
X038835Y011260
X037835Y011260
X044236Y008260
X042236Y008260
X041236Y008260
X039236Y008260
X045236Y008260
X048236Y008260
X047236Y008260
X038236Y008260
X046031Y011260
X045031Y011260
X042433Y011260
X041433Y011260
X033236Y008260
X036236Y008260
X035236Y008260
X032236Y008260
X038835Y014252
X041433Y017244
X042433Y014252
X041433Y014252
X042433Y017244
X045031Y017244
X046031Y020236
X045031Y020236
X046031Y014252
X045031Y014252
X046031Y017244
X046031Y023228
X042433Y023228
X041433Y023228
X042433Y026220
X041433Y026220
X042433Y020236
X041433Y020236
X045031Y023228
X042433Y029213
X041433Y029213
X046031Y026220
X046031Y029213
X046031Y032205
X046031Y035197
X045031Y026220
X045031Y029213
X045031Y032205
X045031Y035197
X037835Y014252
X038835Y026220
X038835Y029213
X038835Y032205
X038835Y035197
X038835Y017244
X038835Y020236
X038835Y023228
X038835Y038189
X038835Y041181
X038835Y044173
X037835Y026220
X037835Y029213
X037835Y032205
X037835Y035197
X037835Y017244
X037835Y020236
X037835Y023228
X037835Y038189
X037835Y041181
X037835Y044173
T42
X012638Y042827
X021236Y011661
X043831Y043154
X035236Y011661
M30
