G04 start of page 7 for group 2 layer_idx 11 *
G04 Title: liplight-art, top_mask *
G04 Creator: pcb-rnd 2.0.0 *
G04 CreationDate: 2018-08-21 02:54:24 UTC *
G04 For:  *
G04 Format: Gerber/RS-274X *
G04 PCB-Dimensions: 636000 660500 *
G04 PCB-Coordinate-Origin: lower left *
%MOIN*%
%FSLAX25Y25*%
%LNTOPMASK*%
%ADD47C,0.0600*%
%ADD46C,0.0001*%
G54D46*G36*
X75854Y405020D02*X81854D01*
Y399020D01*
X75854D01*
Y405020D01*
G37*
G54D47*X68854Y402020D03*
G54D46*G36*
X147823Y434941D02*X153823D01*
Y428941D01*
X147823D01*
Y434941D01*
G37*
G54D47*X140823Y431941D03*
G54D46*G36*
X111838Y405020D02*X117838D01*
Y399020D01*
X111838D01*
Y405020D01*
G37*
G54D47*X104838Y402020D03*
G54D46*G36*
X147823Y405020D02*X153823D01*
Y399020D01*
X147823D01*
Y405020D01*
G37*
G54D47*X140823Y402020D03*
G54D46*G36*
X75854Y434941D02*X81854D01*
Y428941D01*
X75854D01*
Y434941D01*
G37*
G36*
X111838D02*X117838D01*
Y428941D01*
X111838D01*
Y434941D01*
G37*
G54D47*X104838Y431941D03*
X68854D03*
G54D46*G36*
X385775Y434941D02*X391775D01*
Y428941D01*
X385775D01*
Y434941D01*
G37*
G54D47*X378775Y431941D03*
G54D46*G36*
X385775Y405020D02*X391775D01*
Y399020D01*
X385775D01*
Y405020D01*
G37*
G54D47*X378775Y402020D03*
G54D46*G36*
X421760Y434941D02*X427760D01*
Y428941D01*
X421760D01*
Y434941D01*
G37*
G36*
Y405020D02*X427760D01*
Y399020D01*
X421760D01*
Y405020D01*
G37*
G36*
Y375098D02*X427760D01*
Y369098D01*
X421760D01*
Y375098D01*
G37*
G54D47*X414760Y431941D03*
Y402020D03*
Y372098D03*
G54D46*G36*
X349791Y375098D02*X355791D01*
Y369098D01*
X349791D01*
Y375098D01*
G37*
G36*
X385775D02*X391775D01*
Y369098D01*
X385775D01*
Y375098D01*
G37*
G54D47*X378775Y372098D03*
X342791D03*
Y402020D03*
G54D46*G36*
X349791Y434941D02*X355791D01*
Y428941D01*
X349791D01*
Y434941D01*
G37*
G54D47*X342791Y431941D03*
G54D46*G36*
X349791Y405020D02*X355791D01*
Y399020D01*
X349791D01*
Y405020D01*
G37*
G36*
X173807Y75807D02*X179807D01*
Y69807D01*
X173807D01*
Y75807D01*
G37*
G54D47*X166807Y72807D03*
G54D46*G36*
X190764Y103964D02*Y99602D01*
X199260D01*
Y103964D01*
X190764D01*
G37*
G36*
Y107901D02*Y103539D01*
X199260D01*
Y107901D01*
X190764D01*
G37*
G36*
Y111838D02*Y107476D01*
X199260D01*
Y111838D01*
X190764D01*
G37*
G36*
Y115775D02*Y111413D01*
X199260D01*
Y115775D01*
X190764D01*
G37*
G36*
Y119712D02*Y115350D01*
X199260D01*
Y119712D01*
X190764D01*
G37*
G36*
Y123650D02*Y119288D01*
X199260D01*
Y123650D01*
X190764D01*
G37*
G54D47*X196807Y72807D03*
G54D46*G36*
X190764Y127587D02*Y123225D01*
X199260D01*
Y127587D01*
X190764D01*
G37*
G36*
Y131524D02*Y127162D01*
X199260D01*
Y131524D01*
X190764D01*
G37*
G36*
Y135461D02*Y131099D01*
X199260D01*
Y135461D01*
X190764D01*
G37*
G36*
Y139398D02*Y135036D01*
X199260D01*
Y139398D01*
X190764D01*
G37*
G36*
X349791Y105807D02*X355791D01*
Y99807D01*
X349791D01*
Y105807D01*
G37*
G54D47*X342791Y102807D03*
G54D46*G36*
X323807Y75807D02*X329807D01*
Y69807D01*
X323807D01*
Y75807D01*
G37*
G54D47*X316807Y72807D03*
G54D46*G36*
X353807Y75807D02*X359807D01*
Y69807D01*
X353807D01*
Y75807D01*
G37*
G54D47*X346807Y72807D03*
X406807D03*
G54D46*G36*
X383807Y75807D02*X389807D01*
Y69807D01*
X383807D01*
Y75807D01*
G37*
G54D47*X376807Y72807D03*
G54D46*G36*
X413807Y75807D02*X419807D01*
Y69807D01*
X413807D01*
Y75807D01*
G37*
G36*
X443807D02*X449807D01*
Y69807D01*
X443807D01*
Y75807D01*
G37*
G54D47*X436807Y72807D03*
G54D46*G36*
X421760Y105807D02*X427760D01*
Y99807D01*
X421760D01*
Y105807D01*
G37*
G54D47*X414760Y102807D03*
G54D46*G36*
X391775Y105807D02*Y99807D01*
X385775D01*
Y105807D01*
X391775D01*
G37*
G54D47*X378775Y102807D03*
G54D46*G36*
X294134Y103964D02*Y99602D01*
X302630D01*
Y103964D01*
X294134D01*
G37*
G36*
Y107901D02*Y103539D01*
X302630D01*
Y107901D01*
X294134D01*
G37*
G36*
Y111838D02*Y107476D01*
X302630D01*
Y111838D01*
X294134D01*
G37*
G36*
Y115775D02*Y111413D01*
X302630D01*
Y115775D01*
X294134D01*
G37*
G36*
X293807Y75807D02*X299807D01*
Y69807D01*
X293807D01*
Y75807D01*
G37*
G36*
X294134Y119712D02*Y115350D01*
X302630D01*
Y119712D01*
X294134D01*
G37*
G36*
Y123650D02*Y119288D01*
X302630D01*
Y123650D01*
X294134D01*
G37*
G36*
Y127587D02*Y123225D01*
X302630D01*
Y127587D01*
X294134D01*
G37*
G36*
X279764Y103964D02*Y99602D01*
X288260D01*
Y103964D01*
X279764D01*
G37*
G36*
Y107901D02*Y103539D01*
X288260D01*
Y107901D01*
X279764D01*
G37*
G36*
Y111838D02*Y107476D01*
X288260D01*
Y111838D01*
X279764D01*
G37*
G36*
Y115775D02*Y111413D01*
X288260D01*
Y115775D01*
X279764D01*
G37*
G36*
Y119712D02*Y115350D01*
X288260D01*
Y119712D01*
X279764D01*
G37*
G54D47*X286807Y72807D03*
G54D46*G36*
X279764Y123650D02*Y119288D01*
X288260D01*
Y123650D01*
X279764D01*
G37*
G36*
Y127587D02*Y123225D01*
X288260D01*
Y127587D01*
X279764D01*
G37*
G36*
X111838Y135728D02*X117838D01*
Y129728D01*
X111838D01*
Y135728D01*
G37*
G54D47*X104838Y132728D03*
G54D46*G36*
X147823Y135728D02*X153823D01*
Y129728D01*
X147823D01*
Y135728D01*
G37*
G54D47*X140823Y132728D03*
G54D46*G36*
X147823Y105807D02*X153823D01*
Y99807D01*
X147823D01*
Y105807D01*
G37*
G54D47*X140823Y102807D03*
G54D46*G36*
X117838Y105807D02*Y99807D01*
X111838D01*
Y105807D01*
X117838D01*
G37*
G36*
X113807Y75807D02*X119807D01*
Y69807D01*
X113807D01*
Y75807D01*
G37*
G54D47*X106807Y72807D03*
G54D46*G36*
X143807Y75807D02*X149807D01*
Y69807D01*
X143807D01*
Y75807D01*
G37*
G54D47*X136807Y72807D03*
X104838Y102807D03*
G54D46*G36*
X147823Y165650D02*X153823D01*
Y159650D01*
X147823D01*
Y165650D01*
G37*
G54D47*X140823Y162650D03*
G54D46*G36*
X111838Y165650D02*X117838D01*
Y159650D01*
X111838D01*
Y165650D01*
G37*
G54D47*X104838Y162650D03*
G54D46*G36*
X349791Y165650D02*X355791D01*
Y159650D01*
X349791D01*
Y165650D01*
G37*
G54D47*X342791Y162650D03*
G54D46*G36*
X349791Y195571D02*X355791D01*
Y189571D01*
X349791D01*
Y195571D01*
G37*
G36*
X385775D02*X391775D01*
Y189571D01*
X385775D01*
Y195571D01*
G37*
G54D47*X378775Y192571D03*
X414760D03*
X342791D03*
G54D46*G36*
X421760Y165650D02*X427760D01*
Y159650D01*
X421760D01*
Y165650D01*
G37*
G36*
X427760Y195571D02*Y189571D01*
X421760D01*
Y195571D01*
X427760D01*
G37*
G36*
X385775Y165650D02*X391775D01*
Y159650D01*
X385775D01*
Y165650D01*
G37*
G54D47*X378775Y162650D03*
X414760D03*
G54D46*G36*
X279764Y131524D02*Y127162D01*
X288260D01*
Y131524D01*
X279764D01*
G37*
G36*
Y135461D02*Y131099D01*
X288260D01*
Y135461D01*
X279764D01*
G37*
G36*
Y139398D02*Y135036D01*
X288260D01*
Y139398D01*
X279764D01*
G37*
G36*
X294134Y131524D02*Y127162D01*
X302630D01*
Y131524D01*
X294134D01*
G37*
G36*
Y135461D02*Y131099D01*
X302630D01*
Y135461D01*
X294134D01*
G37*
G36*
Y139398D02*Y135036D01*
X302630D01*
Y139398D01*
X294134D01*
G37*
G36*
X236764Y131524D02*Y127162D01*
X245260D01*
Y131524D01*
X236764D01*
G37*
G36*
Y135461D02*Y131099D01*
X245260D01*
Y135461D01*
X236764D01*
G37*
G36*
Y139398D02*Y135036D01*
X245260D01*
Y139398D01*
X236764D01*
G37*
G36*
X251134Y131524D02*Y127162D01*
X259630D01*
Y131524D01*
X251134D01*
G37*
G36*
Y135461D02*Y131099D01*
X259630D01*
Y135461D01*
X251134D01*
G37*
G36*
Y139398D02*Y135036D01*
X259630D01*
Y139398D01*
X251134D01*
G37*
G36*
X349791Y135728D02*X355791D01*
Y129728D01*
X349791D01*
Y135728D01*
G37*
G54D47*X342791Y132728D03*
G54D46*G36*
X421760Y135728D02*X427760D01*
Y129728D01*
X421760D01*
Y135728D01*
G37*
G54D47*X414760Y132728D03*
G54D46*G36*
X385775Y135728D02*X391775D01*
Y129728D01*
X385775D01*
Y135728D01*
G37*
G54D47*X378775Y132728D03*
G54D46*G36*
X205134Y103964D02*Y99602D01*
X213630D01*
Y103964D01*
X205134D01*
G37*
G36*
Y107901D02*Y103539D01*
X213630D01*
Y107901D01*
X205134D01*
G37*
G36*
Y111838D02*Y107476D01*
X213630D01*
Y111838D01*
X205134D01*
G37*
G36*
Y115775D02*Y111413D01*
X213630D01*
Y115775D01*
X205134D01*
G37*
G36*
X236764D02*Y111413D01*
X245260D01*
Y115775D01*
X236764D01*
G37*
G36*
Y119712D02*Y115350D01*
X245260D01*
Y119712D01*
X236764D01*
G37*
G36*
Y123650D02*Y119288D01*
X245260D01*
Y123650D01*
X236764D01*
G37*
G36*
Y127587D02*Y123225D01*
X245260D01*
Y127587D01*
X236764D01*
G37*
G36*
Y103964D02*Y99602D01*
X245260D01*
Y103964D01*
X236764D01*
G37*
G36*
Y107901D02*Y103539D01*
X245260D01*
Y107901D01*
X236764D01*
G37*
G36*
Y111838D02*Y107476D01*
X245260D01*
Y111838D01*
X236764D01*
G37*
G36*
X251134Y103964D02*Y99602D01*
X259630D01*
Y103964D01*
X251134D01*
G37*
G36*
Y107901D02*Y103539D01*
X259630D01*
Y107901D01*
X251134D01*
G37*
G36*
Y111838D02*Y107476D01*
X259630D01*
Y111838D01*
X251134D01*
G37*
G36*
Y115775D02*Y111413D01*
X259630D01*
Y115775D01*
X251134D01*
G37*
G36*
Y119712D02*Y115350D01*
X259630D01*
Y119712D01*
X251134D01*
G37*
G36*
Y123650D02*Y119288D01*
X259630D01*
Y123650D01*
X251134D01*
G37*
G36*
Y127587D02*Y123225D01*
X259630D01*
Y127587D01*
X251134D01*
G37*
G36*
X205134Y119712D02*Y115350D01*
X213630D01*
Y119712D01*
X205134D01*
G37*
G36*
Y123650D02*Y119288D01*
X213630D01*
Y123650D01*
X205134D01*
G37*
G36*
Y127587D02*Y123225D01*
X213630D01*
Y127587D01*
X205134D01*
G37*
G36*
Y131524D02*Y127162D01*
X213630D01*
Y131524D01*
X205134D01*
G37*
G36*
Y135461D02*Y131099D01*
X213630D01*
Y135461D01*
X205134D01*
G37*
G36*
Y139398D02*Y135036D01*
X213630D01*
Y139398D01*
X205134D01*
G37*
G36*
X233807Y75807D02*X239807D01*
Y69807D01*
X233807D01*
Y75807D01*
G37*
G54D47*X226807Y72807D03*
G54D46*G36*
X263807Y75807D02*X269807D01*
Y69807D01*
X263807D01*
Y75807D01*
G37*
G54D47*X256807Y72807D03*
G54D46*G36*
X203807Y75807D02*X209807D01*
Y69807D01*
X203807D01*
Y75807D01*
G37*
G36*
X75854Y375098D02*X81854D01*
Y369098D01*
X75854D01*
Y375098D01*
G37*
G54D47*X68854Y372098D03*
G54D46*G36*
X75854Y345177D02*X81854D01*
Y339177D01*
X75854D01*
Y345177D01*
G37*
G54D47*X68854Y342177D03*
G54D46*G36*
X111838Y345177D02*X117838D01*
Y339177D01*
X111838D01*
Y345177D01*
G37*
G54D47*X104838Y342177D03*
G54D46*G36*
X111838Y375098D02*X117838D01*
Y369098D01*
X111838D01*
Y375098D01*
G37*
G36*
X147823D02*X153823D01*
Y369098D01*
X147823D01*
Y375098D01*
G37*
G54D47*X140823Y372098D03*
X104838D03*
G54D46*G36*
X75854Y285335D02*X81854D01*
Y279335D01*
X75854D01*
Y285335D01*
G37*
G54D47*X68854Y282335D03*
G54D46*G36*
X75854Y315256D02*X81854D01*
Y309256D01*
X75854D01*
Y315256D01*
G37*
G54D47*X68854Y312256D03*
G54D46*G36*
X75854Y255413D02*X81854D01*
Y249413D01*
X75854D01*
Y255413D01*
G37*
G54D47*X68854Y252413D03*
G54D46*G36*
X147823Y345177D02*X153823D01*
Y339177D01*
X147823D01*
Y345177D01*
G37*
G54D47*X140823Y342177D03*
G54D46*G36*
X111838Y255413D02*X117838D01*
Y249413D01*
X111838D01*
Y255413D01*
G37*
G54D47*X104838Y252413D03*
G54D46*G36*
X147823Y255413D02*X153823D01*
Y249413D01*
X147823D01*
Y255413D01*
G37*
G54D47*X140823Y252413D03*
G54D46*G36*
X111838Y285335D02*X117838D01*
Y279335D01*
X111838D01*
Y285335D01*
G37*
G36*
X147823D02*X153823D01*
Y279335D01*
X147823D01*
Y285335D01*
G37*
G54D47*X140823Y282335D03*
X104838D03*
G54D46*G36*
X111838Y315256D02*X117838D01*
Y309256D01*
X111838D01*
Y315256D01*
G37*
G54D47*X104838Y312256D03*
G54D46*G36*
X147823Y315256D02*X153823D01*
Y309256D01*
X147823D01*
Y315256D01*
G37*
G54D47*X140823Y312256D03*
G54D46*G36*
X385775Y225492D02*X391775D01*
Y219492D01*
X385775D01*
Y225492D01*
G37*
G54D47*X378775Y222492D03*
G54D46*G36*
X421760Y225492D02*X427760D01*
Y219492D01*
X421760D01*
Y225492D01*
G37*
G54D47*X414760Y222492D03*
G54D46*G36*
X421760Y255413D02*X427760D01*
Y249413D01*
X421760D01*
Y255413D01*
G37*
G54D47*X414760Y252413D03*
G54D46*G36*
X385775Y255413D02*X391775D01*
Y249413D01*
X385775D01*
Y255413D01*
G37*
G54D47*X378775Y252413D03*
X342791Y312256D03*
Y252413D03*
Y282335D03*
G54D46*G36*
X349791Y225492D02*X355791D01*
Y219492D01*
X349791D01*
Y225492D01*
G37*
G54D47*X342791Y222492D03*
G54D46*G36*
X349791Y255413D02*X355791D01*
Y249413D01*
X349791D01*
Y255413D01*
G37*
G54D47*X342791Y342177D03*
G54D46*G36*
X349791Y345177D02*X355791D01*
Y339177D01*
X349791D01*
Y345177D01*
G37*
G36*
Y285335D02*X355791D01*
Y279335D01*
X349791D01*
Y285335D01*
G37*
G36*
Y315256D02*X355791D01*
Y309256D01*
X349791D01*
Y315256D01*
G37*
G36*
X421760Y345177D02*X427760D01*
Y339177D01*
X421760D01*
Y345177D01*
G37*
G54D47*X414760Y342177D03*
G54D46*G36*
X421760Y315256D02*X427760D01*
Y309256D01*
X421760D01*
Y315256D01*
G37*
G54D47*X414760Y312256D03*
G54D46*G36*
X385775Y315256D02*X391775D01*
Y309256D01*
X385775D01*
Y315256D01*
G37*
G54D47*X378775Y312256D03*
G54D46*G36*
X385775Y345177D02*X391775D01*
Y339177D01*
X385775D01*
Y345177D01*
G37*
G54D47*X378775Y342177D03*
G54D46*G36*
X421760Y285335D02*X427760D01*
Y279335D01*
X421760D01*
Y285335D01*
G37*
G54D47*X414760Y282335D03*
G54D46*G36*
X385775Y285335D02*X391775D01*
Y279335D01*
X385775D01*
Y285335D01*
G37*
G54D47*X378775Y282335D03*
G54D46*G36*
X75854Y225492D02*X81854D01*
Y219492D01*
X75854D01*
Y225492D01*
G37*
G54D47*X68854Y222492D03*
G54D46*G36*
X111838Y225492D02*X117838D01*
Y219492D01*
X111838D01*
Y225492D01*
G37*
G54D47*X104838Y222492D03*
G54D46*G36*
X111838Y195571D02*X117838D01*
Y189571D01*
X111838D01*
Y195571D01*
G37*
G54D47*X104838Y192571D03*
G54D46*G36*
X81854Y195571D02*Y189571D01*
X75854D01*
Y195571D01*
X81854D01*
G37*
G54D47*X68854Y192571D03*
G54D46*G36*
X147823Y195571D02*X153823D01*
Y189571D01*
X147823D01*
Y195571D01*
G37*
G54D47*X140823Y192571D03*
G54D46*G36*
X147823Y225492D02*X153823D01*
Y219492D01*
X147823D01*
Y225492D01*
G37*
G54D47*X140823Y222492D03*
G54D46*G36*
X75854Y165650D02*X81854D01*
Y159650D01*
X75854D01*
Y165650D01*
G37*
G54D47*X68854Y162650D03*
G54D46*G36*
X75854Y135728D02*X81854D01*
Y129728D01*
X75854D01*
Y135728D01*
G37*
G54D47*X68854Y132728D03*
G54D46*G36*
X75854Y105807D02*X81854D01*
Y99807D01*
X75854D01*
Y105807D01*
G37*
G54D47*X68854Y102807D03*
G54D46*G36*
X53807Y75807D02*X59807D01*
Y69807D01*
X53807D01*
Y75807D01*
G37*
G54D47*X46807Y72807D03*
G54D46*G36*
X83807Y75807D02*X89807D01*
Y69807D01*
X83807D01*
Y75807D01*
G37*
G54D47*X76807Y72807D03*
M02*
