G04 start of page 2 for group 3 layer_idx 0 *
G04 Title: liplight-art, top_copper *
G04 Creator: pcb-rnd 2.0.0 *
G04 CreationDate: 2018-08-04 21:30:55 UTC *
G04 For:  *
G04 Format: Gerber/RS-274X *
G04 PCB-Dimensions: 506299 506299 *
G04 PCB-Coordinate-Origin: lower left *
%MOIN*%
%FSLAX25Y25*%
%LNTOP*%
%ADD15C,0.0280*%
%ADD14C,0.0988*%
%ADD13C,0.0700*%
%ADD12C,0.1181*%
%ADD11C,0.0001*%
G54D11*G36*
X472354Y455118D02*X479331D01*
X481299Y454134D01*
X485236Y451181D01*
X486220Y449213D01*
Y87555D01*
X486098Y87585D01*
X485862Y87603D01*
X485803Y87598D01*
X478921D01*
X478862Y87603D01*
X478627Y87585D01*
X478627Y87585D01*
X478397Y87529D01*
X478179Y87439D01*
X477978Y87316D01*
X477798Y87162D01*
X477645Y86983D01*
X477522Y86782D01*
X477431Y86563D01*
X477376Y86334D01*
X477358Y86098D01*
X477362Y86040D01*
Y79157D01*
X477358Y79098D01*
X477376Y78863D01*
X477376Y78863D01*
X477431Y78633D01*
X477522Y78415D01*
X477645Y78214D01*
X477798Y78034D01*
X477978Y77881D01*
X478179Y77758D01*
X478397Y77667D01*
X478627Y77612D01*
X478862Y77594D01*
X478921Y77598D01*
X485803D01*
X485862Y77594D01*
X486097Y77612D01*
X486098Y77612D01*
X486220Y77642D01*
Y56496D01*
X485236Y53543D01*
X483268Y51575D01*
X480315Y50591D01*
X472354D01*
Y77584D01*
X472362Y77583D01*
X473147Y77645D01*
X473912Y77828D01*
X474639Y78130D01*
X475310Y78541D01*
X475909Y79052D01*
X476420Y79650D01*
X476831Y80321D01*
X477132Y81049D01*
X477316Y81814D01*
X477362Y82598D01*
X477316Y83383D01*
X477132Y84148D01*
X476831Y84875D01*
X476420Y85546D01*
X475909Y86145D01*
X475310Y86656D01*
X474639Y87067D01*
X473912Y87368D01*
X473147Y87552D01*
X472362Y87614D01*
X472354Y87613D01*
Y455118D01*
G37*
G36*
X460315D02*X472354D01*
Y87613D01*
X471578Y87552D01*
X470812Y87368D01*
X470085Y87067D01*
X469414Y86656D01*
X468816Y86145D01*
X468305Y85546D01*
X467893Y84875D01*
X467592Y84148D01*
X467409Y83383D01*
X467347Y82598D01*
X467409Y81814D01*
X467592Y81049D01*
X467893Y80321D01*
X468305Y79650D01*
X468816Y79052D01*
X469414Y78541D01*
X470085Y78130D01*
X470812Y77828D01*
X471578Y77645D01*
X472354Y77584D01*
Y50591D01*
X460315D01*
Y107598D01*
X463756D01*
X463815Y107594D01*
X464050Y107612D01*
X464050Y107612D01*
X464280Y107667D01*
X464498Y107758D01*
X464699Y107881D01*
X464879Y108034D01*
X465032Y108214D01*
X465156Y108415D01*
X465246Y108633D01*
X465301Y108863D01*
X465320Y109098D01*
X465315Y109157D01*
Y116040D01*
X465320Y116098D01*
X465301Y116334D01*
X465301Y116334D01*
X465246Y116563D01*
X465156Y116782D01*
X465032Y116983D01*
X464879Y117162D01*
X464699Y117316D01*
X464498Y117439D01*
X464280Y117529D01*
X464050Y117585D01*
X463815Y117603D01*
X463756Y117598D01*
X460315D01*
Y137520D01*
X463756D01*
X463815Y137515D01*
X464050Y137534D01*
X464050Y137534D01*
X464280Y137589D01*
X464498Y137679D01*
X464699Y137802D01*
X464879Y137956D01*
X465032Y138135D01*
X465156Y138337D01*
X465246Y138555D01*
X465301Y138784D01*
X465320Y139020D01*
X465315Y139079D01*
Y145961D01*
X465320Y146020D01*
X465301Y146255D01*
X465301Y146255D01*
X465246Y146485D01*
X465156Y146703D01*
X465032Y146904D01*
X464879Y147084D01*
X464699Y147237D01*
X464498Y147360D01*
X464280Y147451D01*
X464050Y147506D01*
X463815Y147524D01*
X463756Y147520D01*
X460315D01*
Y167441D01*
X463756D01*
X463815Y167436D01*
X464050Y167455D01*
X464050Y167455D01*
X464280Y167510D01*
X464498Y167600D01*
X464699Y167724D01*
X464879Y167877D01*
X465032Y168057D01*
X465156Y168258D01*
X465246Y168476D01*
X465301Y168706D01*
X465320Y168941D01*
X465315Y169000D01*
Y175882D01*
X465320Y175941D01*
X465301Y176176D01*
X465301Y176176D01*
X465246Y176406D01*
X465156Y176624D01*
X465032Y176825D01*
X464879Y177005D01*
X464699Y177158D01*
X464498Y177282D01*
X464280Y177372D01*
X464050Y177427D01*
X463815Y177446D01*
X463756Y177441D01*
X460315D01*
Y197362D01*
X463756D01*
X463815Y197358D01*
X464050Y197376D01*
X464050Y197376D01*
X464280Y197431D01*
X464498Y197522D01*
X464699Y197645D01*
X464879Y197798D01*
X465032Y197978D01*
X465156Y198179D01*
X465246Y198397D01*
X465301Y198627D01*
X465320Y198862D01*
X465315Y198921D01*
Y205803D01*
X465320Y205862D01*
X465301Y206097D01*
X465301Y206098D01*
X465246Y206327D01*
X465156Y206545D01*
X465032Y206747D01*
X464879Y206926D01*
X464699Y207079D01*
X464498Y207203D01*
X464280Y207293D01*
X464050Y207348D01*
X463815Y207367D01*
X463756Y207362D01*
X460315D01*
Y227283D01*
X463756D01*
X463815Y227279D01*
X464050Y227297D01*
X464050Y227297D01*
X464280Y227352D01*
X464498Y227443D01*
X464699Y227566D01*
X464879Y227720D01*
X465032Y227899D01*
X465156Y228100D01*
X465246Y228319D01*
X465301Y228548D01*
X465320Y228783D01*
X465315Y228842D01*
Y235725D01*
X465320Y235783D01*
X465301Y236019D01*
X465301Y236019D01*
X465246Y236248D01*
X465156Y236467D01*
X465032Y236668D01*
X464879Y236847D01*
X464699Y237001D01*
X464498Y237124D01*
X464280Y237214D01*
X464050Y237270D01*
X463815Y237288D01*
X463756Y237283D01*
X460315D01*
Y257205D01*
X463756D01*
X463815Y257200D01*
X464050Y257219D01*
X464050Y257219D01*
X464280Y257274D01*
X464498Y257364D01*
X464699Y257487D01*
X464879Y257641D01*
X465032Y257820D01*
X465156Y258022D01*
X465246Y258240D01*
X465301Y258469D01*
X465320Y258705D01*
X465315Y258764D01*
Y265646D01*
X465320Y265705D01*
X465301Y265940D01*
X465301Y265940D01*
X465246Y266170D01*
X465156Y266388D01*
X465032Y266589D01*
X464879Y266769D01*
X464699Y266922D01*
X464498Y267045D01*
X464280Y267136D01*
X464050Y267191D01*
X463815Y267209D01*
X463756Y267205D01*
X460315D01*
Y287126D01*
X463756D01*
X463815Y287121D01*
X464050Y287140D01*
X464050Y287140D01*
X464280Y287195D01*
X464498Y287285D01*
X464699Y287409D01*
X464879Y287562D01*
X465032Y287742D01*
X465156Y287943D01*
X465246Y288161D01*
X465301Y288391D01*
X465320Y288626D01*
X465315Y288685D01*
Y295567D01*
X465320Y295626D01*
X465301Y295861D01*
X465301Y295861D01*
X465246Y296091D01*
X465156Y296309D01*
X465032Y296510D01*
X464879Y296690D01*
X464699Y296843D01*
X464498Y296967D01*
X464280Y297057D01*
X464050Y297112D01*
X463815Y297131D01*
X463756Y297126D01*
X460315D01*
Y317047D01*
X463756D01*
X463815Y317043D01*
X464050Y317061D01*
X464050Y317061D01*
X464280Y317116D01*
X464498Y317207D01*
X464699Y317330D01*
X464879Y317483D01*
X465032Y317663D01*
X465156Y317864D01*
X465246Y318082D01*
X465301Y318312D01*
X465320Y318547D01*
X465315Y318606D01*
Y325488D01*
X465320Y325547D01*
X465301Y325782D01*
X465301Y325783D01*
X465246Y326012D01*
X465156Y326230D01*
X465032Y326432D01*
X464879Y326611D01*
X464699Y326765D01*
X464498Y326888D01*
X464280Y326978D01*
X464050Y327033D01*
X463815Y327052D01*
X463756Y327047D01*
X460315D01*
Y346969D01*
X463756D01*
X463815Y346964D01*
X464050Y346982D01*
X464050Y346982D01*
X464280Y347038D01*
X464498Y347128D01*
X464699Y347251D01*
X464879Y347405D01*
X465032Y347584D01*
X465156Y347785D01*
X465246Y348004D01*
X465301Y348233D01*
X465320Y348469D01*
X465315Y348527D01*
Y355410D01*
X465320Y355469D01*
X465301Y355704D01*
X465301Y355704D01*
X465246Y355933D01*
X465156Y356152D01*
X465032Y356353D01*
X464879Y356532D01*
X464699Y356686D01*
X464498Y356809D01*
X464280Y356899D01*
X464050Y356955D01*
X463815Y356973D01*
X463756Y356969D01*
X460315D01*
Y376890D01*
X463756D01*
X463815Y376885D01*
X464050Y376904D01*
X464050Y376904D01*
X464280Y376959D01*
X464498Y377049D01*
X464699Y377172D01*
X464879Y377326D01*
X465032Y377505D01*
X465156Y377707D01*
X465246Y377925D01*
X465301Y378154D01*
X465320Y378390D01*
X465315Y378449D01*
Y385331D01*
X465320Y385390D01*
X465301Y385625D01*
X465301Y385625D01*
X465246Y385855D01*
X465156Y386073D01*
X465032Y386274D01*
X464879Y386454D01*
X464699Y386607D01*
X464498Y386730D01*
X464280Y386821D01*
X464050Y386876D01*
X463815Y386894D01*
X463756Y386890D01*
X460315D01*
Y406811D01*
X463756D01*
X463815Y406806D01*
X464050Y406825D01*
X464050Y406825D01*
X464280Y406880D01*
X464498Y406970D01*
X464699Y407094D01*
X464879Y407247D01*
X465032Y407427D01*
X465156Y407628D01*
X465246Y407846D01*
X465301Y408076D01*
X465320Y408311D01*
X465315Y408370D01*
Y415252D01*
X465320Y415311D01*
X465301Y415546D01*
X465301Y415546D01*
X465246Y415776D01*
X465156Y415994D01*
X465032Y416195D01*
X464879Y416375D01*
X464699Y416528D01*
X464498Y416652D01*
X464280Y416742D01*
X464050Y416797D01*
X463815Y416816D01*
X463756Y416811D01*
X460315D01*
Y436732D01*
X463756D01*
X463815Y436728D01*
X464050Y436746D01*
X464050Y436746D01*
X464280Y436801D01*
X464498Y436892D01*
X464699Y437015D01*
X464879Y437168D01*
X465032Y437348D01*
X465156Y437549D01*
X465246Y437767D01*
X465301Y437997D01*
X465320Y438232D01*
X465315Y438291D01*
Y445174D01*
X465320Y445232D01*
X465301Y445467D01*
X465301Y445468D01*
X465246Y445697D01*
X465156Y445915D01*
X465032Y446117D01*
X464879Y446296D01*
X464699Y446450D01*
X464498Y446573D01*
X464280Y446663D01*
X464050Y446718D01*
X463815Y446737D01*
X463756Y446732D01*
X460315D01*
Y455118D01*
G37*
G36*
Y177441D02*X456874D01*
X456815Y177446D01*
X456580Y177427D01*
X456580Y177427D01*
X456350Y177372D01*
X456132Y177282D01*
X455931Y177158D01*
X455751Y177005D01*
X455598Y176825D01*
X455474Y176624D01*
X455384Y176406D01*
X455329Y176176D01*
X455310Y175941D01*
X455315Y175882D01*
Y172441D01*
X455310Y172532D01*
Y202271D01*
X455315Y202362D01*
X455310Y202454D01*
Y232192D01*
X455315Y232283D01*
X455310Y232375D01*
Y262113D01*
X455315Y262205D01*
X455310Y262296D01*
Y292035D01*
X455315Y292126D01*
X455310Y292217D01*
Y321956D01*
X455315Y322047D01*
X455310Y322139D01*
Y351877D01*
X455315Y351969D01*
X455310Y352060D01*
Y381798D01*
X455315Y381890D01*
X455310Y381981D01*
Y411720D01*
X455315Y411811D01*
Y408370D01*
X455310Y408311D01*
X455329Y408076D01*
X455329Y408076D01*
X455384Y407846D01*
X455474Y407628D01*
X455598Y407427D01*
X455751Y407247D01*
X455931Y407094D01*
X456132Y406970D01*
X456350Y406880D01*
X456580Y406825D01*
X456815Y406806D01*
X456874Y406811D01*
X460315D01*
Y386890D01*
X456874D01*
X456815Y386894D01*
X456580Y386876D01*
X456580Y386876D01*
X456350Y386821D01*
X456132Y386730D01*
X455931Y386607D01*
X455751Y386454D01*
X455598Y386274D01*
X455474Y386073D01*
X455384Y385855D01*
X455329Y385625D01*
X455310Y385390D01*
X455315Y385331D01*
Y378449D01*
X455310Y378390D01*
X455329Y378155D01*
X455329Y378154D01*
X455384Y377925D01*
X455474Y377707D01*
X455598Y377505D01*
X455751Y377326D01*
X455931Y377172D01*
X456132Y377049D01*
X456350Y376959D01*
X456580Y376904D01*
X456815Y376885D01*
X456874Y376890D01*
X460315D01*
Y356969D01*
X456874D01*
X456815Y356973D01*
X456580Y356955D01*
X456580Y356955D01*
X456350Y356899D01*
X456132Y356809D01*
X455931Y356686D01*
X455751Y356532D01*
X455598Y356353D01*
X455474Y356152D01*
X455384Y355933D01*
X455329Y355704D01*
X455310Y355469D01*
X455315Y355410D01*
Y348527D01*
X455310Y348469D01*
X455329Y348233D01*
X455329Y348233D01*
X455384Y348004D01*
X455474Y347785D01*
X455598Y347584D01*
X455751Y347405D01*
X455931Y347251D01*
X456132Y347128D01*
X456350Y347038D01*
X456580Y346982D01*
X456815Y346964D01*
X456874Y346969D01*
X460315D01*
Y327047D01*
X456874D01*
X456815Y327052D01*
X456580Y327033D01*
X456580Y327033D01*
X456350Y326978D01*
X456132Y326888D01*
X455931Y326765D01*
X455751Y326611D01*
X455598Y326432D01*
X455474Y326230D01*
X455384Y326012D01*
X455329Y325783D01*
X455310Y325547D01*
X455315Y325488D01*
Y318606D01*
X455310Y318547D01*
X455329Y318312D01*
X455329Y318312D01*
X455384Y318082D01*
X455474Y317864D01*
X455598Y317663D01*
X455751Y317483D01*
X455931Y317330D01*
X456132Y317207D01*
X456350Y317116D01*
X456580Y317061D01*
X456815Y317043D01*
X456874Y317047D01*
X460315D01*
Y297126D01*
X456874D01*
X456815Y297131D01*
X456580Y297112D01*
X456580Y297112D01*
X456350Y297057D01*
X456132Y296967D01*
X455931Y296843D01*
X455751Y296690D01*
X455598Y296510D01*
X455474Y296309D01*
X455384Y296091D01*
X455329Y295861D01*
X455310Y295626D01*
X455315Y295567D01*
Y288685D01*
X455310Y288626D01*
X455329Y288391D01*
X455329Y288391D01*
X455384Y288161D01*
X455474Y287943D01*
X455598Y287742D01*
X455751Y287562D01*
X455931Y287409D01*
X456132Y287285D01*
X456350Y287195D01*
X456580Y287140D01*
X456815Y287121D01*
X456874Y287126D01*
X460315D01*
Y267205D01*
X456874D01*
X456815Y267209D01*
X456580Y267191D01*
X456580Y267191D01*
X456350Y267136D01*
X456132Y267045D01*
X455931Y266922D01*
X455751Y266769D01*
X455598Y266589D01*
X455474Y266388D01*
X455384Y266170D01*
X455329Y265940D01*
X455310Y265705D01*
X455315Y265646D01*
Y258764D01*
X455310Y258705D01*
X455329Y258470D01*
X455329Y258469D01*
X455384Y258240D01*
X455474Y258022D01*
X455598Y257820D01*
X455751Y257641D01*
X455931Y257487D01*
X456132Y257364D01*
X456350Y257274D01*
X456580Y257219D01*
X456815Y257200D01*
X456874Y257205D01*
X460315D01*
Y237283D01*
X456874D01*
X456815Y237288D01*
X456580Y237270D01*
X456580Y237270D01*
X456350Y237214D01*
X456132Y237124D01*
X455931Y237001D01*
X455751Y236847D01*
X455598Y236668D01*
X455474Y236467D01*
X455384Y236248D01*
X455329Y236019D01*
X455310Y235783D01*
X455315Y235725D01*
Y228842D01*
X455310Y228783D01*
X455329Y228548D01*
X455329Y228548D01*
X455384Y228319D01*
X455474Y228100D01*
X455598Y227899D01*
X455751Y227720D01*
X455931Y227566D01*
X456132Y227443D01*
X456350Y227352D01*
X456580Y227297D01*
X456815Y227279D01*
X456874Y227283D01*
X460315D01*
Y207362D01*
X456874D01*
X456815Y207367D01*
X456580Y207348D01*
X456580Y207348D01*
X456350Y207293D01*
X456132Y207203D01*
X455931Y207079D01*
X455751Y206926D01*
X455598Y206747D01*
X455474Y206545D01*
X455384Y206327D01*
X455329Y206098D01*
X455310Y205862D01*
X455315Y205803D01*
Y198921D01*
X455310Y198862D01*
X455329Y198627D01*
X455329Y198627D01*
X455384Y198397D01*
X455474Y198179D01*
X455598Y197978D01*
X455751Y197798D01*
X455931Y197645D01*
X456132Y197522D01*
X456350Y197431D01*
X456580Y197376D01*
X456815Y197358D01*
X456874Y197362D01*
X460315D01*
Y177441D01*
G37*
G36*
Y147520D02*X456874D01*
X456815Y147524D01*
X456580Y147506D01*
X456580Y147506D01*
X456350Y147451D01*
X456132Y147360D01*
X455931Y147237D01*
X455751Y147084D01*
X455598Y146904D01*
X455474Y146703D01*
X455384Y146485D01*
X455329Y146255D01*
X455310Y146020D01*
X455315Y145961D01*
Y142520D01*
X455310Y142611D01*
Y172350D01*
X455315Y172441D01*
Y169000D01*
X455310Y168941D01*
X455329Y168706D01*
X455329Y168706D01*
X455384Y168476D01*
X455474Y168258D01*
X455598Y168057D01*
X455751Y167877D01*
X455931Y167724D01*
X456132Y167600D01*
X456350Y167510D01*
X456580Y167455D01*
X456815Y167436D01*
X456874Y167441D01*
X460315D01*
Y147520D01*
G37*
G36*
Y50591D02*X455310D01*
Y77598D01*
X455803D01*
X455862Y77594D01*
X456097Y77612D01*
X456098Y77612D01*
X456327Y77667D01*
X456545Y77758D01*
X456747Y77881D01*
X456926Y78034D01*
X457079Y78214D01*
X457203Y78415D01*
X457293Y78633D01*
X457348Y78863D01*
X457367Y79098D01*
X457362Y79157D01*
Y86040D01*
X457367Y86098D01*
X457348Y86334D01*
X457348Y86334D01*
X457293Y86563D01*
X457203Y86782D01*
X457079Y86983D01*
X456926Y87162D01*
X456747Y87316D01*
X456545Y87439D01*
X456327Y87529D01*
X456098Y87585D01*
X455862Y87603D01*
X455803Y87598D01*
X455310D01*
Y112507D01*
X455315Y112598D01*
X455310Y112690D01*
Y142428D01*
X455315Y142520D01*
Y139078D01*
X455310Y139020D01*
X455329Y138785D01*
X455329Y138784D01*
X455384Y138555D01*
X455474Y138337D01*
X455598Y138135D01*
X455751Y137956D01*
X455931Y137802D01*
X456132Y137679D01*
X456350Y137589D01*
X456580Y137534D01*
X456815Y137515D01*
X456874Y137520D01*
X460315D01*
Y117598D01*
X456874D01*
X456815Y117603D01*
X456580Y117585D01*
X456580Y117585D01*
X456350Y117529D01*
X456132Y117439D01*
X455931Y117316D01*
X455751Y117162D01*
X455598Y116983D01*
X455474Y116782D01*
X455384Y116563D01*
X455329Y116334D01*
X455310Y116098D01*
X455315Y116040D01*
Y109157D01*
X455310Y109098D01*
X455329Y108863D01*
X455329Y108863D01*
X455384Y108633D01*
X455474Y108415D01*
X455598Y108214D01*
X455751Y108034D01*
X455931Y107881D01*
X456132Y107758D01*
X456350Y107667D01*
X456580Y107612D01*
X456815Y107594D01*
X456874Y107598D01*
X460315D01*
Y50591D01*
G37*
G36*
X455310Y455118D02*X460315D01*
Y446732D01*
X456874D01*
X456815Y446737D01*
X456580Y446718D01*
X456580Y446718D01*
X456350Y446663D01*
X456132Y446573D01*
X455931Y446450D01*
X455751Y446296D01*
X455598Y446117D01*
X455474Y445915D01*
X455384Y445697D01*
X455329Y445468D01*
X455310Y445232D01*
X455315Y445173D01*
Y438291D01*
X455310Y438232D01*
X455329Y437997D01*
X455329Y437997D01*
X455384Y437767D01*
X455474Y437549D01*
X455598Y437348D01*
X455751Y437168D01*
X455931Y437015D01*
X456132Y436892D01*
X456350Y436801D01*
X456580Y436746D01*
X456815Y436728D01*
X456874Y436732D01*
X460315D01*
Y416811D01*
X456874D01*
X456815Y416816D01*
X456580Y416797D01*
X456580Y416797D01*
X456350Y416742D01*
X456132Y416652D01*
X455931Y416528D01*
X455751Y416375D01*
X455598Y416195D01*
X455474Y415994D01*
X455384Y415776D01*
X455329Y415546D01*
X455310Y415311D01*
X455315Y415252D01*
Y411811D01*
X455310Y411902D01*
Y441641D01*
X455315Y441732D01*
X455310Y441824D01*
Y455118D01*
G37*
G36*
X438296Y79665D02*X438305Y79650D01*
X438816Y79052D01*
X439414Y78541D01*
X440085Y78130D01*
X440812Y77828D01*
X441578Y77645D01*
X442362Y77583D01*
X443147Y77645D01*
X443912Y77828D01*
X444639Y78130D01*
X445310Y78541D01*
X445909Y79052D01*
X446420Y79650D01*
X446831Y80321D01*
X447132Y81049D01*
X447316Y81814D01*
X447362Y82598D01*
Y79157D01*
X447358Y79098D01*
X447376Y78863D01*
X447376Y78863D01*
X447431Y78633D01*
X447522Y78415D01*
X447645Y78214D01*
X447798Y78034D01*
X447978Y77881D01*
X448179Y77758D01*
X448397Y77667D01*
X448627Y77612D01*
X448862Y77594D01*
X448921Y77598D01*
X455310D01*
Y50591D01*
X438296D01*
Y79665D01*
G37*
G36*
Y455118D02*X455310D01*
Y441824D01*
X455269Y442517D01*
X455085Y443282D01*
X454784Y444009D01*
X454373Y444680D01*
X453861Y445279D01*
X453263Y445790D01*
X452592Y446201D01*
X451865Y446502D01*
X451100Y446686D01*
X450315Y446748D01*
X449530Y446686D01*
X448765Y446502D01*
X448038Y446201D01*
X447367Y445790D01*
X446769Y445279D01*
X446257Y444680D01*
X445846Y444009D01*
X445545Y443282D01*
X445361Y442517D01*
X445300Y441732D01*
X445361Y440948D01*
X445545Y440182D01*
X445846Y439455D01*
X446257Y438784D01*
X446769Y438186D01*
X447367Y437675D01*
X448038Y437264D01*
X448765Y436962D01*
X449530Y436779D01*
X450315Y436717D01*
X451100Y436779D01*
X451865Y436962D01*
X452592Y437264D01*
X453263Y437675D01*
X453861Y438186D01*
X454373Y438784D01*
X454784Y439455D01*
X455085Y440182D01*
X455269Y440948D01*
X455310Y441641D01*
Y411902D01*
X455269Y412596D01*
X455085Y413361D01*
X454784Y414088D01*
X454373Y414759D01*
X453861Y415357D01*
X453263Y415869D01*
X452592Y416280D01*
X451865Y416581D01*
X451100Y416765D01*
X450315Y416826D01*
X449530Y416765D01*
X448765Y416581D01*
X448038Y416280D01*
X447367Y415869D01*
X446769Y415357D01*
X446257Y414759D01*
X445846Y414088D01*
X445545Y413361D01*
X445361Y412596D01*
X445300Y411811D01*
X445361Y411026D01*
X445545Y410261D01*
X445846Y409534D01*
X446257Y408863D01*
X446769Y408265D01*
X447367Y407753D01*
X448038Y407342D01*
X448765Y407041D01*
X449530Y406857D01*
X450315Y406796D01*
X451100Y406857D01*
X451865Y407041D01*
X452592Y407342D01*
X453263Y407753D01*
X453861Y408265D01*
X454373Y408863D01*
X454784Y409534D01*
X455085Y410261D01*
X455269Y411026D01*
X455310Y411720D01*
Y381981D01*
X455269Y382674D01*
X455085Y383440D01*
X454784Y384167D01*
X454373Y384838D01*
X453861Y385436D01*
X453263Y385947D01*
X452592Y386359D01*
X451865Y386660D01*
X451100Y386843D01*
X450315Y386905D01*
X449530Y386843D01*
X448765Y386660D01*
X448038Y386359D01*
X447367Y385947D01*
X446769Y385436D01*
X446257Y384838D01*
X445846Y384167D01*
X445545Y383440D01*
X445361Y382674D01*
X445300Y381890D01*
X445361Y381105D01*
X445545Y380340D01*
X445846Y379613D01*
X446257Y378942D01*
X446769Y378343D01*
X447367Y377832D01*
X448038Y377421D01*
X448765Y377120D01*
X449530Y376936D01*
X450315Y376874D01*
X451100Y376936D01*
X451865Y377120D01*
X452592Y377421D01*
X453263Y377832D01*
X453861Y378343D01*
X454373Y378942D01*
X454784Y379613D01*
X455085Y380340D01*
X455269Y381105D01*
X455310Y381798D01*
Y352060D01*
X455269Y352753D01*
X455085Y353518D01*
X454784Y354245D01*
X454373Y354916D01*
X453861Y355515D01*
X453263Y356026D01*
X452592Y356437D01*
X451865Y356738D01*
X451100Y356922D01*
X450315Y356984D01*
X449530Y356922D01*
X448765Y356738D01*
X448038Y356437D01*
X447367Y356026D01*
X446769Y355515D01*
X446257Y354916D01*
X445846Y354245D01*
X445545Y353518D01*
X445361Y352753D01*
X445300Y351969D01*
X445361Y351184D01*
X445545Y350419D01*
X445846Y349692D01*
X446257Y349021D01*
X446769Y348422D01*
X447367Y347911D01*
X448038Y347500D01*
X448765Y347199D01*
X449530Y347015D01*
X450315Y346953D01*
X451100Y347015D01*
X451865Y347199D01*
X452592Y347500D01*
X453263Y347911D01*
X453861Y348422D01*
X454373Y349021D01*
X454784Y349692D01*
X455085Y350419D01*
X455269Y351184D01*
X455310Y351877D01*
Y322139D01*
X455269Y322832D01*
X455085Y323597D01*
X454784Y324324D01*
X454373Y324995D01*
X453861Y325594D01*
X453263Y326105D01*
X452592Y326516D01*
X451865Y326817D01*
X451100Y327001D01*
X450315Y327063D01*
X449530Y327001D01*
X448765Y326817D01*
X448038Y326516D01*
X447367Y326105D01*
X446769Y325594D01*
X446257Y324995D01*
X445846Y324324D01*
X445545Y323597D01*
X445361Y322832D01*
X445300Y322047D01*
X445361Y321263D01*
X445545Y320497D01*
X445846Y319770D01*
X446257Y319099D01*
X446769Y318501D01*
X447367Y317990D01*
X448038Y317578D01*
X448765Y317277D01*
X449530Y317094D01*
X450315Y317032D01*
X451100Y317094D01*
X451865Y317277D01*
X452592Y317578D01*
X453263Y317990D01*
X453861Y318501D01*
X454373Y319099D01*
X454784Y319770D01*
X455085Y320497D01*
X455269Y321263D01*
X455310Y321956D01*
Y292217D01*
X455269Y292911D01*
X455085Y293676D01*
X454784Y294403D01*
X454373Y295074D01*
X453861Y295672D01*
X453263Y296184D01*
X452592Y296595D01*
X451865Y296896D01*
X451100Y297080D01*
X450315Y297141D01*
X449530Y297080D01*
X448765Y296896D01*
X448038Y296595D01*
X447367Y296184D01*
X446769Y295672D01*
X446257Y295074D01*
X445846Y294403D01*
X445545Y293676D01*
X445361Y292911D01*
X445300Y292126D01*
X445361Y291341D01*
X445545Y290576D01*
X445846Y289849D01*
X446257Y289178D01*
X446769Y288580D01*
X447367Y288068D01*
X448038Y287657D01*
X448765Y287356D01*
X449530Y287172D01*
X450315Y287111D01*
X451100Y287172D01*
X451865Y287356D01*
X452592Y287657D01*
X453263Y288068D01*
X453861Y288580D01*
X454373Y289178D01*
X454784Y289849D01*
X455085Y290576D01*
X455269Y291341D01*
X455310Y292035D01*
Y262296D01*
X455269Y262989D01*
X455085Y263755D01*
X454784Y264482D01*
X454373Y265153D01*
X453861Y265751D01*
X453263Y266262D01*
X452592Y266673D01*
X451865Y266975D01*
X451100Y267158D01*
X450315Y267220D01*
X449530Y267158D01*
X448765Y266975D01*
X448038Y266673D01*
X447367Y266262D01*
X446769Y265751D01*
X446257Y265153D01*
X445846Y264482D01*
X445545Y263755D01*
X445361Y262989D01*
X445300Y262205D01*
X445361Y261420D01*
X445545Y260655D01*
X445846Y259928D01*
X446257Y259257D01*
X446769Y258658D01*
X447367Y258147D01*
X448038Y257736D01*
X448765Y257435D01*
X449530Y257251D01*
X450315Y257189D01*
X451100Y257251D01*
X451865Y257435D01*
X452592Y257736D01*
X453263Y258147D01*
X453861Y258658D01*
X454373Y259257D01*
X454784Y259928D01*
X455085Y260655D01*
X455269Y261420D01*
X455310Y262113D01*
Y232375D01*
X455269Y233068D01*
X455085Y233833D01*
X454784Y234560D01*
X454373Y235231D01*
X453861Y235830D01*
X453263Y236341D01*
X452592Y236752D01*
X451865Y237053D01*
X451100Y237237D01*
X450315Y237299D01*
X449530Y237237D01*
X448765Y237053D01*
X448038Y236752D01*
X447367Y236341D01*
X446769Y235830D01*
X446257Y235231D01*
X445846Y234560D01*
X445545Y233833D01*
X445361Y233068D01*
X445300Y232283D01*
X445361Y231499D01*
X445545Y230734D01*
X445846Y230007D01*
X446257Y229335D01*
X446769Y228737D01*
X447367Y228226D01*
X448038Y227815D01*
X448765Y227514D01*
X449530Y227330D01*
X450315Y227268D01*
X451100Y227330D01*
X451865Y227514D01*
X452592Y227815D01*
X453263Y228226D01*
X453861Y228737D01*
X454373Y229335D01*
X454784Y230007D01*
X455085Y230734D01*
X455269Y231499D01*
X455310Y232192D01*
Y202454D01*
X455269Y203147D01*
X455085Y203912D01*
X454784Y204639D01*
X454373Y205310D01*
X453861Y205909D01*
X453263Y206420D01*
X452592Y206831D01*
X451865Y207132D01*
X451100Y207316D01*
X450315Y207378D01*
X449530Y207316D01*
X448765Y207132D01*
X448038Y206831D01*
X447367Y206420D01*
X446769Y205909D01*
X446257Y205310D01*
X445846Y204639D01*
X445545Y203912D01*
X445361Y203147D01*
X445300Y202362D01*
X445361Y201578D01*
X445545Y200812D01*
X445846Y200085D01*
X446257Y199414D01*
X446769Y198816D01*
X447367Y198305D01*
X448038Y197893D01*
X448765Y197592D01*
X449530Y197409D01*
X450315Y197347D01*
X451100Y197409D01*
X451865Y197592D01*
X452592Y197893D01*
X453263Y198305D01*
X453861Y198816D01*
X454373Y199414D01*
X454784Y200085D01*
X455085Y200812D01*
X455269Y201578D01*
X455310Y202271D01*
Y172532D01*
X455269Y173226D01*
X455085Y173991D01*
X454784Y174718D01*
X454373Y175389D01*
X453861Y175987D01*
X453263Y176499D01*
X452592Y176910D01*
X451865Y177211D01*
X451100Y177395D01*
X450315Y177456D01*
X449530Y177395D01*
X448765Y177211D01*
X448038Y176910D01*
X447367Y176499D01*
X446769Y175987D01*
X446257Y175389D01*
X445846Y174718D01*
X445545Y173991D01*
X445361Y173226D01*
X445300Y172441D01*
X445361Y171656D01*
X445545Y170891D01*
X445846Y170164D01*
X446257Y169493D01*
X446769Y168895D01*
X447367Y168383D01*
X448038Y167972D01*
X448765Y167671D01*
X449530Y167487D01*
X450315Y167426D01*
X451100Y167487D01*
X451865Y167671D01*
X452592Y167972D01*
X453263Y168383D01*
X453861Y168895D01*
X454373Y169493D01*
X454784Y170164D01*
X455085Y170891D01*
X455269Y171656D01*
X455310Y172350D01*
Y142611D01*
X455269Y143304D01*
X455085Y144070D01*
X454784Y144797D01*
X454373Y145468D01*
X453861Y146066D01*
X453263Y146577D01*
X452592Y146988D01*
X451865Y147290D01*
X451100Y147473D01*
X450315Y147535D01*
X449530Y147473D01*
X448765Y147290D01*
X448038Y146988D01*
X447367Y146577D01*
X446769Y146066D01*
X446257Y145468D01*
X445846Y144797D01*
X445545Y144070D01*
X445361Y143304D01*
X445300Y142520D01*
X445361Y141735D01*
X445545Y140970D01*
X445846Y140243D01*
X446257Y139572D01*
X446769Y138973D01*
X447367Y138462D01*
X448038Y138051D01*
X448765Y137750D01*
X449530Y137566D01*
X450315Y137504D01*
X451100Y137566D01*
X451865Y137750D01*
X452592Y138051D01*
X453263Y138462D01*
X453861Y138973D01*
X454373Y139572D01*
X454784Y140243D01*
X455085Y140970D01*
X455269Y141735D01*
X455310Y142428D01*
Y112690D01*
X455269Y113383D01*
X455085Y114148D01*
X454784Y114875D01*
X454373Y115546D01*
X453861Y116145D01*
X453263Y116656D01*
X452592Y117067D01*
X451865Y117368D01*
X451100Y117552D01*
X450315Y117614D01*
X449530Y117552D01*
X448765Y117368D01*
X448038Y117067D01*
X447367Y116656D01*
X446769Y116145D01*
X446257Y115546D01*
X445846Y114875D01*
X445545Y114148D01*
X445361Y113383D01*
X445300Y112598D01*
X445361Y111814D01*
X445545Y111049D01*
X445846Y110321D01*
X446257Y109650D01*
X446769Y109052D01*
X447367Y108541D01*
X448038Y108130D01*
X448765Y107828D01*
X449530Y107645D01*
X450315Y107583D01*
X451100Y107645D01*
X451865Y107828D01*
X452592Y108130D01*
X453263Y108541D01*
X453861Y109052D01*
X454373Y109650D01*
X454784Y110321D01*
X455085Y111049D01*
X455269Y111814D01*
X455310Y112507D01*
Y87598D01*
X448921D01*
X448862Y87603D01*
X448627Y87585D01*
X448627Y87585D01*
X448397Y87529D01*
X448179Y87439D01*
X447978Y87316D01*
X447798Y87162D01*
X447645Y86983D01*
X447522Y86782D01*
X447431Y86563D01*
X447376Y86334D01*
X447358Y86098D01*
X447362Y86040D01*
Y82598D01*
X447316Y83383D01*
X447132Y84148D01*
X446831Y84875D01*
X446420Y85546D01*
X445909Y86145D01*
X445310Y86656D01*
X444639Y87067D01*
X443912Y87368D01*
X443147Y87552D01*
X442362Y87614D01*
X441578Y87552D01*
X440812Y87368D01*
X440085Y87067D01*
X439414Y86656D01*
X438816Y86145D01*
X438305Y85546D01*
X438296Y85532D01*
Y424033D01*
X438307Y424032D01*
X439481Y424124D01*
X440626Y424399D01*
X441714Y424850D01*
X442717Y425465D01*
X443613Y426230D01*
X444377Y427125D01*
X444993Y428129D01*
X445443Y429217D01*
X445718Y430362D01*
X445787Y431535D01*
X445718Y432709D01*
X445443Y433854D01*
X444993Y434942D01*
X444377Y435946D01*
X443613Y436841D01*
X442717Y437606D01*
X441714Y438221D01*
X440626Y438672D01*
X439481Y438946D01*
X438307Y439039D01*
X438296Y439038D01*
Y455118D01*
G37*
G36*
X424331D02*X438296D01*
Y439038D01*
X437133Y438946D01*
X435988Y438672D01*
X434901Y438221D01*
X433897Y437606D01*
X433001Y436841D01*
X432237Y435946D01*
X431622Y434942D01*
X431171Y433854D01*
X430896Y432709D01*
X430804Y431535D01*
X430896Y430362D01*
X431171Y429217D01*
X431622Y428129D01*
X432237Y427125D01*
X433001Y426230D01*
X433897Y425465D01*
X434901Y424850D01*
X435988Y424399D01*
X437133Y424124D01*
X438296Y424033D01*
Y85532D01*
X437893Y84875D01*
X437592Y84148D01*
X437409Y83383D01*
X437347Y82598D01*
X437409Y81814D01*
X437592Y81049D01*
X437893Y80321D01*
X438296Y79665D01*
Y50591D01*
X424331D01*
Y77598D01*
X425803D01*
X425862Y77594D01*
X426097Y77612D01*
X426098Y77612D01*
X426327Y77667D01*
X426545Y77758D01*
X426747Y77881D01*
X426926Y78034D01*
X427079Y78214D01*
X427203Y78415D01*
X427293Y78633D01*
X427348Y78863D01*
X427367Y79098D01*
X427362Y79157D01*
Y86040D01*
X427367Y86098D01*
X427348Y86334D01*
X427348Y86334D01*
X427293Y86563D01*
X427203Y86782D01*
X427079Y86983D01*
X426926Y87162D01*
X426747Y87316D01*
X426545Y87439D01*
X426327Y87529D01*
X426098Y87585D01*
X425862Y87603D01*
X425803Y87598D01*
X424331D01*
Y107598D01*
X427772D01*
X427831Y107594D01*
X428066Y107612D01*
X428066Y107612D01*
X428296Y107667D01*
X428514Y107758D01*
X428715Y107881D01*
X428895Y108034D01*
X429048Y108214D01*
X429171Y108415D01*
X429262Y108633D01*
X429317Y108863D01*
X429335Y109098D01*
X429331Y109157D01*
Y116040D01*
X429335Y116098D01*
X429317Y116334D01*
X429317Y116334D01*
X429262Y116563D01*
X429171Y116782D01*
X429048Y116983D01*
X428895Y117162D01*
X428715Y117316D01*
X428514Y117439D01*
X428296Y117529D01*
X428066Y117585D01*
X427831Y117603D01*
X427772Y117598D01*
X424331D01*
Y137520D01*
X427772D01*
X427831Y137515D01*
X428066Y137534D01*
X428066Y137534D01*
X428296Y137589D01*
X428514Y137679D01*
X428715Y137802D01*
X428895Y137956D01*
X429048Y138135D01*
X429171Y138337D01*
X429262Y138555D01*
X429317Y138784D01*
X429335Y139020D01*
X429331Y139079D01*
Y145961D01*
X429335Y146020D01*
X429317Y146255D01*
X429317Y146255D01*
X429262Y146485D01*
X429171Y146703D01*
X429048Y146904D01*
X428895Y147084D01*
X428715Y147237D01*
X428514Y147360D01*
X428296Y147451D01*
X428066Y147506D01*
X427831Y147524D01*
X427772Y147520D01*
X424331D01*
Y167441D01*
X427772D01*
X427831Y167436D01*
X428066Y167455D01*
X428066Y167455D01*
X428296Y167510D01*
X428514Y167600D01*
X428715Y167724D01*
X428895Y167877D01*
X429048Y168057D01*
X429171Y168258D01*
X429262Y168476D01*
X429317Y168706D01*
X429335Y168941D01*
X429331Y169000D01*
Y175882D01*
X429335Y175941D01*
X429317Y176176D01*
X429317Y176176D01*
X429262Y176406D01*
X429171Y176624D01*
X429048Y176825D01*
X428895Y177005D01*
X428715Y177158D01*
X428514Y177282D01*
X428296Y177372D01*
X428066Y177427D01*
X427831Y177446D01*
X427772Y177441D01*
X424331D01*
Y197362D01*
X427772D01*
X427831Y197358D01*
X428066Y197376D01*
X428066Y197376D01*
X428296Y197431D01*
X428514Y197522D01*
X428715Y197645D01*
X428895Y197798D01*
X429048Y197978D01*
X429171Y198179D01*
X429262Y198397D01*
X429317Y198627D01*
X429335Y198862D01*
X429331Y198921D01*
Y205803D01*
X429335Y205862D01*
X429317Y206097D01*
X429317Y206098D01*
X429262Y206327D01*
X429171Y206545D01*
X429048Y206747D01*
X428895Y206926D01*
X428715Y207079D01*
X428514Y207203D01*
X428296Y207293D01*
X428066Y207348D01*
X427831Y207367D01*
X427772Y207362D01*
X424331D01*
Y227283D01*
X427772D01*
X427831Y227279D01*
X428066Y227297D01*
X428066Y227297D01*
X428296Y227352D01*
X428514Y227443D01*
X428715Y227566D01*
X428895Y227720D01*
X429048Y227899D01*
X429171Y228100D01*
X429262Y228319D01*
X429317Y228548D01*
X429335Y228783D01*
X429331Y228842D01*
Y235725D01*
X429335Y235783D01*
X429317Y236019D01*
X429317Y236019D01*
X429262Y236248D01*
X429171Y236467D01*
X429048Y236668D01*
X428895Y236847D01*
X428715Y237001D01*
X428514Y237124D01*
X428296Y237214D01*
X428066Y237270D01*
X427831Y237288D01*
X427772Y237283D01*
X424331D01*
Y257205D01*
X427772D01*
X427831Y257200D01*
X428066Y257219D01*
X428066Y257219D01*
X428296Y257274D01*
X428514Y257364D01*
X428715Y257487D01*
X428895Y257641D01*
X429048Y257820D01*
X429171Y258022D01*
X429262Y258240D01*
X429317Y258469D01*
X429335Y258705D01*
X429331Y258764D01*
Y265646D01*
X429335Y265705D01*
X429317Y265940D01*
X429317Y265940D01*
X429262Y266170D01*
X429171Y266388D01*
X429048Y266589D01*
X428895Y266769D01*
X428715Y266922D01*
X428514Y267045D01*
X428296Y267136D01*
X428066Y267191D01*
X427831Y267209D01*
X427772Y267205D01*
X424331D01*
Y287126D01*
X427772D01*
X427831Y287121D01*
X428066Y287140D01*
X428066Y287140D01*
X428296Y287195D01*
X428514Y287285D01*
X428715Y287409D01*
X428895Y287562D01*
X429048Y287742D01*
X429171Y287943D01*
X429262Y288161D01*
X429317Y288391D01*
X429335Y288626D01*
X429331Y288685D01*
Y295567D01*
X429335Y295626D01*
X429317Y295861D01*
X429317Y295861D01*
X429262Y296091D01*
X429171Y296309D01*
X429048Y296510D01*
X428895Y296690D01*
X428715Y296843D01*
X428514Y296967D01*
X428296Y297057D01*
X428066Y297112D01*
X427831Y297131D01*
X427772Y297126D01*
X424331D01*
Y317047D01*
X427772D01*
X427831Y317043D01*
X428066Y317061D01*
X428066Y317061D01*
X428296Y317116D01*
X428514Y317207D01*
X428715Y317330D01*
X428895Y317483D01*
X429048Y317663D01*
X429171Y317864D01*
X429262Y318082D01*
X429317Y318312D01*
X429335Y318547D01*
X429331Y318606D01*
Y325488D01*
X429335Y325547D01*
X429317Y325782D01*
X429317Y325783D01*
X429262Y326012D01*
X429171Y326230D01*
X429048Y326432D01*
X428895Y326611D01*
X428715Y326765D01*
X428514Y326888D01*
X428296Y326978D01*
X428066Y327033D01*
X427831Y327052D01*
X427772Y327047D01*
X424331D01*
Y346969D01*
X427772D01*
X427831Y346964D01*
X428066Y346982D01*
X428066Y346982D01*
X428296Y347038D01*
X428514Y347128D01*
X428715Y347251D01*
X428895Y347405D01*
X429048Y347584D01*
X429171Y347785D01*
X429262Y348004D01*
X429317Y348233D01*
X429335Y348469D01*
X429331Y348527D01*
Y355410D01*
X429335Y355469D01*
X429317Y355704D01*
X429317Y355704D01*
X429262Y355933D01*
X429171Y356152D01*
X429048Y356353D01*
X428895Y356532D01*
X428715Y356686D01*
X428514Y356809D01*
X428296Y356899D01*
X428066Y356955D01*
X427831Y356973D01*
X427772Y356969D01*
X424331D01*
Y376890D01*
X427772D01*
X427831Y376885D01*
X428066Y376904D01*
X428066Y376904D01*
X428296Y376959D01*
X428514Y377049D01*
X428715Y377172D01*
X428895Y377326D01*
X429048Y377505D01*
X429171Y377707D01*
X429262Y377925D01*
X429317Y378154D01*
X429335Y378390D01*
X429331Y378449D01*
Y385331D01*
X429335Y385390D01*
X429317Y385625D01*
X429317Y385625D01*
X429262Y385855D01*
X429171Y386073D01*
X429048Y386274D01*
X428895Y386454D01*
X428715Y386607D01*
X428514Y386730D01*
X428296Y386821D01*
X428066Y386876D01*
X427831Y386894D01*
X427772Y386890D01*
X424331D01*
Y406811D01*
X427772D01*
X427831Y406806D01*
X428066Y406825D01*
X428066Y406825D01*
X428296Y406880D01*
X428514Y406970D01*
X428715Y407094D01*
X428895Y407247D01*
X429048Y407427D01*
X429171Y407628D01*
X429262Y407846D01*
X429317Y408076D01*
X429335Y408311D01*
X429331Y408370D01*
Y415252D01*
X429335Y415311D01*
X429317Y415546D01*
X429317Y415546D01*
X429262Y415776D01*
X429171Y415994D01*
X429048Y416195D01*
X428895Y416375D01*
X428715Y416528D01*
X428514Y416652D01*
X428296Y416742D01*
X428066Y416797D01*
X427831Y416816D01*
X427772Y416811D01*
X424331D01*
Y436732D01*
X427772D01*
X427831Y436728D01*
X428066Y436746D01*
X428066Y436746D01*
X428296Y436801D01*
X428514Y436892D01*
X428715Y437015D01*
X428895Y437168D01*
X429048Y437348D01*
X429171Y437549D01*
X429262Y437767D01*
X429317Y437997D01*
X429335Y438232D01*
X429331Y438291D01*
Y445174D01*
X429335Y445232D01*
X429317Y445467D01*
X429317Y445468D01*
X429262Y445697D01*
X429171Y445915D01*
X429048Y446117D01*
X428895Y446296D01*
X428715Y446450D01*
X428514Y446573D01*
X428296Y446663D01*
X428066Y446718D01*
X427831Y446737D01*
X427772Y446732D01*
X424331D01*
Y455118D01*
G37*
G36*
X414323Y167426D02*X414331Y167426D01*
X415115Y167487D01*
X415881Y167671D01*
X416608Y167972D01*
X417279Y168383D01*
X417877Y168895D01*
X418388Y169493D01*
X418799Y170164D01*
X419101Y170891D01*
X419284Y171656D01*
X419331Y172441D01*
Y169000D01*
X419326Y168941D01*
X419345Y168706D01*
X419345Y168706D01*
X419400Y168476D01*
X419490Y168258D01*
X419613Y168057D01*
X419767Y167877D01*
X419946Y167724D01*
X420148Y167600D01*
X420366Y167510D01*
X420595Y167455D01*
X420831Y167436D01*
X420890Y167441D01*
X424331D01*
Y147520D01*
X420889D01*
X420831Y147524D01*
X420596Y147506D01*
X420595Y147506D01*
X420366Y147451D01*
X420148Y147360D01*
X419946Y147237D01*
X419767Y147084D01*
X419613Y146904D01*
X419490Y146703D01*
X419400Y146485D01*
X419345Y146255D01*
X419326Y146020D01*
X419331Y145961D01*
Y139078D01*
X419326Y139020D01*
X419345Y138785D01*
X419345Y138784D01*
X419400Y138555D01*
X419490Y138337D01*
X419613Y138135D01*
X419767Y137956D01*
X419946Y137802D01*
X420148Y137679D01*
X420366Y137589D01*
X420595Y137534D01*
X420831Y137515D01*
X420890Y137520D01*
X424331D01*
Y117598D01*
X420889D01*
X420831Y117603D01*
X420596Y117585D01*
X420595Y117585D01*
X420366Y117529D01*
X420148Y117439D01*
X419946Y117316D01*
X419767Y117162D01*
X419613Y116983D01*
X419490Y116782D01*
X419400Y116563D01*
X419345Y116334D01*
X419326Y116098D01*
X419331Y116040D01*
Y109157D01*
X419326Y109098D01*
X419345Y108863D01*
X419345Y108863D01*
X419400Y108633D01*
X419490Y108415D01*
X419613Y108214D01*
X419767Y108034D01*
X419946Y107881D01*
X420148Y107758D01*
X420366Y107667D01*
X420595Y107612D01*
X420831Y107594D01*
X420890Y107598D01*
X424331D01*
Y87598D01*
X418921D01*
X418862Y87603D01*
X418627Y87585D01*
X418627Y87585D01*
X418397Y87529D01*
X418179Y87439D01*
X417978Y87316D01*
X417798Y87162D01*
X417645Y86983D01*
X417522Y86782D01*
X417431Y86563D01*
X417376Y86334D01*
X417358Y86098D01*
X417362Y86040D01*
Y79157D01*
X417358Y79098D01*
X417376Y78863D01*
X417376Y78863D01*
X417431Y78633D01*
X417522Y78415D01*
X417645Y78214D01*
X417798Y78034D01*
X417978Y77881D01*
X418179Y77758D01*
X418397Y77667D01*
X418627Y77612D01*
X418862Y77594D01*
X418921Y77598D01*
X424331D01*
Y50591D01*
X414323D01*
Y77999D01*
X414639Y78130D01*
X415310Y78541D01*
X415909Y79052D01*
X416420Y79650D01*
X416831Y80321D01*
X417132Y81049D01*
X417316Y81814D01*
X417362Y82598D01*
X417316Y83383D01*
X417132Y84148D01*
X416831Y84875D01*
X416420Y85546D01*
X415909Y86145D01*
X415310Y86656D01*
X414639Y87067D01*
X414323Y87198D01*
Y107584D01*
X414331Y107583D01*
X415115Y107645D01*
X415881Y107828D01*
X416608Y108130D01*
X417279Y108541D01*
X417877Y109052D01*
X418388Y109650D01*
X418799Y110321D01*
X419101Y111049D01*
X419284Y111814D01*
X419331Y112598D01*
X419284Y113383D01*
X419101Y114148D01*
X418799Y114875D01*
X418388Y115546D01*
X417877Y116145D01*
X417279Y116656D01*
X416608Y117067D01*
X415881Y117368D01*
X415115Y117552D01*
X414331Y117614D01*
X414323Y117613D01*
Y137505D01*
X414331Y137504D01*
X415115Y137566D01*
X415881Y137750D01*
X416608Y138051D01*
X417279Y138462D01*
X417877Y138973D01*
X418388Y139572D01*
X418799Y140243D01*
X419101Y140970D01*
X419284Y141735D01*
X419331Y142520D01*
X419284Y143304D01*
X419101Y144070D01*
X418799Y144797D01*
X418388Y145468D01*
X417877Y146066D01*
X417279Y146577D01*
X416608Y146988D01*
X415881Y147290D01*
X415115Y147473D01*
X414331Y147535D01*
X414323Y147534D01*
Y167426D01*
G37*
G36*
Y455118D02*X424331D01*
Y446732D01*
X420889D01*
X420831Y446737D01*
X420596Y446718D01*
X420595Y446718D01*
X420366Y446663D01*
X420148Y446573D01*
X419946Y446450D01*
X419767Y446296D01*
X419613Y446117D01*
X419490Y445915D01*
X419400Y445697D01*
X419345Y445468D01*
X419326Y445232D01*
X419331Y445173D01*
Y438291D01*
X419326Y438232D01*
X419345Y437997D01*
X419345Y437997D01*
X419400Y437767D01*
X419490Y437549D01*
X419613Y437348D01*
X419767Y437168D01*
X419946Y437015D01*
X420148Y436892D01*
X420366Y436801D01*
X420595Y436746D01*
X420831Y436728D01*
X420890Y436732D01*
X424331D01*
Y416811D01*
X420889D01*
X420831Y416816D01*
X420596Y416797D01*
X420595Y416797D01*
X420366Y416742D01*
X420148Y416652D01*
X419946Y416528D01*
X419767Y416375D01*
X419613Y416195D01*
X419490Y415994D01*
X419400Y415776D01*
X419345Y415546D01*
X419326Y415311D01*
X419331Y415252D01*
Y408370D01*
X419326Y408311D01*
X419345Y408076D01*
X419345Y408076D01*
X419400Y407846D01*
X419490Y407628D01*
X419613Y407427D01*
X419767Y407247D01*
X419946Y407094D01*
X420148Y406970D01*
X420366Y406880D01*
X420595Y406825D01*
X420831Y406806D01*
X420890Y406811D01*
X424331D01*
Y386890D01*
X420889D01*
X420831Y386894D01*
X420596Y386876D01*
X420595Y386876D01*
X420366Y386821D01*
X420148Y386730D01*
X419946Y386607D01*
X419767Y386454D01*
X419613Y386274D01*
X419490Y386073D01*
X419400Y385855D01*
X419345Y385625D01*
X419326Y385390D01*
X419331Y385331D01*
Y378449D01*
X419326Y378390D01*
X419345Y378155D01*
X419345Y378154D01*
X419400Y377925D01*
X419490Y377707D01*
X419613Y377505D01*
X419767Y377326D01*
X419946Y377172D01*
X420148Y377049D01*
X420366Y376959D01*
X420595Y376904D01*
X420831Y376885D01*
X420890Y376890D01*
X424331D01*
Y356969D01*
X420889D01*
X420831Y356973D01*
X420596Y356955D01*
X420595Y356955D01*
X420366Y356899D01*
X420148Y356809D01*
X419946Y356686D01*
X419767Y356532D01*
X419613Y356353D01*
X419490Y356152D01*
X419400Y355933D01*
X419345Y355704D01*
X419326Y355469D01*
X419331Y355410D01*
Y348527D01*
X419326Y348469D01*
X419345Y348233D01*
X419345Y348233D01*
X419400Y348004D01*
X419490Y347785D01*
X419613Y347584D01*
X419767Y347405D01*
X419946Y347251D01*
X420148Y347128D01*
X420366Y347038D01*
X420595Y346982D01*
X420831Y346964D01*
X420890Y346969D01*
X424331D01*
Y327047D01*
X420889D01*
X420831Y327052D01*
X420596Y327033D01*
X420595Y327033D01*
X420366Y326978D01*
X420148Y326888D01*
X419946Y326765D01*
X419767Y326611D01*
X419613Y326432D01*
X419490Y326230D01*
X419400Y326012D01*
X419345Y325783D01*
X419326Y325547D01*
X419331Y325488D01*
Y318606D01*
X419326Y318547D01*
X419345Y318312D01*
X419345Y318312D01*
X419400Y318082D01*
X419490Y317864D01*
X419613Y317663D01*
X419767Y317483D01*
X419946Y317330D01*
X420148Y317207D01*
X420366Y317116D01*
X420595Y317061D01*
X420831Y317043D01*
X420890Y317047D01*
X424331D01*
Y297126D01*
X420889D01*
X420831Y297131D01*
X420596Y297112D01*
X420595Y297112D01*
X420366Y297057D01*
X420148Y296967D01*
X419946Y296843D01*
X419767Y296690D01*
X419613Y296510D01*
X419490Y296309D01*
X419400Y296091D01*
X419345Y295861D01*
X419326Y295626D01*
X419331Y295567D01*
Y288685D01*
X419326Y288626D01*
X419345Y288391D01*
X419345Y288391D01*
X419400Y288161D01*
X419490Y287943D01*
X419613Y287742D01*
X419767Y287562D01*
X419946Y287409D01*
X420148Y287285D01*
X420366Y287195D01*
X420595Y287140D01*
X420831Y287121D01*
X420890Y287126D01*
X424331D01*
Y267205D01*
X420889D01*
X420831Y267209D01*
X420596Y267191D01*
X420595Y267191D01*
X420366Y267136D01*
X420148Y267045D01*
X419946Y266922D01*
X419767Y266769D01*
X419613Y266589D01*
X419490Y266388D01*
X419400Y266170D01*
X419345Y265940D01*
X419326Y265705D01*
X419331Y265646D01*
Y258764D01*
X419326Y258705D01*
X419345Y258470D01*
X419345Y258469D01*
X419400Y258240D01*
X419490Y258022D01*
X419613Y257820D01*
X419767Y257641D01*
X419946Y257487D01*
X420148Y257364D01*
X420366Y257274D01*
X420595Y257219D01*
X420831Y257200D01*
X420890Y257205D01*
X424331D01*
Y237283D01*
X420889D01*
X420831Y237288D01*
X420596Y237270D01*
X420595Y237270D01*
X420366Y237214D01*
X420148Y237124D01*
X419946Y237001D01*
X419767Y236847D01*
X419613Y236668D01*
X419490Y236467D01*
X419400Y236248D01*
X419345Y236019D01*
X419326Y235783D01*
X419331Y235725D01*
Y228842D01*
X419326Y228783D01*
X419345Y228548D01*
X419345Y228548D01*
X419400Y228319D01*
X419490Y228100D01*
X419613Y227899D01*
X419767Y227720D01*
X419946Y227566D01*
X420148Y227443D01*
X420366Y227352D01*
X420595Y227297D01*
X420831Y227279D01*
X420890Y227283D01*
X424331D01*
Y207362D01*
X420889D01*
X420831Y207367D01*
X420596Y207348D01*
X420595Y207348D01*
X420366Y207293D01*
X420148Y207203D01*
X419946Y207079D01*
X419767Y206926D01*
X419613Y206747D01*
X419490Y206545D01*
X419400Y206327D01*
X419345Y206098D01*
X419326Y205862D01*
X419331Y205803D01*
Y198921D01*
X419326Y198862D01*
X419345Y198627D01*
X419345Y198627D01*
X419400Y198397D01*
X419490Y198179D01*
X419613Y197978D01*
X419767Y197798D01*
X419946Y197645D01*
X420148Y197522D01*
X420366Y197431D01*
X420595Y197376D01*
X420831Y197358D01*
X420890Y197362D01*
X424331D01*
Y177441D01*
X420889D01*
X420831Y177446D01*
X420596Y177427D01*
X420595Y177427D01*
X420366Y177372D01*
X420148Y177282D01*
X419946Y177158D01*
X419767Y177005D01*
X419613Y176825D01*
X419490Y176624D01*
X419400Y176406D01*
X419345Y176176D01*
X419326Y175941D01*
X419331Y175882D01*
Y172441D01*
X419284Y173226D01*
X419101Y173991D01*
X418799Y174718D01*
X418388Y175389D01*
X417877Y175987D01*
X417279Y176499D01*
X416608Y176910D01*
X415881Y177211D01*
X415115Y177395D01*
X414331Y177456D01*
X414323Y177456D01*
Y197347D01*
X414331Y197347D01*
X415115Y197409D01*
X415881Y197592D01*
X416608Y197893D01*
X417279Y198305D01*
X417877Y198816D01*
X418388Y199414D01*
X418799Y200085D01*
X419101Y200812D01*
X419284Y201578D01*
X419331Y202362D01*
X419284Y203147D01*
X419101Y203912D01*
X418799Y204639D01*
X418388Y205310D01*
X417877Y205909D01*
X417279Y206420D01*
X416608Y206831D01*
X415881Y207132D01*
X415115Y207316D01*
X414331Y207378D01*
X414323Y207377D01*
Y227269D01*
X414331Y227268D01*
X415115Y227330D01*
X415881Y227514D01*
X416608Y227815D01*
X417279Y228226D01*
X417877Y228737D01*
X418388Y229335D01*
X418799Y230007D01*
X419101Y230734D01*
X419284Y231499D01*
X419331Y232283D01*
X419284Y233068D01*
X419101Y233833D01*
X418799Y234560D01*
X418388Y235231D01*
X417877Y235830D01*
X417279Y236341D01*
X416608Y236752D01*
X415881Y237053D01*
X415115Y237237D01*
X414331Y237299D01*
X414323Y237298D01*
Y257190D01*
X414331Y257189D01*
X415115Y257251D01*
X415881Y257435D01*
X416608Y257736D01*
X417279Y258147D01*
X417877Y258658D01*
X418388Y259257D01*
X418799Y259928D01*
X419101Y260655D01*
X419284Y261420D01*
X419331Y262205D01*
X419284Y262989D01*
X419101Y263755D01*
X418799Y264482D01*
X418388Y265153D01*
X417877Y265751D01*
X417279Y266262D01*
X416608Y266673D01*
X415881Y266975D01*
X415115Y267158D01*
X414331Y267220D01*
X414323Y267220D01*
Y287111D01*
X414331Y287111D01*
X415115Y287172D01*
X415881Y287356D01*
X416608Y287657D01*
X417279Y288068D01*
X417877Y288580D01*
X418388Y289178D01*
X418799Y289849D01*
X419101Y290576D01*
X419284Y291341D01*
X419331Y292126D01*
X419284Y292911D01*
X419101Y293676D01*
X418799Y294403D01*
X418388Y295074D01*
X417877Y295672D01*
X417279Y296184D01*
X416608Y296595D01*
X415881Y296896D01*
X415115Y297080D01*
X414331Y297141D01*
X414323Y297141D01*
Y317032D01*
X414331Y317032D01*
X415115Y317094D01*
X415881Y317277D01*
X416608Y317578D01*
X417279Y317990D01*
X417877Y318501D01*
X418388Y319099D01*
X418799Y319770D01*
X419101Y320497D01*
X419284Y321263D01*
X419331Y322047D01*
X419284Y322832D01*
X419101Y323597D01*
X418799Y324324D01*
X418388Y324995D01*
X417877Y325594D01*
X417279Y326105D01*
X416608Y326516D01*
X415881Y326817D01*
X415115Y327001D01*
X414331Y327063D01*
X414323Y327062D01*
Y346954D01*
X414331Y346953D01*
X415115Y347015D01*
X415881Y347199D01*
X416608Y347500D01*
X417279Y347911D01*
X417877Y348422D01*
X418388Y349021D01*
X418799Y349692D01*
X419101Y350419D01*
X419284Y351184D01*
X419331Y351969D01*
X419284Y352753D01*
X419101Y353518D01*
X418799Y354245D01*
X418388Y354916D01*
X417877Y355515D01*
X417279Y356026D01*
X416608Y356437D01*
X415881Y356738D01*
X415115Y356922D01*
X414331Y356984D01*
X414323Y356983D01*
Y376875D01*
X414331Y376874D01*
X415115Y376936D01*
X415881Y377120D01*
X416608Y377421D01*
X417279Y377832D01*
X417877Y378343D01*
X418388Y378942D01*
X418799Y379613D01*
X419101Y380340D01*
X419284Y381105D01*
X419331Y381890D01*
X419284Y382674D01*
X419101Y383440D01*
X418799Y384167D01*
X418388Y384838D01*
X417877Y385436D01*
X417279Y385947D01*
X416608Y386359D01*
X415881Y386660D01*
X415115Y386843D01*
X414331Y386905D01*
X414323Y386905D01*
Y406796D01*
X414331Y406796D01*
X415115Y406857D01*
X415881Y407041D01*
X416608Y407342D01*
X417279Y407753D01*
X417877Y408265D01*
X418388Y408863D01*
X418799Y409534D01*
X419101Y410261D01*
X419284Y411026D01*
X419331Y411811D01*
X419284Y412596D01*
X419101Y413361D01*
X418799Y414088D01*
X418388Y414759D01*
X417877Y415357D01*
X417279Y415869D01*
X416608Y416280D01*
X415881Y416581D01*
X415115Y416765D01*
X414331Y416826D01*
X414323Y416826D01*
Y436717D01*
X414331Y436717D01*
X415115Y436779D01*
X415881Y436962D01*
X416608Y437264D01*
X417279Y437675D01*
X417877Y438186D01*
X418388Y438784D01*
X418799Y439455D01*
X419101Y440182D01*
X419284Y440948D01*
X419331Y441732D01*
X419284Y442517D01*
X419101Y443282D01*
X418799Y444009D01*
X418388Y444680D01*
X417877Y445279D01*
X417279Y445790D01*
X416608Y446201D01*
X415881Y446502D01*
X415115Y446686D01*
X414331Y446748D01*
X414323Y446747D01*
Y455118D01*
G37*
G36*
X388346D02*X414323D01*
Y446747D01*
X413546Y446686D01*
X412781Y446502D01*
X412054Y446201D01*
X411383Y445790D01*
X410784Y445279D01*
X410273Y444680D01*
X409862Y444009D01*
X409561Y443282D01*
X409377Y442517D01*
X409315Y441732D01*
X409377Y440948D01*
X409561Y440182D01*
X409862Y439455D01*
X410273Y438784D01*
X410784Y438186D01*
X411383Y437675D01*
X412054Y437264D01*
X412781Y436962D01*
X413546Y436779D01*
X414323Y436717D01*
Y416826D01*
X413546Y416765D01*
X412781Y416581D01*
X412054Y416280D01*
X411383Y415869D01*
X410784Y415357D01*
X410273Y414759D01*
X409862Y414088D01*
X409561Y413361D01*
X409377Y412596D01*
X409315Y411811D01*
X409377Y411026D01*
X409561Y410261D01*
X409862Y409534D01*
X410273Y408863D01*
X410784Y408265D01*
X411383Y407753D01*
X412054Y407342D01*
X412781Y407041D01*
X413546Y406857D01*
X414323Y406796D01*
Y386905D01*
X413546Y386843D01*
X412781Y386660D01*
X412054Y386359D01*
X411383Y385947D01*
X410784Y385436D01*
X410273Y384838D01*
X409862Y384167D01*
X409561Y383440D01*
X409377Y382674D01*
X409315Y381890D01*
X409377Y381105D01*
X409561Y380340D01*
X409862Y379613D01*
X410273Y378942D01*
X410784Y378343D01*
X411383Y377832D01*
X412054Y377421D01*
X412781Y377120D01*
X413546Y376936D01*
X414323Y376875D01*
Y356983D01*
X413546Y356922D01*
X412781Y356738D01*
X412054Y356437D01*
X411383Y356026D01*
X410784Y355515D01*
X410273Y354916D01*
X409862Y354245D01*
X409561Y353518D01*
X409377Y352753D01*
X409315Y351969D01*
X409377Y351184D01*
X409561Y350419D01*
X409862Y349692D01*
X410273Y349021D01*
X410784Y348422D01*
X411383Y347911D01*
X412054Y347500D01*
X412781Y347199D01*
X413546Y347015D01*
X414323Y346954D01*
Y327062D01*
X413546Y327001D01*
X412781Y326817D01*
X412054Y326516D01*
X411383Y326105D01*
X410784Y325594D01*
X410273Y324995D01*
X409862Y324324D01*
X409561Y323597D01*
X409377Y322832D01*
X409315Y322047D01*
X409377Y321263D01*
X409561Y320497D01*
X409862Y319770D01*
X410273Y319099D01*
X410784Y318501D01*
X411383Y317990D01*
X412054Y317578D01*
X412781Y317277D01*
X413546Y317094D01*
X414323Y317032D01*
Y297141D01*
X413546Y297080D01*
X412781Y296896D01*
X412054Y296595D01*
X411383Y296184D01*
X410784Y295672D01*
X410273Y295074D01*
X409862Y294403D01*
X409561Y293676D01*
X409377Y292911D01*
X409315Y292126D01*
X409377Y291341D01*
X409561Y290576D01*
X409862Y289849D01*
X410273Y289178D01*
X410784Y288580D01*
X411383Y288068D01*
X412054Y287657D01*
X412781Y287356D01*
X413546Y287172D01*
X414323Y287111D01*
Y267220D01*
X413546Y267158D01*
X412781Y266975D01*
X412054Y266673D01*
X411383Y266262D01*
X410784Y265751D01*
X410273Y265153D01*
X409862Y264482D01*
X409561Y263755D01*
X409377Y262989D01*
X409315Y262205D01*
X409377Y261420D01*
X409561Y260655D01*
X409862Y259928D01*
X410273Y259257D01*
X410784Y258658D01*
X411383Y258147D01*
X412054Y257736D01*
X412781Y257435D01*
X413546Y257251D01*
X414323Y257190D01*
Y237298D01*
X413546Y237237D01*
X412781Y237053D01*
X412054Y236752D01*
X411383Y236341D01*
X410784Y235830D01*
X410273Y235231D01*
X409862Y234560D01*
X409561Y233833D01*
X409377Y233068D01*
X409315Y232283D01*
X409377Y231499D01*
X409561Y230734D01*
X409862Y230007D01*
X410273Y229335D01*
X410784Y228737D01*
X411383Y228226D01*
X412054Y227815D01*
X412781Y227514D01*
X413546Y227330D01*
X414323Y227269D01*
Y207377D01*
X413546Y207316D01*
X412781Y207132D01*
X412054Y206831D01*
X411383Y206420D01*
X410784Y205909D01*
X410273Y205310D01*
X409862Y204639D01*
X409561Y203912D01*
X409377Y203147D01*
X409315Y202362D01*
X409377Y201578D01*
X409561Y200812D01*
X409862Y200085D01*
X410273Y199414D01*
X410784Y198816D01*
X411383Y198305D01*
X412054Y197893D01*
X412781Y197592D01*
X413546Y197409D01*
X414323Y197347D01*
Y177456D01*
X413546Y177395D01*
X412781Y177211D01*
X412054Y176910D01*
X411383Y176499D01*
X410784Y175987D01*
X410273Y175389D01*
X409862Y174718D01*
X409561Y173991D01*
X409377Y173226D01*
X409315Y172441D01*
X409377Y171656D01*
X409561Y170891D01*
X409862Y170164D01*
X410273Y169493D01*
X410784Y168895D01*
X411383Y168383D01*
X412054Y167972D01*
X412781Y167671D01*
X413546Y167487D01*
X414323Y167426D01*
Y147534D01*
X413546Y147473D01*
X412781Y147290D01*
X412054Y146988D01*
X411383Y146577D01*
X410784Y146066D01*
X410273Y145468D01*
X409862Y144797D01*
X409561Y144070D01*
X409377Y143304D01*
X409315Y142520D01*
X409377Y141735D01*
X409561Y140970D01*
X409862Y140243D01*
X410273Y139572D01*
X410784Y138973D01*
X411383Y138462D01*
X412054Y138051D01*
X412781Y137750D01*
X413546Y137566D01*
X414323Y137505D01*
Y117613D01*
X413546Y117552D01*
X412781Y117368D01*
X412054Y117067D01*
X411383Y116656D01*
X410784Y116145D01*
X410273Y115546D01*
X409862Y114875D01*
X409561Y114148D01*
X409377Y113383D01*
X409315Y112598D01*
X409377Y111814D01*
X409561Y111049D01*
X409862Y110321D01*
X410273Y109650D01*
X410784Y109052D01*
X411383Y108541D01*
X412054Y108130D01*
X412781Y107828D01*
X413546Y107645D01*
X414323Y107584D01*
Y87198D01*
X413912Y87368D01*
X413147Y87552D01*
X412362Y87614D01*
X411578Y87552D01*
X410812Y87368D01*
X410085Y87067D01*
X409414Y86656D01*
X408816Y86145D01*
X408305Y85546D01*
X407893Y84875D01*
X407592Y84148D01*
X407409Y83383D01*
X407347Y82598D01*
X407409Y81814D01*
X407592Y81049D01*
X407893Y80321D01*
X408305Y79650D01*
X408816Y79052D01*
X409414Y78541D01*
X410085Y78130D01*
X410812Y77828D01*
X411578Y77645D01*
X412362Y77583D01*
X413147Y77645D01*
X413912Y77828D01*
X414323Y77999D01*
Y50591D01*
X388346D01*
Y77688D01*
X388397Y77667D01*
X388627Y77612D01*
X388862Y77594D01*
X388921Y77598D01*
X395803D01*
X395862Y77594D01*
X396097Y77612D01*
X396098Y77612D01*
X396327Y77667D01*
X396545Y77758D01*
X396747Y77881D01*
X396926Y78034D01*
X397079Y78214D01*
X397203Y78415D01*
X397293Y78633D01*
X397348Y78863D01*
X397367Y79098D01*
X397362Y79157D01*
Y86040D01*
X397367Y86098D01*
X397348Y86334D01*
X397348Y86334D01*
X397293Y86563D01*
X397203Y86782D01*
X397079Y86983D01*
X396926Y87162D01*
X396747Y87316D01*
X396545Y87439D01*
X396327Y87529D01*
X396098Y87585D01*
X395862Y87603D01*
X395803Y87598D01*
X388921D01*
X388862Y87603D01*
X388627Y87585D01*
X388627Y87585D01*
X388397Y87529D01*
X388346Y87508D01*
Y107598D01*
X391788D01*
X391846Y107594D01*
X392082Y107612D01*
X392082Y107612D01*
X392311Y107667D01*
X392530Y107758D01*
X392731Y107881D01*
X392910Y108034D01*
X393064Y108214D01*
X393187Y108415D01*
X393277Y108633D01*
X393333Y108863D01*
X393351Y109098D01*
X393346Y109157D01*
Y116040D01*
X393351Y116098D01*
X393333Y116334D01*
X393333Y116334D01*
X393277Y116563D01*
X393187Y116782D01*
X393064Y116983D01*
X392910Y117162D01*
X392731Y117316D01*
X392530Y117439D01*
X392311Y117529D01*
X392082Y117585D01*
X391846Y117603D01*
X391788Y117598D01*
X388346D01*
Y137520D01*
X391788D01*
X391846Y137515D01*
X392082Y137534D01*
X392082Y137534D01*
X392311Y137589D01*
X392530Y137679D01*
X392731Y137802D01*
X392910Y137956D01*
X393064Y138135D01*
X393187Y138337D01*
X393277Y138555D01*
X393333Y138784D01*
X393351Y139020D01*
X393346Y139079D01*
Y145961D01*
X393351Y146020D01*
X393333Y146255D01*
X393333Y146255D01*
X393277Y146485D01*
X393187Y146703D01*
X393064Y146904D01*
X392910Y147084D01*
X392731Y147237D01*
X392530Y147360D01*
X392311Y147451D01*
X392082Y147506D01*
X391846Y147524D01*
X391788Y147520D01*
X388346D01*
Y167441D01*
X391788D01*
X391846Y167436D01*
X392082Y167455D01*
X392082Y167455D01*
X392311Y167510D01*
X392530Y167600D01*
X392731Y167724D01*
X392910Y167877D01*
X393064Y168057D01*
X393187Y168258D01*
X393277Y168476D01*
X393333Y168706D01*
X393351Y168941D01*
X393346Y169000D01*
Y175882D01*
X393351Y175941D01*
X393333Y176176D01*
X393333Y176176D01*
X393277Y176406D01*
X393187Y176624D01*
X393064Y176825D01*
X392910Y177005D01*
X392731Y177158D01*
X392530Y177282D01*
X392311Y177372D01*
X392082Y177427D01*
X391846Y177446D01*
X391788Y177441D01*
X388346D01*
Y197362D01*
X391788D01*
X391846Y197358D01*
X392082Y197376D01*
X392082Y197376D01*
X392311Y197431D01*
X392530Y197522D01*
X392731Y197645D01*
X392910Y197798D01*
X393064Y197978D01*
X393187Y198179D01*
X393277Y198397D01*
X393333Y198627D01*
X393351Y198862D01*
X393346Y198921D01*
Y205803D01*
X393351Y205862D01*
X393333Y206097D01*
X393333Y206098D01*
X393277Y206327D01*
X393187Y206545D01*
X393064Y206747D01*
X392910Y206926D01*
X392731Y207079D01*
X392530Y207203D01*
X392311Y207293D01*
X392082Y207348D01*
X391846Y207367D01*
X391788Y207362D01*
X388346D01*
Y227283D01*
X391788D01*
X391846Y227279D01*
X392082Y227297D01*
X392082Y227297D01*
X392311Y227352D01*
X392530Y227443D01*
X392731Y227566D01*
X392910Y227720D01*
X393064Y227899D01*
X393187Y228100D01*
X393277Y228319D01*
X393333Y228548D01*
X393351Y228783D01*
X393346Y228842D01*
Y235725D01*
X393351Y235783D01*
X393333Y236019D01*
X393333Y236019D01*
X393277Y236248D01*
X393187Y236467D01*
X393064Y236668D01*
X392910Y236847D01*
X392731Y237001D01*
X392530Y237124D01*
X392311Y237214D01*
X392082Y237270D01*
X391846Y237288D01*
X391788Y237283D01*
X388346D01*
Y257205D01*
X391788D01*
X391846Y257200D01*
X392082Y257219D01*
X392082Y257219D01*
X392311Y257274D01*
X392530Y257364D01*
X392731Y257487D01*
X392910Y257641D01*
X393064Y257820D01*
X393187Y258022D01*
X393277Y258240D01*
X393333Y258469D01*
X393351Y258705D01*
X393346Y258764D01*
Y265646D01*
X393351Y265705D01*
X393333Y265940D01*
X393333Y265940D01*
X393277Y266170D01*
X393187Y266388D01*
X393064Y266589D01*
X392910Y266769D01*
X392731Y266922D01*
X392530Y267045D01*
X392311Y267136D01*
X392082Y267191D01*
X391846Y267209D01*
X391788Y267205D01*
X388346D01*
Y287126D01*
X391788D01*
X391846Y287121D01*
X392082Y287140D01*
X392082Y287140D01*
X392311Y287195D01*
X392530Y287285D01*
X392731Y287409D01*
X392910Y287562D01*
X393064Y287742D01*
X393187Y287943D01*
X393277Y288161D01*
X393333Y288391D01*
X393351Y288626D01*
X393346Y288685D01*
Y295567D01*
X393351Y295626D01*
X393333Y295861D01*
X393333Y295861D01*
X393277Y296091D01*
X393187Y296309D01*
X393064Y296510D01*
X392910Y296690D01*
X392731Y296843D01*
X392530Y296967D01*
X392311Y297057D01*
X392082Y297112D01*
X391846Y297131D01*
X391788Y297126D01*
X388346D01*
Y317047D01*
X391788D01*
X391846Y317043D01*
X392082Y317061D01*
X392082Y317061D01*
X392311Y317116D01*
X392530Y317207D01*
X392731Y317330D01*
X392910Y317483D01*
X393064Y317663D01*
X393187Y317864D01*
X393277Y318082D01*
X393333Y318312D01*
X393351Y318547D01*
X393346Y318606D01*
Y325488D01*
X393351Y325547D01*
X393333Y325782D01*
X393333Y325783D01*
X393277Y326012D01*
X393187Y326230D01*
X393064Y326432D01*
X392910Y326611D01*
X392731Y326765D01*
X392530Y326888D01*
X392311Y326978D01*
X392082Y327033D01*
X391846Y327052D01*
X391788Y327047D01*
X388346D01*
Y346969D01*
X391788D01*
X391846Y346964D01*
X392082Y346982D01*
X392082Y346982D01*
X392311Y347038D01*
X392530Y347128D01*
X392731Y347251D01*
X392910Y347405D01*
X393064Y347584D01*
X393187Y347785D01*
X393277Y348004D01*
X393333Y348233D01*
X393351Y348469D01*
X393346Y348527D01*
Y355410D01*
X393351Y355469D01*
X393333Y355704D01*
X393333Y355704D01*
X393277Y355933D01*
X393187Y356152D01*
X393064Y356353D01*
X392910Y356532D01*
X392731Y356686D01*
X392530Y356809D01*
X392311Y356899D01*
X392082Y356955D01*
X391846Y356973D01*
X391788Y356969D01*
X388346D01*
Y376890D01*
X391788D01*
X391846Y376885D01*
X392082Y376904D01*
X392082Y376904D01*
X392311Y376959D01*
X392530Y377049D01*
X392731Y377172D01*
X392910Y377326D01*
X393064Y377505D01*
X393187Y377707D01*
X393277Y377925D01*
X393333Y378154D01*
X393351Y378390D01*
X393346Y378449D01*
Y385331D01*
X393351Y385390D01*
X393333Y385625D01*
X393333Y385625D01*
X393277Y385855D01*
X393187Y386073D01*
X393064Y386274D01*
X392910Y386454D01*
X392731Y386607D01*
X392530Y386730D01*
X392311Y386821D01*
X392082Y386876D01*
X391846Y386894D01*
X391788Y386890D01*
X388346D01*
Y406811D01*
X391788D01*
X391846Y406806D01*
X392082Y406825D01*
X392082Y406825D01*
X392311Y406880D01*
X392530Y406970D01*
X392731Y407094D01*
X392910Y407247D01*
X393064Y407427D01*
X393187Y407628D01*
X393277Y407846D01*
X393333Y408076D01*
X393351Y408311D01*
X393346Y408370D01*
Y415252D01*
X393351Y415311D01*
X393333Y415546D01*
X393333Y415546D01*
X393277Y415776D01*
X393187Y415994D01*
X393064Y416195D01*
X392910Y416375D01*
X392731Y416528D01*
X392530Y416652D01*
X392311Y416742D01*
X392082Y416797D01*
X391846Y416816D01*
X391788Y416811D01*
X388346D01*
Y436732D01*
X391788D01*
X391846Y436728D01*
X392082Y436746D01*
X392082Y436746D01*
X392311Y436801D01*
X392530Y436892D01*
X392731Y437015D01*
X392910Y437168D01*
X393064Y437348D01*
X393187Y437549D01*
X393277Y437767D01*
X393333Y437997D01*
X393351Y438232D01*
X393346Y438291D01*
Y445174D01*
X393351Y445232D01*
X393333Y445467D01*
X393333Y445468D01*
X393277Y445697D01*
X393187Y445915D01*
X393064Y446117D01*
X392910Y446296D01*
X392731Y446450D01*
X392530Y446573D01*
X392311Y446663D01*
X392082Y446718D01*
X391846Y446737D01*
X391788Y446732D01*
X388346D01*
Y455118D01*
G37*
G36*
Y416811D02*X384905D01*
X384846Y416816D01*
X384611Y416797D01*
X384611Y416797D01*
X384382Y416742D01*
X384163Y416652D01*
X383962Y416528D01*
X383783Y416375D01*
X383629Y416195D01*
X383506Y415994D01*
X383415Y415776D01*
X383360Y415546D01*
X383342Y415311D01*
X383346Y415252D01*
Y411811D01*
X383341Y411902D01*
Y441641D01*
X383346Y441732D01*
Y438291D01*
X383342Y438232D01*
X383360Y437997D01*
X383360Y437997D01*
X383415Y437767D01*
X383506Y437549D01*
X383629Y437348D01*
X383783Y437168D01*
X383962Y437015D01*
X384163Y436892D01*
X384382Y436801D01*
X384611Y436746D01*
X384846Y436728D01*
X384905Y436732D01*
X388346D01*
Y416811D01*
G37*
G36*
Y386890D02*X384905D01*
X384846Y386894D01*
X384611Y386876D01*
X384611Y386876D01*
X384382Y386821D01*
X384163Y386730D01*
X383962Y386607D01*
X383783Y386454D01*
X383629Y386274D01*
X383506Y386073D01*
X383415Y385855D01*
X383360Y385625D01*
X383342Y385390D01*
X383346Y385331D01*
Y381890D01*
X383341Y381981D01*
Y411720D01*
X383346Y411811D01*
Y408370D01*
X383342Y408311D01*
X383360Y408076D01*
X383360Y408076D01*
X383415Y407846D01*
X383506Y407628D01*
X383629Y407427D01*
X383783Y407247D01*
X383962Y407094D01*
X384163Y406970D01*
X384382Y406880D01*
X384611Y406825D01*
X384846Y406806D01*
X384905Y406811D01*
X388346D01*
Y386890D01*
G37*
G36*
Y237283D02*X384905D01*
X384846Y237288D01*
X384611Y237270D01*
X384611Y237270D01*
X384382Y237214D01*
X384163Y237124D01*
X383962Y237001D01*
X383783Y236847D01*
X383629Y236668D01*
X383506Y236467D01*
X383415Y236248D01*
X383360Y236019D01*
X383342Y235783D01*
X383346Y235725D01*
Y232283D01*
X383341Y232375D01*
Y262113D01*
X383346Y262205D01*
X383341Y262296D01*
Y292035D01*
X383346Y292126D01*
X383341Y292217D01*
Y321956D01*
X383346Y322047D01*
X383341Y322139D01*
Y351877D01*
X383346Y351969D01*
X383341Y352060D01*
Y381798D01*
X383346Y381890D01*
Y378449D01*
X383342Y378390D01*
X383360Y378155D01*
X383360Y378154D01*
X383415Y377925D01*
X383506Y377707D01*
X383629Y377505D01*
X383783Y377326D01*
X383962Y377172D01*
X384163Y377049D01*
X384382Y376959D01*
X384611Y376904D01*
X384846Y376885D01*
X384905Y376890D01*
X388346D01*
Y356969D01*
X384905D01*
X384846Y356973D01*
X384611Y356955D01*
X384611Y356955D01*
X384382Y356899D01*
X384163Y356809D01*
X383962Y356686D01*
X383783Y356532D01*
X383629Y356353D01*
X383506Y356152D01*
X383415Y355933D01*
X383360Y355704D01*
X383342Y355469D01*
X383346Y355410D01*
Y348527D01*
X383342Y348469D01*
X383360Y348233D01*
X383360Y348233D01*
X383415Y348004D01*
X383506Y347785D01*
X383629Y347584D01*
X383783Y347405D01*
X383962Y347251D01*
X384163Y347128D01*
X384382Y347038D01*
X384611Y346982D01*
X384846Y346964D01*
X384905Y346969D01*
X388346D01*
Y327047D01*
X384905D01*
X384846Y327052D01*
X384611Y327033D01*
X384611Y327033D01*
X384382Y326978D01*
X384163Y326888D01*
X383962Y326765D01*
X383783Y326611D01*
X383629Y326432D01*
X383506Y326230D01*
X383415Y326012D01*
X383360Y325783D01*
X383342Y325547D01*
X383346Y325488D01*
Y318606D01*
X383342Y318547D01*
X383360Y318312D01*
X383360Y318312D01*
X383415Y318082D01*
X383506Y317864D01*
X383629Y317663D01*
X383783Y317483D01*
X383962Y317330D01*
X384163Y317207D01*
X384382Y317116D01*
X384611Y317061D01*
X384846Y317043D01*
X384905Y317047D01*
X388346D01*
Y297126D01*
X384905D01*
X384846Y297131D01*
X384611Y297112D01*
X384611Y297112D01*
X384382Y297057D01*
X384163Y296967D01*
X383962Y296843D01*
X383783Y296690D01*
X383629Y296510D01*
X383506Y296309D01*
X383415Y296091D01*
X383360Y295861D01*
X383342Y295626D01*
X383346Y295567D01*
Y288685D01*
X383342Y288626D01*
X383360Y288391D01*
X383360Y288391D01*
X383415Y288161D01*
X383506Y287943D01*
X383629Y287742D01*
X383783Y287562D01*
X383962Y287409D01*
X384163Y287285D01*
X384382Y287195D01*
X384611Y287140D01*
X384846Y287121D01*
X384905Y287126D01*
X388346D01*
Y267205D01*
X384905D01*
X384846Y267209D01*
X384611Y267191D01*
X384611Y267191D01*
X384382Y267136D01*
X384163Y267045D01*
X383962Y266922D01*
X383783Y266769D01*
X383629Y266589D01*
X383506Y266388D01*
X383415Y266170D01*
X383360Y265940D01*
X383342Y265705D01*
X383346Y265646D01*
Y258764D01*
X383342Y258705D01*
X383360Y258470D01*
X383360Y258469D01*
X383415Y258240D01*
X383506Y258022D01*
X383629Y257820D01*
X383783Y257641D01*
X383962Y257487D01*
X384163Y257364D01*
X384382Y257274D01*
X384611Y257219D01*
X384846Y257200D01*
X384905Y257205D01*
X388346D01*
Y237283D01*
G37*
G36*
Y207362D02*X384905D01*
X384846Y207367D01*
X384611Y207348D01*
X384611Y207348D01*
X384382Y207293D01*
X384163Y207203D01*
X383962Y207079D01*
X383783Y206926D01*
X383629Y206747D01*
X383506Y206545D01*
X383415Y206327D01*
X383360Y206098D01*
X383342Y205862D01*
X383346Y205803D01*
Y202362D01*
X383341Y202454D01*
Y232192D01*
X383346Y232283D01*
Y228842D01*
X383342Y228783D01*
X383360Y228548D01*
X383360Y228548D01*
X383415Y228319D01*
X383506Y228100D01*
X383629Y227899D01*
X383783Y227720D01*
X383962Y227566D01*
X384163Y227443D01*
X384382Y227352D01*
X384611Y227297D01*
X384846Y227279D01*
X384905Y227283D01*
X388346D01*
Y207362D01*
G37*
G36*
Y177441D02*X384905D01*
X384846Y177446D01*
X384611Y177427D01*
X384611Y177427D01*
X384382Y177372D01*
X384163Y177282D01*
X383962Y177158D01*
X383783Y177005D01*
X383629Y176825D01*
X383506Y176624D01*
X383415Y176406D01*
X383360Y176176D01*
X383342Y175941D01*
X383346Y175882D01*
Y172441D01*
X383341Y172532D01*
Y202271D01*
X383346Y202362D01*
Y198921D01*
X383342Y198862D01*
X383360Y198627D01*
X383360Y198627D01*
X383415Y198397D01*
X383506Y198179D01*
X383629Y197978D01*
X383783Y197798D01*
X383962Y197645D01*
X384163Y197522D01*
X384382Y197431D01*
X384611Y197376D01*
X384846Y197358D01*
X384905Y197362D01*
X388346D01*
Y177441D01*
G37*
G36*
Y147520D02*X384905D01*
X384846Y147524D01*
X384611Y147506D01*
X384611Y147506D01*
X384382Y147451D01*
X384163Y147360D01*
X383962Y147237D01*
X383783Y147084D01*
X383629Y146904D01*
X383506Y146703D01*
X383415Y146485D01*
X383360Y146255D01*
X383342Y146020D01*
X383346Y145961D01*
Y142520D01*
X383341Y142611D01*
Y172350D01*
X383346Y172441D01*
Y169000D01*
X383342Y168941D01*
X383360Y168706D01*
X383360Y168706D01*
X383415Y168476D01*
X383506Y168258D01*
X383629Y168057D01*
X383783Y167877D01*
X383962Y167724D01*
X384163Y167600D01*
X384382Y167510D01*
X384611Y167455D01*
X384846Y167436D01*
X384905Y167441D01*
X388346D01*
Y147520D01*
G37*
G36*
Y50591D02*X383341D01*
Y77691D01*
X383912Y77828D01*
X384639Y78130D01*
X385310Y78541D01*
X385909Y79052D01*
X386420Y79650D01*
X386831Y80321D01*
X387132Y81049D01*
X387316Y81814D01*
X387362Y82598D01*
X387316Y83383D01*
X387132Y84148D01*
X386831Y84875D01*
X386420Y85546D01*
X385909Y86145D01*
X385310Y86656D01*
X384639Y87067D01*
X383912Y87368D01*
X383341Y87505D01*
Y112507D01*
X383346Y112598D01*
X383341Y112690D01*
Y142428D01*
X383346Y142520D01*
Y139078D01*
X383342Y139020D01*
X383360Y138785D01*
X383360Y138784D01*
X383415Y138555D01*
X383506Y138337D01*
X383629Y138135D01*
X383783Y137956D01*
X383962Y137802D01*
X384163Y137679D01*
X384382Y137589D01*
X384611Y137534D01*
X384846Y137515D01*
X384905Y137520D01*
X388346D01*
Y117598D01*
X384905D01*
X384846Y117603D01*
X384611Y117585D01*
X384611Y117585D01*
X384382Y117529D01*
X384163Y117439D01*
X383962Y117316D01*
X383783Y117162D01*
X383629Y116983D01*
X383506Y116782D01*
X383415Y116563D01*
X383360Y116334D01*
X383342Y116098D01*
X383346Y116040D01*
Y109157D01*
X383342Y109098D01*
X383360Y108863D01*
X383360Y108863D01*
X383415Y108633D01*
X383506Y108415D01*
X383629Y108214D01*
X383783Y108034D01*
X383962Y107881D01*
X384163Y107758D01*
X384382Y107667D01*
X384611Y107612D01*
X384846Y107594D01*
X384905Y107598D01*
X388346D01*
Y87508D01*
X388179Y87439D01*
X387978Y87316D01*
X387798Y87162D01*
X387645Y86983D01*
X387522Y86782D01*
X387431Y86563D01*
X387376Y86334D01*
X387358Y86098D01*
X387362Y86040D01*
Y79157D01*
X387358Y79098D01*
X387376Y78863D01*
X387376Y78863D01*
X387431Y78633D01*
X387522Y78415D01*
X387645Y78214D01*
X387798Y78034D01*
X387978Y77881D01*
X388179Y77758D01*
X388346Y77688D01*
Y50591D01*
G37*
G36*
X383341Y455118D02*X388346D01*
Y446732D01*
X384905D01*
X384846Y446737D01*
X384611Y446718D01*
X384611Y446718D01*
X384382Y446663D01*
X384163Y446573D01*
X383962Y446450D01*
X383783Y446296D01*
X383629Y446117D01*
X383506Y445915D01*
X383415Y445697D01*
X383360Y445468D01*
X383342Y445232D01*
X383346Y445173D01*
Y441732D01*
X383341Y441824D01*
Y455118D01*
G37*
G36*
X362362Y169685D02*X363189D01*
X367126Y171654D01*
X370079Y174606D01*
X371063Y178543D01*
Y449213D01*
X372047Y451181D01*
X375000Y454134D01*
X377953Y455118D01*
X383341D01*
Y441824D01*
X383300Y442517D01*
X383116Y443282D01*
X382815Y444009D01*
X382404Y444680D01*
X381893Y445279D01*
X381294Y445790D01*
X380623Y446201D01*
X379896Y446502D01*
X379131Y446686D01*
X378346Y446748D01*
X377562Y446686D01*
X376797Y446502D01*
X376070Y446201D01*
X375398Y445790D01*
X374800Y445279D01*
X374289Y444680D01*
X373878Y444009D01*
X373577Y443282D01*
X373393Y442517D01*
X373331Y441732D01*
X373393Y440948D01*
X373577Y440182D01*
X373878Y439455D01*
X374289Y438784D01*
X374800Y438186D01*
X375398Y437675D01*
X376070Y437264D01*
X376797Y436962D01*
X377562Y436779D01*
X378346Y436717D01*
X379131Y436779D01*
X379896Y436962D01*
X380623Y437264D01*
X381294Y437675D01*
X381893Y438186D01*
X382404Y438784D01*
X382815Y439455D01*
X383116Y440182D01*
X383300Y440948D01*
X383341Y441641D01*
Y411902D01*
X383300Y412596D01*
X383116Y413361D01*
X382815Y414088D01*
X382404Y414759D01*
X381893Y415357D01*
X381294Y415869D01*
X380623Y416280D01*
X379896Y416581D01*
X379131Y416765D01*
X378346Y416826D01*
X377562Y416765D01*
X376797Y416581D01*
X376070Y416280D01*
X375398Y415869D01*
X374800Y415357D01*
X374289Y414759D01*
X373878Y414088D01*
X373577Y413361D01*
X373393Y412596D01*
X373331Y411811D01*
X373393Y411026D01*
X373577Y410261D01*
X373878Y409534D01*
X374289Y408863D01*
X374800Y408265D01*
X375398Y407753D01*
X376070Y407342D01*
X376797Y407041D01*
X377562Y406857D01*
X378346Y406796D01*
X379131Y406857D01*
X379896Y407041D01*
X380623Y407342D01*
X381294Y407753D01*
X381893Y408265D01*
X382404Y408863D01*
X382815Y409534D01*
X383116Y410261D01*
X383300Y411026D01*
X383341Y411720D01*
Y381981D01*
X383300Y382674D01*
X383116Y383440D01*
X382815Y384167D01*
X382404Y384838D01*
X381893Y385436D01*
X381294Y385947D01*
X380623Y386359D01*
X379896Y386660D01*
X379131Y386843D01*
X378346Y386905D01*
X377562Y386843D01*
X376797Y386660D01*
X376070Y386359D01*
X375398Y385947D01*
X374800Y385436D01*
X374289Y384838D01*
X373878Y384167D01*
X373577Y383440D01*
X373393Y382674D01*
X373331Y381890D01*
X373393Y381105D01*
X373577Y380340D01*
X373878Y379613D01*
X374289Y378942D01*
X374800Y378343D01*
X375398Y377832D01*
X376070Y377421D01*
X376797Y377120D01*
X377562Y376936D01*
X378346Y376874D01*
X379131Y376936D01*
X379896Y377120D01*
X380623Y377421D01*
X381294Y377832D01*
X381893Y378343D01*
X382404Y378942D01*
X382815Y379613D01*
X383116Y380340D01*
X383300Y381105D01*
X383341Y381798D01*
Y352060D01*
X383300Y352753D01*
X383116Y353518D01*
X382815Y354245D01*
X382404Y354916D01*
X381893Y355515D01*
X381294Y356026D01*
X380623Y356437D01*
X379896Y356738D01*
X379131Y356922D01*
X378346Y356984D01*
X377562Y356922D01*
X376797Y356738D01*
X376070Y356437D01*
X375398Y356026D01*
X374800Y355515D01*
X374289Y354916D01*
X373878Y354245D01*
X373577Y353518D01*
X373393Y352753D01*
X373331Y351969D01*
X373393Y351184D01*
X373577Y350419D01*
X373878Y349692D01*
X374289Y349021D01*
X374800Y348422D01*
X375398Y347911D01*
X376070Y347500D01*
X376797Y347199D01*
X377562Y347015D01*
X378346Y346953D01*
X379131Y347015D01*
X379896Y347199D01*
X380623Y347500D01*
X381294Y347911D01*
X381893Y348422D01*
X382404Y349021D01*
X382815Y349692D01*
X383116Y350419D01*
X383300Y351184D01*
X383341Y351877D01*
Y322139D01*
X383300Y322832D01*
X383116Y323597D01*
X382815Y324324D01*
X382404Y324995D01*
X381893Y325594D01*
X381294Y326105D01*
X380623Y326516D01*
X379896Y326817D01*
X379131Y327001D01*
X378346Y327063D01*
X377562Y327001D01*
X376797Y326817D01*
X376070Y326516D01*
X375398Y326105D01*
X374800Y325594D01*
X374289Y324995D01*
X373878Y324324D01*
X373577Y323597D01*
X373393Y322832D01*
X373331Y322047D01*
X373393Y321263D01*
X373577Y320497D01*
X373878Y319770D01*
X374289Y319099D01*
X374800Y318501D01*
X375398Y317990D01*
X376070Y317578D01*
X376797Y317277D01*
X377562Y317094D01*
X378346Y317032D01*
X379131Y317094D01*
X379896Y317277D01*
X380623Y317578D01*
X381294Y317990D01*
X381893Y318501D01*
X382404Y319099D01*
X382815Y319770D01*
X383116Y320497D01*
X383300Y321263D01*
X383341Y321956D01*
Y292217D01*
X383300Y292911D01*
X383116Y293676D01*
X382815Y294403D01*
X382404Y295074D01*
X381893Y295672D01*
X381294Y296184D01*
X380623Y296595D01*
X379896Y296896D01*
X379131Y297080D01*
X378346Y297141D01*
X377562Y297080D01*
X376797Y296896D01*
X376070Y296595D01*
X375398Y296184D01*
X374800Y295672D01*
X374289Y295074D01*
X373878Y294403D01*
X373577Y293676D01*
X373393Y292911D01*
X373331Y292126D01*
X373393Y291341D01*
X373577Y290576D01*
X373878Y289849D01*
X374289Y289178D01*
X374800Y288580D01*
X375398Y288068D01*
X376070Y287657D01*
X376797Y287356D01*
X377562Y287172D01*
X378346Y287111D01*
X379131Y287172D01*
X379896Y287356D01*
X380623Y287657D01*
X381294Y288068D01*
X381893Y288580D01*
X382404Y289178D01*
X382815Y289849D01*
X383116Y290576D01*
X383300Y291341D01*
X383341Y292035D01*
Y262296D01*
X383300Y262989D01*
X383116Y263755D01*
X382815Y264482D01*
X382404Y265153D01*
X381893Y265751D01*
X381294Y266262D01*
X380623Y266673D01*
X379896Y266975D01*
X379131Y267158D01*
X378346Y267220D01*
X377562Y267158D01*
X376797Y266975D01*
X376070Y266673D01*
X375398Y266262D01*
X374800Y265751D01*
X374289Y265153D01*
X373878Y264482D01*
X373577Y263755D01*
X373393Y262989D01*
X373331Y262205D01*
X373393Y261420D01*
X373577Y260655D01*
X373878Y259928D01*
X374289Y259257D01*
X374800Y258658D01*
X375398Y258147D01*
X376070Y257736D01*
X376797Y257435D01*
X377562Y257251D01*
X378346Y257189D01*
X379131Y257251D01*
X379896Y257435D01*
X380623Y257736D01*
X381294Y258147D01*
X381893Y258658D01*
X382404Y259257D01*
X382815Y259928D01*
X383116Y260655D01*
X383300Y261420D01*
X383341Y262113D01*
Y232375D01*
X383300Y233068D01*
X383116Y233833D01*
X382815Y234560D01*
X382404Y235231D01*
X381893Y235830D01*
X381294Y236341D01*
X380623Y236752D01*
X379896Y237053D01*
X379131Y237237D01*
X378346Y237299D01*
X377562Y237237D01*
X376797Y237053D01*
X376070Y236752D01*
X375398Y236341D01*
X374800Y235830D01*
X374289Y235231D01*
X373878Y234560D01*
X373577Y233833D01*
X373393Y233068D01*
X373331Y232283D01*
X373393Y231499D01*
X373577Y230734D01*
X373878Y230007D01*
X374289Y229335D01*
X374800Y228737D01*
X375398Y228226D01*
X376070Y227815D01*
X376797Y227514D01*
X377562Y227330D01*
X378346Y227268D01*
X379131Y227330D01*
X379896Y227514D01*
X380623Y227815D01*
X381294Y228226D01*
X381893Y228737D01*
X382404Y229335D01*
X382815Y230007D01*
X383116Y230734D01*
X383300Y231499D01*
X383341Y232192D01*
Y202454D01*
X383300Y203147D01*
X383116Y203912D01*
X382815Y204639D01*
X382404Y205310D01*
X381893Y205909D01*
X381294Y206420D01*
X380623Y206831D01*
X379896Y207132D01*
X379131Y207316D01*
X378346Y207378D01*
X377562Y207316D01*
X376797Y207132D01*
X376070Y206831D01*
X375398Y206420D01*
X374800Y205909D01*
X374289Y205310D01*
X373878Y204639D01*
X373577Y203912D01*
X373393Y203147D01*
X373331Y202362D01*
X373393Y201578D01*
X373577Y200812D01*
X373878Y200085D01*
X374289Y199414D01*
X374800Y198816D01*
X375398Y198305D01*
X376070Y197893D01*
X376797Y197592D01*
X377562Y197409D01*
X378346Y197347D01*
X379131Y197409D01*
X379896Y197592D01*
X380623Y197893D01*
X381294Y198305D01*
X381893Y198816D01*
X382404Y199414D01*
X382815Y200085D01*
X383116Y200812D01*
X383300Y201578D01*
X383341Y202271D01*
Y172532D01*
X383300Y173226D01*
X383116Y173991D01*
X382815Y174718D01*
X382404Y175389D01*
X381893Y175987D01*
X381294Y176499D01*
X380623Y176910D01*
X379896Y177211D01*
X379131Y177395D01*
X378346Y177456D01*
X377562Y177395D01*
X376797Y177211D01*
X376070Y176910D01*
X375398Y176499D01*
X374800Y175987D01*
X374289Y175389D01*
X373878Y174718D01*
X373577Y173991D01*
X373393Y173226D01*
X373331Y172441D01*
X373393Y171656D01*
X373577Y170891D01*
X373878Y170164D01*
X374289Y169493D01*
X374800Y168895D01*
X375398Y168383D01*
X376070Y167972D01*
X376797Y167671D01*
X377562Y167487D01*
X378346Y167426D01*
X379131Y167487D01*
X379896Y167671D01*
X380623Y167972D01*
X381294Y168383D01*
X381893Y168895D01*
X382404Y169493D01*
X382815Y170164D01*
X383116Y170891D01*
X383300Y171656D01*
X383341Y172350D01*
Y142611D01*
X383300Y143304D01*
X383116Y144070D01*
X382815Y144797D01*
X382404Y145468D01*
X381893Y146066D01*
X381294Y146577D01*
X380623Y146988D01*
X379896Y147290D01*
X379131Y147473D01*
X378346Y147535D01*
X377562Y147473D01*
X376797Y147290D01*
X376070Y146988D01*
X375398Y146577D01*
X374800Y146066D01*
X374289Y145468D01*
X373878Y144797D01*
X373577Y144070D01*
X373393Y143304D01*
X373331Y142520D01*
X373393Y141735D01*
X373577Y140970D01*
X373878Y140243D01*
X374289Y139572D01*
X374800Y138973D01*
X375398Y138462D01*
X376070Y138051D01*
X376797Y137750D01*
X377562Y137566D01*
X378346Y137504D01*
X379131Y137566D01*
X379896Y137750D01*
X380623Y138051D01*
X381294Y138462D01*
X381893Y138973D01*
X382404Y139572D01*
X382815Y140243D01*
X383116Y140970D01*
X383300Y141735D01*
X383341Y142428D01*
Y112690D01*
X383300Y113383D01*
X383116Y114148D01*
X382815Y114875D01*
X382404Y115546D01*
X381893Y116145D01*
X381294Y116656D01*
X380623Y117067D01*
X379896Y117368D01*
X379131Y117552D01*
X378346Y117614D01*
X377562Y117552D01*
X376797Y117368D01*
X376070Y117067D01*
X375398Y116656D01*
X374800Y116145D01*
X374289Y115546D01*
X373878Y114875D01*
X373577Y114148D01*
X373393Y113383D01*
X373331Y112598D01*
X373393Y111814D01*
X373577Y111049D01*
X373878Y110321D01*
X374289Y109650D01*
X374800Y109052D01*
X375398Y108541D01*
X376070Y108130D01*
X376797Y107828D01*
X377562Y107645D01*
X378346Y107583D01*
X379131Y107645D01*
X379896Y107828D01*
X380623Y108130D01*
X381294Y108541D01*
X381893Y109052D01*
X382404Y109650D01*
X382815Y110321D01*
X383116Y111049D01*
X383300Y111814D01*
X383341Y112507D01*
Y87505D01*
X383147Y87552D01*
X382362Y87614D01*
X381578Y87552D01*
X380812Y87368D01*
X380085Y87067D01*
X379414Y86656D01*
X378816Y86145D01*
X378305Y85546D01*
X377893Y84875D01*
X377592Y84148D01*
X377409Y83383D01*
X377347Y82598D01*
X377409Y81814D01*
X377592Y81049D01*
X377893Y80321D01*
X378305Y79650D01*
X378816Y79052D01*
X379414Y78541D01*
X380085Y78130D01*
X380812Y77828D01*
X381578Y77645D01*
X382362Y77583D01*
X383147Y77645D01*
X383341Y77691D01*
Y50591D01*
X362362D01*
Y77598D01*
X365803D01*
X365862Y77594D01*
X366097Y77612D01*
X366098Y77612D01*
X366327Y77667D01*
X366545Y77758D01*
X366747Y77881D01*
X366926Y78034D01*
X367079Y78214D01*
X367203Y78415D01*
X367293Y78633D01*
X367348Y78863D01*
X367367Y79098D01*
X367362Y79157D01*
Y86040D01*
X367367Y86098D01*
X367348Y86334D01*
X367348Y86334D01*
X367293Y86563D01*
X367203Y86782D01*
X367079Y86983D01*
X366926Y87162D01*
X366747Y87316D01*
X366545Y87439D01*
X366327Y87529D01*
X366098Y87585D01*
X365862Y87603D01*
X365803Y87598D01*
X362362D01*
Y169685D01*
G37*
G36*
X352351D02*X362362D01*
Y87598D01*
X358921D01*
X358862Y87603D01*
X358627Y87585D01*
X358627Y87585D01*
X358397Y87529D01*
X358179Y87439D01*
X357978Y87316D01*
X357798Y87162D01*
X357645Y86983D01*
X357522Y86782D01*
X357431Y86563D01*
X357376Y86334D01*
X357358Y86098D01*
X357362Y86040D01*
Y79157D01*
X357358Y79098D01*
X357376Y78863D01*
X357376Y78863D01*
X357431Y78633D01*
X357522Y78415D01*
X357645Y78214D01*
X357798Y78034D01*
X357978Y77881D01*
X358179Y77758D01*
X358397Y77667D01*
X358627Y77612D01*
X358862Y77594D01*
X358921Y77598D01*
X362362D01*
Y50591D01*
X352351D01*
Y77584D01*
X352362Y77583D01*
X353147Y77645D01*
X353912Y77828D01*
X354639Y78130D01*
X355310Y78541D01*
X355909Y79052D01*
X356420Y79650D01*
X356831Y80321D01*
X357132Y81049D01*
X357316Y81814D01*
X357362Y82598D01*
X357316Y83383D01*
X357132Y84148D01*
X356831Y84875D01*
X356420Y85546D01*
X355909Y86145D01*
X355310Y86656D01*
X354639Y87067D01*
X353912Y87368D01*
X353147Y87552D01*
X352362Y87614D01*
X352351Y87613D01*
Y109112D01*
X352362Y109111D01*
X353536Y109203D01*
X354681Y109478D01*
X355769Y109929D01*
X356773Y110544D01*
X357668Y111308D01*
X358433Y112204D01*
X359048Y113208D01*
X359498Y114296D01*
X359773Y115440D01*
X359843Y116614D01*
X359773Y117788D01*
X359498Y118933D01*
X359048Y120021D01*
X358433Y121025D01*
X357668Y121920D01*
X356773Y122685D01*
X355769Y123300D01*
X354681Y123750D01*
X353536Y124025D01*
X352362Y124118D01*
X352351Y124117D01*
Y169685D01*
G37*
G36*
X332362D02*X352351D01*
Y124117D01*
X351188Y124025D01*
X350044Y123750D01*
X348956Y123300D01*
X347952Y122685D01*
X347057Y121920D01*
X346292Y121025D01*
X345677Y120021D01*
X345226Y118933D01*
X344951Y117788D01*
X344859Y116614D01*
X344951Y115440D01*
X345226Y114296D01*
X345677Y113208D01*
X346292Y112204D01*
X347057Y111308D01*
X347952Y110544D01*
X348956Y109929D01*
X350044Y109478D01*
X351188Y109203D01*
X352351Y109112D01*
Y87613D01*
X351578Y87552D01*
X350812Y87368D01*
X350085Y87067D01*
X349414Y86656D01*
X348816Y86145D01*
X348305Y85546D01*
X347893Y84875D01*
X347592Y84148D01*
X347409Y83383D01*
X347347Y82598D01*
X347409Y81814D01*
X347592Y81049D01*
X347893Y80321D01*
X348305Y79650D01*
X348816Y79052D01*
X349414Y78541D01*
X350085Y78130D01*
X350812Y77828D01*
X351578Y77645D01*
X352351Y77584D01*
Y50591D01*
X332362D01*
Y77598D01*
X335803D01*
X335862Y77594D01*
X336097Y77612D01*
X336098Y77612D01*
X336327Y77667D01*
X336545Y77758D01*
X336747Y77881D01*
X336926Y78034D01*
X337079Y78214D01*
X337203Y78415D01*
X337293Y78633D01*
X337348Y78863D01*
X337367Y79098D01*
X337362Y79157D01*
Y86040D01*
X337367Y86098D01*
X337348Y86334D01*
X337348Y86334D01*
X337293Y86563D01*
X337203Y86782D01*
X337079Y86983D01*
X336926Y87162D01*
X336747Y87316D01*
X336545Y87439D01*
X336327Y87529D01*
X336098Y87585D01*
X335862Y87603D01*
X335803Y87598D01*
X332362D01*
Y169685D01*
G37*
G36*
X322354D02*X332362D01*
Y87598D01*
X328921D01*
X328862Y87603D01*
X328627Y87585D01*
X328627Y87585D01*
X328397Y87529D01*
X328179Y87439D01*
X327978Y87316D01*
X327798Y87162D01*
X327645Y86983D01*
X327522Y86782D01*
X327431Y86563D01*
X327376Y86334D01*
X327358Y86098D01*
X327362Y86040D01*
Y79157D01*
X327358Y79098D01*
X327376Y78863D01*
X327376Y78863D01*
X327431Y78633D01*
X327522Y78415D01*
X327645Y78214D01*
X327798Y78034D01*
X327978Y77881D01*
X328179Y77758D01*
X328397Y77667D01*
X328627Y77612D01*
X328862Y77594D01*
X328921Y77598D01*
X332362D01*
Y50591D01*
X322354D01*
Y77584D01*
X322362Y77583D01*
X323147Y77645D01*
X323912Y77828D01*
X324639Y78130D01*
X325310Y78541D01*
X325909Y79052D01*
X326420Y79650D01*
X326831Y80321D01*
X327132Y81049D01*
X327316Y81814D01*
X327362Y82598D01*
X327316Y83383D01*
X327132Y84148D01*
X326831Y84875D01*
X326420Y85546D01*
X325909Y86145D01*
X325310Y86656D01*
X324639Y87067D01*
X323912Y87368D01*
X323147Y87552D01*
X322362Y87614D01*
X322354Y87613D01*
Y169685D01*
G37*
G36*
X302362D02*X322354D01*
Y87613D01*
X321578Y87552D01*
X320812Y87368D01*
X320085Y87067D01*
X319414Y86656D01*
X318816Y86145D01*
X318305Y85546D01*
X317893Y84875D01*
X317592Y84148D01*
X317409Y83383D01*
X317347Y82598D01*
X317409Y81814D01*
X317592Y81049D01*
X317893Y80321D01*
X318305Y79650D01*
X318816Y79052D01*
X319414Y78541D01*
X320085Y78130D01*
X320812Y77828D01*
X321578Y77645D01*
X322354Y77584D01*
Y50591D01*
X302362D01*
Y77598D01*
X305803D01*
X305862Y77594D01*
X306097Y77612D01*
X306098Y77612D01*
X306327Y77667D01*
X306545Y77758D01*
X306747Y77881D01*
X306926Y78034D01*
X307079Y78214D01*
X307203Y78415D01*
X307293Y78633D01*
X307348Y78863D01*
X307367Y79098D01*
X307362Y79157D01*
Y86040D01*
X307367Y86098D01*
X307348Y86334D01*
X307348Y86334D01*
X307293Y86563D01*
X307203Y86782D01*
X307079Y86983D01*
X306926Y87162D01*
X306747Y87316D01*
X306545Y87439D01*
X306327Y87529D01*
X306098Y87585D01*
X305862Y87603D01*
X305803Y87598D01*
X302362D01*
Y169685D01*
G37*
G36*
X292354D02*X302362D01*
Y87598D01*
X298921D01*
X298862Y87603D01*
X298627Y87585D01*
X298627Y87585D01*
X298397Y87529D01*
X298179Y87439D01*
X297978Y87316D01*
X297798Y87162D01*
X297645Y86983D01*
X297522Y86782D01*
X297431Y86563D01*
X297376Y86334D01*
X297358Y86098D01*
X297362Y86040D01*
Y79157D01*
X297358Y79098D01*
X297376Y78863D01*
X297376Y78863D01*
X297431Y78633D01*
X297522Y78415D01*
X297645Y78214D01*
X297798Y78034D01*
X297978Y77881D01*
X298179Y77758D01*
X298397Y77667D01*
X298627Y77612D01*
X298862Y77594D01*
X298921Y77598D01*
X302362D01*
Y50591D01*
X292354D01*
Y77584D01*
X292362Y77583D01*
X293147Y77645D01*
X293912Y77828D01*
X294639Y78130D01*
X295310Y78541D01*
X295909Y79052D01*
X296420Y79650D01*
X296831Y80321D01*
X297132Y81049D01*
X297316Y81814D01*
X297362Y82598D01*
X297316Y83383D01*
X297132Y84148D01*
X296831Y84875D01*
X296420Y85546D01*
X295909Y86145D01*
X295310Y86656D01*
X294639Y87067D01*
X293912Y87368D01*
X293147Y87552D01*
X292362Y87614D01*
X292354Y87613D01*
Y169685D01*
G37*
G36*
X272362D02*X292354D01*
Y87613D01*
X291578Y87552D01*
X290812Y87368D01*
X290085Y87067D01*
X289414Y86656D01*
X288816Y86145D01*
X288305Y85546D01*
X287893Y84875D01*
X287592Y84148D01*
X287409Y83383D01*
X287347Y82598D01*
X287409Y81814D01*
X287592Y81049D01*
X287893Y80321D01*
X288305Y79650D01*
X288816Y79052D01*
X289414Y78541D01*
X290085Y78130D01*
X290812Y77828D01*
X291578Y77645D01*
X292354Y77584D01*
Y50591D01*
X272362D01*
Y77598D01*
X275803D01*
X275862Y77594D01*
X276097Y77612D01*
X276098Y77612D01*
X276327Y77667D01*
X276545Y77758D01*
X276747Y77881D01*
X276926Y78034D01*
X277079Y78214D01*
X277203Y78415D01*
X277293Y78633D01*
X277348Y78863D01*
X277367Y79098D01*
X277362Y79157D01*
Y86040D01*
X277367Y86098D01*
X277348Y86334D01*
X277348Y86334D01*
X277293Y86563D01*
X277203Y86782D01*
X277079Y86983D01*
X276926Y87162D01*
X276747Y87316D01*
X276545Y87439D01*
X276327Y87529D01*
X276098Y87585D01*
X275862Y87603D01*
X275803Y87598D01*
X272362D01*
Y169685D01*
G37*
G36*
X262354D02*X272362D01*
Y87598D01*
X268921D01*
X268862Y87603D01*
X268627Y87585D01*
X268627Y87585D01*
X268397Y87529D01*
X268179Y87439D01*
X267978Y87316D01*
X267798Y87162D01*
X267645Y86983D01*
X267522Y86782D01*
X267431Y86563D01*
X267376Y86334D01*
X267358Y86098D01*
X267362Y86040D01*
Y79157D01*
X267358Y79098D01*
X267376Y78863D01*
X267376Y78863D01*
X267431Y78633D01*
X267522Y78415D01*
X267645Y78214D01*
X267798Y78034D01*
X267978Y77881D01*
X268179Y77758D01*
X268397Y77667D01*
X268627Y77612D01*
X268862Y77594D01*
X268921Y77598D01*
X272362D01*
Y50591D01*
X262354D01*
Y77584D01*
X262362Y77583D01*
X263147Y77645D01*
X263912Y77828D01*
X264639Y78130D01*
X265310Y78541D01*
X265909Y79052D01*
X266420Y79650D01*
X266831Y80321D01*
X267132Y81049D01*
X267316Y81814D01*
X267362Y82598D01*
X267316Y83383D01*
X267132Y84148D01*
X266831Y84875D01*
X266420Y85546D01*
X265909Y86145D01*
X265310Y86656D01*
X264639Y87067D01*
X263912Y87368D01*
X263147Y87552D01*
X262362Y87614D01*
X262354Y87613D01*
Y169685D01*
G37*
G36*
X242362D02*X262354D01*
Y87613D01*
X261578Y87552D01*
X260812Y87368D01*
X260085Y87067D01*
X259414Y86656D01*
X258816Y86145D01*
X258305Y85546D01*
X257893Y84875D01*
X257592Y84148D01*
X257409Y83383D01*
X257347Y82598D01*
X257409Y81814D01*
X257592Y81049D01*
X257893Y80321D01*
X258305Y79650D01*
X258816Y79052D01*
X259414Y78541D01*
X260085Y78130D01*
X260812Y77828D01*
X261578Y77645D01*
X262354Y77584D01*
Y50591D01*
X242362D01*
Y77598D01*
X245803D01*
X245862Y77594D01*
X246097Y77612D01*
X246098Y77612D01*
X246327Y77667D01*
X246545Y77758D01*
X246747Y77881D01*
X246926Y78034D01*
X247079Y78214D01*
X247203Y78415D01*
X247293Y78633D01*
X247348Y78863D01*
X247367Y79098D01*
X247362Y79157D01*
Y86040D01*
X247367Y86098D01*
X247348Y86334D01*
X247348Y86334D01*
X247293Y86563D01*
X247203Y86782D01*
X247079Y86983D01*
X246926Y87162D01*
X246747Y87316D01*
X246545Y87439D01*
X246327Y87529D01*
X246098Y87585D01*
X245862Y87603D01*
X245803Y87598D01*
X242362D01*
Y169685D01*
G37*
G36*
X232354D02*X242362D01*
Y87598D01*
X238921D01*
X238862Y87603D01*
X238627Y87585D01*
X238627Y87585D01*
X238397Y87529D01*
X238179Y87439D01*
X237978Y87316D01*
X237798Y87162D01*
X237645Y86983D01*
X237522Y86782D01*
X237431Y86563D01*
X237376Y86334D01*
X237358Y86098D01*
X237362Y86040D01*
Y79157D01*
X237358Y79098D01*
X237376Y78863D01*
X237376Y78863D01*
X237431Y78633D01*
X237522Y78415D01*
X237645Y78214D01*
X237798Y78034D01*
X237978Y77881D01*
X238179Y77758D01*
X238397Y77667D01*
X238627Y77612D01*
X238862Y77594D01*
X238921Y77598D01*
X242362D01*
Y50591D01*
X232354D01*
Y77584D01*
X232362Y77583D01*
X233147Y77645D01*
X233912Y77828D01*
X234639Y78130D01*
X235310Y78541D01*
X235909Y79052D01*
X236420Y79650D01*
X236831Y80321D01*
X237132Y81049D01*
X237316Y81814D01*
X237362Y82598D01*
X237316Y83383D01*
X237132Y84148D01*
X236831Y84875D01*
X236420Y85546D01*
X235909Y86145D01*
X235310Y86656D01*
X234639Y87067D01*
X233912Y87368D01*
X233147Y87552D01*
X232362Y87614D01*
X232354Y87613D01*
Y169685D01*
G37*
G36*
X212351D02*X232354D01*
Y87613D01*
X231578Y87552D01*
X230812Y87368D01*
X230085Y87067D01*
X229414Y86656D01*
X228816Y86145D01*
X228305Y85546D01*
X227893Y84875D01*
X227592Y84148D01*
X227409Y83383D01*
X227347Y82598D01*
X227409Y81814D01*
X227592Y81049D01*
X227893Y80321D01*
X228305Y79650D01*
X228816Y79052D01*
X229414Y78541D01*
X230085Y78130D01*
X230812Y77828D01*
X231578Y77645D01*
X232354Y77584D01*
Y50591D01*
X212351D01*
Y77598D01*
X215803D01*
X215862Y77594D01*
X216097Y77612D01*
X216098Y77612D01*
X216327Y77667D01*
X216545Y77758D01*
X216747Y77881D01*
X216926Y78034D01*
X217079Y78214D01*
X217203Y78415D01*
X217293Y78633D01*
X217348Y78863D01*
X217367Y79098D01*
X217362Y79157D01*
Y86040D01*
X217367Y86098D01*
X217348Y86334D01*
X217348Y86334D01*
X217293Y86563D01*
X217203Y86782D01*
X217079Y86983D01*
X216926Y87162D01*
X216747Y87316D01*
X216545Y87439D01*
X216327Y87529D01*
X216098Y87585D01*
X215862Y87603D01*
X215803Y87598D01*
X212351D01*
Y109112D01*
X212362Y109111D01*
X213536Y109203D01*
X214681Y109478D01*
X215769Y109929D01*
X216773Y110544D01*
X217668Y111308D01*
X218433Y112204D01*
X219048Y113208D01*
X219498Y114296D01*
X219773Y115440D01*
X219843Y116614D01*
X219773Y117788D01*
X219498Y118933D01*
X219048Y120021D01*
X218433Y121025D01*
X217668Y121920D01*
X216773Y122685D01*
X215769Y123300D01*
X214681Y123750D01*
X213536Y124025D01*
X212362Y124118D01*
X212351Y124117D01*
Y169685D01*
G37*
G36*
X202354D02*X212351D01*
Y124117D01*
X211188Y124025D01*
X210044Y123750D01*
X208956Y123300D01*
X207952Y122685D01*
X207057Y121920D01*
X206292Y121025D01*
X205677Y120021D01*
X205226Y118933D01*
X204951Y117788D01*
X204859Y116614D01*
X204951Y115440D01*
X205226Y114296D01*
X205677Y113208D01*
X206292Y112204D01*
X207057Y111308D01*
X207952Y110544D01*
X208956Y109929D01*
X210044Y109478D01*
X211188Y109203D01*
X212351Y109112D01*
Y87598D01*
X208921D01*
X208862Y87603D01*
X208627Y87585D01*
X208627Y87585D01*
X208397Y87529D01*
X208179Y87439D01*
X207978Y87316D01*
X207798Y87162D01*
X207645Y86983D01*
X207522Y86782D01*
X207431Y86563D01*
X207376Y86334D01*
X207358Y86098D01*
X207362Y86040D01*
Y79157D01*
X207358Y79098D01*
X207376Y78863D01*
X207376Y78863D01*
X207431Y78633D01*
X207522Y78415D01*
X207645Y78214D01*
X207798Y78034D01*
X207978Y77881D01*
X208179Y77758D01*
X208397Y77667D01*
X208627Y77612D01*
X208862Y77594D01*
X208921Y77598D01*
X212351D01*
Y50591D01*
X202354D01*
Y77584D01*
X202362Y77583D01*
X203147Y77645D01*
X203912Y77828D01*
X204639Y78130D01*
X205310Y78541D01*
X205909Y79052D01*
X206420Y79650D01*
X206831Y80321D01*
X207132Y81049D01*
X207316Y81814D01*
X207362Y82598D01*
X207316Y83383D01*
X207132Y84148D01*
X206831Y84875D01*
X206420Y85546D01*
X205909Y86145D01*
X205310Y86656D01*
X204639Y87067D01*
X203912Y87368D01*
X203147Y87552D01*
X202362Y87614D01*
X202354Y87613D01*
Y169685D01*
G37*
G36*
X187008Y455118D02*X187992D01*
X189961Y454134D01*
X192913Y451181D01*
X193898Y448228D01*
Y176575D01*
X195866Y173622D01*
X197835Y171654D01*
X200787Y169685D01*
X202354D01*
Y87613D01*
X201578Y87552D01*
X200812Y87368D01*
X200085Y87067D01*
X199414Y86656D01*
X198816Y86145D01*
X198305Y85546D01*
X197893Y84875D01*
X197592Y84148D01*
X197409Y83383D01*
X197347Y82598D01*
X197409Y81814D01*
X197592Y81049D01*
X197893Y80321D01*
X198305Y79650D01*
X198816Y79052D01*
X199414Y78541D01*
X200085Y78130D01*
X200812Y77828D01*
X201578Y77645D01*
X202354Y77584D01*
Y50591D01*
X186378D01*
Y77688D01*
X186545Y77758D01*
X186747Y77881D01*
X186926Y78034D01*
X187079Y78214D01*
X187203Y78415D01*
X187293Y78633D01*
X187348Y78863D01*
X187367Y79098D01*
X187362Y79157D01*
Y86040D01*
X187367Y86098D01*
X187348Y86334D01*
X187348Y86334D01*
X187293Y86563D01*
X187203Y86782D01*
X187079Y86983D01*
X186926Y87162D01*
X186747Y87316D01*
X186545Y87439D01*
X186378Y87508D01*
Y107598D01*
X189819D01*
X189878Y107594D01*
X190113Y107612D01*
X190113Y107612D01*
X190343Y107667D01*
X190561Y107758D01*
X190762Y107881D01*
X190942Y108034D01*
X191095Y108214D01*
X191219Y108415D01*
X191309Y108633D01*
X191364Y108863D01*
X191383Y109098D01*
X191378Y109157D01*
Y116040D01*
X191383Y116098D01*
X191364Y116334D01*
X191364Y116334D01*
X191309Y116563D01*
X191219Y116782D01*
X191095Y116983D01*
X190942Y117162D01*
X190762Y117316D01*
X190561Y117439D01*
X190343Y117529D01*
X190113Y117585D01*
X189878Y117603D01*
X189819Y117598D01*
X186378D01*
Y137520D01*
X189819D01*
X189878Y137515D01*
X190113Y137534D01*
X190113Y137534D01*
X190343Y137589D01*
X190561Y137679D01*
X190762Y137802D01*
X190942Y137956D01*
X191095Y138135D01*
X191219Y138337D01*
X191309Y138555D01*
X191364Y138784D01*
X191383Y139020D01*
X191378Y139079D01*
Y145961D01*
X191383Y146020D01*
X191364Y146255D01*
X191364Y146255D01*
X191309Y146485D01*
X191219Y146703D01*
X191095Y146904D01*
X190942Y147084D01*
X190762Y147237D01*
X190561Y147360D01*
X190343Y147451D01*
X190113Y147506D01*
X189878Y147524D01*
X189819Y147520D01*
X186378D01*
Y167441D01*
X189819D01*
X189878Y167436D01*
X190113Y167455D01*
X190113Y167455D01*
X190343Y167510D01*
X190561Y167600D01*
X190762Y167724D01*
X190942Y167877D01*
X191095Y168057D01*
X191219Y168258D01*
X191309Y168476D01*
X191364Y168706D01*
X191383Y168941D01*
X191378Y169000D01*
Y175882D01*
X191383Y175941D01*
X191364Y176176D01*
X191364Y176176D01*
X191309Y176406D01*
X191219Y176624D01*
X191095Y176825D01*
X190942Y177005D01*
X190762Y177158D01*
X190561Y177282D01*
X190343Y177372D01*
X190113Y177427D01*
X189878Y177446D01*
X189819Y177441D01*
X186378D01*
Y197362D01*
X189819D01*
X189878Y197358D01*
X190113Y197376D01*
X190113Y197376D01*
X190343Y197431D01*
X190561Y197522D01*
X190762Y197645D01*
X190942Y197798D01*
X191095Y197978D01*
X191219Y198179D01*
X191309Y198397D01*
X191364Y198627D01*
X191383Y198862D01*
X191378Y198921D01*
Y205803D01*
X191383Y205862D01*
X191364Y206097D01*
X191364Y206098D01*
X191309Y206327D01*
X191219Y206545D01*
X191095Y206747D01*
X190942Y206926D01*
X190762Y207079D01*
X190561Y207203D01*
X190343Y207293D01*
X190113Y207348D01*
X189878Y207367D01*
X189819Y207362D01*
X186378D01*
Y227283D01*
X189819D01*
X189878Y227279D01*
X190113Y227297D01*
X190113Y227297D01*
X190343Y227352D01*
X190561Y227443D01*
X190762Y227566D01*
X190942Y227720D01*
X191095Y227899D01*
X191219Y228100D01*
X191309Y228319D01*
X191364Y228548D01*
X191383Y228783D01*
X191378Y228842D01*
Y235725D01*
X191383Y235783D01*
X191364Y236019D01*
X191364Y236019D01*
X191309Y236248D01*
X191219Y236467D01*
X191095Y236668D01*
X190942Y236847D01*
X190762Y237001D01*
X190561Y237124D01*
X190343Y237214D01*
X190113Y237270D01*
X189878Y237288D01*
X189819Y237283D01*
X186378D01*
Y257205D01*
X189819D01*
X189878Y257200D01*
X190113Y257219D01*
X190113Y257219D01*
X190343Y257274D01*
X190561Y257364D01*
X190762Y257487D01*
X190942Y257641D01*
X191095Y257820D01*
X191219Y258022D01*
X191309Y258240D01*
X191364Y258469D01*
X191383Y258705D01*
X191378Y258764D01*
Y265646D01*
X191383Y265705D01*
X191364Y265940D01*
X191364Y265940D01*
X191309Y266170D01*
X191219Y266388D01*
X191095Y266589D01*
X190942Y266769D01*
X190762Y266922D01*
X190561Y267045D01*
X190343Y267136D01*
X190113Y267191D01*
X189878Y267209D01*
X189819Y267205D01*
X186378D01*
Y287126D01*
X189819D01*
X189878Y287121D01*
X190113Y287140D01*
X190113Y287140D01*
X190343Y287195D01*
X190561Y287285D01*
X190762Y287409D01*
X190942Y287562D01*
X191095Y287742D01*
X191219Y287943D01*
X191309Y288161D01*
X191364Y288391D01*
X191383Y288626D01*
X191378Y288685D01*
Y295567D01*
X191383Y295626D01*
X191364Y295861D01*
X191364Y295861D01*
X191309Y296091D01*
X191219Y296309D01*
X191095Y296510D01*
X190942Y296690D01*
X190762Y296843D01*
X190561Y296967D01*
X190343Y297057D01*
X190113Y297112D01*
X189878Y297131D01*
X189819Y297126D01*
X186378D01*
Y317047D01*
X189819D01*
X189878Y317043D01*
X190113Y317061D01*
X190113Y317061D01*
X190343Y317116D01*
X190561Y317207D01*
X190762Y317330D01*
X190942Y317483D01*
X191095Y317663D01*
X191219Y317864D01*
X191309Y318082D01*
X191364Y318312D01*
X191383Y318547D01*
X191378Y318606D01*
Y325488D01*
X191383Y325547D01*
X191364Y325782D01*
X191364Y325783D01*
X191309Y326012D01*
X191219Y326230D01*
X191095Y326432D01*
X190942Y326611D01*
X190762Y326765D01*
X190561Y326888D01*
X190343Y326978D01*
X190113Y327033D01*
X189878Y327052D01*
X189819Y327047D01*
X186378D01*
Y346969D01*
X189819D01*
X189878Y346964D01*
X190113Y346982D01*
X190113Y346982D01*
X190343Y347038D01*
X190561Y347128D01*
X190762Y347251D01*
X190942Y347405D01*
X191095Y347584D01*
X191219Y347785D01*
X191309Y348004D01*
X191364Y348233D01*
X191383Y348469D01*
X191378Y348527D01*
Y355410D01*
X191383Y355469D01*
X191364Y355704D01*
X191364Y355704D01*
X191309Y355933D01*
X191219Y356152D01*
X191095Y356353D01*
X190942Y356532D01*
X190762Y356686D01*
X190561Y356809D01*
X190343Y356899D01*
X190113Y356955D01*
X189878Y356973D01*
X189819Y356969D01*
X186378D01*
Y376890D01*
X189819D01*
X189878Y376885D01*
X190113Y376904D01*
X190113Y376904D01*
X190343Y376959D01*
X190561Y377049D01*
X190762Y377172D01*
X190942Y377326D01*
X191095Y377505D01*
X191219Y377707D01*
X191309Y377925D01*
X191364Y378154D01*
X191383Y378390D01*
X191378Y378449D01*
Y385331D01*
X191383Y385390D01*
X191364Y385625D01*
X191364Y385625D01*
X191309Y385855D01*
X191219Y386073D01*
X191095Y386274D01*
X190942Y386454D01*
X190762Y386607D01*
X190561Y386730D01*
X190343Y386821D01*
X190113Y386876D01*
X189878Y386894D01*
X189819Y386890D01*
X186378D01*
Y406811D01*
X189819D01*
X189878Y406806D01*
X190113Y406825D01*
X190113Y406825D01*
X190343Y406880D01*
X190561Y406970D01*
X190762Y407094D01*
X190942Y407247D01*
X191095Y407427D01*
X191219Y407628D01*
X191309Y407846D01*
X191364Y408076D01*
X191383Y408311D01*
X191378Y408370D01*
Y415252D01*
X191383Y415311D01*
X191364Y415546D01*
X191364Y415546D01*
X191309Y415776D01*
X191219Y415994D01*
X191095Y416195D01*
X190942Y416375D01*
X190762Y416528D01*
X190561Y416652D01*
X190343Y416742D01*
X190113Y416797D01*
X189878Y416816D01*
X189819Y416811D01*
X186378D01*
Y436732D01*
X189819D01*
X189878Y436728D01*
X190113Y436746D01*
X190113Y436746D01*
X190343Y436801D01*
X190561Y436892D01*
X190762Y437015D01*
X190942Y437168D01*
X191095Y437348D01*
X191219Y437549D01*
X191309Y437767D01*
X191364Y437997D01*
X191383Y438232D01*
X191378Y438291D01*
Y445174D01*
X191383Y445232D01*
X191364Y445467D01*
X191364Y445468D01*
X191309Y445697D01*
X191219Y445915D01*
X191095Y446117D01*
X190942Y446296D01*
X190762Y446450D01*
X190561Y446573D01*
X190343Y446663D01*
X190113Y446718D01*
X189878Y446737D01*
X189819Y446732D01*
X186378D01*
Y455118D01*
X187008D01*
G37*
G36*
X186378Y50591D02*X176370D01*
Y79592D01*
X176420Y79650D01*
X176831Y80321D01*
X177132Y81049D01*
X177316Y81814D01*
X177362Y82598D01*
X177316Y83383D01*
X177132Y84148D01*
X176831Y84875D01*
X176420Y85546D01*
X176370Y85604D01*
Y107584D01*
X176378Y107583D01*
X177163Y107645D01*
X177928Y107828D01*
X178655Y108130D01*
X179326Y108541D01*
X179924Y109052D01*
X180436Y109650D01*
X180847Y110321D01*
X181148Y111049D01*
X181332Y111814D01*
X181378Y112598D01*
X181332Y113383D01*
X181148Y114148D01*
X180847Y114875D01*
X180436Y115546D01*
X179924Y116145D01*
X179326Y116656D01*
X178655Y117067D01*
X177928Y117368D01*
X177163Y117552D01*
X176378Y117614D01*
X176370Y117613D01*
Y137505D01*
X176378Y137504D01*
X177163Y137566D01*
X177928Y137750D01*
X178655Y138051D01*
X179326Y138462D01*
X179924Y138973D01*
X180436Y139572D01*
X180847Y140243D01*
X181148Y140970D01*
X181332Y141735D01*
X181378Y142520D01*
X181332Y143304D01*
X181148Y144070D01*
X180847Y144797D01*
X180436Y145468D01*
X179924Y146066D01*
X179326Y146577D01*
X178655Y146988D01*
X177928Y147290D01*
X177163Y147473D01*
X176378Y147535D01*
X176370Y147534D01*
Y167426D01*
X176378Y167426D01*
X177163Y167487D01*
X177928Y167671D01*
X178655Y167972D01*
X179326Y168383D01*
X179924Y168895D01*
X180436Y169493D01*
X180847Y170164D01*
X181148Y170891D01*
X181332Y171656D01*
X181378Y172441D01*
X181332Y173226D01*
X181148Y173991D01*
X180847Y174718D01*
X180436Y175389D01*
X179924Y175987D01*
X179326Y176499D01*
X178655Y176910D01*
X177928Y177211D01*
X177163Y177395D01*
X176378Y177456D01*
X176370Y177456D01*
Y197347D01*
X176378Y197347D01*
X177163Y197409D01*
X177928Y197592D01*
X178655Y197893D01*
X179326Y198305D01*
X179924Y198816D01*
X180436Y199414D01*
X180847Y200085D01*
X181148Y200812D01*
X181332Y201578D01*
X181378Y202362D01*
X181332Y203147D01*
X181148Y203912D01*
X180847Y204639D01*
X180436Y205310D01*
X179924Y205909D01*
X179326Y206420D01*
X178655Y206831D01*
X177928Y207132D01*
X177163Y207316D01*
X176378Y207378D01*
X176370Y207377D01*
Y227269D01*
X176378Y227268D01*
X177163Y227330D01*
X177928Y227514D01*
X178655Y227815D01*
X179326Y228226D01*
X179924Y228737D01*
X180436Y229335D01*
X180847Y230007D01*
X181148Y230734D01*
X181332Y231499D01*
X181378Y232283D01*
X181332Y233068D01*
X181148Y233833D01*
X180847Y234560D01*
X180436Y235231D01*
X179924Y235830D01*
X179326Y236341D01*
X178655Y236752D01*
X177928Y237053D01*
X177163Y237237D01*
X176378Y237299D01*
X176370Y237298D01*
Y257190D01*
X176378Y257189D01*
X177163Y257251D01*
X177928Y257435D01*
X178655Y257736D01*
X179326Y258147D01*
X179924Y258658D01*
X180436Y259257D01*
X180847Y259928D01*
X181148Y260655D01*
X181332Y261420D01*
X181378Y262205D01*
X181332Y262989D01*
X181148Y263755D01*
X180847Y264482D01*
X180436Y265153D01*
X179924Y265751D01*
X179326Y266262D01*
X178655Y266673D01*
X177928Y266975D01*
X177163Y267158D01*
X176378Y267220D01*
X176370Y267220D01*
Y287111D01*
X176378Y287111D01*
X177163Y287172D01*
X177928Y287356D01*
X178655Y287657D01*
X179326Y288068D01*
X179924Y288580D01*
X180436Y289178D01*
X180847Y289849D01*
X181148Y290576D01*
X181332Y291341D01*
X181378Y292126D01*
X181332Y292911D01*
X181148Y293676D01*
X180847Y294403D01*
X180436Y295074D01*
X179924Y295672D01*
X179326Y296184D01*
X178655Y296595D01*
X177928Y296896D01*
X177163Y297080D01*
X176378Y297141D01*
X176370Y297141D01*
Y317032D01*
X176378Y317032D01*
X177163Y317094D01*
X177928Y317277D01*
X178655Y317578D01*
X179326Y317990D01*
X179924Y318501D01*
X180436Y319099D01*
X180847Y319770D01*
X181148Y320497D01*
X181332Y321263D01*
X181378Y322047D01*
X181332Y322832D01*
X181148Y323597D01*
X180847Y324324D01*
X180436Y324995D01*
X179924Y325594D01*
X179326Y326105D01*
X178655Y326516D01*
X177928Y326817D01*
X177163Y327001D01*
X176378Y327063D01*
X176370Y327062D01*
Y346954D01*
X176378Y346953D01*
X177163Y347015D01*
X177928Y347199D01*
X178655Y347500D01*
X179326Y347911D01*
X179924Y348422D01*
X180436Y349021D01*
X180847Y349692D01*
X181148Y350419D01*
X181332Y351184D01*
X181378Y351969D01*
X181332Y352753D01*
X181148Y353518D01*
X180847Y354245D01*
X180436Y354916D01*
X179924Y355515D01*
X179326Y356026D01*
X178655Y356437D01*
X177928Y356738D01*
X177163Y356922D01*
X176378Y356984D01*
X176370Y356983D01*
Y376875D01*
X176378Y376874D01*
X177163Y376936D01*
X177928Y377120D01*
X178655Y377421D01*
X179326Y377832D01*
X179924Y378343D01*
X180436Y378942D01*
X180847Y379613D01*
X181148Y380340D01*
X181332Y381105D01*
X181378Y381890D01*
X181332Y382674D01*
X181148Y383440D01*
X180847Y384167D01*
X180436Y384838D01*
X179924Y385436D01*
X179326Y385947D01*
X178655Y386359D01*
X177928Y386660D01*
X177163Y386843D01*
X176378Y386905D01*
X176370Y386905D01*
Y406796D01*
X176378Y406796D01*
X177163Y406857D01*
X177928Y407041D01*
X178655Y407342D01*
X179326Y407753D01*
X179924Y408265D01*
X180436Y408863D01*
X180847Y409534D01*
X181148Y410261D01*
X181332Y411026D01*
X181378Y411811D01*
X181332Y412596D01*
X181148Y413361D01*
X180847Y414088D01*
X180436Y414759D01*
X179924Y415357D01*
X179326Y415869D01*
X178655Y416280D01*
X177928Y416581D01*
X177163Y416765D01*
X176378Y416826D01*
X176370Y416826D01*
Y436717D01*
X176378Y436717D01*
X177163Y436779D01*
X177928Y436962D01*
X178655Y437264D01*
X179326Y437675D01*
X179924Y438186D01*
X180436Y438784D01*
X180847Y439455D01*
X181148Y440182D01*
X181332Y440948D01*
X181378Y441732D01*
X181332Y442517D01*
X181148Y443282D01*
X180847Y444009D01*
X180436Y444680D01*
X179924Y445279D01*
X179326Y445790D01*
X178655Y446201D01*
X177928Y446502D01*
X177163Y446686D01*
X176378Y446748D01*
X176370Y446747D01*
Y455118D01*
X186378D01*
Y446732D01*
X182937D01*
X182878Y446737D01*
X182643Y446718D01*
X182643Y446718D01*
X182413Y446663D01*
X182195Y446573D01*
X181994Y446450D01*
X181814Y446296D01*
X181661Y446117D01*
X181537Y445915D01*
X181447Y445697D01*
X181392Y445468D01*
X181373Y445232D01*
X181378Y445173D01*
Y438291D01*
X181373Y438232D01*
X181392Y437997D01*
X181392Y437997D01*
X181447Y437767D01*
X181537Y437549D01*
X181661Y437348D01*
X181814Y437168D01*
X181994Y437015D01*
X182195Y436892D01*
X182413Y436801D01*
X182643Y436746D01*
X182878Y436728D01*
X182937Y436732D01*
X186378D01*
Y416811D01*
X182937D01*
X182878Y416816D01*
X182643Y416797D01*
X182643Y416797D01*
X182413Y416742D01*
X182195Y416652D01*
X181994Y416528D01*
X181814Y416375D01*
X181661Y416195D01*
X181537Y415994D01*
X181447Y415776D01*
X181392Y415546D01*
X181373Y415311D01*
X181378Y415252D01*
Y408370D01*
X181373Y408311D01*
X181392Y408076D01*
X181392Y408076D01*
X181447Y407846D01*
X181537Y407628D01*
X181661Y407427D01*
X181814Y407247D01*
X181994Y407094D01*
X182195Y406970D01*
X182413Y406880D01*
X182643Y406825D01*
X182878Y406806D01*
X182937Y406811D01*
X186378D01*
Y386890D01*
X182937D01*
X182878Y386894D01*
X182643Y386876D01*
X182643Y386876D01*
X182413Y386821D01*
X182195Y386730D01*
X181994Y386607D01*
X181814Y386454D01*
X181661Y386274D01*
X181537Y386073D01*
X181447Y385855D01*
X181392Y385625D01*
X181373Y385390D01*
X181378Y385331D01*
Y378449D01*
X181373Y378390D01*
X181392Y378155D01*
X181392Y378154D01*
X181447Y377925D01*
X181537Y377707D01*
X181661Y377505D01*
X181814Y377326D01*
X181994Y377172D01*
X182195Y377049D01*
X182413Y376959D01*
X182643Y376904D01*
X182878Y376885D01*
X182937Y376890D01*
X186378D01*
Y356969D01*
X182937D01*
X182878Y356973D01*
X182643Y356955D01*
X182643Y356955D01*
X182413Y356899D01*
X182195Y356809D01*
X181994Y356686D01*
X181814Y356532D01*
X181661Y356353D01*
X181537Y356152D01*
X181447Y355933D01*
X181392Y355704D01*
X181373Y355469D01*
X181378Y355410D01*
Y348527D01*
X181373Y348469D01*
X181392Y348233D01*
X181392Y348233D01*
X181447Y348004D01*
X181537Y347785D01*
X181661Y347584D01*
X181814Y347405D01*
X181994Y347251D01*
X182195Y347128D01*
X182413Y347038D01*
X182643Y346982D01*
X182878Y346964D01*
X182937Y346969D01*
X186378D01*
Y327047D01*
X182937D01*
X182878Y327052D01*
X182643Y327033D01*
X182643Y327033D01*
X182413Y326978D01*
X182195Y326888D01*
X181994Y326765D01*
X181814Y326611D01*
X181661Y326432D01*
X181537Y326230D01*
X181447Y326012D01*
X181392Y325783D01*
X181373Y325547D01*
X181378Y325488D01*
Y318606D01*
X181373Y318547D01*
X181392Y318312D01*
X181392Y318312D01*
X181447Y318082D01*
X181537Y317864D01*
X181661Y317663D01*
X181814Y317483D01*
X181994Y317330D01*
X182195Y317207D01*
X182413Y317116D01*
X182643Y317061D01*
X182878Y317043D01*
X182937Y317047D01*
X186378D01*
Y297126D01*
X182937D01*
X182878Y297131D01*
X182643Y297112D01*
X182643Y297112D01*
X182413Y297057D01*
X182195Y296967D01*
X181994Y296843D01*
X181814Y296690D01*
X181661Y296510D01*
X181537Y296309D01*
X181447Y296091D01*
X181392Y295861D01*
X181373Y295626D01*
X181378Y295567D01*
Y288685D01*
X181373Y288626D01*
X181392Y288391D01*
X181392Y288391D01*
X181447Y288161D01*
X181537Y287943D01*
X181661Y287742D01*
X181814Y287562D01*
X181994Y287409D01*
X182195Y287285D01*
X182413Y287195D01*
X182643Y287140D01*
X182878Y287121D01*
X182937Y287126D01*
X186378D01*
Y267205D01*
X182937D01*
X182878Y267209D01*
X182643Y267191D01*
X182643Y267191D01*
X182413Y267136D01*
X182195Y267045D01*
X181994Y266922D01*
X181814Y266769D01*
X181661Y266589D01*
X181537Y266388D01*
X181447Y266170D01*
X181392Y265940D01*
X181373Y265705D01*
X181378Y265646D01*
Y258764D01*
X181373Y258705D01*
X181392Y258470D01*
X181392Y258469D01*
X181447Y258240D01*
X181537Y258022D01*
X181661Y257820D01*
X181814Y257641D01*
X181994Y257487D01*
X182195Y257364D01*
X182413Y257274D01*
X182643Y257219D01*
X182878Y257200D01*
X182937Y257205D01*
X186378D01*
Y237283D01*
X182937D01*
X182878Y237288D01*
X182643Y237270D01*
X182643Y237270D01*
X182413Y237214D01*
X182195Y237124D01*
X181994Y237001D01*
X181814Y236847D01*
X181661Y236668D01*
X181537Y236467D01*
X181447Y236248D01*
X181392Y236019D01*
X181373Y235783D01*
X181378Y235725D01*
Y228842D01*
X181373Y228783D01*
X181392Y228548D01*
X181392Y228548D01*
X181447Y228319D01*
X181537Y228100D01*
X181661Y227899D01*
X181814Y227720D01*
X181994Y227566D01*
X182195Y227443D01*
X182413Y227352D01*
X182643Y227297D01*
X182878Y227279D01*
X182937Y227283D01*
X186378D01*
Y207362D01*
X182937D01*
X182878Y207367D01*
X182643Y207348D01*
X182643Y207348D01*
X182413Y207293D01*
X182195Y207203D01*
X181994Y207079D01*
X181814Y206926D01*
X181661Y206747D01*
X181537Y206545D01*
X181447Y206327D01*
X181392Y206098D01*
X181373Y205862D01*
X181378Y205803D01*
Y198921D01*
X181373Y198862D01*
X181392Y198627D01*
X181392Y198627D01*
X181447Y198397D01*
X181537Y198179D01*
X181661Y197978D01*
X181814Y197798D01*
X181994Y197645D01*
X182195Y197522D01*
X182413Y197431D01*
X182643Y197376D01*
X182878Y197358D01*
X182937Y197362D01*
X186378D01*
Y177441D01*
X182937D01*
X182878Y177446D01*
X182643Y177427D01*
X182643Y177427D01*
X182413Y177372D01*
X182195Y177282D01*
X181994Y177158D01*
X181814Y177005D01*
X181661Y176825D01*
X181537Y176624D01*
X181447Y176406D01*
X181392Y176176D01*
X181373Y175941D01*
X181378Y175882D01*
Y169000D01*
X181373Y168941D01*
X181392Y168706D01*
X181392Y168706D01*
X181447Y168476D01*
X181537Y168258D01*
X181661Y168057D01*
X181814Y167877D01*
X181994Y167724D01*
X182195Y167600D01*
X182413Y167510D01*
X182643Y167455D01*
X182878Y167436D01*
X182937Y167441D01*
X186378D01*
Y147520D01*
X182937D01*
X182878Y147524D01*
X182643Y147506D01*
X182643Y147506D01*
X182413Y147451D01*
X182195Y147360D01*
X181994Y147237D01*
X181814Y147084D01*
X181661Y146904D01*
X181537Y146703D01*
X181447Y146485D01*
X181392Y146255D01*
X181373Y146020D01*
X181378Y145961D01*
Y139078D01*
X181373Y139020D01*
X181392Y138785D01*
X181392Y138784D01*
X181447Y138555D01*
X181537Y138337D01*
X181661Y138135D01*
X181814Y137956D01*
X181994Y137802D01*
X182195Y137679D01*
X182413Y137589D01*
X182643Y137534D01*
X182878Y137515D01*
X182937Y137520D01*
X186378D01*
Y117598D01*
X182937D01*
X182878Y117603D01*
X182643Y117585D01*
X182643Y117585D01*
X182413Y117529D01*
X182195Y117439D01*
X181994Y117316D01*
X181814Y117162D01*
X181661Y116983D01*
X181537Y116782D01*
X181447Y116563D01*
X181392Y116334D01*
X181373Y116098D01*
X181378Y116040D01*
Y109157D01*
X181373Y109098D01*
X181392Y108863D01*
X181392Y108863D01*
X181447Y108633D01*
X181537Y108415D01*
X181661Y108214D01*
X181814Y108034D01*
X181994Y107881D01*
X182195Y107758D01*
X182413Y107667D01*
X182643Y107612D01*
X182878Y107594D01*
X182937Y107598D01*
X186378D01*
Y87508D01*
X186327Y87529D01*
X186098Y87585D01*
X185862Y87603D01*
X185803Y87598D01*
X178921D01*
X178862Y87603D01*
X178627Y87585D01*
X178627Y87585D01*
X178397Y87529D01*
X178179Y87439D01*
X177978Y87316D01*
X177798Y87162D01*
X177645Y86983D01*
X177522Y86782D01*
X177431Y86563D01*
X177376Y86334D01*
X177358Y86098D01*
X177362Y86040D01*
Y79157D01*
X177358Y79098D01*
X177376Y78863D01*
X177376Y78863D01*
X177431Y78633D01*
X177522Y78415D01*
X177645Y78214D01*
X177798Y78034D01*
X177978Y77881D01*
X178179Y77758D01*
X178397Y77667D01*
X178627Y77612D01*
X178862Y77594D01*
X178921Y77598D01*
X185803D01*
X185862Y77594D01*
X186097Y77612D01*
X186098Y77612D01*
X186327Y77667D01*
X186378Y77688D01*
Y50591D01*
G37*
G36*
X176370D02*X150394D01*
Y77598D01*
X155803D01*
X155862Y77594D01*
X156097Y77612D01*
X156098Y77612D01*
X156327Y77667D01*
X156545Y77758D01*
X156747Y77881D01*
X156926Y78034D01*
X157079Y78214D01*
X157203Y78415D01*
X157293Y78633D01*
X157348Y78863D01*
X157367Y79098D01*
X157362Y79157D01*
Y86040D01*
X157367Y86098D01*
X157348Y86334D01*
X157348Y86334D01*
X157293Y86563D01*
X157203Y86782D01*
X157079Y86983D01*
X156926Y87162D01*
X156747Y87316D01*
X156545Y87439D01*
X156327Y87529D01*
X156098Y87585D01*
X155862Y87603D01*
X155803Y87598D01*
X150394D01*
Y107598D01*
X153835D01*
X153894Y107594D01*
X154129Y107612D01*
X154129Y107612D01*
X154359Y107667D01*
X154577Y107758D01*
X154778Y107881D01*
X154958Y108034D01*
X155111Y108214D01*
X155234Y108415D01*
X155325Y108633D01*
X155380Y108863D01*
X155398Y109098D01*
X155394Y109157D01*
Y116040D01*
X155398Y116098D01*
X155380Y116334D01*
X155380Y116334D01*
X155325Y116563D01*
X155234Y116782D01*
X155111Y116983D01*
X154958Y117162D01*
X154778Y117316D01*
X154577Y117439D01*
X154359Y117529D01*
X154129Y117585D01*
X153894Y117603D01*
X153835Y117598D01*
X150394D01*
Y137520D01*
X153835D01*
X153894Y137515D01*
X154129Y137534D01*
X154129Y137534D01*
X154359Y137589D01*
X154577Y137679D01*
X154778Y137802D01*
X154958Y137956D01*
X155111Y138135D01*
X155234Y138337D01*
X155325Y138555D01*
X155380Y138784D01*
X155398Y139020D01*
X155394Y139079D01*
Y145961D01*
X155398Y146020D01*
X155380Y146255D01*
X155380Y146255D01*
X155325Y146485D01*
X155234Y146703D01*
X155111Y146904D01*
X154958Y147084D01*
X154778Y147237D01*
X154577Y147360D01*
X154359Y147451D01*
X154129Y147506D01*
X153894Y147524D01*
X153835Y147520D01*
X150394D01*
Y167441D01*
X153835D01*
X153894Y167436D01*
X154129Y167455D01*
X154129Y167455D01*
X154359Y167510D01*
X154577Y167600D01*
X154778Y167724D01*
X154958Y167877D01*
X155111Y168057D01*
X155234Y168258D01*
X155325Y168476D01*
X155380Y168706D01*
X155398Y168941D01*
X155394Y169000D01*
Y175882D01*
X155398Y175941D01*
X155380Y176176D01*
X155380Y176176D01*
X155325Y176406D01*
X155234Y176624D01*
X155111Y176825D01*
X154958Y177005D01*
X154778Y177158D01*
X154577Y177282D01*
X154359Y177372D01*
X154129Y177427D01*
X153894Y177446D01*
X153835Y177441D01*
X150394D01*
Y197362D01*
X153835D01*
X153894Y197358D01*
X154129Y197376D01*
X154129Y197376D01*
X154359Y197431D01*
X154577Y197522D01*
X154778Y197645D01*
X154958Y197798D01*
X155111Y197978D01*
X155234Y198179D01*
X155325Y198397D01*
X155380Y198627D01*
X155398Y198862D01*
X155394Y198921D01*
Y205803D01*
X155398Y205862D01*
X155380Y206097D01*
X155380Y206098D01*
X155325Y206327D01*
X155234Y206545D01*
X155111Y206747D01*
X154958Y206926D01*
X154778Y207079D01*
X154577Y207203D01*
X154359Y207293D01*
X154129Y207348D01*
X153894Y207367D01*
X153835Y207362D01*
X150394D01*
Y227283D01*
X153835D01*
X153894Y227279D01*
X154129Y227297D01*
X154129Y227297D01*
X154359Y227352D01*
X154577Y227443D01*
X154778Y227566D01*
X154958Y227720D01*
X155111Y227899D01*
X155234Y228100D01*
X155325Y228319D01*
X155380Y228548D01*
X155398Y228783D01*
X155394Y228842D01*
Y235725D01*
X155398Y235783D01*
X155380Y236019D01*
X155380Y236019D01*
X155325Y236248D01*
X155234Y236467D01*
X155111Y236668D01*
X154958Y236847D01*
X154778Y237001D01*
X154577Y237124D01*
X154359Y237214D01*
X154129Y237270D01*
X153894Y237288D01*
X153835Y237283D01*
X150394D01*
Y257205D01*
X153835D01*
X153894Y257200D01*
X154129Y257219D01*
X154129Y257219D01*
X154359Y257274D01*
X154577Y257364D01*
X154778Y257487D01*
X154958Y257641D01*
X155111Y257820D01*
X155234Y258022D01*
X155325Y258240D01*
X155380Y258469D01*
X155398Y258705D01*
X155394Y258764D01*
Y265646D01*
X155398Y265705D01*
X155380Y265940D01*
X155380Y265940D01*
X155325Y266170D01*
X155234Y266388D01*
X155111Y266589D01*
X154958Y266769D01*
X154778Y266922D01*
X154577Y267045D01*
X154359Y267136D01*
X154129Y267191D01*
X153894Y267209D01*
X153835Y267205D01*
X150394D01*
Y287126D01*
X153835D01*
X153894Y287121D01*
X154129Y287140D01*
X154129Y287140D01*
X154359Y287195D01*
X154577Y287285D01*
X154778Y287409D01*
X154958Y287562D01*
X155111Y287742D01*
X155234Y287943D01*
X155325Y288161D01*
X155380Y288391D01*
X155398Y288626D01*
X155394Y288685D01*
Y295567D01*
X155398Y295626D01*
X155380Y295861D01*
X155380Y295861D01*
X155325Y296091D01*
X155234Y296309D01*
X155111Y296510D01*
X154958Y296690D01*
X154778Y296843D01*
X154577Y296967D01*
X154359Y297057D01*
X154129Y297112D01*
X153894Y297131D01*
X153835Y297126D01*
X150394D01*
Y317047D01*
X153835D01*
X153894Y317043D01*
X154129Y317061D01*
X154129Y317061D01*
X154359Y317116D01*
X154577Y317207D01*
X154778Y317330D01*
X154958Y317483D01*
X155111Y317663D01*
X155234Y317864D01*
X155325Y318082D01*
X155380Y318312D01*
X155398Y318547D01*
X155394Y318606D01*
Y325488D01*
X155398Y325547D01*
X155380Y325782D01*
X155380Y325783D01*
X155325Y326012D01*
X155234Y326230D01*
X155111Y326432D01*
X154958Y326611D01*
X154778Y326765D01*
X154577Y326888D01*
X154359Y326978D01*
X154129Y327033D01*
X153894Y327052D01*
X153835Y327047D01*
X150394D01*
Y346969D01*
X153835D01*
X153894Y346964D01*
X154129Y346982D01*
X154129Y346982D01*
X154359Y347038D01*
X154577Y347128D01*
X154778Y347251D01*
X154958Y347405D01*
X155111Y347584D01*
X155234Y347785D01*
X155325Y348004D01*
X155380Y348233D01*
X155398Y348469D01*
X155394Y348527D01*
Y355410D01*
X155398Y355469D01*
X155380Y355704D01*
X155380Y355704D01*
X155325Y355933D01*
X155234Y356152D01*
X155111Y356353D01*
X154958Y356532D01*
X154778Y356686D01*
X154577Y356809D01*
X154359Y356899D01*
X154129Y356955D01*
X153894Y356973D01*
X153835Y356969D01*
X150394D01*
Y376890D01*
X153835D01*
X153894Y376885D01*
X154129Y376904D01*
X154129Y376904D01*
X154359Y376959D01*
X154577Y377049D01*
X154778Y377172D01*
X154958Y377326D01*
X155111Y377505D01*
X155234Y377707D01*
X155325Y377925D01*
X155380Y378154D01*
X155398Y378390D01*
X155394Y378449D01*
Y385331D01*
X155398Y385390D01*
X155380Y385625D01*
X155380Y385625D01*
X155325Y385855D01*
X155234Y386073D01*
X155111Y386274D01*
X154958Y386454D01*
X154778Y386607D01*
X154577Y386730D01*
X154359Y386821D01*
X154129Y386876D01*
X153894Y386894D01*
X153835Y386890D01*
X150394D01*
Y406811D01*
X153835D01*
X153894Y406806D01*
X154129Y406825D01*
X154129Y406825D01*
X154359Y406880D01*
X154577Y406970D01*
X154778Y407094D01*
X154958Y407247D01*
X155111Y407427D01*
X155234Y407628D01*
X155325Y407846D01*
X155380Y408076D01*
X155398Y408311D01*
X155394Y408370D01*
Y415252D01*
X155398Y415311D01*
X155380Y415546D01*
X155380Y415546D01*
X155325Y415776D01*
X155234Y415994D01*
X155111Y416195D01*
X154958Y416375D01*
X154778Y416528D01*
X154577Y416652D01*
X154359Y416742D01*
X154129Y416797D01*
X153894Y416816D01*
X153835Y416811D01*
X150394D01*
Y436732D01*
X153835D01*
X153894Y436728D01*
X154129Y436746D01*
X154129Y436746D01*
X154359Y436801D01*
X154577Y436892D01*
X154778Y437015D01*
X154958Y437168D01*
X155111Y437348D01*
X155234Y437549D01*
X155325Y437767D01*
X155380Y437997D01*
X155398Y438232D01*
X155394Y438291D01*
Y445174D01*
X155398Y445232D01*
X155380Y445467D01*
X155380Y445468D01*
X155325Y445697D01*
X155234Y445915D01*
X155111Y446117D01*
X154958Y446296D01*
X154778Y446450D01*
X154577Y446573D01*
X154359Y446663D01*
X154129Y446718D01*
X153894Y446737D01*
X153835Y446732D01*
X150394D01*
Y455118D01*
X176370D01*
Y446747D01*
X175593Y446686D01*
X174828Y446502D01*
X174101Y446201D01*
X173430Y445790D01*
X172832Y445279D01*
X172320Y444680D01*
X171909Y444009D01*
X171608Y443282D01*
X171424Y442517D01*
X171363Y441732D01*
X171424Y440948D01*
X171608Y440182D01*
X171909Y439455D01*
X172320Y438784D01*
X172832Y438186D01*
X173430Y437675D01*
X174101Y437264D01*
X174828Y436962D01*
X175593Y436779D01*
X176370Y436717D01*
Y416826D01*
X175593Y416765D01*
X174828Y416581D01*
X174101Y416280D01*
X173430Y415869D01*
X172832Y415357D01*
X172320Y414759D01*
X171909Y414088D01*
X171608Y413361D01*
X171424Y412596D01*
X171363Y411811D01*
X171424Y411026D01*
X171608Y410261D01*
X171909Y409534D01*
X172320Y408863D01*
X172832Y408265D01*
X173430Y407753D01*
X174101Y407342D01*
X174828Y407041D01*
X175593Y406857D01*
X176370Y406796D01*
Y386905D01*
X175593Y386843D01*
X174828Y386660D01*
X174101Y386359D01*
X173430Y385947D01*
X172832Y385436D01*
X172320Y384838D01*
X171909Y384167D01*
X171608Y383440D01*
X171424Y382674D01*
X171363Y381890D01*
X171424Y381105D01*
X171608Y380340D01*
X171909Y379613D01*
X172320Y378942D01*
X172832Y378343D01*
X173430Y377832D01*
X174101Y377421D01*
X174828Y377120D01*
X175593Y376936D01*
X176370Y376875D01*
Y356983D01*
X175593Y356922D01*
X174828Y356738D01*
X174101Y356437D01*
X173430Y356026D01*
X172832Y355515D01*
X172320Y354916D01*
X171909Y354245D01*
X171608Y353518D01*
X171424Y352753D01*
X171363Y351969D01*
X171424Y351184D01*
X171608Y350419D01*
X171909Y349692D01*
X172320Y349021D01*
X172832Y348422D01*
X173430Y347911D01*
X174101Y347500D01*
X174828Y347199D01*
X175593Y347015D01*
X176370Y346954D01*
Y327062D01*
X175593Y327001D01*
X174828Y326817D01*
X174101Y326516D01*
X173430Y326105D01*
X172832Y325594D01*
X172320Y324995D01*
X171909Y324324D01*
X171608Y323597D01*
X171424Y322832D01*
X171363Y322047D01*
X171424Y321263D01*
X171608Y320497D01*
X171909Y319770D01*
X172320Y319099D01*
X172832Y318501D01*
X173430Y317990D01*
X174101Y317578D01*
X174828Y317277D01*
X175593Y317094D01*
X176370Y317032D01*
Y297141D01*
X175593Y297080D01*
X174828Y296896D01*
X174101Y296595D01*
X173430Y296184D01*
X172832Y295672D01*
X172320Y295074D01*
X171909Y294403D01*
X171608Y293676D01*
X171424Y292911D01*
X171363Y292126D01*
X171424Y291341D01*
X171608Y290576D01*
X171909Y289849D01*
X172320Y289178D01*
X172832Y288580D01*
X173430Y288068D01*
X174101Y287657D01*
X174828Y287356D01*
X175593Y287172D01*
X176370Y287111D01*
Y267220D01*
X175593Y267158D01*
X174828Y266975D01*
X174101Y266673D01*
X173430Y266262D01*
X172832Y265751D01*
X172320Y265153D01*
X171909Y264482D01*
X171608Y263755D01*
X171424Y262989D01*
X171363Y262205D01*
X171424Y261420D01*
X171608Y260655D01*
X171909Y259928D01*
X172320Y259257D01*
X172832Y258658D01*
X173430Y258147D01*
X174101Y257736D01*
X174828Y257435D01*
X175593Y257251D01*
X176370Y257190D01*
Y237298D01*
X175593Y237237D01*
X174828Y237053D01*
X174101Y236752D01*
X173430Y236341D01*
X172832Y235830D01*
X172320Y235231D01*
X171909Y234560D01*
X171608Y233833D01*
X171424Y233068D01*
X171363Y232283D01*
X171424Y231499D01*
X171608Y230734D01*
X171909Y230007D01*
X172320Y229335D01*
X172832Y228737D01*
X173430Y228226D01*
X174101Y227815D01*
X174828Y227514D01*
X175593Y227330D01*
X176370Y227269D01*
Y207377D01*
X175593Y207316D01*
X174828Y207132D01*
X174101Y206831D01*
X173430Y206420D01*
X172832Y205909D01*
X172320Y205310D01*
X171909Y204639D01*
X171608Y203912D01*
X171424Y203147D01*
X171363Y202362D01*
X171424Y201578D01*
X171608Y200812D01*
X171909Y200085D01*
X172320Y199414D01*
X172832Y198816D01*
X173430Y198305D01*
X174101Y197893D01*
X174828Y197592D01*
X175593Y197409D01*
X176370Y197347D01*
Y177456D01*
X175593Y177395D01*
X174828Y177211D01*
X174101Y176910D01*
X173430Y176499D01*
X172832Y175987D01*
X172320Y175389D01*
X171909Y174718D01*
X171608Y173991D01*
X171424Y173226D01*
X171363Y172441D01*
X171424Y171656D01*
X171608Y170891D01*
X171909Y170164D01*
X172320Y169493D01*
X172832Y168895D01*
X173430Y168383D01*
X174101Y167972D01*
X174828Y167671D01*
X175593Y167487D01*
X176370Y167426D01*
Y147534D01*
X175593Y147473D01*
X174828Y147290D01*
X174101Y146988D01*
X173430Y146577D01*
X172832Y146066D01*
X172320Y145468D01*
X171909Y144797D01*
X171608Y144070D01*
X171424Y143304D01*
X171363Y142520D01*
X171424Y141735D01*
X171608Y140970D01*
X171909Y140243D01*
X172320Y139572D01*
X172832Y138973D01*
X173430Y138462D01*
X174101Y138051D01*
X174828Y137750D01*
X175593Y137566D01*
X176370Y137505D01*
Y117613D01*
X175593Y117552D01*
X174828Y117368D01*
X174101Y117067D01*
X173430Y116656D01*
X172832Y116145D01*
X172320Y115546D01*
X171909Y114875D01*
X171608Y114148D01*
X171424Y113383D01*
X171363Y112598D01*
X171424Y111814D01*
X171608Y111049D01*
X171909Y110321D01*
X172320Y109650D01*
X172832Y109052D01*
X173430Y108541D01*
X174101Y108130D01*
X174828Y107828D01*
X175593Y107645D01*
X176370Y107584D01*
Y85604D01*
X175909Y86145D01*
X175310Y86656D01*
X174639Y87067D01*
X173912Y87368D01*
X173147Y87552D01*
X172362Y87614D01*
X171578Y87552D01*
X170812Y87368D01*
X170085Y87067D01*
X169414Y86656D01*
X168816Y86145D01*
X168305Y85546D01*
X167893Y84875D01*
X167592Y84148D01*
X167409Y83383D01*
X167347Y82598D01*
X167409Y81814D01*
X167592Y81049D01*
X167893Y80321D01*
X168305Y79650D01*
X168816Y79052D01*
X169414Y78541D01*
X170085Y78130D01*
X170812Y77828D01*
X171578Y77645D01*
X172362Y77583D01*
X173147Y77645D01*
X173912Y77828D01*
X174639Y78130D01*
X175310Y78541D01*
X175909Y79052D01*
X176370Y79592D01*
Y50591D01*
G37*
G36*
X150394Y416811D02*X146952D01*
X146894Y416816D01*
X146659Y416797D01*
X146658Y416797D01*
X146429Y416742D01*
X146211Y416652D01*
X146009Y416528D01*
X145830Y416375D01*
X145676Y416195D01*
X145553Y415994D01*
X145463Y415776D01*
X145408Y415546D01*
X145389Y415311D01*
X145394Y415252D01*
Y411811D01*
X145388Y411902D01*
Y441641D01*
X145394Y441732D01*
X145388Y441824D01*
Y455118D01*
X150394D01*
Y446732D01*
X146952D01*
X146894Y446737D01*
X146659Y446718D01*
X146658Y446718D01*
X146429Y446663D01*
X146211Y446573D01*
X146009Y446450D01*
X145830Y446296D01*
X145676Y446117D01*
X145553Y445915D01*
X145463Y445697D01*
X145408Y445468D01*
X145389Y445232D01*
X145394Y445173D01*
Y438291D01*
X145389Y438232D01*
X145408Y437997D01*
X145408Y437997D01*
X145463Y437767D01*
X145553Y437549D01*
X145676Y437348D01*
X145830Y437168D01*
X146009Y437015D01*
X146211Y436892D01*
X146429Y436801D01*
X146658Y436746D01*
X146894Y436728D01*
X146953Y436732D01*
X150394D01*
Y416811D01*
G37*
G36*
Y386890D02*X146952D01*
X146894Y386894D01*
X146659Y386876D01*
X146658Y386876D01*
X146429Y386821D01*
X146211Y386730D01*
X146009Y386607D01*
X145830Y386454D01*
X145676Y386274D01*
X145553Y386073D01*
X145463Y385855D01*
X145408Y385625D01*
X145389Y385390D01*
X145394Y385331D01*
Y381890D01*
X145388Y381981D01*
Y411720D01*
X145394Y411811D01*
Y408370D01*
X145389Y408311D01*
X145408Y408076D01*
X145408Y408076D01*
X145463Y407846D01*
X145553Y407628D01*
X145676Y407427D01*
X145830Y407247D01*
X146009Y407094D01*
X146211Y406970D01*
X146429Y406880D01*
X146658Y406825D01*
X146894Y406806D01*
X146953Y406811D01*
X150394D01*
Y386890D01*
G37*
G36*
Y356969D02*X146952D01*
X146894Y356973D01*
X146659Y356955D01*
X146658Y356955D01*
X146429Y356899D01*
X146211Y356809D01*
X146009Y356686D01*
X145830Y356532D01*
X145676Y356353D01*
X145553Y356152D01*
X145463Y355933D01*
X145408Y355704D01*
X145389Y355469D01*
X145394Y355410D01*
Y351969D01*
X145388Y352060D01*
Y381798D01*
X145394Y381890D01*
Y378449D01*
X145389Y378390D01*
X145408Y378155D01*
X145408Y378154D01*
X145463Y377925D01*
X145553Y377707D01*
X145676Y377505D01*
X145830Y377326D01*
X146009Y377172D01*
X146211Y377049D01*
X146429Y376959D01*
X146658Y376904D01*
X146894Y376885D01*
X146953Y376890D01*
X150394D01*
Y356969D01*
G37*
G36*
Y327047D02*X146952D01*
X146894Y327052D01*
X146659Y327033D01*
X146658Y327033D01*
X146429Y326978D01*
X146211Y326888D01*
X146009Y326765D01*
X145830Y326611D01*
X145676Y326432D01*
X145553Y326230D01*
X145463Y326012D01*
X145408Y325783D01*
X145389Y325547D01*
X145394Y325488D01*
Y322047D01*
X145388Y322139D01*
Y351877D01*
X145394Y351969D01*
Y348527D01*
X145389Y348469D01*
X145408Y348233D01*
X145408Y348233D01*
X145463Y348004D01*
X145553Y347785D01*
X145676Y347584D01*
X145830Y347405D01*
X146009Y347251D01*
X146211Y347128D01*
X146429Y347038D01*
X146658Y346982D01*
X146894Y346964D01*
X146953Y346969D01*
X150394D01*
Y327047D01*
G37*
G36*
Y297126D02*X146952D01*
X146894Y297131D01*
X146659Y297112D01*
X146658Y297112D01*
X146429Y297057D01*
X146211Y296967D01*
X146009Y296843D01*
X145830Y296690D01*
X145676Y296510D01*
X145553Y296309D01*
X145463Y296091D01*
X145408Y295861D01*
X145389Y295626D01*
X145394Y295567D01*
Y292126D01*
X145388Y292217D01*
Y321956D01*
X145394Y322047D01*
Y318606D01*
X145389Y318547D01*
X145408Y318312D01*
X145408Y318312D01*
X145463Y318082D01*
X145553Y317864D01*
X145676Y317663D01*
X145830Y317483D01*
X146009Y317330D01*
X146211Y317207D01*
X146429Y317116D01*
X146658Y317061D01*
X146894Y317043D01*
X146953Y317047D01*
X150394D01*
Y297126D01*
G37*
G36*
Y267205D02*X146952D01*
X146894Y267209D01*
X146659Y267191D01*
X146658Y267191D01*
X146429Y267136D01*
X146211Y267045D01*
X146009Y266922D01*
X145830Y266769D01*
X145676Y266589D01*
X145553Y266388D01*
X145463Y266170D01*
X145408Y265940D01*
X145389Y265705D01*
X145394Y265646D01*
Y262205D01*
X145388Y262296D01*
Y292035D01*
X145394Y292126D01*
Y288685D01*
X145389Y288626D01*
X145408Y288391D01*
X145408Y288391D01*
X145463Y288161D01*
X145553Y287943D01*
X145676Y287742D01*
X145830Y287562D01*
X146009Y287409D01*
X146211Y287285D01*
X146429Y287195D01*
X146658Y287140D01*
X146894Y287121D01*
X146953Y287126D01*
X150394D01*
Y267205D01*
G37*
G36*
Y87598D02*X148921D01*
X148862Y87603D01*
X148627Y87585D01*
X148627Y87585D01*
X148397Y87529D01*
X148179Y87439D01*
X147978Y87316D01*
X147798Y87162D01*
X147645Y86983D01*
X147522Y86782D01*
X147431Y86563D01*
X147376Y86334D01*
X147358Y86098D01*
X147362Y86040D01*
Y82598D01*
X147316Y83383D01*
X147132Y84148D01*
X146831Y84875D01*
X146420Y85546D01*
X145909Y86145D01*
X145388Y86589D01*
Y112507D01*
X145394Y112598D01*
X145388Y112690D01*
Y142428D01*
X145394Y142520D01*
X145388Y142611D01*
Y172350D01*
X145394Y172441D01*
X145388Y172532D01*
Y202271D01*
X145394Y202362D01*
X145388Y202454D01*
Y232192D01*
X145394Y232283D01*
X145388Y232375D01*
Y262113D01*
X145394Y262205D01*
Y258764D01*
X145389Y258705D01*
X145408Y258470D01*
X145408Y258469D01*
X145463Y258240D01*
X145553Y258022D01*
X145676Y257820D01*
X145830Y257641D01*
X146009Y257487D01*
X146211Y257364D01*
X146429Y257274D01*
X146658Y257219D01*
X146894Y257200D01*
X146953Y257205D01*
X150394D01*
Y237283D01*
X146952D01*
X146894Y237288D01*
X146659Y237270D01*
X146658Y237270D01*
X146429Y237214D01*
X146211Y237124D01*
X146009Y237001D01*
X145830Y236847D01*
X145676Y236668D01*
X145553Y236467D01*
X145463Y236248D01*
X145408Y236019D01*
X145389Y235783D01*
X145394Y235725D01*
Y228842D01*
X145389Y228783D01*
X145408Y228548D01*
X145408Y228548D01*
X145463Y228319D01*
X145553Y228100D01*
X145676Y227899D01*
X145830Y227720D01*
X146009Y227566D01*
X146211Y227443D01*
X146429Y227352D01*
X146658Y227297D01*
X146894Y227279D01*
X146953Y227283D01*
X150394D01*
Y207362D01*
X146952D01*
X146894Y207367D01*
X146659Y207348D01*
X146658Y207348D01*
X146429Y207293D01*
X146211Y207203D01*
X146009Y207079D01*
X145830Y206926D01*
X145676Y206747D01*
X145553Y206545D01*
X145463Y206327D01*
X145408Y206098D01*
X145389Y205862D01*
X145394Y205803D01*
Y198921D01*
X145389Y198862D01*
X145408Y198627D01*
X145408Y198627D01*
X145463Y198397D01*
X145553Y198179D01*
X145676Y197978D01*
X145830Y197798D01*
X146009Y197645D01*
X146211Y197522D01*
X146429Y197431D01*
X146658Y197376D01*
X146894Y197358D01*
X146953Y197362D01*
X150394D01*
Y177441D01*
X146952D01*
X146894Y177446D01*
X146659Y177427D01*
X146658Y177427D01*
X146429Y177372D01*
X146211Y177282D01*
X146009Y177158D01*
X145830Y177005D01*
X145676Y176825D01*
X145553Y176624D01*
X145463Y176406D01*
X145408Y176176D01*
X145389Y175941D01*
X145394Y175882D01*
Y169000D01*
X145389Y168941D01*
X145408Y168706D01*
X145408Y168706D01*
X145463Y168476D01*
X145553Y168258D01*
X145676Y168057D01*
X145830Y167877D01*
X146009Y167724D01*
X146211Y167600D01*
X146429Y167510D01*
X146658Y167455D01*
X146894Y167436D01*
X146953Y167441D01*
X150394D01*
Y147520D01*
X146952D01*
X146894Y147524D01*
X146659Y147506D01*
X146658Y147506D01*
X146429Y147451D01*
X146211Y147360D01*
X146009Y147237D01*
X145830Y147084D01*
X145676Y146904D01*
X145553Y146703D01*
X145463Y146485D01*
X145408Y146255D01*
X145389Y146020D01*
X145394Y145961D01*
Y139078D01*
X145389Y139020D01*
X145408Y138785D01*
X145408Y138784D01*
X145463Y138555D01*
X145553Y138337D01*
X145676Y138135D01*
X145830Y137956D01*
X146009Y137802D01*
X146211Y137679D01*
X146429Y137589D01*
X146658Y137534D01*
X146894Y137515D01*
X146953Y137520D01*
X150394D01*
Y117598D01*
X146952D01*
X146894Y117603D01*
X146659Y117585D01*
X146658Y117585D01*
X146429Y117529D01*
X146211Y117439D01*
X146009Y117316D01*
X145830Y117162D01*
X145676Y116983D01*
X145553Y116782D01*
X145463Y116563D01*
X145408Y116334D01*
X145389Y116098D01*
X145394Y116040D01*
Y109157D01*
X145389Y109098D01*
X145408Y108863D01*
X145408Y108863D01*
X145463Y108633D01*
X145553Y108415D01*
X145676Y108214D01*
X145830Y108034D01*
X146009Y107881D01*
X146211Y107758D01*
X146429Y107667D01*
X146658Y107612D01*
X146894Y107594D01*
X146953Y107598D01*
X150394D01*
Y87598D01*
G37*
G36*
Y50591D02*X145388D01*
Y78608D01*
X145909Y79052D01*
X146420Y79650D01*
X146831Y80321D01*
X147132Y81049D01*
X147316Y81814D01*
X147362Y82598D01*
Y79157D01*
X147358Y79098D01*
X147376Y78863D01*
X147376Y78863D01*
X147431Y78633D01*
X147522Y78415D01*
X147645Y78214D01*
X147798Y78034D01*
X147978Y77881D01*
X148179Y77758D01*
X148397Y77667D01*
X148627Y77612D01*
X148862Y77594D01*
X148921Y77598D01*
X150394D01*
Y50591D01*
G37*
G36*
X145388D02*X126366D01*
Y77684D01*
X126545Y77758D01*
X126747Y77881D01*
X126926Y78034D01*
X127079Y78214D01*
X127203Y78415D01*
X127293Y78633D01*
X127348Y78863D01*
X127367Y79098D01*
X127362Y79157D01*
Y86040D01*
X127367Y86098D01*
X127348Y86334D01*
X127348Y86334D01*
X127293Y86563D01*
X127203Y86782D01*
X127079Y86983D01*
X126926Y87162D01*
X126747Y87316D01*
X126545Y87439D01*
X126366Y87513D01*
Y420765D01*
X126378Y420764D01*
X127552Y420857D01*
X128697Y421132D01*
X129784Y421582D01*
X130788Y422197D01*
X131684Y422962D01*
X132448Y423857D01*
X133064Y424861D01*
X133514Y425949D01*
X133789Y427094D01*
X133858Y428268D01*
X133789Y429442D01*
X133514Y430586D01*
X133064Y431674D01*
X132448Y432678D01*
X131684Y433573D01*
X130788Y434338D01*
X129784Y434953D01*
X128697Y435404D01*
X127552Y435679D01*
X126378Y435771D01*
X126366Y435770D01*
Y455118D01*
X145388D01*
Y441824D01*
X145347Y442517D01*
X145164Y443282D01*
X144862Y444009D01*
X144451Y444680D01*
X143940Y445279D01*
X143342Y445790D01*
X142671Y446201D01*
X141944Y446502D01*
X141178Y446686D01*
X140394Y446748D01*
X139609Y446686D01*
X138844Y446502D01*
X138117Y446201D01*
X137446Y445790D01*
X136847Y445279D01*
X136336Y444680D01*
X135925Y444009D01*
X135624Y443282D01*
X135440Y442517D01*
X135378Y441732D01*
X135440Y440948D01*
X135624Y440182D01*
X135925Y439455D01*
X136336Y438784D01*
X136847Y438186D01*
X137446Y437675D01*
X138117Y437264D01*
X138844Y436962D01*
X139609Y436779D01*
X140394Y436717D01*
X141178Y436779D01*
X141944Y436962D01*
X142671Y437264D01*
X143342Y437675D01*
X143940Y438186D01*
X144451Y438784D01*
X144862Y439455D01*
X145164Y440182D01*
X145347Y440948D01*
X145388Y441641D01*
Y411902D01*
X145347Y412596D01*
X145164Y413361D01*
X144862Y414088D01*
X144451Y414759D01*
X143940Y415357D01*
X143342Y415869D01*
X142671Y416280D01*
X141944Y416581D01*
X141178Y416765D01*
X140394Y416826D01*
X139609Y416765D01*
X138844Y416581D01*
X138117Y416280D01*
X137446Y415869D01*
X136847Y415357D01*
X136336Y414759D01*
X135925Y414088D01*
X135624Y413361D01*
X135440Y412596D01*
X135378Y411811D01*
X135440Y411026D01*
X135624Y410261D01*
X135925Y409534D01*
X136336Y408863D01*
X136847Y408265D01*
X137446Y407753D01*
X138117Y407342D01*
X138844Y407041D01*
X139609Y406857D01*
X140394Y406796D01*
X141178Y406857D01*
X141944Y407041D01*
X142671Y407342D01*
X143342Y407753D01*
X143940Y408265D01*
X144451Y408863D01*
X144862Y409534D01*
X145164Y410261D01*
X145347Y411026D01*
X145388Y411720D01*
Y381981D01*
X145347Y382674D01*
X145164Y383440D01*
X144862Y384167D01*
X144451Y384838D01*
X143940Y385436D01*
X143342Y385947D01*
X142671Y386359D01*
X141944Y386660D01*
X141178Y386843D01*
X140394Y386905D01*
X139609Y386843D01*
X138844Y386660D01*
X138117Y386359D01*
X137446Y385947D01*
X136847Y385436D01*
X136336Y384838D01*
X135925Y384167D01*
X135624Y383440D01*
X135440Y382674D01*
X135378Y381890D01*
X135440Y381105D01*
X135624Y380340D01*
X135925Y379613D01*
X136336Y378942D01*
X136847Y378343D01*
X137446Y377832D01*
X138117Y377421D01*
X138844Y377120D01*
X139609Y376936D01*
X140394Y376874D01*
X141178Y376936D01*
X141944Y377120D01*
X142671Y377421D01*
X143342Y377832D01*
X143940Y378343D01*
X144451Y378942D01*
X144862Y379613D01*
X145164Y380340D01*
X145347Y381105D01*
X145388Y381798D01*
Y352060D01*
X145347Y352753D01*
X145164Y353518D01*
X144862Y354245D01*
X144451Y354916D01*
X143940Y355515D01*
X143342Y356026D01*
X142671Y356437D01*
X141944Y356738D01*
X141178Y356922D01*
X140394Y356984D01*
X139609Y356922D01*
X138844Y356738D01*
X138117Y356437D01*
X137446Y356026D01*
X136847Y355515D01*
X136336Y354916D01*
X135925Y354245D01*
X135624Y353518D01*
X135440Y352753D01*
X135378Y351969D01*
X135440Y351184D01*
X135624Y350419D01*
X135925Y349692D01*
X136336Y349021D01*
X136847Y348422D01*
X137446Y347911D01*
X138117Y347500D01*
X138844Y347199D01*
X139609Y347015D01*
X140394Y346953D01*
X141178Y347015D01*
X141944Y347199D01*
X142671Y347500D01*
X143342Y347911D01*
X143940Y348422D01*
X144451Y349021D01*
X144862Y349692D01*
X145164Y350419D01*
X145347Y351184D01*
X145388Y351877D01*
Y322139D01*
X145347Y322832D01*
X145164Y323597D01*
X144862Y324324D01*
X144451Y324995D01*
X143940Y325594D01*
X143342Y326105D01*
X142671Y326516D01*
X141944Y326817D01*
X141178Y327001D01*
X140394Y327063D01*
X139609Y327001D01*
X138844Y326817D01*
X138117Y326516D01*
X137446Y326105D01*
X136847Y325594D01*
X136336Y324995D01*
X135925Y324324D01*
X135624Y323597D01*
X135440Y322832D01*
X135378Y322047D01*
X135440Y321263D01*
X135624Y320497D01*
X135925Y319770D01*
X136336Y319099D01*
X136847Y318501D01*
X137446Y317990D01*
X138117Y317578D01*
X138844Y317277D01*
X139609Y317094D01*
X140394Y317032D01*
X141178Y317094D01*
X141944Y317277D01*
X142671Y317578D01*
X143342Y317990D01*
X143940Y318501D01*
X144451Y319099D01*
X144862Y319770D01*
X145164Y320497D01*
X145347Y321263D01*
X145388Y321956D01*
Y292217D01*
X145347Y292911D01*
X145164Y293676D01*
X144862Y294403D01*
X144451Y295074D01*
X143940Y295672D01*
X143342Y296184D01*
X142671Y296595D01*
X141944Y296896D01*
X141178Y297080D01*
X140394Y297141D01*
X139609Y297080D01*
X138844Y296896D01*
X138117Y296595D01*
X137446Y296184D01*
X136847Y295672D01*
X136336Y295074D01*
X135925Y294403D01*
X135624Y293676D01*
X135440Y292911D01*
X135378Y292126D01*
X135440Y291341D01*
X135624Y290576D01*
X135925Y289849D01*
X136336Y289178D01*
X136847Y288580D01*
X137446Y288068D01*
X138117Y287657D01*
X138844Y287356D01*
X139609Y287172D01*
X140394Y287111D01*
X141178Y287172D01*
X141944Y287356D01*
X142671Y287657D01*
X143342Y288068D01*
X143940Y288580D01*
X144451Y289178D01*
X144862Y289849D01*
X145164Y290576D01*
X145347Y291341D01*
X145388Y292035D01*
Y262296D01*
X145347Y262989D01*
X145164Y263755D01*
X144862Y264482D01*
X144451Y265153D01*
X143940Y265751D01*
X143342Y266262D01*
X142671Y266673D01*
X141944Y266975D01*
X141178Y267158D01*
X140394Y267220D01*
X139609Y267158D01*
X138844Y266975D01*
X138117Y266673D01*
X137446Y266262D01*
X136847Y265751D01*
X136336Y265153D01*
X135925Y264482D01*
X135624Y263755D01*
X135440Y262989D01*
X135378Y262205D01*
X135440Y261420D01*
X135624Y260655D01*
X135925Y259928D01*
X136336Y259257D01*
X136847Y258658D01*
X137446Y258147D01*
X138117Y257736D01*
X138844Y257435D01*
X139609Y257251D01*
X140394Y257189D01*
X141178Y257251D01*
X141944Y257435D01*
X142671Y257736D01*
X143342Y258147D01*
X143940Y258658D01*
X144451Y259257D01*
X144862Y259928D01*
X145164Y260655D01*
X145347Y261420D01*
X145388Y262113D01*
Y232375D01*
X145347Y233068D01*
X145164Y233833D01*
X144862Y234560D01*
X144451Y235231D01*
X143940Y235830D01*
X143342Y236341D01*
X142671Y236752D01*
X141944Y237053D01*
X141178Y237237D01*
X140394Y237299D01*
X139609Y237237D01*
X138844Y237053D01*
X138117Y236752D01*
X137446Y236341D01*
X136847Y235830D01*
X136336Y235231D01*
X135925Y234560D01*
X135624Y233833D01*
X135440Y233068D01*
X135378Y232283D01*
X135440Y231499D01*
X135624Y230734D01*
X135925Y230007D01*
X136336Y229335D01*
X136847Y228737D01*
X137446Y228226D01*
X138117Y227815D01*
X138844Y227514D01*
X139609Y227330D01*
X140394Y227268D01*
X141178Y227330D01*
X141944Y227514D01*
X142671Y227815D01*
X143342Y228226D01*
X143940Y228737D01*
X144451Y229335D01*
X144862Y230007D01*
X145164Y230734D01*
X145347Y231499D01*
X145388Y232192D01*
Y202454D01*
X145347Y203147D01*
X145164Y203912D01*
X144862Y204639D01*
X144451Y205310D01*
X143940Y205909D01*
X143342Y206420D01*
X142671Y206831D01*
X141944Y207132D01*
X141178Y207316D01*
X140394Y207378D01*
X139609Y207316D01*
X138844Y207132D01*
X138117Y206831D01*
X137446Y206420D01*
X136847Y205909D01*
X136336Y205310D01*
X135925Y204639D01*
X135624Y203912D01*
X135440Y203147D01*
X135378Y202362D01*
X135440Y201578D01*
X135624Y200812D01*
X135925Y200085D01*
X136336Y199414D01*
X136847Y198816D01*
X137446Y198305D01*
X138117Y197893D01*
X138844Y197592D01*
X139609Y197409D01*
X140394Y197347D01*
X141178Y197409D01*
X141944Y197592D01*
X142671Y197893D01*
X143342Y198305D01*
X143940Y198816D01*
X144451Y199414D01*
X144862Y200085D01*
X145164Y200812D01*
X145347Y201578D01*
X145388Y202271D01*
Y172532D01*
X145347Y173226D01*
X145164Y173991D01*
X144862Y174718D01*
X144451Y175389D01*
X143940Y175987D01*
X143342Y176499D01*
X142671Y176910D01*
X141944Y177211D01*
X141178Y177395D01*
X140394Y177456D01*
X139609Y177395D01*
X138844Y177211D01*
X138117Y176910D01*
X137446Y176499D01*
X136847Y175987D01*
X136336Y175389D01*
X135925Y174718D01*
X135624Y173991D01*
X135440Y173226D01*
X135378Y172441D01*
X135440Y171656D01*
X135624Y170891D01*
X135925Y170164D01*
X136336Y169493D01*
X136847Y168895D01*
X137446Y168383D01*
X138117Y167972D01*
X138844Y167671D01*
X139609Y167487D01*
X140394Y167426D01*
X141178Y167487D01*
X141944Y167671D01*
X142671Y167972D01*
X143342Y168383D01*
X143940Y168895D01*
X144451Y169493D01*
X144862Y170164D01*
X145164Y170891D01*
X145347Y171656D01*
X145388Y172350D01*
Y142611D01*
X145347Y143304D01*
X145164Y144070D01*
X144862Y144797D01*
X144451Y145468D01*
X143940Y146066D01*
X143342Y146577D01*
X142671Y146988D01*
X141944Y147290D01*
X141178Y147473D01*
X140394Y147535D01*
X139609Y147473D01*
X138844Y147290D01*
X138117Y146988D01*
X137446Y146577D01*
X136847Y146066D01*
X136336Y145468D01*
X135925Y144797D01*
X135624Y144070D01*
X135440Y143304D01*
X135378Y142520D01*
X135440Y141735D01*
X135624Y140970D01*
X135925Y140243D01*
X136336Y139572D01*
X136847Y138973D01*
X137446Y138462D01*
X138117Y138051D01*
X138844Y137750D01*
X139609Y137566D01*
X140394Y137504D01*
X141178Y137566D01*
X141944Y137750D01*
X142671Y138051D01*
X143342Y138462D01*
X143940Y138973D01*
X144451Y139572D01*
X144862Y140243D01*
X145164Y140970D01*
X145347Y141735D01*
X145388Y142428D01*
Y112690D01*
X145347Y113383D01*
X145164Y114148D01*
X144862Y114875D01*
X144451Y115546D01*
X143940Y116145D01*
X143342Y116656D01*
X142671Y117067D01*
X141944Y117368D01*
X141178Y117552D01*
X140394Y117614D01*
X139609Y117552D01*
X138844Y117368D01*
X138117Y117067D01*
X137446Y116656D01*
X136847Y116145D01*
X136336Y115546D01*
X135925Y114875D01*
X135624Y114148D01*
X135440Y113383D01*
X135378Y112598D01*
X135440Y111814D01*
X135624Y111049D01*
X135925Y110321D01*
X136336Y109650D01*
X136847Y109052D01*
X137446Y108541D01*
X138117Y108130D01*
X138844Y107828D01*
X139609Y107645D01*
X140394Y107583D01*
X141178Y107645D01*
X141944Y107828D01*
X142671Y108130D01*
X143342Y108541D01*
X143940Y109052D01*
X144451Y109650D01*
X144862Y110321D01*
X145164Y111049D01*
X145347Y111814D01*
X145388Y112507D01*
Y86589D01*
X145310Y86656D01*
X144639Y87067D01*
X143912Y87368D01*
X143147Y87552D01*
X142362Y87614D01*
X141578Y87552D01*
X140812Y87368D01*
X140085Y87067D01*
X139414Y86656D01*
X138816Y86145D01*
X138305Y85546D01*
X137893Y84875D01*
X137592Y84148D01*
X137409Y83383D01*
X137347Y82598D01*
X137409Y81814D01*
X137592Y81049D01*
X137893Y80321D01*
X138305Y79650D01*
X138816Y79052D01*
X139414Y78541D01*
X140085Y78130D01*
X140812Y77828D01*
X141578Y77645D01*
X142362Y77583D01*
X143147Y77645D01*
X143912Y77828D01*
X144639Y78130D01*
X145310Y78541D01*
X145388Y78608D01*
Y50591D01*
G37*
G36*
X126366D02*X114409D01*
Y78035D01*
X114639Y78130D01*
X115310Y78541D01*
X115909Y79052D01*
X116420Y79650D01*
X116831Y80321D01*
X117132Y81049D01*
X117316Y81814D01*
X117362Y82598D01*
X117316Y83383D01*
X117132Y84148D01*
X116831Y84875D01*
X116420Y85546D01*
X115909Y86145D01*
X115310Y86656D01*
X114639Y87067D01*
X114409Y87162D01*
Y107598D01*
X117851D01*
X117909Y107594D01*
X118145Y107612D01*
X118145Y107612D01*
X118374Y107667D01*
X118593Y107758D01*
X118794Y107881D01*
X118973Y108034D01*
X119127Y108214D01*
X119250Y108415D01*
X119340Y108633D01*
X119396Y108863D01*
X119414Y109098D01*
X119409Y109157D01*
Y116040D01*
X119414Y116098D01*
X119396Y116334D01*
X119396Y116334D01*
X119340Y116563D01*
X119250Y116782D01*
X119127Y116983D01*
X118973Y117162D01*
X118794Y117316D01*
X118593Y117439D01*
X118374Y117529D01*
X118145Y117585D01*
X117909Y117603D01*
X117851Y117598D01*
X114409D01*
Y137520D01*
X117851D01*
X117909Y137515D01*
X118145Y137534D01*
X118145Y137534D01*
X118374Y137589D01*
X118593Y137679D01*
X118794Y137802D01*
X118973Y137956D01*
X119127Y138135D01*
X119250Y138337D01*
X119340Y138555D01*
X119396Y138784D01*
X119414Y139020D01*
X119409Y139079D01*
Y145961D01*
X119414Y146020D01*
X119396Y146255D01*
X119396Y146255D01*
X119340Y146485D01*
X119250Y146703D01*
X119127Y146904D01*
X118973Y147084D01*
X118794Y147237D01*
X118593Y147360D01*
X118374Y147451D01*
X118145Y147506D01*
X117909Y147524D01*
X117851Y147520D01*
X114409D01*
Y167441D01*
X117851D01*
X117909Y167436D01*
X118145Y167455D01*
X118145Y167455D01*
X118374Y167510D01*
X118593Y167600D01*
X118794Y167724D01*
X118973Y167877D01*
X119127Y168057D01*
X119250Y168258D01*
X119340Y168476D01*
X119396Y168706D01*
X119414Y168941D01*
X119409Y169000D01*
Y175882D01*
X119414Y175941D01*
X119396Y176176D01*
X119396Y176176D01*
X119340Y176406D01*
X119250Y176624D01*
X119127Y176825D01*
X118973Y177005D01*
X118794Y177158D01*
X118593Y177282D01*
X118374Y177372D01*
X118145Y177427D01*
X117909Y177446D01*
X117851Y177441D01*
X114409D01*
Y197362D01*
X117851D01*
X117909Y197358D01*
X118145Y197376D01*
X118145Y197376D01*
X118374Y197431D01*
X118593Y197522D01*
X118794Y197645D01*
X118973Y197798D01*
X119127Y197978D01*
X119250Y198179D01*
X119340Y198397D01*
X119396Y198627D01*
X119414Y198862D01*
X119409Y198921D01*
Y205803D01*
X119414Y205862D01*
X119396Y206097D01*
X119396Y206098D01*
X119340Y206327D01*
X119250Y206545D01*
X119127Y206747D01*
X118973Y206926D01*
X118794Y207079D01*
X118593Y207203D01*
X118374Y207293D01*
X118145Y207348D01*
X117909Y207367D01*
X117851Y207362D01*
X114409D01*
Y227283D01*
X117851D01*
X117909Y227279D01*
X118145Y227297D01*
X118145Y227297D01*
X118374Y227352D01*
X118593Y227443D01*
X118794Y227566D01*
X118973Y227720D01*
X119127Y227899D01*
X119250Y228100D01*
X119340Y228319D01*
X119396Y228548D01*
X119414Y228783D01*
X119409Y228842D01*
Y235725D01*
X119414Y235783D01*
X119396Y236019D01*
X119396Y236019D01*
X119340Y236248D01*
X119250Y236467D01*
X119127Y236668D01*
X118973Y236847D01*
X118794Y237001D01*
X118593Y237124D01*
X118374Y237214D01*
X118145Y237270D01*
X117909Y237288D01*
X117851Y237283D01*
X114409D01*
Y257205D01*
X117851D01*
X117909Y257200D01*
X118145Y257219D01*
X118145Y257219D01*
X118374Y257274D01*
X118593Y257364D01*
X118794Y257487D01*
X118973Y257641D01*
X119127Y257820D01*
X119250Y258022D01*
X119340Y258240D01*
X119396Y258469D01*
X119414Y258705D01*
X119409Y258764D01*
Y265646D01*
X119414Y265705D01*
X119396Y265940D01*
X119396Y265940D01*
X119340Y266170D01*
X119250Y266388D01*
X119127Y266589D01*
X118973Y266769D01*
X118794Y266922D01*
X118593Y267045D01*
X118374Y267136D01*
X118145Y267191D01*
X117909Y267209D01*
X117851Y267205D01*
X114409D01*
Y287126D01*
X117851D01*
X117909Y287121D01*
X118145Y287140D01*
X118145Y287140D01*
X118374Y287195D01*
X118593Y287285D01*
X118794Y287409D01*
X118973Y287562D01*
X119127Y287742D01*
X119250Y287943D01*
X119340Y288161D01*
X119396Y288391D01*
X119414Y288626D01*
X119409Y288685D01*
Y295567D01*
X119414Y295626D01*
X119396Y295861D01*
X119396Y295861D01*
X119340Y296091D01*
X119250Y296309D01*
X119127Y296510D01*
X118973Y296690D01*
X118794Y296843D01*
X118593Y296967D01*
X118374Y297057D01*
X118145Y297112D01*
X117909Y297131D01*
X117851Y297126D01*
X114409D01*
Y317047D01*
X117851D01*
X117909Y317043D01*
X118145Y317061D01*
X118145Y317061D01*
X118374Y317116D01*
X118593Y317207D01*
X118794Y317330D01*
X118973Y317483D01*
X119127Y317663D01*
X119250Y317864D01*
X119340Y318082D01*
X119396Y318312D01*
X119414Y318547D01*
X119409Y318606D01*
Y325488D01*
X119414Y325547D01*
X119396Y325782D01*
X119396Y325783D01*
X119340Y326012D01*
X119250Y326230D01*
X119127Y326432D01*
X118973Y326611D01*
X118794Y326765D01*
X118593Y326888D01*
X118374Y326978D01*
X118145Y327033D01*
X117909Y327052D01*
X117851Y327047D01*
X114409D01*
Y346969D01*
X117851D01*
X117909Y346964D01*
X118145Y346982D01*
X118145Y346982D01*
X118374Y347038D01*
X118593Y347128D01*
X118794Y347251D01*
X118973Y347405D01*
X119127Y347584D01*
X119250Y347785D01*
X119340Y348004D01*
X119396Y348233D01*
X119414Y348469D01*
X119409Y348527D01*
Y355410D01*
X119414Y355469D01*
X119396Y355704D01*
X119396Y355704D01*
X119340Y355933D01*
X119250Y356152D01*
X119127Y356353D01*
X118973Y356532D01*
X118794Y356686D01*
X118593Y356809D01*
X118374Y356899D01*
X118145Y356955D01*
X117909Y356973D01*
X117851Y356969D01*
X114409D01*
Y376890D01*
X117851D01*
X117909Y376885D01*
X118145Y376904D01*
X118145Y376904D01*
X118374Y376959D01*
X118593Y377049D01*
X118794Y377172D01*
X118973Y377326D01*
X119127Y377505D01*
X119250Y377707D01*
X119340Y377925D01*
X119396Y378154D01*
X119414Y378390D01*
X119409Y378449D01*
Y385331D01*
X119414Y385390D01*
X119396Y385625D01*
X119396Y385625D01*
X119340Y385855D01*
X119250Y386073D01*
X119127Y386274D01*
X118973Y386454D01*
X118794Y386607D01*
X118593Y386730D01*
X118374Y386821D01*
X118145Y386876D01*
X117909Y386894D01*
X117851Y386890D01*
X114409D01*
Y406811D01*
X117851D01*
X117909Y406806D01*
X118145Y406825D01*
X118145Y406825D01*
X118374Y406880D01*
X118593Y406970D01*
X118794Y407094D01*
X118973Y407247D01*
X119127Y407427D01*
X119250Y407628D01*
X119340Y407846D01*
X119396Y408076D01*
X119414Y408311D01*
X119409Y408370D01*
Y415252D01*
X119414Y415311D01*
X119396Y415546D01*
X119396Y415546D01*
X119340Y415776D01*
X119250Y415994D01*
X119127Y416195D01*
X118973Y416375D01*
X118794Y416528D01*
X118593Y416652D01*
X118374Y416742D01*
X118145Y416797D01*
X117909Y416816D01*
X117851Y416811D01*
X114409D01*
Y436732D01*
X117851D01*
X117909Y436728D01*
X118145Y436746D01*
X118145Y436746D01*
X118374Y436801D01*
X118593Y436892D01*
X118794Y437015D01*
X118973Y437168D01*
X119127Y437348D01*
X119250Y437549D01*
X119340Y437767D01*
X119396Y437997D01*
X119414Y438232D01*
X119409Y438291D01*
Y445174D01*
X119414Y445232D01*
X119396Y445467D01*
X119396Y445468D01*
X119340Y445697D01*
X119250Y445915D01*
X119127Y446117D01*
X118973Y446296D01*
X118794Y446450D01*
X118593Y446573D01*
X118374Y446663D01*
X118145Y446718D01*
X117909Y446737D01*
X117851Y446732D01*
X114409D01*
Y455118D01*
X126366D01*
Y435770D01*
X125204Y435679D01*
X124059Y435404D01*
X122971Y434953D01*
X121968Y434338D01*
X121072Y433573D01*
X120308Y432678D01*
X119692Y431674D01*
X119242Y430586D01*
X118967Y429442D01*
X118875Y428268D01*
X118967Y427094D01*
X119242Y425949D01*
X119692Y424861D01*
X120308Y423857D01*
X121072Y422962D01*
X121968Y422197D01*
X122971Y421582D01*
X124059Y421132D01*
X125204Y420857D01*
X126366Y420765D01*
Y87513D01*
X126327Y87529D01*
X126098Y87585D01*
X125862Y87603D01*
X125803Y87598D01*
X118921D01*
X118862Y87603D01*
X118627Y87585D01*
X118627Y87585D01*
X118397Y87529D01*
X118179Y87439D01*
X117978Y87316D01*
X117798Y87162D01*
X117645Y86983D01*
X117522Y86782D01*
X117431Y86563D01*
X117376Y86334D01*
X117358Y86098D01*
X117362Y86040D01*
Y79157D01*
X117358Y79098D01*
X117376Y78863D01*
X117376Y78863D01*
X117431Y78633D01*
X117522Y78415D01*
X117645Y78214D01*
X117798Y78034D01*
X117978Y77881D01*
X118179Y77758D01*
X118397Y77667D01*
X118627Y77612D01*
X118862Y77594D01*
X118921Y77598D01*
X125803D01*
X125862Y77594D01*
X126097Y77612D01*
X126098Y77612D01*
X126327Y77667D01*
X126366Y77684D01*
Y50591D01*
G37*
G36*
X114409Y147520D02*X110968D01*
X110909Y147524D01*
X110674Y147506D01*
X110674Y147506D01*
X110444Y147451D01*
X110226Y147360D01*
X110025Y147237D01*
X109846Y147084D01*
X109692Y146904D01*
X109569Y146703D01*
X109478Y146485D01*
X109423Y146255D01*
X109405Y146020D01*
X109409Y145961D01*
Y142520D01*
X109404Y142611D01*
Y172350D01*
X109409Y172441D01*
X109404Y172532D01*
Y202271D01*
X109409Y202362D01*
X109404Y202454D01*
Y232192D01*
X109409Y232283D01*
X109404Y232375D01*
Y262113D01*
X109409Y262205D01*
X109404Y262296D01*
Y292035D01*
X109409Y292126D01*
X109404Y292217D01*
Y321956D01*
X109409Y322047D01*
X109404Y322139D01*
Y351877D01*
X109409Y351969D01*
X109404Y352060D01*
Y381798D01*
X109409Y381890D01*
X109404Y381981D01*
Y411720D01*
X109409Y411811D01*
X109404Y411902D01*
Y441641D01*
X109409Y441732D01*
X109404Y441824D01*
Y455118D01*
X114409D01*
Y446732D01*
X110968D01*
X110909Y446737D01*
X110674Y446718D01*
X110674Y446718D01*
X110444Y446663D01*
X110226Y446573D01*
X110025Y446450D01*
X109846Y446296D01*
X109692Y446117D01*
X109569Y445915D01*
X109478Y445697D01*
X109423Y445468D01*
X109405Y445232D01*
X109409Y445173D01*
Y438291D01*
X109405Y438232D01*
X109423Y437997D01*
X109423Y437997D01*
X109478Y437767D01*
X109569Y437549D01*
X109692Y437348D01*
X109846Y437168D01*
X110025Y437015D01*
X110226Y436892D01*
X110444Y436801D01*
X110674Y436746D01*
X110909Y436728D01*
X110968Y436732D01*
X114409D01*
Y416811D01*
X110968D01*
X110909Y416816D01*
X110674Y416797D01*
X110674Y416797D01*
X110444Y416742D01*
X110226Y416652D01*
X110025Y416528D01*
X109846Y416375D01*
X109692Y416195D01*
X109569Y415994D01*
X109478Y415776D01*
X109423Y415546D01*
X109405Y415311D01*
X109409Y415252D01*
Y408370D01*
X109405Y408311D01*
X109423Y408076D01*
X109423Y408076D01*
X109478Y407846D01*
X109569Y407628D01*
X109692Y407427D01*
X109846Y407247D01*
X110025Y407094D01*
X110226Y406970D01*
X110444Y406880D01*
X110674Y406825D01*
X110909Y406806D01*
X110968Y406811D01*
X114409D01*
Y386890D01*
X110968D01*
X110909Y386894D01*
X110674Y386876D01*
X110674Y386876D01*
X110444Y386821D01*
X110226Y386730D01*
X110025Y386607D01*
X109846Y386454D01*
X109692Y386274D01*
X109569Y386073D01*
X109478Y385855D01*
X109423Y385625D01*
X109405Y385390D01*
X109409Y385331D01*
Y378449D01*
X109405Y378390D01*
X109423Y378155D01*
X109423Y378154D01*
X109478Y377925D01*
X109569Y377707D01*
X109692Y377505D01*
X109846Y377326D01*
X110025Y377172D01*
X110226Y377049D01*
X110444Y376959D01*
X110674Y376904D01*
X110909Y376885D01*
X110968Y376890D01*
X114409D01*
Y356969D01*
X110968D01*
X110909Y356973D01*
X110674Y356955D01*
X110674Y356955D01*
X110444Y356899D01*
X110226Y356809D01*
X110025Y356686D01*
X109846Y356532D01*
X109692Y356353D01*
X109569Y356152D01*
X109478Y355933D01*
X109423Y355704D01*
X109405Y355469D01*
X109409Y355410D01*
Y348527D01*
X109405Y348469D01*
X109423Y348233D01*
X109423Y348233D01*
X109478Y348004D01*
X109569Y347785D01*
X109692Y347584D01*
X109846Y347405D01*
X110025Y347251D01*
X110226Y347128D01*
X110444Y347038D01*
X110674Y346982D01*
X110909Y346964D01*
X110968Y346969D01*
X114409D01*
Y327047D01*
X110968D01*
X110909Y327052D01*
X110674Y327033D01*
X110674Y327033D01*
X110444Y326978D01*
X110226Y326888D01*
X110025Y326765D01*
X109846Y326611D01*
X109692Y326432D01*
X109569Y326230D01*
X109478Y326012D01*
X109423Y325783D01*
X109405Y325547D01*
X109409Y325488D01*
Y318606D01*
X109405Y318547D01*
X109423Y318312D01*
X109423Y318312D01*
X109478Y318082D01*
X109569Y317864D01*
X109692Y317663D01*
X109846Y317483D01*
X110025Y317330D01*
X110226Y317207D01*
X110444Y317116D01*
X110674Y317061D01*
X110909Y317043D01*
X110968Y317047D01*
X114409D01*
Y297126D01*
X110968D01*
X110909Y297131D01*
X110674Y297112D01*
X110674Y297112D01*
X110444Y297057D01*
X110226Y296967D01*
X110025Y296843D01*
X109846Y296690D01*
X109692Y296510D01*
X109569Y296309D01*
X109478Y296091D01*
X109423Y295861D01*
X109405Y295626D01*
X109409Y295567D01*
Y288685D01*
X109405Y288626D01*
X109423Y288391D01*
X109423Y288391D01*
X109478Y288161D01*
X109569Y287943D01*
X109692Y287742D01*
X109846Y287562D01*
X110025Y287409D01*
X110226Y287285D01*
X110444Y287195D01*
X110674Y287140D01*
X110909Y287121D01*
X110968Y287126D01*
X114409D01*
Y267205D01*
X110968D01*
X110909Y267209D01*
X110674Y267191D01*
X110674Y267191D01*
X110444Y267136D01*
X110226Y267045D01*
X110025Y266922D01*
X109846Y266769D01*
X109692Y266589D01*
X109569Y266388D01*
X109478Y266170D01*
X109423Y265940D01*
X109405Y265705D01*
X109409Y265646D01*
Y258764D01*
X109405Y258705D01*
X109423Y258470D01*
X109423Y258469D01*
X109478Y258240D01*
X109569Y258022D01*
X109692Y257820D01*
X109846Y257641D01*
X110025Y257487D01*
X110226Y257364D01*
X110444Y257274D01*
X110674Y257219D01*
X110909Y257200D01*
X110968Y257205D01*
X114409D01*
Y237283D01*
X110968D01*
X110909Y237288D01*
X110674Y237270D01*
X110674Y237270D01*
X110444Y237214D01*
X110226Y237124D01*
X110025Y237001D01*
X109846Y236847D01*
X109692Y236668D01*
X109569Y236467D01*
X109478Y236248D01*
X109423Y236019D01*
X109405Y235783D01*
X109409Y235725D01*
Y228842D01*
X109405Y228783D01*
X109423Y228548D01*
X109423Y228548D01*
X109478Y228319D01*
X109569Y228100D01*
X109692Y227899D01*
X109846Y227720D01*
X110025Y227566D01*
X110226Y227443D01*
X110444Y227352D01*
X110674Y227297D01*
X110909Y227279D01*
X110968Y227283D01*
X114409D01*
Y207362D01*
X110968D01*
X110909Y207367D01*
X110674Y207348D01*
X110674Y207348D01*
X110444Y207293D01*
X110226Y207203D01*
X110025Y207079D01*
X109846Y206926D01*
X109692Y206747D01*
X109569Y206545D01*
X109478Y206327D01*
X109423Y206098D01*
X109405Y205862D01*
X109409Y205803D01*
Y198921D01*
X109405Y198862D01*
X109423Y198627D01*
X109423Y198627D01*
X109478Y198397D01*
X109569Y198179D01*
X109692Y197978D01*
X109846Y197798D01*
X110025Y197645D01*
X110226Y197522D01*
X110444Y197431D01*
X110674Y197376D01*
X110909Y197358D01*
X110968Y197362D01*
X114409D01*
Y177441D01*
X110968D01*
X110909Y177446D01*
X110674Y177427D01*
X110674Y177427D01*
X110444Y177372D01*
X110226Y177282D01*
X110025Y177158D01*
X109846Y177005D01*
X109692Y176825D01*
X109569Y176624D01*
X109478Y176406D01*
X109423Y176176D01*
X109405Y175941D01*
X109409Y175882D01*
Y169000D01*
X109405Y168941D01*
X109423Y168706D01*
X109423Y168706D01*
X109478Y168476D01*
X109569Y168258D01*
X109692Y168057D01*
X109846Y167877D01*
X110025Y167724D01*
X110226Y167600D01*
X110444Y167510D01*
X110674Y167455D01*
X110909Y167436D01*
X110968Y167441D01*
X114409D01*
Y147520D01*
G37*
G36*
Y87162D02*X113912Y87368D01*
X113147Y87552D01*
X112362Y87614D01*
X111578Y87552D01*
X110812Y87368D01*
X110085Y87067D01*
X109414Y86656D01*
X109404Y86647D01*
Y112507D01*
X109409Y112598D01*
X109404Y112690D01*
Y142428D01*
X109409Y142520D01*
Y139078D01*
X109405Y139020D01*
X109423Y138785D01*
X109423Y138784D01*
X109478Y138555D01*
X109569Y138337D01*
X109692Y138135D01*
X109846Y137956D01*
X110025Y137802D01*
X110226Y137679D01*
X110444Y137589D01*
X110674Y137534D01*
X110909Y137515D01*
X110968Y137520D01*
X114409D01*
Y117598D01*
X110968D01*
X110909Y117603D01*
X110674Y117585D01*
X110674Y117585D01*
X110444Y117529D01*
X110226Y117439D01*
X110025Y117316D01*
X109846Y117162D01*
X109692Y116983D01*
X109569Y116782D01*
X109478Y116563D01*
X109423Y116334D01*
X109405Y116098D01*
X109409Y116040D01*
Y109157D01*
X109405Y109098D01*
X109423Y108863D01*
X109423Y108863D01*
X109478Y108633D01*
X109569Y108415D01*
X109692Y108214D01*
X109846Y108034D01*
X110025Y107881D01*
X110226Y107758D01*
X110444Y107667D01*
X110674Y107612D01*
X110909Y107594D01*
X110968Y107598D01*
X114409D01*
Y87162D01*
G37*
G36*
Y50591D02*X109404D01*
Y78550D01*
X109414Y78541D01*
X110085Y78130D01*
X110812Y77828D01*
X111578Y77645D01*
X112362Y77583D01*
X113147Y77645D01*
X113912Y77828D01*
X114409Y78035D01*
Y50591D01*
G37*
G36*
X109404D02*X92362D01*
Y77598D01*
X95803D01*
X95862Y77594D01*
X96097Y77612D01*
X96098Y77612D01*
X96327Y77667D01*
X96545Y77758D01*
X96747Y77881D01*
X96926Y78034D01*
X97079Y78214D01*
X97203Y78415D01*
X97293Y78633D01*
X97348Y78863D01*
X97367Y79098D01*
X97362Y79157D01*
Y86040D01*
X97367Y86098D01*
X97348Y86334D01*
X97348Y86334D01*
X97293Y86563D01*
X97203Y86782D01*
X97079Y86983D01*
X96926Y87162D01*
X96747Y87316D01*
X96545Y87439D01*
X96327Y87529D01*
X96098Y87585D01*
X95862Y87603D01*
X95803Y87598D01*
X92362D01*
Y455118D01*
X109404D01*
Y441824D01*
X109363Y442517D01*
X109179Y443282D01*
X108878Y444009D01*
X108467Y444680D01*
X107956Y445279D01*
X107357Y445790D01*
X106686Y446201D01*
X105959Y446502D01*
X105194Y446686D01*
X104409Y446748D01*
X103625Y446686D01*
X102860Y446502D01*
X102132Y446201D01*
X101461Y445790D01*
X100863Y445279D01*
X100352Y444680D01*
X99941Y444009D01*
X99640Y443282D01*
X99456Y442517D01*
X99394Y441732D01*
X99456Y440948D01*
X99640Y440182D01*
X99941Y439455D01*
X100352Y438784D01*
X100863Y438186D01*
X101461Y437675D01*
X102132Y437264D01*
X102860Y436962D01*
X103625Y436779D01*
X104409Y436717D01*
X105194Y436779D01*
X105959Y436962D01*
X106686Y437264D01*
X107357Y437675D01*
X107956Y438186D01*
X108467Y438784D01*
X108878Y439455D01*
X109179Y440182D01*
X109363Y440948D01*
X109404Y441641D01*
Y411902D01*
X109363Y412596D01*
X109179Y413361D01*
X108878Y414088D01*
X108467Y414759D01*
X107956Y415357D01*
X107357Y415869D01*
X106686Y416280D01*
X105959Y416581D01*
X105194Y416765D01*
X104409Y416826D01*
X103625Y416765D01*
X102860Y416581D01*
X102132Y416280D01*
X101461Y415869D01*
X100863Y415357D01*
X100352Y414759D01*
X99941Y414088D01*
X99640Y413361D01*
X99456Y412596D01*
X99394Y411811D01*
X99456Y411026D01*
X99640Y410261D01*
X99941Y409534D01*
X100352Y408863D01*
X100863Y408265D01*
X101461Y407753D01*
X102132Y407342D01*
X102860Y407041D01*
X103625Y406857D01*
X104409Y406796D01*
X105194Y406857D01*
X105959Y407041D01*
X106686Y407342D01*
X107357Y407753D01*
X107956Y408265D01*
X108467Y408863D01*
X108878Y409534D01*
X109179Y410261D01*
X109363Y411026D01*
X109404Y411720D01*
Y381981D01*
X109363Y382674D01*
X109179Y383440D01*
X108878Y384167D01*
X108467Y384838D01*
X107956Y385436D01*
X107357Y385947D01*
X106686Y386359D01*
X105959Y386660D01*
X105194Y386843D01*
X104409Y386905D01*
X103625Y386843D01*
X102860Y386660D01*
X102132Y386359D01*
X101461Y385947D01*
X100863Y385436D01*
X100352Y384838D01*
X99941Y384167D01*
X99640Y383440D01*
X99456Y382674D01*
X99394Y381890D01*
X99456Y381105D01*
X99640Y380340D01*
X99941Y379613D01*
X100352Y378942D01*
X100863Y378343D01*
X101461Y377832D01*
X102132Y377421D01*
X102860Y377120D01*
X103625Y376936D01*
X104409Y376874D01*
X105194Y376936D01*
X105959Y377120D01*
X106686Y377421D01*
X107357Y377832D01*
X107956Y378343D01*
X108467Y378942D01*
X108878Y379613D01*
X109179Y380340D01*
X109363Y381105D01*
X109404Y381798D01*
Y352060D01*
X109363Y352753D01*
X109179Y353518D01*
X108878Y354245D01*
X108467Y354916D01*
X107956Y355515D01*
X107357Y356026D01*
X106686Y356437D01*
X105959Y356738D01*
X105194Y356922D01*
X104409Y356984D01*
X103625Y356922D01*
X102860Y356738D01*
X102132Y356437D01*
X101461Y356026D01*
X100863Y355515D01*
X100352Y354916D01*
X99941Y354245D01*
X99640Y353518D01*
X99456Y352753D01*
X99394Y351969D01*
X99456Y351184D01*
X99640Y350419D01*
X99941Y349692D01*
X100352Y349021D01*
X100863Y348422D01*
X101461Y347911D01*
X102132Y347500D01*
X102860Y347199D01*
X103625Y347015D01*
X104409Y346953D01*
X105194Y347015D01*
X105959Y347199D01*
X106686Y347500D01*
X107357Y347911D01*
X107956Y348422D01*
X108467Y349021D01*
X108878Y349692D01*
X109179Y350419D01*
X109363Y351184D01*
X109404Y351877D01*
Y322139D01*
X109363Y322832D01*
X109179Y323597D01*
X108878Y324324D01*
X108467Y324995D01*
X107956Y325594D01*
X107357Y326105D01*
X106686Y326516D01*
X105959Y326817D01*
X105194Y327001D01*
X104409Y327063D01*
X103625Y327001D01*
X102860Y326817D01*
X102132Y326516D01*
X101461Y326105D01*
X100863Y325594D01*
X100352Y324995D01*
X99941Y324324D01*
X99640Y323597D01*
X99456Y322832D01*
X99394Y322047D01*
X99456Y321263D01*
X99640Y320497D01*
X99941Y319770D01*
X100352Y319099D01*
X100863Y318501D01*
X101461Y317990D01*
X102132Y317578D01*
X102860Y317277D01*
X103625Y317094D01*
X104409Y317032D01*
X105194Y317094D01*
X105959Y317277D01*
X106686Y317578D01*
X107357Y317990D01*
X107956Y318501D01*
X108467Y319099D01*
X108878Y319770D01*
X109179Y320497D01*
X109363Y321263D01*
X109404Y321956D01*
Y292217D01*
X109363Y292911D01*
X109179Y293676D01*
X108878Y294403D01*
X108467Y295074D01*
X107956Y295672D01*
X107357Y296184D01*
X106686Y296595D01*
X105959Y296896D01*
X105194Y297080D01*
X104409Y297141D01*
X103625Y297080D01*
X102860Y296896D01*
X102132Y296595D01*
X101461Y296184D01*
X100863Y295672D01*
X100352Y295074D01*
X99941Y294403D01*
X99640Y293676D01*
X99456Y292911D01*
X99394Y292126D01*
X99456Y291341D01*
X99640Y290576D01*
X99941Y289849D01*
X100352Y289178D01*
X100863Y288580D01*
X101461Y288068D01*
X102132Y287657D01*
X102860Y287356D01*
X103625Y287172D01*
X104409Y287111D01*
X105194Y287172D01*
X105959Y287356D01*
X106686Y287657D01*
X107357Y288068D01*
X107956Y288580D01*
X108467Y289178D01*
X108878Y289849D01*
X109179Y290576D01*
X109363Y291341D01*
X109404Y292035D01*
Y262296D01*
X109363Y262989D01*
X109179Y263755D01*
X108878Y264482D01*
X108467Y265153D01*
X107956Y265751D01*
X107357Y266262D01*
X106686Y266673D01*
X105959Y266975D01*
X105194Y267158D01*
X104409Y267220D01*
X103625Y267158D01*
X102860Y266975D01*
X102132Y266673D01*
X101461Y266262D01*
X100863Y265751D01*
X100352Y265153D01*
X99941Y264482D01*
X99640Y263755D01*
X99456Y262989D01*
X99394Y262205D01*
X99456Y261420D01*
X99640Y260655D01*
X99941Y259928D01*
X100352Y259257D01*
X100863Y258658D01*
X101461Y258147D01*
X102132Y257736D01*
X102860Y257435D01*
X103625Y257251D01*
X104409Y257189D01*
X105194Y257251D01*
X105959Y257435D01*
X106686Y257736D01*
X107357Y258147D01*
X107956Y258658D01*
X108467Y259257D01*
X108878Y259928D01*
X109179Y260655D01*
X109363Y261420D01*
X109404Y262113D01*
Y232375D01*
X109363Y233068D01*
X109179Y233833D01*
X108878Y234560D01*
X108467Y235231D01*
X107956Y235830D01*
X107357Y236341D01*
X106686Y236752D01*
X105959Y237053D01*
X105194Y237237D01*
X104409Y237299D01*
X103625Y237237D01*
X102860Y237053D01*
X102132Y236752D01*
X101461Y236341D01*
X100863Y235830D01*
X100352Y235231D01*
X99941Y234560D01*
X99640Y233833D01*
X99456Y233068D01*
X99394Y232283D01*
X99456Y231499D01*
X99640Y230734D01*
X99941Y230007D01*
X100352Y229335D01*
X100863Y228737D01*
X101461Y228226D01*
X102132Y227815D01*
X102860Y227514D01*
X103625Y227330D01*
X104409Y227268D01*
X105194Y227330D01*
X105959Y227514D01*
X106686Y227815D01*
X107357Y228226D01*
X107956Y228737D01*
X108467Y229335D01*
X108878Y230007D01*
X109179Y230734D01*
X109363Y231499D01*
X109404Y232192D01*
Y202454D01*
X109363Y203147D01*
X109179Y203912D01*
X108878Y204639D01*
X108467Y205310D01*
X107956Y205909D01*
X107357Y206420D01*
X106686Y206831D01*
X105959Y207132D01*
X105194Y207316D01*
X104409Y207378D01*
X103625Y207316D01*
X102860Y207132D01*
X102132Y206831D01*
X101461Y206420D01*
X100863Y205909D01*
X100352Y205310D01*
X99941Y204639D01*
X99640Y203912D01*
X99456Y203147D01*
X99394Y202362D01*
X99456Y201578D01*
X99640Y200812D01*
X99941Y200085D01*
X100352Y199414D01*
X100863Y198816D01*
X101461Y198305D01*
X102132Y197893D01*
X102860Y197592D01*
X103625Y197409D01*
X104409Y197347D01*
X105194Y197409D01*
X105959Y197592D01*
X106686Y197893D01*
X107357Y198305D01*
X107956Y198816D01*
X108467Y199414D01*
X108878Y200085D01*
X109179Y200812D01*
X109363Y201578D01*
X109404Y202271D01*
Y172532D01*
X109363Y173226D01*
X109179Y173991D01*
X108878Y174718D01*
X108467Y175389D01*
X107956Y175987D01*
X107357Y176499D01*
X106686Y176910D01*
X105959Y177211D01*
X105194Y177395D01*
X104409Y177456D01*
X103625Y177395D01*
X102860Y177211D01*
X102132Y176910D01*
X101461Y176499D01*
X100863Y175987D01*
X100352Y175389D01*
X99941Y174718D01*
X99640Y173991D01*
X99456Y173226D01*
X99394Y172441D01*
X99456Y171656D01*
X99640Y170891D01*
X99941Y170164D01*
X100352Y169493D01*
X100863Y168895D01*
X101461Y168383D01*
X102132Y167972D01*
X102860Y167671D01*
X103625Y167487D01*
X104409Y167426D01*
X105194Y167487D01*
X105959Y167671D01*
X106686Y167972D01*
X107357Y168383D01*
X107956Y168895D01*
X108467Y169493D01*
X108878Y170164D01*
X109179Y170891D01*
X109363Y171656D01*
X109404Y172350D01*
Y142611D01*
X109363Y143304D01*
X109179Y144070D01*
X108878Y144797D01*
X108467Y145468D01*
X107956Y146066D01*
X107357Y146577D01*
X106686Y146988D01*
X105959Y147290D01*
X105194Y147473D01*
X104409Y147535D01*
X103625Y147473D01*
X102860Y147290D01*
X102132Y146988D01*
X101461Y146577D01*
X100863Y146066D01*
X100352Y145468D01*
X99941Y144797D01*
X99640Y144070D01*
X99456Y143304D01*
X99394Y142520D01*
X99456Y141735D01*
X99640Y140970D01*
X99941Y140243D01*
X100352Y139572D01*
X100863Y138973D01*
X101461Y138462D01*
X102132Y138051D01*
X102860Y137750D01*
X103625Y137566D01*
X104409Y137504D01*
X105194Y137566D01*
X105959Y137750D01*
X106686Y138051D01*
X107357Y138462D01*
X107956Y138973D01*
X108467Y139572D01*
X108878Y140243D01*
X109179Y140970D01*
X109363Y141735D01*
X109404Y142428D01*
Y112690D01*
X109363Y113383D01*
X109179Y114148D01*
X108878Y114875D01*
X108467Y115546D01*
X107956Y116145D01*
X107357Y116656D01*
X106686Y117067D01*
X105959Y117368D01*
X105194Y117552D01*
X104409Y117614D01*
X103625Y117552D01*
X102860Y117368D01*
X102132Y117067D01*
X101461Y116656D01*
X100863Y116145D01*
X100352Y115546D01*
X99941Y114875D01*
X99640Y114148D01*
X99456Y113383D01*
X99394Y112598D01*
X99456Y111814D01*
X99640Y111049D01*
X99941Y110321D01*
X100352Y109650D01*
X100863Y109052D01*
X101461Y108541D01*
X102132Y108130D01*
X102860Y107828D01*
X103625Y107645D01*
X104409Y107583D01*
X105194Y107645D01*
X105959Y107828D01*
X106686Y108130D01*
X107357Y108541D01*
X107956Y109052D01*
X108467Y109650D01*
X108878Y110321D01*
X109179Y111049D01*
X109363Y111814D01*
X109404Y112507D01*
Y86647D01*
X108816Y86145D01*
X108305Y85546D01*
X107893Y84875D01*
X107592Y84148D01*
X107409Y83383D01*
X107347Y82598D01*
X107409Y81814D01*
X107592Y81049D01*
X107893Y80321D01*
X108305Y79650D01*
X108816Y79052D01*
X109404Y78550D01*
Y50591D01*
G37*
G36*
X92362D02*X83661D01*
X81693Y51575D01*
X78740Y54528D01*
X77756Y56496D01*
Y80653D01*
X77893Y80321D01*
X78305Y79650D01*
X78816Y79052D01*
X79414Y78541D01*
X80085Y78130D01*
X80812Y77828D01*
X81578Y77645D01*
X82362Y77583D01*
X83147Y77645D01*
X83912Y77828D01*
X84639Y78130D01*
X85310Y78541D01*
X85909Y79052D01*
X86420Y79650D01*
X86831Y80321D01*
X87132Y81049D01*
X87316Y81814D01*
X87362Y82598D01*
X87316Y83383D01*
X87132Y84148D01*
X86831Y84875D01*
X86420Y85546D01*
X85909Y86145D01*
X85310Y86656D01*
X84639Y87067D01*
X83912Y87368D01*
X83147Y87552D01*
X82362Y87614D01*
X81578Y87552D01*
X80812Y87368D01*
X80085Y87067D01*
X79414Y86656D01*
X78816Y86145D01*
X78305Y85546D01*
X77893Y84875D01*
X77756Y84543D01*
Y449213D01*
X78740Y451181D01*
X81693Y454134D01*
X83661Y455118D01*
X92362D01*
Y87598D01*
X88921D01*
X88862Y87603D01*
X88627Y87585D01*
X88627Y87585D01*
X88397Y87529D01*
X88179Y87439D01*
X87978Y87316D01*
X87798Y87162D01*
X87645Y86983D01*
X87522Y86782D01*
X87431Y86563D01*
X87376Y86334D01*
X87358Y86098D01*
X87362Y86040D01*
Y79157D01*
X87358Y79098D01*
X87376Y78863D01*
X87376Y78863D01*
X87431Y78633D01*
X87522Y78415D01*
X87645Y78214D01*
X87798Y78034D01*
X87978Y77881D01*
X88179Y77758D01*
X88397Y77667D01*
X88627Y77612D01*
X88862Y77594D01*
X88921Y77598D01*
X92362D01*
Y50591D01*
G37*
G54D12*X126378Y428268D03*
G54D11*G36*
X110909Y445232D02*X117909D01*
Y438232D01*
X110909D01*
Y445232D01*
G37*
G54D13*X104409Y441732D03*
X140394Y411811D03*
G54D11*G36*
X110909Y415311D02*X117909D01*
Y408311D01*
X110909D01*
Y415311D01*
G37*
G54D13*X104409Y411811D03*
G54D11*G36*
X146894Y415311D02*X153894D01*
Y408311D01*
X146894D01*
Y415311D01*
G37*
G36*
X182878D02*X189878D01*
Y408311D01*
X182878D01*
Y415311D01*
G37*
G54D13*X176378Y411811D03*
G54D11*G36*
X146894Y445232D02*X153894D01*
Y438232D01*
X146894D01*
Y445232D01*
G37*
G54D13*X140394Y441732D03*
G54D11*G36*
X182878Y445232D02*X189878D01*
Y438232D01*
X182878D01*
Y445232D01*
G37*
G54D13*X176378Y441732D03*
G54D11*G36*
X88862Y86098D02*X95862D01*
Y79098D01*
X88862D01*
Y86098D01*
G37*
G54D13*X82362Y82598D03*
G54D11*G36*
X118862Y86098D02*X125862D01*
Y79098D01*
X118862D01*
Y86098D01*
G37*
G54D13*X112362Y82598D03*
X142362D03*
G54D12*X212362Y116614D03*
G54D11*G36*
X182878Y116098D02*X189878D01*
Y109098D01*
X182878D01*
Y116098D01*
G37*
G54D13*X176378Y112598D03*
G54D11*G36*
X148862Y86098D02*X155862D01*
Y79098D01*
X148862D01*
Y86098D01*
G37*
G36*
X178862D02*X185862D01*
Y79098D01*
X178862D01*
Y86098D01*
G37*
G54D13*X172362Y82598D03*
G54D11*G36*
X208862Y86098D02*X215862D01*
Y79098D01*
X208862D01*
Y86098D01*
G37*
G54D13*X202362Y82598D03*
G54D11*G36*
X146894Y116098D02*X153894D01*
Y109098D01*
X146894D01*
Y116098D01*
G37*
G54D13*X140394Y112598D03*
G54D11*G36*
X110909Y116098D02*X117909D01*
Y109098D01*
X110909D01*
Y116098D01*
G37*
G54D13*X104409Y112598D03*
G54D11*G36*
X238862Y86098D02*X245862D01*
Y79098D01*
X238862D01*
Y86098D01*
G37*
G36*
X268862D02*X275862D01*
Y79098D01*
X268862D01*
Y86098D01*
G37*
G54D13*X262362Y82598D03*
G54D11*G36*
X298862Y86098D02*X305862D01*
Y79098D01*
X298862D01*
Y86098D01*
G37*
G54D13*X292362Y82598D03*
X232362D03*
G54D11*G36*
X290956Y35740D02*X287556D01*
Y31740D01*
X290956D01*
Y35740D01*
G37*
G36*
X294856Y27540D02*X291456D01*
Y23540D01*
X294856D01*
Y27540D01*
G37*
G36*
X298756Y35740D02*X295356D01*
Y31740D01*
X298756D01*
Y35740D01*
G37*
G36*
X146894Y205862D02*X153894D01*
Y198862D01*
X146894D01*
Y205862D01*
G37*
G54D13*X140394Y202362D03*
G54D11*G36*
X146894Y175941D02*X153894D01*
Y168941D01*
X146894D01*
Y175941D01*
G37*
G54D13*X140394Y172441D03*
G54D11*G36*
X110909Y146020D02*X117909D01*
Y139020D01*
X110909D01*
Y146020D01*
G37*
G36*
X146894D02*X153894D01*
Y139020D01*
X146894D01*
Y146020D01*
G37*
G54D13*X140394Y142520D03*
G54D11*G36*
X146894Y235783D02*X153894D01*
Y228783D01*
X146894D01*
Y235783D01*
G37*
G54D13*X140394Y232283D03*
G54D11*G36*
X146894Y355469D02*X153894D01*
Y348469D01*
X146894D01*
Y355469D01*
G37*
G36*
Y385390D02*X153894D01*
Y378390D01*
X146894D01*
Y385390D01*
G37*
G36*
Y265705D02*X153894D01*
Y258705D01*
X146894D01*
Y265705D01*
G37*
G36*
Y295626D02*X153894D01*
Y288626D01*
X146894D01*
Y295626D01*
G37*
G36*
Y325547D02*X153894D01*
Y318547D01*
X146894D01*
Y325547D01*
G37*
G54D13*X140394Y351969D03*
Y381890D03*
Y262205D03*
Y292126D03*
Y322047D03*
G54D11*G36*
X182878Y205862D02*X189878D01*
Y198862D01*
X182878D01*
Y205862D01*
G37*
G54D13*X176378Y202362D03*
X104409Y142520D03*
G54D11*G36*
X182878Y146020D02*X189878D01*
Y139020D01*
X182878D01*
Y146020D01*
G37*
G54D13*X176378Y142520D03*
G54D11*G36*
X182878Y175941D02*X189878D01*
Y168941D01*
X182878D01*
Y175941D01*
G37*
G54D13*X176378Y172441D03*
G54D11*G36*
X182878Y235783D02*X189878D01*
Y228783D01*
X182878D01*
Y235783D01*
G37*
G54D13*X176378Y232283D03*
G54D11*G36*
X182878Y355469D02*X189878D01*
Y348469D01*
X182878D01*
Y355469D01*
G37*
G36*
Y385390D02*X189878D01*
Y378390D01*
X182878D01*
Y385390D01*
G37*
G36*
Y265705D02*X189878D01*
Y258705D01*
X182878D01*
Y265705D01*
G37*
G36*
Y295626D02*X189878D01*
Y288626D01*
X182878D01*
Y295626D01*
G37*
G36*
Y325547D02*X189878D01*
Y318547D01*
X182878D01*
Y325547D01*
G37*
G54D13*X176378Y351969D03*
Y381890D03*
Y262205D03*
Y292126D03*
Y322047D03*
G54D11*G36*
X110909Y265705D02*X117909D01*
Y258705D01*
X110909D01*
Y265705D01*
G37*
G36*
Y295626D02*X117909D01*
Y288626D01*
X110909D01*
Y295626D01*
G37*
G36*
Y325547D02*X117909D01*
Y318547D01*
X110909D01*
Y325547D01*
G37*
G36*
Y355469D02*X117909D01*
Y348469D01*
X110909D01*
Y355469D01*
G37*
G36*
Y175941D02*X117909D01*
Y168941D01*
X110909D01*
Y175941D01*
G37*
G36*
Y205862D02*X117909D01*
Y198862D01*
X110909D01*
Y205862D01*
G37*
G36*
Y235783D02*X117909D01*
Y228783D01*
X110909D01*
Y235783D01*
G37*
G36*
Y385390D02*X117909D01*
Y378390D01*
X110909D01*
Y385390D01*
G37*
G54D13*X104409Y262205D03*
Y292126D03*
Y322047D03*
Y351969D03*
Y172441D03*
Y202362D03*
Y232283D03*
Y381890D03*
G54D11*G36*
X420831Y445232D02*X427831D01*
Y438232D01*
X420831D01*
Y445232D01*
G37*
G54D13*X414331Y441732D03*
G54D12*X438307Y431535D03*
G54D11*G36*
X456815Y445232D02*X463815D01*
Y438232D01*
X456815D01*
Y445232D01*
G37*
G54D13*X450315Y441732D03*
G54D11*G36*
X420831Y325547D02*X427831D01*
Y318547D01*
X420831D01*
Y325547D01*
G37*
G54D13*X414331Y322047D03*
G54D11*G36*
X420831Y355469D02*X427831D01*
Y348469D01*
X420831D01*
Y355469D01*
G37*
G54D13*X414331Y351969D03*
G54D11*G36*
X496723Y314076D02*X493323D01*
Y310076D01*
X496723D01*
Y314076D01*
G37*
G36*
X504523D02*X501123D01*
Y310076D01*
X504523D01*
Y314076D01*
G37*
G36*
X500623Y305876D02*X497223D01*
Y301876D01*
X500623D01*
Y305876D01*
G37*
G36*
X495012Y346682D02*X491612D01*
Y342682D01*
X495012D01*
Y346682D01*
G37*
G36*
X502812D02*X499412D01*
Y342682D01*
X502812D01*
Y346682D01*
G37*
G36*
X498912Y338482D02*X495512D01*
Y334482D01*
X498912D01*
Y338482D01*
G37*
G36*
X456815Y415311D02*X463815D01*
Y408311D01*
X456815D01*
Y415311D01*
G37*
G54D13*X450315Y411811D03*
G54D11*G36*
X456815Y385390D02*X463815D01*
Y378390D01*
X456815D01*
Y385390D01*
G37*
G54D13*X450315Y381890D03*
G54D11*G36*
X420831Y415311D02*X427831D01*
Y408311D01*
X420831D01*
Y415311D01*
G37*
G54D13*X414331Y411811D03*
G54D11*G36*
X420831Y385390D02*X427831D01*
Y378390D01*
X420831D01*
Y385390D01*
G37*
G54D13*X414331Y381890D03*
G54D11*G36*
X317339Y404812D02*X313939D01*
Y400812D01*
X317339D01*
Y404812D01*
G37*
G36*
X325139D02*X321739D01*
Y400812D01*
X325139D01*
Y404812D01*
G37*
G36*
X321239Y396612D02*X317839D01*
Y392612D01*
X321239D01*
Y396612D01*
G37*
G36*
X352252Y403838D02*X348852D01*
Y399838D01*
X352252D01*
Y403838D01*
G37*
G36*
X360052D02*X356652D01*
Y399838D01*
X360052D01*
Y403838D01*
G37*
G36*
X356152Y395638D02*X352752D01*
Y391638D01*
X356152D01*
Y395638D01*
G37*
G36*
X357800Y375499D02*X354400D01*
Y371499D01*
X357800D01*
Y375499D01*
G37*
G36*
X365600D02*X362200D01*
Y371499D01*
X365600D01*
Y375499D01*
G37*
G36*
X361700Y367299D02*X358300D01*
Y363299D01*
X361700D01*
Y367299D01*
G37*
G36*
X349674Y342271D02*X346274D01*
Y338271D01*
X349674D01*
Y342271D01*
G37*
G36*
X357474D02*X354074D01*
Y338271D01*
X357474D01*
Y342271D01*
G37*
G36*
X353574Y334071D02*X350174D01*
Y330071D01*
X353574D01*
Y334071D01*
G37*
G36*
X354674Y312743D02*X351274D01*
Y308743D01*
X354674D01*
Y312743D01*
G37*
G36*
X362474D02*X359074D01*
Y308743D01*
X362474D01*
Y312743D01*
G37*
G36*
X358574Y304543D02*X355174D01*
Y300543D01*
X358574D01*
Y304543D01*
G37*
G54D12*X352362Y116614D03*
G54D11*G36*
X384846Y116098D02*X391846D01*
Y109098D01*
X384846D01*
Y116098D01*
G37*
G54D13*X378346Y112598D03*
X442362Y82598D03*
G54D11*G36*
X418862Y86098D02*X425862D01*
Y79098D01*
X418862D01*
Y86098D01*
G37*
G54D13*X412362Y82598D03*
G54D11*G36*
X388862Y86098D02*X395862D01*
Y79098D01*
X388862D01*
Y86098D01*
G37*
G36*
X448862D02*X455862D01*
Y79098D01*
X448862D01*
Y86098D01*
G37*
G36*
X478862D02*X485862D01*
Y79098D01*
X478862D01*
Y86098D01*
G37*
G54D13*X472362Y82598D03*
X382362D03*
G54D11*G36*
X456815Y116098D02*X463815D01*
Y109098D01*
X456815D01*
Y116098D01*
G37*
G36*
X441566Y36225D02*X438166D01*
Y32225D01*
X441566D01*
Y36225D01*
G37*
G36*
X449366D02*X445966D01*
Y32225D01*
X449366D01*
Y36225D01*
G37*
G36*
X445466Y28025D02*X442066D01*
Y24025D01*
X445466D01*
Y28025D01*
G37*
G36*
X413725Y37233D02*X410325D01*
Y33233D01*
X413725D01*
Y37233D01*
G37*
G36*
X421525D02*X418125D01*
Y33233D01*
X421525D01*
Y37233D01*
G37*
G36*
X417625Y29033D02*X414225D01*
Y25033D01*
X417625D01*
Y29033D01*
G37*
G36*
X469800Y35999D02*X466400D01*
Y31999D01*
X469800D01*
Y35999D01*
G37*
G36*
X477600D02*X474200D01*
Y31999D01*
X477600D01*
Y35999D01*
G37*
G36*
X473700Y27799D02*X470300D01*
Y23799D01*
X473700D01*
Y27799D01*
G37*
G54D13*X450315Y112598D03*
G54D11*G36*
X420831Y116098D02*X427831D01*
Y109098D01*
X420831D01*
Y116098D01*
G37*
G54D13*X414331Y112598D03*
G54D11*G36*
X328862Y86098D02*X335862D01*
Y79098D01*
X328862D01*
Y86098D01*
G37*
G36*
X358862D02*X365862D01*
Y79098D01*
X358862D01*
Y86098D01*
G37*
G54D13*X352362Y82598D03*
G54D11*G36*
X353627Y35611D02*X350227D01*
Y31611D01*
X353627D01*
Y35611D01*
G37*
G36*
X361427D02*X358027D01*
Y31611D01*
X361427D01*
Y35611D01*
G37*
G36*
X357527Y27411D02*X354127D01*
Y23411D01*
X357527D01*
Y27411D01*
G37*
G36*
X383155Y35512D02*X379755D01*
Y31512D01*
X383155D01*
Y35512D01*
G37*
G36*
X390955D02*X387555D01*
Y31512D01*
X390955D01*
Y35512D01*
G37*
G36*
X387055Y27312D02*X383655D01*
Y23312D01*
X387055D01*
Y27312D01*
G37*
G36*
X331949Y35267D02*X328549D01*
Y31267D01*
X331949D01*
Y35267D01*
G37*
G54D13*X322362Y82598D03*
G54D11*G36*
X324149Y35267D02*X320749D01*
Y31267D01*
X324149D01*
Y35267D01*
G37*
G36*
X328049Y27067D02*X324649D01*
Y23067D01*
X328049D01*
Y27067D01*
G37*
G36*
X384846Y146020D02*X391846D01*
Y139020D01*
X384846D01*
Y146020D01*
G37*
G54D13*X414331Y172441D03*
G54D11*G36*
X420831Y146020D02*X427831D01*
Y139020D01*
X420831D01*
Y146020D01*
G37*
G54D13*X414331Y142520D03*
G54D11*G36*
X420831Y175941D02*X427831D01*
Y168941D01*
X420831D01*
Y175941D01*
G37*
G54D13*X450315Y172441D03*
G54D11*G36*
X456815Y205862D02*X463815D01*
Y198862D01*
X456815D01*
Y205862D01*
G37*
G54D13*X450315Y202362D03*
G54D11*G36*
X456815Y146020D02*X463815D01*
Y139020D01*
X456815D01*
Y146020D01*
G37*
G54D13*X450315Y142520D03*
G54D11*G36*
X456815Y175941D02*X463815D01*
Y168941D01*
X456815D01*
Y175941D01*
G37*
G36*
Y235783D02*X463815D01*
Y228783D01*
X456815D01*
Y235783D01*
G37*
G36*
X420831D02*X427831D01*
Y228783D01*
X420831D01*
Y235783D01*
G37*
G54D13*X414331Y232283D03*
G54D11*G36*
X420831Y265705D02*X427831D01*
Y258705D01*
X420831D01*
Y265705D01*
G37*
G54D13*X414331Y262205D03*
G54D11*G36*
X420831Y205862D02*X427831D01*
Y198862D01*
X420831D01*
Y205862D01*
G37*
G54D13*X414331Y202362D03*
X450315Y232283D03*
G54D11*G36*
X420831Y295626D02*X427831D01*
Y288626D01*
X420831D01*
Y295626D01*
G37*
G54D13*X414331Y292126D03*
G54D11*G36*
X456815Y265705D02*X463815D01*
Y258705D01*
X456815D01*
Y265705D01*
G37*
G36*
Y295626D02*X463815D01*
Y288626D01*
X456815D01*
Y295626D01*
G37*
G36*
Y325547D02*X463815D01*
Y318547D01*
X456815D01*
Y325547D01*
G37*
G36*
Y355469D02*X463815D01*
Y348469D01*
X456815D01*
Y355469D01*
G37*
G54D13*X450315Y262205D03*
Y292126D03*
Y322047D03*
Y351969D03*
G54D11*G36*
X354800Y256499D02*X351400D01*
Y252499D01*
X354800D01*
Y256499D01*
G37*
G36*
X362600D02*X359200D01*
Y252499D01*
X362600D01*
Y256499D01*
G37*
G36*
X358700Y248299D02*X355300D01*
Y244299D01*
X358700D01*
Y248299D01*
G37*
G36*
X359241Y223413D02*X355841D01*
Y219413D01*
X359241D01*
Y223413D01*
G37*
G36*
X352800Y198499D02*X349400D01*
Y194499D01*
X352800D01*
Y198499D01*
G37*
G36*
X360600D02*X357200D01*
Y194499D01*
X360600D01*
Y198499D01*
G37*
G36*
X356700Y190299D02*X353300D01*
Y186299D01*
X356700D01*
Y190299D01*
G37*
G36*
X355341Y215213D02*X351941D01*
Y211213D01*
X355341D01*
Y215213D01*
G37*
G54D13*X378346Y142520D03*
G54D11*G36*
X355833Y283380D02*X352433D01*
Y279380D01*
X355833D01*
Y283380D01*
G37*
G36*
X363633D02*X360233D01*
Y279380D01*
X363633D01*
Y283380D01*
G37*
G36*
X359733Y275180D02*X356333D01*
Y271180D01*
X359733D01*
Y275180D01*
G37*
G36*
X351441Y223413D02*X348041D01*
Y219413D01*
X351441D01*
Y223413D01*
G37*
G36*
X331233Y192220D02*X327833D01*
Y188220D01*
X331233D01*
Y192220D01*
G37*
G36*
X339033D02*X335633D01*
Y188220D01*
X339033D01*
Y192220D01*
G37*
G36*
X335133Y184020D02*X331733D01*
Y180020D01*
X335133D01*
Y184020D01*
G37*
G36*
X384846Y265705D02*X391846D01*
Y258705D01*
X384846D01*
Y265705D01*
G37*
G36*
Y295626D02*X391846D01*
Y288626D01*
X384846D01*
Y295626D01*
G37*
G36*
Y325547D02*X391846D01*
Y318547D01*
X384846D01*
Y325547D01*
G37*
G36*
Y355469D02*X391846D01*
Y348469D01*
X384846D01*
Y355469D01*
G37*
G36*
Y175941D02*X391846D01*
Y168941D01*
X384846D01*
Y175941D01*
G37*
G36*
Y205862D02*X391846D01*
Y198862D01*
X384846D01*
Y205862D01*
G37*
G36*
Y235783D02*X391846D01*
Y228783D01*
X384846D01*
Y235783D01*
G37*
G36*
Y385390D02*X391846D01*
Y378390D01*
X384846D01*
Y385390D01*
G37*
G36*
Y415311D02*X391846D01*
Y408311D01*
X384846D01*
Y415311D01*
G37*
G36*
Y445232D02*X391846D01*
Y438232D01*
X384846D01*
Y445232D01*
G37*
G54D13*X378346Y262205D03*
Y292126D03*
Y322047D03*
Y351969D03*
Y172441D03*
Y202362D03*
Y232283D03*
Y381890D03*
Y411811D03*
Y441732D03*
G54D14*G54D15*G54D14*G54D15*G54D14*G54D15*G54D14*G54D15*M02*
